<svg width="221" height="221" viewBox="0 0 221 221" fill="none" xmlns="http://www.w3.org/2000/svg">
<path d="M221 169.021H0V169.132H221V169.021Z" fill="#EBEBEB"/>
<path d="M37.8279 173.232H23.1888V173.343H37.8279V173.232Z" fill="#EBEBEB"/>
<path d="M96.3046 172.035H75.6411V172.146H96.3046V172.035Z" fill="#EBEBEB"/>
<path d="M58.3381 176.646H49.8561V176.757H58.3381V176.646Z" fill="#EBEBEB"/>
<path d="M151.402 174.73H138.049V174.841H151.402V174.73Z" fill="#EBEBEB"/>
<path d="M163.88 174.73H155.34V174.841H163.88V174.73Z" fill="#EBEBEB"/>
<path d="M198.855 176.596H172.971V176.706H198.855V176.596Z" fill="#EBEBEB"/>
<path d="M104.753 149.31H19.407C18.7384 149.309 18.0976 149.043 17.6252 148.569C17.1529 148.096 16.8876 147.455 16.8876 146.786V26.8142C16.8934 26.1495 17.1613 25.5138 17.633 25.0454C18.1047 24.577 18.7422 24.3136 19.407 24.3125H104.753C105.422 24.3125 106.064 24.5784 106.537 25.0517C107.011 25.525 107.277 26.167 107.277 26.8363V146.786C107.277 147.456 107.011 148.098 106.537 148.571C106.064 149.044 105.422 149.31 104.753 149.31ZM19.407 24.4009C18.7677 24.4021 18.155 24.6568 17.7034 25.1093C17.2517 25.5618 16.9981 26.1749 16.9981 26.8142V146.786C16.9981 147.426 17.2517 148.039 17.7034 148.491C18.155 148.944 18.7677 149.198 19.407 149.2H104.753C105.392 149.198 106.006 148.944 106.458 148.491C106.91 148.039 107.165 147.426 107.166 146.786V26.8142C107.165 26.1745 106.91 25.5614 106.458 25.109C106.006 24.6567 105.392 24.4021 104.753 24.4009H19.407Z" fill="#EBEBEB"/>
<path d="M200.365 149.31H115.015C114.346 149.309 113.705 149.043 113.232 148.57C112.759 148.097 112.492 147.455 112.491 146.786V26.8142C112.498 26.1491 112.767 25.5134 113.239 25.0452C113.712 24.5769 114.35 24.3136 115.015 24.3125H200.365C201.029 24.3148 201.666 24.5787 202.136 25.047C202.607 25.5153 202.874 26.1502 202.88 26.8142V146.786C202.88 147.454 202.616 148.095 202.144 148.568C201.673 149.041 201.033 149.308 200.365 149.31ZM115.015 24.4009C114.375 24.4021 113.762 24.6567 113.31 25.109C112.858 25.5614 112.603 26.1745 112.602 26.8142V146.786C112.603 147.426 112.858 148.039 113.31 148.491C113.762 148.944 114.375 149.198 115.015 149.2H200.365C201.005 149.198 201.618 148.944 202.07 148.491C202.523 148.039 202.777 147.426 202.779 146.786V26.8142C202.777 26.1745 202.523 25.5614 202.07 25.109C201.618 24.6567 201.005 24.4021 200.365 24.4009H115.015Z" fill="#EBEBEB"/>
<path d="M39.5637 108.391L144.729 108.391V42.5812L39.5637 42.5812L39.5637 108.391Z" fill="#F0F0F0"/>
<path d="M142.675 105.295V45.6738L41.6245 45.6738V105.295H142.675Z" fill="#FAFAFA"/>
<path d="M129.368 105.295L118.999 45.6738H111.357L121.722 105.295H129.368Z" fill="white"/>
<path d="M119.959 105.295L109.594 45.6738H106.177L116.542 105.295H119.959Z" fill="white"/>
<path d="M103.239 105.295L92.8739 45.6738H85.2317L95.5966 105.295H103.239Z" fill="white"/>
<path d="M83.9701 105.295L73.6007 45.6738H70.1841L80.549 105.295H83.9701Z" fill="white"/>
<path d="M116.121 105.295V45.6738H115.599V105.295H116.121Z" fill="#E0E0E0"/>
<path d="M142.675 105.301V45.6797H142.153V105.301H142.675Z" fill="#E0E0E0"/>
<path d="M118.175 105.295V45.6738H116.115V105.295H118.175Z" fill="#F0F0F0"/>
<path d="M90.613 105.295V45.6738H90.0915V105.295H90.613Z" fill="#E0E0E0"/>
<path d="M92.6672 105.295V45.6738H90.6075V105.295H92.6672Z" fill="#F0F0F0"/>
<path d="M65.0801 105.295V45.6738H64.5585V105.295H65.0801Z" fill="#E0E0E0"/>
<path d="M67.1469 105.301V45.6797H65.0871V105.301H67.1469Z" fill="#F0F0F0"/>
<path d="M39.5597 108.389L39.5597 42.5801H39.0381L39.0381 108.389H39.5597Z" fill="#E0E0E0"/>
<path d="M28.8772 38.0621H149.397C149.579 38.0621 149.754 37.9901 149.883 37.8617C150.013 37.7334 150.086 37.5591 150.087 37.377C150.087 37.1941 150.014 37.0188 149.885 36.8895C149.756 36.7601 149.58 36.6875 149.397 36.6875H28.8772C28.6951 36.6887 28.5209 36.7618 28.3925 36.891C28.2642 37.0202 28.1921 37.1949 28.1921 37.377C28.1933 37.5584 28.2659 37.7319 28.3941 37.8602C28.5223 37.9884 28.6959 38.061 28.8772 38.0621Z" fill="#E0E0E0"/>
<g opacity="0.6">
<path d="M101.982 155.43H147.712L147.712 35.3515H101.982L101.982 155.43Z" fill="#F5F5F5"/>
<path d="M129.791 156.412H133.623L132.549 36.334H130.834L129.791 156.412Z" fill="#E6E6E6"/>
<path d="M138.247 156.412H140.099L139.578 36.334H138.751L138.247 156.412Z" fill="#E6E6E6"/>
<path d="M118.675 156.412H120.523L120.006 36.334H119.179L118.675 156.412Z" fill="#E6E6E6"/>
<path d="M109.261 156.412H111.109L110.592 36.334H109.765L109.261 156.412Z" fill="#E6E6E6"/>
</g>
<g opacity="0.6">
<path d="M31.2382 155.43H54.1029L54.1029 35.3515H31.2382L31.2382 155.43Z" fill="#F5F5F5"/>
<path d="M45.1425 156.412H47.0563L46.5215 36.334H45.664L45.1425 156.412Z" fill="#E6E6E6"/>
<path d="M49.377 156.412H50.3007L50.0444 36.334H49.6289L49.377 156.412Z" fill="#E6E6E6"/>
<path d="M39.5847 156.412H40.5085L40.2477 36.334H39.8367L39.5847 156.412Z" fill="#E6E6E6"/>
<path d="M34.8839 156.412H35.8077L35.5469 36.334H35.1314L34.8839 156.412Z" fill="#E6E6E6"/>
</g>
<path d="M189.947 53.9277H159.613V91.7895H189.947V53.9277Z" fill="#E6E6E6"/>
<path d="M191.28 53.9277H160.066V91.7895H191.28V53.9277Z" fill="#F5F5F5"/>
<path d="M188.888 89.1003V56.6133H162.461V89.1003H188.888Z" fill="#FAFAFA"/>
<path d="M188.888 89.1003V56.6133H188.641V89.1003H188.888Z" fill="#E6E6E6"/>
<path d="M184.412 70.7258C185.903 69.2344 185.903 66.8164 184.412 65.325C182.921 63.8337 180.503 63.8337 179.011 65.325C177.52 66.8164 177.52 69.2344 179.011 70.7257C180.503 72.2171 182.921 72.2171 184.412 70.7258Z" fill="#F0F0F0"/>
<path d="M181.093 79.2402C184.124 76.2091 184.124 71.2948 181.093 68.2637C178.062 65.2327 173.148 65.2327 170.117 68.2637C167.086 71.2948 167.086 76.2091 170.117 79.2402C173.148 82.2712 178.062 82.2712 181.093 79.2402Z" fill="white"/>
<path d="M173.594 68.8912C174.079 66.8385 172.808 64.7817 170.755 64.2972C168.702 63.8127 166.645 65.084 166.161 67.1367C165.676 69.1895 166.948 71.2463 169 71.7308C171.053 72.2152 173.11 70.9439 173.594 68.8912Z" fill="#F0F0F0"/>
<path d="M158.705 123.924H154.559V166.188H158.705V123.924Z" fill="#F0F0F0"/>
<path d="M197.671 121.391H153.551V123.919H197.671V121.391Z" fill="#F0F0F0"/>
<path d="M194.971 166.188H156.248V169.025H194.971V166.188Z" fill="#F0F0F0"/>
<path d="M196.664 123.924H158.705V166.188H196.664V123.924Z" fill="#FAFAFA"/>
<path d="M162.157 141.6H193.199V128.631H162.157V141.6Z" fill="#F0F0F0"/>
<path d="M162.157 160.666H193.199V147.698H162.157V160.666Z" fill="#F0F0F0"/>
<path d="M181.218 127.861H174.141C173.697 127.861 173.337 128.221 173.337 128.666V129.072C173.337 129.517 173.697 129.877 174.141 129.877H181.218C181.662 129.877 182.022 129.517 182.022 129.072V128.666C182.022 128.221 181.662 127.861 181.218 127.861Z" fill="#FAFAFA"/>
<path d="M181.218 146.943H174.141C173.697 146.943 173.337 147.304 173.337 147.748V148.154C173.337 148.599 173.697 148.959 174.141 148.959H181.218C181.662 148.959 182.022 148.599 182.022 148.154V147.748C182.022 147.304 181.662 146.943 181.218 146.943Z" fill="#FAFAFA"/>
<path d="M84.6733 168.897C89.8683 168.054 93.3961 163.159 92.5528 157.964C91.7096 152.769 86.8146 149.241 81.6195 150.084C76.4245 150.928 72.8967 155.823 73.74 161.018C74.5833 166.213 79.4783 169.741 84.6733 168.897Z" fill="#EBEBEB"/>
<path d="M70.4114 168.864C76.8956 167.812 81.2988 161.702 80.2462 155.218C79.1937 148.734 73.084 144.331 66.5999 145.383C60.1158 146.436 55.7126 152.545 56.7651 159.03C57.8177 165.514 63.9273 169.917 70.4114 168.864Z" fill="#F5F5F5"/>
<path d="M110.499 188.983C157.829 188.983 196.198 186.743 196.198 183.98C196.198 181.217 157.829 178.977 110.499 178.977C63.1682 178.977 24.7993 181.217 24.7993 183.98C24.7993 186.743 63.1682 188.983 110.499 188.983Z" fill="#F5F5F5"/>
<path d="M55.9606 87.3146C53.039 87.3146 51.6644 84.3753 51.6069 84.2515C51.5569 84.1139 51.5604 83.9626 51.6168 83.8275C51.6732 83.6924 51.7783 83.5834 51.9113 83.5222C52.0443 83.461 52.1954 83.452 52.3347 83.497C52.474 83.5421 52.5913 83.6378 52.6633 83.7653C52.6633 83.8051 53.8257 86.214 56.049 86.1521C56.1951 86.1604 56.3328 86.2232 56.4348 86.3283C56.5367 86.4333 56.5955 86.5728 56.5994 86.7191C56.6033 86.8655 56.552 87.0079 56.4558 87.1182C56.3596 87.2285 56.2254 87.2986 56.0799 87.3146H55.9606Z" fill="#6DDEA2"/>
<path d="M94.1508 46.4939C93.8966 46.495 93.6426 46.4787 93.3906 46.4452C93.3151 46.4339 93.2426 46.4079 93.1773 46.3685C93.1119 46.3292 93.0549 46.2774 93.0095 46.216C92.9642 46.1546 92.9314 46.0849 92.9129 46.0109C92.8945 45.9369 92.8909 45.8599 92.9022 45.7845C92.9135 45.709 92.9396 45.6365 92.9789 45.5711C93.0182 45.5057 93.0701 45.4488 93.1314 45.4034C93.1928 45.358 93.2625 45.3252 93.3365 45.3068C93.4106 45.2884 93.4875 45.2847 93.563 45.296C93.5895 45.296 96.2503 45.6717 97.4172 43.7756C97.457 43.7106 97.5091 43.654 97.5708 43.6092C97.6324 43.5643 97.7022 43.5321 97.7763 43.5142C97.8504 43.4963 97.9272 43.4933 98.0025 43.5051C98.0778 43.517 98.15 43.5435 98.215 43.5833C98.28 43.6231 98.3366 43.6752 98.3814 43.7368C98.4263 43.7985 98.4585 43.8683 98.4764 43.9424C98.4942 44.0165 98.4973 44.0933 98.4855 44.1686C98.4736 44.2439 98.4471 44.3161 98.4073 44.3811C97.2448 46.2198 95.2337 46.4939 94.1508 46.4939Z" fill="#6DDEA2"/>
<path opacity="0.6" d="M94.1508 46.4939C93.8966 46.495 93.6426 46.4787 93.3906 46.4452C93.3151 46.4339 93.2426 46.4079 93.1773 46.3685C93.1119 46.3292 93.0549 46.2774 93.0095 46.216C92.9642 46.1546 92.9314 46.0849 92.9129 46.0109C92.8945 45.9369 92.8909 45.8599 92.9022 45.7845C92.9135 45.709 92.9396 45.6365 92.9789 45.5711C93.0182 45.5057 93.0701 45.4488 93.1314 45.4034C93.1928 45.358 93.2625 45.3252 93.3365 45.3068C93.4106 45.2884 93.4875 45.2847 93.563 45.296C93.5895 45.296 96.2503 45.6717 97.4172 43.7756C97.457 43.7106 97.5091 43.654 97.5708 43.6092C97.6324 43.5643 97.7022 43.5321 97.7763 43.5142C97.8504 43.4963 97.9272 43.4933 98.0025 43.5051C98.0778 43.517 98.15 43.5435 98.215 43.5833C98.28 43.6231 98.3366 43.6752 98.3814 43.7368C98.4263 43.7985 98.4585 43.8683 98.4764 43.9424C98.4942 44.0165 98.4973 44.0933 98.4855 44.1686C98.4736 44.2439 98.4471 44.3161 98.4073 44.3811C97.2448 46.2198 95.2337 46.4939 94.1508 46.4939Z" fill="white"/>
<path d="M28.5577 68.6324C27.4363 68.5942 26.3472 68.247 25.4107 67.629C25.3446 67.5867 25.2878 67.5314 25.2438 67.4664C25.1998 67.4015 25.1694 67.3282 25.1545 67.2512C25.1397 67.1741 25.1406 67.0949 25.1573 67.0182C25.174 66.9415 25.2062 66.8691 25.2517 66.8052C25.2973 66.7413 25.3554 66.6874 25.4225 66.6466C25.4896 66.6059 25.5642 66.5792 25.6419 66.5682C25.7196 66.5572 25.7987 66.5621 25.8745 66.5826C25.9502 66.6032 26.021 66.6389 26.0825 66.6876C26.1046 66.6876 28.3323 68.1948 30.2108 66.997C30.2751 66.9502 30.3483 66.9171 30.426 66.8996C30.5036 66.8822 30.5839 66.8808 30.6621 66.8955C30.7403 66.9103 30.8146 66.9409 30.8805 66.9854C30.9464 67.0299 31.0026 67.0875 31.0454 67.1545C31.0883 67.2215 31.117 67.2966 31.1298 67.3751C31.1426 67.4536 31.1392 67.5339 31.1198 67.611C31.1004 67.6882 31.0654 67.7606 31.017 67.8237C30.9687 67.8868 30.9079 67.9394 30.8384 67.9782C30.1575 68.4124 29.3652 68.6396 28.5577 68.6324Z" fill="#6DDEA2"/>
<path opacity="0.6" d="M28.5577 68.6324C27.4363 68.5942 26.3472 68.247 25.4107 67.629C25.3446 67.5867 25.2878 67.5314 25.2438 67.4664C25.1998 67.4015 25.1694 67.3282 25.1545 67.2512C25.1397 67.1741 25.1406 67.0949 25.1573 67.0182C25.174 66.9415 25.2062 66.8691 25.2517 66.8052C25.2973 66.7413 25.3554 66.6874 25.4225 66.6466C25.4896 66.6059 25.5642 66.5792 25.6419 66.5682C25.7196 66.5572 25.7987 66.5621 25.8745 66.5826C25.9502 66.6032 26.021 66.6389 26.0825 66.6876C26.1046 66.6876 28.3323 68.1948 30.2108 66.997C30.2751 66.9502 30.3483 66.9171 30.426 66.8996C30.5036 66.8822 30.5839 66.8808 30.6621 66.8955C30.7403 66.9103 30.8146 66.9409 30.8805 66.9854C30.9464 67.0299 31.0026 67.0875 31.0454 67.1545C31.0883 67.2215 31.117 67.2966 31.1298 67.3751C31.1426 67.4536 31.1392 67.5339 31.1198 67.611C31.1004 67.6882 31.0654 67.7606 31.017 67.8237C30.9687 67.8868 30.9079 67.9394 30.8384 67.9782C30.1575 68.4124 29.3652 68.6396 28.5577 68.6324Z" fill="white"/>
<path d="M180.168 53.1273C179.049 53.0972 177.959 52.7609 177.017 52.1549C176.89 52.0676 176.804 51.9336 176.776 51.7823C176.748 51.631 176.782 51.4749 176.869 51.3483C176.956 51.2217 177.09 51.135 177.242 51.1072C177.393 51.0794 177.549 51.1129 177.676 51.2002C177.698 51.2002 179.93 52.703 181.808 51.5096C181.872 51.4687 181.944 51.4408 182.019 51.4275C182.094 51.4143 182.171 51.4159 182.245 51.4323C182.319 51.4487 182.39 51.4796 182.452 51.5232C182.514 51.5668 182.567 51.6223 182.608 51.6864C182.649 51.7506 182.677 51.8221 182.69 51.897C182.704 51.972 182.702 52.0488 182.686 52.123C182.669 52.1973 182.638 52.2677 182.595 52.33C182.551 52.3924 182.496 52.4455 182.431 52.4864C181.755 52.915 180.969 53.1377 180.168 53.1273Z" fill="#6DDEA2"/>
<path opacity="0.6" d="M180.168 53.1273C179.049 53.0972 177.959 52.7609 177.017 52.1549C176.89 52.0676 176.804 51.9336 176.776 51.7823C176.748 51.631 176.782 51.4749 176.869 51.3483C176.956 51.2217 177.09 51.135 177.242 51.1072C177.393 51.0794 177.549 51.1129 177.676 51.2002C177.698 51.2002 179.93 52.703 181.808 51.5096C181.872 51.4687 181.944 51.4408 182.019 51.4275C182.094 51.4143 182.171 51.4159 182.245 51.4323C182.319 51.4487 182.39 51.4796 182.452 51.5232C182.514 51.5668 182.567 51.6223 182.608 51.6864C182.649 51.7506 182.677 51.8221 182.69 51.897C182.704 51.972 182.702 52.0488 182.686 52.123C182.669 52.1973 182.638 52.2677 182.595 52.33C182.551 52.3924 182.496 52.4455 182.431 52.4864C181.755 52.915 180.969 53.1377 180.168 53.1273Z" fill="white"/>
<path d="M109.092 98.7819C106.382 98.7819 104.906 96.1564 104.84 96.0371C104.765 95.9023 104.748 95.7434 104.79 95.5955C104.833 95.4475 104.933 95.3226 105.067 95.2481C105.202 95.1737 105.361 95.1558 105.509 95.1985C105.657 95.2412 105.782 95.3409 105.856 95.4758C105.856 95.5111 107.182 97.8272 109.392 97.6018C109.54 97.5967 109.684 97.6479 109.796 97.745C109.907 97.8421 109.978 97.978 109.993 98.1251C110.008 98.2721 109.967 98.4195 109.878 98.5373C109.788 98.6552 109.657 98.7347 109.512 98.7598C109.379 98.7731 109.233 98.7819 109.092 98.7819Z" fill="#6DDEA2"/>
<path opacity="0.6" d="M109.092 98.7819C106.382 98.7819 104.906 96.1564 104.84 96.0371C104.765 95.9023 104.748 95.7434 104.79 95.5955C104.833 95.4475 104.933 95.3226 105.067 95.2481C105.202 95.1737 105.361 95.1558 105.509 95.1985C105.657 95.2412 105.782 95.3409 105.856 95.4758C105.856 95.5111 107.182 97.8272 109.392 97.6018C109.54 97.5967 109.684 97.6479 109.796 97.745C109.907 97.8421 109.978 97.978 109.993 98.1251C110.008 98.2721 109.967 98.4195 109.878 98.5373C109.788 98.6552 109.657 98.7347 109.512 98.7598C109.379 98.7731 109.233 98.7819 109.092 98.7819Z" fill="white"/>
<path d="M34.918 110.592C34.7772 110.591 34.6417 110.538 34.5368 110.444C34.4319 110.35 34.3648 110.222 34.348 110.082C34.3312 109.942 34.3659 109.801 34.4456 109.685C34.5253 109.569 34.6445 109.486 34.781 109.451C34.8075 109.451 37.402 108.766 37.7556 106.565C37.7678 106.49 37.7947 106.418 37.8347 106.353C37.8748 106.288 37.9272 106.232 37.9889 106.188C38.0507 106.143 38.1206 106.111 38.1947 106.094C38.2689 106.076 38.3457 106.073 38.4209 106.086C38.496 106.098 38.568 106.125 38.6328 106.165C38.6976 106.205 38.7539 106.257 38.7984 106.319C38.8429 106.381 38.8749 106.451 38.8924 106.525C38.9099 106.599 38.9126 106.676 38.9004 106.751C38.4275 109.717 35.1965 110.543 35.0594 110.579C35.0128 110.587 34.9655 110.592 34.918 110.592Z" fill="#6DDEA2"/>
<path opacity="0.6" d="M34.918 110.592C34.7772 110.591 34.6417 110.538 34.5368 110.444C34.4319 110.35 34.3648 110.222 34.348 110.082C34.3312 109.942 34.3659 109.801 34.4456 109.685C34.5253 109.569 34.6445 109.486 34.781 109.451C34.8075 109.451 37.402 108.766 37.7556 106.565C37.7678 106.49 37.7947 106.418 37.8347 106.353C37.8748 106.288 37.9272 106.232 37.9889 106.188C38.0507 106.143 38.1206 106.111 38.1947 106.094C38.2689 106.076 38.3457 106.073 38.4209 106.086C38.496 106.098 38.568 106.125 38.6328 106.165C38.6976 106.205 38.7539 106.257 38.7984 106.319C38.8429 106.381 38.8749 106.451 38.8924 106.525C38.9099 106.599 38.9126 106.676 38.9004 106.751C38.4275 109.717 35.1965 110.543 35.0594 110.579C35.0128 110.587 34.9655 110.592 34.918 110.592Z" fill="black"/>
<path d="M163.981 70.2992C163.837 70.3041 163.695 70.2548 163.585 70.1608C163.475 70.0668 163.405 69.9351 163.387 69.7915C163.369 69.6479 163.406 69.5029 163.49 69.385C163.573 69.267 163.698 69.1848 163.84 69.1544C163.866 69.1544 166.461 68.4737 166.814 66.2726C166.822 66.1929 166.845 66.1156 166.884 66.0454C166.922 65.9752 166.975 65.9137 167.038 65.8646C167.101 65.8156 167.174 65.7801 167.251 65.7603C167.329 65.7405 167.41 65.7369 167.489 65.7497C167.568 65.7624 167.643 65.7913 167.71 65.8345C167.778 65.8776 167.836 65.9342 167.88 66.0007C167.925 66.0671 167.955 66.142 167.969 66.2207C167.984 66.2995 167.982 66.3803 167.964 66.4582C167.486 69.424 164.255 70.2506 164.118 70.2815C164.074 70.2939 164.028 70.2998 163.981 70.2992Z" fill="#6DDEA2"/>
<path opacity="0.6" d="M163.981 70.2992C163.837 70.3041 163.695 70.2548 163.585 70.1608C163.475 70.0668 163.405 69.9351 163.387 69.7915C163.369 69.6479 163.406 69.5029 163.49 69.385C163.573 69.267 163.698 69.1848 163.84 69.1544C163.866 69.1544 166.461 68.4737 166.814 66.2726C166.822 66.1929 166.845 66.1156 166.884 66.0454C166.922 65.9752 166.975 65.9137 167.038 65.8646C167.101 65.8156 167.174 65.7801 167.251 65.7603C167.329 65.7405 167.41 65.7369 167.489 65.7497C167.568 65.7624 167.643 65.7913 167.71 65.8345C167.778 65.8776 167.836 65.9342 167.88 66.0007C167.925 66.0671 167.955 66.142 167.969 66.2207C167.984 66.2995 167.982 66.3803 167.964 66.4582C167.486 69.424 164.255 70.2506 164.118 70.2815C164.074 70.2939 164.028 70.2998 163.981 70.2992Z" fill="black"/>
<path d="M187.731 92.3425H187.634C187.493 92.316 184.213 91.7149 183.537 88.8065C183.519 88.7316 183.517 88.6539 183.53 88.5781C183.542 88.5022 183.57 88.4296 183.611 88.3646C183.652 88.2996 183.706 88.2434 183.769 88.1994C183.832 88.1554 183.904 88.1243 183.979 88.1082C184.054 88.0912 184.131 88.0892 184.207 88.1022C184.283 88.1153 184.355 88.1431 184.42 88.1842C184.485 88.2253 184.541 88.2787 184.585 88.3415C184.629 88.4043 184.66 88.4752 184.677 88.5502C185.181 90.716 187.815 91.2022 187.842 91.2022C187.981 91.2319 188.105 91.3116 188.189 91.4261C188.274 91.5406 188.314 91.6821 188.301 91.8239C188.289 91.9657 188.225 92.0981 188.121 92.196C188.018 92.294 187.882 92.3508 187.74 92.3558L187.731 92.3425Z" fill="#6DDEA2"/>
<path d="M177.378 113.65C176.365 113.666 175.381 113.319 174.602 112.673C174.537 112.627 174.482 112.567 174.441 112.499C174.4 112.43 174.374 112.354 174.364 112.275C174.354 112.196 174.36 112.115 174.383 112.039C174.406 111.962 174.444 111.891 174.495 111.83C174.546 111.769 174.61 111.719 174.681 111.683C174.753 111.648 174.831 111.628 174.911 111.624C174.991 111.62 175.07 111.633 175.145 111.661C175.22 111.69 175.287 111.733 175.344 111.789C177.055 113.212 179.455 112.019 179.481 112.006C179.619 111.935 179.778 111.922 179.925 111.97C180.072 112.017 180.193 112.121 180.264 112.258C180.334 112.395 180.347 112.554 180.3 112.701C180.253 112.848 180.149 112.97 180.012 113.04C179.188 113.432 178.289 113.64 177.378 113.65Z" fill="#6DDEA2"/>
<path d="M150.283 41.1088C150.183 41.1096 150.084 41.0837 149.996 41.0337C149.877 40.9674 146.99 39.2966 147.344 36.3131C147.362 36.1602 147.439 36.0204 147.56 35.9247C147.681 35.8289 147.834 35.785 147.987 35.8026C148.14 35.8202 148.28 35.8978 148.376 36.0185C148.471 36.1391 148.515 36.2928 148.498 36.4457C148.246 38.6557 150.562 40.0127 150.584 40.0259C150.696 40.0895 150.785 40.189 150.834 40.3084C150.883 40.4278 150.892 40.5603 150.857 40.6849C150.822 40.8094 150.747 40.9188 150.643 40.9957C150.539 41.0725 150.413 41.1123 150.283 41.1088Z" fill="#6DDEA2"/>
<path d="M34.8217 43.4612C34.7457 43.4644 34.6698 43.4525 34.5983 43.4264C34.5268 43.4002 34.4612 43.3603 34.4052 43.3088C34.3492 43.2573 34.3038 43.1952 34.2718 43.1262C34.2397 43.0572 34.2216 42.9825 34.2184 42.9065C34.2152 42.8304 34.227 42.7545 34.2532 42.683C34.2793 42.6115 34.3193 42.5459 34.3708 42.4899C34.4223 42.4339 34.4844 42.3885 34.5534 42.3565C34.6224 42.3245 34.6971 42.3063 34.7731 42.3031C36.9831 42.1086 37.8671 39.5716 37.8671 39.545C37.9185 39.404 38.0226 39.2884 38.1575 39.2226C38.2924 39.1568 38.4476 39.146 38.5903 39.1925C38.7331 39.2389 38.8522 39.3389 38.9226 39.4715C38.993 39.6041 39.0092 39.7588 38.9677 39.9031C38.9279 40.0401 37.8671 43.2004 34.8748 43.4391L34.8217 43.4612Z" fill="#6DDEA2"/>
<path d="M77.9488 60.949C76.3797 61.6827 74.9962 65.2099 75.4471 70.2752C75.8979 75.3405 65.4048 71.7868 63.9772 77.4621C61.4003 87.7342 78.6781 93.9089 86.0418 87.7342C90.5988 83.9153 94.8818 71.3271 94.2542 64.4585C93.5823 57.0726 82.1257 52.1178 77.9488 60.949Z" fill="#263238"/>
<path d="M94.531 73.91C94.7255 73.8526 95.0084 73.7686 95.2515 73.689L96.0117 73.4327C96.52 73.2559 97.0239 73.0614 97.5233 72.8536C98.5184 72.4451 99.4895 71.9803 100.432 71.4613C102.278 70.4762 103.94 69.1781 105.342 67.6248C106.593 66.1397 107.49 64.1153 108.193 62.0379C108.551 60.9948 108.852 59.9207 109.108 58.829C109.365 57.7372 109.608 56.619 109.793 55.5449L111.597 55.6554C111.6 58.0457 111.34 60.4291 110.823 62.7628C110.56 63.9586 110.204 65.132 109.758 66.2723C109.296 67.4759 108.676 68.6129 107.915 69.6536C106.358 71.6497 104.427 73.3236 102.231 74.5819C101.172 75.2076 100.074 75.7627 98.9422 76.2438C98.3764 76.4825 97.8062 76.6858 97.2228 76.9024C96.9355 77.004 96.6438 77.1013 96.3388 77.1897C96.0338 77.2781 95.7642 77.362 95.4017 77.4504L94.531 73.91Z" fill="#7F3E3B"/>
<path d="M111.589 56.2592L112.341 53.5586L109.357 53.7884C109.357 53.7884 109.145 55.5564 110.175 56.6217L111.589 56.2592Z" fill="#7F3E3B"/>
<path d="M112.782 50.4141L110.059 51.1257L109.352 53.7865L112.335 53.5567L112.782 50.4141Z" fill="#7F3E3B"/>
<path d="M91.1529 74.5967C92.5275 73.3459 96.0149 72.3867 96.0149 72.3867L99.8382 78.1327C99.8382 78.1327 95.4757 81.0455 93.6237 80.3692C91.6966 79.6974 89.8711 75.7592 91.1529 74.5967Z" fill="#6DDEA2"/>
<path d="M78.5635 156.328L80.9459 158.944L87.7836 154.074L85.4012 151.457L78.5635 156.328Z" fill="#7F3E3B"/>
<path d="M65.1165 166.664L68.3121 168.251L73.0106 161.36L69.8149 159.773L65.1165 166.664Z" fill="#7F3E3B"/>
<path d="M68.8224 167.861L66.3561 164.701C66.3146 164.646 66.2544 164.607 66.1869 164.594C66.1193 164.58 66.049 164.591 65.9892 164.625L63.209 166.217C63.1403 166.259 63.0812 166.315 63.0356 166.381C62.9901 166.448 62.9593 166.523 62.9451 166.603C62.9309 166.682 62.9337 166.764 62.9533 166.842C62.9729 166.92 63.0088 166.993 63.0588 167.056C63.9428 168.144 64.4157 168.626 65.503 170.018C66.166 170.871 67.5185 172.86 68.4379 174.04C69.3573 175.22 70.5772 174.376 70.2987 173.801C69.0523 171.225 68.9727 169.695 69.0169 168.466C69.0258 168.248 68.9569 168.033 68.8224 167.861Z" fill="#263238"/>
<path d="M81.656 158.997L80.0294 155.09C80.0007 155.02 79.9494 154.962 79.8838 154.924C79.8182 154.886 79.7419 154.872 79.667 154.882L76.2194 155.324C76.1373 155.333 76.0585 155.361 75.9894 155.406C75.9203 155.451 75.8629 155.512 75.8219 155.584C75.7809 155.655 75.7575 155.736 75.7536 155.818C75.7497 155.901 75.7654 155.983 75.7995 156.058C76.3918 157.415 76.7498 158.047 77.4658 159.766C77.9078 160.823 78.9332 163.598 79.5388 165.07C80.1443 166.542 81.7002 166.193 81.5852 165.548C81.0681 162.657 81.2449 160.792 81.6736 159.656C81.7143 159.55 81.7336 159.438 81.7306 159.325C81.7276 159.212 81.7022 159.1 81.656 158.997Z" fill="#263238"/>
<path opacity="0.2" d="M87.776 154.074L84.2533 156.584L81.588 154.171L85.3936 151.457L87.776 154.074Z" fill="black"/>
<path opacity="0.2" d="M69.8115 159.773L73.0071 161.36L70.5805 164.914L67.3849 163.323L69.8115 159.773Z" fill="black"/>
<path d="M95.9653 75.0455C95.9653 75.0455 96.0714 74.8864 94.1354 96.0052L79.682 97.0173C79.5141 91.1211 79.9561 86.9574 77.2024 74.8422C79.2331 74.4333 81.2909 74.1733 83.3595 74.0643C85.5498 73.9182 87.7478 73.93 89.9364 74.0996C92.7608 74.3693 95.9653 75.0455 95.9653 75.0455Z" fill="#6DDEA2"/>
<path d="M78.2853 78.3417C77.2112 77.8467 76.2698 77.3163 75.293 76.7549C74.3161 76.1936 73.3924 75.5925 72.473 74.956C70.6017 73.6856 68.8619 72.2316 67.2795 70.6156L66.6961 69.9835L66.5458 69.8244C66.4596 69.7254 66.3785 69.6221 66.3027 69.515C66.166 69.32 66.0476 69.1129 65.9491 68.8962C65.6564 68.2055 65.5061 67.4628 65.5071 66.7127C65.5169 65.5186 65.6773 64.3306 65.9844 63.1767C66.5456 61.0171 67.3245 58.9201 68.3094 56.918L69.9978 57.5721C69.737 58.5755 69.4895 59.6186 69.2685 60.6396C69.0475 61.6606 68.8619 62.6905 68.7381 63.6982C68.5946 64.6458 68.5561 65.6064 68.6232 66.5624C68.6453 66.8933 68.7292 67.2172 68.8707 67.5171C68.8707 67.5481 68.9149 67.5834 68.9282 67.5878L69.0652 67.716L69.6088 68.2332C71.1261 69.6073 72.7521 70.8563 74.4708 71.9681C75.3327 72.5382 76.2388 73.0598 77.1228 73.5858C78.0068 74.1118 78.9571 74.6112 79.819 75.0488L78.2853 78.3417Z" fill="#7F3E3B"/>
<path d="M82.8871 75.6522C81.2472 73.367 78.0251 73.4024 78.0251 73.4024L74.1399 79.1484C74.1399 79.1484 78.4759 82.1009 80.3279 81.4423C82.2904 80.744 83.8993 77.0577 82.8871 75.6522Z" fill="#6DDEA2"/>
<path d="M89.9381 74.0998L83.3611 74.0645C82.3534 74.4711 81.7699 77.0922 88.4441 79.311C93.0719 76.6811 90.6099 74.3429 89.9381 74.0998Z" fill="white"/>
<path d="M84.0545 66.6602C84.4567 68.7773 84.8501 72.6581 83.365 74.0637C83.365 74.0637 83.9396 76.2162 88.448 79.3102C91.6083 76.1411 89.9419 74.099 89.9419 74.099C87.5861 73.52 87.6568 71.7697 88.0767 70.121L84.0545 66.6602Z" fill="#7F3E3B"/>
<path d="M97.6843 87.6795H97.6135C97.3804 87.6603 97.1644 87.5496 97.0128 87.3715C96.8612 87.1933 96.7863 86.9624 96.8047 86.7292C96.9638 84.7579 95.4787 83.2683 93.7726 81.5401C91.8145 79.5644 89.5912 77.3234 89.5028 73.8361C89.497 73.6016 89.5845 73.3744 89.7461 73.2045C89.9078 73.0346 90.1303 72.9358 90.3647 72.93C90.5992 72.9241 90.8264 73.0116 90.9963 73.1733C91.1662 73.3349 91.265 73.5574 91.2708 73.7919C91.3416 76.5765 93.2156 78.4682 95.0278 80.2981C96.84 82.128 98.7893 84.0905 98.5638 86.8706C98.545 87.0911 98.4443 87.2964 98.2814 87.4462C98.1186 87.596 97.9055 87.6792 97.6843 87.6795Z" fill="#263238"/>
<path d="M84.765 92.1563C84.6935 92.1561 84.6223 92.1472 84.5529 92.1298C84.3256 92.0734 84.1299 91.929 84.0089 91.7285C83.8879 91.5279 83.8515 91.2876 83.9076 91.0602C84.7606 87.5949 83.6424 84.8722 82.4578 82.008C81.397 79.4356 80.3008 76.7747 80.8312 73.663C80.877 73.4377 81.0088 73.2391 81.1986 73.1093C81.3884 72.9796 81.6213 72.9289 81.8479 72.968C82.0745 73.0071 82.2769 73.1329 82.4122 73.3188C82.5475 73.5047 82.6051 73.736 82.5727 73.9636C82.1307 76.5714 83.081 78.8875 84.0888 81.3362C85.2733 84.2047 86.6126 87.4579 85.6225 91.5022C85.5718 91.6905 85.4602 91.8568 85.3051 91.9752C85.15 92.0935 84.9601 92.1572 84.765 92.1563Z" fill="#263238"/>
<path opacity="0.2" d="M87.2377 69.3945L85.4697 69.6023C85.5554 70.0783 85.7261 70.5349 85.9736 70.9504C86.3228 71.4764 87.1007 71.7062 87.8698 71.7283C87.8689 71.1815 87.9433 70.6371 88.0908 70.1106L87.2377 69.3945Z" fill="black"/>
<path d="M80.1392 64.5255C81.4343 67.8228 81.9072 69.246 84.1658 70.4217C87.5604 72.1897 91.3262 69.8869 91.0433 66.2714C90.7914 63.0138 88.7184 58.1695 84.9924 57.8955C84.1718 57.8315 83.3485 57.9783 82.6005 58.3218C81.8526 58.6653 81.2048 59.1942 80.7187 59.8584C80.2325 60.5225 79.9241 61.2999 79.8227 62.1167C79.7213 62.9334 79.8302 63.7626 80.1392 64.5255Z" fill="#7F3E3B"/>
<path d="M83.6809 57.4225C86.1959 58.9695 84.0433 68.0703 79.7869 67.5885C75.5304 67.1067 79.9637 55.1374 83.6809 57.4225Z" fill="#263238"/>
<path d="M83.5987 57.4542C81.7025 58.7139 82.9976 60.9062 89.3889 59.6067C89.3889 59.6023 86.7457 55.3591 83.5987 57.4542Z" fill="#263238"/>
<path d="M80.6005 67.7323C80.88 68.3569 81.3946 68.8461 82.0325 69.0937C82.8856 69.4119 83.3851 68.6517 83.2171 67.8251C83.0624 67.0693 82.4348 65.9864 81.5508 66.0306C81.3576 66.0436 81.1707 66.1047 81.0071 66.2083C80.8435 66.3118 80.7084 66.4546 80.614 66.6237C80.5196 66.7927 80.4689 66.9827 80.4665 67.1763C80.4642 67.3699 80.5102 67.561 80.6005 67.7323Z" fill="#7F3E3B"/>
<path d="M94.1491 96.0039C94.1491 96.0039 101.884 121.255 102.507 132.12C103.153 143.422 86.3699 156.832 86.3699 156.832L82.193 152.248C82.193 152.248 95.8287 140.668 93.959 132.279C91.3733 120.716 83.5411 96.7465 83.5411 96.7465L94.1491 96.0039Z" fill="#263238"/>
<path opacity="0.2" d="M89.3193 104.272C88.6121 102.062 87.0386 103.547 86.4905 105.89C87.5822 109.426 88.8463 113.563 90.0486 117.704C90.5127 114.036 90.7027 108.604 89.3193 104.272Z" fill="black"/>
<path d="M81.0587 152.031L86.3583 157.498L88.6213 156.248L83.0212 150.152L81.0587 152.031Z" fill="#6DDEA2"/>
<path d="M90.3232 96.2754C90.3232 96.2754 88.1132 121.027 85.9032 134.813C84.1131 145.952 71.9536 164.144 71.9536 164.144L67.4983 162.072C67.4983 162.072 75.6709 142.593 76.9438 135.021C81.0279 110.786 75.5117 103.794 79.6886 97.0091L90.3232 96.2754Z" fill="#263238"/>
<path d="M67.1832 162.119L72.2088 164.585L73.8574 162.539L67.9788 159.768L67.1832 162.119Z" fill="#6DDEA2"/>
<path d="M79.4111 96.1873L78.8497 97.5133C78.8055 97.615 78.9293 97.7122 79.0972 97.6989L94.2578 96.6381C94.386 96.6381 94.4921 96.5586 94.4921 96.4746L94.5319 95.1486C94.5319 95.0602 94.417 94.9939 94.2755 95.0027L79.6365 96.0282C79.5875 96.0299 79.5401 96.0459 79.5001 96.0741C79.46 96.1024 79.4291 96.1417 79.4111 96.1873Z" fill="white"/>
<path d="M81.4883 97.6768L81.0993 97.7033C81.0198 97.7033 80.9579 97.6724 80.9579 97.6238L81.0242 95.9309C81.0242 95.8823 81.0949 95.8337 81.17 95.8293L81.5634 95.8027C81.643 95.8027 81.7049 95.8337 81.7004 95.8823L81.6341 97.5752C81.6341 97.6326 81.5678 97.6768 81.4883 97.6768Z" fill="#263238"/>
<path d="M93.1586 96.8643L92.7652 96.8908C92.6856 96.8908 92.6237 96.8599 92.6282 96.8113L92.6944 95.1184C92.6944 95.0698 92.7608 95.0256 92.8403 95.0168L93.2293 94.9902C93.3088 94.9902 93.3707 95.0212 93.3707 95.0698L93.3044 96.7671C93.3 96.8157 93.2558 96.8599 93.1586 96.8643Z" fill="#263238"/>
<path d="M87.3234 97.2745L86.93 97.301C86.8548 97.301 86.793 97.27 86.793 97.2214L86.8593 95.5242C86.8593 95.4755 86.9256 95.4313 87.0051 95.4269L87.3985 95.4004C87.4737 95.4004 87.5355 95.4313 87.5355 95.4799L87.4692 97.1728C87.4692 97.2347 87.4029 97.2656 87.3234 97.2745Z" fill="#263238"/>
<path d="M85.4697 63.2944C85.2575 63.3652 85.1691 63.6834 85.2752 64.0105L86.0487 63.763C85.9426 63.4359 85.6818 63.206 85.4697 63.2944Z" fill="#263238"/>
<path d="M88.8388 62.2233C88.6223 62.294 88.5339 62.6166 88.6399 62.9437L89.4179 62.6918C89.2808 62.3647 89.0289 62.157 88.8388 62.2233Z" fill="#263238"/>
<path d="M88.7338 62.2723L89.4454 61.7949C89.4454 61.7949 89.2421 62.5375 88.7338 62.2723Z" fill="#263238"/>
<path d="M87.9524 63.5586C88.3968 64.1045 88.9144 64.5864 89.4906 64.9907C89.3838 65.1357 89.2465 65.2555 89.0885 65.3418C88.9304 65.4281 88.7553 65.4787 88.5756 65.4901L87.9524 63.5586Z" fill="#630F0F"/>
<path d="M88.0148 66.8647C88.0278 66.8535 88.0372 66.8387 88.0419 66.8222C88.0466 66.8058 88.0464 66.7883 88.0413 66.7719C88.0343 66.7508 88.0192 66.7334 87.9993 66.7234C87.9794 66.7135 87.9564 66.7118 87.9353 66.7188C87.5971 66.8359 87.2363 66.8721 86.8817 66.8245C86.5271 66.7769 86.1885 66.6469 85.8932 66.4448C85.8854 66.4369 85.8761 66.4307 85.8659 66.4264C85.8556 66.4221 85.8446 66.4199 85.8336 66.4199C85.8225 66.4199 85.8115 66.4221 85.8012 66.4264C85.791 66.4307 85.7817 66.4369 85.7739 66.4448C85.7654 66.4523 85.7586 66.4615 85.754 66.4717C85.7494 66.482 85.7469 66.4932 85.7469 66.5045C85.7469 66.5158 85.7494 66.5269 85.754 66.5372C85.7586 66.5475 85.7654 66.5567 85.7739 66.5642C86.0898 66.7905 86.4559 66.9369 86.8408 66.9908C87.2257 67.0446 87.6179 67.0044 87.9839 66.8735L88.0148 66.8647Z" fill="#263238"/>
<path d="M84.349 63.0932C84.3713 63.0745 84.3882 63.0501 84.3976 63.0225C84.4584 62.8168 84.5681 62.6289 84.7175 62.4749C84.8668 62.3209 85.0513 62.2055 85.2551 62.1385C85.2765 62.1333 85.2968 62.1239 85.3146 62.1108C85.3325 62.0978 85.3476 62.0813 85.3591 62.0625C85.3705 62.0436 85.3782 62.0226 85.3816 62.0008C85.385 61.9789 85.3841 61.9566 85.3788 61.9352C85.3736 61.9137 85.3642 61.8935 85.3512 61.8756C85.3381 61.8578 85.3217 61.8427 85.3028 61.8312C85.2839 61.8197 85.263 61.812 85.2411 61.8086C85.2193 61.8052 85.197 61.8062 85.1755 61.8114C84.9193 61.8921 84.6862 62.0329 84.4955 62.222C84.3048 62.4112 84.1621 62.6432 84.0793 62.8987C84.0653 62.9409 84.0686 62.987 84.0885 63.0267C84.1084 63.0665 84.1433 63.0968 84.1854 63.1109C84.2117 63.1231 84.2408 63.1279 84.2697 63.1248C84.2985 63.1217 84.3259 63.1108 84.349 63.0932Z" fill="#263238"/>
<path d="M89.643 60.9119C89.6524 60.9069 89.6601 60.8992 89.6651 60.8898C89.6793 60.8725 89.6898 60.8525 89.6962 60.8311C89.7025 60.8096 89.7045 60.7871 89.7021 60.7649C89.6996 60.7426 89.6927 60.7211 89.6818 60.7016C89.6709 60.682 89.6562 60.6649 89.6386 60.6511C89.4318 60.48 89.1872 60.3607 88.9251 60.3031C88.663 60.2454 88.3909 60.2511 88.1314 60.3196C88.11 60.3266 88.0902 60.3378 88.0732 60.3525C88.0562 60.3672 88.0424 60.3853 88.0325 60.4055C88.0226 60.4257 88.0169 60.4476 88.0156 60.4701C88.0144 60.4925 88.0177 60.515 88.0253 60.5362C88.0404 60.5777 88.0708 60.6118 88.1102 60.6315C88.1497 60.6513 88.1952 60.6551 88.2375 60.6423C88.4431 60.5894 88.6584 60.5867 88.8653 60.6344C89.0722 60.6821 89.2647 60.7788 89.4264 60.9163C89.4573 60.9413 89.4959 60.9545 89.5355 60.9537C89.5752 60.9529 89.6132 60.9381 89.643 60.9119Z" fill="#263238"/>
<path d="M71.9336 58.221C71.8263 58.2208 71.7209 58.1918 71.6286 58.137L58.183 49.854C58.0651 49.7671 57.9842 49.6392 57.9563 49.4955C57.9283 49.3518 57.9555 49.2028 58.0323 49.0782C58.109 48.9536 58.2299 48.8623 58.3708 48.8226C58.5117 48.7829 58.6624 48.7977 58.7929 48.8639L72.2386 57.147C72.347 57.2127 72.4308 57.3123 72.4772 57.4303C72.5235 57.5483 72.5299 57.6782 72.4953 57.8002C72.4606 57.9222 72.3869 58.0294 72.2855 58.1054C72.184 58.1814 72.0604 58.2221 71.9336 58.221Z" fill="#6DDEA2"/>
<path d="M61.2311 50.7719C61.9869 50.7409 62.7648 50.7056 62.8665 50.0249C62.9682 49.3442 62.2389 49.0834 61.5405 48.8271L61.3504 48.7564C61.3504 48.6901 61.3195 48.6238 61.3018 48.5619L61.4565 48.3895C61.9516 47.8414 62.4687 47.2757 62.0665 46.7364C61.6643 46.1972 60.9747 46.5154 60.2985 46.8292L60.0907 46.9265C60.0333 46.8867 59.9758 46.8558 59.9139 46.8204C59.8521 46.785 59.9139 46.679 59.9139 46.6171C59.8786 45.8657 59.8432 45.0878 59.167 44.9861C58.4907 44.8844 58.2255 45.6137 57.9691 46.3121C57.947 46.3696 57.9249 46.4359 57.8984 46.5022L57.6995 46.5508L57.5316 46.4005C56.9835 45.901 56.4177 45.3883 55.8785 45.7861C55.3392 46.1839 55.6575 46.8779 55.9713 47.5541L56.0685 47.7619C56.03 47.8173 55.9946 47.8749 55.9625 47.9342H55.7591C55.0077 47.9696 54.2254 48.005 54.1237 48.6856C54.0221 49.3663 54.7558 49.6271 55.4497 49.8835L55.6398 49.9542C55.6398 50.0205 55.6707 50.0868 55.6884 50.1487C55.6354 50.2105 55.5823 50.2724 55.5337 50.321C55.0387 50.8691 54.526 51.4305 54.9238 51.9741C55.3216 52.5178 56.0155 52.1907 56.6918 51.8813L56.9039 51.7841L57.0763 51.8901C57.0763 51.9609 57.0763 52.0316 57.0763 52.0935C57.1117 52.8449 57.147 53.6228 57.8233 53.7244C58.4995 53.8261 58.7692 53.0968 59.0255 52.3984C59.0255 52.3454 59.0697 52.2791 59.0918 52.2084C59.1591 52.1964 59.2255 52.1801 59.2907 52.1598L59.4631 52.3145C60.0068 52.8095 60.5725 53.3266 61.1162 52.9288C61.6598 52.531 61.3328 51.8371 61.0189 51.1608C60.9924 51.1034 60.9571 51.0282 60.9261 50.9531L61.0322 50.7807L61.2311 50.7719Z" fill="#6DDEA2"/>
<path opacity="0.7" d="M61.2311 50.7719C61.9869 50.7409 62.7648 50.7056 62.8665 50.0249C62.9682 49.3442 62.2389 49.0834 61.5405 48.8271L61.3504 48.7564C61.3504 48.6901 61.3195 48.6238 61.3018 48.5619L61.4565 48.3895C61.9516 47.8414 62.4687 47.2757 62.0665 46.7364C61.6643 46.1972 60.9747 46.5154 60.2985 46.8292L60.0907 46.9265C60.0333 46.8867 59.9758 46.8558 59.9139 46.8204C59.8521 46.785 59.9139 46.679 59.9139 46.6171C59.8786 45.8657 59.8432 45.0878 59.167 44.9861C58.4907 44.8844 58.2255 45.6137 57.9691 46.3121C57.947 46.3696 57.9249 46.4359 57.8984 46.5022L57.6995 46.5508L57.5316 46.4005C56.9835 45.901 56.4177 45.3883 55.8785 45.7861C55.3392 46.1839 55.6575 46.8779 55.9713 47.5541L56.0685 47.7619C56.03 47.8173 55.9946 47.8749 55.9625 47.9342H55.7591C55.0077 47.9696 54.2254 48.005 54.1237 48.6856C54.0221 49.3663 54.7558 49.6271 55.4497 49.8835L55.6398 49.9542C55.6398 50.0205 55.6707 50.0868 55.6884 50.1487C55.6354 50.2105 55.5823 50.2724 55.5337 50.321C55.0387 50.8691 54.526 51.4305 54.9238 51.9741C55.3216 52.5178 56.0155 52.1907 56.6918 51.8813L56.9039 51.7841L57.0763 51.8901C57.0763 51.9609 57.0763 52.0316 57.0763 52.0935C57.1117 52.8449 57.147 53.6228 57.8233 53.7244C58.4995 53.8261 58.7692 53.0968 59.0255 52.3984C59.0255 52.3454 59.0697 52.2791 59.0918 52.2084C59.1591 52.1964 59.2255 52.1801 59.2907 52.1598L59.4631 52.3145C60.0068 52.8095 60.5725 53.3266 61.1162 52.9288C61.6598 52.531 61.3328 51.8371 61.0189 51.1608C60.9924 51.1034 60.9571 51.0282 60.9261 50.9531L61.0322 50.7807L61.2311 50.7719Z" fill="white"/>
<path d="M67.9248 58.3622L67.3723 54.8262L70.979 56.5942C70.8431 57.1895 70.5358 57.7319 70.095 58.1544C69.9136 58.361 69.6776 58.5121 69.414 58.5903C69.1505 58.6685 68.8702 58.6706 68.6055 58.5964L67.9248 58.3622Z" fill="#7F3E3B"/>
<path d="M69.3967 53.0918L71.2442 54.7139L70.979 56.5703L67.3723 54.82L69.3967 53.0918Z" fill="#7F3E3B"/>
<path d="M69.9827 169.55C70.0201 169.523 70.0556 169.493 70.0887 169.461C70.1266 169.427 70.1545 169.383 70.1693 169.334C70.184 169.285 70.1852 169.232 70.1727 169.183C70.0666 168.741 68.8467 168.299 68.7097 168.268C68.6946 168.261 68.6777 168.26 68.6618 168.264C68.6458 168.268 68.6316 168.277 68.6213 168.29C68.6122 168.304 68.6073 168.32 68.6073 168.336C68.6073 168.353 68.6122 168.369 68.6213 168.383C68.8202 168.825 69.218 169.55 69.6644 169.625C69.7762 169.641 69.8901 169.614 69.9827 169.55ZM68.8467 168.498C69.3285 168.679 69.9517 168.988 70.0092 169.223C70.0133 169.245 70.0114 169.267 70.0036 169.288C69.9958 169.309 69.9825 169.328 69.965 169.342C69.9313 169.385 69.8872 169.418 69.8369 169.439C69.7866 169.46 69.7318 169.468 69.6777 169.461C69.4346 169.417 69.134 169.063 68.8467 168.498Z" fill="#6DDEA2"/>
<path d="M70.2051 168.372C70.2339 168.355 70.2594 168.332 70.2802 168.306C70.3233 168.253 70.3469 168.188 70.3469 168.12C70.3469 168.052 70.3233 167.987 70.2802 167.934C70.2474 167.879 70.2026 167.831 70.1491 167.794C70.0957 167.757 70.0348 167.733 69.9708 167.722C69.4625 167.629 68.6448 168.257 68.6139 168.284C68.6024 168.293 68.5936 168.305 68.5882 168.319C68.5828 168.333 68.581 168.348 68.5829 168.363C68.5854 168.377 68.5911 168.39 68.5995 168.402C68.6079 168.413 68.6189 168.423 68.6316 168.429C69.1457 168.602 69.7049 168.581 70.2051 168.372ZM68.8791 168.306C69.1817 168.059 69.5544 167.913 69.9443 167.89C69.9849 167.895 70.0238 167.91 70.0576 167.933C70.0915 167.956 70.1193 167.987 70.1388 168.023C70.1962 168.116 70.1697 168.164 70.1388 168.195C69.9796 168.385 69.2548 168.421 68.8526 168.319L68.8791 168.306Z" fill="#6DDEA2"/>
<path d="M81.7364 160.995C81.8263 161.271 82.001 161.513 82.2359 161.684C82.302 161.723 82.3759 161.747 82.4524 161.754C82.5288 161.761 82.6059 161.751 82.6779 161.724C82.7209 161.712 82.7597 161.688 82.7902 161.655C82.8206 161.623 82.8414 161.582 82.8503 161.538C82.9431 161.096 81.785 160.005 81.5508 159.77C81.5363 159.761 81.5194 159.756 81.5022 159.756C81.4849 159.756 81.468 159.761 81.4535 159.77C81.4381 159.779 81.4258 159.792 81.4186 159.808C81.4114 159.824 81.4097 159.842 81.4138 159.859C81.479 160.248 81.5872 160.629 81.7364 160.995ZM82.6558 161.326C82.6808 161.377 82.6915 161.433 82.6867 161.49C82.6867 161.512 82.6867 161.534 82.6248 161.552C82.5732 161.572 82.5178 161.579 82.4627 161.575C82.4076 161.57 82.3542 161.553 82.3066 161.525C82.037 161.366 81.7895 160.836 81.6303 160.084C82.0329 160.444 82.3786 160.863 82.6558 161.326Z" fill="#6DDEA2"/>
<path d="M81.4337 159.894C81.4325 159.903 81.4325 159.912 81.4337 159.921C81.7962 160.287 82.8791 160.88 83.2282 160.676C83.3034 160.632 83.3829 160.535 83.3211 160.323C83.0956 159.509 81.5531 159.766 81.4779 159.779C81.4625 159.781 81.4479 159.788 81.4361 159.798C81.4243 159.808 81.4158 159.822 81.4116 159.837C81.4119 159.858 81.4197 159.878 81.4337 159.894ZM83.1575 160.314L83.1796 160.367C83.1796 160.455 83.1796 160.508 83.1796 160.53C82.9763 160.645 82.1586 160.265 81.7254 159.921C82.0879 159.881 82.963 159.845 83.1575 160.314Z" fill="#6DDEA2"/>
<path d="M85.3815 63.3412L86.0931 62.8594C86.0931 62.8594 85.8898 63.6064 85.3815 63.3412Z" fill="#263238"/>
<path d="M143.152 179.131L139.726 179.135L138.803 171.206L142.228 171.201L143.152 179.131Z" fill="#FFC3BD"/>
<path d="M172.64 164.413L170.046 166.654L164.172 161.249L166.762 159.008L172.64 164.413Z" fill="#FFC3BD"/>
<path d="M169.537 166.563L172.693 163.832C172.745 163.789 172.81 163.766 172.877 163.766C172.944 163.766 173.009 163.789 173.06 163.832L175.465 165.75C175.523 165.799 175.57 165.861 175.603 165.931C175.635 166 175.652 166.076 175.652 166.152C175.652 166.229 175.635 166.305 175.603 166.374C175.57 166.444 175.523 166.505 175.465 166.555C174.435 167.416 173.644 167.995 172.371 169.1C171.584 169.781 169.277 171.92 168.189 172.862C167.102 173.803 166.072 172.809 166.421 172.323C168.057 170.148 169.073 168.221 169.232 167.076C169.272 166.875 169.379 166.694 169.537 166.563Z" fill="#263238"/>
<path d="M139.75 178.738H143.494C143.562 178.739 143.628 178.762 143.681 178.804C143.734 178.847 143.771 178.906 143.786 178.973L144.467 182.018C144.483 182.091 144.483 182.168 144.466 182.241C144.449 182.314 144.416 182.383 144.369 182.441C144.322 182.5 144.262 182.547 144.194 182.58C144.126 182.612 144.051 182.628 143.976 182.628C142.623 182.606 140.674 182.531 138.977 182.531C136.997 182.531 135.834 182.584 133.509 182.588C132.104 182.588 131.71 181.169 132.298 181.041C134.977 180.449 136.612 180.444 138.928 179.012C139.172 178.846 139.456 178.751 139.75 178.738Z" fill="#263238"/>
<path d="M128.622 80.6725C127.932 80.4073 127.34 80.1642 126.721 79.8813C126.102 79.5985 125.505 79.32 124.904 79.0239C123.705 78.4345 122.526 77.7774 121.368 77.0525C120.203 76.3383 119.083 75.553 118.014 74.7011C117.744 74.4801 117.47 74.2591 117.205 74.0337L116.418 73.3132C116.157 73.0745 115.91 72.8005 115.658 72.5441C115.53 72.4027 115.419 72.301 115.273 72.1331C115.127 71.9651 114.986 71.8016 114.858 71.6336C114.374 70.9946 113.964 70.3038 113.633 69.5739C113.326 68.9074 113.065 68.2207 112.851 67.5186C112.445 66.1928 112.149 64.8357 111.967 63.461C111.618 60.8147 111.552 58.1389 111.768 55.4785H114.341C114.517 56.6763 114.703 57.936 114.946 59.1471C115.189 60.3582 115.446 61.5693 115.759 62.7362C116.056 63.876 116.431 64.9939 116.882 66.0821C117.256 67.0442 117.783 67.9397 118.442 68.7341L118.659 68.9551C118.725 69.0258 118.858 69.1319 118.955 69.2203C119.167 69.4015 119.362 69.5916 119.587 69.764C120.029 70.1176 120.471 70.4667 120.966 70.8027C121.921 71.4657 122.929 72.0977 123.981 72.69C125.033 73.2823 126.107 73.8436 127.198 74.374C127.746 74.6436 128.299 74.9088 128.851 75.1564C129.404 75.4039 129.983 75.6647 130.478 75.8768L128.622 80.6725Z" fill="#FFC3BD"/>
<path d="M129.161 83.5889C127.211 82.3763 125.368 80.9981 123.654 79.4694L125.02 72.4902C127.559 73.2126 130.141 73.7765 132.751 74.1787C137.06 74.7356 132.233 85.4187 129.161 83.5889Z" fill="#263238"/>
<path d="M114.429 56.0774L114.672 51.7148L111.048 52.8773C111.048 52.8773 110.204 56.0022 112.555 56.8244L114.429 56.0774Z" fill="#FFC3BD"/>
<path d="M114.238 49.3652L111.246 50.6117L111.052 52.8747L114.676 51.7123L114.238 49.3652Z" fill="#FFC3BD"/>
<path opacity="0.2" d="M138.815 171.206L139.288 175.294L142.714 175.29L142.241 171.201L138.815 171.206Z" fill="black"/>
<path opacity="0.2" d="M166.766 159.008L164.172 161.249L167.204 164.033L169.794 161.792L166.766 159.008Z" fill="black"/>
<path d="M145.932 74.0376C145.94 73.795 145.899 73.5533 145.813 73.3264C145.727 73.0996 145.597 72.892 145.43 72.7157C145.263 72.5395 145.063 72.398 144.841 72.2994C144.619 72.2008 144.38 72.1471 144.138 72.1414C134.361 71.9602 128 74.7006 127.563 74.8774C127.399 74.9432 127.256 75.0497 127.145 75.1866C127.034 75.3235 126.961 75.4863 126.93 75.6597C126.524 78.1084 125.37 88.3717 131.023 104.434L149.145 101.839C148.902 99.1653 145.525 86.8954 145.932 74.0376Z" fill="#263238"/>
<path d="M131.271 73.6421C130.197 75.0786 129.711 78.3892 133.269 80.8113C137.645 77.545 139.899 74.0311 140.567 72.2012C137.427 72.3587 134.312 72.8416 131.271 73.6421Z" fill="white"/>
<path d="M130.462 74.99C130.227 74.99 130.002 74.8969 129.836 74.7311C129.671 74.5653 129.578 74.3405 129.578 74.106C129.578 73.3767 130.21 72.7491 130.744 72.338C132.539 71.012 136.048 69.9998 140.468 71.2772C140.686 71.3489 140.867 71.502 140.973 71.7043C141.08 71.9066 141.104 72.1424 141.041 72.3622C140.977 72.5819 140.831 72.7685 140.633 72.8827C140.434 72.9969 140.2 73.0298 139.978 72.9745C134.851 71.4938 131.69 73.5977 131.35 74.2033C131.326 74.4212 131.222 74.6225 131.057 74.7679C130.893 74.9133 130.681 74.9924 130.462 74.99Z" fill="#6DDEA2"/>
<path d="M137.802 63.8008C137.669 66.3511 137.833 70.9656 139.804 72.3712C138.646 73.9049 137.103 75.7038 134.173 76.2298C132.405 76.5436 131.799 75.8895 131.724 75.0629C131.699 74.6642 131.787 74.2666 131.978 73.9156C132.169 73.5646 132.455 73.2744 132.803 73.0784C134.708 71.9734 134.327 70.1965 133.642 68.5169L137.802 63.8008Z" fill="#FFC3BD"/>
<path d="M130.185 95.2675C130.085 95.267 129.986 95.2491 129.893 95.2144C129.672 95.1364 129.491 94.9738 129.39 94.7625C129.289 94.5511 129.276 94.3083 129.354 94.0873C129.476 93.778 129.533 93.4466 129.521 93.1141C129.509 92.7816 129.428 92.4552 129.283 92.1558L129.19 91.9038C129.039 91.607 128.839 91.3379 128.598 91.1082C128.081 90.6934 127.723 90.1125 127.585 89.464C127.447 88.8155 127.538 88.1394 127.842 87.5501C127.951 87.2979 128.015 87.0287 128.032 86.7545C127.948 86.4397 127.812 86.141 127.63 85.8705C127.265 85.3489 127.05 84.7376 127.007 84.1025C127.057 83.4384 127.298 82.8029 127.701 82.2727C127.852 82.0716 127.972 81.8479 128.054 81.6097C128.057 81.3637 128.009 81.1199 127.913 80.8936C127.7 80.3913 127.648 79.8357 127.762 79.3024C127.942 78.7011 128.311 78.174 128.814 77.7996C128.957 77.6921 129.08 77.5622 129.181 77.4151C129.244 77.2016 129.244 76.9744 129.181 76.7609C129.047 76.249 129.118 75.7048 129.38 75.2449C129.69 74.7587 129.659 74.6349 129.632 74.5332C129.587 74.3782 129.568 74.217 129.575 74.0559C129.575 73.8214 129.668 73.5966 129.834 73.4308C129.999 73.265 130.224 73.1719 130.459 73.1719C130.693 73.1719 130.918 73.265 131.084 73.4308C131.249 73.5966 131.343 73.8214 131.343 74.0559V74.0824C131.466 74.5819 131.502 75.1786 130.901 76.1554C130.908 76.2592 130.921 76.3625 130.94 76.4648C131.074 76.9509 131.054 77.4663 130.884 77.9408C130.714 78.4153 130.402 78.8259 129.99 79.1168C129.707 79.3643 129.548 79.5146 129.486 79.7312C129.477 79.9354 129.518 80.1387 129.606 80.3234C129.793 80.7962 129.868 81.3064 129.822 81.813C129.724 82.3207 129.513 82.7998 129.203 83.2141C128.998 83.4726 128.856 83.7752 128.788 84.0981C128.859 84.4075 128.99 84.7002 129.172 84.96C129.49 85.4349 129.705 85.9708 129.804 86.5335C129.829 87.0656 129.737 87.5966 129.535 88.0894C129.391 88.4037 129.323 88.7473 129.336 89.0927C129.475 89.3993 129.675 89.6744 129.924 89.9016C130.333 90.3015 130.658 90.7794 130.879 91.3071L130.958 91.537C131.393 92.5251 131.42 93.6451 131.033 94.6531C130.976 94.8326 130.862 94.989 130.71 95.0995C130.557 95.2101 130.373 95.2689 130.185 95.2675Z" fill="#6DDEA2"/>
<path d="M145.763 73.8906C146.245 74.3326 146.647 74.7039 147.054 75.1282C147.461 75.5525 147.858 75.9636 148.252 76.3879C149.039 77.2366 149.781 78.1294 150.497 79.0399C151.989 80.9271 153.238 82.9942 154.214 85.1926C154.461 85.7806 154.676 86.3811 154.86 86.9915C154.952 87.3009 155.032 87.6236 155.107 87.9506L155.134 88.07L155.173 88.2777C155.2 88.4147 155.213 88.5606 155.227 88.7197C155.248 89.0145 155.239 89.3107 155.2 89.6037C155.135 90.132 154.974 90.6441 154.727 91.1154C154.52 91.5078 154.27 91.8755 153.98 92.2115C153.501 92.7586 152.949 93.2375 152.34 93.6348C151.301 94.315 150.182 94.8643 149.008 95.2702C148.451 95.4735 147.889 95.6459 147.324 95.7917C146.758 95.9376 146.21 96.0746 145.595 96.1763L144.8 93.732C145.242 93.4845 145.715 93.2237 146.161 92.9585C146.607 92.6933 147.045 92.4148 147.487 92.1364C148.309 91.6171 149.082 91.0254 149.799 90.3684C150.073 90.1037 150.315 89.8069 150.519 89.4844C150.674 89.2324 150.661 89.0645 150.616 89.1175C150.613 89.1321 150.613 89.1472 150.616 89.1617L150.59 89.0822C150.524 88.8788 150.462 88.6711 150.373 88.4589C150.21 88.0276 150.022 87.6056 149.812 87.1948C149.368 86.3218 148.863 85.4814 148.3 84.6798C147.739 83.8489 147.12 83.0356 146.466 82.24C145.812 81.4444 145.14 80.6621 144.428 79.8886C144.079 79.504 143.721 79.1283 143.359 78.757C142.996 78.3858 142.616 77.9968 142.294 77.6874L145.763 73.8906Z" fill="#FFC3BD"/>
<path d="M144.619 72.2128C146.617 72.5089 149.75 77.5168 149.75 77.5168L144.663 84.3369C144.663 84.3369 141.949 81.7512 141.158 79.4749C139.664 75.1079 140.694 71.6382 144.619 72.2128Z" fill="#263238"/>
<path d="M141.959 89.3841C141.806 89.3824 141.656 89.3407 141.523 89.2632C141.39 89.1857 141.28 89.075 141.204 88.9421C140.9 88.3477 140.768 87.6802 140.824 87.0149C140.847 86.7403 140.823 86.4637 140.753 86.1972C140.576 85.9227 140.353 85.6806 140.094 85.4812C139.585 85.1025 139.189 84.5921 138.949 84.0049C138.785 83.3595 138.815 82.6802 139.033 82.0513C139.114 81.8117 139.157 81.5613 139.162 81.3087C139.05 81.0055 138.889 80.7231 138.684 80.4733C138.229 80.0053 137.962 79.3857 137.935 78.7332C137.908 78.0807 138.123 77.4413 138.538 76.9373C138.658 76.7573 138.755 76.5627 138.826 76.3583C138.803 76.0229 138.722 75.6939 138.587 75.3859C138.334 74.8646 138.248 74.2783 138.339 73.7063C138.504 72.8927 138.915 72.1492 139.515 71.5759L139.573 71.5184C139.738 71.3617 139.957 71.2747 140.184 71.2754C140.412 71.2761 140.63 71.3645 140.794 71.5223C140.958 71.68 141.055 71.8949 141.065 72.1222C141.074 72.3495 140.996 72.5718 140.846 72.7428L140.744 72.8444C140.383 73.1928 140.14 73.6458 140.05 74.1395C140.098 74.3613 140.164 74.5786 140.249 74.7892C140.481 75.3246 140.597 75.9031 140.589 76.4865C140.521 76.9705 140.341 77.432 140.063 77.8346C139.872 78.0955 139.746 78.3987 139.696 78.7186C139.801 78.9921 139.95 79.2461 140.138 79.47C140.496 79.9136 140.756 80.427 140.903 80.9772C140.971 81.49 140.921 82.0114 140.757 82.5021C140.645 82.8132 140.604 83.1455 140.638 83.4745C140.806 83.7455 141.023 83.9824 141.279 84.1729C141.728 84.5263 142.1 84.9687 142.371 85.4724C142.562 85.969 142.64 86.5019 142.6 87.0326C142.568 87.3768 142.611 87.724 142.729 88.0492C142.848 88.2503 142.884 88.4908 142.827 88.7178C142.769 88.9449 142.624 89.14 142.424 89.2603C142.283 89.3436 142.123 89.3864 141.959 89.3841Z" fill="#6DDEA2"/>
<path opacity="0.2" d="M136.106 65.7227L133.648 68.5117C133.833 68.9401 133.981 69.3838 134.09 69.8377C135.124 69.5327 136.411 68.1669 136.366 67.0442C136.359 66.5916 136.271 66.144 136.106 65.7227Z" fill="black"/>
<path d="M130.934 56.5479C129.843 58.4485 130.541 61.1535 130.541 61.1535C130.834 61.3439 131.172 61.4525 131.521 61.4681C131.87 61.4836 132.217 61.4055 132.526 61.2419L132.216 56.2031L130.934 56.5479Z" fill="#263238"/>
<path d="M139.549 61.3759C138.714 64.6732 138.391 66.6446 136.384 68.0369C133.365 70.1319 129.538 67.8247 129.374 64.3462C129.224 61.2124 130.616 56.3504 134.135 55.6432C134.908 55.4829 135.711 55.5232 136.464 55.7604C137.218 55.9976 137.899 56.4238 138.442 56.9984C138.984 57.573 139.371 58.2769 139.565 59.0431C139.759 59.8093 139.753 60.6124 139.549 61.3759Z" fill="#FFC3BD"/>
<path d="M129.914 65.2122H129.795L122.303 63.6254C121.896 63.5393 121.539 63.2948 121.312 62.9458C121.085 62.5969 121.006 62.172 121.092 61.7646C121.178 61.3572 121.423 61.0008 121.772 60.7737C122.121 60.5465 122.546 60.4674 122.953 60.5535C123.027 60.5692 123.097 60.5995 123.16 60.6425C123.222 60.6855 123.275 60.7404 123.316 60.8041C123.358 60.8678 123.386 60.9389 123.399 61.0135C123.413 61.0881 123.411 61.1646 123.395 61.2386C123.362 61.3877 123.272 61.5179 123.143 61.6006C123.015 61.6834 122.859 61.7122 122.71 61.6806C122.657 61.6678 122.602 61.6663 122.549 61.6762C122.496 61.6862 122.445 61.7072 122.4 61.7381C122.356 61.7671 122.317 61.8047 122.286 61.8487C122.256 61.8927 122.235 61.9422 122.224 61.9944C122.204 62.1011 122.225 62.2112 122.281 62.3038C122.342 62.3919 122.433 62.4548 122.537 62.4806L130.029 64.0674C130.169 64.0977 130.292 64.1783 130.375 64.2938C130.459 64.4093 130.497 64.5515 130.482 64.6932C130.467 64.835 130.401 64.9663 130.295 65.062C130.19 65.1578 130.052 65.2113 129.91 65.2122H129.914Z" fill="#6DDEA2"/>
<path d="M129.891 65.3408L128.985 65.1463L129.272 63.8203L130.156 64.0104C130.335 64.0486 130.491 64.1561 130.591 64.3094C130.69 64.4628 130.725 64.6493 130.687 64.8281C130.643 64.9978 130.537 65.1448 130.389 65.2398C130.242 65.3348 130.064 65.3708 129.891 65.3408Z" fill="white"/>
<path d="M137.499 59.5635C137.499 58.3082 136.554 57.3932 133.398 57.6363C130.821 57.8308 129.566 56.6286 130.304 54.9534C132.39 56.0407 132.045 54.6175 136.023 54.4451C140.001 54.2727 141.155 55.7711 141.575 58.1004C144.01 61.7116 139.807 63.21 139.807 63.21L138.162 64.6465C137.822 64.7239 137.467 64.7086 137.134 64.6021C136.801 64.4956 136.503 64.3018 136.271 64.0409C136.271 64.0409 135.948 61.1105 137.499 59.5635Z" fill="#263238"/>
<path d="M133.279 53.8205L133.177 53.8735C133.083 53.9239 133.003 53.9983 132.946 54.0892C132.89 54.1802 132.858 54.2844 132.854 54.3915C132.851 54.4986 132.876 54.6048 132.926 54.6993C132.977 54.7938 133.051 54.8733 133.142 54.9299L142.371 60.6361C142.458 60.6894 142.557 60.72 142.658 60.7253C142.76 60.7306 142.861 60.7103 142.953 60.6664C143.045 60.6224 143.124 60.5562 143.184 60.4737C143.244 60.3912 143.282 60.2951 143.295 60.1941C143.338 59.9091 143.296 59.6177 143.175 59.356C143.054 59.0944 142.859 58.874 142.614 58.7223L134.746 53.8603C134.527 53.7262 134.275 53.6521 134.018 53.6451C133.761 53.6381 133.506 53.6986 133.279 53.8205Z" fill="#6DDEA2"/>
<path d="M134.934 54.4298L137.294 50.9733C137.361 50.8748 137.464 50.8058 137.581 50.7803C137.697 50.7548 137.819 50.7749 137.922 50.8363L144.437 54.7392C144.494 54.7725 144.543 54.8176 144.581 54.8715C144.619 54.9254 144.646 54.9868 144.658 55.0517C144.671 55.1165 144.669 55.1833 144.654 55.2476C144.639 55.3118 144.61 55.3721 144.569 55.4243L141.745 59.1548L134.934 54.4298Z" fill="#6DDEA2"/>
<path d="M134.934 54.4262L135.875 52.7422L143.15 57.5511L141.745 59.1512L134.934 54.4262Z" fill="#6DDEA2"/>
<path opacity="0.6" d="M134.934 54.4262L135.875 52.7422L143.15 57.5511L141.745 59.1512L134.934 54.4262Z" fill="white"/>
<path d="M139.969 65.4162C139.323 65.8573 138.53 66.0286 137.759 65.8936C136.756 65.6991 136.756 64.6825 137.45 63.962C138.073 63.3123 139.35 62.636 140.155 63.1974C140.959 63.7587 140.769 64.8637 139.969 65.4162Z" fill="#FFC3BD"/>
<path d="M137.997 174.51H143.796C143.796 174.51 142.886 153.886 141.635 143.287C141.255 140.061 141.666 135.641 141.706 130.704C141.759 124.485 142.046 117.709 142.329 112.391C142.63 106.791 142.881 102.756 142.881 102.756L131.018 104.449C131.018 104.449 129.842 133.811 131.686 144.101C133.604 154.788 137.997 174.51 137.997 174.51Z" fill="#6DDEA2"/>
<path opacity="0.2" d="M141.707 130.687C141.76 124.468 142.047 117.692 142.33 112.374L140.562 110.01C138.379 114.098 139.895 124.985 141.707 130.687Z" fill="black"/>
<path d="M136.673 103.622C136.673 103.622 144.041 132.718 147.542 142.129C151.374 152.427 165.487 164.467 165.487 164.467L169.054 160.542C169.054 160.542 161.588 148.905 156.085 137.709C153.455 123.171 149.159 101.836 149.159 101.836L136.673 103.622Z" fill="#6DDEA2"/>
<path d="M165.007 165.064L170.599 160.233L169.153 158.566L162.811 163.857L165.007 165.064Z" fill="#263238"/>
<path d="M137.272 174.638L144.185 174.629L144.18 172.397L136.458 172.291L137.272 174.638Z" fill="#263238"/>
<path d="M134.45 60.727C134.229 60.6607 133.969 60.8728 133.862 61.2043L134.649 61.4563C134.755 61.1248 134.667 60.7977 134.45 60.727Z" fill="#263238"/>
<path d="M131.002 60.0781C130.777 60.0781 130.56 60.3345 130.56 60.6837L131.383 60.7367C131.396 60.3875 131.232 60.1135 131.002 60.0781Z" fill="#263238"/>
<path d="M132.197 61.0859C131.715 61.8545 131.131 62.5534 130.46 63.1633C130.621 63.3307 130.817 63.4609 131.034 63.5449C131.251 63.6288 131.483 63.6646 131.715 63.6495L132.197 61.0859Z" fill="#ED847E"/>
<path d="M135.579 60.3761C135.606 60.3826 135.635 60.3826 135.663 60.3761C135.704 60.3629 135.738 60.3341 135.757 60.2961C135.777 60.2581 135.781 60.2138 135.769 60.1727C135.7 59.9246 135.573 59.6967 135.397 59.5082C135.222 59.3197 135.004 59.1762 134.761 59.0898C134.741 59.0831 134.719 59.0807 134.698 59.0827C134.677 59.0847 134.656 59.0911 134.637 59.1015C134.619 59.1119 134.602 59.126 134.589 59.143C134.576 59.1601 134.567 59.1796 134.562 59.2003C134.556 59.2207 134.554 59.242 134.556 59.263C134.559 59.2841 134.565 59.3045 134.576 59.323C134.586 59.3416 134.6 59.3579 134.616 59.3709C134.633 59.384 134.652 59.3937 134.673 59.3992C134.865 59.4732 135.036 59.592 135.173 59.7458C135.31 59.8995 135.408 60.0838 135.459 60.2832C135.471 60.3068 135.488 60.3274 135.508 60.3434C135.529 60.3595 135.553 60.3707 135.579 60.3761Z" fill="#263238"/>
<path d="M129.984 59.6155C130.01 59.62 130.038 59.6179 130.063 59.6094C130.088 59.6009 130.111 59.5863 130.13 59.5669C130.263 59.4134 130.43 59.2934 130.619 59.2166C130.807 59.1399 131.01 59.1084 131.213 59.1249C131.256 59.1312 131.299 59.1204 131.334 59.0947C131.369 59.069 131.392 59.0306 131.398 58.9878C131.405 58.9462 131.394 58.9038 131.37 58.8699C131.345 58.8359 131.307 58.8132 131.266 58.8066C131.01 58.7813 130.751 58.8179 130.512 58.9132C130.273 59.0086 130.06 59.16 129.891 59.3547C129.876 59.3696 129.863 59.3874 129.855 59.4072C129.847 59.4269 129.842 59.4482 129.842 59.4696C129.842 59.4911 129.847 59.5124 129.855 59.5321C129.863 59.5519 129.876 59.5697 129.891 59.5845C129.919 59.6032 129.951 59.6139 129.984 59.6155Z" fill="#263238"/>
<path d="M169.054 167.776C169.279 167.57 169.48 167.341 169.655 167.091C169.664 167.078 169.668 167.062 169.668 167.047C169.668 167.031 169.664 167.015 169.655 167.002C169.648 166.988 169.637 166.976 169.622 166.968C169.608 166.961 169.591 166.959 169.575 166.963C169.434 166.963 168.174 167.17 168.011 167.573C167.993 167.617 167.986 167.665 167.993 167.712C167.999 167.759 168.017 167.804 168.046 167.842C168.088 167.91 168.146 167.967 168.216 168.006C168.286 168.046 168.364 168.067 168.444 168.068C168.675 168.044 168.89 167.941 169.054 167.776ZM169.408 167.157C169.041 167.63 168.687 167.904 168.448 167.904C168.394 167.903 168.341 167.887 168.295 167.859C168.248 167.832 168.21 167.792 168.183 167.745C168.173 167.729 168.167 167.711 168.167 167.692C168.167 167.673 168.173 167.655 168.183 167.639C168.245 167.431 168.904 167.245 169.408 167.157Z" fill="#6DDEA2"/>
<path d="M169.647 167.107C169.658 167.096 169.667 167.082 169.673 167.067C169.68 167.054 169.683 167.04 169.683 167.025C169.683 167.011 169.68 166.996 169.673 166.983C169.642 166.952 168.966 166.232 168.462 166.236C168.4 166.236 168.339 166.25 168.283 166.275C168.227 166.3 168.176 166.336 168.135 166.382C168.088 166.423 168.057 166.478 168.045 166.539C168.034 166.6 168.044 166.663 168.073 166.718C168.254 167.063 169.24 167.204 169.629 167.125L169.647 167.107ZM168.259 166.471C168.31 166.426 168.376 166.403 168.444 166.404C168.767 166.404 169.209 166.78 169.421 166.979C168.979 167.001 168.303 166.842 168.192 166.639C168.192 166.616 168.161 166.572 168.232 166.497L168.259 166.471Z" fill="#6DDEA2"/>
<path d="M139.417 179.214C139.431 179.209 139.444 179.201 139.453 179.189C139.463 179.177 139.468 179.163 139.47 179.148C139.474 179.132 139.472 179.114 139.465 179.099C139.458 179.084 139.445 179.072 139.43 179.064C139.271 178.985 137.897 178.286 137.481 178.52C137.441 178.541 137.408 178.572 137.384 178.61C137.36 178.648 137.346 178.692 137.344 178.737C137.335 178.81 137.344 178.885 137.371 178.953C137.398 179.022 137.442 179.083 137.499 179.13C137.874 179.462 138.856 179.325 139.408 179.214H139.417ZM137.587 178.649C137.848 178.56 138.595 178.843 139.139 179.091C138.383 179.219 137.813 179.188 137.605 178.998C137.568 178.966 137.54 178.926 137.523 178.88C137.506 178.834 137.5 178.785 137.508 178.737C137.508 178.719 137.513 178.702 137.522 178.687C137.531 178.673 137.545 178.661 137.561 178.653L137.587 178.649Z" fill="#6DDEA2"/>
<path d="M139.421 179.213H139.443C139.454 179.204 139.463 179.193 139.47 179.18C139.476 179.167 139.479 179.152 139.478 179.138C139.478 179.103 139.377 178.179 138.944 177.812C138.883 177.761 138.813 177.722 138.737 177.698C138.661 177.675 138.581 177.667 138.502 177.675C138.276 177.675 138.214 177.812 138.201 177.9C138.139 178.289 138.957 179.028 139.372 179.226C139.389 179.227 139.406 179.222 139.421 179.213ZM138.426 177.847H138.51C138.569 177.841 138.629 177.847 138.685 177.865C138.742 177.883 138.794 177.913 138.837 177.953C139.09 178.25 139.244 178.618 139.279 179.005C138.86 178.754 138.298 178.174 138.338 177.94C138.347 177.909 138.347 177.87 138.426 177.847Z" fill="#6DDEA2"/>
<path d="M145.213 93.5L141.916 94.5431L144.475 97.089C144.475 97.089 147.463 95.794 146.526 94.4768L145.213 93.5Z" fill="#FFC3BD"/>
<path d="M140.567 97.4533L142.914 98.8765L144.483 97.0908L141.924 94.5449L140.567 97.4533Z" fill="#FFC3BD"/>
</svg>
