<svg width="306" height="240" viewBox="0 0 306 240" fill="none" xmlns="http://www.w3.org/2000/svg">
<path d="M113.838 14.035C113.838 14.035 146.756 49.4748 217.626 8.98183C280.565 -26.9795 307.531 54.3354 300.125 89.3206C290.531 134.641 229.413 160.502 248.639 195.236C267.864 229.971 180.12 264.073 148.039 213.537C108.131 150.671 84.6889 190.877 55.2961 185.155C34.2008 181.049 1.75322 123.394 39.0824 92.4642C70.4944 66.4371 59.329 53.5969 55.186 41.6476C49.2107 24.4143 80.7075 -13.0753 113.838 14.035Z" fill="#D7F3E4"/>
<g clip-path="url(#clip0_309_12253)">
<path d="M54.2254 43.7565C55.0322 43.7565 55.6862 43.1025 55.6862 42.2957C55.6862 41.489 55.0322 40.835 54.2254 40.835C53.4187 40.835 52.7646 41.489 52.7646 42.2957C52.7646 43.1025 53.4187 43.7565 54.2254 43.7565Z" fill="white"/>
<path d="M59.7689 43.7565C60.5756 43.7565 61.2297 43.1025 61.2297 42.2957C61.2297 41.489 60.5756 40.835 59.7689 40.835C58.9621 40.835 58.3081 41.489 58.3081 42.2957C58.3081 43.1025 58.9621 43.7565 59.7689 43.7565Z" fill="white"/>
<path d="M65.3123 43.7565C66.1191 43.7565 66.7731 43.1025 66.7731 42.2957C66.7731 41.489 66.1191 40.835 65.3123 40.835C64.5056 40.835 63.8516 41.489 63.8516 42.2957C63.8516 43.1025 64.5056 43.7565 65.3123 43.7565Z" fill="white"/>
<path d="M236.175 45.7285H50.6763V46.7595H236.175V45.7285Z" fill="white"/>
<path d="M236.335 23.6426H23.0801V160.221H236.335V23.6426Z" fill="#E6E6E6"/>
<path d="M236.242 23.5205H22.9863V32.5804H236.242V23.5205Z" fill="#6DDEA2"/>
<path d="M230.413 39.8887H29.353V91.9535H230.413V39.8887Z" fill="white"/>
<path d="M230.537 100.509H29.4771V152.574H230.537V100.509Z" fill="white"/>
<path d="M206.059 51.4062H97.2456V56.2559H206.059V51.4062Z" fill="#E6E6E6"/>
<path d="M136.043 63.5293H97.2456V68.379H136.043V63.5293Z" fill="#E6E6E6"/>
<path d="M174.537 75.6553H97.2456V80.505H174.537V75.6553Z" fill="#E6E6E6"/>
<path d="M89.0622 126.275C89.068 129.806 88.0402 133.261 86.1055 136.215C85.7 136.838 85.2557 137.434 84.7752 138.001C83.6484 139.336 82.3358 140.502 80.8777 141.464C80.4811 141.727 80.0735 141.973 79.6548 142.202C77.4754 143.408 75.07 144.149 72.5901 144.378C72.0265 144.433 71.4534 144.459 70.8754 144.459C69.2909 144.461 67.7131 144.255 66.1824 143.846C65.3147 143.618 64.4659 143.323 63.6436 142.964C63.2233 142.783 62.8126 142.585 62.4113 142.372C61.4461 141.865 60.5292 141.271 59.672 140.598C59.2732 140.287 58.8887 139.96 58.5185 139.616C56.3036 137.564 54.6347 134.992 53.6624 132.133C52.6901 129.275 52.4449 126.219 52.9491 123.242C53.4534 120.264 54.691 117.46 56.5504 115.08C58.4098 112.701 60.8324 110.823 63.5996 109.614C66.3667 108.405 69.3913 107.905 72.4002 108.158C75.4092 108.41 78.3079 109.408 80.8346 111.062C83.3613 112.715 85.4365 114.972 86.873 117.628C88.3094 120.284 89.0618 123.256 89.0622 126.275V126.275Z" fill="#6DDEA2"/>
<path d="M71.9902 117.785H69.7607V134.759H71.9902V117.785Z" fill="white"/>
<path d="M79.3629 125.158H62.3892V127.388H79.3629V125.158Z" fill="white"/>
<path d="M203.334 112.026H94.52V116.876H203.334V112.026Z" fill="#E6E6E6"/>
<path d="M133.317 124.15H94.52V129H133.317V124.15Z" fill="#E6E6E6"/>
<path d="M171.811 136.274H94.52V141.124H171.811V136.274Z" fill="#E6E6E6"/>
<path d="M37.0915 29.5267C37.9192 29.5267 38.5901 28.8557 38.5901 28.028C38.5901 27.2003 37.9192 26.5293 37.0915 26.5293C36.2638 26.5293 35.5928 27.2003 35.5928 28.028C35.5928 28.8557 36.2638 29.5267 37.0915 29.5267Z" fill="white"/>
<path d="M42.7804 29.5267C43.6081 29.5267 44.2791 28.8557 44.2791 28.028C44.2791 27.2003 43.6081 26.5293 42.7804 26.5293C41.9527 26.5293 41.2817 27.2003 41.2817 28.028C41.2817 28.8557 41.9527 29.5267 42.7804 29.5267Z" fill="white"/>
<path d="M31.3874 29.5267C32.2151 29.5267 32.886 28.8557 32.886 28.028C32.886 27.2003 32.2151 26.5293 31.3874 26.5293C30.5597 26.5293 29.8887 27.2003 29.8887 28.028C29.8887 28.8557 30.5597 29.5267 31.3874 29.5267Z" fill="white"/>
<path d="M81.7784 80.5457C80.1889 79.708 78.5298 79.0098 76.8196 78.4588L76.6016 76.0466L67.7578 75.0938L66.6338 78.177L63.46 79.368C63.3464 79.4111 63.2383 79.4674 63.1379 79.5358H63.1345C62.9573 79.6555 62.8065 79.8101 62.6911 79.99C62.5757 80.17 62.4983 80.3716 62.4635 80.5826C62.4296 80.7923 62.4376 81.0067 62.487 81.2133L62.6548 81.9011C62.8963 82.0453 63.1446 82.1829 63.3928 82.3138L63.5506 82.3943C63.9129 82.5822 64.282 82.76 64.6611 82.9244C64.7383 82.9579 64.8221 82.9915 64.8993 83.025C64.906 83.0284 64.9093 83.0284 64.916 83.0317C65.0939 83.1055 65.2717 83.176 65.4528 83.2431C66.048 83.4704 66.655 83.6653 67.2712 83.8269C68.844 84.246 70.4648 84.4581 72.0924 84.4576C72.6863 84.4576 73.2734 84.4308 73.8538 84.3737C75.18 84.2513 76.4893 83.987 77.7591 83.5853C77.7624 83.5853 77.7658 83.5819 77.7691 83.5819C78.5713 83.3264 79.3549 83.0159 80.1143 82.6526C80.1176 82.6493 80.1243 82.6493 80.1278 82.6459C80.2988 82.5654 80.4633 82.4781 80.631 82.3943L80.7114 82.354C80.8456 82.2836 80.9799 82.2131 81.1141 82.1393C81.4496 81.9548 81.7784 81.7602 82.1037 81.5522C82.1943 81.4985 82.2816 81.4414 82.3722 81.3811C82.4997 81.2972 82.6271 81.21 82.7513 81.1194C82.4393 80.9181 82.1139 80.7268 81.7784 80.5457Z" fill="#3F3D56"/>
<path d="M65.1808 82.0327L64.6273 79.5332H63.1812C63.1667 79.5334 63.1521 79.5345 63.1377 79.5366H63.1342C62.6146 79.5805 62.1141 79.7535 61.6782 80.0398C61.3825 80.2286 61.1197 80.4643 60.8999 80.7377C61.3293 81.0631 61.7755 81.365 62.2352 81.6536L62.2553 81.6636C62.3861 81.7442 62.5204 81.8247 62.6546 81.9018C62.896 82.0461 63.1444 82.1837 63.3926 82.3145L63.5503 82.395C63.9127 82.5829 64.2818 82.7607 64.6609 82.9251C64.738 82.9587 64.8219 82.9922 64.8991 83.0258C64.9058 83.0291 64.9091 83.0291 64.9158 83.0325C65.0937 83.1063 65.2714 83.1768 65.4526 83.2439L65.1808 82.0327Z" fill="#3F3D56"/>
<path d="M71.8347 73.5698C75.3524 73.5698 78.2041 70.7181 78.2041 67.2004C78.2041 63.6827 75.3524 60.8311 71.8347 60.8311C68.317 60.8311 65.4653 63.6827 65.4653 67.2004C65.4653 70.7181 68.317 73.5698 71.8347 73.5698Z" fill="#FFB8B8"/>
<path d="M67.5584 64.0983C68.2177 64.8786 69.3336 65.0988 70.3629 65.189C72.7694 65.322 75.1828 65.1249 77.5359 64.6033C77.6817 66.0165 77.2841 67.5403 78.1165 68.7027C78.5067 67.2954 78.7336 65.8478 78.7927 64.3885C78.8548 63.7624 78.7731 63.1304 78.5537 62.5407C78.4364 62.2452 78.2385 61.9885 77.9826 61.7999C77.7267 61.6112 77.423 61.4981 77.106 61.4734C77.5805 61.1134 78.1363 60.8758 78.7244 60.7815L76.702 59.7652L77.2214 59.232L73.5599 59.0079L74.6204 58.3342C73.0243 58.1149 71.4095 58.0639 69.8028 58.1821C69.0566 58.2371 68.2765 58.3421 67.672 58.7744C67.0674 59.2067 66.7181 60.0659 67.0934 60.7006C66.6236 60.7778 66.1812 60.9736 65.8082 61.2696C65.4352 61.5655 65.1439 61.9518 64.9619 62.3919C64.7319 63.0913 64.6763 63.8364 64.8002 64.5622C64.9381 65.7267 65.2087 66.8716 65.6068 67.9746L67.5584 64.0983Z" fill="#2F2E41"/>
<path d="M89.7446 60.2942C88.8509 57.7269 87.408 55.3854 85.5165 53.4331C83.6249 51.4807 81.3302 49.9644 78.7925 48.99C76.2547 48.0156 73.5349 47.6065 70.8228 47.7913C68.1107 47.976 65.4715 48.7501 63.0893 50.0596C60.7071 51.3691 58.6392 53.1825 57.0298 55.3733C55.4205 57.5641 54.3084 60.0796 53.7711 62.7444C53.2338 65.4092 53.2842 68.1591 53.9189 70.8024C54.5536 73.4456 55.7572 75.9186 57.4459 78.049C57.6136 78.2603 57.7881 78.4717 57.966 78.6763C57.9794 78.6898 57.9894 78.7032 58.0028 78.7166C58.4402 79.2205 58.905 79.6999 59.3951 80.1526C59.5228 80.27 59.6569 80.3908 59.7911 80.5048C60.046 80.733 60.3078 80.951 60.5795 81.1591C60.6869 81.2429 60.7909 81.3268 60.9016 81.4073C61.331 81.7328 61.7772 82.0347 62.2369 82.3232L62.2571 82.3333C62.3878 82.4138 62.5221 82.4944 62.6563 82.5715C62.8978 82.7158 63.1461 82.8533 63.3943 82.9842L63.5521 83.0647C63.9144 83.2526 64.2835 83.4304 64.6626 83.5948C64.7398 83.6283 64.8236 83.6619 64.9008 83.6954C64.9075 83.6988 64.9108 83.6988 64.9175 83.7022C65.0954 83.776 65.2732 83.8464 65.4543 83.9135C66.0495 84.1408 66.6565 84.3357 67.2727 84.4973C68.8455 84.9165 70.4663 85.1285 72.0939 85.128C72.6878 85.128 73.2749 85.1012 73.8553 85.0442C75.1815 84.9217 76.4908 84.6574 77.7606 84.2557C77.7639 84.2557 77.7673 84.2524 77.7706 84.2524C78.5728 83.9968 79.3564 83.6863 80.1158 83.323C80.1191 83.3197 80.1258 83.3197 80.1293 83.3163C80.3003 83.2358 80.4648 83.1486 80.6325 83.0647L80.7129 83.0244C80.8471 82.954 80.9815 82.8835 81.1156 82.8097C81.4511 82.6252 81.7799 82.4306 82.1052 82.2226C82.1958 82.1689 82.2832 82.1119 82.3737 82.0515C82.5012 81.9676 82.6286 81.8804 82.7528 81.7898C82.9171 81.6757 83.0816 81.5583 83.2427 81.4375C83.2929 81.4006 83.3467 81.3637 83.397 81.3234C86.5402 78.9377 88.8473 75.6179 89.9876 71.8402C91.1279 68.0624 91.0428 64.0206 89.7446 60.2942ZM82.7797 80.5082C82.6689 80.5954 82.5549 80.6793 82.4407 80.7565C82.33 80.8403 82.2194 80.9208 82.1052 80.9947C82.0079 81.0651 81.9106 81.1322 81.81 81.196L81.7799 81.2161C81.706 81.2664 81.6323 81.3134 81.5584 81.3604C81.2799 81.5348 80.9981 81.7025 80.7129 81.8636C80.6828 81.8804 80.6525 81.8972 80.6223 81.9139C80.4949 81.9844 80.3674 82.0515 80.24 82.1186C80.2231 82.1287 80.203 82.1354 80.1863 82.1454L80.1661 82.1555C80.0051 82.2394 79.8406 82.3199 79.6763 82.3971C79.0419 82.7026 78.3885 82.967 77.7203 83.1889C77.633 83.2191 77.5458 83.2492 77.4587 83.2761C76.2567 83.6584 75.0172 83.9103 73.7614 84.0276C73.2112 84.0779 72.6542 84.1048 72.0939 84.1048C70.5544 84.1079 69.0213 83.9071 67.5345 83.5076C66.7715 83.3084 66.0237 83.055 65.2967 82.7494C65.2597 82.7326 65.2194 82.7192 65.1825 82.7024C65.1424 82.6856 65.1054 82.6722 65.0685 82.6554C65.0282 82.6386 64.9914 82.6219 64.9511 82.6017C64.6357 82.4642 64.3236 82.3132 64.0184 82.1555L63.8708 82.0784C63.4983 81.8838 63.1327 81.6757 62.777 81.4543C62.673 81.3905 62.5657 81.3235 62.4649 81.253C62.4382 81.2362 62.4146 81.2194 62.3878 81.2027C62.1496 81.045 61.9114 80.8806 61.6799 80.7095C61.5223 80.5921 61.3646 80.4746 61.2102 80.3538C60.9519 80.1593 60.7035 79.9512 60.4621 79.7365C60.3346 79.6292 60.2104 79.5117 60.0897 79.401C59.614 78.9618 59.1637 78.4958 58.741 78.0053C58.6001 77.8443 58.4625 77.6833 58.3316 77.5155C58.3019 77.4823 58.2739 77.4476 58.2477 77.4115C56.0679 74.6608 54.7567 71.3231 54.4815 67.8242C54.2062 64.3253 54.9793 60.8236 56.7023 57.7659C58.4252 54.7081 61.0198 52.2328 64.1552 50.6557C67.2906 49.0785 70.8247 48.471 74.3069 48.9105C77.789 49.3501 81.0612 50.8168 83.7064 53.1236C86.3515 55.4305 88.2496 58.4729 89.1586 61.8629C90.0676 65.2529 89.9464 68.8368 88.8103 72.1575C87.6741 75.4783 85.5747 78.3854 82.7797 80.5082Z" fill="#3F3D56"/>
<path d="M248.803 149.995C247.909 147.428 246.466 145.087 244.575 143.134C242.683 141.182 240.388 139.666 237.851 138.691C235.313 137.717 232.593 137.308 229.881 137.492C227.169 137.677 224.53 138.451 222.147 139.761C219.765 141.07 217.697 142.884 216.088 145.074C214.479 147.265 213.366 149.781 212.829 152.446C212.292 155.11 212.342 157.86 212.977 160.504C213.612 163.147 214.815 165.62 216.504 167.75C216.672 167.961 216.846 168.173 217.024 168.377C217.037 168.391 217.047 168.404 217.061 168.418C217.498 168.922 217.963 169.401 218.453 169.854C218.581 169.971 218.715 170.092 218.849 170.206C219.104 170.434 219.366 170.652 219.637 170.86C220.168 171.278 220.721 171.667 221.295 172.024L221.315 172.034C221.687 172.266 222.066 172.481 222.452 172.685L222.61 172.766C222.972 172.954 223.341 173.132 223.721 173.296C223.798 173.33 223.882 173.363 223.959 173.397C223.965 173.4 223.969 173.4 223.976 173.403C224.742 173.722 225.529 173.988 226.331 174.198C227.904 174.618 229.524 174.83 231.152 174.829C231.746 174.829 232.333 174.802 232.913 174.745C234.239 174.623 235.549 174.359 236.819 173.957C236.822 173.957 236.825 173.954 236.829 173.954C237.631 173.698 238.414 173.388 239.174 173.024C239.177 173.021 239.184 173.021 239.187 173.017C239.358 172.937 239.523 172.85 239.69 172.766L239.771 172.726C239.905 172.655 240.039 172.585 240.174 172.511C240.509 172.326 240.838 172.132 241.163 171.924C241.254 171.87 241.341 171.813 241.432 171.753C241.727 171.558 242.019 171.35 242.301 171.139C242.351 171.102 242.405 171.065 242.455 171.025C245.598 168.639 247.905 165.319 249.045 161.541C250.186 157.764 250.101 153.722 248.803 149.995Z" fill="white"/>
<path d="M237.32 163.844C238.867 163.844 240.121 162.59 240.121 161.043C240.121 159.496 238.867 158.242 237.32 158.242C235.773 158.242 234.519 159.496 234.519 161.043C234.519 162.59 235.773 163.844 237.32 163.844Z" fill="#2F2E41"/>
<path d="M238.099 158.318C238.584 158.318 239.061 158.444 239.482 158.683C239.904 158.923 240.256 159.267 240.505 159.684C240.753 160.1 240.889 160.574 240.9 161.058C240.911 161.543 240.795 162.022 240.565 162.449C240.808 162.145 240.985 161.794 241.085 161.418C241.184 161.042 241.204 160.649 241.144 160.265C241.083 159.881 240.944 159.514 240.733 159.187C240.523 158.859 240.247 158.58 239.922 158.365C239.598 158.15 239.232 158.006 238.849 157.94C238.466 157.875 238.073 157.89 237.696 157.985C237.318 158.079 236.965 158.252 236.658 158.49C236.351 158.729 236.097 159.029 235.913 159.372C236.174 159.043 236.507 158.777 236.886 158.595C237.264 158.413 237.679 158.318 238.1 158.318H238.099Z" fill="#2F2E41"/>
<path d="M232.086 161.035C236.63 161.035 240.314 157.351 240.314 152.807C240.314 148.262 236.63 144.578 232.086 144.578C227.541 144.578 223.857 148.262 223.857 152.807C223.857 157.351 227.541 161.035 232.086 161.035Z" fill="#2F2E41"/>
<path d="M225.628 147.702C227.046 146.107 229.028 145.126 231.155 144.965C233.283 144.804 235.39 145.476 237.032 146.839C236.964 146.775 236.897 146.711 236.828 146.649C235.202 145.192 233.065 144.442 230.886 144.561C228.707 144.681 226.665 145.661 225.209 147.287C223.752 148.912 223.002 151.05 223.121 153.229C223.241 155.408 224.221 157.45 225.847 158.906C225.863 158.92 225.878 158.934 225.894 158.948C225.964 159.01 226.035 159.069 226.107 159.128C224.561 157.657 223.647 155.644 223.558 153.512C223.468 151.38 224.21 149.297 225.628 147.702Z" fill="#2F2E41"/>
<path d="M232.013 160.966C234.94 160.966 237.313 158.594 237.313 155.667C237.313 152.74 234.94 150.367 232.013 150.367C229.086 150.367 226.713 152.74 226.713 155.667C226.713 158.594 229.086 160.966 232.013 160.966Z" fill="#A0616A"/>
<path d="M241.498 169.475V171.253C241.173 171.461 240.844 171.656 240.508 171.84C240.374 171.914 240.24 171.984 240.106 172.055L240.025 172.095C239.857 172.179 239.693 172.266 239.522 172.347C239.519 172.35 239.512 172.35 239.508 172.353C238.749 172.717 237.965 173.027 237.163 173.283C237.16 173.283 237.157 173.286 237.153 173.286C235.883 173.688 234.574 173.952 233.248 174.075C232.668 174.132 232.08 174.158 231.487 174.158C229.859 174.159 228.238 173.947 226.666 173.528C225.863 173.317 225.076 173.051 224.31 172.733C224.304 172.729 224.3 172.729 224.293 172.726C224.216 172.692 224.132 172.659 224.055 172.625C223.676 172.461 223.307 172.283 222.945 172.095L222.787 172.015C222.401 171.81 222.022 171.595 221.65 171.364L221.63 171.354C221.056 170.996 220.503 170.608 219.972 170.189C219.7 169.981 219.439 169.763 219.184 169.535C219.05 169.421 218.915 169.3 218.788 169.183C218.298 168.73 217.833 168.251 217.396 167.747C217.454 167.398 217.539 167.053 217.651 166.717L217.654 166.714C217.674 166.656 217.697 166.6 217.724 166.546C217.743 166.498 217.764 166.451 217.788 166.405C218.389 165.281 219.476 165.003 220.824 164.942C221.586 164.909 222.428 164.946 223.317 164.935C223.787 164.932 224.273 164.915 224.76 164.872C227.83 164.593 227.273 162.782 227.41 161.805C227.548 160.859 228.4 161.678 228.457 161.731L228.46 161.735C230.198 162.548 232.12 162.885 234.03 162.711C234.359 162.671 234.687 162.647 235.016 162.637C235.882 162.627 235.694 162.876 235.395 163.08C235.25 163.176 235.099 163.261 234.942 163.335C234.942 163.335 234.805 164.174 234.664 165.429C234.53 166.63 236.831 167.193 237.022 167.237C237.026 167.24 237.031 167.241 237.036 167.24C237.876 167.022 238.761 167.046 239.589 167.307H239.592C240.065 167.481 240.487 167.771 240.82 168.149C241.153 168.528 241.386 168.983 241.498 169.475Z" fill="#6DDEA2"/>
<path d="M224.345 171.632C224.345 171.88 224.338 172.118 224.328 172.343C224.325 172.477 224.318 172.608 224.311 172.732C224.305 172.729 224.301 172.729 224.295 172.726C224.217 172.692 224.134 172.659 224.056 172.625C223.677 172.461 223.308 172.283 222.946 172.095L222.788 172.014C222.402 171.81 222.023 171.595 221.651 171.364C221.661 171.246 221.678 171.129 221.694 171.011C221.731 170.753 221.762 170.491 221.782 170.233C221.914 168.418 221.585 166.599 220.826 164.945V164.942C220.758 164.808 220.718 164.734 220.718 164.734C220.718 164.734 221.694 163.895 223.087 164.734C223.176 164.786 223.254 164.855 223.318 164.935C224.157 165.925 224.385 169.253 224.345 171.632Z" fill="#2F2E41"/>
<path d="M239.58 171.176C239.566 171.551 239.546 171.944 239.523 172.343V172.347C239.519 172.35 239.512 172.35 239.509 172.353C238.75 172.717 237.966 173.027 237.164 173.283C237.161 173.283 237.157 173.286 237.154 173.286L237.117 172.343L237.114 172.219L236.936 167.629C236.931 167.526 236.947 167.422 236.984 167.324C237.02 167.227 237.076 167.138 237.148 167.063C237.22 166.987 237.306 166.928 237.402 166.887C237.497 166.846 237.6 166.824 237.704 166.824H239.405C239.489 166.824 239.549 166.995 239.59 167.304V167.307C239.672 168.596 239.669 169.888 239.58 171.176Z" fill="#2F2E41"/>
<path d="M227.483 149.042V154.343H228.71L230.272 152.669L230.063 154.343H235.488L235.152 152.669L235.823 154.343H236.688V149.042H227.483Z" fill="#2F2E41"/>
<path d="M226.645 155.318C226.876 155.318 227.064 154.975 227.064 154.551C227.064 154.128 226.876 153.784 226.645 153.784C226.414 153.784 226.227 154.128 226.227 154.551C226.227 154.975 226.414 155.318 226.645 155.318Z" fill="#A0616A"/>
<path d="M237.386 155.318C237.617 155.318 237.804 154.975 237.804 154.551C237.804 154.128 237.617 153.784 237.386 153.784C237.155 153.784 236.967 154.128 236.967 154.551C236.967 154.975 237.155 155.318 237.386 155.318Z" fill="#A0616A"/>
<path d="M242.638 170.469C242.356 170.68 242.064 170.888 241.769 171.083C241.678 171.143 241.591 171.2 241.501 171.254C241.175 171.462 240.846 171.656 240.511 171.841C240.377 171.915 240.243 171.985 240.108 172.056V168.358C240.108 168.358 240.645 168.788 241.501 169.502C241.608 169.593 241.719 169.687 241.836 169.788C242.084 169.996 242.353 170.224 242.638 170.469Z" fill="#6DDEA2"/>
<path d="M248.803 149.995C247.909 147.428 246.466 145.087 244.575 143.134C242.683 141.182 240.388 139.666 237.851 138.691C235.313 137.717 232.593 137.308 229.881 137.492C227.169 137.677 224.53 138.451 222.147 139.761C219.765 141.07 217.697 142.884 216.088 145.074C214.479 147.265 213.366 149.781 212.829 152.446C212.292 155.11 212.342 157.86 212.977 160.504C213.612 163.147 214.815 165.62 216.504 167.75C216.672 167.961 216.846 168.173 217.024 168.377C217.037 168.391 217.047 168.404 217.061 168.418C217.498 168.922 217.963 169.401 218.453 169.854C218.581 169.971 218.715 170.092 218.849 170.206C219.104 170.434 219.366 170.652 219.637 170.86C220.168 171.278 220.721 171.667 221.295 172.024L221.315 172.034C221.687 172.266 222.066 172.481 222.452 172.685L222.61 172.766C222.972 172.954 223.341 173.132 223.721 173.296C223.798 173.33 223.882 173.363 223.959 173.397C223.965 173.4 223.969 173.4 223.976 173.403C224.742 173.722 225.529 173.988 226.331 174.198C227.904 174.618 229.524 174.83 231.152 174.829C231.746 174.829 232.333 174.802 232.913 174.745C234.239 174.623 235.549 174.359 236.819 173.957C236.822 173.957 236.825 173.954 236.829 173.954C237.631 173.698 238.414 173.388 239.174 173.024C239.177 173.021 239.184 173.021 239.187 173.017C239.358 172.937 239.523 172.85 239.69 172.766L239.771 172.726C239.905 172.655 240.039 172.585 240.174 172.511C240.509 172.326 240.838 172.132 241.163 171.924C241.254 171.87 241.341 171.813 241.432 171.753C241.727 171.558 242.019 171.35 242.301 171.139C242.351 171.102 242.405 171.065 242.455 171.025C245.598 168.639 247.905 165.319 249.045 161.541C250.186 157.764 250.101 153.722 248.803 149.995ZM241.838 170.209C241.727 170.297 241.613 170.38 241.499 170.458C241.388 170.541 241.277 170.622 241.163 170.696C241.066 170.766 240.969 170.833 240.868 170.897C240.784 170.954 240.7 171.008 240.616 171.062C240.338 171.236 240.056 171.404 239.771 171.565C239.741 171.582 239.711 171.598 239.68 171.615C239.553 171.686 239.425 171.753 239.298 171.82C239.281 171.83 239.261 171.837 239.244 171.847L239.224 171.857C239.063 171.941 238.899 172.021 238.734 172.098C238.1 172.404 237.446 172.668 236.778 172.89C236.691 172.92 236.604 172.95 236.517 172.977C235.315 173.359 234.075 173.611 232.819 173.729C232.269 173.779 231.712 173.806 231.152 173.806C229.612 173.809 228.079 173.608 226.592 173.209C225.829 173.01 225.082 172.756 224.355 172.45C224.277 172.42 224.2 172.387 224.126 172.357C224.086 172.34 224.049 172.323 224.009 172.303C223.694 172.165 223.382 172.014 223.076 171.857L222.929 171.779C222.556 171.585 222.191 171.377 221.835 171.155C221.704 171.075 221.573 170.991 221.446 170.904C221.043 170.639 220.651 170.354 220.268 170.055C220.01 169.86 219.762 169.652 219.52 169.438C219.393 169.33 219.268 169.213 219.148 169.102C218.672 168.663 218.222 168.197 217.799 167.706C217.658 167.545 217.52 167.384 217.39 167.217C217.36 167.183 217.332 167.149 217.306 167.113C215.126 164.362 213.815 161.024 213.539 157.525C213.264 154.026 214.037 150.525 215.76 147.467C217.483 144.409 220.078 141.934 223.213 140.357C226.349 138.78 229.883 138.172 233.365 138.612C236.847 139.051 240.119 140.518 242.764 142.825C245.409 145.132 247.308 148.174 248.217 151.564C249.126 154.954 249.004 158.538 247.868 161.859C246.732 165.179 244.633 168.087 241.838 170.209Z" fill="#3F3D56"/>
<path d="M247.749 148.53C248.213 148.362 248.634 148.094 248.983 147.746C249.332 147.397 249.601 146.976 249.77 146.513C249.938 146.05 250.003 145.555 249.96 145.063C249.917 144.572 249.767 144.096 249.52 143.669L257.357 134.596L251.179 133.792L244.684 142.531C243.994 142.994 243.498 143.693 243.289 144.497C243.081 145.301 243.174 146.153 243.552 146.892C243.93 147.632 244.566 148.207 245.34 148.509C246.113 148.811 246.971 148.818 247.749 148.53Z" fill="#FFB8B8"/>
<path d="M291.923 150.448C292.248 150.077 292.488 149.639 292.626 149.166C292.763 148.692 292.795 148.194 292.72 147.707C292.644 147.219 292.463 146.755 292.188 146.345C291.913 145.935 291.552 145.591 291.13 145.336L293.621 133.608L287.821 135.883L286.345 146.671C285.963 147.408 285.866 148.26 286.071 149.065C286.275 149.87 286.768 150.571 287.456 151.037C288.143 151.502 288.978 151.7 289.801 151.591C290.624 151.483 291.379 151.076 291.923 150.448Z" fill="#FFB8B8"/>
<path d="M263.854 211.568L259.74 211.567L257.784 195.702L263.854 195.702L263.854 211.568Z" fill="#FFB8B8"/>
<path d="M264.902 215.553L251.64 215.553V215.385C251.64 214.707 251.773 214.036 252.033 213.409C252.292 212.783 252.672 212.214 253.152 211.735C253.631 211.255 254.2 210.875 254.826 210.616C255.453 210.356 256.124 210.223 256.802 210.223L264.902 210.223L264.902 215.553Z" fill="#2F2E41"/>
<path d="M283.985 211.568L279.872 211.567L277.915 195.702L283.986 195.702L283.985 211.568Z" fill="#FFB8B8"/>
<path d="M285.033 215.553L271.771 215.553V215.385C271.77 214.707 271.904 214.036 272.163 213.409C272.423 212.783 272.803 212.214 273.282 211.735C273.762 211.255 274.331 210.875 274.957 210.616C275.584 210.356 276.255 210.223 276.933 210.223L285.033 210.223L285.033 215.553Z" fill="#2F2E41"/>
<path d="M264.284 203.282L258.462 203.049C258.065 203.032 257.69 202.86 257.419 202.569C257.148 202.278 257.002 201.892 257.013 201.495L258.654 147.687L258.761 147.649C268.966 143.957 277.407 144.236 284.57 148.501L284.65 148.549L285.632 200.955C285.636 201.155 285.6 201.355 285.526 201.541C285.452 201.728 285.341 201.898 285.201 202.041C285.06 202.184 284.892 202.298 284.707 202.375C284.522 202.453 284.324 202.493 284.123 202.493H279.213C278.863 202.492 278.525 202.371 278.255 202.149C277.985 201.926 277.8 201.618 277.732 201.275L271.043 167.252C271.02 167.134 270.956 167.029 270.862 166.954C270.768 166.88 270.651 166.841 270.531 166.846C270.411 166.85 270.297 166.897 270.209 166.978C270.121 167.059 270.064 167.169 270.05 167.288L265.844 201.956C265.797 202.321 265.62 202.658 265.344 202.902C265.068 203.146 264.713 203.282 264.344 203.283C264.324 203.283 264.304 203.283 264.284 203.282Z" fill="#2F2E41"/>
<path d="M269.948 100.499C274.499 100.499 278.189 96.8098 278.189 92.2588C278.189 87.7078 274.499 84.0186 269.948 84.0186C265.397 84.0186 261.708 87.7078 261.708 92.2588C261.708 96.8098 265.397 100.499 269.948 100.499Z" fill="#FFB8B8"/>
<path d="M250.534 141.98C250.248 141.867 250.004 141.67 249.833 141.415L248.241 139.032C248.069 138.774 247.981 138.469 247.988 138.159C247.995 137.848 248.097 137.548 248.281 137.298L254.699 128.585L258.721 109.29C258.952 108.695 259.298 108.15 259.74 107.689C260.182 107.227 260.711 106.857 261.296 106.599C261.88 106.342 262.51 106.202 263.149 106.189C263.788 106.175 264.424 106.287 265.019 106.519C265.615 106.751 266.159 107.098 266.62 107.54C267.081 107.982 267.451 108.511 267.708 109.096C267.965 109.681 268.104 110.311 268.117 110.95C268.13 111.589 268.017 112.225 267.785 112.82L265.884 125.1C265.308 128.827 263.398 132.218 260.508 134.642L252.059 141.732C251.896 141.869 251.707 141.969 251.503 142.027C251.299 142.086 251.085 142.1 250.875 142.07C250.758 142.054 250.644 142.024 250.534 141.98Z" fill="#3F3D56"/>
<path d="M291.57 142.855C291.281 142.959 290.967 142.972 290.67 142.894L287.901 142.157C287.601 142.077 287.333 141.906 287.134 141.669C286.934 141.431 286.812 141.138 286.785 140.829L285.847 130.048L276.116 112.908C275.896 112.308 275.797 111.67 275.823 111.032C275.849 110.393 276.002 109.766 276.271 109.186C276.539 108.606 276.92 108.085 277.391 107.652C277.861 107.22 278.412 106.884 279.013 106.665C279.613 106.445 280.251 106.346 280.889 106.374C281.528 106.401 282.155 106.553 282.734 106.823C283.314 107.093 283.834 107.474 284.266 107.945C284.699 108.416 285.034 108.968 285.252 109.568L291.939 120.041C293.969 123.22 294.776 127.028 294.208 130.756L292.551 141.661C292.519 141.871 292.443 142.072 292.328 142.25C292.214 142.429 292.063 142.581 291.886 142.697C291.787 142.762 291.681 142.815 291.57 142.855Z" fill="#3F3D56"/>
<path d="M260.934 106.893C262.349 105.34 264.095 104.126 266.042 103.338C267.99 102.551 270.089 102.211 272.186 102.343C272.323 102.352 272.461 102.361 272.597 102.372C274.584 102.529 276.515 103.109 278.26 104.072C280.005 105.035 281.524 106.36 282.716 107.957C283.928 109.577 284.78 111.437 285.215 113.412C285.651 115.388 285.659 117.433 285.241 119.413C283.643 126.976 284.047 134.826 286.414 142.185L288.624 149.049C288.695 149.269 288.715 149.502 288.681 149.731C288.648 149.96 288.562 150.178 288.431 150.368C288.3 150.558 288.127 150.716 287.925 150.829C287.724 150.942 287.499 151.007 287.268 151.019L275.967 151.627L273.075 146.631V151.782L259.339 152.521C259.312 152.522 259.284 152.523 259.257 152.523C259.049 152.523 258.843 152.48 258.652 152.396C258.461 152.312 258.289 152.19 258.148 152.037C258.007 151.884 257.899 151.703 257.831 151.506C257.763 151.309 257.736 151.1 257.753 150.892L259.306 131.64L257.358 118.565C257.043 116.476 257.201 114.343 257.819 112.322C258.438 110.302 259.503 108.447 260.934 106.893Z" fill="#3F3D56"/>
<path d="M275.674 100.125C274.911 100.564 271.895 100.856 271.68 100.002L271.676 99.9832C271.526 99.3577 271.65 98.7047 271.693 98.063C271.736 97.4214 271.673 96.7166 271.236 96.2448C270.422 95.3654 268.973 95.8316 267.795 95.6093C267.105 95.4553 266.494 95.0551 266.078 94.4837C265.662 93.9123 265.468 93.2088 265.533 92.5049C265.55 92.3715 265.576 92.238 265.606 92.1046C265.68 91.7665 265.674 91.416 265.589 91.0805C265.505 90.745 265.343 90.4337 265.118 90.1709C264.893 89.9082 264.61 89.7013 264.291 89.5664C263.973 89.4314 263.627 89.3722 263.282 89.3933C262.092 89.4614 260.807 89.822 259.822 88.9403C259.06 88.2585 258.874 86.4837 259.209 85.5178C259.771 83.8945 263.374 83.0447 264.947 82.5775C266.892 82.0155 268.938 81.894 270.936 82.2218C272.934 82.5497 274.834 83.3187 276.498 84.473C277.492 85.1733 278.419 86.0531 278.843 87.1925C279.266 88.3318 279.062 89.7692 278.107 90.5213C278.847 91.305 279.368 92.2693 279.618 93.3178C279.868 94.3663 279.839 95.4621 279.532 96.4954C279.06 98.0151 276.809 99.472 275.674 100.125Z" fill="#2F2E41"/>
<path d="M300.004 216.083H228.542C228.453 216.083 228.368 216.048 228.305 215.985C228.242 215.922 228.207 215.837 228.207 215.748C228.207 215.659 228.242 215.573 228.305 215.51C228.368 215.447 228.453 215.412 228.542 215.412H300.004C300.093 215.412 300.178 215.447 300.241 215.51C300.304 215.573 300.339 215.659 300.339 215.748C300.339 215.837 300.304 215.922 300.241 215.985C300.178 216.048 300.093 216.083 300.004 216.083Z" fill="#CCCCCC"/>
</g>
<path d="M276.456 24.041C276.986 24.041 277.416 23.611 277.416 23.0806C277.416 22.5501 276.986 22.1201 276.456 22.1201C275.926 22.1201 275.496 22.5501 275.496 23.0806C275.496 23.611 275.926 24.041 276.456 24.041Z" fill="#6DDEA2"/>
<path d="M214.076 105.953C214.606 105.953 215.036 105.523 215.036 104.993C215.036 104.462 214.606 104.032 214.076 104.032C213.545 104.032 213.115 104.462 213.115 104.993C213.115 105.523 213.545 105.953 214.076 105.953Z" fill="#6DDEA2"/>
<path d="M228.208 23.4824C228.738 23.4824 229.168 23.0524 229.168 22.522C229.168 21.9915 228.738 21.5615 228.208 21.5615C227.678 21.5615 227.248 21.9915 227.248 22.522C227.248 23.0524 227.678 23.4824 228.208 23.4824Z" fill="#6DDEA2"/>
<path d="M304.485 59.4795C305.015 59.4795 305.445 59.0495 305.445 58.519C305.445 57.9886 305.015 57.5586 304.485 57.5586C303.954 57.5586 303.524 57.9886 303.524 58.519C303.524 59.0495 303.954 59.4795 304.485 59.4795Z" fill="#6DDEA2"/>
<path d="M251.199 112.803V117.027" stroke="#6DDEA2" stroke-width="0.980046" stroke-linecap="round" stroke-linejoin="round"/>
<path d="M249.082 114.92H253.306" stroke="#6DDEA2" stroke-width="0.980046" stroke-linecap="round" stroke-linejoin="round"/>
<path d="M293.931 41.0938V45.3177" stroke="#6DDEA2" stroke-width="0.980046" stroke-linecap="round" stroke-linejoin="round"/>
<path d="M291.814 43.2109H296.038" stroke="#6DDEA2" stroke-width="0.980046" stroke-linecap="round" stroke-linejoin="round"/>
<path d="M245.498 35.1455V39.3695" stroke="#6DDEA2" stroke-width="0.980046" stroke-linecap="round" stroke-linejoin="round"/>
<path d="M243.39 37.2529H247.604" stroke="#6DDEA2" stroke-width="0.980046" stroke-linecap="round" stroke-linejoin="round"/>
<path d="M63.7861 116.164C64.3166 116.164 64.7466 115.734 64.7466 115.204C64.7466 114.673 64.3166 114.243 63.7861 114.243C63.2557 114.243 62.8257 114.673 62.8257 115.204C62.8257 115.734 63.2557 116.164 63.7861 116.164Z" fill="#6DDEA2"/>
<path d="M1.40576 198.077C1.9362 198.077 2.3662 197.647 2.3662 197.117C2.3662 196.586 1.9362 196.156 1.40576 196.156C0.875318 196.156 0.445312 196.586 0.445312 197.117C0.445312 197.647 0.875318 198.077 1.40576 198.077Z" fill="#6DDEA2"/>
<path d="M15.5381 115.605C16.0685 115.605 16.4985 115.175 16.4985 114.645C16.4985 114.115 16.0685 113.685 15.5381 113.685C15.0076 113.685 14.5776 114.115 14.5776 114.645C14.5776 115.175 15.0076 115.605 15.5381 115.605Z" fill="#6DDEA2"/>
<path d="M91.8149 151.604C92.3454 151.604 92.7754 151.174 92.7754 150.643C92.7754 150.113 92.3454 149.683 91.8149 149.683C91.2845 149.683 90.8545 150.113 90.8545 150.643C90.8545 151.174 91.2845 151.604 91.8149 151.604Z" fill="#6DDEA2"/>
<path d="M38.5288 204.927V209.151" stroke="#6DDEA2" stroke-width="0.980046" stroke-linecap="round" stroke-linejoin="round"/>
<path d="M36.4116 207.044H40.6356" stroke="#6DDEA2" stroke-width="0.980046" stroke-linecap="round" stroke-linejoin="round"/>
<path d="M81.2612 133.217V137.441" stroke="#6DDEA2" stroke-width="0.980046" stroke-linecap="round" stroke-linejoin="round"/>
<path d="M79.144 135.334H83.368" stroke="#6DDEA2" stroke-width="0.980046" stroke-linecap="round" stroke-linejoin="round"/>
<path d="M32.8276 127.269V131.493" stroke="#6DDEA2" stroke-width="0.980046" stroke-linecap="round" stroke-linejoin="round"/>
<path d="M30.7202 129.376H34.9344" stroke="#6DDEA2" stroke-width="0.980046" stroke-linecap="round" stroke-linejoin="round"/>
<defs>
<clipPath id="clip0_309_12253">
<rect width="277.353" height="192.562" fill="white" transform="translate(22.9868 23.5205)"/>
</clipPath>
</defs>
</svg>
