<svg width="291" height="210" viewBox="0 0 291 210" fill="none" xmlns="http://www.w3.org/2000/svg">
<path d="M112.641 12.1643C112.641 12.1643 139.434 42.8803 197.119 7.78464C248.348 -23.3834 270.297 47.093 264.269 77.415C256.459 116.695 206.713 139.108 222.361 169.213C238.01 199.318 166.59 228.875 140.478 185.074C107.995 130.588 88.9146 165.435 64.9903 160.476C47.8198 156.917 21.4091 106.947 51.7932 80.1396C77.361 57.5817 68.2729 46.4529 64.9007 36.0964C60.0371 21.1601 85.6739 -11.3325 112.641 12.1643Z" fill="#D7F3E4"/>
<path d="M80.783 163.012L219.207 162.788C220.428 162.786 221.637 162.544 222.765 162.075C223.892 161.606 224.916 160.919 225.779 160.054C226.641 159.189 227.324 158.163 227.79 157.033C228.255 155.904 228.494 154.695 228.492 153.473L228.354 67.9692C228.352 66.7479 228.109 65.539 227.64 64.4114C227.171 63.2838 226.484 62.2597 225.619 61.3975C224.754 60.5353 223.728 59.8519 222.599 59.3864C221.47 58.9208 220.26 58.6823 219.039 58.6842L79.6887 58.7025C74.9418 58.7025 71.1443 54.159 71.3151 50.2646V58.9227L71.4681 153.727C71.47 154.948 71.7125 156.157 72.1816 157.285C72.6508 158.412 73.3374 159.437 74.2024 160.299C75.0674 161.161 76.0937 161.845 77.2228 162.31C78.3519 162.776 79.5617 163.014 80.783 163.012Z" fill="#529571"/>
<path d="M175.259 92.8054L228.605 92.7189C230.462 92.7158 232.243 93.4504 233.558 94.7611C234.873 96.0717 235.614 97.851 235.617 99.7075L235.652 121.71C235.655 123.567 234.921 125.348 233.61 126.663C232.299 127.978 230.52 128.718 228.664 128.721L175.318 128.808C174.963 128.809 174.622 128.668 174.37 128.417C174.118 128.166 173.977 127.826 173.976 127.471L173.922 94.147C173.922 93.7918 174.062 93.4509 174.313 93.1993C174.564 92.9477 174.904 92.806 175.259 92.8054Z" fill="#6DDEA2"/>
<path d="M192.583 119.021C197.135 119.021 200.825 115.331 200.825 110.78C200.825 106.228 197.135 102.538 192.583 102.538C188.032 102.538 184.342 106.228 184.342 110.78C184.342 115.331 188.032 119.021 192.583 119.021Z" fill="white"/>
<path d="M78.3154 40.7881H197.887C199.743 40.7881 201.524 41.5256 202.837 42.8383C204.149 44.1511 204.887 45.9316 204.887 47.7881V58.7032H80.3114C77.9255 58.7032 75.6374 57.7554 73.9503 56.0683C72.2632 54.3813 71.3154 52.0931 71.3154 49.7072V47.7881C71.3154 45.9316 72.0529 44.1511 73.3657 42.8383C74.6784 41.5256 76.4589 40.7881 78.3154 40.7881Z" fill="#53E698"/>
<path d="M171.392 48.6544C171.229 48.6545 171.072 48.598 170.946 48.4947C170.821 48.3913 170.735 48.2474 170.704 48.0878C170.673 47.9282 170.699 47.7628 170.776 47.62C170.854 47.4771 170.979 47.3658 171.13 47.305C171.158 47.2934 171.848 47.0162 173.112 46.5509C173.287 46.4868 173.479 46.4945 173.648 46.5724C173.816 46.6502 173.947 46.7919 174.011 46.9661C174.075 47.1403 174.067 47.3329 173.989 47.5014C173.912 47.67 173.77 47.8007 173.596 47.8648C172.351 48.3227 171.66 48.6008 171.654 48.6034C171.57 48.637 171.482 48.6543 171.392 48.6544Z" fill="#6DDEA2"/>
<path d="M200.686 209.849C200.199 209.849 199.701 209.839 199.208 209.82C199.116 209.817 199.025 209.795 198.941 209.757C198.857 209.719 198.782 209.664 198.719 209.597C198.656 209.529 198.607 209.45 198.575 209.363C198.543 209.277 198.528 209.185 198.532 209.092C198.535 209 198.557 208.91 198.596 208.826C198.635 208.742 198.69 208.667 198.758 208.604C198.826 208.542 198.906 208.493 198.992 208.462C199.079 208.431 199.171 208.416 199.263 208.421C200.646 208.477 202.031 208.45 203.411 208.341C203.502 208.333 203.595 208.344 203.682 208.372C203.769 208.401 203.851 208.446 203.921 208.506C203.99 208.565 204.048 208.638 204.09 208.72C204.132 208.802 204.157 208.891 204.164 208.983C204.172 209.074 204.161 209.166 204.133 209.254C204.105 209.341 204.059 209.422 204 209.492C203.94 209.562 203.867 209.62 203.785 209.662C203.704 209.704 203.614 209.729 203.523 209.736C202.594 209.811 201.64 209.849 200.686 209.849ZM195.026 209.427C194.992 209.427 194.958 209.424 194.924 209.42C193.558 209.222 192.14 208.95 190.707 208.613C190.527 208.57 190.37 208.457 190.273 208.299C190.175 208.142 190.144 207.951 190.187 207.771C190.229 207.59 190.342 207.434 190.5 207.336C190.657 207.238 190.848 207.207 191.028 207.25C192.421 207.578 193.8 207.842 195.125 208.034C195.3 208.059 195.46 208.15 195.571 208.287C195.682 208.425 195.736 208.6 195.724 208.777C195.711 208.953 195.632 209.118 195.503 209.239C195.373 209.36 195.203 209.427 195.026 209.427V209.427ZM207.652 209.129C207.479 209.129 207.312 209.065 207.183 208.949C207.055 208.834 206.974 208.674 206.955 208.502C206.937 208.33 206.984 208.158 207.085 208.018C207.187 207.878 207.337 207.78 207.506 207.744C208.856 207.456 210.186 207.079 211.486 206.616C211.661 206.554 211.854 206.564 212.021 206.644C212.189 206.723 212.318 206.866 212.38 207.041C212.443 207.216 212.433 207.409 212.353 207.576C212.273 207.744 212.13 207.873 211.955 207.936C210.597 208.419 209.208 208.812 207.798 209.113C207.75 209.124 207.701 209.129 207.652 209.129V209.129ZM186.785 207.509C186.714 207.509 186.644 207.498 186.576 207.477C185.276 207.071 183.916 206.602 182.534 206.084C182.36 206.018 182.219 205.887 182.142 205.718C182.065 205.549 182.059 205.356 182.124 205.182C182.189 205.008 182.321 204.867 182.49 204.791C182.659 204.714 182.852 204.707 183.025 204.773C184.383 205.282 185.718 205.742 186.993 206.14C187.153 206.19 187.29 206.296 187.378 206.438C187.467 206.579 187.502 206.748 187.477 206.914C187.452 207.079 187.368 207.23 187.241 207.339C187.114 207.449 186.952 207.508 186.785 207.509ZM215.608 206.309C215.45 206.309 215.297 206.256 215.173 206.158C215.05 206.061 214.962 205.924 214.926 205.771C214.889 205.618 214.906 205.456 214.972 205.314C215.038 205.171 215.151 205.054 215.292 204.983C216.527 204.358 217.726 203.664 218.883 202.903C218.96 202.852 219.046 202.816 219.137 202.799C219.228 202.781 219.321 202.781 219.411 202.799C219.502 202.818 219.588 202.854 219.665 202.906C219.741 202.958 219.807 203.024 219.857 203.102C219.908 203.179 219.943 203.266 219.96 203.356C219.977 203.447 219.976 203.541 219.957 203.631C219.937 203.721 219.9 203.807 219.848 203.883C219.795 203.959 219.728 204.024 219.65 204.074C218.449 204.863 217.205 205.584 215.922 206.233C215.825 206.283 215.717 206.309 215.608 206.309ZM178.846 204.549C178.752 204.549 178.659 204.53 178.572 204.493C177.336 203.967 176.027 203.382 174.681 202.755C174.597 202.717 174.521 202.662 174.458 202.594C174.395 202.527 174.346 202.447 174.314 202.36C174.282 202.274 174.267 202.181 174.271 202.089C174.275 201.996 174.297 201.906 174.336 201.822C174.375 201.738 174.43 201.663 174.499 201.6C174.567 201.538 174.647 201.49 174.734 201.458C174.821 201.427 174.914 201.414 175.006 201.418C175.098 201.423 175.189 201.446 175.272 201.486C176.604 202.106 177.899 202.685 179.121 203.205C179.27 203.269 179.392 203.381 179.467 203.524C179.542 203.667 179.565 203.832 179.533 203.99C179.5 204.148 179.414 204.29 179.289 204.392C179.164 204.494 179.008 204.55 178.846 204.549V204.549ZM222.683 201.693C222.538 201.693 222.397 201.648 222.279 201.565C222.161 201.481 222.071 201.363 222.023 201.227C221.975 201.09 221.97 200.942 222.009 200.803C222.049 200.663 222.131 200.54 222.243 200.449C223.292 199.603 224.345 198.676 225.375 197.692C225.51 197.564 225.689 197.494 225.875 197.498C226.061 197.503 226.237 197.581 226.365 197.715C226.493 197.849 226.563 198.029 226.559 198.214C226.554 198.4 226.476 198.576 226.342 198.705C225.284 199.715 224.2 200.668 223.122 201.538C222.998 201.639 222.843 201.694 222.683 201.694L222.683 201.693ZM171.157 200.981C171.049 200.981 170.943 200.956 170.847 200.908C169.666 200.323 168.425 199.695 167.054 198.989C166.972 198.946 166.9 198.889 166.84 198.818C166.781 198.748 166.736 198.667 166.708 198.579C166.68 198.492 166.669 198.4 166.677 198.308C166.685 198.216 166.71 198.127 166.752 198.046C166.795 197.964 166.852 197.891 166.923 197.832C166.993 197.772 167.074 197.728 167.162 197.7C167.249 197.672 167.341 197.661 167.433 197.669C167.525 197.676 167.614 197.702 167.695 197.744C169.06 198.448 170.294 199.072 171.468 199.654C171.609 199.724 171.723 199.84 171.791 199.983C171.858 200.126 171.875 200.287 171.839 200.441C171.803 200.595 171.716 200.732 171.592 200.83C171.468 200.928 171.315 200.981 171.157 200.981ZM163.616 197.105C163.502 197.105 163.39 197.077 163.29 197.024C162.124 196.409 160.954 195.79 159.779 195.166L159.541 195.04C159.459 194.997 159.386 194.939 159.326 194.868C159.267 194.797 159.222 194.715 159.194 194.627C159.167 194.538 159.157 194.445 159.166 194.353C159.174 194.261 159.201 194.172 159.244 194.09C159.288 194.008 159.347 193.936 159.418 193.877C159.49 193.818 159.572 193.774 159.661 193.748C159.749 193.721 159.842 193.712 159.934 193.722C160.026 193.731 160.116 193.759 160.197 193.803L160.435 193.929C161.609 194.552 162.778 195.17 163.943 195.785C164.081 195.858 164.191 195.975 164.255 196.118C164.319 196.261 164.334 196.421 164.296 196.573C164.258 196.725 164.171 196.86 164.048 196.956C163.924 197.053 163.772 197.105 163.616 197.105L163.616 197.105ZM228.81 195.867C228.675 195.867 228.542 195.827 228.429 195.753C228.315 195.679 228.225 195.574 228.17 195.45C228.115 195.326 228.098 195.188 228.12 195.055C228.141 194.921 228.201 194.796 228.292 194.696C229.202 193.695 230.118 192.624 231.015 191.51C231.132 191.367 231.301 191.277 231.484 191.258C231.667 191.24 231.851 191.294 231.994 191.41C232.138 191.525 232.23 191.693 232.251 191.876C232.271 192.059 232.219 192.243 232.105 192.388C231.19 193.523 230.256 194.616 229.329 195.637C229.263 195.71 229.183 195.768 229.094 195.807C229.005 195.847 228.908 195.867 228.81 195.867V195.867ZM156.126 193.142C156.013 193.142 155.901 193.115 155.801 193.062C154.415 192.333 153.187 191.694 152.049 191.109C151.883 191.024 151.759 190.877 151.702 190.7C151.645 190.523 151.661 190.331 151.746 190.166C151.831 190.001 151.978 189.876 152.154 189.819C152.331 189.762 152.523 189.778 152.689 189.863C153.831 190.45 155.062 191.091 156.452 191.822C156.591 191.895 156.701 192.012 156.765 192.155C156.829 192.298 156.844 192.458 156.806 192.61C156.768 192.762 156.681 192.897 156.558 192.993C156.434 193.09 156.282 193.142 156.126 193.142L156.126 193.142ZM234.128 189.284C233.999 189.284 233.873 189.248 233.763 189.181C233.653 189.114 233.564 189.017 233.505 188.902C233.447 188.787 233.421 188.658 233.431 188.53C233.441 188.401 233.487 188.278 233.562 188.173C234.36 187.073 235.165 185.91 235.954 184.717C236.057 184.562 236.217 184.454 236.399 184.417C236.58 184.38 236.77 184.417 236.924 184.519C237.079 184.622 237.187 184.782 237.224 184.964C237.261 185.145 237.224 185.335 237.122 185.489C236.322 186.699 235.506 187.879 234.696 188.995C234.631 189.085 234.546 189.158 234.447 189.208C234.348 189.259 234.239 189.285 234.128 189.285V189.284ZM148.585 189.275C148.478 189.275 148.372 189.25 148.275 189.202C146.942 188.542 145.697 187.941 144.469 187.365C144.304 187.285 144.176 187.143 144.115 186.969C144.053 186.796 144.063 186.605 144.141 186.438C144.219 186.271 144.36 186.142 144.533 186.079C144.706 186.015 144.897 186.022 145.064 186.098C146.3 186.678 147.554 187.283 148.896 187.948C149.038 188.018 149.152 188.134 149.219 188.277C149.286 188.42 149.303 188.581 149.267 188.735C149.231 188.889 149.144 189.026 149.02 189.124C148.897 189.222 148.743 189.275 148.585 189.275ZM140.903 185.68C140.807 185.68 140.712 185.66 140.623 185.622C139.297 185.043 137.987 184.496 136.73 183.997C136.644 183.963 136.566 183.913 136.5 183.849C136.434 183.785 136.382 183.708 136.345 183.624C136.309 183.539 136.289 183.449 136.288 183.357C136.287 183.265 136.303 183.174 136.337 183.088C136.371 183.003 136.422 182.925 136.486 182.859C136.55 182.793 136.626 182.74 136.711 182.704C136.795 182.667 136.886 182.648 136.978 182.646C137.07 182.645 137.161 182.662 137.246 182.696C138.518 183.201 139.843 183.754 141.183 184.339C141.331 184.403 141.452 184.516 141.525 184.659C141.599 184.802 141.622 184.966 141.589 185.123C141.556 185.281 141.47 185.422 141.345 185.524C141.22 185.625 141.064 185.68 140.903 185.68ZM133.016 182.558C132.937 182.558 132.858 182.545 132.784 182.519C131.432 182.044 130.086 181.606 128.782 181.217C128.694 181.19 128.612 181.147 128.541 181.089C128.469 181.031 128.41 180.96 128.367 180.879C128.323 180.798 128.296 180.709 128.286 180.618C128.277 180.526 128.285 180.434 128.312 180.346C128.338 180.258 128.381 180.176 128.439 180.104C128.497 180.033 128.569 179.974 128.65 179.93C128.731 179.886 128.819 179.859 128.911 179.85C129.002 179.84 129.095 179.849 129.183 179.875C130.508 180.271 131.875 180.716 133.247 181.198C133.403 181.253 133.535 181.361 133.619 181.503C133.703 181.646 133.734 181.813 133.706 181.976C133.678 182.139 133.593 182.287 133.467 182.393C133.341 182.5 133.181 182.558 133.016 182.558ZM238.806 182.228C238.682 182.228 238.56 182.195 238.453 182.132C238.346 182.069 238.257 181.979 238.196 181.871C238.136 181.763 238.105 181.64 238.107 181.516C238.109 181.392 238.144 181.27 238.209 181.164C238.919 179.999 239.637 178.776 240.341 177.532C240.385 177.45 240.445 177.378 240.518 177.319C240.59 177.261 240.674 177.217 240.763 177.192C240.853 177.166 240.947 177.158 241.039 177.169C241.132 177.18 241.221 177.209 241.302 177.255C241.383 177.301 241.454 177.363 241.511 177.436C241.568 177.51 241.61 177.594 241.634 177.684C241.658 177.774 241.663 177.868 241.65 177.961C241.638 178.053 241.607 178.142 241.559 178.222C240.847 179.479 240.122 180.714 239.404 181.893C239.342 181.996 239.254 182.08 239.149 182.139C239.044 182.198 238.926 182.229 238.806 182.229V182.228ZM95.6093 180.636C95.4415 180.636 95.2793 180.576 95.1522 180.466C95.0251 180.356 94.9416 180.205 94.9168 180.039C94.8921 179.873 94.9278 179.704 95.0174 179.562C95.1071 179.42 95.2447 179.315 95.4052 179.266C96.7755 178.848 98.1726 178.482 99.5572 178.179C99.7386 178.14 99.9282 178.174 100.085 178.274C100.241 178.374 100.351 178.533 100.39 178.714C100.43 178.895 100.396 179.085 100.296 179.241C100.196 179.398 100.037 179.508 99.8559 179.547C98.5083 179.841 97.1483 180.198 95.814 180.605C95.7477 180.625 95.6787 180.636 95.6093 180.636ZM124.89 180.143C124.835 180.143 124.78 180.136 124.726 180.123C123.346 179.792 121.966 179.505 120.622 179.269C120.442 179.235 120.282 179.131 120.177 178.98C120.073 178.828 120.032 178.642 120.064 178.461C120.095 178.28 120.197 178.118 120.347 178.012C120.496 177.905 120.682 177.861 120.864 177.89C122.236 178.131 123.645 178.424 125.053 178.762C125.22 178.801 125.366 178.901 125.465 179.042C125.563 179.182 125.606 179.354 125.586 179.525C125.566 179.695 125.484 179.852 125.356 179.966C125.227 180.08 125.062 180.143 124.89 180.143V180.143ZM103.877 178.831C103.7 178.831 103.529 178.764 103.399 178.642C103.269 178.521 103.191 178.354 103.179 178.177C103.167 178 103.224 177.825 103.336 177.687C103.449 177.55 103.61 177.461 103.786 177.437C105.194 177.25 106.633 177.119 108.061 177.047C108.153 177.043 108.245 177.056 108.332 177.087C108.418 177.118 108.498 177.166 108.566 177.227C108.634 177.289 108.69 177.364 108.729 177.447C108.768 177.53 108.791 177.62 108.796 177.712C108.8 177.803 108.787 177.895 108.756 177.982C108.725 178.068 108.677 178.148 108.616 178.216C108.554 178.284 108.479 178.34 108.396 178.379C108.313 178.419 108.223 178.441 108.131 178.446C106.741 178.516 105.341 178.643 103.971 178.825C103.94 178.829 103.909 178.831 103.877 178.831ZM116.555 178.691C116.53 178.691 116.505 178.69 116.481 178.688C115.085 178.541 113.681 178.446 112.311 178.405C112.125 178.399 111.949 178.32 111.822 178.185C111.694 178.05 111.626 177.87 111.632 177.684C111.637 177.498 111.716 177.323 111.851 177.195C111.987 177.068 112.167 176.999 112.353 177.005C113.758 177.047 115.196 177.145 116.627 177.295C116.805 177.314 116.969 177.4 117.086 177.536C117.202 177.673 117.262 177.848 117.252 178.027C117.243 178.206 117.166 178.374 117.036 178.498C116.906 178.621 116.734 178.69 116.555 178.691L116.555 178.691ZM242.982 174.863C242.862 174.863 242.743 174.831 242.638 174.772C242.533 174.712 242.445 174.627 242.383 174.523C242.321 174.42 242.286 174.302 242.283 174.182C242.28 174.061 242.308 173.942 242.364 173.835C243.007 172.622 243.655 171.36 244.291 170.083C244.332 170.001 244.389 169.927 244.458 169.867C244.527 169.807 244.608 169.76 244.695 169.731C244.782 169.702 244.874 169.69 244.966 169.697C245.058 169.703 245.147 169.727 245.229 169.768C245.312 169.809 245.385 169.866 245.445 169.936C245.506 170.005 245.552 170.085 245.581 170.173C245.61 170.26 245.622 170.352 245.616 170.444C245.609 170.535 245.585 170.625 245.544 170.707C244.903 171.994 244.249 173.267 243.602 174.49C243.542 174.603 243.453 174.697 243.344 174.762C243.235 174.828 243.11 174.863 242.982 174.862V174.863ZM246.762 167.283C246.645 167.283 246.529 167.253 246.425 167.197C246.322 167.14 246.235 167.058 246.172 166.958C246.108 166.858 246.071 166.744 246.064 166.627C246.057 166.509 246.079 166.391 246.13 166.285C246.716 165.04 247.309 163.749 247.89 162.448C247.928 162.364 247.982 162.288 248.048 162.225C248.115 162.162 248.194 162.113 248.28 162.08C248.366 162.047 248.457 162.031 248.549 162.034C248.641 162.037 248.731 162.057 248.815 162.095C248.899 162.132 248.975 162.186 249.038 162.253C249.101 162.32 249.151 162.398 249.183 162.484C249.216 162.57 249.232 162.662 249.229 162.753C249.227 162.845 249.206 162.936 249.168 163.02C248.583 164.329 247.986 165.628 247.396 166.882C247.34 167.001 247.25 167.103 247.138 167.174C247.026 167.245 246.896 167.283 246.763 167.283L246.762 167.283ZM250.224 159.552C250.108 159.552 249.994 159.524 249.892 159.469C249.79 159.414 249.704 159.335 249.64 159.238C249.576 159.142 249.537 159.031 249.527 158.915C249.516 158.8 249.535 158.684 249.58 158.578C250.12 157.31 250.667 155.998 251.205 154.678C251.239 154.592 251.29 154.513 251.354 154.446C251.419 154.38 251.496 154.327 251.581 154.29C251.666 154.253 251.758 154.234 251.851 154.233C251.944 154.232 252.036 154.25 252.121 154.285C252.207 154.32 252.285 154.372 252.351 154.437C252.417 154.503 252.469 154.581 252.504 154.666C252.54 154.752 252.558 154.844 252.557 154.937C252.557 155.03 252.538 155.121 252.502 155.207C251.961 156.534 251.411 157.853 250.868 159.127C250.814 159.253 250.724 159.36 250.61 159.436C250.496 159.512 250.361 159.552 250.224 159.552L250.224 159.552ZM253.424 151.709C253.31 151.709 253.198 151.681 253.097 151.628C252.996 151.574 252.91 151.497 252.846 151.403C252.782 151.309 252.741 151.201 252.728 151.088C252.716 150.974 252.731 150.86 252.772 150.754C253.275 149.468 253.784 148.14 254.284 146.807C254.349 146.633 254.481 146.492 254.65 146.416C254.819 146.339 255.012 146.333 255.186 146.398C255.359 146.463 255.5 146.595 255.577 146.764C255.654 146.933 255.66 147.126 255.595 147.299C255.091 148.639 254.58 149.972 254.075 151.263C254.024 151.394 253.935 151.507 253.819 151.586C253.702 151.666 253.565 151.708 253.424 151.709L253.424 151.709ZM256.406 143.779C256.293 143.779 256.183 143.752 256.083 143.7C255.983 143.648 255.898 143.573 255.833 143.481C255.768 143.389 255.727 143.283 255.712 143.172C255.697 143.06 255.71 142.947 255.748 142.841C256.219 141.541 256.696 140.2 257.165 138.857C257.195 138.769 257.241 138.688 257.302 138.619C257.363 138.549 257.438 138.492 257.521 138.451C257.604 138.411 257.695 138.387 257.787 138.381C257.88 138.376 257.972 138.389 258.06 138.419C258.147 138.45 258.228 138.498 258.297 138.559C258.366 138.621 258.421 138.696 258.461 138.78C258.501 138.864 258.524 138.955 258.528 139.047C258.532 139.14 258.518 139.232 258.487 139.319C258.015 140.667 257.537 142.012 257.064 143.318C257.015 143.453 256.926 143.57 256.808 143.652C256.69 143.735 256.55 143.779 256.406 143.779L256.406 143.779ZM259.198 135.779C259.087 135.779 258.978 135.753 258.879 135.702C258.78 135.652 258.695 135.578 258.63 135.488C258.565 135.398 258.522 135.294 258.506 135.184C258.489 135.075 258.499 134.962 258.534 134.857C258.986 133.507 259.427 132.155 259.846 130.839C259.903 130.662 260.027 130.515 260.192 130.43C260.357 130.345 260.549 130.328 260.726 130.385C260.903 130.441 261.05 130.565 261.135 130.73C261.22 130.895 261.237 131.087 261.18 131.264C260.759 132.587 260.315 133.945 259.862 135.301C259.815 135.44 259.726 135.561 259.607 135.647C259.488 135.733 259.345 135.779 259.198 135.779L259.198 135.779ZM261.768 127.705C261.659 127.705 261.551 127.679 261.453 127.63C261.356 127.581 261.271 127.51 261.206 127.422C261.141 127.335 261.097 127.233 261.078 127.125C261.059 127.018 261.066 126.907 261.097 126.803C261.507 125.445 261.905 124.08 262.282 122.747C262.333 122.568 262.452 122.417 262.614 122.327C262.776 122.236 262.967 122.213 263.146 122.264C263.325 122.314 263.476 122.434 263.567 122.596C263.657 122.758 263.68 122.949 263.629 123.128C263.25 124.469 262.849 125.841 262.438 127.206C262.395 127.35 262.306 127.477 262.186 127.566C262.065 127.656 261.919 127.705 261.768 127.705L261.768 127.705ZM264.071 119.55C263.964 119.55 263.858 119.526 263.762 119.478C263.666 119.431 263.582 119.362 263.517 119.278C263.451 119.193 263.406 119.094 263.385 118.989C263.363 118.884 263.367 118.776 263.394 118.672C263.755 117.297 264.102 115.919 264.426 114.577C264.471 114.398 264.585 114.244 264.742 114.149C264.9 114.053 265.09 114.024 265.269 114.067C265.448 114.11 265.604 114.223 265.701 114.38C265.798 114.537 265.829 114.726 265.787 114.906C265.461 116.257 265.112 117.644 264.748 119.028C264.709 119.177 264.621 119.309 264.499 119.404C264.376 119.498 264.226 119.55 264.072 119.55L264.071 119.55ZM266.055 111.312C265.951 111.312 265.847 111.289 265.753 111.244C265.659 111.199 265.575 111.133 265.51 111.051C265.444 110.97 265.397 110.875 265.373 110.773C265.349 110.671 265.348 110.565 265.371 110.463C265.673 109.073 265.959 107.682 266.219 106.33C266.235 106.239 266.27 106.152 266.32 106.074C266.37 105.997 266.436 105.93 266.512 105.878C266.588 105.826 266.674 105.789 266.765 105.771C266.855 105.752 266.948 105.751 267.039 105.769C267.13 105.786 267.216 105.821 267.293 105.872C267.37 105.923 267.437 105.989 267.488 106.066C267.54 106.142 267.575 106.229 267.594 106.319C267.612 106.41 267.611 106.503 267.593 106.594C267.331 107.958 267.044 109.36 266.739 110.761C266.705 110.917 266.619 111.057 266.495 111.157C266.37 111.257 266.215 111.312 266.055 111.312ZM267.65 102.991C267.549 102.991 267.449 102.968 267.356 102.926C267.264 102.883 267.182 102.821 267.117 102.744C267.051 102.666 267.003 102.576 266.975 102.478C266.948 102.38 266.943 102.277 266.959 102.177C267.19 100.769 267.399 99.3665 267.579 98.0075C267.591 97.9156 267.62 97.8268 267.666 97.7463C267.711 97.6658 267.773 97.5952 267.846 97.5385C267.919 97.4819 268.003 97.4403 268.092 97.4162C268.182 97.3921 268.275 97.386 268.367 97.3982C268.458 97.4104 268.547 97.4407 268.627 97.4873C268.707 97.534 268.777 97.596 268.833 97.6698C268.888 97.7437 268.929 97.8279 268.952 97.9175C268.975 98.0072 268.98 98.1005 268.967 98.1922C268.785 99.565 268.574 100.982 268.34 102.404C268.314 102.567 268.23 102.716 268.103 102.823C267.977 102.931 267.817 102.99 267.651 102.991H267.65ZM268.763 94.5916C268.74 94.5916 268.717 94.5904 268.693 94.5881C268.601 94.5791 268.512 94.5522 268.431 94.5088C268.35 94.4655 268.279 94.4066 268.22 94.3355C268.162 94.2644 268.118 94.1826 268.092 94.0946C268.065 94.0066 268.056 93.9142 268.065 93.8228C268.205 92.4051 268.317 90.9932 268.399 89.6264C268.41 89.4411 268.495 89.2678 268.634 89.1446C268.773 89.0215 268.955 88.9585 269.14 88.9697C269.325 88.9808 269.499 89.0651 269.622 89.204C269.745 89.3429 269.808 89.5251 269.797 89.7104C269.714 91.095 269.6 92.5244 269.458 93.9604C269.441 94.133 269.361 94.2931 269.232 94.4097C269.104 94.5264 268.937 94.5912 268.763 94.5916H268.763ZM269.263 86.1356H269.251C269.159 86.1342 269.069 86.1146 268.984 86.078C268.9 86.0414 268.824 85.9886 268.76 85.9226C268.696 85.8565 268.645 85.7785 268.612 85.693C268.578 85.6075 268.561 85.5162 268.563 85.4243C268.571 84.9308 268.575 84.4381 268.575 83.9598C268.575 83.0409 268.56 82.1202 268.53 81.2226C268.526 81.1302 268.541 81.0378 268.573 80.9509C268.605 80.8641 268.653 80.7844 268.716 80.7165C268.779 80.6486 268.855 80.5938 268.939 80.5554C269.023 80.517 269.114 80.4956 269.207 80.4925C269.299 80.4895 269.391 80.5048 269.478 80.5376C269.564 80.5704 269.644 80.62 269.711 80.6836C269.778 80.7472 269.832 80.8235 269.87 80.9081C269.907 80.9927 269.928 81.0839 269.93 81.1764C269.96 82.0892 269.975 83.0257 269.975 83.9598C269.975 84.4456 269.971 84.9461 269.963 85.447C269.959 85.6304 269.884 85.8052 269.754 85.9339C269.623 86.0626 269.447 86.1349 269.264 86.1351L269.263 86.1356ZM268.972 77.6752C268.797 77.675 268.629 77.6095 268.5 77.4916C268.371 77.3736 268.291 77.2118 268.276 77.0379C268.148 75.6205 267.977 74.2225 267.767 72.8828C267.752 72.7914 267.755 72.6978 267.776 72.6075C267.796 72.5172 267.835 72.4319 267.889 72.3566C267.943 72.2813 268.012 72.2176 268.091 72.169C268.17 72.1204 268.258 72.088 268.349 72.0737C268.441 72.0594 268.535 72.0634 268.625 72.0855C268.715 72.1077 268.799 72.1475 268.874 72.2026C268.948 72.2578 269.011 72.3272 269.059 72.4068C269.106 72.4865 269.137 72.5747 269.151 72.6665C269.365 74.0361 269.54 75.4647 269.67 76.9122C269.678 77.0037 269.668 77.096 269.641 77.1838C269.614 77.2715 269.569 77.353 269.51 77.4236C269.451 77.4942 269.379 77.5524 269.298 77.5951C269.216 77.6378 269.127 77.664 269.036 77.6722C269.015 77.6736 268.994 77.6746 268.973 77.6746L268.972 77.6752ZM267.652 69.3216C267.494 69.3215 267.341 69.2681 267.217 69.17C267.094 69.0719 267.007 68.9349 266.971 68.7812C266.648 67.4031 266.271 66.0512 265.848 64.7656C265.818 64.6777 265.804 64.5845 265.81 64.4915C265.816 64.3984 265.84 64.3074 265.881 64.2238C265.922 64.1402 265.979 64.0657 266.05 64.0046C266.12 63.9435 266.202 63.8971 266.291 63.868C266.379 63.839 266.473 63.8279 266.566 63.8355C266.658 63.8431 266.749 63.8691 266.832 63.9121C266.914 63.9551 266.988 64.0141 267.047 64.0858C267.107 64.1575 267.151 64.2404 267.178 64.3295C267.612 65.6542 268.001 67.0444 268.333 68.4618C268.358 68.5645 268.358 68.6714 268.335 68.7745C268.312 68.8775 268.266 68.974 268.2 69.0567C268.135 69.1394 268.051 69.2062 267.956 69.2521C267.861 69.2979 267.757 69.3217 267.651 69.3216H267.652ZM265.006 61.2967C264.87 61.2968 264.737 61.2573 264.623 61.183C264.509 61.1088 264.419 61.003 264.365 60.8787C263.807 59.6106 263.181 58.3739 262.489 57.174C262.401 57.0135 262.379 56.8247 262.428 56.6482C262.477 56.4716 262.594 56.3214 262.752 56.2298C262.911 56.1381 263.099 56.1124 263.277 56.158C263.454 56.2037 263.607 56.3171 263.702 56.474C264.419 57.7181 265.068 59.0003 265.646 60.315C265.693 60.4216 265.713 60.5381 265.703 60.6542C265.694 60.7702 265.655 60.8821 265.592 60.9796C265.528 61.0771 265.441 61.1573 265.339 61.2128C265.237 61.2683 265.122 61.2974 265.006 61.2974V61.2967ZM260.769 53.9935C260.66 53.9936 260.552 53.9684 260.455 53.9198C260.358 53.8711 260.273 53.8005 260.208 53.7135C259.379 52.6074 258.483 51.5537 257.525 50.5583C257.396 50.4246 257.325 50.2452 257.329 50.0596C257.332 49.874 257.409 49.6973 257.543 49.5685C257.677 49.4396 257.856 49.3692 258.042 49.3726C258.227 49.376 258.404 49.453 258.533 49.5867C259.531 50.6238 260.465 51.7218 261.328 52.8742C261.406 52.9782 261.454 53.1018 261.465 53.2313C261.477 53.3608 261.453 53.4909 261.394 53.6072C261.336 53.7235 261.247 53.8213 261.136 53.8896C261.026 53.958 260.898 53.9942 260.768 53.9942L260.769 53.9935ZM254.909 47.9158C254.749 47.9159 254.594 47.861 254.469 47.7602C253.392 46.8914 252.264 46.0874 251.092 45.3522C250.935 45.2536 250.823 45.0964 250.782 44.9155C250.74 44.7345 250.773 44.5445 250.871 44.3872C250.97 44.23 251.127 44.1184 251.308 44.077C251.489 44.0356 251.679 44.0677 251.836 44.1664C253.056 44.9311 254.229 45.7674 255.349 46.671C255.462 46.762 255.543 46.8857 255.583 47.025C255.622 47.1644 255.617 47.3125 255.569 47.449C255.521 47.5855 255.431 47.7036 255.313 47.7872C255.195 47.8707 255.054 47.9156 254.909 47.9155V47.9158ZM177.351 46.5067C177.185 46.5068 177.024 46.4477 176.898 46.3401C176.771 46.2325 176.687 46.0833 176.66 45.9193C176.633 45.7553 176.666 45.5871 176.752 45.4448C176.838 45.3025 176.971 45.1955 177.129 45.1428C178.45 44.7 179.813 44.2618 181.182 43.8408C181.27 43.8122 181.363 43.8014 181.456 43.8091C181.548 43.8168 181.638 43.8428 181.721 43.8856C181.803 43.9284 181.876 43.9871 181.935 44.0584C181.995 44.1296 182.04 44.212 182.067 44.3007C182.094 44.3893 182.104 44.4826 182.095 44.5749C182.086 44.6673 182.058 44.7569 182.014 44.8386C181.97 44.9203 181.91 44.9924 181.838 45.0508C181.766 45.1092 181.683 45.1526 181.594 45.1786C180.236 45.597 178.884 46.0317 177.574 46.4707C177.502 46.4947 177.427 46.5068 177.351 46.5067ZM185.454 44.0091C185.285 44.0091 185.121 43.948 184.994 43.8369C184.866 43.7258 184.783 43.5724 184.76 43.4049C184.737 43.2374 184.775 43.0672 184.868 42.9257C184.96 42.7842 185.101 42.6811 185.264 42.6353C186.628 42.2501 188.01 41.8773 189.373 41.5272C189.552 41.4831 189.741 41.5115 189.9 41.6062C190.058 41.7008 190.172 41.8541 190.218 42.0327C190.264 42.2113 190.238 42.4008 190.145 42.56C190.052 42.7193 189.9 42.8353 189.722 42.8831C188.369 43.2304 186.998 43.6004 185.645 43.9826C185.583 44.0002 185.518 44.009 185.454 44.0091H185.454ZM247.759 43.4132C247.654 43.4132 247.55 43.3892 247.455 43.3432C246.234 42.7529 244.943 42.2073 243.619 41.7213C243.446 41.6565 243.305 41.5259 243.228 41.3579C243.151 41.1899 243.144 40.9982 243.207 40.8247C243.271 40.6511 243.401 40.5098 243.568 40.4316C243.736 40.3533 243.927 40.3445 244.101 40.407C245.469 40.9086 246.802 41.4726 248.064 42.0828C248.207 42.1519 248.322 42.2673 248.39 42.4102C248.459 42.5531 248.477 42.715 248.441 42.8694C248.406 43.0239 248.319 43.1617 248.195 43.2604C248.071 43.3591 247.917 43.4129 247.759 43.4128L247.759 43.4132ZM193.665 41.9012C193.493 41.9012 193.327 41.8379 193.199 41.7234C193.07 41.6088 192.989 41.451 192.969 41.2801C192.95 41.1092 192.994 40.9372 193.094 40.7968C193.193 40.6564 193.341 40.5575 193.508 40.519C194.897 40.1984 196.297 39.8943 197.668 39.6153C197.85 39.5783 198.039 39.6151 198.194 39.7175C198.349 39.82 198.457 39.9798 198.494 40.1617C198.531 40.3437 198.494 40.5329 198.392 40.6877C198.289 40.8425 198.129 40.9503 197.947 40.9873C196.588 41.2641 195.2 41.5657 193.823 41.8833C193.771 41.8951 193.718 41.9009 193.665 41.9007L193.665 41.9012ZM239.823 40.4851C239.761 40.4851 239.699 40.4768 239.64 40.4606C238.33 40.1062 236.958 39.7917 235.563 39.5261C235.471 39.51 235.384 39.4758 235.306 39.4257C235.228 39.3756 235.161 39.3105 235.109 39.2342C235.056 39.1579 235.019 39.072 235 38.9813C234.981 38.8906 234.98 38.7971 234.997 38.7061C235.014 38.615 235.05 38.5284 235.101 38.451C235.152 38.3737 235.218 38.3073 235.295 38.2557C235.372 38.204 235.458 38.1682 235.549 38.1502C235.64 38.1322 235.733 38.1325 235.824 38.1509C237.255 38.4231 238.661 38.7455 240.006 39.1092C240.17 39.1534 240.312 39.2556 240.406 39.3968C240.5 39.538 240.54 39.7086 240.518 39.8769C240.495 40.0452 240.413 40.1997 240.285 40.3116C240.157 40.4234 239.993 40.4851 239.824 40.4851H239.823ZM201.971 40.213C201.796 40.2129 201.627 40.1471 201.498 40.0287C201.369 39.9102 201.289 39.7476 201.274 39.5731C201.259 39.3985 201.31 39.2246 201.417 39.0858C201.524 38.947 201.679 38.8534 201.852 38.8233C203.262 38.5768 204.678 38.3511 206.058 38.1525C206.242 38.126 206.429 38.1737 206.577 38.2849C206.726 38.3962 206.824 38.562 206.851 38.7458C206.877 38.9296 206.829 39.1163 206.718 39.265C206.607 39.4137 206.441 39.512 206.257 39.5385C204.891 39.7352 203.49 39.9585 202.092 40.2028C202.053 40.2094 202.012 40.2126 201.972 40.2124L201.971 40.213ZM210.358 39.0102C210.179 39.0101 210.007 38.9414 209.877 38.8183C209.747 38.6952 209.669 38.527 209.66 38.3483C209.65 38.1696 209.709 37.994 209.825 37.8575C209.941 37.721 210.104 37.634 210.282 37.6144C211.713 37.4562 213.141 37.3242 214.526 37.2224C214.711 37.2088 214.894 37.2692 215.035 37.3904C215.175 37.5117 215.262 37.6838 215.276 37.869C215.289 38.0541 215.229 38.2371 215.108 38.3777C214.986 38.5183 214.814 38.605 214.629 38.6187C213.261 38.7197 211.85 38.8501 210.436 39.0063C210.41 39.0089 210.384 39.01 210.359 39.0097L210.358 39.0102ZM231.507 38.8889C231.479 38.8888 231.45 38.8871 231.422 38.8837C230.07 38.7186 228.664 38.5897 227.241 38.4995C227.149 38.4941 227.059 38.4705 226.977 38.4302C226.894 38.3898 226.82 38.3335 226.759 38.2645C226.697 38.1955 226.651 38.1151 226.621 38.0279C226.591 37.9408 226.578 37.8485 226.584 37.7566C226.59 37.6646 226.614 37.5747 226.655 37.492C226.695 37.4093 226.752 37.3354 226.821 37.2747C226.89 37.2139 226.971 37.1674 227.058 37.1378C227.146 37.1082 227.238 37.0962 227.33 37.1023C228.778 37.1939 230.212 37.3263 231.591 37.4943C231.768 37.5157 231.931 37.6039 232.045 37.7409C232.159 37.8778 232.217 38.0533 232.206 38.2314C232.195 38.4094 232.117 38.5767 231.987 38.699C231.857 38.8212 231.686 38.8893 231.507 38.8893V38.8889ZM218.809 38.3916C218.624 38.3946 218.444 38.3238 218.311 38.1947C218.177 38.0655 218.101 37.8887 218.098 37.7031C218.095 37.5174 218.165 37.3381 218.295 37.2047C218.424 37.0713 218.601 36.9946 218.786 36.9916C219.86 36.9557 220.934 36.9374 221.976 36.9374C222.343 36.9345 222.697 36.9395 223.057 36.9438C223.243 36.9449 223.421 37.0197 223.551 37.1518C223.682 37.2838 223.754 37.4623 223.753 37.648C223.752 37.8336 223.677 38.0112 223.545 38.1417C223.413 38.2722 223.235 38.3449 223.049 38.3438H223.041C222.688 38.3396 222.335 38.3375 221.982 38.3375H221.976C220.949 38.3375 219.892 38.3555 218.833 38.3909C218.826 38.3909 218.818 38.391 218.81 38.391L218.809 38.3916Z" fill="#6DDEA2"/>
<path d="M89.5523 182.886C89.3915 182.886 89.2355 182.831 89.1106 182.729C88.9857 182.628 88.8995 182.487 88.8665 182.33C88.8335 182.172 88.8556 182.008 88.9292 181.865C89.0029 181.722 89.1234 181.609 89.2707 181.545C89.9198 181.26 90.58 180.985 91.2334 180.727C91.3189 180.693 91.4102 180.676 91.5021 180.678C91.594 180.679 91.6848 180.699 91.7691 180.735C91.8535 180.772 91.9298 180.825 91.9937 180.891C92.0576 180.957 92.1079 181.035 92.1417 181.12C92.1755 181.206 92.1921 181.297 92.1906 181.389C92.1892 181.481 92.1696 181.572 92.133 181.656C92.0965 181.74 92.0436 181.817 91.9776 181.881C91.9115 181.945 91.8335 181.995 91.7481 182.029C91.1108 182.281 90.4663 182.549 89.833 182.827C89.7445 182.866 89.6489 182.886 89.5523 182.886Z" fill="#6DDEA2"/>
<path d="M81.4425 183.594C82.5082 183.325 82.9818 181.56 82.5001 179.652C82.0185 177.743 80.7641 176.414 79.6983 176.683C78.6325 176.952 78.159 178.717 78.6407 180.626C79.1223 182.534 80.3767 183.863 81.4425 183.594Z" fill="#B9EDD2"/>
<path d="M85.4831 193.747C86.5101 193.355 86.7743 191.547 86.073 189.708C85.3718 187.869 83.9707 186.695 82.9436 187.087C81.9166 187.478 81.6525 189.287 82.3537 191.126C83.055 192.965 84.456 194.139 85.4831 193.747Z" fill="#B9EDD2"/>
<path d="M81.9152 186.945C82.7281 186.945 83.387 186.286 83.387 185.473C83.387 184.66 82.7281 184.001 81.9152 184.001C81.1023 184.001 80.4434 184.66 80.4434 185.473C80.4434 186.286 81.1023 186.945 81.9152 186.945Z" fill="#53E698"/>
<path d="M260.525 36.125C261.066 36.125 261.505 35.6863 261.505 35.145C261.505 34.6038 261.066 34.165 260.525 34.165C259.984 34.165 259.545 34.6038 259.545 35.145C259.545 35.6863 259.984 36.125 260.525 36.125Z" fill="#6DDEA2"/>
<path d="M196.875 119.705C197.416 119.705 197.855 119.266 197.855 118.725C197.855 118.184 197.416 117.745 196.875 117.745C196.333 117.745 195.895 118.184 195.895 118.725C195.895 119.266 196.333 119.705 196.875 119.705Z" fill="#6DDEA2"/>
<path d="M211.294 35.5547C211.836 35.5547 212.274 35.116 212.274 34.5747C212.274 34.0335 211.836 33.5947 211.294 33.5947C210.753 33.5947 210.314 34.0335 210.314 34.5747C210.314 35.116 210.753 35.5547 211.294 35.5547Z" fill="#6DDEA2"/>
<path d="M289.125 72.2842C289.666 72.2842 290.105 71.8455 290.105 71.3042C290.105 70.763 289.666 70.3242 289.125 70.3242C288.583 70.3242 288.145 70.763 288.145 71.3042C288.145 71.8455 288.583 72.2842 289.125 72.2842Z" fill="#6DDEA2"/>
<path d="M234.755 126.694V131.004" stroke="#6DDEA2" stroke-linecap="round" stroke-linejoin="round"/>
<path d="M232.595 128.854H236.905" stroke="#6DDEA2" stroke-linecap="round" stroke-linejoin="round"/>
<path d="M278.354 53.5244V57.8344" stroke="#6DDEA2" stroke-linecap="round" stroke-linejoin="round"/>
<path d="M276.194 55.6846H280.504" stroke="#6DDEA2" stroke-linecap="round" stroke-linejoin="round"/>
<path d="M228.935 47.4551V51.7651" stroke="#6DDEA2" stroke-linecap="round" stroke-linejoin="round"/>
<path d="M226.784 49.6055H231.084" stroke="#6DDEA2" stroke-linecap="round" stroke-linejoin="round"/>
<path d="M65.5249 87.125C66.0662 87.125 66.5049 86.6863 66.5049 86.145C66.5049 85.6038 66.0662 85.165 65.5249 85.165C64.9837 85.165 64.5449 85.6038 64.5449 86.145C64.5449 86.6863 64.9837 87.125 65.5249 87.125Z" fill="#6DDEA2"/>
<path d="M1.87453 170.705C2.41577 170.705 2.85453 170.266 2.85453 169.725C2.85453 169.184 2.41577 168.745 1.87453 168.745C1.33329 168.745 0.894531 169.184 0.894531 169.725C0.894531 170.266 1.33329 170.705 1.87453 170.705Z" fill="#6DDEA2"/>
<path d="M16.2945 86.5547C16.8357 86.5547 17.2745 86.116 17.2745 85.5747C17.2745 85.0335 16.8357 84.5947 16.2945 84.5947C15.7532 84.5947 15.3145 85.0335 15.3145 85.5747C15.3145 86.116 15.7532 86.5547 16.2945 86.5547Z" fill="#6DDEA2"/>
<path d="M94.1245 123.284C94.6658 123.284 95.1045 122.845 95.1045 122.304C95.1045 121.763 94.6658 121.324 94.1245 121.324C93.5833 121.324 93.1445 121.763 93.1445 122.304C93.1445 122.845 93.5833 123.284 94.1245 123.284Z" fill="#6DDEA2"/>
<path d="M39.7549 177.694V182.004" stroke="#6DDEA2" stroke-linecap="round" stroke-linejoin="round"/>
<path d="M37.5947 179.854H41.9047" stroke="#6DDEA2" stroke-linecap="round" stroke-linejoin="round"/>
<path d="M83.3545 104.524V108.834" stroke="#6DDEA2" stroke-linecap="round" stroke-linejoin="round"/>
<path d="M81.1943 106.685H85.5043" stroke="#6DDEA2" stroke-linecap="round" stroke-linejoin="round"/>
<path d="M33.9346 98.4551V102.765" stroke="#6DDEA2" stroke-linecap="round" stroke-linejoin="round"/>
<path d="M31.7842 100.605H36.0842" stroke="#6DDEA2" stroke-linecap="round" stroke-linejoin="round"/>
</svg>
