<svg width="316" height="234" viewBox="0 0 316 234" fill="none" xmlns="http://www.w3.org/2000/svg">
<path d="M119.811 20.2643C119.811 20.2643 150.57 53.758 216.794 15.4886C275.606 -18.498 300.804 58.3517 293.884 91.4159C284.918 134.248 227.808 158.688 245.773 191.515C263.738 224.343 181.746 256.573 151.769 208.811C114.478 149.397 92.5724 187.395 65.1066 181.988C45.3945 178.108 15.0743 123.619 49.956 94.3868C79.3085 69.7889 68.8751 57.6538 65.0038 46.3607C59.4202 30.0736 88.852 -5.35733 119.811 20.2643Z" fill="#D7F3E4"/>
<path d="M285.26 96.5326C279.541 75.1894 262.552 57.4296 241.863 51.7433C221.175 46.057 197.568 52.887 182.944 69.1895C175.8 77.1494 170.653 87.1753 162.122 93.498C151.736 101.195 138.099 102.113 125.385 101.306C112.67 100.499 99.8217 98.2481 87.287 100.674C67.1982 104.562 49.9319 121.316 44.8589 141.815C39.786 162.314 47.2478 185.452 63.1261 198.632L80.683 213.159C96.7826 224.85 157.773 229.729 195.751 226.837C222.632 224.79 240.996 214.473 257.184 198.369C269.709 185.917 277.129 168.914 282.087 151.707C287.28 133.791 290.07 114.491 285.26 96.5326Z" fill="#F5F5F5"/>
<path d="M295.994 231.347C295.994 231.412 232.633 231.467 154.497 231.467C76.3598 231.467 12.999 231.426 12.999 231.347C12.999 231.269 76.3459 231.228 154.515 231.228C232.684 231.228 295.994 231.283 295.994 231.347Z" fill="#263238"/>
<path d="M209.46 70.8573L205.072 74.6104L210.93 81.459L215.318 77.7059L209.46 70.8573Z" fill="#263238"/>
<path d="M213.252 70.3241L204.223 78.0811L197.891 70.7023C200.381 67.2066 203.351 64.5686 206.907 62.9453L213.252 70.3241Z" fill="#455A64"/>
<path d="M205.744 76.7815C205.693 76.8276 204.167 75.149 202.331 73.0414C200.496 70.9338 199.048 69.1906 199.103 69.1445C199.158 69.0984 200.68 70.777 202.516 72.8846C204.351 74.9922 205.795 76.74 205.744 76.7815Z" fill="#263238"/>
<path d="M207.448 75.3044C207.084 74.9494 206.744 74.5687 206.434 74.1653C205.825 73.4505 205 72.459 204.091 71.3521L201.785 68.5113L201.093 67.6489C200.927 67.4368 200.84 67.3399 200.84 67.3261C200.932 67.2431 202.468 68.9909 204.285 71.1999C205.207 72.3068 206 73.3167 206.591 74.0592C206.913 74.4482 207.2 74.8649 207.448 75.3044Z" fill="#263238"/>
<path d="M209.756 73.3355C209.386 72.9817 209.042 72.6009 208.728 72.1964C208.114 71.4724 207.284 70.4624 206.371 69.3418L204.065 66.4548L203.374 65.574C203.284 65.469 203.204 65.3563 203.134 65.2373C203.53 65.5647 203.886 65.9377 204.194 66.3487C204.817 67.0636 205.656 68.0689 206.565 69.1896C207.473 70.3102 208.29 71.3386 208.871 72.0904C209.2 72.4798 209.497 72.8963 209.756 73.3355Z" fill="#263238"/>
<path d="M211.835 71.4912C211.784 71.5327 210.267 69.8402 208.445 67.7096C206.623 65.579 205.194 63.8127 205.244 63.7665C205.295 63.7204 206.808 65.4176 208.629 67.5528C210.451 69.688 211.885 71.4497 211.835 71.4912Z" fill="#263238"/>
<path d="M286.732 75.5191L282.743 71.3447L276.228 77.5705L280.217 81.7449L286.732 75.5191Z" fill="#263238"/>
<path d="M286.923 79.6254L278.705 71.0245L285.729 64.3145C289.344 66.6203 292.139 69.4473 293.942 72.9154L286.923 79.6254Z" fill="#455A64"/>
<path d="M280.08 72.4692C280.034 72.4185 281.625 70.8044 283.636 68.8628C285.646 66.9213 287.325 65.3856 287.357 65.4317C287.39 65.4778 285.812 67.0919 283.802 69.0381C281.791 70.9842 280.126 72.5153 280.08 72.4692Z" fill="#263238"/>
<path d="M281.649 74.1059C281.977 73.7186 282.335 73.3578 282.719 73.0267C283.397 72.3811 284.347 71.5002 285.403 70.5318L288.12 68.0737L288.945 67.3358C289.144 67.1606 289.24 67.073 289.254 67.0684C289.342 67.156 287.677 68.7839 285.565 70.7116C284.509 71.6755 283.54 72.5563 282.83 73.1513C282.462 73.5 282.067 73.8192 281.649 74.1059Z" fill="#263238"/>
<path d="M283.733 76.2877C284.065 75.8968 284.428 75.5328 284.817 75.1993C285.504 74.5491 286.468 73.6636 287.543 72.6951L290.31 70.2325L291.154 69.4946C291.257 69.4029 291.364 69.3167 291.477 69.2363C291.172 69.6502 290.819 70.0263 290.425 70.357C289.743 71.0165 288.779 71.9065 287.709 72.875C286.639 73.8435 285.652 74.7197 284.942 75.3284C284.564 75.6787 284.16 75.9994 283.733 76.2877Z" fill="#263238"/>
<path d="M285.683 78.2751C285.636 78.2244 287.251 76.6241 289.284 74.6918C291.318 72.7595 293.006 71.2376 293.052 71.2883C293.098 71.3391 291.484 72.9393 289.45 74.8671C287.417 76.7948 285.729 78.3166 285.683 78.2751Z" fill="#263238"/>
<path d="M249.915 55.5898H243.08V66.2568H249.915V55.5898Z" fill="#263238"/>
<path d="M253.568 58.7809H239.502V47.2838C244.432 46.0663 249.136 45.9925 253.582 47.2838L253.568 58.7809Z" fill="#6DDEA2"/>
<path d="M253.747 47.3317C253.582 47.4348 253.407 47.5213 253.225 47.5899C252.744 47.802 252.249 47.9838 251.745 48.1341C250.989 48.3668 250.219 48.5487 249.439 48.6783C248.492 48.8287 247.535 48.9088 246.575 48.9181C245.617 48.9195 244.659 48.8486 243.711 48.706C242.932 48.5851 242.161 48.411 241.406 48.1849C240.901 48.0371 240.405 47.86 239.921 47.6545C239.737 47.591 239.562 47.5059 239.399 47.4009C239.399 47.3594 240.174 47.6776 241.452 48.0188C242.201 48.217 242.962 48.371 243.73 48.48C244.668 48.607 245.614 48.6717 246.561 48.6737C247.509 48.6629 248.455 48.589 249.393 48.4523C250.158 48.3418 250.915 48.1878 251.662 47.9912C252.972 47.6176 253.728 47.2902 253.747 47.3317Z" fill="#263238"/>
<path d="M244.15 58.7496C244.086 58.7496 244.03 56.5405 244.03 53.8196C244.03 51.0987 244.086 48.8896 244.15 48.8896C244.215 48.8896 244.27 51.0941 244.27 53.8196C244.27 56.5451 244.219 58.7496 244.15 58.7496Z" fill="#263238"/>
<path d="M246.83 58.8135C246.765 58.8135 246.71 56.5953 246.71 53.8605C246.71 51.1257 246.765 48.9121 246.83 48.9121C246.894 48.9121 246.95 51.1257 246.95 53.8605C246.95 56.5953 246.899 58.8135 246.83 58.8135Z" fill="#263238"/>
<path d="M249.508 58.7722C249.443 58.7722 249.388 56.554 249.388 53.8192C249.388 51.0845 249.443 48.8662 249.508 48.8662C249.572 48.8662 249.628 51.0845 249.628 53.8192C249.628 56.554 249.577 58.7722 249.508 58.7722Z" fill="#263238"/>
<path d="M251.724 58.7719C251.655 58.7719 251.604 56.3738 251.604 53.4177C251.604 50.4616 251.655 48.0635 251.724 48.0635C251.794 48.0635 251.844 50.4616 251.844 53.4177C251.844 56.3738 251.807 58.7719 251.724 58.7719Z" fill="#263238"/>
<path d="M241.621 58.7026C241.556 58.7026 241.501 56.3045 241.501 53.3484C241.501 50.3922 241.556 47.9941 241.621 47.9941C241.685 47.9941 241.741 50.3922 241.741 53.3484C241.741 56.3045 241.69 58.7026 241.621 58.7026Z" fill="#263238"/>
<path d="M280.837 147.849C300.257 128.429 300.257 96.9424 280.837 77.5222C261.416 58.1021 229.93 58.1021 210.51 77.5222C191.09 96.9424 191.09 128.429 210.51 147.849C229.93 167.269 261.416 167.269 280.837 147.849Z" fill="#6DDEA2"/>
<path d="M245.672 154.055C268.738 154.055 287.436 135.357 287.436 112.291C287.436 89.2257 268.738 70.5273 245.672 70.5273C222.607 70.5273 203.908 89.2257 203.908 112.291C203.908 135.357 222.607 154.055 245.672 154.055Z" fill="#FAFAFA"/>
<path d="M287.436 112.291C287.436 112.291 287.436 112.065 287.404 111.617C287.371 111.17 287.404 110.501 287.316 109.63C287.151 107.087 286.753 104.564 286.126 102.094C285.674 100.311 285.103 98.5611 284.415 96.8552C283.607 94.8214 282.636 92.8565 281.51 90.9799C278.756 86.3952 275.156 82.3748 270.903 79.1323C265.741 75.2048 259.731 72.5389 253.355 71.3477C247.951 70.3533 242.405 70.4175 237.025 71.5368C235.136 71.9469 233.275 72.4783 231.454 73.1278C223.705 75.9504 216.966 81.0035 212.085 87.6502C210.811 89.3811 209.676 91.21 208.69 93.1197C208.178 94.0744 207.74 95.0659 207.307 96.062C206.873 97.0582 206.486 98.0912 206.159 99.1427C205.451 101.247 204.92 103.407 204.572 105.599C204.222 107.816 204.039 110.056 204.023 112.3C204.04 114.545 204.221 116.787 204.567 119.005C204.921 121.197 205.451 123.356 206.154 125.462C206.486 126.509 206.901 127.523 207.302 128.538C207.703 129.553 208.188 130.53 208.686 131.485C209.671 133.396 210.808 135.225 212.085 136.954C216.965 143.603 223.704 148.658 231.454 151.481C233.275 152.131 235.136 152.662 237.025 153.072C238.867 153.457 240.733 153.718 242.61 153.852C246.202 154.123 249.814 153.925 253.355 153.261C259.731 152.07 265.741 149.404 270.903 145.477C275.157 142.236 278.757 138.215 281.51 133.629C282.635 131.752 283.606 129.787 284.415 127.754C286.053 123.676 287.032 119.364 287.316 114.979C287.394 114.108 287.381 113.439 287.404 112.992C287.427 112.544 287.436 112.314 287.436 112.314C287.436 112.314 287.436 112.544 287.436 112.992C287.436 113.439 287.436 114.108 287.371 114.979C287.119 119.377 286.158 123.704 284.526 127.795C283.723 129.839 282.754 131.813 281.63 133.698C278.882 138.306 275.282 142.349 271.023 145.611C265.842 149.562 259.809 152.247 253.406 153.451C249.849 154.123 246.22 154.327 242.61 154.059C240.724 153.926 238.849 153.665 236.997 153.28C235.097 152.871 233.225 152.338 231.394 151.684C223.6 148.851 216.819 143.772 211.909 137.088C210.628 135.349 209.487 133.511 208.497 131.591C207.98 130.632 207.537 129.626 207.086 128.626C206.634 127.625 206.265 126.587 205.933 125.531C205.225 123.417 204.691 121.248 204.337 119.047C203.605 114.582 203.605 110.027 204.337 105.562C204.693 103.37 205.227 101.211 205.933 99.1058C206.269 98.0497 206.684 97.0305 207.09 96.0113C207.496 94.9921 207.98 94.0098 208.497 93.0506C209.49 91.1315 210.633 89.2934 211.914 87.5534C216.822 80.8705 223.601 75.7926 231.394 72.9618C233.223 72.3086 235.094 71.7756 236.993 71.3661C238.846 70.9812 240.722 70.7208 242.61 70.5868C246.218 70.3187 249.846 70.5234 253.401 71.1955C259.806 72.3939 265.84 75.0793 271.018 79.0355C275.278 82.2991 278.877 86.3433 281.625 90.9522C283.691 94.4313 285.244 98.1902 286.237 102.113C286.852 104.591 287.237 107.122 287.385 109.671C287.454 110.543 287.431 111.212 287.45 111.659C287.468 112.106 287.436 112.291 287.436 112.291Z" fill="#263238"/>
<path d="M281.308 110.779C279.984 110.835 278.905 110.779 278.9 110.664C278.896 110.549 279.961 110.392 281.285 110.318C282.608 110.244 283.687 110.29 283.697 110.429C283.706 110.567 282.622 110.724 281.308 110.779Z" fill="#263238"/>
<path d="M280.418 120.395C279.127 120.09 278.112 119.754 278.112 119.638C278.112 119.523 279.21 119.661 280.506 119.943C281.802 120.224 282.812 120.565 282.812 120.699C282.812 120.833 281.7 120.694 280.418 120.395Z" fill="#263238"/>
<path d="M276.971 129.41C275.805 128.773 274.91 128.169 274.965 128.068C275.021 127.966 276.017 128.386 277.188 128.99C278.36 129.594 279.259 130.217 279.194 130.337C279.13 130.457 278.134 130.051 276.971 129.41Z" fill="#263238"/>
<path d="M271.231 137.176C270.281 136.254 269.575 135.433 269.658 135.331C269.741 135.23 270.58 135.917 271.549 136.83C272.517 137.743 273.214 138.559 273.121 138.675C273.029 138.79 272.176 138.103 271.231 137.176Z" fill="#263238"/>
<path d="M263.621 143.126C262.957 141.978 262.496 141 262.597 140.94C262.698 140.88 263.335 141.757 264.017 142.891C264.7 144.026 265.161 145.003 265.046 145.077C264.931 145.151 264.29 144.265 263.621 143.126Z" fill="#263238"/>
<path d="M254.696 146.81C254.364 145.523 254.184 144.458 254.3 144.43C254.415 144.403 254.788 145.413 255.144 146.69C255.499 147.967 255.674 149.033 255.54 149.07C255.406 149.107 255.028 148.092 254.696 146.81Z" fill="#263238"/>
<path d="M245.109 147.953C245.109 146.625 245.243 145.551 245.358 145.551C245.473 145.551 245.57 146.63 245.57 147.953C245.57 149.277 245.455 150.356 245.321 150.356C245.187 150.356 245.086 149.286 245.109 147.953Z" fill="#263238"/>
<path d="M235.58 146.511C235.959 145.238 236.355 144.237 236.47 144.269C236.586 144.302 236.383 145.362 236.009 146.64C235.636 147.917 235.253 148.946 235.119 148.881C234.985 148.816 235.179 147.783 235.58 146.511Z" fill="#263238"/>
<path d="M226.759 142.539C227.465 141.419 228.115 140.556 228.217 140.616C228.318 140.676 227.838 141.649 227.151 142.784C226.464 143.918 225.809 144.776 225.694 144.707C225.579 144.638 226.054 143.665 226.759 142.539Z" fill="#263238"/>
<path d="M219.339 136.359C220.321 135.465 221.184 134.81 221.258 134.898C221.331 134.985 220.621 135.788 219.653 136.696C218.684 137.605 217.831 138.259 217.734 138.163C217.637 138.066 218.361 137.254 219.339 136.359Z" fill="#263238"/>
<path d="M213.843 128.418C215.028 127.823 216.034 127.422 216.084 127.524C216.135 127.625 215.231 128.211 214.055 128.829C212.879 129.447 211.878 129.848 211.814 129.723C211.749 129.599 212.662 129.018 213.843 128.418Z" fill="#263238"/>
<path d="M210.677 119.297C211.982 119.039 213.056 118.924 213.079 119.039C213.102 119.154 212.069 119.472 210.773 119.749C209.477 120.026 208.398 120.141 208.371 120.007C208.343 119.874 209.385 119.555 210.677 119.297Z" fill="#263238"/>
<path d="M210.093 109.676C211.416 109.773 212.482 109.948 212.477 110.063C212.472 110.178 211.389 110.211 210.065 110.132C208.741 110.054 207.671 109.883 207.681 109.745C207.69 109.607 208.769 109.556 210.093 109.676Z" fill="#263238"/>
<path d="M212.099 100.208C213.349 100.669 214.326 101.13 214.289 101.227C214.253 101.324 213.201 101.075 211.947 100.642C210.692 100.208 209.715 99.7561 209.756 99.627C209.798 99.4979 210.854 99.7561 212.099 100.208Z" fill="#263238"/>
<path d="M216.577 91.6537C217.656 92.4239 218.477 93.1249 218.422 93.2217C218.366 93.3186 217.416 92.7836 216.323 92.0319C215.23 91.2802 214.41 90.5792 214.479 90.4639C214.548 90.3486 215.493 90.8835 216.577 91.6537Z" fill="#263238"/>
<path d="M223.176 84.6077C224.011 85.6361 224.615 86.5308 224.528 86.6092C224.44 86.6876 223.67 85.9174 222.821 84.8982C221.973 83.8791 221.364 82.989 221.47 82.9014C221.576 82.8137 222.342 83.5793 223.176 84.6077Z" fill="#263238"/>
<path d="M231.43 79.5806C231.956 80.7981 232.302 81.8219 232.191 81.8864C232.081 81.951 231.555 80.9918 231.011 79.7835C230.466 78.5752 230.121 77.5514 230.245 77.4776C230.37 77.4038 230.891 78.3677 231.43 79.5806Z" fill="#263238"/>
<path d="M240.72 76.9651C240.9 78.2794 240.955 79.3586 240.835 79.377C240.715 79.3955 240.462 78.344 240.263 77.0343C240.065 75.7245 240.01 74.6408 240.143 74.6223C240.277 74.6039 240.54 75.6507 240.72 76.9651Z" fill="#263238"/>
<path d="M250.377 76.9327C250.201 78.247 249.966 79.3031 249.851 79.2893C249.736 79.2755 249.763 78.1917 249.92 76.8773C250.077 75.563 250.312 74.5023 250.446 74.5207C250.58 74.5392 250.552 75.6137 250.377 76.9327Z" fill="#263238"/>
<path d="M259.687 79.4833C259.166 80.7054 258.654 81.6554 258.543 81.6093C258.432 81.5632 258.76 80.5347 259.262 79.3034C259.765 78.0721 260.282 77.1267 260.406 77.182C260.531 77.2373 260.212 78.2658 259.687 79.4833Z" fill="#263238"/>
<path d="M267.969 84.45C267.139 85.4877 266.392 86.2671 266.3 86.1933C266.207 86.1195 266.793 85.211 267.609 84.1641C268.426 83.1172 269.168 82.3194 269.279 82.4255C269.389 82.5316 268.785 83.417 267.969 84.45Z" fill="#263238"/>
<path d="M274.623 91.4511C273.544 92.2259 272.617 92.7793 272.548 92.6824C272.479 92.5856 273.286 91.8708 274.351 91.0776C275.417 90.2843 276.344 89.7355 276.427 89.8462C276.51 89.9569 275.703 90.6763 274.623 91.4511Z" fill="#263238"/>
<path d="M279.158 99.9915C277.913 100.453 276.852 100.725 276.825 100.619C276.797 100.513 277.747 100.033 278.997 99.558C280.247 99.083 281.275 98.8017 281.326 98.9308C281.377 99.0599 280.404 99.5303 279.158 99.9915Z" fill="#263238"/>
<path d="M281.238 109.408C279.915 109.514 278.835 109.505 278.826 109.408C278.817 109.312 279.878 109.099 281.197 108.947C282.516 108.795 283.599 108.832 283.609 108.97C283.618 109.109 282.548 109.302 281.238 109.408Z" fill="#263238"/>
<path d="M229.452 67.1104L229.309 67.1749L228.885 67.3456C228.516 67.5024 227.963 67.6914 227.257 68.0004C225.269 68.8316 223.338 69.7945 221.478 70.8828C220.298 71.5653 219.048 72.3816 217.734 73.2993C216.419 74.2171 215.077 75.287 213.735 76.4906C207.843 81.6841 203.343 88.2678 200.643 95.6432C200.011 97.3311 199.536 98.9821 199.125 100.527C198.715 102.072 198.438 103.548 198.231 104.894C197.894 107.022 197.698 109.17 197.645 111.323C197.608 112.089 197.645 112.679 197.645 113.08C197.645 113.274 197.645 113.421 197.645 113.541C197.649 113.594 197.649 113.646 197.645 113.698C197.639 113.648 197.639 113.597 197.645 113.546C197.645 113.431 197.645 113.279 197.645 113.085C197.645 112.684 197.594 112.093 197.617 111.328C197.634 109.166 197.805 107.009 198.129 104.871C198.323 103.515 198.623 102.044 198.996 100.481C199.413 98.8191 199.915 97.1798 200.5 95.5694C203.187 88.1446 207.714 81.523 213.657 76.3246C215.008 75.121 216.383 74.0833 217.683 73.1379C218.984 72.1925 220.266 71.4085 221.46 70.7352C223.333 69.6581 225.279 68.715 227.285 67.9128C227.99 67.6176 228.558 67.4516 228.936 67.2994L229.369 67.1519C229.396 67.136 229.424 67.1221 229.452 67.1104Z" fill="white"/>
<path d="M243.333 64.4161C242.859 64.5146 242.378 64.5778 241.894 64.6052C241 64.6974 239.773 64.8312 238.417 65.0064C237.061 65.1817 235.839 65.3661 234.954 65.5045C234.479 65.602 233.998 65.6637 233.515 65.689C233.973 65.5291 234.446 65.4118 234.926 65.3385C235.807 65.1586 237.029 64.9465 238.385 64.7712C239.741 64.596 240.981 64.4853 241.88 64.4346C242.363 64.383 242.849 64.3768 243.333 64.4161Z" fill="white"/>
<g opacity="0.4">
<path d="M212.293 137.398C212.293 137.398 233.936 171.552 267.509 154.06C302.559 135.797 283.189 93.9365 283.189 93.9365C283.189 93.9365 299.681 127.298 265.517 149.047C257.008 154.466 247.743 154.47 240.678 153.76C222.623 151.952 212.293 137.398 212.293 137.398Z" fill="black"/>
</g>
<path d="M257.313 90.0947C257.521 96.22 257.336 102.352 256.76 108.454C256.548 110.663 256.299 112.895 255.446 114.947C254.592 117 253.14 118.881 251.092 119.748C249.045 120.615 246.425 120.256 245 118.558L257.313 90.0947Z" fill="#E0E0E0"/>
<path d="M244.764 108.999L259.941 83.4404L250.782 112.296L246.101 113.693L244.764 108.999Z" fill="#6DDEA2"/>
<g opacity="0.4">
<path d="M259.94 83.4404L248.683 109.557L250.781 112.296L259.94 83.4404Z" fill="black"/>
</g>
<path d="M246.103 118.576C248.8 118.576 250.986 116.39 250.986 113.692C250.986 110.995 248.8 108.809 246.103 108.809C243.405 108.809 241.219 110.995 241.219 113.692C241.219 116.39 243.405 118.576 246.103 118.576Z" fill="#FAFAFA"/>
<path d="M250.985 113.693C250.941 113.297 250.875 112.902 250.787 112.513C250.504 111.461 249.877 110.534 249.006 109.88C248.367 109.398 247.617 109.085 246.825 108.968C246.033 108.851 245.224 108.935 244.473 109.211C244.041 109.364 243.635 109.583 243.269 109.861C242.881 110.143 242.54 110.486 242.259 110.876C241.66 111.693 241.337 112.68 241.337 113.693C241.337 114.707 241.66 115.694 242.259 116.511C242.819 117.271 243.589 117.851 244.473 118.181C245.104 118.412 245.777 118.509 246.447 118.465C247.118 118.422 247.772 118.238 248.368 117.927C248.964 117.616 249.488 117.183 249.907 116.658C250.326 116.132 250.63 115.524 250.8 114.874C250.889 114.485 250.956 114.091 250.999 113.693C251.027 114.098 250.991 114.504 250.893 114.897C250.641 115.997 250.015 116.975 249.122 117.664C248.51 118.139 247.794 118.463 247.033 118.61C246.157 118.777 245.253 118.707 244.413 118.407C243.957 118.249 243.529 118.02 243.145 117.729C242.737 117.434 242.379 117.076 242.084 116.668C241.449 115.813 241.106 114.777 241.106 113.712C241.106 112.647 241.449 111.611 242.084 110.756C242.38 110.349 242.738 109.991 243.145 109.695C243.531 109.408 243.959 109.18 244.413 109.022C245.252 108.719 246.157 108.649 247.033 108.819C247.963 108.998 248.821 109.441 249.506 110.095C250.191 110.749 250.672 111.587 250.893 112.508C250.985 112.896 251.016 113.296 250.985 113.693Z" fill="#263238"/>
<path d="M249.68 114.426C250.078 112.459 248.805 110.542 246.838 110.144C244.871 109.746 242.954 111.019 242.556 112.986C242.158 114.953 243.431 116.87 245.398 117.268C247.365 117.666 249.282 116.393 249.68 114.426Z" fill="#455A64"/>
<path d="M207.597 230.914H231.624L220.422 134.372L207.597 230.914Z" fill="#E0E0E0"/>
<path d="M89.3696 134.372L73.7266 232.053L207.214 233.792L220.422 134.372H89.3696Z" fill="#FAFAFA"/>
<path d="M214.478 179.12H82.2041L85.0818 161.134H216.867L214.478 179.12Z" fill="#EBEBEB"/>
<path d="M214.489 179.134H82.1924L85.0747 161.148H216.883L214.489 179.134ZM82.2201 179.111H214.471L216.855 161.125H85.0978L82.2201 179.111Z" fill="#263238"/>
<path d="M89.371 134.372L85.082 161.134H216.867L220.423 134.372H89.371Z" fill="#6DDEA2"/>
<path d="M89.3899 134.371L220.442 134.261H220.566V134.385C216.706 163.49 212.325 196.496 207.695 231.356V231.462H206.09L73.8391 231.426H73.71V231.31L89.3899 134.371C89.2608 135.174 83.3024 172.626 73.9544 231.356L73.8575 231.241H206.058H207.557L207.441 231.343C212.076 196.482 216.466 163.481 220.354 134.376L220.46 134.496L89.3899 134.371Z" fill="#263238"/>
<path d="M216.867 161.134C216.867 161.198 187.352 161.253 150.979 161.253C114.606 161.253 85.082 161.198 85.082 161.134C85.082 161.069 114.597 161.014 150.979 161.014C187.361 161.014 216.867 161.064 216.867 161.134Z" fill="#263238"/>
<path d="M214.477 179.12C214.477 179.189 184.805 179.24 148.215 179.24C111.626 179.24 81.9492 179.189 81.9492 179.12C81.9492 179.051 111.612 179 148.215 179C184.819 179 214.477 179.055 214.477 179.12Z" fill="#263238"/>
<path d="M211.786 195.672C211.786 195.741 182.118 195.792 145.529 195.792C108.939 195.792 79.2441 195.741 79.2441 195.672C79.2441 195.602 108.907 195.552 145.51 195.552C182.114 195.552 211.786 195.607 211.786 195.672Z" fill="#263238"/>
<path d="M209.096 212.223C209.096 212.288 179.424 212.343 142.835 212.343C106.245 212.343 76.5684 212.288 76.5684 212.223C76.5684 212.159 106.231 212.104 142.835 212.104C179.438 212.104 209.096 212.159 209.096 212.223Z" fill="#263238"/>
<path d="M92.4661 231.491C92.4015 231.491 94.8227 215.718 97.8803 196.294C100.938 176.869 103.461 161.12 103.525 161.134C103.59 161.148 101.168 176.897 98.1155 196.331C95.0625 215.765 92.5353 231.5 92.4661 231.491Z" fill="#263238"/>
<path d="M112.863 231.491C112.794 231.491 115.219 215.718 118.272 196.294C121.325 176.869 123.853 161.12 123.922 161.134C123.991 161.148 121.565 176.897 118.508 196.331C115.45 215.765 112.909 231.5 112.863 231.491Z" fill="#263238"/>
<path d="M131.817 230.785C131.752 230.785 134.15 215.174 137.171 195.943C140.192 176.712 142.705 161.12 142.765 161.134C142.825 161.148 140.431 176.74 137.411 195.98C134.39 215.22 131.877 230.794 131.817 230.785Z" fill="#263238"/>
<path d="M150.564 231.343C150.499 231.343 152.916 215.603 155.964 196.22C159.012 176.837 161.535 161.12 161.6 161.134C161.664 161.148 159.248 176.864 156.199 196.257C153.151 215.649 150.628 231.352 150.564 231.343Z" fill="#263238"/>
<path d="M169.405 231.343C169.34 231.343 171.757 215.603 174.805 196.22C177.853 176.837 180.376 161.12 180.44 161.134C180.505 161.148 178.093 176.864 175.045 196.257C171.996 215.649 169.474 231.352 169.405 231.343Z" fill="#263238"/>
<path d="M188.228 231.426C188.163 231.426 190.584 215.668 193.637 196.252C196.69 176.837 199.213 161.101 199.282 161.115C199.351 161.129 196.926 176.869 193.873 196.289C190.82 215.709 188.292 231.454 188.228 231.426Z" fill="#263238"/>
<g opacity="0.2">
<path d="M176.374 162.388C178.643 161.382 180.064 159.021 180.649 156.609C181.235 154.197 181.143 151.679 181.23 149.194C181.318 146.708 181.613 144.148 182.881 142.013C183.633 140.754 184.689 139.707 185.524 138.494C186.359 137.281 186.977 135.806 186.668 134.344L172.473 134.418L176.374 162.388Z" fill="black"/>
</g>
<path d="M117.521 180.452C117.483 180.514 117.437 180.57 117.383 180.618L116.958 181.079C116.585 181.462 116.036 182.002 115.344 182.675C113.961 184.003 112.038 185.811 109.847 187.748C107.657 189.685 105.627 191.373 104.138 192.572C103.391 193.171 102.782 193.651 102.358 193.955L101.864 194.324C101.809 194.372 101.747 194.411 101.68 194.44C101.68 194.44 101.73 194.38 101.832 194.287L102.293 193.882L104.022 192.42C105.489 191.188 107.5 189.477 109.686 187.55C111.872 185.622 113.836 183.833 115.22 182.537L116.885 181.001L117.346 180.59C117.398 180.537 117.457 180.491 117.521 180.452Z" fill="#263238"/>
<path d="M116.455 194.624C116.259 194.453 116.076 194.268 115.906 194.071L114.463 192.531C113.218 191.207 111.548 189.427 109.708 187.458L104.903 182.431L103.446 180.904C103.262 180.723 103.091 180.529 102.934 180.323C103.142 180.478 103.337 180.65 103.515 180.84C103.874 181.181 104.391 181.684 105.023 182.311C106.286 183.565 108.011 185.322 109.879 187.296C111.747 189.27 113.407 191.087 114.587 192.42C115.178 193.084 115.653 193.628 115.971 194.006C116.151 194.197 116.313 194.404 116.455 194.624Z" fill="#263238"/>
<path d="M121.379 184.691C121.379 184.691 121.425 184.571 121.522 184.335C121.675 183.994 121.86 183.668 122.076 183.362C122.924 182.177 124.12 181.286 125.497 180.812C126.484 180.455 127.537 180.317 128.583 180.406C129.828 180.527 131.028 180.936 132.088 181.601C133.311 182.355 134.345 183.38 135.108 184.598C135.991 185.958 136.431 187.558 136.367 189.178C136.314 190.052 136.043 190.898 135.579 191.64C135.092 192.41 134.444 193.065 133.679 193.559C132.05 194.604 130.132 195.106 128.2 194.993C127.188 194.939 126.192 194.722 125.248 194.352C124.267 193.969 123.385 193.37 122.666 192.6C122.309 192.194 122.008 191.743 121.771 191.258C121.546 190.762 121.39 190.237 121.31 189.699C121.157 188.596 121.253 187.472 121.591 186.411C122.296 184.197 123.825 182.34 125.862 181.222C126.917 180.643 128.092 180.312 129.295 180.257C130.498 180.202 131.698 180.423 132.802 180.904C133.947 181.386 134.948 182.153 135.713 183.132C136.478 184.137 136.956 185.331 137.096 186.586C137.256 187.859 137.049 189.152 136.501 190.312C136.22 190.895 135.849 191.43 135.404 191.899C134.95 192.361 134.438 192.762 133.882 193.093C132.759 193.712 131.52 194.092 130.243 194.211C128.967 194.33 127.679 194.185 126.461 193.785C125.262 193.417 124.159 192.787 123.233 191.94C122.315 191.093 121.687 189.978 121.439 188.753C121.179 187.55 121.351 186.293 121.923 185.202C122.214 184.665 122.613 184.194 123.095 183.819C123.569 183.461 124.099 183.182 124.663 182.993C125.77 182.638 126.932 182.482 128.094 182.532C129.225 182.54 130.351 182.695 131.442 182.993C132.521 183.277 133.518 183.811 134.352 184.552C135.151 185.298 135.696 186.275 135.911 187.347C136.123 188.383 136.061 189.455 135.731 190.46C135.405 191.428 134.853 192.306 134.121 193.019C132.732 194.378 130.893 195.179 128.952 195.27C128.043 195.318 127.134 195.186 126.277 194.882C125.454 194.587 124.714 194.098 124.119 193.457C123.555 192.846 123.129 192.121 122.869 191.331C122.612 190.591 122.498 189.809 122.532 189.026C122.598 187.576 123.176 186.196 124.165 185.133C125.01 184.209 126.079 183.518 127.268 183.127C128.267 182.802 129.325 182.701 130.367 182.832C131.808 183.011 133.176 183.563 134.338 184.432C134.64 184.654 134.925 184.898 135.191 185.161C135.371 185.341 135.459 185.438 135.459 185.438C135.459 185.438 135.357 185.35 135.178 185.179C134.904 184.925 134.614 184.688 134.311 184.469C133.147 183.625 131.786 183.093 130.358 182.924C129.232 182.794 128.092 182.935 127.032 183.336C125.972 183.738 125.024 184.387 124.266 185.23C123.304 186.27 122.743 187.619 122.684 189.035C122.653 189.803 122.767 190.569 123.021 191.295C123.278 192.06 123.695 192.763 124.243 193.356C124.821 193.977 125.539 194.451 126.337 194.74C127.173 195.03 128.058 195.156 128.942 195.108C130.837 195.015 132.631 194.229 133.983 192.899C134.69 192.208 135.222 191.36 135.537 190.423C135.853 189.452 135.91 188.416 135.703 187.416C135.496 186.387 134.972 185.449 134.204 184.732C133.393 184.019 132.427 183.504 131.382 183.229C130.309 182.935 129.202 182.78 128.089 182.767C126.955 182.725 125.822 182.881 124.741 183.229C123.639 183.566 122.706 184.309 122.131 185.308C121.585 186.351 121.422 187.552 121.67 188.703C121.909 189.879 122.514 190.949 123.399 191.76C124.296 192.59 125.368 193.207 126.535 193.568C127.721 193.958 128.974 194.1 130.216 193.984C131.459 193.868 132.664 193.497 133.757 192.895C134.297 192.578 134.792 192.19 135.228 191.742C135.656 191.292 136.013 190.779 136.284 190.22C136.815 189.1 137.015 187.852 136.861 186.623C136.729 185.411 136.272 184.257 135.537 183.284C134.798 182.338 133.83 181.597 132.724 181.13C131.653 180.662 130.488 180.446 129.32 180.499C128.152 180.552 127.011 180.872 125.986 181.435C124.007 182.524 122.522 184.332 121.836 186.484C121.507 187.514 121.411 188.604 121.554 189.676C121.637 190.196 121.793 190.702 122.016 191.179C122.244 191.645 122.532 192.079 122.873 192.471C123.569 193.216 124.423 193.796 125.373 194.168C126.295 194.532 127.27 194.747 128.26 194.804C130.15 194.92 132.029 194.435 133.628 193.421C134.367 192.968 134.989 192.349 135.445 191.612C135.901 190.875 136.177 190.041 136.252 189.178C136.316 187.593 135.89 186.028 135.03 184.695C134.284 183.493 133.271 182.478 132.069 181.73C131.028 181.071 129.849 180.662 128.624 180.535C127.594 180.438 126.555 180.567 125.581 180.914C124.215 181.375 123.024 182.244 122.168 183.404C121.947 183.705 121.756 184.026 121.596 184.363C121.439 184.575 121.379 184.691 121.379 184.691Z" fill="#6DDEA2"/>
<path d="M133.874 197.423C133.916 197.474 130.258 200.601 125.702 204.41C121.146 208.22 117.401 211.259 117.373 211.208C117.346 211.157 120.989 208.03 125.545 204.226C130.102 200.421 133.833 197.373 133.874 197.423Z" fill="#263238"/>
<path d="M134.671 210.797C134.454 210.669 134.249 210.523 134.058 210.359L132.434 209.095C131.074 208.016 129.206 206.513 127.149 204.843C125.092 203.174 123.243 201.652 121.91 200.541L120.338 199.212C120.138 199.06 119.953 198.89 119.784 198.705C120 198.834 120.205 198.981 120.398 199.143L122.016 200.407C123.377 201.486 125.244 202.989 127.301 204.659C129.358 206.328 131.207 207.85 132.545 208.962L134.113 210.285C134.311 210.442 134.497 210.613 134.671 210.797Z" fill="#263238"/>
<path d="M172.374 197.603C172.411 197.654 168.915 200.334 164.557 203.599C160.199 206.864 156.639 209.442 156.597 209.386C156.556 209.331 160.056 206.656 164.414 203.391C168.772 200.126 172.332 197.548 172.374 197.603Z" fill="#263238"/>
<path d="M173.728 208.949C173.695 209.004 169.978 206.703 165.426 203.802C160.875 200.901 157.227 198.512 157.259 198.452C157.291 198.392 161.008 200.703 165.56 203.599C170.112 206.495 173.783 208.893 173.728 208.949Z" fill="#263238"/>
<path d="M134.475 231.348C134.424 231.302 138.058 227.492 142.587 222.848C147.116 218.204 150.828 214.464 150.888 214.51C150.948 214.556 147.305 218.366 142.776 223.014C138.248 227.663 134.521 231.394 134.475 231.348Z" fill="#6DDEA2"/>
<path d="M149.836 231.343C149.836 231.343 149.776 231.292 149.684 231.182L149.296 230.72C148.937 230.259 148.457 229.664 147.871 228.936C146.668 227.432 144.961 225.389 142.983 223.217C141.004 221.045 139.127 219.159 137.744 217.821L136.102 216.207L135.641 215.774C135.588 215.725 135.54 215.671 135.498 215.612C135.498 215.612 135.567 215.649 135.673 215.737L136.134 216.138C136.545 216.489 137.126 217.01 137.836 217.665C139.247 218.974 141.147 220.847 143.135 223.023C145.123 225.2 146.824 227.266 147.977 228.797C148.568 229.563 149.034 230.181 149.361 230.642L149.716 231.149C149.764 231.209 149.804 231.274 149.836 231.343Z" fill="#6DDEA2"/>
<path d="M112.083 211.946C112.083 211.946 112.23 223.278 109.371 230.061L91.9434 227.091C91.9434 227.091 97.1915 216.355 95.7619 210.388L112.083 211.946Z" fill="#EBEBEB"/>
<path d="M112.079 211.522C112.079 211.522 109.893 225.431 108.556 229.581L91.2344 226.141C91.2344 226.141 94.7993 212.693 94.7531 208.948L112.079 211.522Z" fill="#6DDEA2"/>
<path d="M96.5088 215.183C96.5088 215.248 99.0821 215.847 102.287 216.521C105.492 217.194 108.098 217.688 108.112 217.628C108.126 217.568 105.539 216.963 102.333 216.29C99.1283 215.617 96.5226 215.119 96.5088 215.183Z" fill="white"/>
<path d="M96.0684 218.131C96.0684 218.196 98.6417 218.79 101.847 219.468C105.052 220.146 107.658 220.635 107.672 220.575C107.685 220.515 105.098 219.911 101.893 219.238C98.6878 218.564 96.0822 218.053 96.0684 218.131Z" fill="white"/>
<path d="M98.6143 221.465C98.9097 221.593 99.2193 221.686 99.5366 221.742C100.132 221.885 100.957 222.074 101.866 222.267C102.774 222.461 103.609 222.618 104.213 222.728C104.536 222.809 104.867 222.85 105.2 222.848C104.893 222.719 104.573 222.625 104.245 222.567C103.655 222.419 102.829 222.23 101.916 222.041C101.003 221.852 100.173 221.686 99.5735 221.58C99.2596 221.503 98.9375 221.464 98.6143 221.465Z" fill="white"/>
<path d="M194.535 180.13C194.535 180.13 196.32 191.17 194.512 198.213L177.062 197.839C177.062 197.839 180.631 186.596 178.367 180.974L194.535 180.13Z" fill="#EBEBEB"/>
<path d="M194.458 179.715C194.458 179.715 194.343 193.601 193.637 197.839L176.219 197.014C176.219 197.014 177.745 183.363 177.141 179.715H194.458Z" fill="#455A64"/>
<path d="M179.613 185.894C179.613 185.959 182.233 186.014 185.466 186.019C188.698 186.024 191.322 185.977 191.322 185.913C191.322 185.848 188.703 185.793 185.466 185.788C182.228 185.784 179.613 185.83 179.613 185.894Z" fill="white"/>
<path d="M179.778 188.832C179.778 188.897 182.398 188.952 185.631 188.956C188.863 188.961 191.488 188.915 191.488 188.85C191.488 188.786 188.868 188.731 185.631 188.726C182.393 188.721 179.778 188.767 179.778 188.832Z" fill="white"/>
<path d="M182.903 191.539C183.224 191.608 183.553 191.637 183.881 191.627C184.485 191.627 185.32 191.659 186.242 191.663C187.165 191.668 187.995 191.663 188.599 191.631C188.927 191.644 189.255 191.618 189.577 191.553C189.255 191.484 188.927 191.456 188.599 191.47C187.995 191.447 187.165 191.433 186.242 191.428C185.32 191.424 184.485 191.428 183.881 191.461C183.553 191.447 183.225 191.474 182.903 191.539Z" fill="white"/>
<path d="M198.228 148.294C194.972 148.294 191.693 146.251 189.968 143.037C188.291 139.836 187.772 136.154 188.497 132.614C189.451 128.003 192.504 124.221 196.277 123.013C199.482 121.984 205.21 122.552 207.912 127.076C209.2 129.288 209.839 131.818 209.757 134.376C209.745 134.558 209.697 134.735 209.616 134.899C209.536 135.062 209.424 135.207 209.286 135.327C209.149 135.447 208.99 135.539 208.818 135.597C208.645 135.656 208.463 135.68 208.281 135.667C207.914 135.643 207.572 135.474 207.33 135.197C207.088 134.92 206.965 134.559 206.99 134.192C207.015 132.194 206.502 130.227 205.505 128.496C203.42 125.014 198.85 125.083 197.088 125.646C193.86 126.679 191.794 130.17 191.172 133.172C190.574 136.079 190.999 139.103 192.375 141.732C193.736 144.268 196.489 145.846 198.929 145.472C199.289 145.422 199.654 145.515 199.946 145.733C200.237 145.95 200.432 146.273 200.487 146.632C200.542 146.992 200.453 147.358 200.24 147.653C200.027 147.948 199.707 148.147 199.348 148.207C198.977 148.264 198.603 148.294 198.228 148.294Z" fill="#263238"/>
<path d="M108.908 148.295C105.647 148.295 102.373 146.252 100.648 143.038C98.9698 139.837 98.4485 136.156 99.1723 132.615C99.9793 128.723 102.709 124.24 107.012 123.004C109.087 122.442 111.286 122.554 113.293 123.322L112.297 125.905C110.853 125.356 109.273 125.271 107.778 125.661C104.605 126.583 102.539 130.097 101.902 133.173C101.305 136.08 101.73 139.104 103.106 141.733C104.467 144.274 107.224 145.846 109.659 145.473L110.079 148.207C109.691 148.267 109.3 148.297 108.908 148.295Z" fill="#263238"/>
<path d="M197.086 134.445L195.813 141.414H214.542L216.207 134.514L197.086 134.445Z" fill="#6DDEA2"/>
<path d="M113.651 147.192C113.652 147.782 113.478 148.359 113.151 148.849C112.824 149.34 112.358 149.722 111.814 149.948C111.269 150.175 110.67 150.234 110.091 150.119C109.513 150.004 108.982 149.72 108.565 149.304C108.148 148.887 107.864 148.355 107.749 147.777C107.635 147.199 107.694 146.599 107.92 146.055C108.146 145.51 108.529 145.045 109.019 144.718C109.51 144.391 110.087 144.217 110.676 144.218C111.465 144.219 112.221 144.533 112.778 145.09C113.336 145.648 113.65 146.404 113.651 147.192Z" fill="#263238"/>
<path d="M202.894 147.192C202.895 147.782 202.721 148.359 202.394 148.849C202.067 149.34 201.602 149.722 201.057 149.948C200.512 150.175 199.913 150.234 199.335 150.119C198.756 150.004 198.225 149.72 197.808 149.304C197.391 148.887 197.107 148.355 196.993 147.777C196.878 147.199 196.937 146.599 197.163 146.055C197.389 145.51 197.772 145.045 198.262 144.718C198.753 144.391 199.33 144.217 199.919 144.218C200.708 144.219 201.464 144.533 202.021 145.09C202.579 145.648 202.893 146.404 202.894 147.192Z" fill="#263238"/>
<path d="M153.746 89.5322L148.848 108.108L131.941 109.925V112.923L155.697 113.758L160.161 92.9172L153.746 89.5322Z" fill="#FFB8B8"/>
<path d="M160.871 114.25C160.871 114.25 134.455 112.991 126.933 118.862C119.412 124.733 123.055 134.371 123.055 134.371L165.566 134.261L169.32 112.71L160.871 114.25Z" fill="#263238"/>
<path d="M165.369 128.469C165.241 128.472 165.113 128.463 164.986 128.441C164.737 128.414 164.373 128.377 163.903 128.317C162.98 128.201 161.597 128.008 159.936 127.726C155.577 126.985 151.266 125.989 147.024 124.743C144.542 124.009 142.195 123.271 140.027 122.732C138.114 122.237 136.157 121.928 134.184 121.81C132.853 121.735 131.518 121.812 130.204 122.04C129.743 122.095 129.388 122.215 129.139 122.257C129.016 122.287 128.891 122.31 128.766 122.326C128.883 122.276 129.005 122.237 129.13 122.211C129.477 122.103 129.829 122.015 130.186 121.948C131.503 121.682 132.847 121.578 134.189 121.639C136.19 121.734 138.177 122.029 140.12 122.52C142.301 123.046 144.653 123.783 147.125 124.517C151.344 125.752 155.625 126.767 159.95 127.556C161.615 127.86 162.966 128.077 163.903 128.224L164.982 128.395C165.113 128.409 165.242 128.434 165.369 128.469Z" fill="#455A64"/>
<path d="M140.814 122.589C140.08 121.984 139.298 121.439 138.476 120.961C137.614 120.558 136.721 120.225 135.806 119.965C136.09 119.94 136.376 119.968 136.65 120.048C137.324 120.193 137.975 120.429 138.587 120.749C139.197 121.071 139.761 121.472 140.265 121.943C140.486 122.123 140.673 122.342 140.814 122.589Z" fill="#455A64"/>
<path d="M163.672 171.672L164.027 182.772L161.795 191.636C161.758 191.788 161.754 191.946 161.781 192.099C161.809 192.253 161.868 192.399 161.954 192.529C162.041 192.659 162.153 192.769 162.284 192.854C162.416 192.938 162.563 192.995 162.717 193.02C162.895 193.052 163.079 193.041 163.252 192.989C163.425 192.936 163.584 192.842 163.713 192.715C165.392 191.073 171.553 185.004 171.475 184.197C171.392 183.275 171.876 172.456 171.876 172.456L163.672 171.672Z" fill="#6DDEA2"/>
<g opacity="0.6">
<path d="M162.674 193.038L171.436 183.464V183.925C171.441 184.332 171.301 184.728 171.04 185.041C170.343 185.876 168.365 188.14 163.711 192.724C163.578 192.856 163.415 192.953 163.236 193.006C163.056 193.059 162.866 193.067 162.683 193.029L162.674 193.038Z" fill="white"/>
</g>
<g opacity="0.6">
<path d="M169.113 179.899C168.973 180.002 168.876 180.154 168.843 180.325C168.81 180.496 168.842 180.673 168.934 180.821C169.031 180.96 169.177 181.056 169.342 181.09C169.507 181.124 169.68 181.094 169.824 181.006C169.968 180.899 170.067 180.741 170.102 180.565C170.136 180.388 170.102 180.205 170.008 180.051C169.893 179.916 169.731 179.831 169.554 179.814C169.378 179.797 169.201 179.849 169.063 179.959" fill="white"/>
</g>
<path d="M165.17 188.159C165.105 188.191 164.847 187.615 164.187 187.306C163.779 187.146 163.344 187.067 162.905 187.075C162.905 187.048 163.034 186.96 163.293 186.918C163.635 186.877 163.982 186.934 164.292 187.084C164.603 187.233 164.864 187.469 165.045 187.762C165.174 187.988 165.193 188.15 165.17 188.159Z" fill="#263238"/>
<path d="M164.393 189.657C164.074 189.483 163.744 189.329 163.406 189.196C163.046 189.132 162.682 189.089 162.317 189.066C162.487 188.957 162.68 188.891 162.881 188.872C163.082 188.854 163.284 188.884 163.47 188.96C164.125 189.136 164.448 189.624 164.393 189.657Z" fill="#263238"/>
<path d="M166.623 186.231C166.152 185.92 165.658 185.644 165.147 185.405C164.607 185.24 164.055 185.117 163.496 185.036C164.077 184.915 164.681 184.963 165.235 185.174C165.789 185.386 166.271 185.753 166.623 186.231Z" fill="#263238"/>
<path d="M166.795 182.855C166.768 182.925 166.15 182.671 165.352 182.652C164.554 182.634 163.922 182.828 163.895 182.759C164.342 182.512 164.848 182.391 165.358 182.408C165.869 182.425 166.365 182.58 166.795 182.855Z" fill="#263238"/>
<path d="M166.775 179.595C166.289 179.442 165.785 179.357 165.276 179.341C164.772 179.4 164.278 179.529 163.81 179.724C163.81 179.701 163.911 179.558 164.165 179.41C164.504 179.219 164.884 179.11 165.274 179.093C165.663 179.076 166.051 179.152 166.406 179.314C166.66 179.438 166.793 179.567 166.775 179.595Z" fill="#263238"/>
<path d="M165.289 178.718C165.261 178.579 165.261 178.437 165.289 178.298C165.324 177.913 165.435 177.538 165.617 177.196C165.725 176.933 165.918 176.714 166.166 176.573C166.251 176.535 166.347 176.524 166.439 176.541C166.531 176.558 166.616 176.603 166.682 176.67C166.801 176.809 166.865 176.986 166.862 177.168C166.84 177.54 166.691 177.893 166.438 178.167C166.186 178.441 165.847 178.619 165.479 178.672C165.111 178.713 164.739 178.643 164.41 178.473C164.082 178.302 163.812 178.037 163.634 177.713C163.589 177.631 163.563 177.54 163.556 177.447C163.55 177.354 163.564 177.26 163.597 177.173C163.64 177.09 163.707 177.023 163.79 176.979C163.872 176.936 163.966 176.918 164.058 176.929C164.332 176.987 164.587 177.116 164.796 177.302C165.099 177.542 165.358 177.832 165.562 178.16C165.643 178.276 165.702 178.405 165.737 178.543C165.444 178.126 165.091 177.755 164.69 177.44C164.503 177.287 164.281 177.181 164.044 177.131C163.993 177.123 163.94 177.131 163.894 177.154C163.848 177.177 163.81 177.214 163.786 177.261C163.77 177.32 163.765 177.382 163.773 177.443C163.781 177.504 163.801 177.563 163.832 177.616C163.994 177.89 164.231 178.113 164.516 178.257C164.8 178.401 165.12 178.46 165.437 178.427C165.752 178.387 166.043 178.24 166.262 178.011C166.481 177.782 166.615 177.484 166.641 177.168C166.647 177.042 166.608 176.918 166.53 176.818C166.495 176.778 166.449 176.751 166.397 176.74C166.345 176.73 166.292 176.736 166.244 176.758C166.042 176.882 165.881 177.063 165.783 177.279C165.538 177.727 165.371 178.214 165.289 178.718Z" fill="#263238"/>
<path d="M169.297 112.711C169.297 112.711 157.874 134.308 157.717 138.076C157.56 141.844 157.717 176.575 157.717 176.575H175.399C175.86 176.575 178.511 160.927 177.972 157.325C177.432 153.724 175.528 134.364 175.528 134.364H185.701C185.701 134.364 188.491 131.38 188.39 127.594C188.33 125.504 186.965 121.234 185.623 118.97C184.751 117.517 179.166 109.912 179.166 109.912L169.297 112.711Z" fill="#263238"/>
<path d="M168.531 114.172C168.518 114.216 168.501 114.257 168.48 114.297C168.439 114.389 168.383 114.504 168.314 114.647L167.65 115.994C167.35 116.58 166.995 117.29 166.58 118.115L165.916 119.439L165.22 120.947L161.793 128.367C161.143 129.751 160.46 131.231 159.75 132.748L158.676 135.054C158.328 135.852 158.066 136.683 157.892 137.535C157.716 138.39 157.625 139.26 157.619 140.132C157.592 140.994 157.573 141.847 157.56 142.682C157.56 144.361 157.527 145.975 157.532 147.515C157.532 150.596 157.569 153.372 157.601 155.701C157.633 158.03 157.661 159.898 157.684 161.235C157.684 161.872 157.684 162.374 157.684 162.734C157.684 162.895 157.684 163.025 157.684 163.126C157.684 163.227 157.684 163.26 157.684 163.26C157.676 163.216 157.676 163.17 157.684 163.126C157.684 163.025 157.684 162.895 157.684 162.739C157.684 162.374 157.647 161.876 157.619 161.235C157.573 159.935 157.513 158.048 157.463 155.701C157.412 153.354 157.357 150.601 157.343 147.515C157.343 145.975 157.343 144.356 157.343 142.682C157.343 141.843 157.37 140.99 157.403 140.123C157.407 139.237 157.498 138.353 157.675 137.485C157.853 136.617 158.122 135.77 158.477 134.957L159.556 132.652L161.613 128.28L165.109 120.878L165.819 119.374C166.064 118.913 166.28 118.452 166.502 118.06L167.604 115.957C167.904 115.39 168.143 114.947 168.309 114.629C168.388 114.491 168.452 114.38 168.499 114.288C168.545 114.195 168.526 114.168 168.531 114.172Z" fill="#455A64"/>
<path d="M164.833 121.528C164.466 120.65 164.158 119.749 163.911 118.83C163.587 117.936 163.323 117.021 163.122 116.091C163.552 116.943 163.892 117.838 164.137 118.761C164.463 119.657 164.696 120.584 164.833 121.528Z" fill="#455A64"/>
<path d="M178.006 156.647C177.977 156.569 177.958 156.487 177.951 156.403C177.93 156.216 177.897 155.98 177.854 155.697C177.771 155.047 177.665 154.162 177.531 153.087C177.278 150.855 176.937 147.825 176.558 144.477C176.18 141.129 175.871 138.062 175.682 135.853C175.595 134.774 175.521 133.889 175.465 133.238C175.465 132.948 175.429 132.713 175.415 132.523C175.409 132.441 175.409 132.357 175.415 132.274C175.444 132.353 175.461 132.435 175.465 132.519C175.488 132.708 175.521 132.943 175.558 133.229C175.631 133.879 175.733 134.76 175.853 135.839C176.097 138.071 176.429 141.106 176.775 144.454C177.121 147.802 177.448 150.832 177.697 153.069C177.799 154.148 177.887 155.033 177.947 155.684C177.97 155.97 177.988 156.209 178.002 156.398C178.011 156.481 178.012 156.564 178.006 156.647Z" fill="#455A64"/>
<path d="M173.517 54.8702C173.245 53.0255 174.827 51.25 176.653 51.0333C178.479 50.8165 180.319 51.9556 181.159 53.6205C181.549 54.4577 181.763 55.3665 181.787 56.2901C181.811 57.2137 181.644 58.1323 181.297 58.9885C180.836 60.1553 179.983 61.3359 178.742 61.4281C177.501 61.5204 176.551 60.575 175.731 59.7033" fill="#263238"/>
<path d="M160.535 64.0197C156.845 55.9353 165.608 51.8724 170.371 53.219C174.854 54.4872 176.768 56.7193 177.506 59.7169C178.314 62.7244 178.153 65.9102 177.045 68.8205C176.464 70.2317 175.421 71.6614 173.909 71.8366" fill="#263238"/>
<path d="M173.231 57.7063C173.61 57.7456 173.961 57.9264 174.213 58.2127C174.465 58.499 174.6 58.8698 174.591 59.2512L173.729 79.8288C173.696 82.2592 170.15 83.6335 167.544 83.5781C164.92 83.5228 164.833 82.2315 164.777 79.921C164.717 76.061 164.717 74.6083 164.717 74.6314C164.717 74.6544 161.397 74.0779 160.71 69.7475C160.364 67.5938 160.475 64.0612 160.654 61.1743C160.82 58.5779 162.541 55.3865 165.132 55.6402L173.231 57.7063Z" fill="#FFB8B8"/>
<path d="M162.351 63.6362C162.348 63.7814 162.403 63.9218 162.503 64.0271C162.603 64.1323 162.74 64.194 162.886 64.1988C162.956 64.2045 163.028 64.1958 163.095 64.1734C163.162 64.1511 163.225 64.1154 163.278 64.0685C163.331 64.0216 163.375 63.9645 163.405 63.9005C163.436 63.8366 163.454 63.7671 163.457 63.6961C163.459 63.5513 163.404 63.4115 163.304 63.3065C163.204 63.2015 163.067 63.1395 162.923 63.1335C162.852 63.1279 162.781 63.1365 162.713 63.1589C162.646 63.1813 162.584 63.217 162.53 63.2639C162.477 63.3107 162.434 63.3678 162.403 63.4318C162.372 63.4958 162.354 63.5653 162.351 63.6362Z" fill="#263238"/>
<path d="M161.433 63.0135C161.502 63.0827 161.926 62.7737 162.521 62.7737C163.116 62.7737 163.559 63.0734 163.623 62.9997C163.688 62.9259 163.586 62.8382 163.393 62.6999C163.134 62.5211 162.826 62.4261 162.512 62.4278C162.201 62.4248 161.899 62.5236 161.65 62.7091C161.465 62.8475 161.4 62.9812 161.433 63.0135Z" fill="#263238"/>
<path d="M168.195 63.636C168.194 63.7779 168.246 63.915 168.342 64.0196C168.438 64.1241 168.57 64.1881 168.712 64.1987C168.783 64.2043 168.854 64.1957 168.921 64.1733C168.989 64.1509 169.051 64.1152 169.104 64.0683C169.157 64.0214 169.201 63.9643 169.232 63.9004C169.263 63.8364 169.28 63.7669 169.284 63.696C169.285 63.5511 169.23 63.4114 169.13 63.3064C169.03 63.2014 168.894 63.1393 168.749 63.1333C168.609 63.1271 168.472 63.1764 168.368 63.2706C168.265 63.3648 168.203 63.4961 168.195 63.636Z" fill="#263238"/>
<path d="M167.327 63.1248C167.396 63.194 167.816 62.885 168.411 62.885C169.005 62.885 169.448 63.1848 169.513 63.1156C169.577 63.0464 169.476 62.9496 169.282 62.8112C169.024 62.6316 168.716 62.5366 168.401 62.5391C168.091 62.5391 167.789 62.6376 167.539 62.8204C167.327 62.9588 167.276 63.0971 167.327 63.1248Z" fill="#263238"/>
<path d="M165.142 67.5576C164.828 67.4606 164.503 67.4018 164.174 67.3823C164.022 67.3823 163.874 67.3362 163.851 67.2347C163.837 67.0742 163.872 66.9132 163.953 66.7736C164.096 66.4046 164.243 66.0172 164.414 65.6114C164.832 64.6268 165.171 63.6106 165.428 62.5723C164.929 63.5201 164.508 64.5073 164.169 65.5238L163.736 66.6952C163.641 66.8797 163.613 67.0918 163.658 67.2947C163.68 67.3483 163.715 67.396 163.759 67.4344C163.803 67.4727 163.855 67.5006 163.911 67.5161C163.996 67.5384 164.082 67.5507 164.169 67.553C164.492 67.5947 164.819 67.5963 165.142 67.5576Z" fill="#263238"/>
<path d="M164.731 74.626C166.779 74.6633 168.796 74.1282 170.556 73.0811C170.556 73.0811 169.145 76.0602 164.81 75.6544L164.731 74.626Z" fill="#EB996E"/>
<path d="M165.395 68.9954C165.51 68.8532 165.658 68.7423 165.826 68.673C165.995 68.6036 166.178 68.5781 166.359 68.5988C166.492 68.6099 166.621 68.6479 166.738 68.7105C166.856 68.7732 166.959 68.8591 167.042 68.9631C167.121 69.0626 167.168 69.184 167.176 69.3109C167.185 69.4379 167.154 69.5644 167.088 69.6733C166.992 69.7811 166.866 69.8577 166.726 69.893C166.587 69.9284 166.439 69.9209 166.304 69.8716C166.02 69.7716 165.76 69.6147 165.538 69.4104C165.471 69.3628 165.414 69.3034 165.368 69.2352C165.346 69.2022 165.335 69.1638 165.335 69.1245C165.335 69.0852 165.346 69.0467 165.368 69.0138" fill="#EB996E"/>
<path d="M166.901 67.9728C166.804 67.9728 166.799 68.6138 166.246 69.075C165.693 69.5361 165.001 69.4623 164.996 69.5361C164.992 69.6099 165.148 69.6607 165.457 69.6699C165.838 69.6742 166.208 69.5454 166.504 69.3055C166.785 69.0744 166.967 68.7443 167.012 68.3832C167.016 68.1296 166.942 67.9681 166.901 67.9728Z" fill="#263238"/>
<path d="M167.041 62.0777C167.101 62.2391 167.7 62.1607 168.401 62.2483C169.102 62.336 169.669 62.5204 169.762 62.3775C169.803 62.3083 169.702 62.1561 169.476 61.9947C169.172 61.7992 168.825 61.6791 168.466 61.6442C168.107 61.5994 167.743 61.6422 167.405 61.7687C167.147 61.8702 167.018 61.9993 167.041 62.0777Z" fill="#263238"/>
<path d="M161.655 61.28C161.761 61.4184 162.171 61.28 162.669 61.28C163.167 61.28 163.592 61.3723 163.679 61.2293C163.721 61.1601 163.679 61.0218 163.472 60.8972C163.229 60.7375 162.941 60.6584 162.651 60.6713C162.36 60.6773 162.079 60.7723 161.844 60.9434C161.668 61.0771 161.608 61.2155 161.655 61.28Z" fill="#263238"/>
<path d="M167.296 54.2199C165.826 54.2949 164.398 54.739 163.145 55.5112C162.443 55.8753 161.819 56.3743 161.309 56.9797C160.799 57.585 160.414 58.2848 160.175 59.0392C160.114 59.1961 160.086 59.3637 160.093 59.5318C160.099 59.6999 160.14 59.865 160.212 60.0169C160.349 60.1906 160.543 60.3109 160.759 60.3573C160.975 60.4036 161.201 60.3729 161.397 60.2705C161.788 60.058 162.121 59.7522 162.366 59.3804C162.463 59.787 162.696 60.1484 163.026 60.4054C163.355 60.6624 163.763 60.7997 164.181 60.7949C164.599 60.7901 165.003 60.6434 165.327 60.3789C165.65 60.1143 165.875 59.7477 165.963 59.3389C165.996 59.7544 166.188 60.1411 166.499 60.4186C166.81 60.6961 167.216 60.8429 167.632 60.8285C168.048 60.7926 168.444 60.6359 168.772 60.3778C169.099 60.1197 169.345 59.7714 169.477 59.3758C169.579 60.1257 169.838 60.8456 170.238 61.488C170.443 61.8069 170.741 62.055 171.091 62.1985C171.442 62.3421 171.828 62.3742 172.198 62.2905C172.043 62.928 172.052 63.5945 172.226 64.2274C172.456 64.8361 173.374 75.2541 173.992 75.0419C174.61 74.8298 174.587 64.2043 174.725 63.5864C175.032 62.401 175.187 61.1814 175.186 59.9569C175.228 58.6955 174.819 57.4605 174.033 56.4729C173.247 55.4852 172.136 54.8092 170.897 54.5658C169.661 54.2822 168.392 54.1659 167.125 54.2199" fill="#263238"/>
<path d="M175.973 73.1915C175.973 73.1915 175.932 73.2191 175.84 73.2514C175.71 73.2989 175.575 73.3314 175.438 73.3483C174.797 73.4297 174.146 73.3273 173.56 73.0529C172.975 72.7786 172.48 72.3437 172.132 71.7987C171.66 70.9777 171.462 70.0282 171.565 69.087C171.634 68.0955 171.864 67.1916 171.97 66.3615C172.075 65.6245 172.139 64.8825 172.164 64.1386C172.164 63.5022 172.164 62.9903 172.164 62.6306C172.144 62.4466 172.144 62.2611 172.164 62.0771C172.219 62.2585 172.251 62.4459 172.261 62.6352C172.311 63.1393 172.336 63.6458 172.335 64.1524C172.334 64.9033 172.286 65.6534 172.192 66.3984C172.09 67.2469 171.874 68.1554 171.804 69.1101C171.706 70.0036 171.886 70.9058 172.321 71.6926C172.7 72.3191 173.283 72.7962 173.972 73.0439C174.435 73.2204 174.93 73.2959 175.425 73.2652C175.78 73.2422 175.969 73.1684 175.973 73.1915Z" fill="#263238"/>
<path d="M165.769 53.6621C165.936 53.9779 166.015 54.3335 165.995 54.6905C166.011 55.5644 165.68 56.4091 165.075 57.04C164.47 57.6708 163.64 58.0365 162.766 58.0571C162.412 58.0911 162.054 58.0273 161.733 57.8726C161.733 57.8311 162.13 57.9418 162.757 57.8726C163.577 57.817 164.347 57.4586 164.917 56.8671C165.487 56.2756 165.817 55.4932 165.842 54.6721C165.856 54.0587 165.727 53.6713 165.769 53.6621Z" fill="#455A64"/>
<path d="M166.406 58.7617C166.429 58.7617 166.373 59.0568 166.041 59.3797C165.821 59.5779 165.563 59.7295 165.282 59.8254C165.002 59.9213 164.704 59.9595 164.409 59.9377C163.829 59.886 163.27 59.6945 162.781 59.3797C162.407 59.1445 162.204 58.9646 162.223 58.9185C162.446 58.9888 162.66 59.0864 162.859 59.209C163.346 59.4619 163.877 59.6185 164.423 59.6702C164.964 59.7021 165.499 59.5385 165.931 59.209C166.267 58.9969 166.378 58.7432 166.406 58.7617Z" fill="#455A64"/>
<path d="M176.85 57.4395C176.881 57.8365 176.853 58.2358 176.767 58.6247C176.637 59.5879 176.272 60.5046 175.706 61.2949C175.411 61.6867 175.038 62.0141 174.612 62.2567C174.185 62.4994 173.713 62.6523 173.225 62.7061C172.929 62.7328 172.63 62.703 172.344 62.6184C172.146 62.5585 172.049 62.4985 172.054 62.4847C172.434 62.5528 172.822 62.5698 173.207 62.5354C174.124 62.3865 174.95 61.8913 175.513 61.1519C176.053 60.3878 176.423 59.5165 176.596 58.597C176.657 58.2063 176.742 57.8197 176.85 57.4395Z" fill="#455A64"/>
<path d="M177.642 59.5371C177.684 59.6557 177.707 59.7802 177.711 59.9061C177.742 60.2418 177.75 60.5792 177.734 60.916C177.71 62.0508 177.304 63.1443 176.581 64.0197C176.173 64.501 175.642 64.8628 175.045 65.0666C174.556 65.2268 174.033 65.2585 173.528 65.1588C173.189 65.094 172.867 64.9589 172.583 64.7622C172.389 64.6193 172.306 64.5132 172.315 64.504C172.694 64.7447 173.115 64.9106 173.556 64.9928C174.032 65.0612 174.517 65.0153 174.971 64.8591C175.525 64.6546 176.018 64.3117 176.401 63.8629C177.086 63.0199 177.494 61.9858 177.568 60.9022C177.642 60.0675 177.6 59.5417 177.642 59.5371Z" fill="#455A64"/>
<path d="M116.857 115.28L108.486 134.423H120.011L128.22 115.128L116.857 115.28Z" fill="#455A64"/>
<path d="M110.77 94.9191L120.211 113.486H149.984L148.78 111.06L140.156 110.802L133.123 95.1497C132.91 94.6729 132.563 94.268 132.124 93.9841C131.686 93.7001 131.174 93.5491 130.652 93.5494H111.61C111.446 93.5436 111.284 93.5812 111.14 93.6585C110.996 93.7358 110.876 93.8499 110.79 93.9893C110.705 94.1286 110.658 94.2881 110.655 94.4515C110.651 94.6149 110.691 94.7763 110.77 94.9191Z" fill="#E0E0E0"/>
<path d="M125.679 103.242C125.679 103.467 125.612 103.687 125.487 103.874C125.361 104.062 125.184 104.208 124.975 104.294C124.767 104.38 124.538 104.403 124.317 104.359C124.096 104.315 123.893 104.206 123.734 104.047C123.575 103.888 123.466 103.685 123.422 103.464C123.378 103.243 123.401 103.014 123.487 102.806C123.573 102.598 123.719 102.42 123.907 102.295C124.094 102.169 124.314 102.103 124.539 102.103C124.841 102.104 125.13 102.224 125.344 102.438C125.557 102.651 125.677 102.94 125.679 103.242Z" fill="#263238"/>
<path d="M153.155 113.522H116.759V115.298H153.155V113.522Z" fill="#455A64"/>
<path d="M141.945 114.412L153.018 134.441H158.312L159.465 132.149L160.526 129.737L153.156 115.298L141.945 114.412Z" fill="#455A64"/>
<path d="M161.186 80.0732C161.186 80.0732 154.758 82.3376 153.374 89.5319L160.163 92.917L161.186 80.0732Z" fill="#6DDEA2"/>
<path d="M161.183 80.0733C161.183 80.0733 156.687 90.1546 156.857 95.661C156.917 97.5749 158.172 102.579 158.172 102.579L160.51 114.966C160.51 114.966 178.408 112.545 178.805 112.545C179.201 112.545 178.205 102.376 178.205 102.376L181.124 82.8357C181.124 82.8357 179.787 80.1748 173.745 79.2524C170.125 78.6852 161.183 80.0733 161.183 80.0733Z" fill="#6DDEA2"/>
<path d="M159.487 85.9248C159.528 85.9479 159.058 86.6996 158.491 88.0001C158.162 88.7615 157.884 89.5442 157.661 90.3429C157.391 91.3215 157.195 92.3188 157.075 93.3267C156.969 94.336 156.936 95.3517 156.978 96.3658C157.02 97.1938 157.117 98.018 157.269 98.8331C157.527 100.217 157.822 101.065 157.776 101.079C157.679 100.895 157.602 100.702 157.545 100.503C157.463 100.274 157.392 100.042 157.333 99.8062C157.259 99.5295 157.162 99.2205 157.098 98.8838C156.925 98.0629 156.811 97.2307 156.757 96.3935C156.701 95.3661 156.728 94.336 156.835 93.3128C156.958 92.291 157.163 91.2808 157.448 90.2921C157.685 89.4883 157.983 88.7036 158.338 87.9448C158.468 87.65 158.613 87.3622 158.772 87.0823C158.882 86.8655 159.004 86.6546 159.136 86.4505C159.235 86.2639 159.352 86.0877 159.487 85.9248Z" fill="#263238"/>
<path d="M163.359 79.9811L163.618 77.214C163.646 76.9265 163.779 76.6594 163.992 76.4638C164.204 76.2681 164.482 76.1576 164.771 76.1533L173.602 76.0196C173.87 76.0164 174.129 76.1152 174.327 76.2959C174.525 76.4765 174.646 76.7256 174.667 76.9927L174.893 79.9765C174.154 81.5435 172.903 82.8122 171.347 83.5736C168.751 84.8326 164.715 84.8742 164.715 84.8742L163.359 79.9811Z" fill="#6DDEA2"/>
<path d="M165.671 76.1765C165.699 76.1765 165.57 76.3564 165.515 76.6377C165.465 77.0451 165.465 77.457 165.515 77.8644C165.592 78.4583 165.592 79.0598 165.515 79.6538C165.356 79.0752 165.275 78.4781 165.275 77.8782C165.213 77.4512 165.232 77.0163 165.33 76.5962C165.482 76.278 165.658 76.1535 165.671 76.1765Z" fill="#263238"/>
<path d="M167.788 79.5988C167.634 79.034 167.559 78.4503 167.567 77.8648C167.532 77.4505 167.532 77.034 167.567 76.6197C167.613 76.2876 167.747 76.117 167.774 76.1585C167.802 76.2 167.733 76.3522 167.737 76.6566C167.742 76.9609 167.788 77.3944 167.788 77.8556C167.866 78.4341 167.866 79.0204 167.788 79.5988Z" fill="#263238"/>
<path d="M170.441 79.5247C170.25 78.9865 170.134 78.4249 170.095 77.8552C169.981 77.2909 169.945 76.7137 169.989 76.1396C170.181 76.682 170.298 77.2485 170.335 77.8229C170.447 78.3828 170.482 78.9552 170.441 79.5247Z" fill="#263238"/>
<path d="M172.728 79.6987C172.518 79.106 172.406 78.4829 172.396 77.854C172.308 77.227 172.323 76.5897 172.443 75.9678C172.563 76.5755 172.628 77.1929 172.636 77.8125C172.726 78.4369 172.757 79.0684 172.728 79.6987Z" fill="#263238"/>
<g opacity="0.3">
<path d="M174.481 90.2656C174.126 93.3693 174.361 98.7189 175.458 101.647L180.614 93.1295L174.481 90.2656Z" fill="black"/>
</g>
<path d="M180.647 82.1953L180.674 82.223C182.137 83.7577 183.206 85.6231 183.792 87.6602L184.742 91.9907L174.596 93.5587C174.038 91.7218 173.905 89.7819 174.209 87.8862C174.707 84.6211 180.647 82.1953 180.647 82.1953Z" fill="#6DDEA2"/>
<path d="M184.741 91.9894C184.675 92.0127 184.607 92.0296 184.538 92.0401L183.957 92.1462L181.785 92.5013L174.434 93.6174H174.305V93.4836C174.282 92.8703 174.263 92.2338 174.249 91.579C174.226 89.8772 174.249 88.2493 174.351 86.7689C174.421 85.4423 174.827 84.1553 175.531 83.0288C176.005 82.2711 176.653 81.6384 177.422 81.1841C177.63 81.0608 177.849 80.9588 178.077 80.8797C178.153 80.8448 178.234 80.8215 178.317 80.8105C178.317 80.8105 177.994 80.9351 177.468 81.2717C176.737 81.7406 176.123 82.3718 175.674 83.1164C175.006 84.2359 174.626 85.5035 174.568 86.8058C174.462 88.2723 174.466 89.8957 174.494 91.5974C174.494 92.2431 174.526 92.8841 174.54 93.4928L174.406 93.3775L181.785 92.3399L183.966 92.0586L184.557 91.9894C184.618 91.9814 184.68 91.9814 184.741 91.9894Z" fill="#263238"/>
<path d="M163.309 85.6295C162.793 85.3288 162.318 84.9613 161.898 84.5365C161.424 84.1709 161.002 83.7427 160.644 83.2637C161.634 83.9298 162.53 84.7255 163.309 85.6295Z" fill="#FAFAFA"/>
<path d="M161.941 90.9668C161.58 91.3383 161.161 91.6497 160.701 91.8891C160.279 92.1951 159.812 92.4347 159.317 92.5994C160.1 91.9267 160.982 91.3791 161.932 90.976L161.941 90.9668Z" fill="#FAFAFA"/>
<path d="M167.6 92.2798C167.518 91.6244 167.518 90.9614 167.6 90.306C167.603 89.647 167.683 88.9908 167.839 88.3506C167.92 89.0045 167.92 89.6659 167.839 90.3198C167.838 90.9803 167.757 91.6383 167.6 92.2798Z" fill="#FAFAFA"/>
<path d="M173.101 97.6167C172.642 97.1858 172.214 96.7235 171.819 96.2331C171.366 95.8011 170.942 95.3388 170.551 94.8496C171.104 95.1708 171.594 95.5913 171.994 96.0902C172.451 96.5295 172.825 97.0464 173.101 97.6167Z" fill="#FAFAFA"/>
<path d="M173.876 86.46C173.48 86.8717 173.029 87.2256 172.534 87.5114C172.081 87.86 171.583 88.1455 171.054 88.36C171.451 87.9476 171.904 87.5936 172.4 87.3085C172.853 86.9618 173.349 86.6764 173.876 86.46Z" fill="#FAFAFA"/>
<path d="M168.902 82.4258C168.464 82.8515 167.971 83.2161 167.436 83.5095C166.945 83.873 166.408 84.1707 165.84 84.395C166.278 83.9685 166.771 83.6025 167.306 83.3066C167.799 82.9476 168.335 82.6517 168.902 82.4258Z" fill="#FAFAFA"/>
<path d="M173.388 84.0294C173.086 83.583 172.849 83.0953 172.687 82.5813C172.46 82.0927 172.305 81.5739 172.226 81.041C172.531 81.487 172.768 81.9768 172.927 82.4937C173.156 82.9797 173.312 83.4973 173.388 84.0294Z" fill="#FAFAFA"/>
<path d="M179.554 86.0542C178.817 85.5428 178.176 84.9041 177.663 84.168C178.054 84.3912 178.402 84.6816 178.692 85.0258C179.039 85.3135 179.331 85.6619 179.554 86.0542Z" fill="#FAFAFA"/>
<path d="M177.011 90.5513C176.864 90.0958 176.797 89.6184 176.812 89.1401C176.744 88.6679 176.758 88.1872 176.854 87.7197C177.066 88.6479 177.119 89.6054 177.011 90.5513Z" fill="#FAFAFA"/>
<path d="M182.136 89.62C181.599 89.7055 181.051 89.6867 180.522 89.5646C179.982 89.5204 179.454 89.3749 178.968 89.1357C179.504 89.1414 180.037 89.2063 180.559 89.3294C181.093 89.3698 181.622 89.4672 182.136 89.62Z" fill="#FAFAFA"/>
<path d="M161.476 98.9114C161.1 98.3907 160.79 97.8253 160.554 97.2281C160.245 96.6645 160.006 96.0651 159.844 95.4434C160.22 95.964 160.53 96.5295 160.766 97.1266C161.076 97.6897 161.315 98.2893 161.476 98.9114Z" fill="#FAFAFA"/>
<path d="M168.25 106.189C167.817 105.795 167.44 105.344 167.129 104.847C166.759 104.394 166.449 103.895 166.207 103.362C166.641 103.756 167.02 104.208 167.332 104.704C167.704 105.155 168.013 105.655 168.25 106.189Z" fill="#FAFAFA"/>
<path d="M173.848 103.137C173.373 103.446 172.858 103.688 172.317 103.856C171.804 104.098 171.259 104.264 170.698 104.35C171.685 103.797 172.745 103.388 173.848 103.137Z" fill="#FAFAFA"/>
<path d="M160.054 109.03C160.275 108.16 160.648 107.335 161.156 106.595C161.078 107.041 160.922 107.471 160.695 107.863C160.551 108.286 160.334 108.681 160.054 109.03Z" fill="#FAFAFA"/>
<path d="M155.715 88.1899C155.449 87.8521 155.288 87.4429 155.254 87.0139C155.145 86.5982 155.165 86.1594 155.309 85.7549C155.404 86.1549 155.466 86.5622 155.494 86.9724C155.6 87.3716 155.674 87.7787 155.715 88.1899Z" fill="#FAFAFA"/>
<path d="M163.422 104.364C162.93 104.234 162.462 104.024 162.039 103.741C161.579 103.533 161.156 103.252 160.784 102.911C161.276 103.043 161.743 103.253 162.168 103.534C162.625 103.746 163.048 104.026 163.422 104.364Z" fill="#FAFAFA"/>
<path d="M167.871 96.6797C167.115 97.5854 166.236 98.3816 165.261 99.0455C165.611 98.5681 166.023 98.14 166.487 97.7727C166.897 97.347 167.362 96.9793 167.871 96.6797Z" fill="#FAFAFA"/>
<g opacity="0.3">
<path d="M165.146 96.5371C165.37 98.1447 166.087 99.6433 167.199 100.826C168.352 101.951 170.136 102.519 171.635 101.933C171.799 101.888 171.949 101.804 172.074 101.688C172.198 101.573 172.293 101.429 172.35 101.269C172.375 101.072 172.332 100.873 172.227 100.705C172.122 100.536 171.961 100.41 171.774 100.346C171.4 100.226 171.008 100.17 170.616 100.18C169.498 100.107 168.417 99.7491 167.476 99.1405C166.534 98.5319 165.764 97.6929 165.239 96.7031" fill="black"/>
</g>
<path d="M171.142 100.255C171.142 100.255 171.036 100.292 170.833 100.31C170.548 100.339 170.261 100.339 169.975 100.31C169.552 100.26 169.136 100.161 168.735 100.015C167.746 99.6593 166.868 99.0502 166.189 98.2486C165.914 97.9237 165.677 97.5677 165.484 97.1879C165.348 96.9348 165.241 96.6671 165.165 96.39C165.128 96.2911 165.108 96.1867 165.105 96.0811C165.152 96.0811 165.276 96.4961 165.631 97.1049C165.839 97.46 166.082 97.7937 166.355 98.101C166.694 98.4748 167.073 98.8104 167.485 99.1017C167.901 99.3838 168.347 99.6204 168.813 99.8073C169.196 99.9579 169.593 100.069 169.999 100.139C170.695 100.241 171.142 100.209 171.142 100.255Z" fill="#263238"/>
<path d="M145.756 107.688L152.434 106.909L157.142 109.994L175.128 105.678L175.552 93.3552L183.544 92.3037V107.223C183.5 109.034 182.739 110.753 181.428 112.004C180.118 113.255 178.364 113.936 176.553 113.896L150.192 113.163L149.072 110.921L143.413 110.751L145.756 107.688Z" fill="#FFB8B8"/>
<path d="M174.914 105.654C174.803 105.698 174.689 105.734 174.572 105.76L173.595 106.014L169.984 106.909L158.048 109.8L156.937 110.068H156.891H156.854L152.15 106.973H152.215L145.532 107.748L145.578 107.72L143.807 109.966L143.346 110.557C143.295 110.627 143.236 110.692 143.171 110.75C143.214 110.675 143.262 110.603 143.314 110.534L143.775 109.925L145.491 107.647H145.518L152.191 106.812H152.228H152.256L156.969 109.892H156.886L157.998 109.625L169.947 106.793L173.576 105.959L174.563 105.742C174.677 105.704 174.795 105.674 174.914 105.654Z" fill="#EB996E"/>
<path d="M149.404 109.602C148.542 109.703 147.674 109.737 146.807 109.703H146.346L146.411 109.68C145.889 110.16 145.326 110.592 144.728 110.972C145.203 110.447 145.721 109.962 146.277 109.523L146.305 109.496H146.817C147.681 109.46 148.546 109.496 149.404 109.602Z" fill="#EB996E"/>
<path d="M178.231 107.67C177.887 107.128 177.441 106.658 176.916 106.287C176.36 105.973 175.747 105.772 175.113 105.697C175.3 105.632 175.5 105.616 175.694 105.651C176.165 105.7 176.618 105.858 177.018 106.112C177.418 106.365 177.754 106.708 178 107.112C178.125 107.275 178.204 107.467 178.231 107.67Z" fill="#EB996E"/>
<path d="M281.63 2.53031C282.172 2.53031 282.61 2.09155 282.61 1.55031C282.61 1.00907 282.172 0.570312 281.63 0.570312C281.089 0.570312 280.65 1.00907 280.65 1.55031C280.65 2.09155 281.089 2.53031 281.63 2.53031Z" fill="#6DDEA2"/>
<path d="M217.98 86.1104C218.521 86.1104 218.96 85.6716 218.96 85.1304C218.96 84.5892 218.521 84.1504 217.98 84.1504C217.439 84.1504 217 84.5892 217 85.1304C217 85.6716 217.439 86.1104 217.98 86.1104Z" fill="#6DDEA2"/>
<path d="M232.4 1.96C232.941 1.96 233.38 1.52124 233.38 0.98C233.38 0.43876 232.941 0 232.4 0C231.859 0 231.42 0.43876 231.42 0.98C231.42 1.52124 231.859 1.96 232.4 1.96Z" fill="#6DDEA2"/>
<path d="M310.23 38.6905C310.771 38.6905 311.21 38.2517 311.21 37.7105C311.21 37.1692 310.771 36.7305 310.23 36.7305C309.689 36.7305 309.25 37.1692 309.25 37.7105C309.25 38.2517 309.689 38.6905 310.23 38.6905Z" fill="#6DDEA2"/>
<path d="M255.859 93.0996V97.4096" stroke="#6DDEA2" stroke-linecap="round" stroke-linejoin="round"/>
<path d="M253.699 95.2598H258.009" stroke="#6DDEA2" stroke-linecap="round" stroke-linejoin="round"/>
<path d="M299.461 19.9297V24.2397" stroke="#6DDEA2" stroke-linecap="round" stroke-linejoin="round"/>
<path d="M297.301 22.0898H301.611" stroke="#6DDEA2" stroke-linecap="round" stroke-linejoin="round"/>
<path d="M250.041 13.8604V18.1703" stroke="#6DDEA2" stroke-linecap="round" stroke-linejoin="round"/>
<path d="M247.891 16.0107H252.191" stroke="#6DDEA2" stroke-linecap="round" stroke-linejoin="round"/>
<path d="M64.6304 96.5303C65.1716 96.5303 65.6104 96.0916 65.6104 95.5503C65.6104 95.0091 65.1716 94.5703 64.6304 94.5703C64.0892 94.5703 63.6504 95.0091 63.6504 95.5503C63.6504 96.0916 64.0892 96.5303 64.6304 96.5303Z" fill="#6DDEA2"/>
<path d="M0.98 180.11C1.52124 180.11 1.96 179.672 1.96 179.13C1.96 178.589 1.52124 178.15 0.98 178.15C0.43876 178.15 0 178.589 0 179.13C0 179.672 0.43876 180.11 0.98 180.11Z" fill="#6DDEA2"/>
<path d="M15.3999 95.96C15.9412 95.96 16.3799 95.5212 16.3799 94.98C16.3799 94.4388 15.9412 94 15.3999 94C14.8587 94 14.4199 94.4388 14.4199 94.98C14.4199 95.5212 14.8587 95.96 15.3999 95.96Z" fill="#6DDEA2"/>
<path d="M93.23 132.69C93.7712 132.69 94.21 132.252 94.21 131.71C94.21 131.169 93.7712 130.73 93.23 130.73C92.6888 130.73 92.25 131.169 92.25 131.71C92.25 132.252 92.6888 132.69 93.23 132.69Z" fill="#6DDEA2"/>
<path d="M38.8594 187.1V191.41" stroke="#6DDEA2" stroke-linecap="round" stroke-linejoin="round"/>
<path d="M36.6992 189.26H41.0092" stroke="#6DDEA2" stroke-linecap="round" stroke-linejoin="round"/>
<path d="M82.4609 113.93V118.24" stroke="#6DDEA2" stroke-linecap="round" stroke-linejoin="round"/>
<path d="M80.3008 116.09H84.6108" stroke="#6DDEA2" stroke-linecap="round" stroke-linejoin="round"/>
<path d="M33.041 107.86V112.17" stroke="#6DDEA2" stroke-linecap="round" stroke-linejoin="round"/>
<path d="M30.8906 110.011H35.1906" stroke="#6DDEA2" stroke-linecap="round" stroke-linejoin="round"/>
</svg>
