<svg width="313" height="223" viewBox="0 0 313 223" fill="none" xmlns="http://www.w3.org/2000/svg">
<path d="M109.641 14.7404C109.641 14.7404 136.434 45.4564 194.119 10.3608C245.348 -20.8072 267.297 49.6692 261.269 79.9912C253.459 119.271 203.713 141.684 219.361 171.789C235.01 201.894 163.59 231.451 137.478 187.65C104.995 133.164 85.9146 168.011 61.9903 163.052C44.8198 159.493 18.4091 109.523 48.7932 82.7158C74.361 60.1578 65.2729 49.0291 61.9007 38.6726C57.0371 23.7363 82.6739 -8.75633 109.641 14.7404Z" fill="#D7F3E4"/>
<path d="M239.431 40.3912L238.29 38.5138C228.659 22.6452 211.251 13.0799 192.895 14.2439C190.529 14.3847 188.176 14.6985 185.855 15.1826C169.165 18.7731 154.658 31.3938 148.641 47.5581C145.102 57.0624 144.111 68.0075 137.376 75.5546C128.632 85.3734 113.792 85.6831 100.739 85.2748C87.6865 84.8665 72.8364 85.2138 64.13 95.0748C58.709 101.247 56.9912 110.028 57.4136 118.275C58.5776 140.17 73.8408 159.741 93.2342 169.471C112.628 179.2 135.475 180.069 156.704 175.793C186.446 169.795 214.729 153.33 231.729 127.92C248.729 102.509 253.033 67.8386 239.431 40.3912Z" fill="#DCF0E5"/>
<path d="M245.497 213.553C245.497 213.623 200.811 213.675 145.7 213.675C90.5894 213.675 45.8936 213.637 45.8936 213.553C45.8936 213.468 90.5707 213.431 145.7 213.431C200.83 213.431 245.497 213.501 245.497 213.553Z" fill="#263238"/>
<path d="M166.461 169.293L108.938 169.26C105.616 169.258 102.431 167.937 100.083 165.587C97.735 163.237 96.416 160.051 96.416 156.729L96.4442 12.5269C96.4448 10.8812 96.7695 9.25176 97.3999 7.7316C98.0302 6.21144 98.9538 4.83032 100.118 3.66709C101.282 2.50386 102.664 1.58131 104.184 0.952112C105.705 0.322912 107.335 -0.000615591 108.98 8.79336e-07L166.504 0.032855C169.826 0.0353434 173.011 1.35673 175.359 3.70658C177.707 6.05643 179.026 9.24246 179.026 12.5644L178.998 156.766C178.997 158.412 178.672 160.042 178.042 161.562C177.412 163.082 176.488 164.463 175.324 165.626C174.16 166.789 172.778 167.712 171.257 168.341C169.737 168.97 168.107 169.294 166.461 169.293Z" fill="#455A64"/>
<path d="M166.119 8.26525H154.967C154.236 8.2825 153.541 8.58815 153.033 9.11561C152.526 9.64308 152.248 10.3496 152.259 11.0813V13.1042C152.272 13.8363 151.994 14.5435 151.486 15.0713C150.979 15.599 150.283 15.9043 149.551 15.9203H127.816C127.084 15.9043 126.388 15.599 125.88 15.0713C125.373 14.5435 125.095 13.8363 125.107 13.1042V11.0719C125.119 10.3402 124.841 9.63369 124.333 9.10623C123.826 8.57876 123.131 8.27311 122.399 8.25586H108.718C106.394 8.25337 104.164 9.17325 102.517 10.8135C100.871 12.4538 99.9426 14.6804 99.9364 17.0045L99.9082 157.757C99.9082 160.083 100.832 162.314 102.476 163.96C104.119 165.605 106.349 166.531 108.676 166.534L166.081 166.566C167.234 166.568 168.376 166.342 169.441 165.901C170.507 165.461 171.475 164.815 172.29 164.001C173.106 163.186 173.753 162.218 174.194 161.153C174.636 160.089 174.863 158.947 174.863 157.794L174.891 17.042C174.892 15.8897 174.665 14.7485 174.225 13.6837C173.784 12.6188 173.138 11.6513 172.323 10.8362C171.509 10.0211 170.542 9.37457 169.477 8.93344C168.412 8.4923 167.271 8.26525 166.119 8.26525Z" fill="white"/>
<path d="M107.746 25.4152C107.688 25.4154 107.633 25.3936 107.591 25.3542L105.404 23.4393C105.378 23.4174 105.358 23.3899 105.345 23.359C105.332 23.328 105.326 23.2944 105.329 23.2609C105.328 23.2279 105.335 23.1952 105.349 23.1652C105.363 23.1352 105.383 23.1086 105.408 23.0873L107.596 21.2709C107.642 21.234 107.702 21.2168 107.761 21.2229C107.821 21.229 107.875 21.258 107.914 21.3037C107.952 21.3495 107.971 21.4083 107.967 21.4679C107.963 21.5274 107.936 21.583 107.891 21.6229L105.911 23.2703L107.896 25.0116C107.939 25.0546 107.963 25.1128 107.963 25.1735C107.963 25.2342 107.939 25.2924 107.896 25.3354C107.858 25.3806 107.804 25.4093 107.746 25.4152Z" fill="#263238"/>
<path d="M123.154 24.0887H121.849L121.633 24.7129H120.943L122.121 21.4322H122.886L124.064 24.7129H123.37L123.154 24.0887ZM122.976 23.563L122.502 22.1925L122.028 23.563H122.976ZM124.336 23.4034C124.336 23.1406 124.387 22.9075 124.491 22.7041C124.597 22.5007 124.741 22.3443 124.923 22.2347C125.104 22.1252 125.306 22.0705 125.528 22.0705C125.697 22.0705 125.858 22.108 126.011 22.1831C126.165 22.2551 126.287 22.3521 126.378 22.4741V21.2397H127.044V24.7129H126.378V24.328C126.296 24.4563 126.182 24.5596 126.035 24.6378C125.888 24.716 125.717 24.7551 125.523 24.7551C125.304 24.7551 125.104 24.6988 124.923 24.5862C124.741 24.4735 124.597 24.3155 124.491 24.1121C124.387 23.9056 124.336 23.6694 124.336 23.4034ZM126.382 23.4128C126.382 23.2532 126.351 23.1171 126.288 23.0045C126.226 22.8887 126.141 22.8011 126.035 22.7416C125.929 22.6791 125.814 22.6478 125.692 22.6478C125.57 22.6478 125.458 22.6775 125.354 22.7369C125.251 22.7964 125.167 22.884 125.101 22.9998C125.038 23.1124 125.007 23.247 125.007 23.4034C125.007 23.5599 125.038 23.6975 125.101 23.8164C125.167 23.9322 125.251 24.0214 125.354 24.084C125.461 24.1465 125.573 24.1778 125.692 24.1778C125.814 24.1778 125.929 24.1481 126.035 24.0887C126.141 24.0261 126.226 23.9385 126.288 23.8258C126.351 23.7101 126.382 23.5724 126.382 23.4128ZM127.517 23.4034C127.517 23.1406 127.568 22.9075 127.672 22.7041C127.778 22.5007 127.922 22.3443 128.103 22.2347C128.285 22.1252 128.487 22.0705 128.709 22.0705C128.878 22.0705 129.039 22.108 129.192 22.1831C129.346 22.2551 129.468 22.3521 129.558 22.4741V21.2397H130.225V24.7129H129.558V24.328C129.477 24.4563 129.363 24.5596 129.216 24.6378C129.069 24.716 128.898 24.7551 128.704 24.7551C128.485 24.7551 128.285 24.6988 128.103 24.5862C127.922 24.4735 127.778 24.3155 127.672 24.1121C127.568 23.9056 127.517 23.6694 127.517 23.4034ZM129.563 23.4128C129.563 23.2532 129.532 23.1171 129.469 23.0045C129.407 22.8887 129.322 22.8011 129.216 22.7416C129.109 22.6791 128.995 22.6478 128.873 22.6478C128.751 22.6478 128.639 22.6775 128.535 22.7369C128.432 22.7964 128.348 22.884 128.282 22.9998C128.219 23.1124 128.188 23.247 128.188 23.4034C128.188 23.5599 128.219 23.6975 128.282 23.8164C128.348 23.9322 128.432 24.0214 128.535 24.084C128.642 24.1465 128.754 24.1778 128.873 24.1778C128.995 24.1778 129.109 24.1481 129.216 24.0887C129.322 24.0261 129.407 23.9385 129.469 23.8258C129.532 23.7101 129.563 23.5724 129.563 23.4128ZM131.825 23.0702C131.825 22.7479 131.897 22.46 132.041 22.2066C132.188 21.95 132.387 21.7513 132.637 21.6105C132.891 21.4666 133.174 21.3946 133.487 21.3946C133.853 21.3946 134.174 21.4885 134.449 21.6762C134.724 21.864 134.917 22.1237 135.026 22.4553H134.271C134.196 22.2989 134.089 22.1815 133.952 22.1033C133.817 22.0251 133.661 21.986 133.482 21.986C133.291 21.986 133.121 22.0314 132.971 22.1221C132.824 22.2097 132.708 22.3349 132.623 22.4976C132.542 22.6603 132.501 22.8511 132.501 23.0702C132.501 23.2861 132.542 23.4769 132.623 23.6428C132.708 23.8055 132.824 23.9322 132.971 24.023C133.121 24.1106 133.291 24.1544 133.482 24.1544C133.661 24.1544 133.817 24.1153 133.952 24.037C134.089 23.9557 134.196 23.8368 134.271 23.6803H135.026C134.917 24.0151 134.724 24.2764 134.449 24.4641C134.177 24.6487 133.856 24.7411 133.487 24.7411C133.174 24.7411 132.891 24.6706 132.637 24.5298C132.387 24.3859 132.188 24.1872 132.041 23.9338C131.897 23.6803 131.825 23.3925 131.825 23.0702ZM135.419 23.4034C135.419 23.1406 135.47 22.9075 135.574 22.7041C135.68 22.5007 135.822 22.3443 136.001 22.2347C136.182 22.1252 136.384 22.0705 136.606 22.0705C136.8 22.0705 136.969 22.1096 137.113 22.1878C137.26 22.266 137.377 22.3646 137.465 22.4835V22.1127H138.127V24.7129H137.465V24.3327C137.381 24.4547 137.263 24.5564 137.113 24.6378C136.966 24.716 136.795 24.7551 136.601 24.7551C136.382 24.7551 136.182 24.6988 136.001 24.5862C135.822 24.4735 135.68 24.3155 135.574 24.1121C135.47 23.9056 135.419 23.6694 135.419 23.4034ZM137.465 23.4128C137.465 23.2532 137.434 23.1171 137.371 23.0045C137.309 22.8887 137.224 22.8011 137.118 22.7416C137.011 22.6791 136.897 22.6478 136.775 22.6478C136.653 22.6478 136.54 22.6775 136.437 22.7369C136.334 22.7964 136.249 22.884 136.184 22.9998C136.121 23.1124 136.09 23.247 136.09 23.4034C136.09 23.5599 136.121 23.6975 136.184 23.8164C136.249 23.9322 136.334 24.0214 136.437 24.084C136.544 24.1465 136.656 24.1778 136.775 24.1778C136.897 24.1778 137.011 24.1481 137.118 24.0887C137.224 24.0261 137.309 23.9385 137.371 23.8258C137.434 23.7101 137.465 23.5724 137.465 23.4128ZM139.534 22.6525V23.9103C139.534 23.9979 139.554 24.0621 139.595 24.1027C139.638 24.1403 139.71 24.1591 139.811 24.1591H140.116V24.7129H139.703C139.149 24.7129 138.872 24.4438 138.872 23.9056V22.6525H138.562V22.1127H138.872V21.4697H139.534V22.1127H140.116V22.6525H139.534ZM143.005 23.3565C143.005 23.4503 142.999 23.5348 142.987 23.6099H141.086C141.101 23.7977 141.167 23.9447 141.283 24.0511C141.399 24.1575 141.541 24.2107 141.71 24.2107C141.954 24.2107 142.128 24.1059 142.231 23.8962H142.94C142.865 24.1465 142.721 24.3531 142.508 24.5158C142.295 24.6753 142.034 24.7551 141.724 24.7551C141.474 24.7551 141.248 24.7004 141.048 24.5909C140.851 24.4782 140.696 24.3202 140.583 24.1168C140.474 23.9134 140.419 23.6788 140.419 23.4128C140.419 23.1437 140.474 22.9075 140.583 22.7041C140.693 22.5007 140.846 22.3443 141.043 22.2347C141.241 22.1252 141.467 22.0705 141.724 22.0705C141.971 22.0705 142.192 22.1237 142.386 22.23C142.583 22.3364 142.735 22.4882 142.841 22.6853C142.951 22.8793 143.005 23.103 143.005 23.3565ZM142.325 23.1687C142.322 22.9998 142.261 22.8652 142.142 22.7651C142.023 22.6618 141.877 22.6102 141.705 22.6102C141.543 22.6102 141.405 22.6603 141.292 22.7604C141.183 22.8574 141.115 22.9935 141.09 23.1687H142.325ZM144.503 22.0705C144.697 22.0705 144.868 22.1096 145.015 22.1878C145.162 22.2629 145.278 22.3615 145.362 22.4835V22.1127H146.024V24.7317C146.024 24.9726 145.976 25.1869 145.879 25.3747C145.782 25.5655 145.636 25.7157 145.442 25.8252C145.248 25.9379 145.013 25.9942 144.738 25.9942C144.369 25.9942 144.065 25.9082 143.828 25.7361C143.593 25.564 143.46 25.3293 143.429 25.032H144.081C144.115 25.1509 144.189 25.2448 144.302 25.3137C144.417 25.3856 144.557 25.4216 144.719 25.4216C144.91 25.4216 145.065 25.3637 145.184 25.2479C145.303 25.1353 145.362 24.9632 145.362 24.7317V24.328C145.278 24.4501 145.161 24.5517 145.01 24.6331C144.863 24.7145 144.694 24.7551 144.503 24.7551C144.284 24.7551 144.084 24.6988 143.903 24.5862C143.721 24.4735 143.577 24.3155 143.471 24.1121C143.368 23.9056 143.316 23.6694 143.316 23.4034C143.316 23.1406 143.368 22.9075 143.471 22.7041C143.577 22.5007 143.72 22.3443 143.898 22.2347C144.079 22.1252 144.281 22.0705 144.503 22.0705ZM145.362 23.4128C145.362 23.2532 145.331 23.1171 145.268 23.0045C145.206 22.8887 145.121 22.8011 145.015 22.7416C144.909 22.6791 144.794 22.6478 144.672 22.6478C144.55 22.6478 144.438 22.6775 144.334 22.7369C144.231 22.7964 144.147 22.884 144.081 22.9998C144.018 23.1124 143.987 23.247 143.987 23.4034C143.987 23.5599 144.018 23.6975 144.081 23.8164C144.147 23.9322 144.231 24.0214 144.334 24.084C144.441 24.1465 144.553 24.1778 144.672 24.1778C144.794 24.1778 144.909 24.1481 145.015 24.0887C145.121 24.0261 145.206 23.9385 145.268 23.8258C145.331 23.7101 145.362 23.5724 145.362 23.4128ZM147.82 24.7551C147.57 24.7551 147.345 24.7004 147.145 24.5909C146.944 24.4782 146.786 24.3202 146.671 24.1168C146.558 23.9134 146.502 23.6788 146.502 23.4128C146.502 23.1468 146.559 22.9122 146.675 22.7088C146.794 22.5054 146.955 22.3489 147.159 22.2394C147.362 22.1268 147.589 22.0705 147.839 22.0705C148.09 22.0705 148.316 22.1268 148.52 22.2394C148.723 22.3489 148.883 22.5054 148.999 22.7088C149.117 22.9122 149.177 23.1468 149.177 23.4128C149.177 23.6788 149.116 23.9134 148.994 24.1168C148.875 24.3202 148.712 24.4782 148.506 24.5909C148.302 24.7004 148.074 24.7551 147.82 24.7551ZM147.82 24.1825C147.939 24.1825 148.05 24.1544 148.154 24.098C148.26 24.0386 148.345 23.951 148.407 23.8352C148.47 23.7194 148.501 23.5786 148.501 23.4128C148.501 23.1656 148.435 22.9763 148.304 22.8449C148.176 22.7103 148.018 22.6431 147.83 22.6431C147.642 22.6431 147.484 22.7103 147.356 22.8449C147.231 22.9763 147.168 23.1656 147.168 23.4128C147.168 23.66 147.229 23.8509 147.351 23.9854C147.476 24.1168 147.633 24.1825 147.82 24.1825ZM150.316 22.5163C150.4 22.3787 150.51 22.2707 150.644 22.1925C150.782 22.1143 150.939 22.0752 151.114 22.0752V22.7651H150.94C150.734 22.7651 150.577 22.8136 150.471 22.9106C150.368 23.0076 150.316 23.1766 150.316 23.4175V24.7129H149.659V22.1127H150.316V22.5163ZM154.044 22.1127L152.434 25.9426H151.735L152.298 24.6472L151.256 22.1127H151.993L152.664 23.9291L153.345 22.1127H154.044Z" fill="#455A64"/>
<path d="M174.548 30.0849C174.548 30.1506 157.76 30.207 137.057 30.207C116.354 30.207 99.5654 30.1506 99.5654 30.0849C99.5654 30.0192 116.349 29.9629 137.057 29.9629C157.764 29.9629 174.548 30.038 174.548 30.0849Z" fill="#E0E0E0"/>
<path d="M174.548 49.6992C174.548 49.7696 157.76 49.8212 137.057 49.8212C116.354 49.8212 99.5654 49.7696 99.5654 49.6992C99.5654 49.6288 116.349 49.5771 137.057 49.5771C157.764 49.5771 174.548 49.6335 174.548 49.6992Z" fill="#E0E0E0"/>
<path d="M175.012 76.3347C175.012 76.4004 158.224 76.4568 137.521 76.4568C116.818 76.4568 100.029 76.4004 100.029 76.3347C100.029 76.269 116.813 76.208 137.521 76.208C158.228 76.208 175.012 76.2643 175.012 76.3347Z" fill="#E0E0E0"/>
<path d="M175.024 102.073C175.024 102.139 158.235 102.195 137.532 102.195C116.83 102.195 100.041 102.139 100.041 102.073C100.041 102.007 116.82 101.951 137.532 101.951C158.245 101.951 175.024 102.007 175.024 102.073Z" fill="#E0E0E0"/>
<path d="M175.024 128.103C175.024 128.168 158.235 128.225 137.532 128.225C116.83 128.225 100.041 128.168 100.041 128.103C100.041 128.037 116.82 127.98 137.532 127.98C158.245 127.98 175.024 128.037 175.024 128.103Z" fill="#E0E0E0"/>
<path d="M166.767 35.7793H109.981C108.143 35.7793 106.653 37.2691 106.653 39.107V41.6367C106.653 43.4746 108.143 44.9644 109.981 44.9644H166.767C168.605 44.9644 170.095 43.4746 170.095 41.6367V39.107C170.095 37.2691 168.605 35.7793 166.767 35.7793Z" fill="#EBEBEB"/>
<path d="M164.312 41.8565C163.881 41.8565 163.46 41.7288 163.102 41.4895C162.744 41.2502 162.464 40.9101 162.3 40.5121C162.135 40.1142 162.092 39.6763 162.176 39.2539C162.26 38.8314 162.467 38.4434 162.772 38.1388C163.076 37.8343 163.464 37.6269 163.887 37.5428C164.309 37.4588 164.747 37.5019 165.145 37.6667C165.543 37.8316 165.883 38.1107 166.122 38.4688C166.362 38.827 166.489 39.248 166.489 39.6787C166.489 40.2563 166.26 40.8102 165.851 41.2187C165.443 41.6271 164.889 41.8565 164.312 41.8565ZM164.312 37.7357C163.927 37.7357 163.552 37.8496 163.232 38.0631C162.912 38.2766 162.663 38.5801 162.516 38.9352C162.369 39.2902 162.331 39.6809 162.406 40.0578C162.481 40.4347 162.666 40.781 162.938 41.0527C163.209 41.3245 163.556 41.5095 163.932 41.5845C164.309 41.6595 164.7 41.621 165.055 41.4739C165.41 41.3269 165.714 41.0778 165.927 40.7583C166.141 40.4387 166.255 40.0631 166.255 39.6787C166.255 39.1634 166.05 38.6692 165.686 38.3048C165.321 37.9404 164.827 37.7357 164.312 37.7357Z" fill="#263238"/>
<path d="M167.11 42.2126C167.088 42.2192 167.066 42.2192 167.044 42.2126L165.716 41.2317C165.704 41.2225 165.693 41.2109 165.685 41.1976C165.677 41.1844 165.672 41.1697 165.67 41.1544C165.668 41.1392 165.669 41.1236 165.673 41.1087C165.676 41.0938 165.683 41.0798 165.692 41.0674C165.702 41.0551 165.713 41.0447 165.727 41.0369C165.74 41.029 165.754 41.0239 165.77 41.0217C165.785 41.0195 165.8 41.0204 165.815 41.0242C165.83 41.028 165.844 41.0347 165.857 41.044L167.18 42.0249C167.193 42.0338 167.204 42.0451 167.212 42.0582C167.22 42.0713 167.226 42.0859 167.229 42.1012C167.231 42.1165 167.231 42.1321 167.227 42.1472C167.224 42.1623 167.217 42.1766 167.208 42.1892C167.194 42.1994 167.178 42.2068 167.161 42.2108C167.145 42.2148 167.127 42.2155 167.11 42.2126Z" fill="#263238"/>
<path d="M154.822 142.141C154.801 142.142 154.78 142.138 154.76 142.131C154.74 142.123 154.722 142.111 154.707 142.096C154.691 142.081 154.679 142.064 154.671 142.044C154.662 142.024 154.658 142.003 154.658 141.982V141.123C154.665 141.085 154.685 141.05 154.714 141.025C154.744 141 154.781 140.986 154.82 140.986C154.859 140.986 154.896 141 154.926 141.025C154.956 141.05 154.976 141.085 154.982 141.123V141.982C154.982 142.024 154.965 142.065 154.935 142.095C154.905 142.125 154.865 142.141 154.822 142.141Z" fill="white"/>
<path d="M133.88 158.954C134.557 158.954 135.105 158.405 135.105 157.729C135.105 157.052 134.557 156.504 133.88 156.504C133.204 156.504 132.655 157.052 132.655 157.729C132.655 158.405 133.204 158.954 133.88 158.954Z" fill="#EBEBEB"/>
<path d="M138.413 158.954C139.09 158.954 139.638 158.405 139.638 157.729C139.638 157.052 139.09 156.504 138.413 156.504C137.737 156.504 137.188 157.052 137.188 157.729C137.188 158.405 137.737 158.954 138.413 158.954Z" fill="#EBEBEB"/>
<path d="M142.948 158.954C143.624 158.954 144.173 158.405 144.173 157.729C144.173 157.052 143.624 156.504 142.948 156.504C142.271 156.504 141.723 157.052 141.723 157.729C141.723 158.405 142.271 158.954 142.948 158.954Z" fill="#EBEBEB"/>
<path d="M165.63 21.4064C165.802 21.3062 165.984 21.2274 166.175 21.1718L166.283 20.6367H167.189L167.315 21.1671C167.508 21.2131 167.692 21.2858 167.865 21.383L168.334 21.0826L168.986 21.7115L168.705 22.1809C168.805 22.352 168.884 22.5349 168.939 22.7253L169.474 22.8333V23.7391L168.944 23.8658C168.898 24.058 168.825 24.2429 168.728 24.415L169.029 24.8843L168.4 25.5367L167.93 25.2551C167.76 25.3545 167.579 25.4333 167.391 25.4898L167.287 25.992H166.381L166.255 25.4616C166.062 25.4156 165.878 25.3429 165.706 25.2457L165.236 25.5461L164.584 24.9172L164.865 24.4478C164.765 24.2766 164.686 24.0938 164.631 23.9034L164.096 23.7954V22.8896L164.626 22.7629C164.672 22.5706 164.745 22.3858 164.842 22.2137L164.542 21.7444L165.166 21.1201L165.635 21.4018L165.63 21.4064ZM166.1 22.6127C165.966 22.7507 165.876 22.9253 165.841 23.1145C165.807 23.3038 165.829 23.499 165.905 23.6755C165.982 23.852 166.109 24.0019 166.27 24.1061C166.432 24.2103 166.621 24.2642 166.813 24.2609C167.006 24.2576 167.193 24.1973 167.351 24.0876C167.509 23.9779 167.631 23.8238 167.701 23.6448C167.771 23.4657 167.787 23.2698 167.746 23.0819C167.705 22.894 167.609 22.7225 167.47 22.5892C167.286 22.4154 167.041 22.3206 166.787 22.325C166.534 22.3294 166.292 22.4326 166.114 22.6127H166.1Z" fill="#263238"/>
<path d="M109.727 98.0923C109.727 98.0923 109.727 97.7309 109.727 97.2897C109.727 96.8485 109.727 96.4824 109.727 96.4824C109.727 96.4824 109.727 96.8438 109.727 97.2897C109.727 97.7356 109.736 98.0923 109.727 98.0923Z" fill="#263238"/>
<path d="M121.431 123.095C125.462 119.064 125.462 112.529 121.431 108.499C117.401 104.468 110.866 104.468 106.835 108.499C102.805 112.529 102.805 119.064 106.835 123.095C110.866 127.125 117.401 127.125 121.431 123.095Z" fill="#F5F5F5"/>
<path d="M225.273 54.6226L229.436 54.111C231.853 56.3288 235.013 57.5621 238.294 57.5686C241.574 57.5751 244.739 56.3542 247.165 54.146C249.591 51.9378 251.104 48.9019 251.406 45.6351C251.707 42.3683 250.776 39.1068 248.795 36.4917C246.814 33.8766 243.927 32.097 240.7 31.5026C237.474 30.9083 234.142 31.5423 231.359 33.2799C228.576 35.0175 226.544 37.7332 225.662 40.893C224.78 44.0529 225.111 47.4285 226.591 50.3563L225.273 54.6226Z" fill="white"/>
<path d="M225.273 54.6228C225.273 54.6228 225.273 54.5336 225.344 54.3553L225.583 53.5386C225.804 52.8017 226.123 51.7222 226.522 50.3236C226.524 50.3171 226.527 50.3111 226.532 50.3059C226.536 50.3007 226.542 50.2965 226.548 50.2934C226.554 50.2904 226.561 50.2886 226.567 50.2881C226.574 50.2876 226.581 50.2885 226.588 50.2907C226.595 50.2885 226.603 50.2885 226.611 50.2907L226.527 50.3517C225.521 48.3862 225.027 46.199 225.09 43.9921C225.129 42.5706 225.403 41.1653 225.902 39.8337C226.82 37.3446 228.462 35.1875 230.617 33.6407C232.772 32.0938 235.341 31.2282 237.993 31.1555C240.071 31.1104 242.13 31.5541 244.005 32.4509C245.88 33.3476 247.518 34.6724 248.788 36.3183C250.113 38.0181 250.998 40.0188 251.364 42.1429C251.711 44.1675 251.592 46.2443 251.017 48.2162C250.458 50.0695 249.496 51.7763 248.201 53.2148C247.012 54.5472 245.567 55.6277 243.953 56.3922C241.194 57.6938 238.07 58.0006 235.111 57.2605C232.975 56.7233 231.01 55.6544 229.399 54.1535H229.441L226.32 54.5055L225.532 54.5899H225.273L225.55 54.5477L226.353 54.4398L229.427 54.0267C229.441 54.0212 229.456 54.0212 229.469 54.0267C230.752 55.1933 232.254 56.0934 233.887 56.6748C235.521 57.2561 237.254 57.5071 238.985 57.4133C240.716 57.3194 242.412 56.8825 243.973 56.1279C245.534 55.3733 246.93 54.3161 248.079 53.0176C249.341 51.6142 250.28 49.9512 250.829 48.1458C251.395 46.209 251.509 44.1682 251.163 42.1804C250.802 40.0973 249.933 38.1354 248.633 36.4685C247.21 34.6284 245.321 33.2027 243.162 32.3392C241.003 31.4757 238.651 31.2059 236.352 31.558C234.053 31.91 231.891 32.8709 230.089 34.341C228.286 35.8111 226.911 37.7368 226.104 39.9182C225.607 41.2298 225.328 42.6139 225.278 44.0156C225.203 46.1995 225.674 48.3676 226.649 50.3236C226.657 50.3331 226.662 50.3457 226.662 50.3588C226.662 50.3718 226.657 50.3844 226.649 50.394C226.639 50.4016 226.628 50.4058 226.616 50.4058C226.604 50.4058 226.592 50.4016 226.583 50.394H226.677L225.635 53.5058C225.517 53.8625 225.428 54.1347 225.367 54.3271L225.273 54.6228Z" fill="#263238"/>
<path d="M240.362 45.404C240.848 45.1907 241.26 44.8395 241.548 44.3939C241.836 43.9484 241.987 43.4281 241.982 42.8976C242.009 42.5475 241.964 42.1954 241.85 41.8634C241.735 41.5314 241.553 41.2267 241.315 40.9682C241.078 40.7097 240.789 40.503 240.468 40.3611C240.146 40.2193 239.799 40.1452 239.448 40.1436C239.097 40.142 238.749 40.2128 238.426 40.3517C238.104 40.4907 237.813 40.6946 237.573 40.9509C237.333 41.2072 237.148 41.5103 237.031 41.8412C236.913 42.1721 236.865 42.5238 236.889 42.8742C236.879 43.4092 237.028 43.9353 237.317 44.3856C237.606 44.8359 238.022 45.1904 238.513 45.404C236.913 45.6386 235.448 47.4034 235.279 48.6894H243.512C243.512 47.5489 241.972 45.8311 240.362 45.404Z" fill="#263238"/>
<path d="M233.05 45.5637C232.979 45.5637 232.908 45.5496 232.842 45.5222C232.776 45.4948 232.717 45.4546 232.667 45.404C232.616 45.3534 232.577 45.2933 232.55 45.2273C232.523 45.1613 232.51 45.0906 232.51 45.0193V42.1516C232.503 42.0761 232.512 42.0001 232.536 41.9283C232.56 41.8564 232.599 41.7904 232.65 41.7344C232.701 41.6784 232.763 41.6337 232.832 41.6031C232.902 41.5725 232.977 41.5566 233.052 41.5566C233.128 41.5566 233.203 41.5725 233.272 41.6031C233.342 41.6337 233.404 41.6784 233.455 41.7344C233.506 41.7904 233.544 41.8564 233.569 41.9283C233.593 42.0001 233.601 42.0761 233.594 42.1516V45.0193C233.594 45.1637 233.537 45.3022 233.435 45.4043C233.333 45.5064 233.194 45.5637 233.05 45.5637Z" fill="#263238"/>
<path d="M234.486 44.1184H231.614C231.479 44.1058 231.353 44.0432 231.262 43.943C231.171 43.8427 231.12 43.7119 231.12 43.5763C231.12 43.4406 231.171 43.3099 231.262 43.2096C231.353 43.1093 231.479 43.0468 231.614 43.0342H234.486C234.622 43.0468 234.747 43.1093 234.838 43.2096C234.93 43.3099 234.98 43.4406 234.98 43.5763C234.98 43.7119 234.93 43.8427 234.838 43.943C234.747 44.0432 234.622 44.1058 234.486 44.1184Z" fill="#263238"/>
<path d="M218.611 59.7426C218.639 57.2269 219.038 54.7206 218.939 52.2049C218.841 49.6892 218.184 47.075 216.428 45.268C214.673 43.461 211.632 42.7805 209.576 44.2354L209.158 46.3757L211.58 75.4751C211.688 76.7471 211.801 78.0566 212.383 79.1971C212.965 80.3376 214.124 81.2763 215.401 81.2012C217.071 81.0979 218.165 79.4036 218.686 77.8125C220.568 72.0489 218.54 65.8066 218.611 59.7426Z" fill="#263238"/>
<path d="M212.56 46.6999C212.227 46.0601 211.796 45.4759 211.284 44.968C211.025 44.715 210.713 44.5239 210.37 44.4093C210.027 44.2946 209.662 44.2594 209.303 44.3063C209.134 44.3259 208.973 44.389 208.836 44.4894C208.699 44.5897 208.589 44.7239 208.519 44.8789C208.407 45.198 208.646 45.6251 208.989 45.597L209.059 45.658C209.816 46.3244 210.583 46.9768 211.359 47.6151C211.546 47.7865 211.764 47.9204 212.002 48.0094C212.121 48.0534 212.25 48.0627 212.373 48.0361C212.497 48.0095 212.611 47.9481 212.701 47.8592C212.978 47.5494 212.772 47.0613 212.56 46.6999Z" fill="#6DDEA2"/>
<path d="M213.982 49.1684C212.816 47.6671 211.326 46.4475 209.624 45.6001C207.922 44.7527 206.051 44.2992 204.15 44.2731C201.916 44.2403 200.991 44.7003 199.386 45.1367C197.774 45.5214 196.35 46.462 195.363 47.7932C194.228 49.4125 193.27 51.2242 193.054 53.1907C192.77 55.2034 192.673 57.2381 192.763 59.2688C192.852 61.3107 193.501 63.2887 194.641 64.9854L199.803 65.8819C202.648 65.9757 205.539 66.0696 208.313 65.4125C211.087 64.7554 213.781 63.2676 215.268 60.8364C217.348 57.4665 216.489 52.2333 213.982 49.1684Z" fill="#263238"/>
<path d="M199.814 74.2457C199.852 72.4388 199.894 70.9603 199.894 70.9603C199.894 70.9603 195.67 70.491 194.525 65.1076C193.948 62.4276 193.84 57.9876 193.872 54.3501C193.896 51.0647 196.689 46.62 200.725 46.6059L202.523 46.3994L209.394 49.131C209.873 49.1543 210.326 49.357 210.662 49.6987C210.999 50.0404 211.194 50.4962 211.21 50.9755L211.417 73.9735L204.775 90.1144L200.007 83.6515L199.814 74.2457Z" fill="#FFB8B8"/>
<path d="M202.61 63.8302C202.566 63.5535 202.425 63.3018 202.211 63.1215C202.016 62.958 201.774 62.862 201.52 62.8476C201.266 62.8332 201.014 62.9013 200.803 63.0417C200.581 63.2119 200.409 63.4383 200.304 63.6974C200.199 63.9565 200.165 64.2389 200.206 64.5154C200.324 64.6822 200.476 64.8215 200.653 64.9236C200.83 65.0258 201.026 65.0882 201.23 65.1068C201.292 65.1115 201.355 65.1115 201.417 65.1068C201.739 65.1049 202.049 64.9827 202.286 64.7642C202.405 64.6418 202.496 64.4947 202.552 64.3333C202.608 64.1718 202.627 64.0001 202.61 63.8302Z" fill="#F5925F"/>
<path d="M195.195 58.2888C195.203 58.4706 195.281 58.6422 195.414 58.7668C195.546 58.8914 195.722 58.9591 195.904 58.9553C195.993 58.9578 196.082 58.9424 196.165 58.91C196.248 58.8777 196.324 58.829 196.387 58.7668C196.451 58.7047 196.502 58.6304 196.537 58.5483C196.571 58.4662 196.589 58.3779 196.589 58.2888C196.582 58.107 196.504 57.9354 196.371 57.8108C196.239 57.6862 196.062 57.6185 195.881 57.6223C195.791 57.6198 195.703 57.6352 195.62 57.6676C195.537 57.6999 195.461 57.7486 195.397 57.8108C195.333 57.8729 195.282 57.9472 195.248 58.0293C195.213 58.1115 195.195 58.1997 195.195 58.2888Z" fill="#263238"/>
<path d="M195.209 56.3733C195.298 56.4578 195.805 56.0401 196.556 56.0025C197.307 55.965 197.875 56.3076 197.964 56.209C198.053 56.1105 197.903 56.0072 197.654 55.8477C197.318 55.6371 196.924 55.5385 196.528 55.566C196.139 55.5861 195.766 55.7291 195.463 55.9744C195.233 56.1668 195.162 56.3217 195.209 56.3733Z" fill="#263238"/>
<path d="M199.92 62.0569C199.519 61.9542 199.105 61.9021 198.691 61.9021C198.498 61.9021 198.315 61.8645 198.278 61.7378C198.248 61.5418 198.281 61.3414 198.371 61.1652L198.841 59.6727C199.512 57.5512 199.991 55.8146 199.902 55.7865C199.812 55.7583 199.202 57.4574 198.531 59.5788C198.367 60.0998 198.212 60.5973 198.062 61.076C197.955 61.3134 197.935 61.581 198.005 61.8317C198.036 61.898 198.082 61.9563 198.139 62.002C198.196 62.0476 198.262 62.0793 198.334 62.0945C198.442 62.1188 198.552 62.1283 198.662 62.1227C199.083 62.1554 199.506 62.1333 199.92 62.0569Z" fill="#263238"/>
<path d="M199.891 70.9649C202.453 70.8607 204.935 70.0484 207.063 68.6182C207.063 68.6182 205.331 72.4903 199.863 72.2838L199.891 70.9649Z" fill="#F5925F"/>
<path d="M202.161 62.4564C202.039 62.4564 202.081 63.2683 201.415 63.8879C200.748 64.5074 199.88 64.4605 199.88 64.5731C199.88 64.6858 200.082 64.7233 200.448 64.7092C200.925 64.6917 201.381 64.5055 201.734 64.1836C202.071 63.8728 202.276 63.4443 202.306 62.9867C202.316 62.6441 202.217 62.447 202.161 62.4564Z" fill="#263238"/>
<path d="M195.355 53.5425C195.491 53.7208 196.059 53.5425 196.735 53.5847C197.41 53.627 197.974 53.749 198.114 53.5847C198.175 53.5003 198.091 53.3219 197.847 53.1529C197.515 52.9462 197.132 52.8342 196.741 52.8293C196.349 52.8243 195.964 52.9265 195.627 53.1248C195.383 53.2844 195.298 53.458 195.355 53.5425Z" fill="#263238"/>
<path d="M203.896 58.2355C203.901 58.4178 203.835 58.595 203.711 58.7291C203.588 58.8633 203.417 58.9438 203.234 58.9536C203.146 58.9619 203.056 58.9524 202.971 58.9256C202.886 58.8988 202.808 58.8552 202.74 58.7974C202.672 58.7397 202.617 58.6689 202.577 58.5893C202.537 58.5097 202.513 58.4229 202.507 58.334C202.503 58.1532 202.569 57.9779 202.692 57.8449C202.814 57.7119 202.984 57.6315 203.164 57.6206C203.253 57.6116 203.342 57.6204 203.428 57.6467C203.513 57.6729 203.592 57.7159 203.66 57.7733C203.728 57.8306 203.784 57.901 203.825 57.9804C203.866 58.0598 203.89 58.1465 203.896 58.2355Z" fill="#263238"/>
<path d="M205.488 56.1054C205.404 56.1946 204.868 55.8144 204.118 55.8285C203.367 55.8426 202.822 56.2321 202.738 56.1383C202.653 56.0444 202.785 55.9317 203.019 55.7534C203.341 55.5234 203.726 55.3973 204.122 55.392C204.513 55.3838 204.896 55.5006 205.216 55.7252C205.45 55.8989 205.53 56.0632 205.488 56.1054Z" fill="#263238"/>
<path d="M205.212 53.4771C205.067 53.6507 204.485 53.4771 203.804 53.4771C203.123 53.4771 202.518 53.6179 202.396 53.4395C202.335 53.355 202.429 53.1814 202.682 53.0171C203.032 52.8164 203.43 52.7128 203.833 52.7169C204.236 52.721 204.631 52.8328 204.977 53.0406C205.193 53.2189 205.278 53.3926 205.212 53.4771Z" fill="#263238"/>
<path d="M210.278 60.1175C210.255 59.7092 210.673 58.7095 211.067 58.6438C212.128 58.4232 214.057 58.3997 214.221 61.1125C214.451 64.8157 210.682 64.2806 210.668 64.1774C210.654 64.0741 210.349 61.5115 210.278 60.1175Z" fill="#FFB8B8"/>
<path d="M211.607 62.7621C211.607 62.7621 211.678 62.8044 211.79 62.8466C211.941 62.9057 212.109 62.9057 212.26 62.8466C212.64 62.6776 212.931 62.0346 212.907 61.3682C212.903 61.0413 212.823 60.72 212.673 60.4295C212.631 60.3155 212.562 60.2133 212.472 60.1316C212.382 60.0499 212.274 59.9911 212.156 59.9601C212.081 59.9448 212.002 59.9567 211.934 59.9936C211.867 60.0305 211.814 60.0901 211.786 60.1619C211.743 60.2652 211.786 60.3403 211.748 60.345C211.711 60.3497 211.668 60.2887 211.687 60.1338C211.7 60.0406 211.747 59.9555 211.819 59.8944C211.866 59.852 211.922 59.8197 211.982 59.7995C212.043 59.7793 212.107 59.7717 212.171 59.7771C212.325 59.7983 212.471 59.8587 212.595 59.9523C212.719 60.046 212.817 60.1699 212.879 60.3121C213.058 60.6225 213.156 60.9726 213.166 61.3306C213.189 62.0769 212.851 62.7997 212.325 62.9874C212.228 63.0227 212.124 63.0355 212.02 63.025C211.917 63.0144 211.818 62.9807 211.729 62.9264C211.621 62.8513 211.598 62.7668 211.607 62.7621Z" fill="#F5925F"/>
<path d="M211.218 58.6682L210.279 59.6444C206.21 55.7535 198.269 46.0333 198.71 46.5872C200.564 45.8954 202.562 45.6791 204.521 45.9583C207.543 46.4745 213.274 47.9858 213.189 51.5529C213.105 55.1199 211.218 58.6682 211.218 58.6682Z" fill="#263238"/>
<path d="M216.604 57.8377C216.598 57.7645 216.578 57.693 216.547 57.6265C216.482 57.4234 216.397 57.227 216.294 57.0398C215.914 56.3528 215.386 55.7582 214.75 55.2985C213.803 54.6239 212.747 54.1174 211.629 53.8013C210.39 53.3929 208.991 53.0832 207.62 52.4918C206.325 51.9521 205.096 51.2638 203.96 50.4408C203.032 49.7686 202.168 49.0129 201.378 48.1832C200.845 47.6217 200.345 47.0293 199.881 46.4091L199.51 45.8975C199.471 45.8366 199.425 45.78 199.374 45.7285C199.374 45.7285 199.402 45.7989 199.477 45.9209C199.552 46.043 199.665 46.226 199.825 46.4513C200.265 47.0939 200.752 47.704 201.28 48.2771C202.065 49.1255 202.927 49.8986 203.856 50.5863C205.002 51.4232 206.241 52.1226 207.55 52.6702C208.869 53.172 210.213 53.6044 211.577 53.9655C212.68 54.2696 213.724 54.7566 214.665 55.4064C215.297 55.8501 215.83 56.4188 216.233 57.0773C216.505 57.5514 216.571 57.847 216.604 57.8377Z" fill="#455A64"/>
<path d="M215.527 58.4241C215.537 58.1462 215.488 57.8693 215.382 57.6121C215.099 56.9018 214.608 56.2933 213.974 55.8662C213.034 55.2605 211.982 54.8488 210.881 54.6553C209.559 54.3933 208.272 53.984 207.041 53.435C205.816 52.8757 204.665 52.1662 203.615 51.3229C202.759 50.6326 201.972 49.8591 201.268 49.0137C200.794 48.4428 200.357 47.8424 199.959 47.2161L199.644 46.6951C199.611 46.6327 199.57 46.5744 199.522 46.5215C199.545 46.5889 199.574 46.6535 199.612 46.7139C199.687 46.8547 199.781 47.0331 199.893 47.2537C200.272 47.8986 200.697 48.5151 201.165 49.0982C202.719 51.0329 204.704 52.5775 206.962 53.6086C208.205 54.1625 209.507 54.5719 210.843 54.8289C211.927 55.0078 212.965 55.3985 213.899 55.9788C214.52 56.3831 215.01 56.9607 215.307 57.6403C215.401 57.8953 215.475 58.1574 215.527 58.4241Z" fill="#455A64"/>
<path d="M211.097 64.9291C211.097 64.9057 211.411 64.8634 211.96 64.7226C212.73 64.4957 213.438 64.0996 214.035 63.5633C214.902 62.7481 215.562 61.7376 215.959 60.6158C216.465 59.2458 216.736 57.8003 216.762 56.3401C216.782 55.5865 216.722 54.8329 216.583 54.0919C216.444 53.4041 216.238 52.7314 215.969 52.0831C215.5 50.9879 214.851 49.979 214.049 49.0981C213.292 48.2962 212.459 47.57 211.561 46.9297C211.561 46.9297 211.636 46.9578 211.768 47.0329C211.899 47.108 212.096 47.2207 212.326 47.3896C212.999 47.8513 213.619 48.3848 214.176 48.9807C215.013 49.8626 215.689 50.8839 216.175 51.9986C216.457 52.6576 216.672 53.3431 216.818 54.045C216.962 54.8028 217.025 55.5737 217.006 56.3448C216.982 57.8325 216.699 59.3047 216.17 60.6956C215.752 61.8447 215.057 62.8731 214.147 63.6901C213.527 64.2331 212.785 64.618 211.984 64.8118C211.768 64.8631 211.548 64.8992 211.327 64.9197C211.251 64.9342 211.173 64.9374 211.097 64.9291Z" fill="#455A64"/>
<path d="M216.143 196.801L214.261 212.266L207.136 211.234L206.657 195.994L216.143 196.801Z" fill="#FFB8B8"/>
<path d="M207.112 208.169C207.112 208.169 211.894 212.027 214.555 209.192L215.086 210.699L217.179 221.325C217.246 221.661 217.187 222.011 217.014 222.307C216.841 222.604 216.566 222.827 216.24 222.935C215.987 223.014 215.717 223.021 215.46 222.954C215.204 222.886 214.971 222.748 214.79 222.554C212.861 220.48 205.802 212.815 205.948 211.858L206.163 209.3C206.189 209.039 206.292 208.792 206.459 208.59C206.626 208.389 206.85 208.242 207.102 208.169H207.112Z" fill="#6DDEA2"/>
<g opacity="0.6">
<path d="M215.997 222.986L206.019 210.966L205.982 211.524C205.878 212.125 206.132 212.383 206.399 212.796C207.188 214.007 209.422 216.758 214.763 222.549C214.918 222.717 215.111 222.844 215.326 222.92C215.541 222.996 215.772 223.018 215.997 222.986Z" fill="white"/>
</g>
<g opacity="0.6">
<path d="M207.727 209.422C207.883 209.55 207.986 209.733 208.014 209.934C208.043 210.134 207.996 210.338 207.881 210.506C207.75 210.665 207.564 210.768 207.36 210.797C207.156 210.826 206.949 210.777 206.778 210.661C206.685 210.6 206.606 210.52 206.546 210.427C206.486 210.333 206.446 210.228 206.43 210.118C206.414 210.008 206.421 209.895 206.452 209.788C206.482 209.682 206.535 209.582 206.607 209.497C206.679 209.412 206.768 209.344 206.869 209.296C206.969 209.248 207.078 209.222 207.19 209.22C207.301 209.218 207.411 209.239 207.514 209.283C207.616 209.326 207.708 209.391 207.783 209.473" fill="white"/>
</g>
<path d="M213.307 217.011C213.663 216.621 214.09 216.302 214.565 216.073C215.075 215.916 215.61 215.856 216.142 215.894C216.142 215.862 215.992 215.744 215.673 215.678C215.261 215.603 214.836 215.647 214.448 215.805C214.06 215.953 213.724 216.211 213.481 216.547C213.307 216.805 213.284 216.997 213.307 217.011Z" fill="#263238"/>
<path d="M214.146 218.842C214.549 218.663 214.961 218.506 215.381 218.373C215.825 218.324 216.271 218.3 216.718 218.302C216.761 218.237 216.127 217.913 215.31 218.091C214.494 218.269 214.076 218.804 214.146 218.842Z" fill="#263238"/>
<path d="M211.669 214.623C211.73 214.688 212.439 214.074 213.546 213.75C214.654 213.426 215.579 213.524 215.588 213.435C214.894 213.205 214.142 213.218 213.457 213.473C212.27 213.825 211.608 214.58 211.669 214.623Z" fill="#263238"/>
<path d="M211.662 211.436C211.695 211.516 212.46 211.267 213.437 211.3C214.413 211.333 215.168 211.614 215.201 211.535C215.234 211.455 214.493 211.032 213.446 211.009C212.399 210.985 211.625 211.37 211.662 211.436Z" fill="#263238"/>
<path d="M213.997 211.314C214.017 211.145 214.003 210.974 213.955 210.811C213.856 210.359 213.668 209.932 213.401 209.554C213.225 209.258 212.958 209.028 212.641 208.897C212.532 208.861 212.415 208.86 212.306 208.894C212.197 208.927 212.101 208.994 212.031 209.084C211.905 209.263 211.853 209.483 211.885 209.699C211.974 210.142 212.213 210.541 212.562 210.829C212.911 211.116 213.348 211.274 213.8 211.276C214.249 211.276 214.687 211.141 215.059 210.89C215.431 210.64 215.72 210.284 215.889 209.868C215.931 209.765 215.95 209.654 215.944 209.543C215.938 209.432 215.908 209.323 215.856 209.225C215.789 209.131 215.696 209.06 215.587 209.021C215.479 208.981 215.362 208.976 215.25 209.004C214.929 209.11 214.641 209.298 214.415 209.549C214.081 209.871 213.809 210.251 213.612 210.671C213.526 210.813 213.474 210.974 213.462 211.14C213.754 210.606 214.124 210.118 214.56 209.694C214.765 209.479 215.02 209.318 215.302 209.225C215.362 209.207 215.426 209.209 215.485 209.23C215.544 209.251 215.595 209.291 215.631 209.342C215.661 209.409 215.677 209.482 215.677 209.556C215.677 209.63 215.661 209.702 215.631 209.77C215.47 210.12 215.213 210.417 214.89 210.626C214.566 210.836 214.19 210.949 213.805 210.952C213.423 210.949 213.053 210.818 212.754 210.579C212.456 210.341 212.245 210.01 212.157 209.638C212.131 209.487 212.161 209.332 212.242 209.202C212.28 209.152 212.332 209.114 212.391 209.095C212.451 209.076 212.515 209.075 212.575 209.094C212.844 209.205 213.072 209.397 213.227 209.643C213.582 210.149 213.843 210.715 213.997 211.314Z" fill="#263238"/>
<path d="M184.873 208.986C185.037 208.747 186.529 203.575 186.529 203.575L177.311 201.186L176.002 208.643L184.873 208.986Z" fill="#FFB8B8"/>
<path d="M176.083 207.174V207.77C176.083 207.77 165.935 211.708 165.809 213.623L185.859 213.759L185.634 207.085C182.635 208.446 179.514 208.577 176.083 207.174Z" fill="#6DDEA2"/>
<g opacity="0.6">
<path d="M183.579 209.206C183.772 209.265 183.936 209.394 184.039 209.568C184.143 209.741 184.177 209.947 184.137 210.145C184.086 210.343 183.959 210.514 183.783 210.619C183.608 210.725 183.397 210.757 183.198 210.708C182.994 210.645 182.821 210.508 182.713 210.324C182.604 210.14 182.568 209.922 182.612 209.713C182.689 209.518 182.84 209.359 183.031 209.272C183.223 209.185 183.441 209.174 183.64 209.244" fill="white"/>
</g>
<g opacity="0.6">
<path d="M185.85 213.759L185.798 212.154L166.597 212.624C166.597 212.624 165.701 213.004 165.8 213.637L185.85 213.759Z" fill="white"/>
</g>
<path d="M176.002 207.827C176.002 207.926 176.495 207.973 176.974 208.297C177.453 208.62 177.711 209.029 177.8 208.991C177.889 208.954 177.748 208.386 177.162 208.01C176.575 207.635 175.984 207.738 176.002 207.827Z" fill="#263238"/>
<path d="M173.895 208.681C173.872 208.78 174.294 208.949 174.623 209.362C174.952 209.775 175.045 210.221 175.144 210.216C175.242 210.211 175.308 209.657 174.89 209.15C174.473 208.644 173.895 208.592 173.895 208.681Z" fill="#263238"/>
<path d="M172.686 211.206C172.775 211.206 172.911 210.737 172.686 210.201C172.461 209.666 171.982 209.446 171.94 209.526C171.898 209.605 172.179 209.896 172.372 210.342C172.564 210.788 172.587 211.206 172.686 211.206Z" fill="#263238"/>
<path d="M191.595 116.398C191.158 116.671 185.864 137.754 182.771 162.235C180.157 182.942 176.13 203.627 176.13 203.627L186.061 205.485C186.061 205.485 194.894 179.845 200.343 161.606C204.981 146.117 208.167 135.524 208.167 135.524V116.398H191.595Z" fill="#263238"/>
<path d="M218.245 111.141C218.245 111.141 227.632 120.556 226.881 132.824C226.412 140.165 215.946 204.569 215.946 204.569L205.958 204.301L206.305 117.003L218.245 111.141Z" fill="#263238"/>
<path d="M205.966 134.177C206.037 134.177 206.112 144.155 206.135 156.457C206.159 168.758 206.135 178.737 206.06 178.737C205.985 178.737 205.915 168.763 205.891 156.457C205.868 144.15 205.901 134.177 205.966 134.177Z" fill="#455A64"/>
<path d="M225.344 122.345C225.237 122.406 225.121 122.451 225.001 122.476C224.685 122.569 224.361 122.638 224.034 122.683C222.938 122.833 221.824 122.776 220.749 122.514C219.683 122.251 218.671 121.808 217.754 121.204C217.479 121.022 217.216 120.823 216.966 120.608C216.788 120.453 216.698 120.359 216.708 120.345C216.717 120.331 217.14 120.636 217.848 121.059C218.771 121.605 219.769 122.015 220.81 122.274C221.851 122.526 222.926 122.605 223.992 122.509C224.832 122.434 225.33 122.302 225.344 122.345Z" fill="#455A64"/>
<path d="M174.411 81.9335C174.411 81.9335 175.406 103.322 179.616 105.645C181.742 106.814 183.596 106.147 185.014 104.03C186.431 101.914 191.017 86.1154 191.017 86.1154L184.375 84.3412L181.878 88.2931L179.156 81.8584L174.411 81.9335Z" fill="#FFB8B8"/>
<path d="M185.649 96.9253C185.635 96.8685 185.614 96.8135 185.588 96.761L185.396 96.2917C185.213 95.8786 184.969 95.3154 184.668 94.6302C184.058 93.2221 183.218 91.2931 182.322 89.1482L180.008 83.6428L179.313 81.9719L179.116 81.5025C179.098 81.4479 179.073 81.3959 179.041 81.3477C179.049 81.4043 179.065 81.4596 179.088 81.5119C179.13 81.6386 179.187 81.7888 179.252 81.9813C179.398 82.3849 179.618 82.9622 179.9 83.6709C180.458 85.079 181.256 87.0502 182.172 89.1998C183.087 91.3494 183.936 93.2784 184.579 94.663C184.898 95.3623 185.161 95.9209 185.349 96.301C185.443 96.4794 185.513 96.6249 185.574 96.7422C185.589 96.8071 185.614 96.869 185.649 96.9253Z" fill="#F5925F"/>
<path d="M170.307 76.0337C170.402 75.9284 170.519 75.8446 170.649 75.788C170.779 75.7313 170.92 75.7031 171.062 75.7052C171.062 75.7052 170.781 75.0716 171.109 74.7195C171.206 74.6184 171.325 74.5415 171.458 74.495C171.59 74.4485 171.731 74.4338 171.87 74.452C171.87 74.452 171.504 73.5509 171.968 73.0064C172.145 72.8097 172.373 72.6667 172.627 72.5937C172.881 72.5206 173.15 72.5205 173.404 72.5934C173.404 72.5934 171.898 68.6227 171.799 68.4209C171.452 67.6606 171.565 66.8815 172.405 66.8721C172.71 66.8721 172.954 67.1349 173.634 68.374C174.315 69.6131 175.456 71.7439 175.456 71.7439C175.456 71.7439 175.869 72.1663 176.347 72.6826C176.347 72.6826 176.817 73.2036 177.427 73.8747C178.154 74.6638 178.831 75.4978 179.454 76.3716C179.537 76.5205 179.603 76.6779 179.651 76.841C179.85 77.3918 179.952 77.9731 179.952 78.5588C179.934 79.0406 179.837 79.5162 179.666 79.9668C179.523 80.503 179.323 81.0223 179.069 81.5157L179.736 83.4916C179.736 83.4916 177.685 87.298 174.644 85.8384L174.066 81.8442C174.066 81.8442 173.358 80.9384 172.522 79.9668L171.644 79.0282C171.342 78.7052 171.058 78.3652 170.795 78.0097C170.293 77.3385 169.683 76.672 170.307 76.0337Z" fill="#FFB8B8"/>
<path d="M171.22 75.8594C171.423 76.004 171.618 76.1607 171.802 76.3287L172.417 76.8872C172.543 76.9939 172.659 77.1117 172.764 77.2393C172.886 77.3854 172.958 77.566 172.971 77.7555C172.978 77.8539 172.959 77.9524 172.915 78.0408C172.872 78.1291 172.805 78.2041 172.722 78.2577C172.566 78.3421 172.384 78.3671 172.211 78.3281C172.063 78.2961 171.918 78.2506 171.779 78.192L171.422 78.0465C171.206 77.9527 171.032 77.8682 170.915 77.8072C170.798 77.7461 170.737 77.7039 170.741 77.6945C170.746 77.6851 171.014 77.7978 171.455 77.9667C171.705 78.0719 171.964 78.1551 172.229 78.2155C172.375 78.2492 172.529 78.2292 172.661 78.1592C172.723 78.1131 172.772 78.0527 172.805 77.9831C172.837 77.9136 172.853 77.837 172.849 77.7602C172.839 77.5963 172.776 77.44 172.67 77.3143C172.571 77.1897 172.461 77.0736 172.342 76.967L171.746 76.3944C171.555 76.2318 171.379 76.0527 171.22 75.8594Z" fill="#F5925F"/>
<path d="M175.905 75.1605C175.781 74.8817 175.723 74.5782 175.736 74.2734C175.709 73.9676 175.757 73.6598 175.877 73.377C175.909 73.377 175.848 73.7806 175.877 74.2687C175.905 74.7568 175.942 75.1511 175.905 75.1605Z" fill="#F5925F"/>
<path d="M178.421 75.7852C177.778 75.4249 177.043 75.2617 176.309 75.3158C175.576 75.3639 174.854 75.5221 174.168 75.7852C173.615 75.987 173.009 76.3015 172.882 76.8741C172.85 77.1741 172.927 77.4759 173.099 77.7236C173.272 77.9712 173.528 78.148 173.821 78.2211C174.416 78.3456 175.034 78.2816 175.591 78.038C176.144 77.7923 176.726 77.6158 177.322 77.5124" fill="#FFB8B8"/>
<path d="M177.328 77.4887C177.328 77.4887 177.163 77.5122 176.882 77.592C176.488 77.7116 176.101 77.8526 175.722 78.0144C175.454 78.12 175.178 78.2032 174.896 78.2631C174.567 78.3361 174.226 78.3361 173.897 78.2631C173.525 78.1777 173.201 77.9525 172.991 77.6342C172.879 77.4651 172.814 77.269 172.803 77.0663C172.797 76.8543 172.858 76.6459 172.977 76.4702C173.217 76.1545 173.543 75.9149 173.915 75.7803C174.256 75.6471 174.604 75.5343 174.957 75.4424C175.556 75.2767 176.178 75.2116 176.797 75.2499C177.213 75.2808 177.621 75.3808 178.003 75.5456C178.107 75.5913 178.208 75.6446 178.304 75.7052L178.402 75.7756C178.402 75.7756 178.257 75.6958 177.989 75.5925C177.605 75.4444 177.199 75.3573 176.788 75.3344C176.179 75.3079 175.571 75.3808 174.986 75.5503C174.639 75.6445 174.297 75.7573 173.962 75.8882C173.604 76.0139 173.289 76.2404 173.057 76.5406C172.955 76.6952 172.901 76.8765 172.902 77.0616C172.911 77.2427 172.97 77.4179 173.071 77.5685C173.264 77.8637 173.563 78.0736 173.906 78.1552C174.216 78.2184 174.535 78.2184 174.845 78.1552C175.121 78.097 175.392 78.0185 175.657 77.9205C176.042 77.7652 176.437 77.6351 176.84 77.5309C176.95 77.5064 177.061 77.4876 177.173 77.4746L177.328 77.4887Z" fill="#F5925F"/>
<path d="M171.275 75.9122C172.087 76.6491 172.862 77.4939 173.599 78.3106C173.791 78.5676 174.049 78.7685 174.345 78.8926C174.589 78.9677 175.054 78.5922 175.284 78.4514L172.73 75.2129" fill="#FFB8B8"/>
<path d="M172.714 75.2129C172.79 75.2855 172.861 75.364 172.925 75.4476L173.479 76.1234C173.948 76.696 174.591 77.5033 175.314 78.4138L175.356 78.4655L175.3 78.503C175.139 78.6277 174.971 78.7436 174.798 78.8503C174.723 78.8908 174.644 78.9238 174.563 78.9489C174.518 78.9561 174.472 78.9561 174.427 78.9489C174.38 78.9496 174.334 78.94 174.291 78.9207C174.137 78.8619 173.996 78.7725 173.878 78.6579C173.643 78.442 173.46 78.1885 173.268 78.0055C172.888 77.5831 172.545 77.2076 172.249 76.8978C171.954 76.5881 171.71 76.344 171.541 76.1751C171.446 76.0943 171.361 76.0029 171.287 75.9028C171.389 75.9752 171.484 76.0552 171.573 76.1422C171.756 76.2971 172.01 76.5364 172.31 76.8415C172.611 77.1466 172.967 77.5127 173.348 77.9304C173.545 78.1369 173.737 78.3669 173.958 78.5734C174.067 78.6751 174.194 78.7548 174.333 78.8081C174.455 78.8644 174.601 78.8081 174.742 78.7236C174.882 78.6391 175.079 78.503 175.244 78.3951V78.4795C174.526 77.5643 173.892 76.7523 173.441 76.161L172.916 75.4663C172.839 75.3903 172.771 75.3052 172.714 75.2129Z" fill="#F5925F"/>
<path d="M171.98 74.2406C172.835 75.3984 173.687 76.5592 174.538 77.7232C174.712 77.9752 174.926 78.1972 175.172 78.3803C175.295 78.4721 175.438 78.5325 175.589 78.5562C175.741 78.58 175.895 78.5663 176.04 78.5164C176.229 78.4171 176.378 78.2567 176.464 78.0613C176.549 77.866 176.565 77.6474 176.51 77.4416C176.392 77.0358 176.188 76.6598 175.914 76.3386C175.145 75.2766 174.458 74.1579 173.858 72.9922" fill="#FFB8B8"/>
<path d="M173.858 73.0059C173.858 73.0059 173.886 73.0387 173.928 73.1138L174.111 73.433C174.266 73.7099 174.496 74.1088 174.797 74.5922C175.097 75.0757 175.468 75.6436 175.914 76.2537C176.168 76.5634 176.374 76.91 176.524 77.2816C176.597 77.4896 176.611 77.7136 176.566 77.9293C176.526 78.1581 176.402 78.3638 176.219 78.5066C176.123 78.5723 176.015 78.6167 175.901 78.637C175.787 78.6572 175.669 78.6528 175.557 78.6239C175.343 78.5708 175.148 78.4624 174.989 78.3095C174.713 78.0197 174.463 77.7056 174.243 77.3708L173.07 75.7468L172.286 74.6486L172.075 74.3435C172.051 74.3087 172.029 74.2727 172.009 74.2355C172.009 74.2355 172.042 74.2637 172.093 74.3294L172.323 74.6204L173.135 75.6952L174.332 77.3051C174.553 77.6263 174.798 77.9307 175.064 78.2156C175.211 78.3537 175.39 78.4522 175.585 78.5019C175.681 78.5261 175.78 78.5298 175.877 78.5128C175.974 78.4958 176.067 78.4585 176.148 78.4033C176.308 78.2797 176.415 78.1004 176.449 77.9011C176.491 77.7059 176.478 77.5028 176.411 77.3145C176.268 76.952 176.069 76.6145 175.82 76.3148C175.383 75.6999 175.017 75.1226 174.726 74.6345C174.435 74.1464 174.215 73.7333 174.069 73.447C173.999 73.3062 173.942 73.1936 173.91 73.1185C173.89 73.082 173.873 73.0444 173.858 73.0059Z" fill="#F5925F"/>
<path d="M177.519 80.7941C177.409 80.839 177.29 80.8551 177.172 80.841C176.888 80.8246 176.611 80.7478 176.36 80.6157C176.115 80.4812 175.902 80.2955 175.736 80.0713C175.609 79.893 175.567 79.7662 175.581 79.7568C175.814 80.0602 176.104 80.3152 176.435 80.5078C176.776 80.6687 177.143 80.7657 177.519 80.7941Z" fill="#F5925F"/>
<path d="M189.277 91.9308C189.277 87.7349 191.192 81.7366 191.192 81.7366L195.088 73.6967L211.562 73.5137L215.922 75.1282L220.32 77.2262L218.044 105.537L221.263 114.863C211.463 130.877 193.544 124.935 190.592 119.838L192.91 107.635C193.423 105.538 193.198 103.329 192.272 101.379C190.972 98.6284 189.277 94.5263 189.277 91.9308Z" fill="#6DDEA2"/>
<path d="M196.733 73.6868L211.536 73.1377L215.92 75.1371C216.009 75.1747 214.235 86.2137 210.288 87.7015C206.233 89.2363 194.56 89.0626 194.171 84.693C193.87 81.2527 196.733 73.6868 196.733 73.6868Z" fill="#FFB8B8"/>
<path d="M199.1 103.819C199.525 103.967 199.964 104.074 200.409 104.138C201.23 104.293 202.366 104.472 203.633 104.608C204.901 104.744 206.046 104.791 206.881 104.8C207.331 104.83 207.782 104.813 208.228 104.749C207.784 104.679 207.336 104.641 206.886 104.636C206.055 104.589 204.915 104.509 203.652 104.383C202.39 104.256 201.259 104.101 200.437 103.988C199.996 103.899 199.549 103.843 199.1 103.819Z" fill="#263238"/>
<path d="M200.652 106.171C201.117 106.271 201.587 106.344 202.06 106.392C203.199 106.562 204.329 106.791 205.444 107.077C206.558 107.37 207.655 107.725 208.73 108.138C209.169 108.329 209.619 108.495 210.077 108.635C210.077 108.635 209.964 108.551 209.744 108.433C209.523 108.316 209.199 108.166 208.805 107.988C206.67 107.069 204.409 106.477 202.098 106.232C201.629 106.19 201.295 106.162 201.047 106.157C200.915 106.143 200.782 106.148 200.652 106.171Z" fill="#263238"/>
<g opacity="0.3">
<path d="M208.383 104.697C208.462 100.144 209.424 95.3804 212.395 91.9307C211.892 94.4192 212.187 97.0033 213.24 99.3137C214.293 101.624 216.049 103.543 218.258 104.795V106.02C217.582 107.436 216.461 108.59 215.066 109.306C213.658 109.949 211.809 109.827 210.706 108.729C210.114 108.137 209.767 107.321 209.218 106.715C208.279 105.678 206.871 105.255 205.543 104.875L208.383 104.697Z" fill="black"/>
</g>
<path d="M195.528 73.7432C195.528 73.7432 189.896 73.2738 187.46 76.5358C185.769 78.9598 184.333 81.5518 183.175 84.2706L190.436 88.0911L195.528 73.7432Z" fill="#6DDEA2"/>
<path d="M219.667 77.0947C219.667 77.0947 223.454 77.3341 224.769 83.7501C226.083 90.166 221.849 102.144 219.789 104.199C219.789 104.199 216.771 109.071 212.167 107.738C207.562 106.405 209.867 98.0464 209.867 98.0464L218.446 79.7888L219.667 77.0947Z" fill="#FFB8B8"/>
<path d="M207.309 68.6465L207.027 84.3368C207.034 84.4604 207.015 84.5841 206.974 84.7007C206.932 84.8174 206.868 84.9246 206.784 85.0162C206.701 85.1078 206.6 85.182 206.488 85.2346C206.376 85.2871 206.255 85.317 206.131 85.3224L198.527 85.1393C198.269 85.1144 198.03 84.9876 197.865 84.787C197.699 84.5863 197.62 84.3281 197.645 84.0692L198.091 68.3837C198.082 68.1362 198.171 67.8953 198.339 67.7133C198.507 67.5313 198.74 67.4231 198.987 67.4121L206.427 67.5905C206.683 67.6155 206.919 67.7402 207.084 67.9378C207.249 68.1353 207.33 68.3899 207.309 68.6465Z" fill="#455A64"/>
<path d="M216.241 92.5316C216.241 92.5316 220.137 99.5718 220.052 101.505C219.968 103.439 217.762 107.781 214.795 108.208C211.829 108.635 209.027 105.917 208.943 102.355C208.858 98.7926 208.417 87.5283 208.417 87.5283L211.491 83.0742L216.241 92.5316Z" fill="#FFB8B8"/>
<path d="M205.773 73.0449C205.773 73.0449 207.998 74.4107 208.655 74.7674C209.312 75.1241 209.228 77.7759 209.228 77.7759L212.982 86.4776L208.472 88.0922C208.472 88.0922 206.867 85.0508 206.402 84.6659C206.083 84.417 205.718 84.2336 205.327 84.1262C205.327 84.1262 205.097 84.971 204.389 84.5955C203.839 84.2345 203.346 83.7949 202.924 83.2908C202.924 83.2908 202.309 83.6756 202.079 83.211C201.85 82.7463 201.465 81.7513 201.465 81.7513C201.465 81.7513 202.774 80.057 203.309 80.057C203.844 80.057 206.623 80.2118 206.623 80.2118C206.623 80.2118 206.468 79.9772 205.684 79.6721C204.9 79.367 200.329 78.0153 200.113 77.9308C199.794 77.8088 199.428 76.964 200.427 76.8889C201.427 76.8138 207.069 77.8276 207.069 77.8276C207.069 77.8276 207.378 76.3726 207.144 76.0628C206.909 75.753 204.91 74.4295 205.773 73.0449Z" fill="#FFB8B8"/>
<path d="M202.901 83.2095C202.855 83.0009 202.855 82.7845 202.901 82.5759C202.944 82.337 203.063 82.1183 203.239 81.9516C203.48 81.7768 203.773 81.6891 204.07 81.7029C204.576 81.6704 205.084 81.6893 205.586 81.7592C205.796 81.7686 206.003 81.8163 206.196 81.9C206.196 81.9516 205.257 81.7921 204.079 81.8672C203.819 81.8564 203.561 81.9269 203.342 82.069C203.183 82.2109 203.07 82.3973 203.018 82.604C202.957 82.9654 202.957 83.2142 202.901 83.2095Z" fill="#F5925F"/>
<path d="M203.794 83.4873C204.091 83.6076 204.38 83.744 204.662 83.8956C205.132 84.1068 205.554 84.2054 205.549 84.2523C205.22 84.2511 204.894 84.1826 204.593 84.0511C204.291 83.9195 204.019 83.7277 203.794 83.4873Z" fill="#F5925F"/>
<path d="M206.806 77.7754C207.106 77.8217 207.384 77.96 207.602 78.171C207.819 78.382 207.966 78.6554 208.022 78.9534C207.975 78.9534 207.82 78.6108 207.487 78.2917C207.154 77.9725 206.788 77.8223 206.806 77.7754Z" fill="#F5925F"/>
<path d="M207.064 77.8085C207.057 77.7698 207.057 77.73 207.064 77.6912C207.064 77.602 207.064 77.4894 207.064 77.3533C207.064 77.0341 207.064 76.5976 207.097 76.0438V76.0813C206.778 75.7622 206.407 75.3773 206.013 74.8986C205.797 74.6459 205.614 74.3667 205.468 74.0678C205.385 73.886 205.362 73.6823 205.402 73.4864C205.443 73.2906 205.545 73.1128 205.694 72.979L205.736 72.9414L205.787 72.9743C206.562 73.4436 207.416 73.9458 208.322 74.5466C208.434 74.6264 208.552 74.7015 208.664 74.7859C208.791 74.869 208.904 74.972 208.998 75.091C209.109 75.3715 209.175 75.6676 209.195 75.9687C209.261 76.5507 209.293 77.1514 209.307 77.7757V77.7334C210.378 80.174 211.626 82.9338 212.997 85.8156C214.226 88.4064 215.447 90.8517 216.601 93.0529C217.756 95.2541 218.948 97.1597 219.549 98.9714C220.149 100.783 220.187 102.369 219.858 103.388C219.742 103.78 219.559 104.15 219.319 104.481C219.258 104.567 219.192 104.648 219.122 104.726C219.07 104.782 219.046 104.805 219.042 104.801C219.037 104.796 219.126 104.683 219.276 104.453C219.49 104.118 219.648 103.75 219.746 103.364C220.041 102.365 219.957 100.792 219.37 99.0277C218.784 97.2629 217.53 95.3668 216.381 93.1562C215.231 90.9455 213.987 88.5143 212.757 85.9188C211.382 83.0324 210.143 80.2867 209.082 77.8226V77.7804C209.082 77.1655 209.045 76.5648 208.984 75.9922C208.966 75.7214 208.911 75.4545 208.819 75.199C208.635 75.0191 208.43 74.8616 208.209 74.7296C207.313 74.1242 206.463 73.5985 205.698 73.1338H205.792C205.672 73.2478 205.59 73.3955 205.557 73.5574C205.523 73.7193 205.54 73.8875 205.604 74.0397C205.739 74.3287 205.911 74.5986 206.116 74.8423C206.491 75.3116 206.853 75.7152 207.163 76.0391V76.0344C207.125 76.5882 207.102 77.0247 207.078 77.3439C207.078 77.48 207.078 77.5879 207.078 77.6818C207.08 77.7245 207.075 77.7672 207.064 77.8085Z" fill="#F5925F"/>
<path d="M208.778 97.2013C208.738 96.9766 208.716 96.749 208.712 96.5207C208.689 96.0514 208.651 95.4131 208.609 94.6434C208.538 92.9913 208.44 90.7243 208.323 88.1054V88.1617C207.722 87.1479 207.069 86.0402 206.342 84.942C206.246 84.735 206.08 84.5688 205.873 84.4726C205.667 84.397 205.448 84.3651 205.23 84.3787L205.319 84.3271C205.126 84.5517 204.863 84.7041 204.573 84.7589C204.406 84.7801 204.238 84.7364 204.103 84.6369C203.991 84.5615 203.884 84.4784 203.784 84.3881C203.415 84.0445 203.078 83.6691 202.775 83.2664L202.93 83.2899C202.718 83.4216 202.475 83.493 202.226 83.4964C202.01 83.4588 201.963 83.3274 201.888 83.2382C201.827 83.1437 201.774 83.0449 201.728 82.9425C201.558 82.5567 201.418 82.1581 201.311 81.7504V81.6988L201.353 81.6565C201.653 81.3327 201.949 81.0323 202.23 80.746L202.653 80.333L202.864 80.1452C202.937 80.0696 203.027 80.0131 203.127 79.981C203.465 79.9419 203.806 79.9325 204.145 79.9528C204.455 79.9528 204.737 79.9857 204.99 80.0044C205.502 80.042 205.901 80.0842 206.168 80.1171C206.31 80.1233 206.45 80.147 206.586 80.1875C206.445 80.1988 206.304 80.1988 206.164 80.1875L204.986 80.1312C204.38 80.0804 203.77 80.0804 203.164 80.1312C203.052 80.1593 202.906 80.3283 202.775 80.4456L202.367 80.8633L201.503 81.802L201.526 81.7082C201.635 82.1019 201.775 82.4864 201.944 82.8581C201.984 82.9516 202.033 83.0412 202.09 83.1256C202.141 83.2054 202.23 83.2852 202.245 83.2805C202.447 83.2771 202.645 83.2187 202.817 83.1115L202.911 83.0552L202.977 83.135C203.273 83.5241 203.603 83.8868 203.962 84.2192C204.136 84.3741 204.371 84.5571 204.526 84.5336C204.756 84.4865 204.965 84.3663 205.122 84.191L205.164 84.1441H205.211C205.468 84.1278 205.725 84.1662 205.966 84.2567C206.094 84.3063 206.21 84.3831 206.304 84.482C206.389 84.5788 206.467 84.6807 206.539 84.7871C207.281 85.9041 207.919 87.0118 208.52 88.0303V88.0537V88.0819C208.6 90.7055 208.67 92.9725 208.717 94.6199C208.717 95.4037 208.745 96.0279 208.754 96.4973C208.782 96.7309 208.79 96.9664 208.778 97.2013Z" fill="#F5925F"/>
<path d="M219.085 76.7793C219.085 76.7793 223.178 77.7649 224.366 81.3554C225.774 85.6453 225.013 94.2155 225.013 94.2155C225.013 94.2155 214.359 88.3346 214.322 88.0906C214.284 87.8465 219.085 76.7793 219.085 76.7793Z" fill="#6DDEA2"/>
<path d="M145.969 115.018C145.969 115.088 142.003 115.14 137.112 115.14C132.222 115.14 128.256 115.088 128.256 115.018C128.256 114.947 132.222 114.896 137.112 114.896C142.003 114.896 145.969 114.952 145.969 115.018Z" fill="#263238"/>
<path d="M138.966 118.003C138.966 118.073 136.573 118.125 133.611 118.125C130.65 118.125 128.256 118.073 128.256 118.003C128.256 117.932 130.654 117.881 133.611 117.881C136.568 117.881 138.966 117.937 138.966 118.003Z" fill="#E0E0E0"/>
<path d="M125.244 115.744C125.229 115.691 125.221 115.636 125.22 115.58C125.22 115.458 125.22 115.294 125.183 115.087C125.183 114.979 125.183 114.857 125.159 114.726C125.136 114.594 125.117 114.449 125.094 114.294C125.044 113.934 124.971 113.578 124.873 113.229C124.627 112.262 124.238 111.338 123.718 110.488C123.039 109.357 122.148 108.367 121.095 107.573C119.822 106.605 118.34 105.951 116.767 105.663C114.962 105.336 113.101 105.498 111.379 106.132C110.921 106.299 110.474 106.496 110.042 106.723C109.605 106.963 109.187 107.232 108.788 107.531C108.378 107.833 107.989 108.164 107.625 108.521C107.264 108.894 106.928 109.291 106.62 109.708C105.984 110.563 105.49 111.514 105.156 112.525C104.449 114.622 104.449 116.894 105.156 118.992C105.489 120.004 105.983 120.955 106.62 121.808C106.927 122.227 107.262 122.624 107.625 122.996C107.989 123.351 108.376 123.682 108.784 123.986C109.184 124.283 109.605 124.553 110.042 124.793C110.474 125.02 110.921 125.218 111.379 125.385C113.101 126.018 114.962 126.18 116.767 125.854C118.34 125.566 119.822 124.912 121.095 123.944C122.148 123.149 123.039 122.16 123.718 121.029C124.237 120.178 124.627 119.254 124.873 118.288C124.97 117.938 125.044 117.582 125.094 117.223C125.094 117.068 125.145 116.922 125.159 116.791C125.173 116.659 125.159 116.537 125.183 116.43C125.183 116.223 125.211 116.059 125.22 115.96C125.222 115.903 125.229 115.846 125.244 115.791C125.247 115.847 125.247 115.904 125.244 115.96C125.244 116.087 125.244 116.246 125.244 116.458C125.244 116.566 125.244 116.688 125.244 116.819C125.244 116.95 125.206 117.101 125.187 117.256C125.149 117.62 125.082 117.981 124.986 118.335C124.755 119.317 124.375 120.257 123.859 121.123C123.105 122.401 122.086 123.504 120.873 124.359C119.659 125.213 118.277 125.8 116.819 126.079C114.979 126.424 113.08 126.272 111.318 125.638C110.365 125.309 109.469 124.834 108.662 124.23C108.242 123.921 107.844 123.584 107.47 123.221C107.101 122.839 106.758 122.433 106.442 122.005C105.789 121.131 105.281 120.156 104.94 119.119C104.213 116.971 104.213 114.644 104.94 112.496C105.28 111.459 105.788 110.484 106.442 109.61C106.756 109.182 107.1 108.776 107.47 108.394C107.844 108.031 108.242 107.694 108.662 107.385C109.071 107.082 109.501 106.808 109.948 106.564C110.39 106.332 110.848 106.131 111.318 105.963C113.08 105.329 114.979 105.177 116.819 105.522C118.277 105.801 119.659 106.388 120.873 107.242C122.086 108.097 123.105 109.2 123.859 110.478C124.375 111.344 124.755 112.285 124.986 113.266C125.082 113.62 125.149 113.981 125.187 114.346C125.187 114.501 125.234 114.646 125.244 114.782C125.253 114.918 125.244 115.036 125.244 115.144C125.244 115.35 125.244 115.514 125.244 115.641C125.245 115.675 125.245 115.71 125.244 115.744Z" fill="#263238"/>
<circle cx="114.669" cy="115.927" r="9.38693" fill="#F5F5F5"/>
<path d="M114.791 114.675C115.635 114.675 116.319 113.991 116.319 113.147C116.319 112.303 115.635 111.619 114.791 111.619C113.947 111.619 113.263 112.303 113.263 113.147C113.263 113.991 113.947 114.675 114.791 114.675Z" fill="#6DDEA2"/>
<path d="M119.207 115.241C119.957 115.241 120.565 114.633 120.565 113.883C120.565 113.133 119.957 112.524 119.207 112.524C118.457 112.524 117.849 113.133 117.849 113.883C117.849 114.633 118.457 115.241 119.207 115.241Z" fill="#6DDEA2"/>
<path d="M110.379 115.241C111.129 115.241 111.737 114.633 111.737 113.883C111.737 113.133 111.129 112.524 110.379 112.524C109.629 112.524 109.021 113.133 109.021 113.883C109.021 114.633 109.629 115.241 110.379 115.241Z" fill="#6DDEA2"/>
<path d="M108.156 119.034H111.185C111.212 119.034 111.239 119.027 111.263 119.015C111.287 119.002 111.307 118.984 111.323 118.962C111.338 118.94 111.349 118.914 111.352 118.887C111.356 118.86 111.353 118.833 111.344 118.807C111.325 118.753 111.31 118.697 111.302 118.64C111.28 118.483 111.268 118.325 111.268 118.166C111.267 117.446 111.488 116.744 111.901 116.154C111.914 116.135 111.923 116.114 111.928 116.091C111.933 116.069 111.933 116.045 111.928 116.023C111.923 116 111.914 115.979 111.901 115.96C111.888 115.941 111.871 115.925 111.852 115.913C111.433 115.653 110.952 115.51 110.46 115.499C109.967 115.487 109.48 115.608 109.05 115.847C108.619 116.087 108.261 116.437 108.011 116.862C107.762 117.287 107.63 117.771 107.63 118.263C107.63 118.372 107.637 118.481 107.65 118.589C107.666 118.712 107.726 118.825 107.819 118.907C107.913 118.989 108.032 119.034 108.156 119.034Z" fill="#6DDEA2"/>
<path d="M117.738 115.919C117.719 115.931 117.702 115.947 117.689 115.966C117.676 115.985 117.667 116.007 117.663 116.029C117.658 116.051 117.658 116.075 117.663 116.097C117.667 116.119 117.676 116.141 117.689 116.16C118.099 116.748 118.318 117.448 118.317 118.165C118.317 118.323 118.306 118.481 118.283 118.638C118.275 118.695 118.261 118.751 118.241 118.806C118.232 118.831 118.229 118.859 118.233 118.885C118.237 118.912 118.247 118.938 118.262 118.96C118.278 118.982 118.299 119.001 118.323 119.013C118.347 119.026 118.373 119.033 118.401 119.033H121.445C121.569 119.033 121.689 118.988 121.782 118.906C121.875 118.824 121.936 118.711 121.951 118.588C121.965 118.48 121.972 118.371 121.972 118.262C121.972 117.768 121.84 117.283 121.589 116.857C121.338 116.432 120.978 116.081 120.546 115.842C120.114 115.603 119.625 115.484 119.131 115.497C118.637 115.511 118.156 115.656 117.738 115.919L117.738 115.919Z" fill="#6DDEA2"/>
<path d="M111.609 118.166C111.609 118.308 111.619 118.45 111.639 118.591C111.657 118.714 111.717 118.825 111.81 118.907C111.903 118.988 112.022 119.033 112.145 119.034H117.442C117.565 119.033 117.684 118.988 117.777 118.907C117.87 118.825 117.93 118.714 117.947 118.591C117.968 118.45 117.978 118.308 117.978 118.166C117.981 117.746 117.9 117.33 117.741 116.941C117.582 116.553 117.348 116.199 117.052 115.901C116.756 115.604 116.404 115.367 116.016 115.206C115.629 115.045 115.213 114.962 114.793 114.962C114.373 114.962 113.958 115.045 113.57 115.206C113.182 115.367 112.831 115.604 112.535 115.901C112.239 116.199 112.004 116.553 111.845 116.941C111.686 117.33 111.606 117.746 111.608 118.166H111.609Z" fill="#6DDEA2"/>
<path d="M159.727 118.436L162.047 115.928L159.727 113.415L160.441 112.643L163.481 115.928L160.441 119.213L159.727 118.436Z" fill="#263238"/>
<path d="M145.969 89.4648C145.969 89.5352 142.003 89.5868 137.112 89.5868C132.222 89.5868 128.256 89.5352 128.256 89.4648C128.256 89.3944 132.222 89.3428 137.112 89.3428C142.003 89.3428 145.969 89.3991 145.969 89.4648Z" fill="#263238"/>
<path d="M138.966 92.4502C138.966 92.5206 136.573 92.5722 133.611 92.5722C130.65 92.5722 128.256 92.5206 128.256 92.4502C128.256 92.3798 130.654 92.3281 133.611 92.3281C136.568 92.3281 138.966 92.3845 138.966 92.4502Z" fill="#E0E0E0"/>
<path d="M125.244 90.1925C125.229 90.1389 125.221 90.0838 125.22 90.0282C125.22 89.9062 125.22 89.7419 125.183 89.5354C125.183 89.4275 125.183 89.3054 125.159 89.174C125.136 89.0426 125.117 88.8971 125.094 88.7422C125.044 88.3825 124.971 88.0265 124.873 87.6768C124.627 86.7105 124.238 85.7866 123.718 84.9358C123.039 83.8051 122.148 82.8156 121.095 82.0212C119.822 81.0532 118.34 80.3988 116.767 80.1109C114.962 79.7845 113.101 79.9466 111.379 80.5803C110.921 80.7471 110.474 80.9447 110.042 81.1717C109.605 81.4108 109.187 81.6806 108.788 81.9789C108.378 82.2817 107.989 82.6126 107.625 82.9693C107.264 83.3423 106.928 83.739 106.62 84.1567C105.984 85.011 105.49 85.9618 105.156 86.9728C104.449 89.0707 104.449 91.3425 105.156 93.4404C105.489 94.452 105.983 95.4031 106.62 96.2565C106.927 96.6753 107.262 97.0721 107.625 97.4439C107.989 97.7994 108.376 98.1303 108.784 98.4342C109.184 98.7316 109.605 99.0013 110.042 99.2415C110.474 99.4685 110.921 99.6661 111.379 99.8329C113.101 100.467 114.962 100.629 116.767 100.302C118.34 100.014 119.822 99.36 121.095 98.392C122.148 97.5976 123.039 96.6081 123.718 95.4774C124.237 94.6262 124.627 93.7024 124.873 92.7364C124.97 92.3865 125.044 92.0306 125.094 91.671C125.094 91.5161 125.145 91.3706 125.159 91.2392C125.173 91.1077 125.159 90.9857 125.183 90.8778C125.183 90.6712 125.211 90.507 125.22 90.4084C125.222 90.3514 125.229 90.2947 125.244 90.2394C125.247 90.2957 125.247 90.3521 125.244 90.4084C125.244 90.5351 125.244 90.6947 125.244 90.9059C125.244 91.0139 125.244 91.1359 125.244 91.2673C125.244 91.3987 125.206 91.5489 125.187 91.7038C125.149 92.0684 125.082 92.4294 124.986 92.7833C124.755 93.7648 124.375 94.705 123.859 95.5712C123.105 96.8496 122.086 97.9526 120.873 98.8072C119.659 99.6617 118.277 100.248 116.819 100.528C114.979 100.872 113.08 100.72 111.318 100.086C110.365 99.7573 109.469 99.2823 108.662 98.6783C108.242 98.3694 107.844 98.0322 107.47 97.6692C107.101 97.2868 106.758 96.8807 106.442 96.4536C105.789 95.5788 105.281 94.604 104.94 93.5671C104.213 91.4195 104.213 89.0923 104.94 86.9446C105.28 85.9073 105.788 84.9324 106.442 84.0581C106.756 83.6301 107.1 83.224 107.47 82.8425C107.844 82.4795 108.242 82.1424 108.662 81.8335C109.071 81.5303 109.501 81.2558 109.948 81.0121C110.39 80.78 110.848 80.5792 111.318 80.4113C113.08 79.7775 114.979 79.6252 116.819 79.9701C118.277 80.2495 119.659 80.8359 120.873 81.6905C122.086 82.545 123.105 83.6481 123.859 84.9264C124.375 85.7927 124.755 86.7329 124.986 87.7144C125.082 88.0682 125.149 88.4292 125.187 88.7939C125.187 88.9487 125.234 89.0942 125.244 89.2304C125.253 89.3665 125.244 89.4838 125.244 89.5917C125.244 89.7983 125.244 89.9625 125.244 90.0893C125.245 90.1237 125.245 90.1581 125.244 90.1925Z" fill="#263238"/>
<circle cx="114.669" cy="90.3762" r="9.38693" fill="#F5F5F5"/>
<path d="M114.791 89.1243C115.635 89.1243 116.319 88.4402 116.319 87.5963C116.319 86.7525 115.635 86.0684 114.791 86.0684C113.947 86.0684 113.263 86.7525 113.263 87.5963C113.263 88.4402 113.947 89.1243 114.791 89.1243Z" fill="#6DDEA2"/>
<path d="M119.207 89.6901C119.957 89.6901 120.565 89.082 120.565 88.3318C120.565 87.5817 119.957 86.9736 119.207 86.9736C118.457 86.9736 117.849 87.5817 117.849 88.3318C117.849 89.082 118.457 89.6901 119.207 89.6901Z" fill="#6DDEA2"/>
<path d="M110.379 89.6901C111.129 89.6901 111.737 89.082 111.737 88.3318C111.737 87.5817 111.129 86.9736 110.379 86.9736C109.629 86.9736 109.021 87.5817 109.021 88.3318C109.021 89.082 109.629 89.6901 110.379 89.6901Z" fill="#6DDEA2"/>
<path d="M108.156 93.4826H111.185C111.212 93.4824 111.239 93.4756 111.263 93.463C111.287 93.4504 111.307 93.4322 111.323 93.41C111.338 93.3878 111.349 93.3622 111.352 93.3353C111.356 93.3084 111.353 93.281 111.344 93.2554C111.325 93.2011 111.31 93.1451 111.302 93.088C111.28 92.9311 111.268 92.7728 111.268 92.6143C111.267 91.8945 111.488 91.1919 111.901 90.6024C111.914 90.5835 111.923 90.5621 111.928 90.5395C111.933 90.5169 111.933 90.4937 111.928 90.4711C111.923 90.4486 111.914 90.4272 111.901 90.4083C111.888 90.3894 111.871 90.3733 111.852 90.361C111.433 90.1015 110.952 89.9586 110.46 89.947C109.967 89.9355 109.48 90.0558 109.05 90.2955C108.619 90.5352 108.261 90.8855 108.011 91.3103C107.762 91.735 107.63 92.2188 107.63 92.7115C107.63 92.8205 107.637 92.9293 107.65 93.0374C107.666 93.1604 107.726 93.2734 107.819 93.3553C107.913 93.4373 108.032 93.4825 108.156 93.4826Z" fill="#6DDEA2"/>
<path d="M117.738 90.3683C117.719 90.3806 117.702 90.3967 117.689 90.4156C117.676 90.4345 117.667 90.4558 117.663 90.4782C117.658 90.5007 117.658 90.5238 117.663 90.5462C117.667 90.5687 117.676 90.59 117.689 90.6089C118.099 91.1971 118.318 91.8969 118.317 92.6138C118.317 92.7722 118.306 92.9304 118.283 93.0872C118.275 93.1444 118.261 93.2005 118.241 93.2547C118.232 93.2804 118.229 93.3078 118.233 93.3347C118.237 93.3616 118.247 93.3872 118.262 93.4094C118.278 93.4316 118.299 93.4498 118.323 93.4624C118.347 93.4751 118.373 93.4818 118.401 93.4821H121.445C121.569 93.4821 121.689 93.4369 121.782 93.3549C121.875 93.273 121.936 93.1599 121.951 93.0368C121.965 92.9288 121.972 92.8199 121.972 92.711C121.972 92.217 121.84 91.732 121.589 91.3064C121.338 90.8808 120.978 90.5301 120.546 90.291C120.114 90.0518 119.625 89.9328 119.131 89.9464C118.637 89.9599 118.156 90.1055 117.738 90.3681L117.738 90.3683Z" fill="#6DDEA2"/>
<path d="M111.609 92.6131C111.609 92.7555 111.619 92.8977 111.639 93.0387C111.657 93.1608 111.717 93.2727 111.81 93.3539C111.903 93.4351 112.022 93.4804 112.145 93.4814H117.442C117.565 93.4803 117.684 93.435 117.777 93.3538C117.87 93.2726 117.93 93.1608 117.947 93.0387C117.968 92.8977 117.978 92.7555 117.978 92.6131C117.981 92.1932 117.9 91.777 117.741 91.3884C117.582 90.9998 117.348 90.6465 117.052 90.3487C116.756 90.051 116.404 89.8147 116.016 89.6534C115.629 89.4922 115.213 89.4092 114.793 89.4092C114.373 89.4092 113.958 89.4922 113.57 89.6534C113.182 89.8147 112.831 90.051 112.535 90.3487C112.239 90.6465 112.004 90.9998 111.845 91.3884C111.686 91.777 111.606 92.1932 111.608 92.6131H111.609Z" fill="#6DDEA2"/>
<path d="M159.727 92.8822L162.047 90.3743L159.727 87.8609L160.441 87.0889L163.481 90.3743L160.441 93.6597L159.727 92.8822Z" fill="#263238"/>
<path d="M145.969 62.2422C145.969 62.3126 142.003 62.3642 137.112 62.3642C132.222 62.3642 128.256 62.3126 128.256 62.2422C128.256 62.1717 132.222 62.1201 137.112 62.1201C142.003 62.1201 145.969 62.1764 145.969 62.2422Z" fill="#263238"/>
<path d="M138.966 65.2285C138.966 65.2989 136.573 65.3505 133.611 65.3505C130.65 65.3505 128.256 65.2989 128.256 65.2285C128.256 65.1581 130.654 65.1064 133.611 65.1064C136.568 65.1064 138.966 65.1628 138.966 65.2285Z" fill="#E0E0E0"/>
<path d="M125.244 62.9708C125.229 62.9173 125.221 62.8621 125.22 62.8066C125.22 62.6845 125.22 62.5203 125.183 62.3137C125.183 62.2058 125.183 62.0838 125.159 61.9524C125.136 61.8209 125.117 61.6754 125.094 61.5205C125.044 61.1608 124.971 60.8049 124.873 60.4551C124.627 59.4889 124.238 58.5649 123.718 57.7142C123.039 56.5834 122.148 55.5939 121.095 54.7995C119.822 53.8315 118.34 53.1771 116.767 52.8893C114.962 52.5628 113.101 52.7249 111.379 53.3586C110.921 53.5254 110.474 53.723 110.042 53.95C109.605 54.1891 109.187 54.4589 108.788 54.7573C108.378 55.06 107.989 55.3909 107.625 55.7476C107.264 56.1206 106.928 56.5173 106.62 56.935C105.984 57.7893 105.49 58.7401 105.156 59.7511C104.449 61.849 104.449 64.1208 105.156 66.2187C105.489 67.2304 105.983 68.1814 106.62 69.0348C106.927 69.4536 107.262 69.8504 107.625 70.2222C107.989 70.5777 108.376 70.9086 108.784 71.2126C109.184 71.5099 109.605 71.7797 110.042 72.0198C110.474 72.2468 110.921 72.4444 111.379 72.6112C113.101 73.245 114.962 73.407 116.767 73.0806C118.34 72.7928 119.822 72.1383 121.095 71.1703C122.148 70.3759 123.039 69.3864 123.718 68.2557C124.237 67.4045 124.627 66.4807 124.873 65.5147C124.97 65.1649 125.044 64.8089 125.094 64.4493C125.094 64.2944 125.145 64.1489 125.159 64.0175C125.173 63.8861 125.159 63.764 125.183 63.6561C125.183 63.4496 125.211 63.2853 125.22 63.1867C125.222 63.1297 125.229 63.073 125.244 63.0178C125.247 63.074 125.247 63.1305 125.244 63.1867C125.244 63.3135 125.244 63.473 125.244 63.6842C125.244 63.7922 125.244 63.9142 125.244 64.0456C125.244 64.1771 125.206 64.3272 125.187 64.4821C125.149 64.8468 125.082 65.2078 124.986 65.5616C124.755 66.5431 124.375 67.4833 123.859 68.3495C123.105 69.6279 122.086 70.731 120.873 71.5855C119.659 72.44 118.277 73.0265 116.819 73.3058C114.979 73.6508 113.08 73.4985 111.318 72.8647C110.365 72.5356 109.469 72.0606 108.662 71.4566C108.242 71.1477 107.844 70.8105 107.47 70.4475C107.101 70.0651 106.758 69.6591 106.442 69.2319C105.789 68.3571 105.281 67.3823 104.94 66.3454C104.213 64.1978 104.213 61.8706 104.94 59.723C105.28 58.6856 105.788 57.7107 106.442 56.8365C106.756 56.4085 107.1 56.0023 107.47 55.6209C107.844 55.2579 108.242 54.9207 108.662 54.6118C109.071 54.3086 109.501 54.0341 109.948 53.7904C110.39 53.5583 110.848 53.3575 111.318 53.1897C113.08 52.5559 114.979 52.4036 116.819 52.7485C118.277 53.0278 119.659 53.6143 120.873 54.4688C122.086 55.3233 123.105 56.4264 123.859 57.7048C124.375 58.571 124.755 59.5112 124.986 60.4927C125.082 60.8466 125.149 61.2075 125.187 61.5722C125.187 61.7271 125.234 61.8726 125.244 62.0087C125.253 62.1448 125.244 62.2621 125.244 62.3701C125.244 62.5766 125.244 62.7409 125.244 62.8676C125.245 62.902 125.245 62.9364 125.244 62.9708Z" fill="#263238"/>
<circle cx="114.669" cy="63.1535" r="9.38693" fill="#F5F5F5"/>
<path d="M114.791 61.9007C115.635 61.9007 116.319 61.2166 116.319 60.3727C116.319 59.5288 115.635 58.8447 114.791 58.8447C113.947 58.8447 113.263 59.5288 113.263 60.3727C113.263 61.2166 113.947 61.9007 114.791 61.9007Z" fill="#6DDEA2"/>
<path d="M119.207 62.4664C119.957 62.4664 120.565 61.8583 120.565 61.1082C120.565 60.3581 119.957 59.75 119.207 59.75C118.457 59.75 117.849 60.3581 117.849 61.1082C117.849 61.8583 118.457 62.4664 119.207 62.4664Z" fill="#6DDEA2"/>
<path d="M110.379 62.4664C111.129 62.4664 111.737 61.8583 111.737 61.1082C111.737 60.3581 111.129 59.75 110.379 59.75C109.629 59.75 109.021 60.3581 109.021 61.1082C109.021 61.8583 109.629 62.4664 110.379 62.4664Z" fill="#6DDEA2"/>
<path d="M108.156 66.259H111.185C111.212 66.2587 111.239 66.252 111.263 66.2394C111.287 66.2268 111.307 66.2086 111.323 66.1864C111.338 66.1641 111.349 66.1385 111.352 66.1116C111.356 66.0848 111.353 66.0574 111.344 66.0317C111.325 65.9775 111.31 65.9214 111.302 65.8643C111.28 65.7074 111.268 65.5491 111.268 65.3907C111.267 64.6708 111.488 63.9683 111.901 63.3788C111.914 63.3598 111.923 63.3384 111.928 63.3159C111.933 63.2933 111.933 63.2701 111.928 63.2475C111.923 63.225 111.914 63.2036 111.901 63.1847C111.888 63.1657 111.871 63.1497 111.852 63.1374C111.433 62.8778 110.952 62.7349 110.46 62.7234C109.967 62.7119 109.48 62.8322 109.05 63.0719C108.619 63.3115 108.261 63.6619 108.011 64.0866C107.762 64.5114 107.63 64.9952 107.63 65.4879C107.63 65.5968 107.637 65.7056 107.65 65.8137C107.666 65.9367 107.726 66.0498 107.819 66.1317C107.913 66.2136 108.032 66.2589 108.156 66.259Z" fill="#6DDEA2"/>
<path d="M117.738 63.1456C117.719 63.158 117.702 63.174 117.689 63.1929C117.676 63.2118 117.667 63.2331 117.663 63.2555C117.658 63.278 117.658 63.3011 117.663 63.3236C117.667 63.3461 117.676 63.3674 117.689 63.3863C118.099 63.9744 118.318 64.6742 118.317 65.3911C118.317 65.5495 118.306 65.7077 118.283 65.8646C118.275 65.9217 118.261 65.9778 118.241 66.0321C118.232 66.0577 118.229 66.0851 118.233 66.112C118.237 66.1389 118.247 66.1645 118.262 66.1867C118.278 66.209 118.299 66.2271 118.323 66.2398C118.347 66.2524 118.373 66.2592 118.401 66.2595H121.445C121.569 66.2594 121.689 66.2142 121.782 66.1323C121.875 66.0503 121.936 65.9372 121.951 65.8142C121.965 65.7061 121.972 65.5973 121.972 65.4883C121.972 64.9943 121.84 64.5093 121.589 64.0837C121.338 63.6581 120.978 63.3075 120.546 63.0683C120.114 62.8291 119.625 62.7101 119.131 62.7237C118.637 62.7373 118.156 62.8829 117.738 63.1454L117.738 63.1456Z" fill="#6DDEA2"/>
<path d="M111.609 65.3904C111.609 65.5328 111.619 65.6751 111.639 65.8161C111.657 65.9382 111.717 66.05 111.81 66.1312C111.903 66.2125 112.022 66.2577 112.145 66.2588H117.442C117.565 66.2577 117.684 66.2124 117.777 66.1312C117.87 66.0499 117.93 65.9381 117.947 65.8161C117.968 65.6751 117.978 65.5328 117.978 65.3904C117.981 64.9706 117.9 64.5544 117.741 64.1658C117.582 63.7772 117.348 63.4238 117.052 63.1261C116.756 62.8283 116.404 62.592 116.016 62.4308C115.629 62.2695 115.213 62.1865 114.793 62.1865C114.373 62.1865 113.958 62.2695 113.57 62.4308C113.182 62.592 112.831 62.8283 112.535 63.1261C112.239 63.4238 112.004 63.7772 111.845 64.1658C111.686 64.5544 111.606 64.9706 111.608 65.3904H111.609Z" fill="#6DDEA2"/>
<path d="M159.727 65.6605L162.047 63.1526L159.727 60.6393L160.441 59.8672L163.481 63.1526L160.441 66.438L159.727 65.6605Z" fill="#263238"/>
<g filter="url(#filter0_ii_309_12633)">
<circle cx="165.645" cy="144.793" r="3.98945" fill="#6DDEA2"/>
</g>
<path d="M167.365 144.984H165.999V146.349C165.999 146.421 165.97 146.491 165.919 146.542C165.868 146.593 165.798 146.622 165.726 146.622C165.654 146.622 165.584 146.593 165.533 146.542C165.482 146.491 165.453 146.421 165.453 146.349V144.984H164.088C164.015 144.984 163.946 144.955 163.894 144.904C163.843 144.852 163.814 144.783 163.814 144.71C163.814 144.638 163.843 144.569 163.894 144.517C163.946 144.466 164.015 144.437 164.088 144.437H165.453V143.072C165.453 142.999 165.482 142.93 165.533 142.879C165.584 142.828 165.654 142.799 165.726 142.799C165.798 142.799 165.868 142.828 165.919 142.879C165.97 142.93 165.999 142.999 165.999 143.072V144.437H167.365C167.437 144.437 167.506 144.466 167.558 144.517C167.609 144.569 167.638 144.638 167.638 144.71C167.638 144.783 167.609 144.852 167.558 144.904C167.506 144.955 167.437 144.984 167.365 144.984Z" fill="#263238"/>
<path d="M282.525 3.10649C283.066 3.10649 283.505 2.66772 283.505 2.12648C283.505 1.58524 283.066 1.14648 282.525 1.14648C281.984 1.14648 281.545 1.58524 281.545 2.12648C281.545 2.66772 281.984 3.10649 282.525 3.10649Z" fill="#6DDEA2"/>
<path d="M218.875 86.6866C219.416 86.6866 219.855 86.2478 219.855 85.7066C219.855 85.1653 219.416 84.7266 218.875 84.7266C218.333 84.7266 217.895 85.1653 217.895 85.7066C217.895 86.2478 218.333 86.6866 218.875 86.6866Z" fill="#6DDEA2"/>
<path d="M233.294 2.53617C233.836 2.53617 234.274 2.09741 234.274 1.55617C234.274 1.01493 233.836 0.576172 233.294 0.576172C232.753 0.576172 232.314 1.01493 232.314 1.55617C232.314 2.09741 232.753 2.53617 233.294 2.53617Z" fill="#6DDEA2"/>
<path d="M311.125 39.2666C311.666 39.2666 312.105 38.8279 312.105 38.2866C312.105 37.7454 311.666 37.3066 311.125 37.3066C310.583 37.3066 310.145 37.7454 310.145 38.2866C310.145 38.8279 310.583 39.2666 311.125 39.2666Z" fill="#6DDEA2"/>
<path d="M256.754 93.6758V97.9858" stroke="#6DDEA2" stroke-linecap="round" stroke-linejoin="round"/>
<path d="M254.594 95.8359H258.904" stroke="#6DDEA2" stroke-linecap="round" stroke-linejoin="round"/>
<path d="M300.355 20.5059V24.8159" stroke="#6DDEA2" stroke-linecap="round" stroke-linejoin="round"/>
<path d="M298.195 22.666H302.505" stroke="#6DDEA2" stroke-linecap="round" stroke-linejoin="round"/>
<path d="M250.936 14.4365V18.7465" stroke="#6DDEA2" stroke-linecap="round" stroke-linejoin="round"/>
<path d="M248.785 16.5869H253.085" stroke="#6DDEA2" stroke-linecap="round" stroke-linejoin="round"/>
<path d="M65.5249 97.1065C66.0662 97.1065 66.5049 96.6677 66.5049 96.1265C66.5049 95.5852 66.0662 95.1465 65.5249 95.1465C64.9837 95.1465 64.5449 95.5852 64.5449 96.1265C64.5449 96.6677 64.9837 97.1065 65.5249 97.1065Z" fill="#6DDEA2"/>
<path d="M1.87453 180.687C2.41577 180.687 2.85453 180.248 2.85453 179.707C2.85453 179.165 2.41577 178.727 1.87453 178.727C1.33329 178.727 0.894531 179.165 0.894531 179.707C0.894531 180.248 1.33329 180.687 1.87453 180.687Z" fill="#6DDEA2"/>
<path d="M16.2945 96.5362C16.8357 96.5362 17.2745 96.0974 17.2745 95.5562C17.2745 95.0149 16.8357 94.5762 16.2945 94.5762C15.7532 94.5762 15.3145 95.0149 15.3145 95.5562C15.3145 96.0974 15.7532 96.5362 16.2945 96.5362Z" fill="#6DDEA2"/>
<path d="M94.1245 133.267C94.6658 133.267 95.1045 132.828 95.1045 132.287C95.1045 131.745 94.6658 131.307 94.1245 131.307C93.5833 131.307 93.1445 131.745 93.1445 132.287C93.1445 132.828 93.5833 133.267 94.1245 133.267Z" fill="#6DDEA2"/>
<path d="M39.7539 187.676V191.986" stroke="#6DDEA2" stroke-linecap="round" stroke-linejoin="round"/>
<path d="M37.5938 189.836H41.9037" stroke="#6DDEA2" stroke-linecap="round" stroke-linejoin="round"/>
<path d="M83.3555 114.506V118.816" stroke="#6DDEA2" stroke-linecap="round" stroke-linejoin="round"/>
<path d="M81.1953 116.666H85.5053" stroke="#6DDEA2" stroke-linecap="round" stroke-linejoin="round"/>
<path d="M33.9355 108.437V112.747" stroke="#6DDEA2" stroke-linecap="round" stroke-linejoin="round"/>
<path d="M31.7852 110.587H36.0852" stroke="#6DDEA2" stroke-linecap="round" stroke-linejoin="round"/>
<defs>
<filter id="filter0_ii_309_12633" x="161.489" y="140.637" width="8.27772" height="8.27772" filterUnits="userSpaceOnUse" color-interpolation-filters="sRGB">
<feFlood flood-opacity="0" result="BackgroundImageFix"/>
<feBlend mode="normal" in="SourceGraphic" in2="BackgroundImageFix" result="shape"/>
<feColorMatrix in="SourceAlpha" type="matrix" values="0 0 0 0 0 0 0 0 0 0 0 0 0 0 0 0 0 0 127 0" result="hardAlpha"/>
<feOffset dx="0.166227" dy="0.166227"/>
<feGaussianBlur stdDeviation="0.0664908"/>
<feComposite in2="hardAlpha" operator="arithmetic" k2="-1" k3="1"/>
<feColorMatrix type="matrix" values="0 0 0 0 0.6625 0 0 0 0 1 0 0 0 0 0.820797 0 0 0 1 0"/>
<feBlend mode="normal" in2="shape" result="effect1_innerShadow_309_12633"/>
<feColorMatrix in="SourceAlpha" type="matrix" values="0 0 0 0 0 0 0 0 0 0 0 0 0 0 0 0 0 0 127 0" result="hardAlpha"/>
<feOffset dx="-0.166227" dy="-0.166227"/>
<feGaussianBlur stdDeviation="0.12467"/>
<feComposite in2="hardAlpha" operator="arithmetic" k2="-1" k3="1"/>
<feColorMatrix type="matrix" values="0 0 0 0 0 0 0 0 0 0 0 0 0 0 0 0 0 0 0.25 0"/>
<feBlend mode="normal" in2="effect1_innerShadow_309_12633" result="effect2_innerShadow_309_12633"/>
</filter>
</defs>
</svg>
