<svg width="321" height="224" viewBox="0 0 321 224" fill="none" xmlns="http://www.w3.org/2000/svg">
<path d="M130.246 15.8361C130.246 15.8361 157.04 46.5521 214.724 11.4565C265.953 -19.7115 287.902 50.7649 281.874 81.0869C274.065 120.366 224.318 142.78 239.967 172.885C255.615 202.99 184.196 232.547 158.083 188.746C125.601 134.26 106.52 169.107 82.5955 164.148C65.4251 160.589 39.0143 110.619 69.3984 83.8115C94.9662 61.2535 85.8781 50.1248 82.5059 39.7683C77.6423 24.832 103.279 -7.66063 130.246 15.8361Z" fill="#D7F3E4"/>
<path d="M246.062 3.23844C244.452 3.43137 242.825 3.43137 241.215 3.23844C242.825 3.04552 244.452 3.04552 246.062 3.23844Z" fill="#FAFAFA"/>
<path d="M248.577 10.4336C248.033 11.0586 247.418 11.6188 246.746 12.103C246.134 12.6605 245.458 13.1425 244.731 13.5387C245.277 12.9152 245.891 12.3553 246.562 11.8693C247.176 11.314 247.852 10.8322 248.577 10.4336Z" fill="#FAFAFA"/>
<path d="M291.781 86.7746L296.906 80.4531L291.781 86.7746Z" fill="white"/>
<path d="M23.9937 93.9031L17.4998 88.6445L23.9937 93.9031Z" fill="white"/>
<path d="M320.5 217.922C320.5 218.005 255.344 218.067 174.993 218.067C94.6416 218.067 29.4684 218.033 29.4684 217.922C29.4684 217.811 94.6066 217.777 174.993 217.777C255.379 217.777 320.5 217.844 320.5 217.922Z" fill="#263238"/>
<path d="M250.485 0.166016H46.0342V134.029H250.485V0.166016Z" fill="#FAFAFA"/>
<path d="M251.119 9.58218C251.119 9.66009 205.345 9.72686 148.891 9.72686C92.4376 9.72686 46.6627 9.66009 46.6627 9.58218C46.6627 9.50428 92.4265 9.4375 148.891 9.4375C205.356 9.4375 251.119 9.50428 251.119 9.58218Z" fill="#263238"/>
<path d="M53.2802 5.21322C53.2802 5.44544 53.2113 5.67245 53.0823 5.86554C52.9533 6.05862 52.7699 6.20911 52.5553 6.29798C52.3408 6.38685 52.1047 6.4101 51.877 6.3648C51.6492 6.31949 51.44 6.20767 51.2758 6.04346C51.1116 5.87925 50.9998 5.67004 50.9544 5.44228C50.9091 5.21452 50.9324 4.97844 51.0213 4.76389C51.1101 4.54935 51.2606 4.36597 51.4537 4.23695C51.6468 4.10794 51.8738 4.03908 52.106 4.03908C52.2604 4.03834 52.4134 4.0682 52.5562 4.12695C52.699 4.18569 52.8287 4.27215 52.9379 4.38133C53.0471 4.49051 53.1335 4.62024 53.1923 4.76302C53.251 4.90581 53.2809 5.05882 53.2802 5.21322Z" fill="#263238"/>
<path d="M57.5084 5.21322C57.5084 5.44544 57.4396 5.67245 57.3106 5.86554C57.1815 6.05862 56.9982 6.20911 56.7836 6.29798C56.5691 6.38685 56.333 6.4101 56.1052 6.3648C55.8775 6.31949 55.6683 6.20767 55.5041 6.04346C55.3399 5.87925 55.228 5.67004 55.1827 5.44228C55.1374 5.21452 55.1607 4.97844 55.2495 4.76389C55.3384 4.54935 55.4889 4.36597 55.682 4.23695C55.8751 4.10794 56.1021 4.03908 56.3343 4.03908C56.4887 4.03834 56.6417 4.0682 56.7845 4.12695C56.9273 4.18569 57.057 4.27215 57.1662 4.38133C57.2754 4.49051 57.3618 4.62024 57.4206 4.76302C57.4793 4.90581 57.5092 5.05882 57.5084 5.21322Z" fill="#263238"/>
<path d="M61.7468 5.21322C61.7468 5.44568 61.6778 5.67291 61.5486 5.86611C61.4193 6.05932 61.2356 6.2098 61.0207 6.2985C60.8059 6.38721 60.5695 6.41013 60.3416 6.36438C60.1137 6.31862 59.9045 6.20624 59.7405 6.04147C59.5765 5.87671 59.4651 5.66698 59.4204 5.43885C59.3758 5.21072 59.3998 4.97447 59.4895 4.76002C59.5793 4.54558 59.7306 4.36259 59.9244 4.23424C60.1183 4.1059 60.3458 4.03797 60.5783 4.03908C60.7322 4.03907 60.8846 4.06948 61.0268 4.12856C61.1689 4.18763 61.298 4.27421 61.4066 4.38331C61.5151 4.49241 61.6011 4.62189 61.6595 4.76431C61.7179 4.90673 61.7476 5.05929 61.7468 5.21322Z" fill="#263238"/>
<path d="M184.064 16.6758H114.289V20.5265H184.064V16.6758Z" fill="#EBEBEB"/>
<path d="M239.667 124.447C239.667 123.574 239.628 87.0974 239.561 27.3218L239.667 27.4276L56.3559 27.4665L56.5062 27.3218C56.5062 61.6168 56.5062 94.4706 56.5062 124.447L56.3671 124.308L239.695 124.447L56.3671 124.581H56.2335V124.447C56.2335 94.4706 56.2335 61.6168 56.2335 27.3218V27.166H56.3949L239.706 27.1994H239.817V27.3107C239.711 87.0974 239.672 123.574 239.667 124.447Z" fill="#263238"/>
<path d="M78.9109 124.247C78.8274 124.247 78.8274 102.506 78.9109 75.6897C78.9943 48.8736 79.1168 27.127 79.1947 27.127C79.2726 27.127 79.2781 48.8681 79.1947 75.6897C79.1112 102.511 78.9888 124.247 78.9109 124.247Z" fill="#263238"/>
<path d="M106.105 124.325C106.027 124.325 106.027 102.584 106.105 75.7678C106.183 48.9518 106.311 27.2051 106.389 27.2051C106.467 27.2051 106.472 48.9462 106.389 75.7678C106.305 102.59 106.188 124.325 106.105 124.325Z" fill="#263238"/>
<path d="M133.305 124.409C133.222 124.409 133.222 102.662 133.305 75.846C133.389 49.0299 133.511 27.2832 133.589 27.2832C133.667 27.2832 133.673 49.0243 133.589 75.846C133.506 102.668 133.383 124.409 133.305 124.409Z" fill="#263238"/>
<path d="M160.499 124.487C160.421 124.487 160.421 102.74 160.499 75.9241C160.577 49.108 160.705 27.3613 160.783 27.3613C160.861 27.3613 160.866 49.1025 160.783 75.9297C160.7 102.757 160.583 124.487 160.499 124.487Z" fill="#263238"/>
<path d="M187.722 124.548C187.639 124.548 187.639 102.807 187.722 75.9905C187.805 49.1744 187.928 27.4277 188.006 27.4277C188.084 27.4277 188.089 49.1633 188.006 75.9905C187.922 102.818 187.778 124.548 187.722 124.548Z" fill="#263238"/>
<path d="M214.894 124.643C214.816 124.643 214.816 102.902 214.894 76.0862C214.971 49.2701 215.099 27.5234 215.177 27.5234C215.255 27.5234 215.261 49.259 215.177 76.0862C215.094 102.913 214.988 124.643 214.894 124.643Z" fill="#263238"/>
<path d="M239.667 50.8048C239.667 50.8827 198.677 50.9495 148.117 50.9495C97.5563 50.9495 56.5559 50.8827 56.5559 50.8048C56.5559 50.7269 97.5452 50.6602 148.117 50.6602C198.688 50.6602 239.667 50.7214 239.667 50.8048Z" fill="#263238"/>
<path d="M239.667 75.6896C239.667 75.7675 198.677 75.8343 148.117 75.8343C97.5563 75.8343 56.5559 75.7675 56.5559 75.6896C56.5559 75.6117 97.5452 75.5449 148.117 75.5449C198.688 75.5449 239.667 75.6061 239.667 75.6896Z" fill="#263238"/>
<path d="M239.667 100.57C239.667 100.654 198.677 100.715 148.117 100.715C97.5563 100.715 56.5559 100.654 56.5559 100.57C56.5559 100.487 97.5452 100.426 148.117 100.426C198.688 100.426 239.667 100.493 239.667 100.57Z" fill="#263238"/>
<path d="M58.1823 102.783C58.1823 102.783 56.0121 116.873 58.2714 125.654L79.9735 124.864C79.9735 124.864 75.5218 110.846 78.3431 103.84L58.1823 102.783Z" fill="#EBEBEB"/>
<path d="M58.2701 102.289C58.2701 102.289 58.4148 119.601 59.294 124.882L80.9962 123.852C80.9962 123.852 79.0875 106.835 79.8221 102.289H58.2701Z" fill="#6DDEA2"/>
<path d="M76.5606 109.524C76.5606 109.608 73.3053 109.869 69.282 110.109C65.2588 110.348 61.9979 110.481 61.9923 110.404C61.9868 110.326 65.2421 110.064 69.2653 109.819C73.2886 109.574 76.555 109.463 76.5606 109.524Z" fill="white"/>
<path d="M76.5667 113.206C76.5667 113.29 73.3114 113.551 69.2881 113.791C65.2649 114.03 62.004 114.163 61.9984 114.086C61.9929 114.008 65.2482 113.746 69.2714 113.501C73.2947 113.256 76.5611 113.128 76.5667 113.206Z" fill="white"/>
<path d="M72.8783 116.807C72.4823 116.914 72.0751 116.974 71.6652 116.986C70.9195 117.058 69.8789 117.136 68.7326 117.203C67.5863 117.269 66.5513 117.319 65.8 117.336C65.3924 117.377 64.9812 117.368 64.5758 117.308C64.97 117.202 65.3752 117.142 65.7833 117.13C66.5346 117.063 67.5696 116.986 68.7159 116.913C69.8622 116.841 70.9028 116.796 71.6541 116.78C72.0619 116.743 72.4725 116.752 72.8783 116.807Z" fill="white"/>
<path d="M107.858 29.7598C107.858 29.7598 106.077 44.4226 108.336 53.2037L129.666 52.0907C129.666 52.0907 125.214 37.7951 127.996 30.7892L107.858 29.7598Z" fill="#EBEBEB"/>
<path d="M107.946 29.2422C107.946 29.2422 108.091 46.5538 108.97 51.8347L130.672 50.8052C130.672 50.8052 128.764 33.7885 129.498 29.2422H107.946Z" fill="#6DDEA2"/>
<path d="M126.237 36.5151C126.237 36.593 122.982 36.8545 118.964 37.0715C114.946 37.2886 111.674 37.4444 111.669 37.3609C111.663 37.2774 114.918 37.0215 118.942 36.8044C122.965 36.5874 126.231 36.4316 126.237 36.5151Z" fill="white"/>
<path d="M126.243 40.1825C126.243 40.2604 122.993 40.5219 118.97 40.7389C114.947 40.956 111.68 41.1173 111.675 41.0339C111.669 40.9504 114.924 40.6944 118.953 40.4496C122.982 40.2047 126.237 40.099 126.243 40.1825Z" fill="white"/>
<path d="M122.552 43.7818C122.158 43.8844 121.753 43.9423 121.345 43.9543C120.594 44.0267 119.559 44.1046 118.412 44.1714C117.266 44.2381 116.225 44.2882 115.474 44.3105C115.066 44.3507 114.655 44.3395 114.25 44.2771C114.647 44.1743 115.054 44.1164 115.463 44.1046C116.209 44.0323 117.249 43.9543 118.396 43.8876C119.542 43.8208 120.577 43.7707 121.328 43.7485C121.736 43.7079 122.147 43.7191 122.552 43.7818Z" fill="white"/>
<path d="M136.437 101.816C136.437 101.816 134.684 117.848 136.938 126.629L158.362 125.689C158.362 125.689 153.771 109.874 156.592 102.874L136.437 101.816Z" fill="#EBEBEB"/>
<path d="M136.526 101.299C136.526 101.299 136.671 118.61 137.55 123.891L159.252 122.862C159.252 122.862 157.344 105.845 158.078 101.299H136.526Z" fill="#6DDEA2"/>
<path d="M154.817 108.571C154.817 108.649 151.561 108.911 147.544 109.128C143.526 109.345 140.254 109.506 140.248 109.423C140.243 109.339 143.498 109.083 147.521 108.838C151.545 108.593 154.811 108.488 154.817 108.571Z" fill="white"/>
<path d="M154.823 112.239C154.823 112.317 151.567 112.579 147.55 112.796C143.532 113.013 140.26 113.168 140.254 113.091C140.249 113.013 143.504 112.751 147.527 112.506C151.551 112.261 154.817 112.156 154.823 112.239Z" fill="white"/>
<path d="M151.134 115.838C150.738 115.941 150.331 115.999 149.921 116.011C149.176 116.083 148.14 116.161 146.994 116.228C145.848 116.295 144.807 116.345 144.056 116.367C143.648 116.404 143.237 116.393 142.832 116.334C143.227 116.231 143.632 116.173 144.039 116.161C144.791 116.089 145.826 116.011 146.972 115.939C148.118 115.866 149.159 115.827 149.91 115.805C150.318 115.765 150.729 115.776 151.134 115.838Z" fill="white"/>
<path d="M218.261 53.0312C218.261 53.0312 216.035 66.7982 218.289 75.5737L240.041 75.1063C240.041 75.1063 235.589 61.0889 238.411 54.083L218.261 53.0312Z" fill="#EBEBEB"/>
<path d="M218.327 52.5195C218.327 52.5195 218.471 69.8256 219.351 75.1065L241.053 74.0826C241.053 74.0826 239.144 57.0659 239.879 52.5195H218.327Z" fill="#6DDEA2"/>
<path d="M236.633 59.7856C236.633 59.869 233.384 60.125 229.36 60.342C225.337 60.559 222.071 60.7149 222.065 60.6369C222.06 60.559 225.315 60.2919 229.344 60.0805C233.373 59.869 236.628 59.7077 236.633 59.7856Z" fill="white"/>
<path d="M236.64 63.4535C236.64 63.5314 233.39 63.793 229.367 64.01C225.343 64.227 222.077 64.3828 222.071 64.3049C222.066 64.227 225.327 63.9599 229.35 63.7485C233.373 63.537 236.634 63.3756 236.64 63.4535Z" fill="white"/>
<path d="M232.951 67.0548C232.557 67.1619 232.152 67.2217 231.744 67.2329C230.992 67.2996 229.957 67.3775 228.811 67.4499C227.665 67.5222 226.624 67.5667 225.873 67.5834C225.466 67.6292 225.055 67.6292 224.649 67.5834C225.045 67.4767 225.452 67.417 225.862 67.4054C226.607 67.333 227.648 67.2551 228.794 67.1883C229.941 67.1216 230.976 67.0715 231.733 67.0548C232.137 67.0052 232.546 67.0052 232.951 67.0548Z" fill="white"/>
<path d="M163.148 78.2559C163.148 78.2559 160.922 92.0228 163.176 100.804L184.928 100.336C184.928 100.336 180.477 86.319 183.298 79.3076L163.148 78.2559Z" fill="#EBEBEB"/>
<path d="M163.237 77.7441C163.237 77.7441 163.381 95.0558 164.26 100.337L185.963 99.3072C185.963 99.3072 184.054 82.2905 184.789 77.7441H163.237Z" fill="#6DDEA2"/>
<path d="M181.523 85.0395C181.523 85.123 178.273 85.3845 174.25 85.6238C170.227 85.8631 166.96 85.9966 166.955 85.9187C166.949 85.8408 170.204 85.5793 174.233 85.3344C178.262 85.0896 181.517 84.9338 181.523 85.0395Z" fill="white"/>
<path d="M181.527 88.677C181.527 88.7605 178.277 89.0221 174.254 89.2613C170.231 89.5006 166.964 89.6342 166.959 89.5563C166.953 89.4784 170.214 89.2168 174.237 88.972C178.261 88.7271 181.521 88.5991 181.527 88.677Z" fill="white"/>
<path d="M177.839 92.2727C177.444 92.3791 177.039 92.4389 176.631 92.4508C175.88 92.5231 174.845 92.601 173.698 92.6678C172.552 92.7346 171.512 92.7846 170.76 92.8013C170.353 92.8413 169.942 92.832 169.536 92.7735C169.932 92.6668 170.339 92.607 170.749 92.5954C171.495 92.5287 172.535 92.4452 173.682 92.3784C174.828 92.3116 175.863 92.2616 176.614 92.2449C177.022 92.2078 177.433 92.2171 177.839 92.2727Z" fill="white"/>
<path d="M213.318 58.1892L201.794 64.1212L196.218 63.331L199.201 58.0446L211.359 53.7598L213.318 58.1892Z" fill="#EBEBEB"/>
<path d="M195.74 62.2397L198.567 57.6934L211.054 53.1582L213.564 58.0941L201.455 62.9297L195.74 62.2397Z" fill="#455A64"/>
<path d="M209.652 56.1019C209.266 56.3255 208.86 56.5118 208.439 56.6584C207.682 56.97 206.63 57.3818 205.462 57.8269L202.462 58.9399C201.7 59.2181 201.194 59.385 201.227 59.3683C201.133 59.2515 203.03 58.4391 205.356 57.5487C207.682 56.6584 209.619 56.0017 209.652 56.1019Z" fill="white"/>
<path d="M207.699 58.3281C205.977 59.3331 204.094 60.0334 202.134 60.3982C203.039 59.987 203.968 59.6302 204.916 59.3298C205.823 58.9419 206.752 58.6075 207.699 58.3281Z" fill="white"/>
<path d="M58.2538 52.2402C58.2538 52.2402 56.2505 71.6275 58.9159 75.6897L79.0489 74.4655L77.9805 52.9303L58.2538 52.2402Z" fill="#E0E0E0"/>
<path d="M58.2538 52.2402C58.2538 52.2402 58.3929 69.1067 59.2554 74.2485L80.4011 73.2468C80.4011 73.2468 78.5425 56.6697 79.2604 52.2402H58.2538Z" fill="#455A64"/>
<path d="M68.6707 54.6267H68.7486H68.9767C69.2706 54.6149 69.5648 54.6298 69.856 54.6712C70.3218 54.7362 70.7755 54.8693 71.2026 55.0663C71.7657 55.3459 72.2642 55.7402 72.6661 56.2237C73.1512 56.8187 73.4972 57.5145 73.6789 58.2604C73.8413 59.1363 73.7644 60.0399 73.4563 60.8758C73.2983 61.329 73.099 61.7667 72.8609 62.1835C72.6103 62.6102 72.3837 63.0504 72.182 63.5023C71.7628 64.4586 71.4763 65.4677 71.3306 66.5016V66.574H71.2638L69.1771 66.6074L66.9846 66.6408H66.9067V66.5629C66.8146 65.5309 66.4665 64.5382 65.8939 63.6748C65.6379 63.2408 65.3375 62.8345 65.1037 62.4227C64.8303 62.0342 64.5812 61.6291 64.3581 61.2096C63.9688 60.4101 63.8535 59.5048 64.0298 58.6332C64.1525 57.8835 64.4291 57.1673 64.8422 56.5298C65.1995 56.0145 65.672 55.5896 66.2222 55.2889C66.6295 55.0634 67.0658 54.8949 67.5188 54.788C67.8023 54.7182 68.0906 54.6699 68.3813 54.6434H68.6874H68.6095H68.3869C68.0991 54.6761 67.8144 54.732 67.5355 54.8103C67.0895 54.925 66.6609 55.0991 66.2612 55.3278C65.7307 55.6297 65.276 56.0484 64.9312 56.552C64.5316 57.1809 64.2664 57.8857 64.1522 58.6221C63.9889 59.4673 64.1062 60.3426 64.4861 61.115C64.7084 61.5284 64.9555 61.928 65.2262 62.3115C65.4821 62.7177 65.7826 63.1239 66.0219 63.5635C66.6147 64.4483 66.9745 65.4685 67.0681 66.5295L66.9902 66.4516L69.1771 66.4126L71.2638 66.3848L71.1915 66.4516C71.3353 65.401 71.6276 64.3761 72.0596 63.4077C72.266 62.9525 72.4963 62.5086 72.7496 62.0777C72.9846 61.6699 73.1821 61.2415 73.3394 60.7979C73.6446 59.9866 73.7254 59.1081 73.5731 58.2548C73.3998 57.5253 73.0672 56.8431 72.5993 56.2571C72.2105 55.7811 71.7274 55.3908 71.1803 55.1108C70.7629 54.9095 70.3188 54.769 69.8615 54.6934C69.5746 54.6456 69.2843 54.6214 68.9934 54.6211H68.6874L68.6707 54.6267Z" fill="white"/>
<path d="M69.7508 66.376V66.3092V66.1144L69.634 65.3576C69.5394 64.701 69.4003 63.7495 69.3057 62.5753C69.3057 62.2748 69.2612 61.9688 69.25 61.646C69.2389 61.3233 69.2222 60.9838 69.25 60.6332C69.2571 60.2688 69.3365 59.9094 69.4837 59.576C69.645 59.2174 69.9321 58.9304 70.2906 58.7691C70.4831 58.6905 70.6942 58.6692 70.8986 58.7077C71.1029 58.7461 71.2918 58.8428 71.4425 58.9861C71.5951 59.132 71.6849 59.3316 71.6929 59.5426C71.6862 59.7625 71.6102 59.9748 71.4759 60.1491C71.3397 60.3244 71.1643 60.4654 70.9639 60.5609C70.7646 60.6577 70.5531 60.7269 70.3351 60.7668C69.8978 60.8611 69.4525 60.9133 69.0052 60.9226C68.5554 60.9415 68.1048 60.921 67.6585 60.8614C67.4397 60.8264 67.2264 60.7628 67.0242 60.6722C66.8149 60.5852 66.6256 60.4564 66.4677 60.2938C66.316 60.1403 66.2101 59.9476 66.1616 59.7373C66.1151 59.5255 66.1405 59.3042 66.234 59.1085C66.3256 58.9165 66.4838 58.7643 66.6792 58.6801C66.7736 58.6373 66.876 58.6152 66.9796 58.6152C67.0833 58.6152 67.1857 58.6373 67.2801 58.6801C67.4606 58.765 67.6159 58.8954 67.7309 59.0584C67.84 59.228 67.9156 59.4169 67.9535 59.6149C68.0206 59.9709 68.056 60.3322 68.0592 60.6945C68.0981 61.39 68.1315 62.0411 68.1649 62.631C68.2206 63.8162 68.2706 64.7734 68.304 65.4133C68.304 65.7416 68.304 65.9976 68.3374 66.1757V66.376V66.4428C68.3362 66.4205 68.3362 66.3982 68.3374 66.376V66.1757C68.3374 65.9976 68.3096 65.7416 68.2873 65.4133C68.2484 64.7511 68.1927 63.794 68.126 62.631C68.0926 62.0355 68.0592 61.39 68.0202 60.6945C68.0104 60.336 67.9732 59.9788 67.9089 59.626C67.8681 59.4454 67.7945 59.2738 67.6919 59.1197C67.587 58.9624 67.4407 58.8372 67.269 58.758C67.1832 58.7152 67.0894 58.6907 66.9937 58.6859C66.8979 58.6811 66.8022 58.6962 66.7125 58.7301C66.532 58.8084 66.3871 58.9513 66.3063 59.1308C66.2162 59.3116 66.1907 59.5178 66.234 59.7151C66.2767 59.9251 66.3791 60.1183 66.5289 60.2715C66.8255 60.5787 67.2182 60.775 67.6418 60.828C68.0825 60.8876 68.5275 60.9081 68.9718 60.8892C69.4169 60.879 69.8601 60.8287 70.2962 60.739C70.5074 60.694 70.7128 60.6249 70.9083 60.5331C71.0998 60.4435 71.2676 60.31 71.398 60.1436C71.5205 59.9831 71.5905 59.7888 71.5983 59.5871C71.6024 59.4834 71.5842 59.38 71.5448 59.284C71.5054 59.188 71.4459 59.1016 71.3702 59.0306C71.229 58.8943 71.0511 58.8023 70.8583 58.7657C70.6656 58.7291 70.4663 58.7496 70.2851 58.8247C69.9413 58.9793 69.6662 59.2545 69.5116 59.5982C69.3661 59.9247 69.2848 60.2761 69.2723 60.6332C69.2723 60.9838 69.2723 61.3177 69.2723 61.6404C69.2723 61.9632 69.2723 62.2748 69.3224 62.5697C69.4114 63.7495 69.545 64.701 69.6284 65.3521C69.6729 65.6804 69.7119 65.9085 69.7342 66.1089L69.762 66.3092C69.7595 66.3316 69.7558 66.3539 69.7508 66.376Z" fill="white"/>
<path d="M66.9675 66.4854C66.9675 66.4854 66.9954 66.747 67.0232 67.1866C67.051 67.6262 67.0844 68.2995 67.1178 69.0173V68.9728L68.5423 70.6422L68.47 70.6144L70.1394 70.5198L70.067 70.5532L70.885 69.5515L71.2968 69.0563V69.1175C71.2968 68.1548 71.2579 67.2422 71.2356 66.4075L71.3247 66.491L68.253 66.5244H67.3626C67.2515 66.532 67.1399 66.532 67.0287 66.5244C67.1268 66.515 67.2256 66.515 67.3237 66.5244L68.1918 66.4798L71.3191 66.3574H71.4081V66.4465C71.4081 67.2812 71.4582 68.1938 71.486 69.1565V69.1954H71.4582C71.3247 69.3568 71.1855 69.5237 71.052 69.6962C70.7682 70.0357 70.4955 70.3695 70.2284 70.6923L70.2006 70.7257H70.1561L68.4867 70.8036H68.4422V70.7702L67.0454 69.1008V69.073C67.0454 68.344 67.0454 67.7208 67.0454 67.1977C66.9675 66.708 66.9675 66.4743 66.9675 66.4854Z" fill="white"/>
<path d="M71.2191 68.8678C71.1651 68.8508 71.1129 68.8284 71.0633 68.801C70.9632 68.7565 70.8185 68.6953 70.6349 68.6341C70.1571 68.4704 69.654 68.3931 69.1491 68.406C68.6443 68.422 68.1465 68.5295 67.68 68.7231C67.5372 68.7799 67.3979 68.8449 67.2627 68.9179L67.1124 68.9902C67.1547 68.9531 67.2014 68.9213 67.2515 68.8956C67.3814 68.8133 67.5172 68.7408 67.6578 68.6786C68.1281 68.4697 68.6347 68.3544 69.1491 68.3392C69.6613 68.3262 70.1712 68.4112 70.6516 68.5896C70.7967 68.6428 70.938 68.706 71.0745 68.7788C71.1263 68.8021 71.175 68.832 71.2191 68.8678Z" fill="white"/>
<path d="M71.2191 68.2122L71.0633 68.1455C70.9632 68.1009 70.8185 68.0397 70.6349 67.973C70.1567 67.8114 69.6536 67.736 69.1491 67.7504C68.6443 67.7664 68.1465 67.8739 67.68 68.0676C67.5362 68.122 67.3967 68.1871 67.2627 68.2623C67.2153 68.2918 67.165 68.316 67.1124 68.3347C67.1124 68.3347 67.1569 68.2957 67.2515 68.2401C67.3801 68.1556 67.5161 68.083 67.6578 68.023C68.6052 67.601 69.6807 67.569 70.6516 67.934C70.7973 67.9859 70.9387 68.0491 71.0745 68.1232C71.1263 68.1465 71.175 68.1764 71.2191 68.2122Z" fill="white"/>
<path d="M71.1803 67.5814C71.1263 67.5644 71.0741 67.542 71.0245 67.5146C70.9243 67.4701 70.7797 67.4089 70.596 67.3477C70.1183 67.184 69.6152 67.1067 69.1103 67.1195C68.6054 67.1356 68.1077 67.2431 67.6412 67.4367C67.4984 67.4935 67.3591 67.5585 67.2239 67.6315L67.0736 67.7094C67.0736 67.7094 67.1181 67.6648 67.2127 67.6092C67.3438 67.5291 67.4795 67.4566 67.6189 67.3922C68.5664 66.9701 69.6419 66.9382 70.6127 67.3031C70.7575 67.3574 70.8987 67.4206 71.0356 67.4923C71.0875 67.5156 71.1362 67.5456 71.1803 67.5814Z" fill="white"/>
<path d="M111.441 98.5283C111.469 98.5283 111.441 98.7899 111.168 99.0848C110.828 99.45 110.412 99.7368 109.949 99.9251C109.325 100.244 108.621 100.373 107.924 100.298C107.924 100.209 108.82 100.098 109.833 99.658C110.264 99.4855 110.665 99.2429 111.018 98.9401C111.285 98.7064 111.396 98.5116 111.441 98.5283Z" fill="#6DDEA2"/>
<path d="M251.12 134.008C251.12 133.068 251.075 81.8227 251.003 0.144682L251.12 0.26154H46.6852L46.8298 0.116857C46.8298 47.7169 46.8298 93.0133 46.8298 133.98L46.6963 133.847L251.147 133.98L46.6963 134.114H46.5627V134.008C46.5627 93.0411 46.5627 47.7559 46.5627 0.144682V0H46.7241H251.159H251.27V0.116857C251.159 81.8283 251.12 133.073 251.12 134.008Z" fill="#263238"/>
<path d="M233.374 113.93L229.356 107.074L225.544 113.93H171.45V142.209H255.682V113.93H233.374Z" fill="#6DDEA2"/>
<path d="M186.609 128.316C187.355 127.995 187.99 127.462 188.435 126.783C188.88 126.105 189.116 125.31 189.113 124.498C189.127 123.465 188.729 122.469 188.008 121.729C187.287 120.989 186.301 120.566 185.268 120.553C184.235 120.54 183.239 120.937 182.499 121.659C181.759 122.38 181.336 123.365 181.323 124.398C181.3 125.216 181.52 126.022 181.955 126.716C182.389 127.409 183.02 127.958 183.766 128.293C177.772 129.145 177.99 135.678 177.99 135.678L192.146 135.861C192.146 135.861 192.524 129.267 186.609 128.316Z" fill="#FAFAFA"/>
<path d="M246.071 122.32C246.071 122.404 235.321 122.465 222.06 122.465C208.799 122.465 198.048 122.404 198.048 122.32C198.048 122.237 208.799 122.176 222.06 122.176C235.321 122.176 246.071 122.231 246.071 122.32Z" fill="#FAFAFA"/>
<path d="M246.071 126.623C246.071 126.701 235.321 126.768 222.06 126.768C208.799 126.768 198.048 126.701 198.048 126.623C198.048 126.545 208.799 126.479 222.06 126.479C235.321 126.479 246.071 126.545 246.071 126.623Z" fill="#FAFAFA"/>
<path d="M246.071 130.936C246.071 131.014 235.321 131.08 222.06 131.08C208.799 131.08 198.048 131.014 198.048 130.936C198.048 130.858 208.799 130.791 222.06 130.791C235.321 130.791 246.071 130.858 246.071 130.936Z" fill="#FAFAFA"/>
<path d="M222.06 135.203C222.06 135.281 216.685 135.348 210.057 135.348C203.429 135.348 198.048 135.281 198.048 135.203C198.048 135.125 203.424 135.059 210.057 135.059C216.69 135.059 222.06 135.12 222.06 135.203Z" fill="#FAFAFA"/>
<path d="M240.513 60.7093C240.006 60.1139 239.617 59.0399 239.923 58.3332C239.322 58.016 239.272 57.4874 239.272 56.814C239.304 56.1355 239.505 55.4757 239.856 54.8942C240.33 53.9074 241.082 53.0813 242.021 52.5181C242.495 52.2472 243.036 52.116 243.582 52.1397C244.127 52.1633 244.655 52.3408 245.104 52.6517C245.426 52.2693 245.823 51.9556 246.269 51.7291C246.715 51.5026 247.202 51.368 247.701 51.3333C248.201 51.2985 248.702 51.3643 249.175 51.5267C249.648 51.6891 250.084 51.9449 250.457 52.2788C250.696 52.5597 250.971 52.8085 251.275 53.0189C251.831 53.3139 252.466 53.2026 253.072 53.2582C253.568 53.304 254.045 53.4663 254.466 53.7318C254.887 53.9974 255.239 54.3587 255.493 54.7863C255.748 55.2139 255.898 55.6956 255.93 56.1921C255.963 56.6886 255.878 57.1858 255.682 57.6432C256.108 57.9395 256.46 58.3292 256.711 58.7825C256.963 59.2358 257.108 59.7407 257.134 60.2586C257.176 61.2925 257.058 62.3268 256.784 63.3247C256.506 64.5656 256.194 65.8733 255.315 66.7915C254.706 67.4315 253.885 67.8273 253.005 67.9044C252.382 67.9472 251.758 67.8302 251.192 67.5644C250.626 67.2985 250.137 66.8927 249.772 66.3852" fill="#263238"/>
<path d="M253.65 81.8887L243.679 81.4324C243.623 80.3752 244.163 73.8255 244.163 73.8255C244.163 73.8255 240.39 73.2691 240.345 69.4684C240.301 65.6678 240.952 57.0425 240.952 57.0425C243.096 56.123 245.447 55.793 247.762 56.0865C250.077 56.38 252.271 57.2864 254.118 58.7119L254.674 59.1404L253.65 81.8887Z" fill="#B78876"/>
<path d="M244.156 73.7698C245.896 73.8031 247.607 73.3168 249.07 72.373C249.07 72.373 247.907 75.0886 244.145 74.7492L244.156 73.7698Z" fill="#AA6550"/>
<path d="M254.207 63.0354C254.274 63.0075 256.801 62.2674 256.717 64.8439C256.634 67.4203 254.063 66.8082 254.063 66.7303C254.063 66.6524 254.207 63.0354 254.207 63.0354Z" fill="#B78876"/>
<path d="M254.88 65.7837C254.88 65.7837 254.925 65.8116 254.997 65.8505C255.051 65.8736 255.108 65.8856 255.167 65.8856C255.225 65.8856 255.283 65.8736 255.336 65.8505C255.508 65.7515 255.65 65.6086 255.748 65.4364C255.845 65.2643 255.896 65.0691 255.893 64.8711C255.909 64.6498 255.877 64.4276 255.798 64.2201C255.777 64.1384 255.736 64.0633 255.678 64.0012C255.621 63.9391 255.55 63.892 255.47 63.8639C255.419 63.8492 255.364 63.8528 255.315 63.8741C255.267 63.8955 255.227 63.9332 255.203 63.9808C255.164 64.0476 255.203 64.1032 255.164 64.1032C255.125 64.1032 255.114 64.0587 255.136 63.953C255.152 63.8901 255.189 63.8349 255.242 63.7972C255.314 63.7452 255.404 63.7232 255.492 63.736C255.598 63.7608 255.695 63.8122 255.775 63.8853C255.855 63.9583 255.914 64.0506 255.949 64.1533C256.051 64.38 256.097 64.6283 256.082 64.8767C256.092 65.11 256.032 65.341 255.909 65.5395C255.785 65.738 255.606 65.8949 255.392 65.9896C255.323 66.0087 255.25 66.0116 255.18 65.9981C255.109 65.9846 255.043 65.955 254.986 65.9117C254.886 65.8449 254.875 65.7837 254.88 65.7837Z" fill="#AA6550"/>
<path d="M241.78 62.9521C241.779 63.0932 241.833 63.2292 241.929 63.3325C242.025 63.4358 242.157 63.4987 242.297 63.5086C242.366 63.5131 242.435 63.5041 242.5 63.4819C242.565 63.4597 242.626 63.4248 242.677 63.3793C242.729 63.3338 242.771 63.2786 242.801 63.2167C242.832 63.1549 242.85 63.0877 242.854 63.0189C242.854 62.8778 242.801 62.7419 242.705 62.6386C242.609 62.5353 242.477 62.4723 242.336 62.4625C242.267 62.4572 242.198 62.4657 242.133 62.4876C242.067 62.5095 242.007 62.5443 241.955 62.5899C241.903 62.6356 241.861 62.6912 241.831 62.7534C241.801 62.8156 241.783 62.8832 241.78 62.9521Z" fill="#263238"/>
<path d="M241.664 62.3449C241.731 62.4173 242.137 62.1168 242.716 62.1168C243.295 62.1168 243.723 62.4062 243.784 62.3338C243.845 62.2615 243.745 62.178 243.562 62.0444C243.312 61.8703 243.015 61.777 242.71 61.7773C242.409 61.7791 242.115 61.8744 241.87 62.05C241.692 62.1891 241.631 62.3116 241.664 62.3449Z" fill="#263238"/>
<path d="M247.453 63.1072C247.453 63.2483 247.506 63.3842 247.602 63.4875C247.698 63.5908 247.83 63.6538 247.97 63.6637C248.039 63.669 248.108 63.6606 248.173 63.6391C248.238 63.6175 248.298 63.5832 248.35 63.5381C248.402 63.4931 248.444 63.4382 248.474 63.3766C248.505 63.3151 248.523 63.2481 248.527 63.1796C248.527 63.0376 248.473 62.9009 248.376 62.7974C248.279 62.694 248.146 62.6316 248.004 62.6231C247.935 62.617 247.867 62.6249 247.801 62.6462C247.736 62.6675 247.676 62.7018 247.625 62.7471C247.573 62.7924 247.531 62.8476 247.502 62.9095C247.472 62.9714 247.456 63.0387 247.453 63.1072Z" fill="#263238"/>
<path d="M247.358 62.4563C247.424 62.5231 247.836 62.2226 248.415 62.2226C248.994 62.2226 249.417 62.5175 249.478 62.4452C249.539 62.3729 249.444 62.2838 249.255 62.1503C249.005 61.9774 248.708 61.8861 248.404 61.8887C248.102 61.8863 247.807 61.982 247.563 62.1614C247.385 62.295 247.324 62.4229 247.358 62.4563Z" fill="#263238"/>
<path d="M245.254 66.7506C244.949 66.6542 244.633 66.5963 244.314 66.5781C244.169 66.5781 244.03 66.5336 244.002 66.4334C243.991 66.2802 244.026 66.1271 244.103 65.9938C244.242 65.6377 244.386 65.2593 244.542 64.8809C244.95 63.9266 245.277 62.9401 245.522 61.9316C245.041 62.8517 244.634 63.808 244.303 64.7919L243.886 65.9048C243.799 66.0765 243.771 66.2723 243.808 66.4613C243.829 66.5141 243.862 66.5613 243.904 66.599C243.947 66.6368 243.998 66.6639 244.053 66.6783C244.134 66.7017 244.218 66.7129 244.303 66.7117C244.617 66.765 244.937 66.7781 245.254 66.7506Z" fill="#263238"/>
<path d="M246.962 67.1525C246.867 67.1525 246.867 67.7757 246.327 68.2209C245.788 68.6661 245.12 68.5993 245.114 68.6828C245.109 68.7662 245.265 68.8052 245.548 68.8163C245.917 68.8176 246.275 68.6918 246.561 68.4602C246.835 68.237 247.011 67.9154 247.051 67.5643C247.073 67.3027 247.006 67.1469 246.962 67.1525Z" fill="#263238"/>
<path d="M247.206 60.1864C247.268 60.3422 247.846 60.2643 248.525 60.3478C249.204 60.4312 249.755 60.6149 249.844 60.4758C249.933 60.3366 249.788 60.2587 249.566 60.1085C249.266 59.9128 248.921 59.796 248.564 59.769C248.216 59.7283 247.864 59.7702 247.535 59.8915C247.312 59.9861 247.184 60.1085 247.206 60.1864Z" fill="#263238"/>
<path d="M241.888 60.6692C241.994 60.7972 242.389 60.6692 242.873 60.6692C243.357 60.6692 243.758 60.7582 243.853 60.6191C243.947 60.48 243.852 60.4188 243.652 60.2964C243.414 60.1432 243.134 60.0674 242.851 60.0794C242.569 60.0833 242.297 60.1769 242.072 60.3465C241.888 60.4689 241.833 60.6024 241.888 60.6692Z" fill="#263238"/>
<path d="M254.876 58.9555C254.826 60.0684 255.071 61.2759 254.876 62.3555C254.843 62.5168 254.42 62.9565 254.386 63.1178C254.164 64.0694 253.769 64.4812 253.201 63.4962C252.982 62.8957 252.833 62.2721 252.756 61.6376L252.071 58.1542C251.187 58.6135 250.202 58.8468 249.206 58.833C248.708 58.8199 248.222 58.6801 247.794 58.427C247.365 58.1738 247.009 57.8156 246.757 57.3862C246.52 57.7772 246.199 58.11 245.817 58.3601C245.434 58.6101 245 58.771 244.547 58.8309C244.094 58.8907 243.634 58.8479 243.199 58.7058C242.765 58.5636 242.368 58.3256 242.038 58.0095C241.853 58.2648 241.58 58.4426 241.272 58.5084C240.964 58.5741 240.642 58.5233 240.369 58.3656C240.103 58.1881 239.901 57.9308 239.791 57.6307C239.681 57.3307 239.669 57.0034 239.757 56.6962C240.018 55.778 241.003 55.2772 241.921 55.0268C245.505 53.9695 249.467 54.7987 252.689 56.6962C253.171 56.9526 253.611 57.2831 253.991 57.6756C254.358 58.0762 254.87 58.5492 254.887 59.0946" fill="#263238"/>
<path d="M261.413 95.1314L265.259 84.6531C264.457 81.9598 261.58 79.044 257.579 78.2816C256.305 78.0368 255.07 77.5749 253.578 77.5137C252.215 78.5909 250.533 79.1866 248.796 79.2077C247.059 79.2288 245.363 78.6743 243.974 77.6305L243.835 77.5304C243.451 77.5749 242.939 77.625 242.299 77.7029H242.171C240.574 77.9027 239.055 78.5081 237.758 79.4613L217.686 91.442L205.9 82.4829L199.93 87.1628C199.93 87.1628 215.371 102.605 216.868 102.972C217.909 103.228 228.209 97.6021 234.453 94.1186C234.197 97.8581 232.783 118.642 232.867 121.48H261.547V108.375V104.808L261.413 95.1314Z" fill="#455A64"/>
<path d="M250.234 107.409C250.234 107.409 264.202 113.569 265.537 113.858C269.989 114.832 274.046 111.115 273.394 107.614C273.061 105.795 265.198 84.1816 265.198 84.1816L259.544 92.601L262.36 103.597L253.857 102.512L250.234 107.409Z" fill="#455A64"/>
<path d="M262.477 112.778C262.409 112.728 262.334 112.687 262.255 112.656L261.587 112.327L259.077 111.159L250.53 107.264L250.586 107.436L252.222 104.509C252.572 103.886 252.917 103.268 253.24 102.684L253.117 102.751L263.34 103.752L266.378 104.025L267.202 104.086C267.296 104.098 267.391 104.098 267.485 104.086C267.395 104.058 267.302 104.041 267.207 104.036L266.389 103.93L263.356 103.58L253.14 102.467H253.062L253.017 102.539C252.695 103.123 252.35 103.736 251.999 104.364C251.443 105.366 250.886 106.345 250.369 107.291L250.302 107.414L250.424 107.469L259.01 111.292L261.548 112.405L262.232 112.689C262.31 112.729 262.392 112.759 262.477 112.778Z" fill="#263238"/>
<path d="M253.267 102.127L254.464 96.3005C254.464 96.3005 239.734 96.1113 239.896 96.3729C240.057 96.6344 241.454 109.728 241.454 109.728C241.454 109.728 251.815 109.339 251.431 109.372L253.267 102.127Z" fill="#263238"/>
<path d="M254.42 99.4727C254.143 99.4712 253.872 99.5539 253.644 99.71C253.415 99.866 253.239 100.088 253.14 100.346C252.985 100.884 252.682 101.368 252.266 101.743C251.626 102.094 250.519 102.372 249.935 102.088C249.35 101.804 247.024 99.7064 246.596 99.9401C246.167 100.174 245.839 100.697 246.245 101.159C246.652 101.621 248.805 103.023 248.399 103.49C247.993 103.958 243.446 101.904 242.751 102.088C242.055 102.272 241.638 102.695 242.05 102.978C242.461 103.262 245.544 104.42 245.722 104.831C245.722 104.831 241.059 103.607 240.887 103.897C240.714 104.186 240.419 104.653 240.887 104.831C241.354 105.01 245.372 106.05 245.722 106.228C246.299 106.467 246.9 106.643 247.514 106.751C248.151 106.918 248.778 107.117 249.395 107.347C250.337 107.675 251.366 107.647 252.289 107.269L252.762 107.074C253.12 106.93 253.423 106.676 253.629 106.35C253.835 106.023 253.932 105.64 253.908 105.254L253.813 103.663L254.325 102.355L254.42 99.4727Z" fill="#B78876"/>
<path d="M261.48 103.523C261.397 103.523 261.336 100.184 261.336 96.0495C261.336 91.915 261.397 88.5762 261.48 88.5762C261.564 88.5762 261.625 91.915 261.625 96.0495C261.625 100.184 261.558 103.523 261.48 103.523Z" fill="#263238"/>
<path d="M234.843 85.2441C234.865 85.4736 234.865 85.7047 234.843 85.9342C234.843 86.435 234.81 87.0471 234.793 87.8039C234.732 89.3787 234.632 91.56 234.504 93.964C234.376 96.3679 234.237 98.5492 234.131 100.124C234.07 100.864 234.02 101.487 233.981 101.988C233.977 102.219 233.945 102.449 233.886 102.673C233.865 102.443 233.865 102.212 233.886 101.983C233.886 101.482 233.919 100.87 233.942 100.113C233.997 98.5381 234.098 96.3568 234.231 93.9473C234.365 91.5378 234.493 89.362 234.604 87.7872C234.66 87.0471 234.71 86.4238 234.749 85.923C234.752 85.6937 234.783 85.4656 234.843 85.2441Z" fill="#263238"/>
<path d="M261.202 88.5763C261.202 88.6598 255.364 88.721 248.158 88.721C240.952 88.721 235.109 88.6598 235.109 88.5763C235.109 88.4929 240.952 88.4316 248.158 88.4316C255.364 88.4316 261.202 88.4984 261.202 88.5763Z" fill="white"/>
<path d="M261.253 90.0353C261.253 90.1132 255.321 90.18 248.009 90.18C240.697 90.18 234.76 90.1132 234.76 90.0353C234.76 89.9574 240.692 89.8906 248.009 89.8906C255.327 89.8906 261.253 89.9518 261.253 90.0353Z" fill="white"/>
<path d="M261.474 91.8986C261.474 91.9821 255.632 92.0433 248.425 92.0433C241.219 92.0433 235.376 91.9821 235.376 91.8986C235.376 91.8151 241.219 91.7539 248.425 91.7539C255.632 91.7539 261.474 91.8207 261.474 91.8986Z" fill="white"/>
<path d="M259.582 103.535C259.107 104.62 258.568 105.676 257.968 106.696C257.455 107.761 256.881 108.796 256.248 109.795C256.621 108.668 257.112 107.582 257.712 106.557C258.23 105.488 258.856 104.476 259.582 103.535Z" fill="#263238"/>
<path d="M261.198 103.936C260.289 106.152 259.088 108.237 257.626 110.135C258.148 109.062 258.729 108.02 259.367 107.013C259.918 105.953 260.53 104.925 261.198 103.936Z" fill="#263238"/>
<path d="M209.055 85.0391C209.122 85.1058 207.825 86.3356 206.172 87.7824C205.202 88.6893 204.168 89.5261 203.078 90.2865C203.977 89.3081 204.946 88.3968 205.978 87.5599C206.807 86.8364 207.563 86.1965 208.12 85.7402C208.407 85.4748 208.72 85.2399 209.055 85.0391Z" fill="#263238"/>
<path d="M210.423 86.0566C209.519 87.0547 208.543 87.9846 207.502 88.839C206.673 89.5735 205.91 90.2301 205.348 90.692C205.063 90.9664 204.743 91.2022 204.397 91.3931C204.632 91.0759 204.905 90.7881 205.209 90.5362C205.766 90.0354 206.478 89.3565 207.312 88.6219C208.147 87.8874 208.91 87.2363 209.472 86.7745C209.76 86.4995 210.079 86.2586 210.423 86.0566Z" fill="#263238"/>
<path d="M239.104 215.373V210.365L248.53 210.248L248.653 217.61L248.096 217.655C245.498 217.833 234.869 218.367 233.122 217.86C231.124 217.276 239.104 215.373 239.104 215.373Z" fill="#6DDEA2"/>
<g opacity="0.4">
<path d="M245.228 217.555C245.36 216.759 245.78 216.041 246.407 215.535C247.024 215.028 247.809 214.773 248.605 214.822L248.639 217.454L245.228 217.555Z" fill="black"/>
</g>
<g opacity="0.4">
<path d="M235.209 216.441C235.209 216.441 232.427 217.287 232.772 217.744C233.117 218.2 243.901 218.066 248.631 217.588V217.376L236.077 217.643C236.077 217.643 235.766 216.458 235.209 216.441Z" fill="black"/>
</g>
<path d="M248.759 217.371H248.598L248.13 217.404L246.422 217.499C244.975 217.571 242.977 217.638 240.768 217.672C238.559 217.705 236.556 217.672 235.109 217.672L233.395 217.622H235.109C236.556 217.622 238.553 217.622 240.763 217.622C242.972 217.622 244.969 217.532 246.416 217.482L248.13 217.427H248.598C248.649 217.402 248.703 217.383 248.759 217.371Z" fill="#263238"/>
<path d="M236.065 217.805C235.984 217.521 235.872 217.247 235.731 216.987C235.559 216.751 235.361 216.535 235.141 216.342C235.425 216.464 235.665 216.669 235.83 216.93C235.995 217.192 236.077 217.497 236.065 217.805Z" fill="#263238"/>
<path d="M238.828 216.347C238.828 216.347 238.667 216.202 238.528 215.985C238.388 215.768 238.294 215.584 238.322 215.568C238.349 215.551 238.483 215.712 238.622 215.924C238.761 216.135 238.856 216.33 238.828 216.347Z" fill="#263238"/>
<path d="M239.588 215.935C239.588 215.935 239.416 215.857 239.249 215.712C239.082 215.567 238.971 215.434 238.993 215.411C239.015 215.389 239.16 215.484 239.327 215.628C239.494 215.773 239.605 215.907 239.588 215.935Z" fill="#263238"/>
<path d="M240.057 215.023C239.9 215.08 239.733 215.102 239.567 215.089C239.401 215.109 239.232 215.094 239.072 215.045C239.228 214.985 239.395 214.961 239.562 214.973C239.728 214.95 239.898 214.967 240.057 215.023Z" fill="#263238"/>
<path d="M240.217 214.404C240.053 214.516 239.859 214.574 239.661 214.571C239.473 214.606 239.279 214.582 239.104 214.504C239.288 214.473 239.474 214.458 239.661 214.46C239.845 214.426 240.031 214.408 240.217 214.404Z" fill="#263238"/>
<path d="M238.5 215.529C238.299 215.564 238.094 215.564 237.893 215.529C237.674 215.506 237.458 215.461 237.248 215.395C237.118 215.362 236.993 215.314 236.875 215.251C236.839 215.231 236.807 215.204 236.781 215.171C236.755 215.139 236.736 215.101 236.725 215.061C236.715 215.017 236.718 214.971 236.734 214.929C236.749 214.886 236.777 214.849 236.814 214.822C236.962 214.747 237.125 214.706 237.291 214.702C237.456 214.697 237.621 214.73 237.773 214.798C237.924 214.866 238.059 214.967 238.166 215.093C238.274 215.22 238.352 215.368 238.394 215.529C238.405 215.582 238.405 215.637 238.394 215.69C238.327 215.506 238.232 215.333 238.11 215.178C237.97 215.022 237.789 214.908 237.587 214.85C237.47 214.812 237.345 214.797 237.222 214.808C237.099 214.818 236.979 214.853 236.869 214.911C236.775 214.984 236.814 215.095 236.919 215.156C237.029 215.215 237.145 215.261 237.264 215.295C237.467 215.365 237.676 215.418 237.888 215.451C238.266 215.512 238.5 215.507 238.5 215.529Z" fill="#263238"/>
<path d="M238.344 215.578C238.266 215.452 238.239 215.301 238.266 215.155C238.284 214.996 238.34 214.844 238.427 214.71C238.477 214.619 238.549 214.543 238.637 214.489C238.724 214.434 238.825 214.403 238.928 214.398C238.958 214.404 238.987 214.415 239.013 214.432C239.039 214.448 239.062 214.47 239.079 214.495C239.097 214.521 239.109 214.549 239.116 214.579C239.122 214.61 239.123 214.641 239.117 214.671C239.104 214.768 239.07 214.861 239.017 214.944C238.939 215.079 238.846 215.204 238.739 215.317C238.646 215.427 238.527 215.513 238.394 215.567C238.394 215.567 238.511 215.456 238.678 215.261C238.774 215.148 238.858 215.025 238.928 214.894C239.006 214.766 239.061 214.532 238.928 214.51C238.794 214.487 238.622 214.649 238.533 214.771C238.449 214.889 238.392 215.024 238.366 215.166C238.343 215.302 238.336 215.44 238.344 215.578Z" fill="#263238"/>
<path d="M248.565 214.794C248.565 214.794 248.292 214.794 247.869 214.827C247.315 214.899 246.791 215.123 246.356 215.473C245.927 215.83 245.604 216.298 245.421 216.825C245.287 217.231 245.276 217.504 245.254 217.504C245.245 217.441 245.245 217.377 245.254 217.315C245.271 217.141 245.305 216.97 245.354 216.803C245.516 216.247 245.842 215.752 246.289 215.384C246.74 215.022 247.288 214.801 247.864 214.749C248.036 214.729 248.209 214.729 248.381 214.749C248.444 214.756 248.506 214.771 248.565 214.794Z" fill="#263238"/>
<path d="M247.506 210.881C247.58 211.524 247.615 212.17 247.612 212.817C247.648 213.462 247.648 214.109 247.612 214.754C247.538 214.113 247.503 213.468 247.506 212.823C247.468 212.176 247.468 211.528 247.506 210.881Z" fill="#263238"/>
<path d="M244.014 216.654C243.564 216.764 243.102 216.817 242.64 216.809C242.177 216.836 241.714 216.804 241.26 216.715C241.26 216.681 241.877 216.715 242.64 216.715C243.402 216.715 244.008 216.62 244.014 216.654Z" fill="#263238"/>
<path d="M245.859 216.627C245.859 216.627 245.809 216.76 245.748 216.899C245.687 217.038 245.654 217.166 245.626 217.166C245.598 217.166 245.576 217.022 245.626 216.855C245.676 216.688 245.837 216.604 245.859 216.627Z" fill="#263238"/>
<path d="M246.546 215.751C246.546 215.751 246.512 215.873 246.412 215.973C246.312 216.073 246.223 216.135 246.201 216.112C246.178 216.09 246.234 215.99 246.334 215.89C246.434 215.79 246.523 215.728 246.546 215.751Z" fill="#263238"/>
<path d="M247.537 215.344C247.537 215.372 247.409 215.372 247.269 215.428C247.13 215.483 247.03 215.55 247.008 215.528C246.986 215.506 247.058 215.378 247.231 215.316C247.403 215.255 247.548 215.311 247.537 215.344Z" fill="#263238"/>
<path d="M248.243 215.146C248.243 215.179 248.204 215.224 248.126 215.257C248.048 215.291 247.976 215.291 247.965 215.257C247.954 215.224 248.004 215.179 248.082 215.146C248.159 215.113 248.232 215.118 248.243 215.146Z" fill="#263238"/>
<path d="M267.745 212.174L268.647 215.947C268.647 215.947 274.818 223.965 276.721 223.57C277.968 223.314 276.432 221.222 274.089 215.134L273.594 212.619L267.745 212.174Z" fill="#6DDEA2"/>
<path d="M276.972 222.39C276.893 222.522 276.78 222.629 276.644 222.702C276.451 222.786 276.238 222.816 276.029 222.788C275.819 222.759 275.622 222.674 275.459 222.54C274.377 221.633 273.351 220.661 272.387 219.63C271.274 218.428 270.289 217.276 269.605 216.425L268.82 215.412L268.603 215.134L268.525 215.039C268.525 215.039 268.525 215.078 268.586 215.145L268.781 215.434C268.959 215.685 269.215 216.041 269.543 216.475C270.415 217.6 271.343 218.679 272.326 219.708C273.293 220.746 274.333 221.715 275.436 222.607C275.643 222.749 275.882 222.837 276.132 222.863C276.325 222.878 276.519 222.835 276.688 222.741C276.795 222.685 276.885 222.602 276.95 222.501C276.964 222.466 276.971 222.428 276.972 222.39Z" fill="#263238"/>
<path d="M276.098 219.813C275.937 219.749 275.763 219.728 275.592 219.752C275.177 219.794 274.779 219.934 274.428 220.158C274.063 220.365 273.768 220.677 273.583 221.054C273.5 221.204 273.454 221.372 273.449 221.544C273.449 221.544 273.505 221.36 273.649 221.088C273.85 220.741 274.138 220.453 274.484 220.253C274.823 220.04 275.202 219.899 275.597 219.836C275.763 219.819 275.931 219.812 276.098 219.813Z" fill="#263238"/>
<path d="M270.267 217.933C270.298 217.875 270.322 217.813 270.34 217.75C270.395 217.581 270.436 217.408 270.462 217.232C270.551 216.644 270.45 216.044 270.173 215.518C269.906 214.984 269.467 214.557 268.926 214.305C268.766 214.229 268.595 214.177 268.42 214.149C268.355 214.138 268.289 214.138 268.225 214.149C268.454 214.213 268.677 214.295 268.893 214.394C269.403 214.655 269.816 215.073 270.072 215.585C270.342 216.097 270.45 216.679 270.384 217.254C270.323 217.661 270.234 217.928 270.267 217.933Z" fill="#263238"/>
<path d="M268.141 212.797C268.141 212.797 268.253 213.353 268.37 214.004C268.416 214.413 268.523 214.812 268.687 215.19C268.715 215.19 268.592 214.633 268.475 213.982C268.426 213.572 268.313 213.172 268.141 212.797Z" fill="#263238"/>
<path d="M274.194 215.669C273.937 215.592 273.662 215.592 273.404 215.669C273.139 215.708 272.891 215.824 272.692 216.003C272.692 216.036 273.015 215.869 273.432 215.775C273.849 215.68 274.194 215.702 274.194 215.669Z" fill="#263238"/>
<path d="M274.324 216.313C274.108 216.234 273.872 216.234 273.656 216.313C273.428 216.344 273.219 216.459 273.072 216.636C273.072 216.636 273.339 216.497 273.684 216.419C274.029 216.341 274.318 216.346 274.324 216.313Z" fill="#263238"/>
<path d="M274.819 217.126C274.606 217.015 274.36 216.984 274.126 217.037C273.892 217.09 273.684 217.224 273.539 217.415C273.731 217.299 273.937 217.208 274.151 217.142C274.372 217.112 274.596 217.107 274.819 217.126Z" fill="#263238"/>
<path d="M273.774 215.395C273.774 215.395 273.49 215.318 273.05 215.151C272.793 215.049 272.544 214.928 272.305 214.789C272.162 214.71 272.025 214.623 271.893 214.527C271.77 214.438 271.631 214.299 271.637 214.155C271.643 214.01 271.821 213.926 271.965 213.965C272.111 214.015 272.241 214.101 272.344 214.216C272.572 214.433 272.767 214.639 272.9 214.811C273.217 215.167 273.39 215.401 273.407 215.368C273.379 215.304 273.343 215.244 273.301 215.19C273.195 215.034 273.082 214.883 272.961 214.739C272.787 214.523 272.602 214.317 272.405 214.121C272.291 213.989 272.143 213.891 271.976 213.837C271.927 213.82 271.874 213.815 271.823 213.821C271.771 213.827 271.721 213.844 271.676 213.872C271.632 213.9 271.595 213.937 271.567 213.981C271.539 214.025 271.521 214.075 271.515 214.127C271.524 214.224 271.557 214.317 271.61 214.398C271.663 214.48 271.736 214.547 271.821 214.594C271.955 214.691 272.096 214.779 272.243 214.856C272.489 214.994 272.746 215.109 273.011 215.201C273.193 215.263 273.379 215.313 273.568 215.351C273.634 215.375 273.703 215.39 273.774 215.395Z" fill="#263238"/>
<path d="M273.45 215.317C273.45 215.317 273.489 215.05 273.561 214.627C273.603 214.382 273.674 214.143 273.773 213.915C273.831 213.784 273.908 213.662 274.001 213.553C274.096 213.447 274.24 213.353 274.352 213.419C274.463 213.486 274.485 213.659 274.468 213.798C274.446 213.94 274.405 214.079 274.346 214.21C274.247 214.438 274.112 214.648 273.945 214.833C273.662 215.15 273.433 215.3 273.45 215.317C273.509 215.295 273.563 215.263 273.612 215.222C273.751 215.123 273.882 215.012 274.001 214.889C274.181 214.702 274.329 214.488 274.441 214.254C274.507 214.113 274.552 213.963 274.574 213.809C274.597 213.721 274.594 213.628 274.564 213.542C274.534 213.456 274.48 213.38 274.407 213.325C274.321 213.291 274.226 213.288 274.137 213.316C274.049 213.345 273.973 213.403 273.923 213.481C273.821 213.599 273.739 213.732 273.678 213.876C273.579 214.112 273.513 214.361 273.484 214.616C273.484 214.833 273.45 215.011 273.445 215.128C273.439 215.245 273.439 215.317 273.45 215.317Z" fill="#263238"/>
<g opacity="0.4">
<path d="M268.648 215.947L268.214 214.133C268.214 214.133 269.722 214.417 270.117 215.546C270.347 216.165 270.447 216.824 270.412 217.483L273.695 221.022C273.695 221.022 274.524 219.414 276.015 219.798C276.015 219.798 277.189 222.385 277.128 223.031C277.067 223.676 276.338 223.587 276.071 223.481C274.984 222.85 273.993 222.067 273.127 221.155C271.547 219.496 270.052 217.758 268.648 215.947Z" fill="black"/>
</g>
<path d="M232.756 119L237.247 214.011L249.584 214.306L248.61 131.927L267.062 214.462L276.973 214.011L261.097 119.195L232.756 119Z" fill="#263238"/>
<path d="M245.588 120.283C245.576 120.807 245.614 121.33 245.699 121.847C245.799 122.804 245.955 124.128 246.15 125.592C246.214 126.287 246.328 126.977 246.489 127.656C246.635 128.229 246.951 128.743 247.396 129.131C247.694 129.392 248.054 129.57 248.442 129.649C248.583 129.686 248.73 129.686 248.871 129.649C248.347 129.563 247.861 129.32 247.477 128.953C247.094 128.585 246.831 128.11 246.723 127.59C246.578 126.917 246.472 126.237 246.406 125.553C246.211 124.089 246.027 122.771 245.849 121.813C245.804 121.297 245.717 120.785 245.588 120.283Z" fill="#455A64"/>
<path d="M248.621 120.846C248.588 120.846 248.705 121.024 248.621 121.275C248.601 121.341 248.567 121.402 248.522 121.455C248.477 121.507 248.422 121.55 248.36 121.581C248.285 121.607 248.204 121.612 248.127 121.593C248.05 121.574 247.98 121.533 247.926 121.475C247.866 121.425 247.822 121.357 247.8 121.282C247.778 121.207 247.779 121.127 247.803 121.052C247.829 120.988 247.868 120.93 247.918 120.882C247.968 120.834 248.028 120.797 248.093 120.774C248.338 120.685 248.499 120.774 248.516 120.774C248.532 120.774 248.388 120.551 248.043 120.618C247.943 120.638 247.85 120.68 247.77 120.742C247.69 120.804 247.625 120.883 247.581 120.974C247.536 121.096 247.529 121.228 247.558 121.353C247.588 121.479 247.654 121.594 247.748 121.683C247.843 121.771 247.961 121.831 248.088 121.853C248.215 121.876 248.347 121.86 248.466 121.809C248.555 121.761 248.632 121.693 248.69 121.609C248.748 121.526 248.785 121.431 248.799 121.33C248.849 120.98 248.632 120.818 248.621 120.846Z" fill="#455A64"/>
<path d="M256.45 122.488C256.639 122.068 256.722 121.608 256.69 121.148C256.658 120.689 256.512 120.245 256.266 119.855C256.194 119.855 256.389 120.445 256.433 121.163C256.478 121.881 256.355 122.465 256.45 122.488Z" fill="#455A64"/>
<path d="M254.686 122.31C254.911 121.887 255.003 121.406 254.947 120.93C254.973 120.449 254.848 119.973 254.591 119.566C254.596 120.024 254.628 120.481 254.686 120.935C254.656 121.393 254.656 121.852 254.686 122.31Z" fill="#455A64"/>
<path d="M239.516 122.133C239.544 121.66 239.533 121.185 239.483 120.714C239.523 120.242 239.523 119.767 239.483 119.295C239.27 119.738 239.186 120.231 239.238 120.719C239.196 121.207 239.292 121.697 239.516 122.133Z" fill="#455A64"/>
<path d="M237.602 121.959C237.674 121.932 237.468 121.303 237.446 120.513C237.424 119.722 237.58 119.077 237.507 119.055C237.241 119.493 237.13 120.009 237.19 120.518C237.165 121.031 237.31 121.537 237.602 121.959Z" fill="#455A64"/>
<path d="M205.162 83.1392C205.162 83.1392 202.886 79.2884 202.351 78.8878C201.817 78.4871 197.032 76.8233 196.625 76.9568C196.219 77.0904 190.504 78.1699 191.155 78.8432C191.806 79.5166 195.83 78.7041 195.83 78.7041L196.386 78.9657C196.386 78.9657 192.925 79.5778 192.201 80.0118C191.478 80.4459 191.779 81.2305 192.413 81.1248C193.047 81.019 196.052 80.418 196.236 80.5349C196.419 80.6518 192.969 81.403 192.602 81.6478C192.107 81.9483 192.046 82.8442 192.702 82.7886C193.075 82.7552 196.319 81.8593 196.319 81.8593C195.37 82.2315 194.441 82.6551 193.537 83.128C193.153 83.5064 193.47 84.0629 194.032 83.9293C194.416 83.8403 196.225 82.9388 196.737 82.8164C196.737 82.8164 197.221 82.9388 197.677 83.9293C198.133 84.9199 200.532 86.8063 200.532 86.8063L205.162 83.1392Z" fill="#B78876"/>
<path d="M191.155 78.8439C191.482 79.0087 191.84 79.1017 192.206 79.1166C192.601 79.1656 193 79.1768 193.397 79.15C193.837 79.0943 194.315 79.0164 194.822 78.9385L195.89 78.7605H195.823C196.635 79.073 197.47 79.3187 198.322 79.495C197.546 79.1001 196.738 78.7724 195.907 78.5156H195.879H195.846L194.783 78.677L193.375 78.9051C192.992 78.9439 192.607 78.9532 192.223 78.933C191.566 78.894 191.166 78.805 191.155 78.8439Z" fill="#AA6550"/>
<path d="M186.975 76.1055C186.975 76.1055 182.824 88.6983 181.41 91.2413L195.545 95.5595L198.115 93.9179C198.115 93.9179 201.549 83.7791 201.983 80.3736L186.975 76.1055Z" fill="#455A64"/>
<path d="M196.312 93.4512L195.567 95.5602L198.138 93.9186L196.312 93.4512Z" fill="#263238"/>
<path d="M198.166 84.7705C197.626 84.6498 197.098 84.4841 196.586 84.2753L192.807 82.9732L189.023 81.7322C188.49 81.5891 187.969 81.403 187.465 81.1758C188.014 81.2501 188.556 81.3711 189.084 81.5375C190.075 81.8046 191.433 82.2108 192.913 82.7061C194.393 83.2013 195.723 83.7021 196.675 84.0861C197.193 84.2647 197.692 84.494 198.166 84.7705Z" fill="white"/>
<path d="M196.964 87.592C196.437 87.5226 195.917 87.4052 195.411 87.2414C194.465 86.9854 193.186 86.6015 191.739 86.1285C190.292 85.6555 189.04 85.1992 188.127 84.8431C187.622 84.677 187.134 84.4627 186.669 84.2031C187.19 84.3062 187.7 84.4552 188.194 84.6483L191.828 85.8558L195.467 87.0411C195.981 87.1809 196.482 87.3652 196.964 87.592Z" fill="white"/>
<path d="M195.534 90.1677C193.922 89.7719 192.334 89.287 190.776 88.7153C189.191 88.2317 187.636 87.6557 186.118 86.9902C189.315 87.8673 192.459 88.9282 195.534 90.1677Z" fill="white"/>
<path d="M203.698 83.5532C203.504 83.6935 203.27 83.769 203.03 83.769C202.79 83.769 202.557 83.6935 202.362 83.5532C201.945 83.3139 201.628 82.941 201.249 82.6684C200.07 81.8671 198.384 82.1119 197.237 81.2271C197.082 81.1103 196.92 80.9099 197.004 80.7263C197.087 80.5427 197.304 80.5371 197.493 80.5371L202.234 80.5761" fill="#B78876"/>
<path d="M202.21 80.5964C202.043 80.5512 201.871 80.5306 201.698 80.5352L200.301 80.4851L198.226 80.4406H197.625C197.383 80.4001 197.135 80.4561 196.935 80.5964C196.879 80.6543 196.842 80.7281 196.829 80.8076C196.816 80.8872 196.828 80.9688 196.862 81.0416C196.915 81.162 197 81.2658 197.107 81.3421C197.291 81.4869 197.493 81.6067 197.708 81.6982C198.513 81.9773 199.337 82.1986 200.173 82.3604C200.521 82.4544 200.853 82.5988 201.158 82.7889C201.437 82.9725 201.67 83.1951 201.904 83.3787C202.081 83.5475 202.293 83.6753 202.524 83.7532C202.756 83.8311 203.002 83.8571 203.245 83.8295C203.596 83.7571 203.707 83.5624 203.696 83.5624C203.553 83.6437 203.396 83.6983 203.234 83.7237C203.01 83.7312 202.786 83.6915 202.578 83.6071C202.37 83.5228 202.182 83.3957 202.026 83.234C201.784 83.0035 201.53 82.7862 201.264 82.583C200.948 82.3663 200.599 82.2045 200.229 82.1044C199.408 81.9268 198.598 81.702 197.803 81.4311C197.606 81.3474 197.419 81.241 197.246 81.1139C197.091 80.9915 197.013 80.8245 197.096 80.7578C197.18 80.691 197.391 80.6743 197.597 80.6799H198.198H200.274C200.863 80.6799 201.342 80.6799 201.67 80.6465C201.852 80.6542 202.033 80.6373 202.21 80.5964Z" fill="#AA6550"/>
<path d="M102.407 60.9561C102.558 60.1407 102.471 59.2991 102.158 58.5315C101.844 57.7639 101.316 57.1027 100.637 56.6268C99.9448 56.1714 99.1438 55.9087 98.3164 55.8657C97.4889 55.8226 96.665 56.0008 95.9293 56.3819C95.204 56.7823 94.5879 57.3543 94.1349 58.0479C93.6818 58.7415 93.4057 59.5356 93.3306 60.3607C93.1748 62.2248 94.0151 63.9999 94.7329 65.725C95.4508 67.45 96.074 69.381 95.4786 71.1505C94.9889 72.614 93.7591 73.6769 92.6962 74.801C91.6752 75.7727 90.9531 77.0161 90.6151 78.3846C90.3591 79.7591 90.871 81.3561 92.1175 82.0072C92.4168 82.1115 92.6861 82.2872 92.9021 82.5191C93.2471 83.0088 92.9021 83.6599 92.6517 84.1885C92.3071 85.0172 92.2619 85.94 92.5237 86.7984C93.0802 88.6681 95.1447 89.8645 97.0979 89.7532C98.0742 89.6574 99.0154 89.3387 99.849 88.8215C100.683 88.3044 101.386 87.6027 101.906 86.7705C102.929 85.0922 103.486 83.1713 103.519 81.2059C103.546 79.2511 103.437 77.2969 103.191 75.3574C102.735 70.4717 105.016 65.4134 105.261 60.5109" fill="#263238"/>
<path d="M106.79 90.0868C107.446 90.1367 108.106 90.0538 108.729 89.843C109.353 89.6322 109.927 89.2978 110.419 88.86C110.91 88.4221 111.308 87.8896 111.589 87.2944C111.87 86.6992 112.028 86.0535 112.054 85.3958C112.154 82.7304 112.243 80.0426 112.243 80.0426C112.243 80.0426 116.278 79.6642 116.572 75.6688C116.867 71.6734 116.728 62.4583 116.728 62.4583C114.518 61.3398 112.05 60.8315 109.578 60.9861C107.106 61.1407 104.72 61.9524 102.666 63.3375L102.917 77.3938V84.9562C102.945 87.5104 104.252 89.8921 106.79 90.0868Z" fill="#FFB8B8"/>
<path d="M112.6 70.7935C112.306 70.3653 111.859 70.0654 111.352 69.9548C110.844 69.8442 110.314 69.9312 109.868 70.198C109.416 70.5115 109.091 70.9749 108.949 71.5058C108.808 72.0367 108.859 72.6006 109.094 73.0972C109.301 73.466 109.582 73.7882 109.919 74.0438C110.256 74.2994 110.642 74.483 111.053 74.583C111.426 74.661 111.756 74.8755 111.978 75.1845C112.2 75.4934 112.299 75.8743 112.255 76.2524C112.087 77.3026 111.597 78.2746 110.853 79.0347C109.624 80.2926 107.986 81.0701 106.234 81.2272C104.531 81.4275 102.584 81.0714 101.593 79.6747C100.87 78.6563 100.82 77.3264 100.797 76.0799L100.608 67.2321C100.541 66.1706 100.608 65.1048 100.809 64.0602C101.017 63.0083 101.613 62.0729 102.478 61.4393C103.452 60.7993 104.704 60.7493 105.789 60.3876C107.169 59.9424 108.343 59.0242 109.64 58.362C110.936 57.6998 112.522 57.3047 113.819 57.9558C114.754 58.4232 115.377 59.3581 116.284 59.87C117.575 60.6046 119.333 60.4265 119.957 62.3352C120.174 62.9948 120.174 63.7066 119.957 64.3663C119.077 66.9539 115.878 67.9944 113.574 66.8759C113.529 67.3156 113.958 68.2894 113.501 69.6583C113.351 70.1034 113.301 70.7712 112.611 70.7712" fill="#263238"/>
<path d="M101.514 79.2409C99.2569 77.0886 97.9268 74.1415 97.8063 71.0248C97.6858 67.908 98.7844 64.867 100.869 62.5469" fill="#263238"/>
<path d="M104.553 80.5252C104.553 80.5252 104.486 80.5586 104.347 80.5864C104.146 80.6127 103.942 80.6127 103.74 80.5864C102.994 80.4752 102.306 80.1166 101.787 79.5681C101.051 78.7437 100.455 77.8037 100.023 76.7857C99.4442 75.5779 99.0037 74.3085 98.7099 73.0018C98.4103 71.6924 98.296 70.3475 98.3704 69.0063C98.4317 67.9124 98.6356 66.8311 98.977 65.79C99.2073 65.0892 99.5094 64.4142 99.8785 63.7756C100.012 63.5474 100.123 63.3805 100.201 63.2692C100.279 63.1579 100.329 63.1022 100.335 63.1078C99.8728 63.9882 99.4856 64.9059 99.1773 65.8512C98.8646 66.8803 98.6777 67.9434 98.6209 69.0175C98.5655 70.326 98.6852 71.636 98.977 72.9127C99.2648 74.2 99.6921 75.452 100.251 76.6466C100.661 77.6395 101.224 78.5616 101.921 79.3789C102.402 79.9138 103.042 80.2821 103.746 80.4306C104.012 80.4842 104.282 80.5158 104.553 80.5252Z" fill="#455A64"/>
<path d="M100.414 62.9473C100.458 62.9473 100.77 63.5037 101.371 64.4275C102.151 65.6059 103.058 66.6956 104.075 67.6772C105.093 68.6515 106.212 69.5134 107.414 70.2481C108.343 70.8046 108.955 71.0995 108.933 71.144C108.775 71.1153 108.621 71.0647 108.477 70.9938C108.078 70.8279 107.688 70.6421 107.308 70.4373C106.051 69.743 104.889 68.8882 103.853 67.8942C102.816 66.9051 101.916 65.7823 101.176 64.5555C100.949 64.1851 100.743 63.8024 100.558 63.4091C100.488 63.263 100.439 63.1074 100.414 62.9473Z" fill="#455A64"/>
<path d="M108.149 69.1788C107.689 69.0307 107.254 68.815 106.858 68.5389C104.865 67.3107 103.191 65.629 101.972 63.6308C101.7 63.2333 101.486 62.7985 101.338 62.3398C101.631 62.7157 101.901 63.1097 102.145 63.5195C103.434 65.4243 105.071 67.0686 106.969 68.3664C107.378 68.6148 107.771 68.886 108.149 69.1788Z" fill="#455A64"/>
<path d="M113.33 69.1796C113.143 69.19 112.956 69.1751 112.773 69.135C112.274 69.0689 111.779 68.9685 111.293 68.8346C108.055 67.9417 105.194 66.0222 103.141 63.3645C102.831 62.9676 102.551 62.5492 102.301 62.1124C102.194 61.96 102.11 61.7933 102.05 61.6172C102.095 61.6172 102.501 62.2683 103.302 63.2365C104.354 64.4993 105.579 65.6065 106.941 66.5252C108.306 67.4355 109.794 68.1457 111.36 68.6342C112.562 69.0071 113.341 69.1295 113.33 69.1796Z" fill="#455A64"/>
<path d="M97.1203 85.8168C97.1203 85.8168 97.1982 85.6999 97.2928 85.4662C97.4228 85.1206 97.4403 84.7428 97.3429 84.3867C97.1901 83.8221 96.8533 83.3247 96.3858 82.9732C95.8572 82.5336 95.1504 82.1886 94.4103 81.6989C94.0179 81.4419 93.6686 81.1246 93.3753 80.7585C93.0571 80.3428 92.8727 79.8402 92.8467 79.3173C92.8602 78.1833 93.2719 77.0901 94.0097 76.2289C94.7053 75.294 95.6012 74.4482 96.1243 73.3297C96.6255 72.1546 96.7707 70.8582 96.5416 69.6014C96.3251 68.33 95.9668 67.0868 95.4732 65.8953C95.0128 64.7717 94.6261 63.6192 94.3158 62.4452C94.0598 61.3323 93.8817 60.1581 94.2768 59.1064C94.4665 58.6172 94.8102 58.2031 95.2562 57.9267C95.4663 57.8027 95.6994 57.7225 95.9413 57.691C96.1833 57.6594 96.4291 57.6771 96.664 57.7431C97.4216 58.0262 98.0847 58.5158 98.5783 59.1565L99.7469 60.4976L100.481 61.3545C100.568 61.4528 100.648 61.5569 100.721 61.6662C100.721 61.6662 100.615 61.5827 100.437 61.3935L99.6634 60.5755L98.4614 59.2622C97.9751 58.6635 97.3371 58.2062 96.6139 57.9378C96.4057 57.8833 96.1886 57.8709 95.9755 57.9015C95.7624 57.932 95.5575 58.005 95.373 58.1159C94.9741 58.3734 94.668 58.7516 94.4994 59.1955C94.1432 60.1303 94.3157 61.2544 94.5773 62.3562C94.8916 63.5169 95.2801 64.6563 95.7403 65.7673C96.2531 66.9748 96.6265 68.2369 96.8532 69.529C97.0861 70.8436 96.9294 72.1976 96.4025 73.4243C95.846 74.604 94.9279 75.4554 94.2434 76.3624C93.5469 77.1768 93.1537 78.207 93.1305 79.2783C93.1497 79.755 93.3126 80.2147 93.5979 80.5971C93.8733 80.9484 94.2019 81.2544 94.5717 81.5042C95.2481 81.9079 95.902 82.3482 96.5305 82.823C97.0146 83.203 97.3542 83.7371 97.4932 84.3366C97.5817 84.7086 97.5465 85.0993 97.393 85.4495C97.3313 85.5911 97.238 85.7168 97.1203 85.8168Z" fill="#455A64"/>
<path d="M87.7166 214.534L90.4266 211.234L84.3055 206.109L80.2822 210.901L80.6439 211.24C82.2632 212.748 88.9909 218.797 90.4043 219.398C91.9624 220.066 87.7166 214.534 87.7166 214.534Z" fill="#6DDEA2"/>
<g opacity="0.5">
<path d="M82.5511 212.71C82.8934 212.116 83.0044 211.416 82.8627 210.746C82.728 210.075 82.3468 209.479 81.7943 209.076L80.3252 210.801L82.5511 212.71Z" fill="white"/>
</g>
<g opacity="0.4">
<path d="M89.7146 217.329C89.7146 217.329 91.1057 219.382 90.6272 219.493C90.1486 219.605 83.1093 213.751 80.2546 210.901L80.3826 210.773L88.507 217.668C88.507 217.668 89.3417 217.045 89.7146 217.329Z" fill="white"/>
</g>
<path d="M80.2863 210.684C80.2863 210.684 80.3141 210.723 80.3809 210.784L80.6702 211.056L81.7498 212.036C82.6624 212.859 83.9422 213.972 85.3835 215.18C86.8247 216.387 88.1658 217.439 89.1229 218.196L90.2804 219.081L90.5976 219.314L90.7089 219.392L90.6087 219.303L90.3026 219.053L89.1619 218.14C88.2048 217.372 86.886 216.304 85.4447 215.102C84.0035 213.9 82.718 212.793 81.7943 211.986L80.6814 211.029L80.3809 210.773L80.2863 210.684Z" fill="#263238"/>
<path d="M88.4265 217.762C88.6308 217.62 88.8489 217.499 89.0776 217.4C89.3192 217.336 89.5677 217.3 89.8177 217.295C89.5658 217.222 89.2977 217.228 89.0492 217.311C88.8007 217.395 88.5835 217.552 88.4265 217.762Z" fill="#263238"/>
<path d="M87.3801 215.329C87.514 215.331 87.6469 215.305 87.7696 215.251C87.9755 215.184 88.1369 215.112 88.1313 215.084C87.9974 215.081 87.8644 215.108 87.7418 215.162C87.5582 215.251 87.369 215.301 87.3801 215.329Z" fill="#263238"/>
<path d="M87.1042 214.65C87.1042 214.678 87.2545 214.695 87.4381 214.684C87.6218 214.673 87.7776 214.65 87.772 214.623C87.6651 214.584 87.5505 214.573 87.4381 214.589C87.2489 214.595 87.1042 214.623 87.1042 214.65Z" fill="#263238"/>
<path d="M87.2695 213.805C87.2695 213.805 87.3808 213.966 87.5589 214.116C87.737 214.267 87.8872 214.372 87.9095 214.35C87.9317 214.328 87.7982 214.194 87.6201 214.044C87.5197 213.942 87.4007 213.861 87.2695 213.805Z" fill="#263238"/>
<path d="M87.5042 213.31C87.5671 213.461 87.6603 213.598 87.778 213.711C87.8957 213.825 88.0354 213.914 88.1886 213.972C88.1886 213.944 88.0272 213.822 87.8436 213.644C87.66 213.466 87.5264 213.293 87.5042 213.31Z" fill="#263238"/>
<path d="M88.0375 214.97C88.1492 215.1 88.283 215.209 88.4326 215.292C88.5909 215.395 88.7586 215.483 88.9335 215.554C89.0368 215.6 89.1451 215.633 89.2562 215.654C89.3255 215.665 89.3965 215.652 89.4565 215.615C89.4862 215.589 89.5085 215.556 89.5212 215.519C89.5339 215.482 89.5365 215.442 89.5289 215.404C89.4699 215.276 89.3835 215.163 89.2757 215.072C89.168 214.982 89.0416 214.916 88.9055 214.88C88.7695 214.844 88.6272 214.838 88.4887 214.863C88.3502 214.888 88.219 214.944 88.1043 215.025C88.0643 215.051 88.0301 215.085 88.0042 215.126C88.1463 215.037 88.3025 214.973 88.466 214.936C88.6427 214.909 88.8236 214.93 88.9891 214.998C89.1864 215.077 89.3443 215.231 89.4287 215.426C89.4565 215.521 89.3675 215.576 89.2673 215.56C89.1626 215.54 89.06 215.51 88.9613 215.471C88.7908 215.405 88.6252 215.327 88.466 215.237C88.1989 215.081 88.0431 214.953 88.0375 214.97Z" fill="#263238"/>
<path d="M88.1158 215.069C88.1158 215.069 88.2605 215.03 88.3885 214.836C88.4667 214.724 88.5129 214.593 88.522 214.457C88.5389 214.371 88.5329 214.282 88.5045 214.199C88.4762 214.116 88.4266 214.042 88.3606 213.984C88.3376 213.971 88.3123 213.963 88.2861 213.96C88.26 213.957 88.2335 213.959 88.2081 213.967C88.1828 213.974 88.1592 213.986 88.1385 214.002C88.1179 214.019 88.1007 214.039 88.088 214.062C88.0449 214.133 88.0182 214.213 88.0101 214.296C87.994 214.427 87.994 214.56 88.0101 214.691C88.0138 214.812 88.0462 214.93 88.1047 215.036C88.1047 215.036 88.1047 214.902 88.1047 214.685C88.1006 214.56 88.1118 214.435 88.1381 214.313C88.1381 214.179 88.2382 214.001 88.3551 214.068C88.4719 214.135 88.4775 214.324 88.4719 214.452C88.4648 214.575 88.4306 214.694 88.3718 214.802C88.2962 214.9 88.2104 214.99 88.1158 215.069Z" fill="#263238"/>
<path d="M81.8107 209.131C81.9662 209.254 82.1148 209.386 82.2558 209.526C82.5884 209.866 82.8173 210.293 82.9158 210.758C83.0144 211.223 82.9785 211.707 82.8123 212.152C82.6843 212.492 82.5452 212.676 82.5619 212.709C82.5786 212.742 82.6064 212.67 82.6676 212.587C82.7482 212.463 82.8171 212.333 82.8735 212.197C83.067 211.744 83.1174 211.243 83.018 210.76C82.9185 210.278 82.6739 209.838 82.317 209.498C82.2115 209.396 82.0959 209.304 81.972 209.225C81.8663 209.131 81.8162 209.131 81.8107 209.131Z" fill="#263238"/>
<path d="M84.5831 207.082C84.1905 207.468 83.819 207.875 83.4702 208.301C83.0988 208.705 82.7531 209.133 82.4352 209.581C83.197 208.791 83.9105 207.957 84.572 207.082H84.5831Z" fill="#263238"/>
<path d="M83.7983 212.754C84.2947 213.363 84.8982 213.876 85.579 214.268C85.579 214.268 85.1728 213.934 84.6831 213.517C84.1934 213.099 83.8206 212.738 83.7983 212.754Z" fill="#263238"/>
<path d="M82.5967 211.746C82.5689 211.746 82.5578 211.857 82.5244 211.985C82.491 212.113 82.4409 212.214 82.4632 212.23C82.4854 212.247 82.5744 212.158 82.6134 212.013C82.6524 211.869 82.6245 211.746 82.5967 211.746Z" fill="#263238"/>
<path d="M82.6128 210.801C82.585 210.801 82.5738 210.895 82.5794 211.018C82.585 211.14 82.6239 211.224 82.6462 211.224C82.6684 211.224 82.6907 211.124 82.6796 211.007C82.6684 210.89 82.6406 210.801 82.6128 210.801Z" fill="#263238"/>
<path d="M82.178 210.006C82.178 210.006 82.2448 210.095 82.3115 210.206C82.3783 210.317 82.4006 210.412 82.4284 210.412C82.4562 210.412 82.4729 210.284 82.395 210.156C82.3171 210.028 82.1891 209.978 82.178 210.006Z" fill="#263238"/>
<path d="M81.8168 209.498C81.8168 209.498 81.8168 209.57 81.8168 209.631C81.8168 209.692 81.8947 209.737 81.9225 209.72C81.9503 209.704 81.9225 209.648 81.9225 209.587C81.9225 209.526 81.839 209.481 81.8168 209.498Z" fill="#263238"/>
<path d="M115.94 215.903L115.846 211.629L107.844 211.757L107.916 218.012H108.411C110.637 218.101 119.657 218.301 121.126 217.828C122.785 217.327 115.94 215.903 115.94 215.903Z" fill="#6DDEA2"/>
<g opacity="0.5">
<path d="M110.83 217.901C110.696 217.236 110.324 216.642 109.783 216.232C109.248 215.817 108.577 215.619 107.903 215.676L107.936 217.901H110.83Z" fill="white"/>
</g>
<g opacity="0.4">
<path d="M119.278 216.717C119.278 216.717 121.671 217.368 121.382 217.763C121.092 218.158 111.95 218.319 107.915 218.013V217.83L118.577 217.757C118.577 217.757 118.828 216.745 119.278 216.717Z" fill="white"/>
</g>
<path d="M107.815 217.828H107.954H108.349L109.807 217.873C111.037 217.873 112.734 217.906 114.61 217.873C116.485 217.839 118.182 217.778 119.412 217.717L120.864 217.633L121.259 217.605C121.305 217.613 121.352 217.613 121.398 217.605H121.259H120.864L119.412 217.656C118.182 217.7 116.485 217.75 114.61 217.778C112.734 217.806 111.037 217.778 109.807 217.778H107.815V217.828Z" fill="#263238"/>
<path d="M118.605 217.885C118.663 217.641 118.751 217.405 118.867 217.183C119.006 216.98 119.168 216.793 119.351 216.627C119.113 216.737 118.914 216.917 118.781 217.142C118.648 217.368 118.587 217.629 118.605 217.89V217.885Z" fill="#263238"/>
<path d="M116.222 216.722C116.222 216.722 116.356 216.594 116.467 216.41C116.579 216.226 116.656 216.065 116.634 216.048C116.612 216.032 116.501 216.171 116.389 216.36C116.278 216.549 116.2 216.705 116.222 216.722Z" fill="#263238"/>
<path d="M115.573 216.366C115.573 216.366 115.712 216.299 115.851 216.171C115.99 216.043 116.079 215.932 116.062 215.91C116.046 215.887 115.918 215.976 115.784 216.104C115.651 216.232 115.55 216.366 115.573 216.366Z" fill="#263238"/>
<path d="M115.149 215.635C115.283 215.685 115.426 215.702 115.567 215.685C115.579 215.736 115.609 215.78 115.652 215.809C115.694 215.839 115.746 215.851 115.797 215.845C115.849 215.839 115.896 215.814 115.93 215.776C115.965 215.737 115.984 215.687 115.984 215.635C115.984 215.584 115.965 215.534 115.93 215.495C115.896 215.456 115.849 215.432 115.797 215.425C115.746 215.419 115.694 215.432 115.652 215.461C115.609 215.491 115.579 215.535 115.567 215.585C115.426 215.575 115.284 215.592 115.149 215.635Z" fill="#263238"/>
<path d="M114.998 215.107C115.138 215.196 115.301 215.241 115.466 215.235C115.629 215.263 115.796 215.237 115.944 215.163C115.787 215.149 115.629 215.149 115.471 215.163C115.316 215.129 115.157 215.11 114.998 215.107Z" fill="#263238"/>
<path d="M116.496 216.02C116.666 216.048 116.839 216.048 117.008 216.02C117.198 215.996 117.384 215.951 117.565 215.886C117.674 215.858 117.779 215.813 117.876 215.753C117.937 215.716 117.982 215.659 118.004 215.592C118.012 215.554 118.008 215.514 117.993 215.479C117.978 215.443 117.953 215.413 117.921 215.391C117.723 215.297 117.499 215.274 117.287 215.327C117.075 215.379 116.888 215.505 116.758 215.681C116.683 215.786 116.628 215.905 116.596 216.031C116.587 216.077 116.587 216.124 116.596 216.17C116.646 216.01 116.723 215.859 116.824 215.725C116.937 215.587 117.088 215.487 117.258 215.436C117.357 215.399 117.462 215.382 117.567 215.387C117.673 215.392 117.776 215.418 117.871 215.464C117.954 215.525 117.926 215.619 117.837 215.675C117.746 215.729 117.649 215.772 117.548 215.803C117.376 215.866 117.199 215.916 117.019 215.953C116.68 215.998 116.496 216.003 116.496 216.02Z" fill="#263238"/>
<path d="M116.619 216.043C116.674 215.933 116.692 215.808 116.669 215.687C116.653 215.551 116.604 215.42 116.524 215.309C116.48 215.233 116.418 215.17 116.343 215.126C116.268 215.081 116.183 215.056 116.096 215.053C116.042 215.065 115.996 215.097 115.967 215.143C115.938 215.189 115.928 215.244 115.94 215.298C115.952 215.379 115.982 215.457 116.029 215.526C116.098 215.639 116.182 215.742 116.279 215.832C116.441 215.988 116.569 216.043 116.574 216.032C116.58 216.021 116.468 215.943 116.324 215.782C116.238 215.69 116.165 215.587 116.107 215.476C116.034 215.37 115.984 215.175 116.107 215.153C116.229 215.131 116.368 215.264 116.446 215.364C116.52 215.463 116.571 215.577 116.596 215.698C116.615 215.812 116.622 215.928 116.619 216.043Z" fill="#263238"/>
<path d="M107.948 215.636C107.948 215.636 108.176 215.608 108.538 215.636C109.014 215.683 109.466 215.865 109.842 216.161C110.218 216.457 110.501 216.854 110.658 217.306C110.786 217.645 110.803 217.862 110.819 217.862C110.83 217.809 110.83 217.754 110.819 217.701C110.802 217.553 110.77 217.408 110.725 217.267C110.57 216.801 110.282 216.391 109.896 216.087C109.505 215.79 109.034 215.616 108.544 215.586C108.397 215.57 108.25 215.57 108.104 215.586C107.998 215.614 107.943 215.631 107.948 215.636Z" fill="#263238"/>
<path d="M108.706 212.291C108.663 212.846 108.65 213.404 108.668 213.96C108.651 214.508 108.667 215.056 108.718 215.602C108.764 215.056 108.779 214.508 108.762 213.96C108.78 213.403 108.761 212.846 108.706 212.291Z" fill="#263238"/>
<path d="M111.827 217.105C112.213 217.185 112.607 217.218 113.001 217.205C113.394 217.218 113.787 217.179 114.17 217.089C114.17 217.061 113.641 217.089 112.996 217.089C112.35 217.089 111.833 217.077 111.827 217.105Z" fill="#263238"/>
<path d="M110.258 217.127C110.258 217.127 110.302 217.238 110.358 217.355C110.413 217.472 110.447 217.578 110.475 217.578C110.503 217.578 110.514 217.45 110.447 217.316C110.38 217.182 110.274 217.105 110.258 217.127Z" fill="#263238"/>
<path d="M109.656 216.397C109.656 216.397 109.689 216.503 109.773 216.581C109.856 216.659 109.94 216.72 109.962 216.698C109.984 216.676 109.928 216.598 109.845 216.514C109.761 216.431 109.672 216.364 109.656 216.397Z" fill="#263238"/>
<path d="M108.805 216.075C108.805 216.075 108.916 216.075 109.039 216.142C109.161 216.209 109.239 216.242 109.261 216.226C109.284 216.209 109.211 216.098 109.067 216.048C108.922 215.998 108.799 216.053 108.805 216.075Z" fill="#263238"/>
<path d="M108.199 215.924C108.199 215.952 108.238 215.991 108.304 216.019C108.371 216.047 108.432 216.019 108.444 216.019C108.455 216.019 108.405 215.958 108.338 215.93C108.271 215.902 108.21 215.902 108.199 215.924Z" fill="#263238"/>
<path d="M104.371 125.105C104.371 125.105 101.706 136.379 102.462 138.61C103.219 140.841 108.094 142.132 108.094 142.132L107.932 173.011L80.9271 206.399L90.899 214.562C90.899 214.562 120.13 181.118 122.707 175.053C125.283 168.988 121.037 124.609 121.037 124.609L104.371 125.105Z" fill="#263238"/>
<path d="M118.165 120.525L119.489 214.306L105.75 214.373L96.8467 139.506C95.4889 135.054 93.9419 130.408 94.2201 125.099L96.062 119.707L118.165 120.525Z" fill="#263238"/>
<path d="M102.234 134.848C102.348 134.932 102.456 135.025 102.557 135.126C102.751 135.321 103.046 135.61 103.402 136C104.126 136.779 105.139 137.942 106.346 139.444V139.477C106.596 143.679 107.092 149.805 107.687 156.611C108.16 162.176 108.65 167.217 108.95 171.163V171.202L108.922 171.235L105.1 176.354L104.042 177.746L103.758 178.107L103.653 178.224C103.653 178.224 103.653 178.174 103.731 178.085L103.987 177.707L104.999 176.277L108.744 171.101V171.168C108.383 167.228 107.921 162.159 107.414 156.633C106.819 149.828 106.363 143.695 106.168 139.489V139.544C104.983 138.031 103.992 136.845 103.297 136.05C102.952 135.649 102.673 135.348 102.49 135.143C102.395 135.053 102.309 134.954 102.234 134.848Z" fill="#455A64"/>
<path d="M117.304 171.525C116.119 171.027 114.869 170.701 113.592 170.556C112.311 170.505 111.028 170.628 109.78 170.924C110.107 170.719 110.47 170.578 110.849 170.506C112.668 170.038 114.591 170.191 116.313 170.94C116.678 171.068 117.015 171.267 117.304 171.525Z" fill="#455A64"/>
<path d="M122.151 175.866C122.212 175.916 118.35 181.102 113.52 187.451C108.69 193.8 104.722 198.909 104.661 198.859C104.6 198.809 108.456 193.622 113.292 187.273C118.127 180.924 122.062 175.821 122.151 175.866Z" fill="#455A64"/>
<path d="M121.503 127.493C121.344 127.897 121.076 128.249 120.73 128.511C120.332 128.861 119.867 129.125 119.362 129.286C118.858 129.446 118.325 129.501 117.799 129.445C117.272 129.39 116.762 129.226 116.303 128.964C115.843 128.701 115.442 128.346 115.126 127.921C114.833 127.597 114.64 127.195 114.57 126.764C114.785 127.119 115.02 127.462 115.271 127.793C115.908 128.561 116.82 129.049 117.812 129.153C118.804 129.257 119.797 128.969 120.58 128.35C121.181 127.888 121.431 127.459 121.503 127.493Z" fill="#455A64"/>
<path d="M91.8784 100.386C91.8784 100.386 89.7916 115.644 91.8784 117.575C93.9651 119.506 95.9628 118.871 95.9628 118.871L99.9304 115.533L100.709 100.363L91.8784 100.386Z" fill="#FFB8B8"/>
<path d="M93.8043 87.9883C93.8043 87.9883 90.8217 91.3605 90.204 104.254C90.204 104.254 98.7012 105.868 98.857 105.4C99.0128 104.933 93.8043 87.9883 93.8043 87.9883Z" fill="#6DDEA2"/>
<path d="M94.1977 125.105L121.27 125.545L120.852 121.472C120.852 121.472 117.87 105.963 117.892 105.763L118.359 104.772C118.985 103.568 119.331 102.237 119.37 100.881C119.41 99.524 119.142 98.1759 118.588 96.9371H131.731L131.175 86.2752L117.38 84.2441L112.249 83.8379C112.249 83.8379 103.207 84.3109 103.012 84.3331C99.2282 84.7894 94.8265 85.0788 93.2183 89.1299C92.3558 91.2945 93.1738 94.5443 94.5761 97.8998L97.9149 108.189C99.2504 113.848 97.1192 113.581 95.9506 119.274C95.7836 120.131 94.181 124.31 94.1977 125.105Z" fill="#6DDEA2"/>
<path d="M129.617 86.7518C129.617 86.8297 121.899 86.8965 112.366 86.8965C102.834 86.8965 95.116 86.8297 95.116 86.7518C95.116 86.6739 102.829 86.6016 112.366 86.6016C121.904 86.6016 129.617 86.6683 129.617 86.7518Z" fill="#FAFAFA"/>
<path d="M130.408 91.8712C130.408 91.9547 121.827 92.0159 111.237 92.0159C100.648 92.0159 92.0671 91.9547 92.0671 91.8712C92.0671 91.7878 100.648 91.7266 111.237 91.7266C121.827 91.7266 130.408 91.7933 130.408 91.8712Z" fill="#FAFAFA"/>
<path d="M94.198 97.705C93.142 97.8975 92.0599 97.8975 91.0039 97.705C92.0599 97.5124 93.142 97.5124 94.198 97.705Z" fill="#FAFAFA"/>
<path d="M119.278 97.881C119.278 97.9589 113.663 98.0257 106.74 98.0257C99.8179 98.0257 94.1976 97.9589 94.1976 97.881C94.1976 97.8031 99.8124 97.7363 106.74 97.7363C113.668 97.7363 119.278 97.8031 119.278 97.881Z" fill="#FAFAFA"/>
<path d="M118.721 103.893C118.721 103.971 113.679 104.037 107.464 104.037C101.248 104.037 96.2118 103.971 96.2118 103.893C96.2118 103.815 101.248 103.748 107.464 103.748C113.679 103.748 118.721 103.809 118.721 103.893Z" fill="#FAFAFA"/>
<path d="M118.561 109.457C118.561 109.535 113.992 109.602 108.361 109.602C102.729 109.602 98.1606 109.535 98.1606 109.457C98.1606 109.379 102.729 109.312 108.361 109.312C113.992 109.312 118.561 109.379 118.561 109.457Z" fill="#FAFAFA"/>
<path d="M119.457 113.975C119.457 114.053 114.571 114.119 108.544 114.119C102.518 114.119 97.6321 114.053 97.6321 113.975C97.6321 113.897 102.518 113.83 108.544 113.83C114.571 113.83 119.457 113.88 119.457 113.975Z" fill="#FAFAFA"/>
<path d="M120.87 119.707C120.87 119.785 115.305 119.852 108.455 119.852C101.605 119.852 96.0403 119.785 96.0403 119.707C96.0403 119.629 101.605 119.562 108.455 119.562C115.305 119.562 120.87 119.624 120.87 119.707Z" fill="#FAFAFA"/>
<path d="M97.77 107.704C97.6726 107.544 97.596 107.372 97.5418 107.192C97.386 106.792 97.2079 106.319 96.9853 105.768C96.529 104.56 95.8724 102.902 95.2102 101.054C94.548 99.2069 93.9804 97.5097 93.6299 96.2632C93.4518 95.6456 93.3238 95.1503 93.2459 94.783C93.1951 94.6015 93.1652 94.4148 93.1569 94.2266C93.4137 94.8749 93.6365 95.5361 93.8246 96.2076C94.2253 97.4262 94.8096 99.1068 95.494 100.954C96.1785 102.802 96.7795 104.471 97.1912 105.695C97.3971 106.307 97.553 106.808 97.6531 107.153C97.7202 107.33 97.7596 107.516 97.77 107.704Z" fill="#263238"/>
<g opacity="0.2">
<path d="M99.7403 117.87C102.274 116.91 104.648 115.57 106.78 113.897C108.92 112.207 110.464 109.877 111.187 107.247C111.304 106.752 111.32 106.101 110.87 105.862C110.698 105.793 110.51 105.78 110.331 105.825C110.152 105.87 109.992 105.971 109.874 106.112C109.639 106.4 109.451 106.723 109.317 107.069C108.79 108.214 107.961 109.193 106.919 109.902C105.728 110.709 104.32 111.115 102.985 111.643C101.649 112.172 100.302 112.879 99.501 114.07C98.6997 115.261 98.6274 117.052 99.6847 118.021" fill="black"/>
</g>
<path d="M112.044 102.479C112.044 102.479 112.044 102.556 112.044 102.696C112.044 102.835 112.044 103.052 112.044 103.324C111.992 104.09 111.88 104.851 111.711 105.6C111.152 108.09 110.013 110.412 108.388 112.379C106.763 114.346 104.696 115.901 102.356 116.919C101.654 117.227 100.928 117.48 100.186 117.676C99.9246 117.748 99.7187 117.787 99.5796 117.815C99.5088 117.834 99.4358 117.843 99.3625 117.843C99.6175 117.729 99.8819 117.638 100.153 117.57C100.876 117.334 101.584 117.054 102.273 116.73C104.554 115.681 106.57 114.131 108.169 112.195C109.768 110.26 110.91 107.988 111.51 105.55C111.696 104.817 111.837 104.074 111.933 103.324C111.95 103.04 111.988 102.758 112.044 102.479Z" fill="#263238"/>
<path d="M132.994 60.2318C132.994 60.2318 132.933 59.8868 132.877 59.2079C132.815 58.1984 132.894 57.1852 133.111 56.1974C133.535 54.2914 134.4 52.5115 135.637 51.0009C136.874 49.4903 138.449 48.2911 140.234 47.4998C141.46 46.9589 142.76 46.6009 144.09 46.437C145.556 46.2499 147.041 46.2817 148.497 46.5316C151.818 47.1249 154.87 48.7441 157.223 51.1614C158.545 52.4758 159.67 53.9754 160.562 55.6131C161.499 57.3676 162.133 59.2678 162.437 61.2334C162.772 63.3149 162.71 65.441 162.253 67.4992C162.015 68.569 161.653 69.6073 161.174 70.5932C160.671 71.6014 160.034 72.5372 159.282 73.3755C157.682 75.0868 155.644 76.3263 153.389 76.9591C151.045 77.6069 148.609 77.8571 146.182 77.6992C143.659 77.5881 141.161 77.1427 138.754 76.3748C136.215 75.5867 133.984 74.0315 132.365 71.9231C130.772 69.6871 129.913 67.0116 129.906 64.2662C129.895 62.8704 130.082 61.4802 130.462 60.1372C130.877 58.7833 131.459 57.4862 132.193 56.2753C132.966 55.0627 133.875 53.9425 134.903 52.9365C135.968 51.9421 137.146 51.0773 138.414 50.3601C139.718 49.6627 141.111 49.1461 142.554 48.8242C144.018 48.5247 145.519 48.4459 147.006 48.5905C150.082 48.9338 153.013 50.0794 155.507 51.9126C158 53.7457 159.968 56.2021 161.213 59.0354C162.467 61.9903 162.757 65.2657 162.042 68.3951C161.674 69.9796 160.993 71.4744 160.038 72.7912C159.055 74.1085 157.783 75.1838 156.321 75.9352C154.849 76.6836 153.251 77.1534 151.608 77.3208C149.954 77.4972 148.283 77.4278 146.65 77.115C143.33 76.4825 140.27 74.8857 137.852 72.5241C136.633 71.3335 135.641 69.9305 134.925 68.384C134.208 66.8155 133.876 65.0985 133.957 63.3758C134.146 59.909 135.988 56.6982 138.548 54.3555C141.122 52.0085 144.381 50.5495 147.846 50.1931C149.557 50.0276 151.283 50.1804 152.938 50.6439C154.575 51.1009 156.115 51.8554 157.479 52.8697C158.832 53.8831 159.968 55.1587 160.818 56.6203C161.245 57.3464 161.586 58.1194 161.836 58.9241C161.981 59.3192 162.058 59.731 162.164 60.1372C162.27 60.5434 162.32 60.9607 162.348 61.3781C162.682 64.7106 161.761 68.048 159.766 70.7379C157.769 73.3401 154.951 75.1912 151.769 75.9909C148.665 76.8019 145.386 76.6407 142.376 75.529C136.455 73.3811 131.876 68.1002 130.891 62.1238C130.372 59.1621 130.901 56.1122 132.388 53.4985C133.828 50.9679 135.972 48.9094 138.559 47.5722C141.068 46.2922 143.839 45.6068 146.655 45.5689C149.378 45.513 152.086 45.9835 154.63 46.9545C159.638 48.8465 163.728 52.636 165.525 57.2881C166.377 59.5177 166.715 61.9111 166.511 64.2894C166.308 66.6676 165.569 68.9691 164.351 71.0217C163.19 72.9278 161.555 74.5001 159.604 75.5847C157.757 76.6033 155.722 77.2374 153.622 77.4488C149.773 77.7654 145.913 76.9799 142.493 75.184C139.479 73.7127 136.796 71.6433 134.608 69.1018C132.759 66.9884 131.501 64.4236 130.963 61.6675C130.598 59.4372 130.856 57.1496 131.709 55.0566C132.322 53.5202 133.273 52.1414 134.491 51.0223C135.241 50.3426 136.099 49.7917 137.029 49.3918C137.669 49.1637 138.002 49.0635 138.002 49.0635L137.758 49.1525C137.596 49.2138 137.351 49.2972 137.04 49.4196C136.119 49.8376 135.271 50.4013 134.53 51.089C133.333 52.2108 132.402 53.5852 131.803 55.1123C130.965 57.1895 130.713 59.4569 131.074 61.6675C131.611 64.4219 132.871 66.984 134.725 69.0907C136.908 71.6096 139.579 73.6598 142.577 75.1172C145.978 76.8944 149.815 77.6665 153.639 77.3431C155.711 77.1293 157.719 76.501 159.543 75.4956C161.463 74.424 163.07 72.8705 164.206 70.9883C165.405 68.9627 166.131 66.6926 166.33 64.3473C166.528 62.0019 166.194 59.6421 165.353 57.4439C163.572 52.8642 159.504 49.0969 154.58 47.255C152.063 46.2988 149.386 45.8378 146.694 45.8972C143.916 45.933 141.184 46.609 138.709 47.8727C136.167 49.1843 134.057 51.2014 132.633 53.6822C131.177 56.2439 130.659 59.2329 131.169 62.1349C132.137 68.0056 136.656 73.2141 142.488 75.3231C145.446 76.4174 148.669 76.5747 151.719 75.7739C154.838 74.9901 157.599 73.174 159.554 70.621C161.522 67.9948 162.439 64.7284 162.125 61.4616C162.097 61.0554 162.003 60.6547 161.942 60.2485C161.683 59.046 161.242 57.89 160.634 56.8206C159.793 55.3917 158.674 54.145 157.345 53.1535C154.633 51.1227 151.255 50.1889 147.885 50.5381C144.485 50.8811 141.285 52.3049 138.754 54.6003C136.244 56.8819 134.441 60.0481 134.257 63.4203C134.179 65.0987 134.501 66.7716 135.198 68.3005C135.901 69.8125 136.872 71.1849 138.064 72.3516C140.442 74.6736 143.452 76.2433 146.717 76.8645C148.321 77.1718 149.961 77.2412 151.586 77.0704C153.195 76.9113 154.76 76.4507 156.199 75.7127C157.626 74.9844 158.865 73.9371 159.821 72.6521C160.755 71.3698 161.422 69.9126 161.78 68.3673C162.481 65.2937 162.196 62.0777 160.968 59.1745C159.744 56.383 157.809 53.9617 155.356 52.1531C152.903 50.3444 150.018 49.2119 146.989 48.8687C145.524 48.7297 144.047 48.8065 142.604 49.0969C141.188 49.4157 139.822 49.9249 138.542 50.6105C137.291 51.3108 136.129 52.159 135.081 53.1368C134.066 54.1233 133.169 55.2252 132.41 56.42C131.686 57.6094 131.112 58.8842 130.702 60.2151C130.326 61.5344 130.139 62.9001 130.145 64.2717C130.152 66.9648 130.994 69.5895 132.555 71.784C134.141 73.8474 136.328 75.3678 138.815 76.1356C141.199 76.9036 143.675 77.3545 146.177 77.4767C148.579 77.6381 150.99 77.3935 153.311 76.7533C154.961 76.3203 156.5 75.5384 157.823 74.4604C159.145 73.3824 160.222 72.0334 160.979 70.5041C161.452 69.5326 161.811 68.5092 162.047 67.4547C162.5 65.4206 162.566 63.3197 162.242 61.2612C161.638 57.4627 159.841 53.9549 157.111 51.2449C154.783 48.848 151.763 47.2389 148.475 46.6429C147.032 46.3913 145.56 46.3576 144.107 46.5427C142.787 46.6999 141.497 47.0506 140.278 47.5833C138.223 48.4761 136.452 49.9158 135.159 51.7457C134.207 53.0833 133.53 54.5964 133.167 56.1974C132.946 57.181 132.858 58.1898 132.905 59.1968C132.905 59.5362 132.961 59.7922 132.972 59.9647C132.983 60.1372 132.994 60.2318 132.994 60.2318Z" fill="#6DDEA2"/>
<path d="M154.89 57.3496C154.89 57.422 151.268 58.6351 146.749 60.0541C142.231 61.473 138.542 62.5637 138.519 62.4858C138.497 62.4079 142.142 61.2004 146.66 59.7814C151.179 58.3624 154.84 57.2717 154.89 57.3496Z" fill="#6DDEA2"/>
<path d="M155.899 59.9986C155.927 60.0709 152.527 61.3118 148.309 62.7809C144.091 64.25 140.657 65.3462 140.629 65.2683C140.601 65.1904 144.002 63.9551 148.22 62.486C152.438 61.0169 155.871 59.9151 155.899 59.9986Z" fill="#6DDEA2"/>
<path d="M149.672 65.4303C149.761 65.5528 148.003 66.2483 145.877 67.0051C144.809 67.3835 143.83 67.7063 143.095 67.9289C142.718 68.0775 142.323 68.1784 141.921 68.2294C142.271 68.0211 142.645 67.8548 143.034 67.7341C143.729 67.467 144.703 67.1109 145.766 66.7325C146.829 66.3541 147.814 66.0202 148.521 65.7865C149.227 65.5528 149.7 65.4192 149.672 65.4303Z" fill="#6DDEA2"/>
<path d="M152.811 68.0507C152.811 68.0507 150.262 66.871 150.14 67.4942C150.017 68.1175 150.19 68.3679 150.696 68.5237C151.203 68.6795 152.583 69.1469 152.583 69.1469L152.811 68.0507Z" fill="#FFB8B8"/>
<path d="M152.667 69.2128C152.667 69.2128 150.118 68.0331 149.995 68.6563C149.873 69.2796 150.04 69.5244 150.552 69.6858C151.064 69.8472 152.438 70.3091 152.438 70.3091L152.667 69.2128Z" fill="#EB996E"/>
<path d="M146.806 71.8169L137.135 84.482C135.755 86.5242 133.612 87.5426 132.165 87.5815L131.258 87.6594L131.709 96.2902L135.527 95.8562C136.716 95.7206 137.857 95.3088 138.859 94.6538C139.861 93.9987 140.696 93.1185 141.297 92.0833L151.13 75.0889C151.778 73.9961 152.354 72.8622 152.855 71.6944C153.411 70.2254 152.81 68.0273 152.81 68.0273L148.915 70.4869V67.8326C148.915 67.8326 148.498 67.6879 147.685 68.4836C146.984 69.1903 146.806 71.8169 146.806 71.8169Z" fill="#FFB8B8"/>
<path d="M148.853 66.7079L148.903 76.051C148.904 76.1542 148.925 76.2563 148.967 76.3509C149.008 76.4455 149.069 76.5306 149.144 76.601C149.22 76.6713 149.309 76.7255 149.406 76.7601C149.504 76.7947 149.607 76.809 149.71 76.8022C149.901 76.7881 150.08 76.7022 150.21 76.5618C150.34 76.4214 150.412 76.2368 150.411 76.0454V66.5855L149.521 65.1387L148.853 66.7079Z" fill="#455A64"/>
<path d="M149.51 65.168L149.265 65.73L149.839 65.7022L149.51 65.168Z" fill="#263238"/>
<path d="M150.401 66.6085C150.178 66.7741 149.906 66.8603 149.628 66.8533C149.353 66.8858 149.074 66.8375 148.827 66.7142C148.827 66.6753 149.188 66.7643 149.622 66.742C150.056 66.7198 150.385 66.5751 150.401 66.6085Z" fill="#263238"/>
<path d="M149.605 76.8032C149.584 76.6725 149.575 76.5404 149.577 76.4081C149.577 76.0854 149.577 75.7292 149.577 75.3341C149.577 74.3269 149.577 73.1083 149.549 71.7894C149.521 70.4706 149.549 69.2575 149.549 68.2503C149.549 67.8552 149.549 67.4991 149.549 67.1763C149.536 67.045 149.536 66.9126 149.549 66.7812C149.558 66.9128 149.558 67.0448 149.549 67.1763C149.549 67.4991 149.549 67.8552 149.549 68.2503C149.549 69.2575 149.549 70.4762 149.549 71.7894C149.549 73.1027 149.549 74.3269 149.549 75.3341C149.549 75.7292 149.549 76.0854 149.549 76.4081C149.575 76.5387 149.593 76.6706 149.605 76.8032Z" fill="#263238"/>
<path d="M282.13 3.20219C282.671 3.20219 283.11 2.76343 283.11 2.22219C283.11 1.68095 282.671 1.24219 282.13 1.24219C281.589 1.24219 281.15 1.68095 281.15 2.22219C281.15 2.76343 281.589 3.20219 282.13 3.20219Z" fill="#6DDEA2"/>
<path d="M218.48 86.7823C219.021 86.7823 219.46 86.3435 219.46 85.8023C219.46 85.261 219.021 84.8223 218.48 84.8223C217.939 84.8223 217.5 85.261 217.5 85.8023C217.5 86.3435 217.939 86.7823 218.48 86.7823Z" fill="#6DDEA2"/>
<path d="M232.9 2.63187C233.441 2.63187 233.88 2.19311 233.88 1.65187C233.88 1.11064 233.441 0.671875 232.9 0.671875C232.358 0.671875 231.92 1.11064 231.92 1.65187C231.92 2.19311 232.358 2.63187 232.9 2.63187Z" fill="#6DDEA2"/>
<path d="M310.73 39.3623C311.271 39.3623 311.71 38.9236 311.71 38.3823C311.71 37.8411 311.271 37.4023 310.73 37.4023C310.189 37.4023 309.75 37.8411 309.75 38.3823C309.75 38.9236 310.189 39.3623 310.73 39.3623Z" fill="#6DDEA2"/>
<path d="M256.359 93.7715V98.0815" stroke="#6DDEA2" stroke-linecap="round" stroke-linejoin="round"/>
<path d="M254.199 95.9316H258.509" stroke="#6DDEA2" stroke-linecap="round" stroke-linejoin="round"/>
<path d="M299.961 20.6016V24.9116" stroke="#6DDEA2" stroke-linecap="round" stroke-linejoin="round"/>
<path d="M297.801 22.7617H302.111" stroke="#6DDEA2" stroke-linecap="round" stroke-linejoin="round"/>
<path d="M250.541 14.5312V18.8412" stroke="#6DDEA2" stroke-linecap="round" stroke-linejoin="round"/>
<path d="M248.39 16.6816H252.69" stroke="#6DDEA2" stroke-linecap="round" stroke-linejoin="round"/>
<path d="M65.1301 97.2022C65.6714 97.2022 66.1101 96.7634 66.1101 96.2222C66.1101 95.6809 65.6714 95.2422 65.1301 95.2422C64.5889 95.2422 64.1501 95.6809 64.1501 96.2222C64.1501 96.7634 64.5889 97.2022 65.1301 97.2022Z" fill="#6DDEA2"/>
<path d="M1.47976 180.782C2.02099 180.782 2.45975 180.344 2.45975 179.802C2.45975 179.261 2.02099 178.822 1.47976 178.822C0.938516 178.822 0.499756 179.261 0.499756 179.802C0.499756 180.344 0.938516 180.782 1.47976 180.782Z" fill="#6DDEA2"/>
<path d="M15.8997 96.6319C16.4409 96.6319 16.8797 96.1931 16.8797 95.6519C16.8797 95.1106 16.4409 94.6719 15.8997 94.6719C15.3584 94.6719 14.9197 95.1106 14.9197 95.6519C14.9197 96.1931 15.3584 96.6319 15.8997 96.6319Z" fill="#6DDEA2"/>
<path d="M93.7298 133.362C94.271 133.362 94.7098 132.924 94.7098 132.382C94.7098 131.841 94.271 131.402 93.7298 131.402C93.1885 131.402 92.7498 131.841 92.7498 132.382C92.7498 132.924 93.1885 133.362 93.7298 133.362Z" fill="#6DDEA2"/>
<path d="M39.3591 187.771V192.081" stroke="#6DDEA2" stroke-linecap="round" stroke-linejoin="round"/>
<path d="M37.199 189.932H41.509" stroke="#6DDEA2" stroke-linecap="round" stroke-linejoin="round"/>
<path d="M82.9607 114.602V118.912" stroke="#6DDEA2" stroke-linecap="round" stroke-linejoin="round"/>
<path d="M80.8005 116.762H85.1105" stroke="#6DDEA2" stroke-linecap="round" stroke-linejoin="round"/>
<path d="M33.5408 108.531V112.841" stroke="#6DDEA2" stroke-linecap="round" stroke-linejoin="round"/>
<path d="M31.3904 110.682H35.6904" stroke="#6DDEA2" stroke-linecap="round" stroke-linejoin="round"/>
</svg>
