<svg width="290" height="223" viewBox="0 0 290 223" fill="none" xmlns="http://www.w3.org/2000/svg">
<path d="M106.641 19.1643C106.641 19.1643 133.434 49.8803 191.119 14.7846C242.348 -16.3834 264.297 54.093 258.269 84.415C250.459 123.695 200.713 146.108 216.361 176.213C232.01 206.318 160.59 235.875 134.478 192.074C101.995 137.588 82.9146 172.435 58.9903 167.476C41.8198 163.917 15.4091 113.947 45.7932 87.1396C71.361 64.5817 62.2729 53.4529 58.9007 43.0964C54.0371 28.1601 79.6739 -4.3325 106.641 19.1643Z" fill="#D7F3E4"/>
<path d="M164.682 221.743C164.682 221.828 144.581 221.896 119.79 221.896C94.9981 221.896 74.8936 221.828 74.8936 221.743C74.8936 221.659 94.9904 221.574 119.788 221.574C144.586 221.574 164.682 221.659 164.682 221.743Z" fill="#263238"/>
<path d="M203.053 166.065L146.709 165.806C145.098 165.798 143.504 165.474 142.018 164.85C140.532 164.227 139.184 163.317 138.05 162.172C136.916 161.027 136.018 159.671 135.409 158.179C134.799 156.688 134.489 155.091 134.496 153.48L135.06 12.2245C135.075 8.96842 136.383 5.85153 138.695 3.55916C141.008 1.26678 144.136 -0.0133899 147.392 0.000105629L203.736 0.259599C206.991 0.274528 210.106 1.58137 212.397 3.89278C214.689 6.20419 215.968 9.33095 215.955 12.5856L215.385 153.846C215.378 155.459 215.054 157.054 214.431 158.54C213.807 160.027 212.897 161.377 211.752 162.511C210.606 163.646 209.249 164.544 207.756 165.154C206.264 165.764 204.666 166.073 203.053 166.065Z" fill="#263238"/>
<path d="M203.391 5.21173L192.464 5.16096C191.745 5.17431 191.061 5.47228 190.562 5.98947C190.063 6.50666 189.789 7.20079 189.802 7.9195V9.89955C189.808 10.2559 189.745 10.6101 189.615 10.9419C189.484 11.2736 189.29 11.5765 189.043 11.8332C188.796 12.0899 188.5 12.2954 188.173 12.4379C187.847 12.5804 187.495 12.6571 187.139 12.6637L165.855 12.5622C165.135 12.5415 164.454 12.2366 163.959 11.7143C163.464 11.1919 163.196 10.4947 163.215 9.77545V7.79539C163.231 7.07651 162.963 6.38017 162.469 5.85816C161.974 5.33614 161.293 5.03079 160.575 5.00865H156.733L147.16 4.95224C146.03 4.94704 144.911 5.16446 143.866 5.59206C142.82 6.01967 141.869 6.64908 141.067 7.44433C140.265 8.23958 139.628 9.18509 139.191 10.2268C138.755 11.2685 138.528 12.3861 138.523 13.5155L137.959 151.392C137.954 152.52 138.171 153.638 138.598 154.682C139.025 155.727 139.653 156.677 140.448 157.478C141.242 158.28 142.186 158.917 143.226 159.353C144.267 159.79 145.383 160.017 146.511 160.023L202.742 160.282C203.872 160.288 204.991 160.071 206.036 159.644C207.082 159.217 208.033 158.588 208.835 157.794C209.637 156.999 210.274 156.054 210.711 155.012C211.148 153.971 211.375 152.854 211.379 151.724L211.943 13.8484C211.949 12.7196 211.733 11.6008 211.306 10.5558C210.879 9.51078 210.251 8.56008 209.457 7.75802C208.662 6.95596 207.718 6.31825 206.677 5.88135C205.636 5.44445 204.52 5.21691 203.391 5.21173Z" fill="white"/>
<path d="M183.399 22.1274L168.89 22.0615L168.878 24.7241L183.387 24.79L183.399 22.1274Z" fill="#455A64"/>
<path d="M153.104 40.0012C153.495 39.8274 153.827 39.5431 154.059 39.1833C154.29 38.8235 154.411 38.4038 154.407 37.976C154.428 37.6935 154.391 37.4098 154.297 37.1425C154.203 36.8752 154.056 36.6302 153.863 36.4226C153.67 36.2151 153.437 36.0495 153.177 35.9363C152.917 35.8231 152.637 35.7646 152.354 35.7646C152.071 35.7646 151.791 35.8231 151.531 35.9363C151.271 36.0495 151.038 36.2151 150.845 36.4226C150.653 36.6302 150.505 36.8752 150.411 37.1425C150.317 37.4098 150.28 37.6935 150.301 37.976C150.294 38.4073 150.415 38.8311 150.647 39.1943C150.88 39.5575 151.215 39.844 151.609 40.0181C150.962 40.0954 150.353 40.3636 149.858 40.7886C149.364 41.2135 149.007 41.776 148.834 42.4043C149.562 43.2342 150.562 43.778 151.655 43.9387H152.918C154.038 43.7919 155.067 43.2425 155.812 42.393C155.651 41.7697 155.307 41.2088 154.824 40.7826C154.342 40.3564 153.743 40.0842 153.104 40.0012Z" fill="#455A64"/>
<path d="M152.317 43.9734C152.317 43.9396 152.728 43.9734 153.445 43.7703C154.445 43.5006 155.326 42.9051 155.95 42.078C156.404 41.4693 156.699 40.7569 156.808 40.0053C156.918 39.2537 156.838 38.4866 156.576 37.7738C156.426 37.369 156.217 36.9888 155.955 36.6455C155.686 36.2787 155.36 35.9569 154.991 35.6922C154.216 35.1235 153.28 34.8168 152.319 34.8168C151.359 34.8168 150.423 35.1235 149.648 35.6922C149.28 35.9585 148.954 36.28 148.684 36.6455C148.422 36.9888 148.213 37.369 148.063 37.7738C147.8 38.4868 147.72 39.2544 147.83 40.0064C147.94 40.7585 148.238 41.4707 148.695 42.078C149.316 42.9047 150.196 43.5003 151.194 43.7703C151.905 43.9565 152.322 43.9396 152.322 43.9734C152.223 43.9857 152.123 43.9857 152.023 43.9734C151.742 43.9724 151.462 43.9403 151.188 43.8775C150.14 43.6372 149.208 43.0387 148.554 42.1852C148.095 41.5996 147.781 40.9132 147.64 40.1825C147.47 39.3461 147.526 38.4795 147.804 37.6722C148.128 36.7671 148.718 35.9807 149.496 35.4157C150.318 34.804 151.315 34.4736 152.339 34.4736C153.364 34.4736 154.361 34.804 155.182 35.4157C155.572 35.7005 155.915 36.0451 156.198 36.4368C156.472 36.8131 156.685 37.2299 156.83 37.6722C157.12 38.4781 157.186 39.3476 157.021 40.1882C156.849 41.0808 156.423 41.9046 155.793 42.5602C155.164 43.2158 154.358 43.6753 153.473 43.8832C153.194 43.9495 152.908 43.9835 152.621 43.9847C152.52 43.9938 152.417 43.99 152.317 43.9734Z" fill="#455A64"/>
<path d="M206.917 48.1809C206.917 48.1809 207.063 48.1809 207.334 48.1245C207.739 48.0426 208.113 47.8469 208.411 47.5604C208.651 47.3281 208.835 47.0458 208.952 46.7337C209.07 46.4216 209.116 46.0874 209.088 45.7552C209.088 44.9541 209.088 44.0628 209.088 42.9966C209.088 40.9151 209.088 38.3709 209.088 35.4205C209.088 34.6816 209.088 33.92 209.088 33.1302C209.109 32.7372 209.021 32.3461 208.834 31.9998C208.647 31.6535 208.368 31.3654 208.028 31.1671C207.334 30.7271 206.426 30.9189 205.551 30.8794H202.832L144.728 30.9245C144.397 30.9255 144.071 31.0054 143.776 31.1574C143.482 31.3094 143.228 31.5293 143.036 31.7989C142.844 32.0682 142.72 32.3797 142.675 32.7071C142.635 33.023 142.675 33.3954 142.675 33.7395V37.9083C142.675 40.6725 142.675 43.3896 142.675 46.0598C142.687 46.3729 142.77 46.6791 142.919 46.9549C143.067 47.2307 143.277 47.4687 143.532 47.6506C143.782 47.8317 144.069 47.9532 144.373 48.006C144.693 48.0424 145.015 48.0556 145.337 48.0455H156.783L182.896 48.0737L200.503 48.1245L205.286 48.1527H206.533H206.956C206.956 48.1527 206.809 48.1527 206.533 48.1527H205.286H200.503L182.896 48.1978L156.783 48.2317H145.298C144.961 48.2461 144.623 48.2329 144.288 48.1922C143.939 48.1355 143.608 47.9962 143.324 47.786C143.035 47.5784 142.797 47.3081 142.628 46.9954C142.459 46.6828 142.363 46.3359 142.348 45.9808C142.348 43.3031 142.348 40.5803 142.348 37.8124V33.7225C142.348 33.3672 142.348 33.0343 142.376 32.6507C142.424 32.2757 142.566 31.9188 142.788 31.6127C143.006 31.3038 143.295 31.0519 143.63 30.8781C143.966 30.7043 144.339 30.6138 144.717 30.6143L202.821 30.6594H206.849C207.171 30.648 207.493 30.7038 207.793 30.8234C208.092 30.943 208.364 31.1237 208.59 31.354C208.816 31.5843 208.992 31.8592 209.106 32.1611C209.22 32.4631 209.269 32.7854 209.252 33.1077C209.252 33.8974 209.252 34.659 209.252 35.398C209.252 38.3483 209.252 40.8925 209.224 42.9741C209.224 44.0121 209.224 44.9316 209.224 45.7326C209.247 46.0757 209.194 46.4197 209.068 46.7397C208.943 47.0598 208.747 47.3478 208.496 47.5829C208.185 47.8796 207.792 48.0761 207.368 48.147C207.22 48.1785 207.068 48.1899 206.917 48.1809Z" fill="#E0E0E0"/>
<path d="M177.74 35.2969H161.33V36.5267H177.74V35.2969Z" fill="#455A64"/>
<path d="M190.078 42.252H161.33V43.4817H190.078V42.252Z" fill="#455A64"/>
<path d="M202.99 38.6924H161.33V39.9222H202.99V38.6924Z" fill="#455A64"/>
<path d="M153.104 84.1203C153.495 83.9465 153.827 83.6623 154.059 83.3024C154.29 82.9426 154.411 82.523 154.407 82.0951C154.428 81.8127 154.391 81.5289 154.297 81.2617C154.203 80.9944 154.056 80.7493 153.863 80.5417C153.67 80.3342 153.437 80.1686 153.177 80.0554C152.917 79.9422 152.637 79.8838 152.354 79.8838C152.071 79.8838 151.791 79.9422 151.531 80.0554C151.271 80.1686 151.038 80.3342 150.845 80.5417C150.653 80.7493 150.505 80.9944 150.411 81.2617C150.317 81.5289 150.28 81.8127 150.301 82.0951C150.294 82.5265 150.415 82.9502 150.647 83.3134C150.88 83.6766 151.215 83.9632 151.609 84.1372C150.962 84.2145 150.353 84.4827 149.858 84.9077C149.364 85.3327 149.007 85.8951 148.834 86.5235C149.562 87.3533 150.562 87.8972 151.655 88.0579H152.918C154.038 87.911 155.067 87.3616 155.812 86.5122C155.651 85.8888 155.307 85.328 154.824 84.9017C154.342 84.4755 153.743 84.2034 153.104 84.1203Z" fill="#455A64"/>
<path d="M152.316 88.0927C152.316 88.0588 152.728 88.0927 153.445 87.8896C154.445 87.6199 155.326 87.0243 155.949 86.1972C156.404 85.5885 156.699 84.8761 156.808 84.1245C156.918 83.3729 156.838 82.6059 156.576 81.893C156.426 81.4883 156.217 81.108 155.955 80.7648C155.686 80.3979 155.36 80.0761 154.99 79.8114C154.216 79.2427 153.28 78.936 152.319 78.936C151.358 78.936 150.423 79.2427 149.648 79.8114C149.28 80.0777 148.954 80.3993 148.684 80.7648C148.422 81.108 148.213 81.4883 148.063 81.893C147.803 82.6054 147.726 83.3714 147.838 84.1213C147.951 84.8711 148.249 85.581 148.706 86.1859C149.327 87.0126 150.207 87.6082 151.205 87.8783C151.916 88.0644 152.333 88.0475 152.333 88.0814C152.234 88.0937 152.134 88.0937 152.034 88.0814C151.745 88.0831 151.457 88.049 151.177 87.9798C150.129 87.7395 149.197 87.141 148.542 86.2875C148.083 85.7019 147.77 85.0155 147.629 84.2849C147.467 83.4441 147.533 82.5753 147.82 81.7689C148.145 80.8637 148.735 80.0774 149.513 79.5124C150.334 78.9007 151.332 78.5703 152.356 78.5703C153.38 78.5703 154.377 78.9007 155.199 79.5124C155.589 79.7972 155.932 80.1418 156.214 80.5335C156.493 80.9035 156.712 81.3146 156.863 81.752C157.154 82.5578 157.22 83.4274 157.055 84.2679C156.883 85.1605 156.457 85.9843 155.827 86.64C155.197 87.2956 154.392 87.755 153.507 87.9629C153.228 88.0292 152.942 88.0633 152.655 88.0644C152.544 88.0897 152.43 88.0992 152.316 88.0927Z" fill="#455A64"/>
<path d="M206.917 92.2999C206.917 92.2999 207.063 92.2999 207.334 92.2435C207.739 92.1616 208.113 91.9659 208.411 91.6794C208.651 91.4472 208.835 91.1648 208.952 90.8527C209.07 90.5406 209.116 90.2064 209.088 89.8742C209.088 89.0731 209.088 88.1536 209.088 87.1157C209.088 85.0341 209.088 82.4899 209.088 79.5396C209.088 78.8006 209.088 78.039 209.088 77.2492C209.109 76.8562 209.021 76.4651 208.834 76.1188C208.647 75.7725 208.368 75.4844 208.028 75.2861C207.334 74.8461 206.426 75.0379 205.551 74.9984H202.832L144.728 75.0435C144.397 75.0445 144.071 75.1244 143.776 75.2764C143.482 75.4285 143.228 75.6484 143.036 75.9179C142.844 76.1872 142.72 76.4988 142.675 76.8262C142.635 77.1421 142.675 77.5144 142.675 77.8585V82.0273C142.675 84.7915 142.675 87.5087 142.675 90.1788C142.687 90.4919 142.77 90.7981 142.919 91.0739C143.067 91.3497 143.277 91.5877 143.532 91.7696C143.782 91.9507 144.069 92.0722 144.373 92.125C144.693 92.1614 145.015 92.1746 145.337 92.1645H156.783L182.896 92.1927L200.503 92.2435H205.286H206.533H206.956C206.956 92.2435 206.809 92.2435 206.533 92.2435H205.286L200.503 92.2717L182.896 92.3168L156.783 92.3507H145.298C144.961 92.3652 144.623 92.352 144.288 92.3112C143.939 92.2545 143.608 92.1153 143.324 91.905C143.035 91.6974 142.797 91.4271 142.628 91.1145C142.459 90.8018 142.363 90.4549 142.348 90.0998C142.348 87.4222 142.348 84.6994 142.348 81.9314V77.7626C142.348 77.4072 142.348 77.0744 142.376 76.6908C142.424 76.3157 142.566 75.9588 142.788 75.6528C143.007 75.3449 143.296 75.0937 143.631 74.92C143.967 74.7464 144.339 74.6553 144.717 74.6543L202.821 74.6994H206.849C207.171 74.688 207.493 74.7438 207.793 74.8634C208.092 74.983 208.364 75.1637 208.59 75.3941C208.816 75.6244 208.992 75.8992 209.106 76.2012C209.22 76.5031 209.269 76.8254 209.252 77.1477C209.252 77.9375 209.252 78.699 209.252 79.438C209.252 82.3883 209.252 84.9325 209.224 87.0141C209.224 88.0521 209.224 88.9716 209.224 89.7727C209.247 90.1157 209.194 90.4597 209.068 90.7798C208.943 91.0998 208.747 91.3878 208.496 91.623C208.185 91.9196 207.792 92.1161 207.368 92.1871C207.223 92.2453 207.071 92.2832 206.917 92.2999Z" fill="#E0E0E0"/>
<path d="M177.414 79.416H161.004V80.6458H177.414V79.416Z" fill="#455A64"/>
<path d="M190.078 86.3721H161.33V87.6018H190.078V86.3721Z" fill="#455A64"/>
<path d="M202.99 82.8125H161.33V84.0423H202.99V82.8125Z" fill="#455A64"/>
<path d="M153.104 106.178C153.495 106.005 153.826 105.722 154.058 105.363C154.289 105.004 154.411 104.586 154.407 104.159C154.428 103.876 154.391 103.592 154.297 103.325C154.203 103.058 154.056 102.813 153.863 102.605C153.67 102.398 153.437 102.232 153.177 102.119C152.917 102.006 152.637 101.947 152.354 101.947C152.071 101.947 151.791 102.006 151.531 102.119C151.271 102.232 151.038 102.398 150.845 102.605C150.653 102.813 150.505 103.058 150.411 103.325C150.317 103.592 150.28 103.876 150.301 104.159C150.293 104.59 150.413 105.014 150.646 105.378C150.879 105.741 151.214 106.027 151.609 106.201C150.962 106.278 150.353 106.546 149.858 106.971C149.364 107.396 149.007 107.959 148.834 108.587C149.561 109.419 150.561 109.963 151.655 110.121H152.918C154.039 109.977 155.069 109.427 155.812 108.576C155.651 107.952 155.307 107.39 154.825 106.963C154.342 106.536 153.743 106.262 153.104 106.178Z" fill="#455A64"/>
<path d="M152.318 110.15C152.318 110.116 152.73 110.15 153.446 109.952C154.446 109.681 155.327 109.086 155.951 108.26C156.406 107.653 156.701 106.941 156.81 106.19C156.92 105.439 156.84 104.673 156.577 103.961C156.428 103.556 156.219 103.176 155.956 102.833C155.69 102.464 155.364 102.141 154.992 101.88C154.217 101.311 153.282 101.004 152.321 101.004C151.36 101.004 150.424 101.311 149.65 101.88C149.278 102.143 148.953 102.465 148.685 102.833C148.422 103.176 148.213 103.556 148.064 103.961C147.801 104.674 147.721 105.442 147.831 106.194C147.942 106.946 148.239 107.658 148.696 108.266C149.319 109.09 150.198 109.685 151.195 109.958C151.906 110.144 152.324 110.121 152.324 110.155C152.224 110.17 152.124 110.17 152.025 110.155C151.735 110.155 151.447 110.119 151.167 110.048C150.118 109.809 149.186 109.21 148.533 108.356C148.074 107.77 147.761 107.083 147.619 106.353C147.457 105.511 147.523 104.64 147.811 103.832C148.135 102.926 148.725 102.14 149.503 101.575C150.325 100.965 151.322 100.636 152.346 100.636C153.37 100.636 154.367 100.965 155.189 101.575C155.957 102.144 156.537 102.93 156.853 103.832C157.122 104.584 157.197 105.391 157.072 106.18C156.947 106.968 156.625 107.713 156.137 108.344C155.481 109.198 154.547 109.797 153.497 110.037C153.218 110.107 152.932 110.143 152.645 110.144C152.537 110.164 152.427 110.165 152.318 110.15Z" fill="#455A64"/>
<path d="M206.917 114.358C206.917 114.358 207.063 114.358 207.334 114.302C207.739 114.218 208.112 114.023 208.411 113.737C208.651 113.505 208.835 113.223 208.952 112.911C209.069 112.599 209.116 112.264 209.088 111.932C209.088 111.131 209.088 110.206 209.088 109.168C209.088 107.086 209.088 104.542 209.088 101.592C209.088 100.859 209.088 100.091 209.088 99.3016C209.108 98.9087 209.02 98.5178 208.833 98.1717C208.646 97.8255 208.367 97.5373 208.028 97.3385C207.334 96.8985 206.426 97.0903 205.551 97.0508H202.832L144.728 97.0959C144.397 97.0956 144.07 97.1748 143.776 97.3269C143.481 97.4791 143.227 97.6997 143.036 97.9703C142.844 98.2376 142.721 98.5473 142.675 98.8729C142.635 99.1888 142.675 99.5611 142.675 99.9053V104.08C142.675 106.84 142.675 109.557 142.675 112.231C142.687 112.543 142.771 112.848 142.92 113.123C143.068 113.398 143.278 113.635 143.532 113.816C143.78 114.001 144.068 114.125 144.373 114.177C144.693 114.212 145.016 114.223 145.337 114.211H156.783L182.896 114.245L200.503 114.29L182.896 114.341L156.783 114.369H145.298C144.961 114.378 144.624 114.365 144.288 114.33C143.939 114.269 143.609 114.128 143.324 113.918C143.034 113.711 142.796 113.441 142.627 113.128C142.458 112.815 142.362 112.468 142.348 112.113C142.348 109.439 142.348 106.718 142.348 103.95V99.7755C142.348 99.4201 142.348 99.0873 142.376 98.7037C142.425 98.3306 142.566 97.9757 142.788 97.6713C143.006 97.3624 143.295 97.1105 143.63 96.9367C143.966 96.7629 144.339 96.6724 144.717 96.6729L202.821 96.7123H206.849C207.292 96.6952 207.731 96.8068 208.113 97.0339C208.475 97.2521 208.772 97.5646 208.97 97.9382C209.169 98.3118 209.262 98.7324 209.241 99.155C209.241 99.9447 209.241 100.712 209.241 101.445C209.241 104.396 209.241 106.94 209.213 109.021C209.213 110.059 209.213 110.985 209.213 111.786C209.236 112.129 209.182 112.473 209.057 112.792C208.931 113.112 208.735 113.4 208.485 113.636C208.17 113.927 207.779 114.123 207.357 114.2C207.219 114.275 207.071 114.329 206.917 114.358Z" fill="#E0E0E0"/>
<path d="M177.74 101.479H161.33V102.708H177.74V101.479Z" fill="#455A64"/>
<path d="M190.078 108.429H161.33V109.658H190.078V108.429Z" fill="#455A64"/>
<path d="M202.99 104.87H161.33V106.1H202.99V104.87Z" fill="#455A64"/>
<path d="M153.104 128.24C153.495 128.067 153.827 127.782 154.059 127.423C154.29 127.063 154.411 126.643 154.407 126.215C154.428 125.933 154.391 125.649 154.297 125.382C154.203 125.114 154.056 124.869 153.863 124.662C153.67 124.454 153.437 124.289 153.177 124.176C152.917 124.062 152.637 124.004 152.354 124.004C152.071 124.004 151.791 124.062 151.531 124.176C151.271 124.289 151.038 124.454 150.845 124.662C150.653 124.869 150.505 125.114 150.411 125.382C150.317 125.649 150.28 125.933 150.301 126.215C150.294 126.647 150.415 127.07 150.647 127.434C150.88 127.797 151.215 128.083 151.609 128.257C150.962 128.335 150.353 128.603 149.858 129.028C149.364 129.453 149.007 130.015 148.834 130.644C149.562 131.473 150.562 132.017 151.655 132.178H152.918C154.038 132.031 155.067 131.482 155.812 130.632C155.651 130.009 155.307 129.448 154.824 129.022C154.342 128.596 153.743 128.323 153.104 128.24Z" fill="#455A64"/>
<path d="M152.318 132.212C152.318 132.178 152.73 132.212 153.446 132.009C154.446 131.739 155.328 131.143 155.951 130.316C156.405 129.707 156.7 128.995 156.81 128.243C156.919 127.492 156.839 126.725 156.577 126.012C156.427 125.607 156.218 125.227 155.957 124.884C155.687 124.517 155.362 124.195 154.992 123.93C154.217 123.362 153.282 123.055 152.321 123.055C151.36 123.055 150.424 123.362 149.65 123.93C149.281 124.197 148.956 124.518 148.685 124.884C148.423 125.227 148.214 125.607 148.064 126.012C147.801 126.725 147.721 127.493 147.831 128.245C147.942 128.997 148.239 129.709 148.696 130.316C149.318 131.143 150.197 131.738 151.195 132.009C151.906 132.195 152.324 132.178 152.324 132.212C152.224 132.224 152.124 132.224 152.025 132.212C151.736 132.213 151.448 132.179 151.167 132.11C150.119 131.87 149.187 131.271 148.533 130.418C148.073 129.832 147.76 129.146 147.619 128.415C147.457 127.574 147.523 126.706 147.811 125.899C148.135 124.994 148.725 124.208 149.503 123.643C150.326 123.034 151.323 122.706 152.346 122.706C153.37 122.706 154.366 123.034 155.189 123.643C155.579 123.927 155.922 124.272 156.205 124.664C156.483 125.034 156.702 125.445 156.853 125.882C157.144 126.688 157.21 127.558 157.045 128.398C156.873 129.291 156.447 130.115 155.817 130.77C155.188 131.426 154.382 131.885 153.497 132.093C153.218 132.162 152.932 132.196 152.645 132.195C152.537 132.215 152.427 132.221 152.318 132.212Z" fill="#455A64"/>
<path d="M206.917 136.421C206.917 136.421 207.063 136.421 207.334 136.364C207.739 136.282 208.113 136.087 208.411 135.8C208.651 135.568 208.835 135.286 208.952 134.974C209.069 134.661 209.116 134.327 209.088 133.995C209.088 133.194 209.088 132.274 209.088 131.237C209.088 129.155 209.088 126.611 209.088 123.66C209.088 122.921 209.088 122.16 209.088 121.37C209.109 120.977 209.021 120.586 208.834 120.24C208.647 119.893 208.368 119.605 208.028 119.407C207.334 118.967 206.426 119.159 205.551 119.119H202.832L144.728 119.159C144.397 119.16 144.071 119.24 143.776 119.392C143.482 119.544 143.228 119.764 143.036 120.033C142.844 120.302 142.72 120.614 142.675 120.941C142.635 121.257 142.675 121.63 142.675 121.974V126.143C142.675 128.907 142.675 131.624 142.675 134.294C142.687 134.607 142.77 134.913 142.919 135.189C143.067 135.465 143.277 135.703 143.532 135.885C143.782 136.066 144.069 136.187 144.373 136.24C144.693 136.279 145.015 136.293 145.337 136.28H156.783L182.896 136.308L200.503 136.359L205.286 136.387H206.533H206.956C206.956 136.387 206.809 136.387 206.533 136.387H205.286H200.503L182.896 136.432L156.783 136.466H145.298C144.961 136.48 144.623 136.467 144.288 136.426C143.939 136.37 143.608 136.23 143.324 136.02C143.035 135.813 142.797 135.542 142.628 135.23C142.459 134.917 142.363 134.57 142.348 134.215C142.348 131.537 142.348 128.815 142.348 126.047V121.878C142.348 121.522 142.348 121.19 142.376 120.806C142.424 120.431 142.566 120.074 142.788 119.768C143.007 119.46 143.296 119.209 143.631 119.035C143.967 118.862 144.339 118.771 144.717 118.77L202.821 118.815H206.849C207.292 118.803 207.729 118.914 208.113 119.136C208.476 119.355 208.772 119.669 208.971 120.043C209.17 120.418 209.263 120.839 209.241 121.263C209.241 122.053 209.241 122.814 209.241 123.553C209.241 126.504 209.241 129.048 209.213 131.129C209.213 132.167 209.213 133.087 209.213 133.888C209.236 134.231 209.183 134.575 209.057 134.895C208.931 135.215 208.736 135.503 208.485 135.738C208.174 136.035 207.781 136.231 207.357 136.302C207.216 136.361 207.068 136.401 206.917 136.421Z" fill="#E0E0E0"/>
<path d="M177.74 123.536H161.33V124.766H177.74V123.536Z" fill="#455A64"/>
<path d="M190.078 130.491H161.33V131.721H190.078V130.491Z" fill="#455A64"/>
<path d="M202.99 126.932H161.33V128.161H202.99V126.932Z" fill="#455A64"/>
<path d="M171.857 147.246C171.841 147.472 171.76 147.689 171.623 147.869C171.486 148.05 171.299 148.186 171.086 148.262C170.872 148.338 170.641 148.35 170.421 148.296C170.201 148.242 170.002 148.125 169.847 147.959C169.693 147.793 169.59 147.586 169.552 147.363C169.514 147.139 169.542 146.91 169.632 146.702C169.723 146.494 169.872 146.318 170.062 146.194C170.252 146.07 170.474 146.004 170.7 146.005C171.018 146.017 171.318 146.154 171.535 146.386C171.752 146.619 171.867 146.928 171.857 147.246Z" fill="#455A64"/>
<path d="M175.445 147.263C175.429 147.489 175.348 147.705 175.211 147.886C175.074 148.066 174.887 148.203 174.674 148.279C174.46 148.355 174.229 148.366 174.009 148.312C173.789 148.259 173.589 148.142 173.435 147.976C173.28 147.81 173.178 147.603 173.14 147.379C173.101 147.156 173.129 146.926 173.22 146.719C173.311 146.511 173.46 146.334 173.65 146.21C173.84 146.087 174.061 146.021 174.288 146.021C174.446 146.027 174.601 146.063 174.744 146.128C174.888 146.193 175.017 146.286 175.124 146.401C175.232 146.517 175.316 146.652 175.37 146.8C175.425 146.948 175.451 147.105 175.445 147.263Z" fill="#455A64"/>
<path d="M179.044 147.28C179.029 147.507 178.947 147.724 178.808 147.905C178.67 148.087 178.482 148.223 178.266 148.298C178.051 148.373 177.819 148.383 177.598 148.326C177.377 148.27 177.178 148.15 177.025 147.982C176.872 147.813 176.771 147.603 176.736 147.378C176.701 147.153 176.733 146.923 176.828 146.716C176.923 146.509 177.077 146.334 177.27 146.214C177.464 146.093 177.688 146.032 177.916 146.039C178.229 146.056 178.523 146.196 178.734 146.428C178.945 146.66 179.056 146.966 179.044 147.28Z" fill="#455A64"/>
<path d="M182.885 48.6723L120.668 53.0274C119.444 53.1131 118.521 54.1752 118.606 55.3996L119.515 68.3743C119.6 69.5987 120.662 70.5218 121.887 70.4361L184.103 66.0809C185.328 65.9952 186.251 64.9332 186.165 63.7088L185.257 50.7341C185.171 49.5097 184.109 48.5866 182.885 48.6723Z" fill="#6DDEA2"/>
<path d="M153.671 54.6608L137.303 55.8398L137.391 57.0664L153.759 55.8874L153.671 54.6608Z" fill="#FAFAFA"/>
<path d="M166.477 60.712L137.804 62.7773L137.892 64.0039L166.565 61.9386L166.477 60.712Z" fill="#FAFAFA"/>
<path d="M179.516 56.8631L137.855 59.7793L137.942 61.0091L179.602 58.0929L179.516 56.8631Z" fill="#FAFAFA"/>
<path d="M129.44 61.1103C129.818 60.9112 130.13 60.6049 130.336 60.2296C130.541 59.8544 130.632 59.4269 130.596 59.0005C130.6 58.7162 130.545 58.4343 130.434 58.1724C130.323 57.9105 130.159 57.6744 129.953 57.479C129.747 57.2835 129.502 57.1329 129.234 57.0366C128.967 56.9404 128.682 56.9006 128.399 56.9197C128.115 56.9389 127.838 57.0165 127.586 57.1479C127.334 57.2792 127.112 57.4613 126.933 57.6827C126.755 57.9042 126.625 58.1602 126.55 58.4345C126.476 58.7089 126.459 58.9957 126.501 59.2769C126.526 59.7076 126.677 60.1214 126.936 60.4666C127.195 60.8117 127.55 61.0729 127.956 61.2175C127.316 61.341 126.727 61.6521 126.264 62.1111C125.801 62.5701 125.485 63.1564 125.355 63.7955C126.146 64.5802 127.194 65.0512 128.306 65.1212L129.564 65.0366C130.67 64.8093 131.657 64.1879 132.339 63.2878C132.128 62.677 131.74 62.1432 131.223 61.7551C130.706 61.3671 130.085 61.1425 129.44 61.1103Z" fill="#FAFAFA"/>
<path d="M128.954 65.1261C128.954 65.0923 129.371 65.081 130.082 64.844C131.059 64.5002 131.893 63.8388 132.451 62.9655C132.836 62.3714 133.075 61.695 133.151 60.9911C133.235 60.1837 133.104 59.3684 132.773 58.6275C132.596 58.2283 132.358 57.8591 132.067 57.5331C131.777 57.1829 131.43 56.8835 131.041 56.6474C130.227 56.1352 129.271 55.8962 128.312 55.9652C127.354 56.0342 126.442 56.4076 125.71 57.031C125.025 57.6099 124.528 58.3798 124.283 59.2424C124.069 59.9711 124.043 60.742 124.207 61.4835C124.37 62.2251 124.719 62.9133 125.219 63.4845C125.897 64.2705 126.818 64.8068 127.837 65.0076C128.559 65.143 128.965 65.0923 128.965 65.1261C128.869 65.1528 128.771 65.1661 128.671 65.1656C128.383 65.1834 128.093 65.1683 127.808 65.1205C126.746 64.9539 125.774 64.4259 125.055 63.6255C124.559 63.0719 124.199 62.409 124.006 61.6906C123.78 60.8633 123.78 59.9907 124.006 59.1634C124.127 58.7169 124.317 58.2923 124.57 57.9054C124.823 57.4917 125.141 57.1221 125.512 56.811C126.287 56.1508 127.252 55.7553 128.266 55.6822C129.281 55.6092 130.293 55.8624 131.154 56.4048C131.958 56.9108 132.592 57.6455 132.976 58.5146C133.323 59.2988 133.454 60.1619 133.354 61.0137C133.264 61.7528 133.002 62.4603 132.586 63.0783C131.995 63.9779 131.107 64.6408 130.076 64.9512C129.804 65.0412 129.522 65.0981 129.236 65.1205C129.142 65.1328 129.047 65.1347 128.954 65.1261Z" fill="#FAFAFA"/>
<path d="M106.406 216.011L105.577 220.8L112.956 221.336L112.978 216.631L106.406 216.011Z" fill="#6DDEA2"/>
<path d="M109.723 216.078C109.755 216.808 109.712 217.54 109.593 218.261C109.545 218.991 109.428 219.714 109.243 220.422C109.21 219.692 109.254 218.96 109.373 218.239C109.42 217.509 109.537 216.785 109.723 216.078Z" fill="#263238"/>
<path d="M112.957 220.816C112.6 220.827 112.243 220.801 111.891 220.737L109.324 220.455C108.326 220.337 107.418 220.218 106.769 220.105C106.412 220.066 106.06 219.986 105.72 219.869C106.077 219.865 106.433 219.891 106.786 219.947L109.353 220.235C110.351 220.348 111.259 220.472 111.914 220.585C112.269 220.622 112.619 220.7 112.957 220.816Z" fill="#263238"/>
<path d="M136.857 219.835L137.799 215.649L129.969 213.833L128.53 219.942L129.004 220.089C131.136 220.71 139.897 223.09 141.443 222.989C143.163 222.87 136.857 219.835 136.857 219.835Z" fill="#6DDEA2"/>
<path d="M131.38 220.54C131.415 219.854 131.198 219.178 130.77 218.639C130.35 218.109 129.746 217.755 129.078 217.646L128.57 219.835L131.38 220.54Z" fill="#EBEBEB"/>
<path d="M139.904 221.438C139.904 221.438 142.076 222.65 141.698 222.966C141.32 223.282 132.379 221.206 128.521 219.943L128.571 219.773L138.979 222.284C138.979 222.284 139.453 221.347 139.904 221.438Z" fill="#EBEBEB"/>
<path d="M128.457 219.739L128.592 219.784L128.97 219.897L130.381 220.292C131.571 220.614 133.201 221.037 135.057 221.465C136.913 221.894 138.566 222.244 139.773 222.481L141.212 222.752L141.607 222.819H141.742L141.607 222.78L141.217 222.695L139.79 222.396C138.583 222.142 136.913 221.781 135.08 221.353C133.246 220.924 131.594 220.512 130.398 220.224L128.982 219.863L128.598 219.767L128.457 219.739Z" fill="#263238"/>
<path d="M138.956 222.402C139.074 222.182 139.216 221.976 139.379 221.787C139.568 221.62 139.774 221.475 139.994 221.353C139.736 221.403 139.498 221.53 139.313 221.717C139.128 221.904 139.003 222.143 138.956 222.402Z" fill="#263238"/>
<path d="M136.92 220.698C136.92 220.698 137.078 220.608 137.236 220.45C137.394 220.292 137.501 220.156 137.484 220.139C137.467 220.123 137.326 220.23 137.168 220.382C137.01 220.534 136.903 220.675 136.92 220.698Z" fill="#263238"/>
<path d="M136.361 220.213C136.361 220.213 136.519 220.213 136.683 220.095C136.846 219.976 136.965 219.908 136.953 219.886C136.942 219.863 136.795 219.92 136.637 220.01C136.479 220.1 136.35 220.19 136.361 220.213Z" fill="#263238"/>
<path d="M136.136 219.384C136.256 219.46 136.39 219.51 136.531 219.531C136.665 219.575 136.807 219.592 136.948 219.582C136.948 219.553 136.779 219.491 136.553 219.435C136.328 219.379 136.141 219.356 136.136 219.384Z" fill="#263238"/>
<path d="M136.119 218.825C136.119 218.825 136.283 218.983 136.542 219.068C136.696 219.132 136.865 219.147 137.027 219.113C136.88 219.052 136.727 219.005 136.57 218.972C136.423 218.913 136.273 218.864 136.119 218.825Z" fill="#263238"/>
<path d="M137.342 220.072C137.501 220.139 137.671 220.179 137.844 220.191C138.032 220.208 138.22 220.208 138.408 220.191C138.522 220.182 138.635 220.163 138.746 220.135C138.814 220.114 138.871 220.067 138.904 220.005C138.921 219.969 138.927 219.93 138.922 219.891C138.917 219.852 138.901 219.815 138.876 219.785C138.706 219.648 138.494 219.573 138.275 219.573C138.057 219.573 137.845 219.648 137.675 219.785C137.574 219.866 137.491 219.968 137.432 220.084C137.393 220.168 137.381 220.213 137.387 220.219C137.474 220.075 137.584 219.948 137.714 219.841C137.859 219.735 138.031 219.672 138.211 219.661C138.415 219.646 138.617 219.711 138.775 219.841C138.842 219.92 138.775 220.005 138.69 220.039C138.588 220.066 138.485 220.085 138.38 220.095C138.192 220.112 138.003 220.112 137.816 220.095C137.539 220.101 137.347 220.061 137.342 220.072Z" fill="#263238"/>
<path d="M137.467 220.128C137.554 220.039 137.604 219.92 137.608 219.795C137.62 219.659 137.603 219.523 137.557 219.394C137.489 219.259 137.416 219.079 137.196 219.039C137.142 219.039 137.091 219.059 137.052 219.096C137.013 219.133 136.99 219.183 136.987 219.236C136.981 219.319 136.992 219.402 137.021 219.479C137.061 219.605 137.116 219.727 137.185 219.84C137.244 219.948 137.327 220.04 137.427 220.111C137.427 220.111 137.348 219.998 137.247 219.806C137.188 219.695 137.141 219.578 137.106 219.457C137.061 219.332 137.061 219.129 137.19 219.135C137.32 219.141 137.416 219.31 137.472 219.428C137.518 219.543 137.541 219.666 137.54 219.789C137.526 219.904 137.501 220.017 137.467 220.128Z" fill="#263238"/>
<path d="M129.117 217.623C129.117 217.623 129.343 217.651 129.681 217.775C130.135 217.929 130.535 218.21 130.835 218.583C131.135 218.957 131.322 219.409 131.374 219.885C131.413 220.252 131.374 220.477 131.374 220.483C131.395 220.433 131.409 220.379 131.413 220.325C131.426 220.177 131.426 220.028 131.413 219.879C131.378 219.387 131.195 218.917 130.888 218.53C130.581 218.143 130.164 217.859 129.693 217.713C129.553 217.669 129.409 217.638 129.264 217.623C129.215 217.614 129.166 217.614 129.117 217.623Z" fill="#263238"/>
<path d="M130.686 214.566C130.506 215.087 130.359 215.618 130.246 216.157C130.1 216.688 129.983 217.227 129.896 217.771C130.078 217.251 130.225 216.719 130.336 216.18C130.483 215.649 130.6 215.11 130.686 214.566Z" fill="#455A64"/>
<path d="M132.569 220.004C132.927 220.18 133.306 220.307 133.698 220.382C134.077 220.494 134.47 220.553 134.865 220.557C134.865 220.529 134.352 220.444 133.737 220.292C133.122 220.14 132.569 219.982 132.569 220.004Z" fill="#263238"/>
<path d="M131.009 219.649C131.009 219.649 131.009 219.767 131.054 219.897C131.099 220.026 131.082 220.134 131.11 220.139C131.139 220.145 131.178 220.026 131.15 219.874C131.122 219.722 131.031 219.632 131.009 219.649Z" fill="#263238"/>
<path d="M130.602 218.791C130.602 218.791 130.602 218.898 130.669 219C130.737 219.102 130.799 219.175 130.822 219.158C130.844 219.141 130.822 219.051 130.754 218.949C130.686 218.848 130.624 218.78 130.602 218.791Z" fill="#263238"/>
<path d="M129.846 218.274C129.846 218.302 129.953 218.324 130.06 218.392C130.167 218.46 130.229 218.539 130.257 218.527C130.286 218.516 130.258 218.392 130.111 218.307C129.964 218.223 129.846 218.245 129.846 218.274Z" fill="#263238"/>
<path d="M129.292 217.98C129.292 217.98 129.292 218.053 129.377 218.093C129.461 218.132 129.495 218.149 129.506 218.127C129.518 218.104 129.506 218.053 129.427 218.014C129.348 217.974 129.309 217.957 129.292 217.98Z" fill="#263238"/>
<path d="M177.655 62.7397C177.091 61.8878 173.401 64.1612 173.074 64.3305C172.747 64.4997 172.51 64.0371 172.798 63.9017C173.232 63.7043 177.722 61.5155 177.158 60.675C176.842 60.2124 176.03 60.8555 176.03 60.8555C176.03 60.8555 171.974 63.2079 171.72 62.8017C171.466 62.3955 173.796 60.9232 174.614 60.4888C175.432 60.0545 175.551 59.496 175.065 59.2929C174.727 59.1575 172.177 60.4211 171.376 60.8894C170.575 61.3576 168.398 62.6156 168.956 61.115C169.515 59.6144 169.385 58.2436 169.091 57.8995C169.016 57.8264 168.92 57.7788 168.816 57.7633C168.712 57.7478 168.606 57.7653 168.513 57.8132C168.419 57.8612 168.343 57.9372 168.295 58.0306C168.247 58.124 168.23 58.2301 168.245 58.3339C168.228 58.8755 168.139 59.4123 167.98 59.9304C167.881 60.3602 167.689 60.7629 167.416 61.1094C167.258 61.2842 167.117 61.4535 166.982 61.6114L166.559 62.1755C166.028 62.813 165.763 63.174 165.763 63.174L144.541 90.026L145.669 101.184L170.282 67.749V67.7208C171.85 67.3281 173.396 66.8516 174.913 66.2936C177.124 65.3797 177.045 65.1654 176.893 64.9397C176.487 64.2966 172.944 66.4064 173.446 65.5038C173.948 64.6012 178.106 63.394 177.655 62.7397Z" fill="#E5BAAB"/>
<path d="M117.604 81.9765L120.565 64.6581C120.898 64.2294 121.389 63.5975 121.942 62.8247C122.207 62.4577 122.533 62.139 122.906 61.8826C123.356 61.5437 123.852 61.2702 124.379 61.0703C124.486 61.0505 124.584 60.9975 124.66 60.9187C124.735 60.8398 124.784 60.7393 124.799 60.6312C124.814 60.5232 124.794 60.4132 124.743 60.3168C124.692 60.2204 124.612 60.1426 124.514 60.0944C124.08 59.9251 122.692 60.2636 121.411 61.3298C120.131 62.396 120.633 59.8236 120.802 58.8815C120.971 57.9395 121.366 55.006 121.095 54.724C120.729 54.3122 120.221 54.6281 120.08 55.5758C119.939 56.5235 119.302 59.3159 118.811 59.2031C118.32 59.0902 119.234 54.3178 119.234 54.3178C119.234 54.3178 119.595 53.325 119.031 53.1896C118.01 52.9244 117.417 58.0748 117.372 58.5656C117.338 58.9097 116.808 58.8082 116.853 58.4415C116.898 58.0748 117.874 53.6916 116.853 53.4152C116.058 53.1952 116.329 57.6461 115.623 58.4415C114.918 59.2369 115.765 55.0568 114.997 54.8707C114.71 54.8086 114.49 54.7973 114.349 57.2738C114.33 59.059 114.403 60.844 114.569 62.6216C114.45 63.2647 111.037 81.9314 110.812 84.7181C110.586 87.5049 120.159 103.977 120.159 103.977L126.77 97.2077L117.604 81.9765Z" fill="#E5BAAB"/>
<path d="M113.338 93.2191C113.107 93.7268 117.287 99.5767 119.414 104.011L121.287 116.359C119.137 120.308 116.672 124.883 115.482 129.943C123.972 133.892 133.635 133.429 142.921 131.635L140.974 118.001L144.218 104.462L152.234 94.793L146.407 87.042L140.032 93.8453L137.026 94.5899C134.284 95.2725 129.218 94.8268 126.635 93.6704L122.313 88.1025L113.338 93.2191Z" fill="#6DDEA2"/>
<path d="M133.918 115.592C133.519 115.845 133.083 116.036 132.626 116.156C131.533 116.522 130.393 116.73 129.241 116.771C128.092 116.811 126.943 116.688 125.828 116.404C125.362 116.312 124.913 116.149 124.497 115.919C126.046 116.3 127.635 116.49 129.23 116.483C130.823 116.377 132.397 116.077 133.918 115.592Z" fill="#263238"/>
<path d="M146.375 102.121C146.289 102.218 146.186 102.299 146.07 102.358C145.767 102.543 145.441 102.687 145.1 102.787C143.957 103.135 142.724 103.026 141.66 102.483C140.596 101.94 139.785 101.005 139.397 99.8757C139.272 99.5443 139.196 99.1966 139.171 98.8433C139.171 98.5951 139.171 98.4541 139.171 98.4541C139.279 98.9107 139.413 99.3609 139.571 99.8023C139.988 100.85 140.771 101.709 141.775 102.221C142.779 102.733 143.934 102.862 145.026 102.583C145.89 102.386 146.346 102.07 146.375 102.121Z" fill="#263238"/>
<path d="M151.141 95.9952C150.849 95.5966 150.593 95.1739 150.373 94.7316C149.922 93.9474 149.296 92.8643 148.563 91.691C147.829 90.5176 147.13 89.4796 146.616 88.7293C146.314 88.3398 146.046 87.9245 145.815 87.4883C146.183 87.8245 146.508 88.2032 146.786 88.6165C147.35 89.3386 148.072 90.3653 148.811 91.5443C149.55 92.7233 150.153 93.829 150.56 94.6469C150.802 95.0736 150.997 95.5257 151.141 95.9952Z" fill="#263238"/>
<path d="M123.172 89.0049C122.754 89.3047 122.31 89.5671 121.846 89.789L118.614 91.5773L115.41 93.4276C114.981 93.7104 114.528 93.954 114.056 94.1553C114.44 93.8115 114.857 93.5072 115.302 93.2471C116.092 92.7281 117.209 92.0342 118.467 91.3234C119.725 90.6126 120.898 90.0147 121.75 89.6311C122.202 89.3761 122.679 89.1664 123.172 89.0049Z" fill="#263238"/>
<path d="M120.898 99.8535C120.818 100.34 120.682 100.815 120.492 101.269C120.388 101.751 120.227 102.219 120.012 102.663C119.945 102.16 120.014 101.648 120.21 101.179C120.314 100.683 120.552 100.225 120.898 99.8535Z" fill="#263238"/>
<path d="M135.544 94.5846C135.442 93.3266 135.386 91.8994 135.386 91.8994C135.386 91.8994 138.426 91.1548 138.206 87.9506C137.986 84.7464 136.824 77.4129 136.824 77.4129L130.828 75.2861L125.282 80.9724L128.306 96.7677L134.043 96.3898C134.478 96.3413 134.877 96.1262 135.157 95.7896C135.437 95.4531 135.575 95.0211 135.544 94.5846Z" fill="#E5BAAB"/>
<path d="M134.708 86.0605C134.708 86.0605 134.708 86.1225 134.679 86.2071C134.641 86.2633 134.591 86.3106 134.532 86.3456C134.474 86.3806 134.409 86.4027 134.341 86.4102C133.98 86.4102 133.585 86.0887 133.393 85.6205C133.304 85.3967 133.267 85.1555 133.286 84.9153C133.284 84.8116 133.308 84.7089 133.356 84.6171C133.404 84.5253 133.475 84.4473 133.562 84.3907C133.6 84.3745 133.64 84.3662 133.681 84.3662C133.722 84.3662 133.762 84.3745 133.799 84.3907C133.858 84.4106 133.908 84.4506 133.94 84.5035C133.997 84.5938 133.969 84.6558 133.94 84.6502C133.912 84.6445 133.94 84.5994 133.867 84.543C133.829 84.5108 133.781 84.4931 133.732 84.4931C133.682 84.4931 133.634 84.5108 133.596 84.543C133.534 84.5946 133.485 84.6605 133.453 84.7352C133.422 84.8098 133.409 84.891 133.416 84.9717C133.41 85.186 133.449 85.3991 133.529 85.5979C133.698 86.021 134.042 86.3312 134.313 86.3312C134.423 86.3303 134.529 86.2856 134.606 86.2071C134.679 86.1056 134.696 86.0605 134.708 86.0605Z" fill="#D78776"/>
<path d="M136 74.9476L136.124 75.1169C135.02 74.3266 133.657 73.9839 132.31 74.1579C130.905 74.2254 129.525 74.5584 128.243 75.1394C127.899 75.2974 127.555 75.4553 127.216 75.6246C127.4 75.3307 127.544 75.014 127.645 74.6825C127.813 74.1771 127.825 73.6329 127.679 73.1207C127.533 72.6086 127.236 72.1522 126.827 71.8111C126.367 71.5161 125.816 71.3981 125.275 71.479C124.735 71.5599 124.242 71.8343 123.888 72.2511C123.56 72.6888 123.382 73.2213 123.382 73.7686C123.382 74.3159 123.56 74.8484 123.888 75.2861C124.13 75.5962 124.434 75.8522 124.781 76.0378C125.128 76.2234 125.51 76.3343 125.902 76.3636C125.676 76.5159 125.456 76.6738 125.248 76.8431C124.366 77.5809 123.702 78.5458 123.328 79.6334C122.954 80.7211 122.884 81.8902 123.127 83.0145C123.291 83.6237 123.506 84.2181 123.77 84.7915C123.814 85.2979 123.793 85.8079 123.708 86.309C123.61 86.9239 123.369 87.5072 123.003 88.0111C122.638 88.515 122.158 88.9253 121.604 89.2085C121.179 89.3337 120.792 89.5602 120.475 89.8685C120.346 90.0822 120.278 90.327 120.278 90.5765C120.278 90.826 120.346 91.0708 120.475 91.2845C120.698 91.664 120.997 91.9932 121.353 92.2515C121.71 92.5097 122.116 92.6914 122.546 92.785C122.681 92.8181 122.819 92.8426 122.957 92.8584C122.858 93.5379 122.944 94.2316 123.206 94.8666C123.766 95.763 124.576 96.4761 125.536 96.9181C126.496 97.3601 127.565 97.5117 128.61 97.3544L128.694 95.8595L129.259 97.5518C129.259 97.5518 131.143 98.257 135.391 96.339C136.806 95.6902 134.731 90.5455 134.731 90.5455C133.676 89.5019 134.014 87.77 134.014 87.77C133.123 87.8828 132.254 85.553 132.44 84.7746C132.513 84.3792 132.715 84.0194 133.016 83.7525C133.316 83.4857 133.698 83.3272 134.099 83.3022C134.454 83.3022 134.364 85.13 135.289 84.9269C136.073 84.9269 135.78 83.4658 136.022 82.7325C136.586 81.136 137.647 78.9021 137.258 77.2662C138.488 75.7938 137.258 74.0168 136 74.9476Z" fill="#263238"/>
<path d="M121.519 80.0977C121.331 79.753 121.28 79.3498 121.378 78.9695C121.444 78.5611 121.606 78.1743 121.852 77.8412C122.152 77.4194 122.582 77.1066 123.076 76.9499C123.558 76.8361 124.052 76.7774 124.548 76.775C124.925 76.7678 125.294 76.6587 125.614 76.4591C125.758 76.3648 125.882 76.243 125.979 76.1007C126.076 75.9584 126.143 75.7984 126.178 75.6299C126.178 75.6299 126.235 75.7314 126.178 75.9345C126.113 76.2157 125.947 76.4629 125.71 76.6284C125.372 76.8785 124.968 77.0237 124.548 77.0458C124.075 77.059 123.604 77.1195 123.143 77.2263C122.75 77.3669 122.398 77.6045 122.121 77.9171C121.844 78.2297 121.651 78.6072 121.558 79.0146C121.507 79.3732 121.494 79.7363 121.519 80.0977Z" fill="#263238"/>
<path d="M134.99 96.1353C135.238 95.7762 135.458 95.3991 135.65 95.0071C135.847 94.5282 135.943 94.0132 135.929 93.4953C135.915 92.9774 135.793 92.4681 135.571 92.0003C135.288 91.4896 134.975 90.9961 134.634 90.5223C134.347 90.1161 134.134 89.6613 134.008 89.1797C133.931 88.9604 133.903 88.7266 133.928 88.4953C133.952 88.264 134.028 88.0411 134.149 87.8428C134.07 88.2706 134.092 88.7108 134.211 89.129C134.359 89.574 134.576 89.9929 134.854 90.37C135.216 90.8447 135.544 91.3442 135.836 91.8649C136.111 92.4194 136.237 93.0354 136.203 93.6532C136.175 94.152 136.051 94.6406 135.836 95.0917C135.692 95.3924 135.502 95.6685 135.272 95.9097C135.114 96.0733 135.001 96.1466 134.99 96.1353Z" fill="#263238"/>
<path d="M115.806 130.079L103.886 216.547L115.732 216.908C115.732 216.908 127.816 140.797 128.611 141.242C129.406 141.688 137.485 174.085 137.129 176.071C136.926 177.199 127.804 216.05 128.453 215.898C129.102 215.745 139.882 216.834 139.882 216.834C139.882 216.834 149.173 175.975 149.038 174.988C148.716 172.585 142.607 129.029 142.607 129.029L115.806 130.079Z" fill="#263238"/>
<path d="M133.055 142.286C132.555 142.266 132.059 142.188 131.577 142.055C129.224 141.542 126.931 140.786 124.734 139.798C124.27 139.616 123.827 139.384 123.414 139.104C123.896 139.231 124.366 139.399 124.819 139.607C125.676 139.939 126.861 140.385 128.203 140.825C129.546 141.265 130.748 141.615 131.639 141.857C132.122 141.961 132.595 142.105 133.055 142.286Z" fill="#455A64"/>
<path d="M136.355 216.495C136.433 216.495 136.433 216.834 136.355 217.212C136.276 217.589 136.14 217.888 136.061 217.872C135.982 217.855 135.982 217.533 136.061 217.149C136.14 216.766 136.276 216.495 136.355 216.495Z" fill="#455A64"/>
<path d="M137.535 211.04C137.545 211.978 137.352 212.907 136.971 213.765C136.925 213.295 136.977 212.82 137.123 212.371C137.17 211.905 137.31 211.452 137.535 211.04Z" fill="#455A64"/>
<path d="M138.719 205.603C138.723 206.538 138.531 207.465 138.154 208.322C138.148 207.386 138.34 206.459 138.719 205.603Z" fill="#455A64"/>
<path d="M139.904 200.136C139.949 200.606 139.897 201.08 139.751 201.529C139.697 201.998 139.55 202.45 139.317 202.86C139.268 202.391 139.318 201.916 139.464 201.467C139.518 200.998 139.668 200.545 139.904 200.136Z" fill="#455A64"/>
<path d="M141.083 194.721C141.087 195.657 140.895 196.583 140.519 197.44C140.512 196.504 140.705 195.577 141.083 194.721Z" fill="#455A64"/>
<path d="M142.261 189.276C142.258 190.216 142.056 191.145 141.669 192.001C141.672 191.061 141.874 190.133 142.261 189.276Z" fill="#455A64"/>
<path d="M143.441 183.839C143.487 184.307 143.437 184.779 143.295 185.227C143.242 185.696 143.092 186.149 142.855 186.558C142.853 185.622 143.045 184.696 143.419 183.839H143.441Z" fill="#455A64"/>
<path d="M144.626 178.396C144.622 179.335 144.42 180.264 144.033 181.12C144.037 180.18 144.239 179.252 144.626 178.396Z" fill="#455A64"/>
<path d="M144.981 172.924C145.185 173.349 145.3 173.812 145.319 174.283C145.37 174.631 145.401 174.981 145.409 175.333V175.361C145.336 175.564 145.28 175.677 145.246 175.671C145.212 175.665 145.201 175.53 145.246 175.316V175.35C145.158 175.01 145.092 174.665 145.048 174.317C144.93 173.862 144.907 173.388 144.981 172.924Z" fill="#455A64"/>
<path d="M144.191 167.417C144.395 167.842 144.508 168.305 144.524 168.777C144.639 169.234 144.654 169.711 144.569 170.176C144.365 169.75 144.252 169.287 144.236 168.816C144.121 168.358 144.106 167.881 144.191 167.417Z" fill="#455A64"/>
<path d="M143.424 161.895C143.631 162.319 143.746 162.782 143.763 163.254C143.874 163.712 143.89 164.189 143.808 164.653C143.604 164.228 143.489 163.765 143.469 163.294C143.361 162.835 143.346 162.359 143.424 161.895Z" fill="#455A64"/>
<path d="M142.662 156.378C142.866 156.803 142.981 157.266 143.001 157.737C143.109 158.196 143.124 158.672 143.046 159.136C142.839 158.712 142.724 158.249 142.707 157.777C142.596 157.319 142.58 156.842 142.662 156.378Z" fill="#455A64"/>
<path d="M141.9 150.86C142.104 151.286 142.217 151.749 142.233 152.22C142.348 152.678 142.363 153.155 142.278 153.619C142.078 153.192 141.965 152.73 141.945 152.259C141.834 151.801 141.819 151.325 141.9 150.86Z" fill="#455A64"/>
<path d="M141.133 145.349C141.339 145.773 141.455 146.236 141.471 146.708C141.583 147.166 141.598 147.643 141.517 148.107C141.313 147.682 141.2 147.219 141.184 146.748C141.072 146.29 141.055 145.814 141.133 145.349Z" fill="#455A64"/>
<path d="M140.372 139.833C140.576 140.259 140.692 140.721 140.711 141.193C140.822 141.651 140.838 142.127 140.756 142.592C140.552 142.166 140.437 141.703 140.418 141.232C140.309 140.773 140.294 140.298 140.372 139.833Z" fill="#455A64"/>
<path d="M139.797 135.68C139.881 135.68 139.988 135.973 140.039 136.357C140.09 136.74 140.073 137.062 139.994 137.073C139.915 137.084 139.802 136.78 139.752 136.396C139.701 136.013 139.718 135.691 139.797 135.68Z" fill="#455A64"/>
<path d="M127.238 217.504L140.394 218.277L141.087 214.509L127.977 213.984L127.238 217.504Z" fill="#455A64"/>
<path d="M103.106 216.541L116.267 217.308L116.956 213.545L103.845 213.021L103.106 216.541Z" fill="#455A64"/>
<path d="M126.15 141.694C126.071 141.694 126.071 141.35 126.15 140.972C126.229 140.594 126.353 140.295 126.432 140.312C126.511 140.329 126.517 140.651 126.432 141.029C126.347 141.407 126.229 141.706 126.15 141.694Z" fill="#455A64"/>
<path d="M125.04 147.109C124.99 146.642 125.036 146.17 125.175 145.721C125.221 145.255 125.363 144.804 125.593 144.396C125.601 145.33 125.409 146.255 125.029 147.109H125.04Z" fill="#455A64"/>
<path d="M123.956 152.553C123.902 152.087 123.945 151.615 124.08 151.165C124.127 150.698 124.267 150.246 124.492 149.834C124.553 150.3 124.51 150.774 124.368 151.222C124.325 151.689 124.184 152.143 123.956 152.553Z" fill="#455A64"/>
<path d="M122.896 157.992C122.839 157.526 122.879 157.053 123.015 156.604C123.058 156.137 123.196 155.684 123.421 155.272C123.478 155.738 123.438 156.211 123.302 156.66C123.258 157.127 123.12 157.58 122.896 157.992Z" fill="#455A64"/>
<path d="M121.852 163.435C121.794 162.969 121.833 162.497 121.965 162.047C122.007 161.579 122.143 161.124 122.366 160.71C122.43 161.175 122.394 161.648 122.258 162.098C122.219 162.567 122.081 163.023 121.852 163.435Z" fill="#455A64"/>
<path d="M120.859 168.884C120.828 167.951 120.997 167.021 121.356 166.159C121.416 166.624 121.38 167.097 121.248 167.547C121.211 168.014 121.078 168.469 120.859 168.884Z" fill="#455A64"/>
<path d="M119.888 174.339C119.854 173.405 120.017 172.475 120.368 171.608C120.433 172.073 120.401 172.545 120.272 172.996C120.239 173.465 120.108 173.923 119.888 174.339Z" fill="#455A64"/>
<path d="M118.953 179.794C118.918 178.862 119.075 177.932 119.416 177.063C119.488 177.529 119.46 178.004 119.331 178.457C119.302 178.924 119.173 179.38 118.953 179.794Z" fill="#455A64"/>
<path d="M118.062 185.261C117.985 184.798 118.01 184.325 118.135 183.873C118.163 183.405 118.288 182.948 118.502 182.53C118.572 182.993 118.547 183.465 118.429 183.918C118.401 184.386 118.276 184.843 118.062 185.261Z" fill="#455A64"/>
<path d="M117.204 190.732C117.152 189.801 117.296 188.868 117.627 187.996C117.68 188.928 117.536 189.86 117.204 190.732Z" fill="#455A64"/>
<path d="M116.385 196.215C116.311 195.752 116.33 195.278 116.442 194.822C116.461 194.353 116.581 193.893 116.791 193.474C116.866 193.937 116.847 194.411 116.735 194.867C116.715 195.336 116.596 195.796 116.385 196.215Z" fill="#455A64"/>
<path d="M115.646 201.699C115.561 201.237 115.574 200.762 115.686 200.305C115.705 199.837 115.82 199.379 116.024 198.957C116.105 199.418 116.09 199.89 115.979 200.345C115.961 200.814 115.847 201.274 115.646 201.699Z" fill="#455A64"/>
<path d="M114.89 207.188C114.791 206.731 114.791 206.257 114.89 205.8C114.905 205.331 115.016 204.87 115.217 204.446C115.291 205.375 115.17 206.309 114.861 207.188H114.89Z" fill="#455A64"/>
<path d="M114.203 212.688C114.118 211.758 114.234 210.822 114.541 209.94C114.635 210.398 114.635 210.87 114.541 211.328C114.528 211.801 114.413 212.265 114.203 212.688Z" fill="#455A64"/>
<path d="M113.717 216.84C113.638 216.84 113.61 216.513 113.655 216.123C113.7 215.734 113.802 215.429 113.881 215.441C113.96 215.452 113.988 215.774 113.943 216.157C113.898 216.541 113.802 216.851 113.717 216.84Z" fill="#455A64"/>
<path d="M144.9 175.879C143.756 175.878 142.613 175.818 141.476 175.699C140.331 175.674 139.188 175.588 138.052 175.439C140.344 175.247 142.652 175.395 144.9 175.879Z" fill="#455A64"/>
<path d="M144.252 174.469C142.356 174.879 140.403 174.951 138.481 174.684C139.438 174.573 140.401 174.524 141.364 174.537C142.324 174.452 143.289 174.429 144.252 174.469Z" fill="#455A64"/>
<path d="M114.405 178.587C113.327 177.158 112.408 175.617 111.663 173.989C112.741 175.418 113.66 176.959 114.405 178.587Z" fill="#455A64"/>
<path d="M142.943 132.284C142.943 132.284 142.943 132.431 142.943 132.679C142.893 133.036 142.816 133.389 142.712 133.734C142.567 134.262 142.294 134.747 141.917 135.144C141.671 135.384 141.378 135.569 141.056 135.689C140.735 135.808 140.392 135.859 140.049 135.838C139.386 135.804 138.734 135.649 138.126 135.381C137.623 135.18 137.158 134.896 136.749 134.541C136.344 134.236 136.074 133.784 135.999 133.283C136.222 133.702 136.522 134.076 136.885 134.383C137.291 134.699 137.744 134.95 138.227 135.128C138.809 135.369 139.427 135.51 140.055 135.545C140.363 135.567 140.672 135.526 140.963 135.424C141.254 135.322 141.521 135.162 141.747 134.953C142.107 134.591 142.377 134.151 142.537 133.666C142.797 132.832 142.893 132.273 142.943 132.284Z" fill="#455A64"/>
<path d="M126.433 140.34C126.433 140.34 126.337 140.273 126.196 140.132C125.969 139.954 125.759 139.756 125.57 139.539C125.271 139.217 125.029 138.847 124.853 138.445C124.758 137.92 124.733 137.385 124.78 136.854C124.842 135.726 124.972 134.756 125.068 134.034C125.097 133.65 125.171 133.272 125.288 132.905C125.384 132.905 125.22 134.699 125.073 136.888C125.028 137.388 125.042 137.892 125.113 138.388C125.27 138.762 125.479 139.111 125.733 139.426C125.925 139.725 126.156 139.889 126.297 140.075C126.438 140.261 126.45 140.301 126.433 140.34Z" fill="#455A64"/>
<path d="M65.5249 35.5303C66.0662 35.5303 66.5049 35.0916 66.5049 34.5503C66.5049 34.0091 66.0662 33.5703 65.5249 33.5703C64.9837 33.5703 64.5449 34.0091 64.5449 34.5503C64.5449 35.0916 64.9837 35.5303 65.5249 35.5303Z" fill="#6DDEA2"/>
<path d="M1.87453 119.11C2.41577 119.11 2.85453 118.672 2.85453 118.13C2.85453 117.589 2.41577 117.15 1.87453 117.15C1.33329 117.15 0.894531 117.589 0.894531 118.13C0.894531 118.672 1.33329 119.11 1.87453 119.11Z" fill="#6DDEA2"/>
<path d="M16.2945 34.96C16.8357 34.96 17.2745 34.5212 17.2745 33.98C17.2745 33.4388 16.8357 33 16.2945 33C15.7532 33 15.3145 33.4388 15.3145 33.98C15.3145 34.5212 15.7532 34.96 16.2945 34.96Z" fill="#6DDEA2"/>
<path d="M94.1245 71.6905C94.6658 71.6905 95.1045 71.2517 95.1045 70.7105C95.1045 70.1692 94.6658 69.7305 94.1245 69.7305C93.5833 69.7305 93.1445 70.1692 93.1445 70.7105C93.1445 71.2517 93.5833 71.6905 94.1245 71.6905Z" fill="#6DDEA2"/>
<path d="M39.7549 126.1V130.41" stroke="#6DDEA2" stroke-linecap="round" stroke-linejoin="round"/>
<path d="M37.5947 128.26H41.9047" stroke="#6DDEA2" stroke-linecap="round" stroke-linejoin="round"/>
<path d="M83.3545 52.9297V57.2397" stroke="#6DDEA2" stroke-linecap="round" stroke-linejoin="round"/>
<path d="M81.1943 55.0898H85.5043" stroke="#6DDEA2" stroke-linecap="round" stroke-linejoin="round"/>
<path d="M33.9346 46.8604V51.1703" stroke="#6DDEA2" stroke-linecap="round" stroke-linejoin="round"/>
<path d="M31.7842 49.0107H36.0842" stroke="#6DDEA2" stroke-linecap="round" stroke-linejoin="round"/>
<path d="M259.525 81.5303C260.066 81.5303 260.505 81.0916 260.505 80.5503C260.505 80.0091 260.066 79.5703 259.525 79.5703C258.984 79.5703 258.545 80.0091 258.545 80.5503C258.545 81.0916 258.984 81.5303 259.525 81.5303Z" fill="#6DDEA2"/>
<path d="M195.875 165.11C196.416 165.11 196.855 164.672 196.855 164.13C196.855 163.589 196.416 163.15 195.875 163.15C195.333 163.15 194.895 163.589 194.895 164.13C194.895 164.672 195.333 165.11 195.875 165.11Z" fill="#6DDEA2"/>
<path d="M210.294 80.96C210.836 80.96 211.274 80.5212 211.274 79.98C211.274 79.4388 210.836 79 210.294 79C209.753 79 209.314 79.4388 209.314 79.98C209.314 80.5212 209.753 80.96 210.294 80.96Z" fill="#6DDEA2"/>
<path d="M288.125 117.69C288.666 117.69 289.105 117.252 289.105 116.71C289.105 116.169 288.666 115.73 288.125 115.73C287.583 115.73 287.145 116.169 287.145 116.71C287.145 117.252 287.583 117.69 288.125 117.69Z" fill="#6DDEA2"/>
<path d="M233.755 172.1V176.41" stroke="#6DDEA2" stroke-linecap="round" stroke-linejoin="round"/>
<path d="M231.595 174.26H235.905" stroke="#6DDEA2" stroke-linecap="round" stroke-linejoin="round"/>
<path d="M277.354 98.9297V103.24" stroke="#6DDEA2" stroke-linecap="round" stroke-linejoin="round"/>
<path d="M275.194 101.09H279.504" stroke="#6DDEA2" stroke-linecap="round" stroke-linejoin="round"/>
<path d="M227.935 92.8604V97.1703" stroke="#6DDEA2" stroke-linecap="round" stroke-linejoin="round"/>
<path d="M225.784 95.0107H230.084" stroke="#6DDEA2" stroke-linecap="round" stroke-linejoin="round"/>
</svg>
