<svg width="305" height="260" viewBox="0 0 305 260" fill="none" xmlns="http://www.w3.org/2000/svg">
<path d="M114.222 15.4456C114.222 15.4456 147.719 53.8458 219.834 9.97039C283.879 -28.9949 311.319 59.1124 303.783 97.0201C294.02 146.126 231.828 174.147 251.391 211.783C270.954 249.419 181.668 286.37 149.024 231.612C108.415 163.495 84.5605 207.059 54.6511 200.86C33.1852 196.411 0.167315 133.94 38.1525 100.426C70.1165 72.225 58.7549 58.3122 54.5391 45.3649C48.4588 26.692 80.5091 -13.9293 114.222 15.4456Z" fill="#D7F3E4"/>
<g clip-path="url(#clip0_1_26730)">
<path d="M287.99 40.5234H4.98419C3.65015 40.5364 2.37572 41.078 1.44047 42.0294C0.50522 42.9808 -0.0144876 44.2643 -0.00462283 45.5984V237.872C-0.0123407 239.205 0.508398 240.486 1.44349 241.435C2.37858 242.384 3.65179 242.924 4.98419 242.936H287.99C289.322 242.924 290.595 242.384 291.53 241.435C292.465 240.486 292.986 239.205 292.979 237.872V45.5984C292.988 44.2644 292.469 42.981 291.534 42.0296C290.599 41.0783 289.324 40.5366 287.991 40.5234H287.99Z" fill="#090814"/>
<path d="M279.811 41.6836H5.46929C4.1856 41.686 2.95532 42.1976 2.04841 43.1061C1.14149 44.0146 0.632028 45.2458 0.631836 46.5295V230.135C0.633678 231.417 1.14394 232.647 2.05073 233.554C2.95753 234.46 4.18688 234.971 5.46929 234.973H279.811C281.094 234.971 282.323 234.46 283.23 233.554C284.136 232.647 284.647 231.417 284.649 230.135V46.5298C284.648 45.2465 284.139 44.0156 283.233 43.1071C282.326 42.1987 281.097 41.6869 279.813 41.684L279.811 41.6836Z" fill="white"/>
<path d="M73.615 57.0156C78.1089 57.0156 82.5018 58.3482 86.2383 60.8449C89.9748 63.3415 92.8871 66.8901 94.6068 71.0419C96.3265 75.1937 96.7765 79.7622 95.8998 84.1697C95.0231 88.5772 92.8591 92.6257 89.6814 95.8034C86.5038 98.981 82.4552 101.145 78.0477 102.022C73.6402 102.898 69.0717 102.448 64.9199 100.729C60.7682 99.009 57.2196 96.0968 54.7229 92.3603C52.2263 88.6238 50.8937 84.2308 50.8937 79.737C50.8937 73.7109 53.2875 67.9316 57.5486 63.6705C61.8097 59.4095 67.5889 57.0156 73.615 57.0156Z" fill="#6DDEA2"/>
<path d="M73.6125 58.7637C77.7607 58.7637 81.8158 59.9938 85.2649 62.2984C88.714 64.603 91.4022 67.8786 92.9896 71.711C94.5771 75.5435 94.9924 79.7606 94.1832 83.8291C93.3739 87.8975 91.3763 91.6347 88.4431 94.5679C85.5099 97.5011 81.7728 99.4986 77.7043 100.308C73.6358 101.117 69.4187 100.702 65.5863 99.1144C61.7539 97.527 58.4782 94.8387 56.1736 91.3896C53.869 87.9405 52.6389 83.8855 52.6389 79.7373C52.6389 74.1747 54.8486 68.84 58.7819 64.9067C62.7153 60.9734 68.05 58.7637 73.6125 58.7637Z" fill="#F2F2F2"/>
<path d="M82.8444 70.5762L64.5208 88.8998M64.5208 70.5762L82.8444 88.8998" stroke="#E00000" stroke-width="3.05394" stroke-linecap="round" stroke-linejoin="round"/>
<path d="M115.37 82.668H237.897C240.314 82.668 242.273 85.293 242.273 88.5315C242.273 91.7701 240.314 94.3951 237.897 94.3951H115.37C112.953 94.3951 110.994 91.7701 110.994 88.5315C110.994 85.293 112.953 82.668 115.37 82.668Z" fill="#F2F2F2"/>
<path d="M247.366 122.613H37.0101C34.5813 122.613 32.6124 124.582 32.6124 127.011V215.331C32.6124 217.76 34.5813 219.729 37.0101 219.729H247.366C249.794 219.729 251.763 217.76 251.763 215.331V127.011C251.763 124.582 249.794 122.613 247.366 122.613Z" fill="#F2F2F2"/>
<path d="M116.857 65.0762H189.053C190.608 65.0762 192.099 65.6939 193.199 66.7936C194.298 67.8932 194.916 69.3846 194.916 70.9397C194.916 72.4949 194.298 73.9863 193.199 75.0859C192.099 76.1855 190.608 76.8033 189.053 76.8033H116.857C115.302 76.8033 113.811 76.1855 112.711 75.0859C111.612 73.9863 110.994 72.4949 110.994 70.9397C110.994 69.3846 111.612 67.8932 112.711 66.7936C113.811 65.6939 115.302 65.0762 116.857 65.0762Z" fill="#6DDEA2"/>
<path d="M86.114 143.502H46.5349C45.3205 143.502 44.3361 144.486 44.3361 145.701V158.894C44.3361 160.108 45.3205 161.093 46.5349 161.093H86.114C87.3284 161.093 88.3128 160.108 88.3128 158.894V145.701C88.3128 144.486 87.3284 143.502 86.114 143.502Z" fill="white"/>
<path d="M86.114 168.789H46.5349C45.3205 168.789 44.3361 169.774 44.3361 170.988V184.181C44.3361 185.395 45.3205 186.38 46.5349 186.38H86.114C87.3284 186.38 88.3128 185.395 88.3128 184.181V170.988C88.3128 169.774 87.3284 168.789 86.114 168.789Z" fill="white"/>
<path d="M86.114 194.076H46.5349C45.3205 194.076 44.3361 195.061 44.3361 196.275V209.468C44.3361 210.682 45.3205 211.667 46.5349 211.667H86.114C87.3284 211.667 88.3128 210.682 88.3128 209.468V196.275C88.3128 195.061 87.3284 194.076 86.114 194.076Z" fill="white"/>
<path d="M237.834 143.502H198.255C197.04 143.502 196.056 144.486 196.056 145.701V158.894C196.056 160.108 197.04 161.093 198.255 161.093H237.834C239.048 161.093 240.033 160.108 240.033 158.894V145.701C240.033 144.486 239.048 143.502 237.834 143.502Z" fill="white"/>
<path d="M237.834 168.789H198.255C197.04 168.789 196.056 169.774 196.056 170.988V184.181C196.056 185.395 197.04 186.38 198.255 186.38H237.834C239.048 186.38 240.033 185.395 240.033 184.181V170.988C240.033 169.774 239.048 168.789 237.834 168.789Z" fill="white"/>
<path d="M237.834 194.076H198.255C197.04 194.076 196.056 195.061 196.056 196.275V209.468C196.056 210.682 197.04 211.667 198.255 211.667H237.834C239.048 211.667 240.033 210.682 240.033 209.468V196.275C240.033 195.061 239.048 194.076 237.834 194.076Z" fill="white"/>
<path d="M187.263 143.502H147.684C146.47 143.502 145.485 144.486 145.485 145.701V158.894C145.485 160.108 146.47 161.093 147.684 161.093H187.263C188.477 161.093 189.462 160.108 189.462 158.894V145.701C189.462 144.486 188.477 143.502 187.263 143.502Z" fill="white"/>
<path d="M187.263 168.789H147.684C146.47 168.789 145.485 169.774 145.485 170.988V184.181C145.485 185.395 146.47 186.38 147.684 186.38H187.263C188.477 186.38 189.462 185.395 189.462 184.181V170.988C189.462 169.774 188.477 168.789 187.263 168.789Z" fill="white"/>
<path d="M187.263 194.076H147.684C146.47 194.076 145.485 195.061 145.485 196.275V209.468C145.485 210.682 146.47 211.667 147.684 211.667H187.263C188.477 211.667 189.462 210.682 189.462 209.468V196.275C189.462 195.061 188.477 194.076 187.263 194.076Z" fill="white"/>
<path d="M136.685 143.502H97.1058C95.8914 143.502 94.907 144.486 94.907 145.701V158.894C94.907 160.108 95.8914 161.093 97.1058 161.093H136.685C137.899 161.093 138.884 160.108 138.884 158.894V145.701C138.884 144.486 137.899 143.502 136.685 143.502Z" fill="#6DDEA2"/>
<path d="M136.685 168.789H97.1058C95.8914 168.789 94.907 169.774 94.907 170.988V184.181C94.907 185.395 95.8914 186.38 97.1058 186.38H136.685C137.899 186.38 138.884 185.395 138.884 184.181V170.988C138.884 169.774 137.899 168.789 136.685 168.789Z" fill="white"/>
<path d="M136.685 194.076H97.1058C95.8914 194.076 94.907 195.061 94.907 196.275V209.468C94.907 210.682 95.8914 211.667 97.1058 211.667H136.685C137.899 211.667 138.884 210.682 138.884 209.468V196.275C138.884 195.061 137.899 194.076 136.685 194.076Z" fill="white"/>
<path d="M116.901 135.807C119.33 135.807 121.298 133.838 121.298 131.409C121.298 128.981 119.33 127.012 116.901 127.012C114.472 127.012 112.503 128.981 112.503 131.409C112.503 133.838 114.472 135.807 116.901 135.807Z" fill="#6DDEA2"/>
<path d="M167.472 135.807C169.9 135.807 171.869 133.838 171.869 131.409C171.869 128.981 169.9 127.012 167.472 127.012C165.043 127.012 163.074 128.981 163.074 131.409C163.074 133.838 165.043 135.807 167.472 135.807Z" fill="#6DDEA2"/>
<rect x="-7.69812" y="34.6602" width="292.812" height="202.293" rx="5.4971" fill="url(#paint0_linear_1_26730)" fill-opacity="0.5"/>
</g>
<defs>
<linearGradient id="paint0_linear_1_26730" x1="285.114" y1="135.665" x2="-7.69812" y2="135.948" gradientUnits="userSpaceOnUse">
<stop offset="0.533654" stop-color="#6DDEA2"/>
<stop offset="1" stop-color="#6DDEA2" stop-opacity="0"/>
</linearGradient>
<clipPath id="clip0_1_26730">
<rect width="292.982" height="202.413" fill="white" transform="translate(0.00158691 40.5234)"/>
</clipPath>
</defs>
</svg>
