<svg width="321" height="224" viewBox="0 0 321 224" fill="none" xmlns="http://www.w3.org/2000/svg">
<path d="M130.246 15.8371C130.246 15.8371 157.04 46.5531 214.724 11.4575C265.954 -19.7106 287.902 50.7659 281.874 81.0879C274.065 120.367 224.318 142.781 239.967 172.886C255.615 202.991 184.196 232.548 158.084 188.747C125.601 134.261 106.52 169.108 82.5957 164.149C65.4253 160.59 39.0146 110.62 69.3986 83.8124C94.9664 61.2545 85.8783 50.1258 82.5061 39.7693C77.6425 24.8329 103.279 -7.65965 130.246 15.8371Z" fill="#D7F3E4"/>
<path d="M246.063 3.23844C244.453 3.43137 242.826 3.43137 241.216 3.23844C242.826 3.04552 244.453 3.04552 246.063 3.23844Z" fill="#FAFAFA"/>
<path d="M248.577 10.4326C248.033 11.0577 247.418 11.6178 246.746 12.102C246.134 12.6595 245.458 13.1415 244.731 13.5377C245.277 12.9143 245.891 12.3543 246.562 11.8683C247.176 11.313 247.852 10.8312 248.577 10.4326Z" fill="#FAFAFA"/>
<path d="M291.781 86.7756L296.906 80.4541L291.781 86.7756Z" fill="white"/>
<path d="M23.994 93.9022L17.5 88.6436L23.994 93.9022Z" fill="white"/>
<path d="M320.5 217.923C320.5 218.006 255.345 218.068 174.993 218.068C94.642 218.068 29.4688 218.034 29.4688 217.923C29.4688 217.812 94.607 217.778 174.993 217.778C255.38 217.778 320.5 217.845 320.5 217.923Z" fill="#263238"/>
<path d="M250.485 0.166016H46.0342V134.029H250.485V0.166016Z" fill="#FAFAFA"/>
<path d="M251.12 9.58218C251.12 9.66009 205.345 9.72686 148.891 9.72686C92.438 9.72686 46.6631 9.66009 46.6631 9.58218C46.6631 9.50428 92.4268 9.4375 148.891 9.4375C205.356 9.4375 251.12 9.50428 251.12 9.58218Z" fill="#263238"/>
<path d="M53.2799 5.21322C53.2799 5.44544 53.2111 5.67245 53.082 5.86554C52.953 6.05862 52.7697 6.20911 52.5551 6.29798C52.3406 6.38685 52.1045 6.4101 51.8767 6.3648C51.649 6.31949 51.4397 6.20767 51.2755 6.04346C51.1113 5.87925 50.9995 5.67004 50.9542 5.44228C50.9089 5.21452 50.9321 4.97844 51.021 4.76389C51.1099 4.54935 51.2604 4.36597 51.4535 4.23695C51.6466 4.10794 51.8736 4.03908 52.1058 4.03908C52.2602 4.03834 52.4132 4.0682 52.556 4.12695C52.6988 4.18569 52.8285 4.27215 52.9377 4.38133C53.0468 4.49051 53.1333 4.62024 53.192 4.76302C53.2508 4.90581 53.2807 5.05882 53.2799 5.21322Z" fill="#263238"/>
<path d="M57.5084 5.21322C57.5084 5.44544 57.4396 5.67245 57.3106 5.86554C57.1815 6.05862 56.9982 6.20911 56.7836 6.29798C56.5691 6.38685 56.333 6.4101 56.1052 6.3648C55.8775 6.31949 55.6683 6.20767 55.5041 6.04346C55.3399 5.87925 55.228 5.67004 55.1827 5.44228C55.1374 5.21452 55.1607 4.97844 55.2495 4.76389C55.3384 4.54935 55.4889 4.36597 55.682 4.23695C55.8751 4.10794 56.1021 4.03908 56.3343 4.03908C56.4887 4.03834 56.6417 4.0682 56.7845 4.12695C56.9273 4.18569 57.057 4.27215 57.1662 4.38133C57.2754 4.49051 57.3618 4.62024 57.4206 4.76302C57.4793 4.90581 57.5092 5.05882 57.5084 5.21322Z" fill="#263238"/>
<path d="M61.7467 5.21322C61.7467 5.44568 61.6777 5.67291 61.5484 5.86611C61.4192 6.05932 61.2355 6.2098 61.0206 6.2985C60.8057 6.38721 60.5694 6.41013 60.3415 6.36438C60.1136 6.31862 59.9044 6.20624 59.7404 6.04147C59.5764 5.87671 59.465 5.66698 59.4203 5.43885C59.3757 5.21072 59.3997 4.97447 59.4894 4.76002C59.5791 4.54558 59.7305 4.36259 59.9243 4.23424C60.1181 4.1059 60.3457 4.03797 60.5781 4.03908C60.7321 4.03907 60.8845 4.06948 61.0266 4.12856C61.1688 4.18763 61.2978 4.27421 61.4064 4.38331C61.515 4.49241 61.601 4.62189 61.6594 4.76431C61.7178 4.90673 61.7475 5.05929 61.7467 5.21322Z" fill="#263238"/>
<path d="M184.064 16.6768H114.289V20.5275H184.064V16.6768Z" fill="#EBEBEB"/>
<path d="M239.667 124.448C239.667 123.575 239.628 87.0984 239.561 27.3228L239.667 27.4285L56.3558 27.4675L56.5061 27.3228C56.5061 61.6178 56.5061 94.4715 56.5061 124.448L56.3669 124.309L239.695 124.448L56.3669 124.582H56.2334V124.448C56.2334 94.4715 56.2334 61.6178 56.2334 27.3228V27.167H56.3948L239.706 27.2004H239.817V27.3117C239.711 87.0984 239.672 123.575 239.667 124.448Z" fill="#263238"/>
<path d="M78.9112 124.247C78.8278 124.247 78.8278 102.506 78.9112 75.6897C78.9947 48.8736 79.1171 27.127 79.195 27.127C79.2729 27.127 79.2785 48.8681 79.195 75.6897C79.1116 102.511 78.9891 124.247 78.9112 124.247Z" fill="#263238"/>
<path d="M106.105 124.325C106.027 124.325 106.027 102.584 106.105 75.7678C106.183 48.9518 106.311 27.2051 106.389 27.2051C106.467 27.2051 106.473 48.9462 106.389 75.7678C106.306 102.59 106.189 124.325 106.105 124.325Z" fill="#263238"/>
<path d="M133.306 124.409C133.222 124.409 133.222 102.662 133.306 75.846C133.389 49.0299 133.512 27.2832 133.59 27.2832C133.667 27.2832 133.673 49.0243 133.59 75.846C133.506 102.668 133.384 124.409 133.306 124.409Z" fill="#263238"/>
<path d="M160.499 124.487C160.421 124.487 160.421 102.74 160.499 75.9241C160.577 49.108 160.705 27.3613 160.783 27.3613C160.861 27.3613 160.866 49.1025 160.783 75.9297C160.699 102.757 160.582 124.487 160.499 124.487Z" fill="#263238"/>
<path d="M187.722 124.548C187.638 124.548 187.638 102.807 187.722 75.9905C187.805 49.1744 187.928 27.4277 188.006 27.4277C188.083 27.4277 188.089 49.1633 188.006 75.9905C187.922 102.818 187.777 124.548 187.722 124.548Z" fill="#263238"/>
<path d="M214.893 124.642C214.815 124.642 214.815 102.901 214.893 76.0852C214.971 49.2691 215.099 27.5225 215.177 27.5225C215.255 27.5225 215.261 49.258 215.177 76.0852C215.094 102.912 214.988 124.642 214.893 124.642Z" fill="#263238"/>
<path d="M239.666 50.8048C239.666 50.8827 198.677 50.9495 148.117 50.9495C97.5561 50.9495 56.5557 50.8827 56.5557 50.8048C56.5557 50.7269 97.5449 50.6602 148.117 50.6602C198.688 50.6602 239.666 50.7214 239.666 50.8048Z" fill="#263238"/>
<path d="M239.666 75.6896C239.666 75.7675 198.677 75.8343 148.117 75.8343C97.5561 75.8343 56.5557 75.7675 56.5557 75.6896C56.5557 75.6117 97.5449 75.5449 148.117 75.5449C198.688 75.5449 239.666 75.6061 239.666 75.6896Z" fill="#263238"/>
<path d="M239.666 100.569C239.666 100.653 198.677 100.714 148.117 100.714C97.5561 100.714 56.5557 100.653 56.5557 100.569C56.5557 100.486 97.5449 100.425 148.117 100.425C198.688 100.425 239.666 100.492 239.666 100.569Z" fill="#263238"/>
<path d="M58.1828 102.784C58.1828 102.784 56.0126 116.874 58.2719 125.655L79.974 124.865C79.974 124.865 75.5223 110.847 78.3436 103.841L58.1828 102.784Z" fill="#EBEBEB"/>
<path d="M58.2705 102.289C58.2705 102.289 58.4152 119.601 59.2944 124.882L80.9966 123.852C80.9966 123.852 79.0879 106.835 79.8224 102.289H58.2705Z" fill="#6DDEA2"/>
<path d="M76.5605 109.523C76.5605 109.607 73.3051 109.868 69.2819 110.108C65.2587 110.347 61.9978 110.48 61.9922 110.403C61.9866 110.325 65.242 110.063 69.2652 109.818C73.2885 109.573 76.5549 109.462 76.5605 109.523Z" fill="white"/>
<path d="M76.5673 113.207C76.5673 113.291 73.312 113.552 69.2887 113.792C65.2655 114.031 62.0046 114.164 61.999 114.087C61.9935 114.009 65.2488 113.747 69.272 113.502C73.2953 113.257 76.5617 113.129 76.5673 113.207Z" fill="white"/>
<path d="M72.8786 116.807C72.4827 116.914 72.0755 116.974 71.6656 116.986C70.9199 117.058 69.8793 117.136 68.733 117.203C67.5867 117.269 66.5516 117.319 65.8004 117.336C65.3927 117.377 64.9816 117.368 64.5762 117.308C64.9703 117.202 65.3756 117.142 65.7837 117.13C66.5349 117.063 67.57 116.986 68.7163 116.913C69.8626 116.841 70.9032 116.796 71.6544 116.78C72.0623 116.743 72.4729 116.752 72.8786 116.807Z" fill="white"/>
<path d="M107.858 29.7588C107.858 29.7588 106.077 44.4217 108.337 53.2027L129.666 52.0898C129.666 52.0898 125.214 37.7942 127.997 30.7883L107.858 29.7588Z" fill="#EBEBEB"/>
<path d="M107.946 29.2422C107.946 29.2422 108.091 46.5538 108.97 51.8347L130.672 50.8052C130.672 50.8052 128.764 33.7885 129.498 29.2422H107.946Z" fill="#6DDEA2"/>
<path d="M126.237 36.5151C126.237 36.593 122.982 36.8545 118.964 37.0715C114.947 37.2886 111.675 37.4444 111.669 37.3609C111.663 37.2774 114.919 37.0215 118.942 36.8044C122.965 36.5874 126.232 36.4316 126.237 36.5151Z" fill="white"/>
<path d="M126.243 40.1815C126.243 40.2594 122.993 40.5209 118.97 40.738C114.947 40.955 111.68 41.1164 111.675 41.0329C111.669 40.9494 114.925 40.6934 118.953 40.4486C122.982 40.2038 126.238 40.098 126.243 40.1815Z" fill="white"/>
<path d="M122.552 43.7818C122.158 43.8844 121.753 43.9423 121.345 43.9543C120.594 44.0267 119.559 44.1046 118.412 44.1714C117.266 44.2381 116.225 44.2882 115.474 44.3105C115.066 44.3507 114.655 44.3395 114.25 44.2771C114.647 44.1743 115.054 44.1164 115.463 44.1046C116.209 44.0323 117.249 43.9543 118.396 43.8876C119.542 43.8208 120.577 43.7707 121.328 43.7485C121.736 43.7079 122.147 43.7191 122.552 43.7818Z" fill="white"/>
<path d="M136.437 101.815C136.437 101.815 134.684 117.847 136.937 126.628L158.361 125.688C158.361 125.688 153.77 109.873 156.592 102.873L136.437 101.815Z" fill="#EBEBEB"/>
<path d="M136.526 101.298C136.526 101.298 136.671 118.61 137.55 123.89L159.252 122.861C159.252 122.861 157.344 105.844 158.078 101.298H136.526Z" fill="#6DDEA2"/>
<path d="M154.816 108.572C154.816 108.65 151.561 108.912 147.543 109.129C143.526 109.346 140.254 109.507 140.248 109.424C140.242 109.34 143.498 109.084 147.521 108.839C151.544 108.594 154.811 108.489 154.816 108.572Z" fill="white"/>
<path d="M154.823 112.239C154.823 112.317 151.568 112.579 147.55 112.796C143.532 113.013 140.26 113.168 140.255 113.091C140.249 113.013 143.505 112.751 147.528 112.506C151.551 112.261 154.818 112.156 154.823 112.239Z" fill="white"/>
<path d="M151.135 115.839C150.738 115.942 150.331 116 149.921 116.012C149.176 116.084 148.141 116.162 146.994 116.229C145.848 116.296 144.807 116.346 144.056 116.368C143.648 116.405 143.237 116.394 142.832 116.335C143.227 116.232 143.632 116.174 144.04 116.162C144.791 116.09 145.826 116.012 146.972 115.94C148.118 115.867 149.159 115.828 149.91 115.806C150.318 115.766 150.729 115.777 151.135 115.839Z" fill="white"/>
<path d="M218.261 53.0312C218.261 53.0312 216.035 66.7982 218.289 75.5737L240.041 75.1063C240.041 75.1063 235.59 61.0889 238.411 54.083L218.261 53.0312Z" fill="#EBEBEB"/>
<path d="M218.327 52.5186C218.327 52.5186 218.472 69.8246 219.351 75.1055L241.053 74.0816C241.053 74.0816 239.145 57.0649 239.879 52.5186H218.327Z" fill="#6DDEA2"/>
<path d="M236.634 59.7865C236.634 59.87 233.384 60.126 229.361 60.343C225.337 60.56 222.071 60.7158 222.065 60.6379C222.06 60.56 225.315 60.2929 229.344 60.0815C233.373 59.87 236.628 59.7086 236.634 59.7865Z" fill="white"/>
<path d="M236.64 63.4535C236.64 63.5314 233.39 63.793 229.367 64.01C225.343 64.227 222.077 64.3828 222.071 64.3049C222.066 64.227 225.327 63.9599 229.35 63.7485C233.373 63.537 236.634 63.3756 236.64 63.4535Z" fill="white"/>
<path d="M232.951 67.0538C232.557 67.161 232.152 67.2207 231.743 67.2319C230.992 67.2987 229.957 67.3766 228.811 67.4489C227.665 67.5212 226.624 67.5658 225.873 67.5825C225.466 67.6282 225.055 67.6282 224.648 67.5825C225.044 67.4758 225.452 67.416 225.862 67.4044C226.607 67.332 227.648 67.2541 228.794 67.1874C229.94 67.1206 230.975 67.0705 231.732 67.0538C232.137 67.0042 232.546 67.0042 232.951 67.0538Z" fill="white"/>
<path d="M163.148 78.2549C163.148 78.2549 160.922 92.0219 163.176 100.803L184.928 100.335C184.928 100.335 180.476 86.3181 183.298 79.3066L163.148 78.2549Z" fill="#EBEBEB"/>
<path d="M163.236 77.7441C163.236 77.7441 163.381 95.0558 164.26 100.337L185.962 99.3072C185.962 99.3072 184.054 82.2905 184.788 77.7441H163.236Z" fill="#6DDEA2"/>
<path d="M181.523 85.0395C181.523 85.123 178.274 85.3845 174.25 85.6238C170.227 85.8631 166.961 85.9966 166.955 85.9187C166.95 85.8408 170.205 85.5793 174.234 85.3344C178.262 85.0896 181.518 84.9338 181.523 85.0395Z" fill="white"/>
<path d="M181.527 88.678C181.527 88.7615 178.277 89.023 174.254 89.2623C170.231 89.5016 166.965 89.6351 166.959 89.5572C166.953 89.4793 170.214 89.2178 174.238 88.973C178.261 88.7281 181.522 88.6001 181.527 88.678Z" fill="white"/>
<path d="M177.839 92.2737C177.444 92.3801 177.039 92.4399 176.631 92.4517C175.88 92.5241 174.845 92.602 173.698 92.6688C172.552 92.7355 171.512 92.7856 170.76 92.8023C170.353 92.8423 169.942 92.833 169.536 92.7745C169.932 92.6678 170.339 92.608 170.749 92.5964C171.495 92.5296 172.535 92.4462 173.682 92.3794C174.828 92.3126 175.863 92.2625 176.614 92.2458C177.022 92.2088 177.433 92.2181 177.839 92.2737Z" fill="white"/>
<path d="M213.318 58.1892L201.794 64.1212L196.218 63.331L199.2 58.0446L211.359 53.7598L213.318 58.1892Z" fill="#EBEBEB"/>
<path d="M195.74 62.2397L198.567 57.6934L211.054 53.1582L213.564 58.0941L201.455 62.9297L195.74 62.2397Z" fill="#455A64"/>
<path d="M209.652 56.1019C209.266 56.3255 208.86 56.5118 208.439 56.6584C207.682 56.97 206.63 57.3818 205.462 57.8269L202.462 58.9399C201.7 59.2181 201.194 59.385 201.227 59.3683C201.132 59.2515 203.03 58.4391 205.356 57.5487C207.682 56.6584 209.619 56.0017 209.652 56.1019Z" fill="white"/>
<path d="M207.698 58.3291C205.976 59.3341 204.094 60.0344 202.134 60.3992C203.039 59.988 203.968 59.6312 204.916 59.3307C205.823 58.9429 206.752 58.6085 207.698 58.3291Z" fill="white"/>
<path d="M58.2536 52.2402C58.2536 52.2402 56.2504 71.6275 58.9158 75.6897L79.0488 74.4655L77.9803 52.9303L58.2536 52.2402Z" fill="#E0E0E0"/>
<path d="M58.2539 52.2402C58.2539 52.2402 58.393 69.1067 59.2555 74.2485L80.4013 73.2468C80.4013 73.2468 78.5427 56.6697 79.2605 52.2402H58.2539Z" fill="#455A64"/>
<path d="M68.6706 54.6276H68.7485H68.9766C69.2704 54.6159 69.5647 54.6308 69.8558 54.6722C70.3216 54.7372 70.7754 54.8703 71.2025 55.0672C71.7656 55.3469 72.2641 55.7411 72.666 56.2247C73.1511 56.8197 73.4971 57.5155 73.6788 58.2614C73.8411 59.1373 73.7642 60.0408 73.4562 60.8767C73.2981 61.33 73.0988 61.7677 72.8607 62.1844C72.6102 62.6111 72.3835 63.0514 72.1819 63.5033C71.7627 64.4596 71.4762 65.4687 71.3305 66.5026V66.575H71.2637L69.1769 66.6083L66.9845 66.6417H66.9066V66.5638C66.8145 65.5319 66.4664 64.5392 65.8938 63.6758C65.6378 63.2417 65.3373 62.8355 65.1036 62.4237C64.8301 62.0352 64.5811 61.6301 64.358 61.2106C63.9687 60.4111 63.8533 59.5058 64.0296 58.6342C64.1524 57.8845 64.429 57.1683 64.8421 56.5308C65.1994 56.0155 65.6719 55.5906 66.2221 55.2898C66.6294 55.0644 67.0656 54.8959 67.5187 54.789C67.8022 54.7192 68.0905 54.6709 68.3812 54.6443H68.6873H68.6093H68.3868C68.099 54.6771 67.8142 54.7329 67.5354 54.8113C67.0894 54.926 66.6608 55.1001 66.2611 55.3288C65.7306 55.6307 65.2758 56.0493 64.9311 56.553C64.5315 57.1819 64.2662 57.8867 64.1521 58.6231C63.9888 59.4682 64.106 60.3436 64.4859 61.116C64.7083 61.5294 64.9554 61.9289 65.226 62.3124C65.482 62.7187 65.7825 63.1249 66.0218 63.5645C66.6146 64.4493 66.9744 65.4695 67.0679 66.5304L66.99 66.4525L69.1769 66.4136L71.2637 66.3858L71.1914 66.4525C71.3352 65.4019 71.6275 64.3771 72.0594 63.4087C72.2659 62.9535 72.4962 62.5096 72.7495 62.0787C72.9845 61.6709 73.1819 61.2425 73.3393 60.7988C73.6445 59.9876 73.7252 59.1091 73.573 58.2558C73.3997 57.5262 73.0671 56.8441 72.5992 56.2581C72.2104 55.7821 71.7273 55.3918 71.1802 55.1118C70.7627 54.9105 70.3186 54.77 69.8614 54.6944C69.5745 54.6465 69.2842 54.6223 68.9933 54.6221H68.6873L68.6706 54.6276Z" fill="white"/>
<path d="M69.7506 66.375V66.3082V66.1135L69.6337 65.3567C69.5391 64.7 69.4 63.7485 69.3054 62.5743C69.3054 62.2738 69.2609 61.9678 69.2498 61.645C69.2387 61.3223 69.222 60.9828 69.2498 60.6323C69.2568 60.2678 69.3363 59.9084 69.4835 59.575C69.6448 59.2164 69.9318 58.9294 70.2904 58.7681C70.4829 58.6895 70.694 58.6682 70.8983 58.7067C71.1027 58.7452 71.2915 58.8419 71.4423 58.9851C71.5949 59.131 71.6847 59.3306 71.6927 59.5416C71.6859 59.7616 71.61 59.9738 71.4756 60.1481C71.3394 60.3234 71.1641 60.4644 70.9637 60.5599C70.7644 60.6567 70.5528 60.726 70.3349 60.7658C69.8976 60.8601 69.4522 60.9123 69.0049 60.9216C68.5551 60.9405 68.1045 60.92 67.6583 60.8604C67.4395 60.8255 67.2262 60.7618 67.0239 60.6712C66.8147 60.5842 66.6253 60.4554 66.4675 60.2928C66.3158 60.1393 66.2098 59.9467 66.1614 59.7364C66.1148 59.5245 66.1403 59.3033 66.2337 59.1076C66.3254 58.9156 66.4836 58.7633 66.6789 58.6791C66.7733 58.6364 66.8758 58.6143 66.9794 58.6143C67.083 58.6143 67.1855 58.6364 67.2799 58.6791C67.4604 58.7641 67.6157 58.8944 67.7306 59.0575C67.8398 59.227 67.9153 59.4159 67.9532 59.6139C68.0203 59.9699 68.0557 60.3312 68.0589 60.6935C68.0979 61.3891 68.1313 62.0401 68.1647 62.63C68.2203 63.8153 68.2704 64.7724 68.3038 65.4123C68.3038 65.7406 68.3038 65.9966 68.3372 66.1747V66.375V66.4418C68.336 66.4195 68.336 66.3972 68.3372 66.375V66.1747C68.3372 65.9966 68.3094 65.7406 68.2871 65.4123C68.2481 64.7501 68.1925 63.793 68.1257 62.63C68.0923 62.0346 68.0589 61.3891 68.02 60.6935C68.0102 60.335 67.973 59.9778 67.9087 59.6251C67.8678 59.4445 67.7943 59.2728 67.6917 59.1187C67.5868 58.9614 67.4404 58.8362 67.2688 58.757C67.1829 58.7142 67.0892 58.6897 66.9934 58.6849C66.8977 58.6801 66.802 58.6952 66.7123 58.7292C66.5317 58.8075 66.3869 58.9503 66.3061 59.1298C66.216 59.3106 66.1904 59.5168 66.2337 59.7141C66.2764 59.9241 66.3788 60.1173 66.5287 60.2706C66.8252 60.5777 67.218 60.7741 67.6416 60.827C68.0822 60.8866 68.5273 60.9071 68.9716 60.8882C69.4166 60.878 69.8599 60.8277 70.2959 60.738C70.5072 60.693 70.7125 60.6239 70.9081 60.5321C71.0996 60.4425 71.2674 60.3091 71.3977 60.1426C71.5203 59.9822 71.5902 59.7878 71.5981 59.5861C71.6022 59.4824 71.5839 59.3791 71.5446 59.2831C71.5052 59.187 71.4456 59.1006 71.3699 59.0296C71.2288 58.8934 71.0509 58.8013 70.8581 58.7647C70.6653 58.7281 70.4661 58.7487 70.2848 58.8238C69.9411 58.9784 69.6659 59.2535 69.5113 59.5972C69.3658 59.9237 69.2846 60.2751 69.272 60.6323C69.272 60.9828 69.272 61.3167 69.272 61.6395C69.272 61.9622 69.272 62.2738 69.3221 62.5688C69.4112 63.7485 69.5447 64.7 69.6282 65.3511C69.6727 65.6794 69.7117 65.9076 69.7339 66.1079L69.7617 66.3082C69.7593 66.3307 69.7556 66.353 69.7506 66.375Z" fill="white"/>
<path d="M66.9678 66.4854C66.9678 66.4854 66.9956 66.747 67.0234 67.1866C67.0512 67.6262 67.0846 68.2995 67.118 69.0173V68.9728L68.5426 70.6422L68.4702 70.6144L70.1396 70.5198L70.0673 70.5532L70.8853 69.5515L71.2971 69.0563V69.1175C71.2971 68.1548 71.2581 67.2422 71.2359 66.4075L71.3249 66.491L68.2532 66.5244H67.3629C67.2517 66.532 67.1401 66.532 67.029 66.5244C67.1271 66.515 67.2258 66.515 67.3239 66.5244L68.192 66.4798L71.3193 66.3574H71.4084V66.4465C71.4084 67.2812 71.4584 68.1938 71.4863 69.1565V69.1954H71.4585C71.3249 69.3568 71.1858 69.5237 71.0522 69.6962C70.7684 70.0357 70.4958 70.3695 70.2287 70.6923L70.2008 70.7257H70.1563L68.4869 70.8036H68.4424V70.7702L67.0457 69.1008V69.073C67.0457 68.344 67.0457 67.7208 67.0457 67.1977C66.9678 66.708 66.9678 66.4743 66.9678 66.4854Z" fill="white"/>
<path d="M71.219 68.8678C71.165 68.8508 71.1128 68.8284 71.0632 68.801C70.9631 68.7565 70.8184 68.6953 70.6347 68.6341C70.157 68.4704 69.6538 68.3931 69.149 68.406C68.6441 68.422 68.1464 68.5295 67.6799 68.7231C67.5371 68.7799 67.3978 68.8449 67.2626 68.9179L67.1123 68.9902C67.1546 68.9531 67.2013 68.9213 67.2514 68.8956C67.3813 68.8133 67.5171 68.7408 67.6576 68.6786C68.128 68.4697 68.6345 68.3544 69.149 68.3392C69.6612 68.3262 70.1711 68.4112 70.6514 68.5896C70.7966 68.6428 70.9379 68.706 71.0743 68.7788C71.1262 68.8021 71.1749 68.832 71.219 68.8678Z" fill="white"/>
<path d="M71.219 68.2122L71.0632 68.1455C70.9631 68.1009 70.8184 68.0397 70.6347 67.973C70.1566 67.8114 69.6535 67.736 69.149 67.7504C68.6441 67.7664 68.1464 67.8739 67.6799 68.0676C67.5361 68.122 67.3966 68.1871 67.2626 68.2623C67.2152 68.2918 67.1648 68.316 67.1123 68.3347C67.1123 68.3347 67.1568 68.2957 67.2514 68.2401C67.38 68.1556 67.516 68.083 67.6576 68.023C68.6051 67.601 69.6806 67.569 70.6514 67.934C70.7972 67.9859 70.9386 68.0491 71.0743 68.1232C71.1262 68.1465 71.1749 68.1764 71.219 68.2122Z" fill="white"/>
<path d="M71.18 67.5824C71.1259 67.5653 71.0737 67.543 71.0241 67.5156C70.924 67.4711 70.7793 67.4099 70.5957 67.3486C70.1179 67.1849 69.6148 67.1077 69.1099 67.1205C68.6051 67.1366 68.1073 67.244 67.6408 67.4377C67.4981 67.4944 67.3587 67.5595 67.2235 67.6324L67.0732 67.7103C67.0732 67.7103 67.1178 67.6658 67.2124 67.6102C67.3435 67.53 67.4791 67.4576 67.6186 67.3932C68.566 66.9711 69.6415 66.9391 70.6124 67.3041C70.7571 67.3584 70.8984 67.4216 71.0353 67.4933C71.0872 67.5166 71.1358 67.5465 71.18 67.5824Z" fill="white"/>
<path d="M111.441 98.5283C111.469 98.5283 111.441 98.7899 111.168 99.0848C110.828 99.45 110.412 99.7368 109.949 99.9251C109.325 100.244 108.621 100.373 107.924 100.298C107.924 100.209 108.82 100.098 109.833 99.658C110.264 99.4855 110.665 99.2429 111.018 98.9401C111.285 98.7064 111.396 98.5116 111.441 98.5283Z" fill="#6DDEA2"/>
<path d="M251.119 134.008C251.119 133.068 251.075 81.8227 251.002 0.144682L251.119 0.26154H46.6849L46.8296 0.116857C46.8296 47.7169 46.8296 93.0133 46.8296 133.98L46.6961 133.847L251.147 133.98L46.6961 134.114H46.5625V134.008C46.5625 93.0411 46.5625 47.7559 46.5625 0.144682V0H46.7239H251.158H251.27V0.116857C251.158 81.8283 251.119 133.073 251.119 134.008Z" fill="#263238"/>
<path d="M233.374 113.93L229.356 107.074L225.544 113.93H171.45V142.209H255.682V113.93H233.374Z" fill="#6DDEA2"/>
<path d="M186.609 128.315C187.355 127.994 187.989 127.461 188.435 126.782C188.88 126.104 189.116 125.309 189.113 124.497C189.126 123.464 188.729 122.468 188.008 121.728C187.286 120.988 186.301 120.565 185.268 120.552C184.235 120.539 183.239 120.936 182.499 121.658C181.759 122.379 181.336 123.364 181.322 124.397C181.3 125.215 181.52 126.021 181.954 126.715C182.389 127.408 183.019 127.957 183.765 128.293C177.772 129.144 177.989 135.677 177.989 135.677L192.146 135.86C192.146 135.86 192.524 129.266 186.609 128.315Z" fill="#FAFAFA"/>
<path d="M246.072 122.321C246.072 122.405 235.321 122.466 222.06 122.466C208.8 122.466 198.049 122.405 198.049 122.321C198.049 122.238 208.8 122.177 222.06 122.177C235.321 122.177 246.072 122.232 246.072 122.321Z" fill="#FAFAFA"/>
<path d="M246.072 126.623C246.072 126.701 235.321 126.768 222.06 126.768C208.8 126.768 198.049 126.701 198.049 126.623C198.049 126.545 208.8 126.479 222.06 126.479C235.321 126.479 246.072 126.545 246.072 126.623Z" fill="#FAFAFA"/>
<path d="M246.072 130.936C246.072 131.014 235.321 131.08 222.06 131.08C208.8 131.08 198.049 131.014 198.049 130.936C198.049 130.858 208.8 130.791 222.06 130.791C235.321 130.791 246.072 130.858 246.072 130.936Z" fill="#FAFAFA"/>
<path d="M222.06 135.204C222.06 135.282 216.685 135.349 210.057 135.349C203.43 135.349 198.049 135.282 198.049 135.204C198.049 135.126 203.424 135.06 210.057 135.06C216.69 135.06 222.06 135.121 222.06 135.204Z" fill="#FAFAFA"/>
<path d="M240.513 60.7093C240.007 60.1139 239.617 59.0399 239.924 58.3332C239.323 58.016 239.272 57.4874 239.272 56.814C239.305 56.1355 239.506 55.4757 239.857 54.8942C240.33 53.9074 241.083 53.0813 242.021 52.5181C242.496 52.2472 243.037 52.116 243.582 52.1397C244.128 52.1633 244.655 52.3408 245.104 52.6517C245.427 52.2693 245.823 51.9556 246.269 51.7291C246.716 51.5026 247.203 51.368 247.702 51.3333C248.201 51.2985 248.702 51.3643 249.176 51.5267C249.649 51.6891 250.085 51.9449 250.457 52.2788C250.697 52.5597 250.972 52.8085 251.275 53.0189C251.832 53.3139 252.466 53.2026 253.073 53.2582C253.568 53.304 254.046 53.4663 254.467 53.7318C254.888 53.9974 255.24 54.3587 255.494 54.7863C255.748 55.2139 255.898 55.6956 255.931 56.1921C255.964 56.6886 255.879 57.1858 255.683 57.6432C256.108 57.9395 256.46 58.3292 256.712 58.7825C256.964 59.2358 257.108 59.7407 257.135 60.2586C257.177 61.2925 257.058 62.3268 256.784 63.3247C256.506 64.5656 256.195 65.8733 255.315 66.7915C254.707 67.4315 253.886 67.8273 253.006 67.9044C252.382 67.9472 251.758 67.8302 251.192 67.5644C250.627 67.2985 250.138 66.8927 249.773 66.3852" fill="#263238"/>
<path d="M253.651 81.8887L243.679 81.4324C243.624 80.3752 244.163 73.8255 244.163 73.8255C244.163 73.8255 240.39 73.2691 240.346 69.4684C240.301 65.6678 240.952 57.0425 240.952 57.0425C243.097 56.123 245.448 55.793 247.763 56.0865C250.077 56.38 252.271 57.2864 254.118 58.7119L254.675 59.1404L253.651 81.8887Z" fill="#B78876"/>
<path d="M244.157 73.7698C245.897 73.8031 247.608 73.3168 249.07 72.373C249.07 72.373 247.907 75.0886 244.146 74.7492L244.157 73.7698Z" fill="#AA6550"/>
<path d="M254.208 63.0344C254.275 63.0066 256.801 62.2665 256.718 64.8429C256.634 67.4193 254.063 66.8072 254.063 66.7293C254.063 66.6514 254.208 63.0344 254.208 63.0344Z" fill="#B78876"/>
<path d="M254.881 65.7837C254.881 65.7837 254.926 65.8116 254.998 65.8505C255.052 65.8736 255.109 65.8856 255.168 65.8856C255.226 65.8856 255.284 65.8736 255.337 65.8505C255.509 65.7515 255.651 65.6086 255.749 65.4364C255.846 65.2643 255.897 65.0691 255.894 64.8711C255.91 64.6498 255.878 64.4276 255.799 64.2201C255.778 64.1384 255.737 64.0633 255.679 64.0012C255.622 63.9391 255.551 63.892 255.471 63.8639C255.42 63.8492 255.365 63.8528 255.316 63.8741C255.267 63.8955 255.228 63.9332 255.204 63.9808C255.165 64.0476 255.204 64.1032 255.165 64.1032C255.126 64.1032 255.115 64.0587 255.137 63.953C255.153 63.8901 255.19 63.8349 255.243 63.7972C255.315 63.7452 255.405 63.7232 255.493 63.736C255.599 63.7608 255.696 63.8122 255.776 63.8853C255.855 63.9583 255.915 64.0506 255.949 64.1533C256.052 64.38 256.098 64.6283 256.083 64.8767C256.093 65.11 256.033 65.341 255.91 65.5395C255.786 65.738 255.606 65.8949 255.393 65.9896C255.324 66.0087 255.251 66.0116 255.181 65.9981C255.11 65.9846 255.044 65.955 254.987 65.9117C254.887 65.8449 254.875 65.7837 254.881 65.7837Z" fill="#AA6550"/>
<path d="M241.78 62.9512C241.78 63.0922 241.833 63.2282 241.929 63.3315C242.025 63.4348 242.157 63.4978 242.298 63.5076C242.367 63.5122 242.435 63.5031 242.501 63.4809C242.566 63.4587 242.626 63.4239 242.678 63.3784C242.729 63.3329 242.772 63.2776 242.802 63.2158C242.832 63.1539 242.85 63.0867 242.854 63.0179C242.855 62.8769 242.801 62.7409 242.705 62.6376C242.609 62.5343 242.477 62.4714 242.337 62.4615C242.268 62.4562 242.199 62.4648 242.133 62.4866C242.068 62.5085 242.007 62.5433 241.955 62.589C241.903 62.6346 241.861 62.6902 241.831 62.7524C241.801 62.8146 241.784 62.8822 241.78 62.9512Z" fill="#263238"/>
<path d="M241.665 62.3449C241.732 62.4173 242.138 62.1168 242.717 62.1168C243.295 62.1168 243.724 62.4062 243.785 62.3338C243.846 62.2615 243.746 62.178 243.563 62.0444C243.313 61.8703 243.016 61.777 242.711 61.7773C242.41 61.7791 242.116 61.8744 241.871 62.05C241.693 62.1891 241.632 62.3116 241.665 62.3449Z" fill="#263238"/>
<path d="M247.453 63.1072C247.453 63.2483 247.506 63.3842 247.602 63.4875C247.698 63.5908 247.83 63.6538 247.971 63.6637C248.039 63.669 248.108 63.6606 248.173 63.6391C248.238 63.6175 248.298 63.5832 248.35 63.5381C248.402 63.4931 248.444 63.4382 248.475 63.3766C248.505 63.3151 248.523 63.2481 248.527 63.1796C248.527 63.0376 248.473 62.9009 248.376 62.7974C248.279 62.694 248.146 62.6316 248.004 62.6231C247.936 62.617 247.867 62.6249 247.802 62.6462C247.737 62.6675 247.676 62.7018 247.625 62.7471C247.573 62.7924 247.532 62.8476 247.502 62.9095C247.473 62.9714 247.456 63.0387 247.453 63.1072Z" fill="#263238"/>
<path d="M247.358 62.4563C247.425 62.5231 247.837 62.2226 248.416 62.2226C248.994 62.2226 249.417 62.5175 249.478 62.4452C249.54 62.3729 249.445 62.2838 249.256 62.1503C249.006 61.9774 248.708 61.8861 248.404 61.8887C248.102 61.8863 247.807 61.982 247.564 62.1614C247.386 62.295 247.325 62.4229 247.358 62.4563Z" fill="#263238"/>
<path d="M245.254 66.7516C244.949 66.6552 244.633 66.5973 244.314 66.5791C244.169 66.5791 244.03 66.5346 244.002 66.4344C243.991 66.2812 244.026 66.128 244.103 65.9948C244.242 65.6387 244.386 65.2603 244.542 64.8819C244.95 63.9276 245.277 62.9411 245.522 61.9326C245.041 62.8526 244.634 63.809 244.303 64.7929L243.886 65.9058C243.799 66.0775 243.771 66.2733 243.808 66.4622C243.829 66.5151 243.862 66.5623 243.904 66.6C243.947 66.6377 243.998 66.6649 244.053 66.6793C244.134 66.7026 244.218 66.7139 244.303 66.7127C244.617 66.766 244.937 66.7791 245.254 66.7516Z" fill="#263238"/>
<path d="M246.963 67.1525C246.868 67.1525 246.868 67.7757 246.328 68.2209C245.789 68.6661 245.121 68.5993 245.115 68.6828C245.11 68.7662 245.266 68.8052 245.549 68.8163C245.918 68.8176 246.276 68.6918 246.562 68.4602C246.836 68.237 247.012 67.9154 247.052 67.5643C247.074 67.3027 247.007 67.1469 246.963 67.1525Z" fill="#263238"/>
<path d="M247.207 60.1854C247.268 60.3412 247.847 60.2633 248.525 60.3468C249.204 60.4303 249.755 60.6139 249.844 60.4748C249.933 60.3357 249.789 60.2578 249.566 60.1075C249.266 59.9118 248.922 59.795 248.564 59.7681C248.216 59.7273 247.864 59.7692 247.535 59.8905C247.312 59.9851 247.184 60.1075 247.207 60.1854Z" fill="#263238"/>
<path d="M241.889 60.6692C241.995 60.7972 242.39 60.6692 242.874 60.6692C243.358 60.6692 243.759 60.7582 243.853 60.6191C243.948 60.48 243.853 60.4188 243.653 60.2964C243.414 60.1432 243.135 60.0674 242.851 60.0794C242.57 60.0833 242.297 60.1769 242.072 60.3465C241.889 60.4689 241.833 60.6024 241.889 60.6692Z" fill="#263238"/>
<path d="M254.877 58.9555C254.827 60.0684 255.072 61.2759 254.877 62.3555C254.843 62.5168 254.42 62.9565 254.387 63.1178C254.164 64.0694 253.769 64.4812 253.202 63.4962C252.983 62.8957 252.834 62.2721 252.757 61.6376L252.072 58.1542C251.188 58.6135 250.203 58.8468 249.206 58.833C248.709 58.8199 248.223 58.6801 247.795 58.427C247.366 58.1738 247.009 57.8156 246.758 57.3862C246.521 57.7772 246.2 58.11 245.817 58.3601C245.435 58.6101 245.001 58.771 244.548 58.8309C244.095 58.8907 243.634 58.8479 243.2 58.7058C242.766 58.5636 242.369 58.3256 242.039 58.0095C241.854 58.2648 241.581 58.4426 241.273 58.5084C240.964 58.5741 240.643 58.5233 240.37 58.3656C240.104 58.1881 239.901 57.9308 239.791 57.6307C239.681 57.3307 239.67 57.0034 239.758 56.6962C240.019 55.778 241.004 55.2772 241.922 55.0268C245.506 53.9695 249.468 54.7987 252.69 56.6962C253.172 56.9526 253.612 57.2831 253.992 57.6756C254.359 58.0762 254.871 58.5492 254.888 59.0946" fill="#263238"/>
<path d="M261.414 95.1324L265.259 84.6541C264.457 81.9608 261.581 79.0449 257.58 78.2826C256.305 78.0377 255.07 77.5759 253.579 77.5146C252.215 78.5919 250.534 79.1875 248.796 79.2087C247.059 79.2298 245.363 78.6753 243.974 77.6315L243.835 77.5313C243.451 77.5759 242.939 77.6259 242.299 77.7038H242.171C240.574 77.9037 239.055 78.5091 237.758 79.4623L217.687 91.443L205.901 82.4839L199.93 87.1638C199.93 87.1638 215.372 102.606 216.868 102.973C217.909 103.229 228.209 97.6031 234.453 94.1196C234.197 97.859 232.783 118.643 232.867 121.481H261.547V108.376V104.809L261.414 95.1324Z" fill="#455A64"/>
<path d="M250.234 107.408C250.234 107.408 264.202 113.568 265.537 113.857C269.989 114.831 274.046 111.114 273.394 107.613C273.061 105.794 265.198 84.1807 265.198 84.1807L259.544 92.6L262.36 103.596L253.857 102.511L250.234 107.408Z" fill="#455A64"/>
<path d="M262.477 112.778C262.409 112.728 262.334 112.687 262.255 112.656L261.587 112.327L259.077 111.159L250.53 107.264L250.586 107.436L252.222 104.509C252.572 103.886 252.917 103.268 253.24 102.684L253.117 102.751L263.34 103.752L266.378 104.025L267.202 104.086C267.296 104.098 267.391 104.098 267.485 104.086C267.395 104.058 267.302 104.041 267.207 104.036L266.389 103.93L263.356 103.58L253.14 102.467H253.062L253.017 102.539C252.695 103.123 252.35 103.736 251.999 104.364C251.443 105.366 250.886 106.345 250.369 107.291L250.302 107.414L250.424 107.469L259.01 111.292L261.548 112.405L262.232 112.689C262.31 112.729 262.392 112.759 262.477 112.778Z" fill="#263238"/>
<path d="M253.268 102.127L254.464 96.3005C254.464 96.3005 239.734 96.1113 239.896 96.3729C240.057 96.6344 241.454 109.728 241.454 109.728C241.454 109.728 251.815 109.339 251.431 109.372L253.268 102.127Z" fill="#263238"/>
<path d="M254.421 99.4717C254.144 99.4702 253.873 99.5529 253.644 99.709C253.416 99.8651 253.24 100.087 253.141 100.345C252.985 100.883 252.683 101.367 252.267 101.742C251.627 102.093 250.52 102.371 249.935 102.087C249.351 101.803 247.025 99.7054 246.597 99.9391C246.168 100.173 245.84 100.696 246.246 101.158C246.652 101.62 248.806 103.022 248.4 103.489C247.993 103.957 243.447 101.903 242.752 102.087C242.056 102.271 241.639 102.694 242.05 102.977C242.462 103.261 245.545 104.419 245.723 104.83C245.723 104.83 241.06 103.606 240.887 103.896C240.715 104.185 240.42 104.652 240.887 104.83C241.355 105.009 245.372 106.049 245.723 106.227C246.299 106.467 246.9 106.642 247.515 106.75C248.151 106.917 248.779 107.116 249.396 107.346C250.337 107.674 251.367 107.646 252.289 107.268L252.762 107.073C253.12 106.929 253.424 106.675 253.63 106.349C253.836 106.022 253.933 105.639 253.909 105.253L253.814 103.662L254.326 102.354L254.421 99.4717Z" fill="#B78876"/>
<path d="M261.481 103.524C261.397 103.524 261.336 100.185 261.336 96.0505C261.336 91.9159 261.397 88.5771 261.481 88.5771C261.564 88.5771 261.625 91.9159 261.625 96.0505C261.625 100.185 261.559 103.524 261.481 103.524Z" fill="#263238"/>
<path d="M234.844 85.2432C234.866 85.4727 234.866 85.7037 234.844 85.9332C234.844 86.434 234.811 87.0461 234.794 87.8029C234.733 89.3777 234.633 91.5591 234.505 93.963C234.377 96.3669 234.238 98.5483 234.132 100.123C234.071 100.863 234.021 101.486 233.982 101.987C233.978 102.218 233.946 102.448 233.887 102.672C233.866 102.442 233.866 102.211 233.887 101.982C233.887 101.481 233.92 100.869 233.943 100.112C233.998 98.5371 234.098 96.3558 234.232 93.9463C234.366 91.5368 234.494 89.361 234.605 87.7862C234.661 87.0461 234.711 86.4229 234.75 85.9221C234.753 85.6927 234.784 85.4646 234.844 85.2432Z" fill="#263238"/>
<path d="M261.202 88.5763C261.202 88.6598 255.365 88.721 248.159 88.721C240.952 88.721 235.109 88.6598 235.109 88.5763C235.109 88.4929 240.952 88.4316 248.159 88.4316C255.365 88.4316 261.202 88.4984 261.202 88.5763Z" fill="white"/>
<path d="M261.254 90.0343C261.254 90.1122 255.322 90.179 248.01 90.179C240.698 90.179 234.761 90.1122 234.761 90.0343C234.761 89.9564 240.693 89.8896 248.01 89.8896C255.328 89.8896 261.254 89.9509 261.254 90.0343Z" fill="white"/>
<path d="M261.475 91.8986C261.475 91.9821 255.632 92.0433 248.426 92.0433C241.22 92.0433 235.377 91.9821 235.377 91.8986C235.377 91.8151 241.22 91.7539 248.426 91.7539C255.632 91.7539 261.475 91.8207 261.475 91.8986Z" fill="white"/>
<path d="M259.582 103.535C259.108 104.62 258.569 105.676 257.969 106.696C257.456 107.761 256.881 108.796 256.249 109.795C256.622 108.668 257.113 107.582 257.713 106.557C258.23 105.488 258.857 104.476 259.582 103.535Z" fill="#263238"/>
<path d="M261.198 103.935C260.29 106.151 259.088 108.236 257.626 110.134C258.148 109.061 258.729 108.019 259.368 107.012C259.919 105.952 260.53 104.924 261.198 103.935Z" fill="#263238"/>
<path d="M209.056 85.0381C209.122 85.1049 207.826 86.3346 206.173 87.7815C205.202 88.6883 204.168 89.5251 203.079 90.2856C203.978 89.3071 204.947 88.3958 205.978 87.5589C206.807 86.8355 207.564 86.1955 208.121 85.7392C208.407 85.4739 208.721 85.2389 209.056 85.0381Z" fill="#263238"/>
<path d="M210.424 86.0566C209.52 87.0547 208.543 87.9846 207.503 88.839C206.673 89.5735 205.911 90.2301 205.349 90.692C205.064 90.9664 204.744 91.2022 204.397 91.3931C204.633 91.0759 204.906 90.7881 205.21 90.5362C205.766 90.0354 206.479 89.3565 207.313 88.6219C208.148 87.8874 208.91 87.2363 209.472 86.7745C209.761 86.4995 210.08 86.2586 210.424 86.0566Z" fill="#263238"/>
<path d="M239.105 215.373V210.365L248.531 210.248L248.654 217.61L248.097 217.655C245.499 217.833 234.87 218.367 233.123 217.86C231.125 217.276 239.105 215.373 239.105 215.373Z" fill="#6DDEA2"/>
<g opacity="0.4">
<path d="M245.228 217.554C245.36 216.758 245.78 216.04 246.407 215.534C247.024 215.027 247.809 214.772 248.605 214.821L248.639 217.453L245.228 217.554Z" fill="black"/>
</g>
<g opacity="0.4">
<path d="M235.209 216.441C235.209 216.441 232.427 217.287 232.772 217.744C233.117 218.2 243.901 218.066 248.631 217.588V217.376L236.077 217.643C236.077 217.643 235.766 216.458 235.209 216.441Z" fill="black"/>
</g>
<path d="M248.759 217.371H248.598L248.131 217.404L246.422 217.499C244.975 217.571 242.978 217.638 240.769 217.672C238.559 217.705 236.556 217.672 235.109 217.672L233.395 217.622H235.109C236.556 217.622 238.554 217.622 240.763 217.622C242.972 217.622 244.97 217.532 246.417 217.482L248.131 217.427H248.598C248.649 217.402 248.704 217.383 248.759 217.371Z" fill="#263238"/>
<path d="M236.065 217.805C235.984 217.521 235.872 217.247 235.731 216.987C235.559 216.751 235.361 216.535 235.142 216.342C235.425 216.464 235.665 216.669 235.83 216.93C235.995 217.192 236.077 217.497 236.065 217.805Z" fill="#263238"/>
<path d="M238.829 216.347C238.829 216.347 238.667 216.202 238.528 215.985C238.389 215.768 238.294 215.584 238.322 215.568C238.35 215.551 238.484 215.712 238.623 215.924C238.762 216.135 238.856 216.33 238.829 216.347Z" fill="#263238"/>
<path d="M239.588 215.935C239.588 215.935 239.416 215.858 239.249 215.713C239.082 215.568 238.971 215.435 238.993 215.412C239.015 215.39 239.16 215.485 239.327 215.629C239.494 215.774 239.605 215.908 239.588 215.935Z" fill="#263238"/>
<path d="M240.057 215.023C239.901 215.08 239.734 215.102 239.568 215.089C239.401 215.109 239.232 215.094 239.072 215.045C239.228 214.985 239.395 214.961 239.562 214.973C239.729 214.95 239.898 214.967 240.057 215.023Z" fill="#263238"/>
<path d="M240.218 214.405C240.054 214.517 239.86 214.575 239.662 214.572C239.474 214.607 239.28 214.583 239.105 214.505C239.289 214.473 239.475 214.459 239.662 214.461C239.846 214.427 240.032 214.409 240.218 214.405Z" fill="#263238"/>
<path d="M238.501 215.529C238.3 215.564 238.095 215.564 237.894 215.529C237.675 215.506 237.459 215.461 237.249 215.395C237.119 215.362 236.994 215.314 236.876 215.251C236.839 215.231 236.807 215.204 236.782 215.171C236.756 215.139 236.737 215.101 236.725 215.061C236.715 215.017 236.719 214.971 236.734 214.929C236.75 214.886 236.778 214.849 236.814 214.822C236.962 214.747 237.125 214.706 237.291 214.702C237.457 214.697 237.622 214.73 237.773 214.798C237.925 214.866 238.059 214.967 238.167 215.093C238.274 215.22 238.352 215.368 238.395 215.529C238.406 215.582 238.406 215.637 238.395 215.69C238.328 215.506 238.232 215.333 238.111 215.178C237.971 215.022 237.79 214.908 237.588 214.85C237.47 214.812 237.346 214.797 237.223 214.808C237.1 214.818 236.98 214.853 236.87 214.911C236.776 214.984 236.814 215.095 236.92 215.156C237.03 215.215 237.146 215.261 237.265 215.295C237.468 215.365 237.677 215.418 237.888 215.451C238.267 215.512 238.501 215.507 238.501 215.529Z" fill="#263238"/>
<path d="M238.344 215.578C238.267 215.452 238.239 215.301 238.266 215.155C238.285 214.996 238.34 214.844 238.427 214.71C238.477 214.619 238.549 214.543 238.637 214.489C238.725 214.434 238.825 214.403 238.928 214.398C238.959 214.404 238.988 214.415 239.014 214.432C239.04 214.448 239.062 214.47 239.08 214.495C239.097 214.521 239.11 214.549 239.116 214.579C239.123 214.61 239.123 214.641 239.117 214.671C239.105 214.768 239.07 214.861 239.017 214.944C238.94 215.079 238.846 215.204 238.739 215.317C238.646 215.427 238.528 215.513 238.394 215.567C238.394 215.567 238.511 215.456 238.678 215.261C238.775 215.148 238.859 215.025 238.928 214.894C239.006 214.766 239.062 214.532 238.928 214.51C238.795 214.487 238.622 214.649 238.533 214.771C238.449 214.889 238.392 215.024 238.366 215.166C238.343 215.302 238.336 215.44 238.344 215.578Z" fill="#263238"/>
<path d="M248.565 214.794C248.565 214.794 248.292 214.794 247.869 214.827C247.315 214.899 246.791 215.123 246.356 215.473C245.927 215.83 245.604 216.298 245.421 216.825C245.287 217.231 245.276 217.504 245.254 217.504C245.245 217.441 245.245 217.377 245.254 217.315C245.271 217.141 245.305 216.97 245.354 216.803C245.516 216.247 245.842 215.752 246.289 215.384C246.74 215.022 247.288 214.801 247.864 214.749C248.036 214.729 248.209 214.729 248.381 214.749C248.444 214.756 248.506 214.771 248.565 214.794Z" fill="#263238"/>
<path d="M247.507 210.882C247.58 211.525 247.615 212.171 247.612 212.818C247.648 213.463 247.648 214.11 247.612 214.755C247.538 214.114 247.503 213.469 247.507 212.824C247.468 212.177 247.468 211.529 247.507 210.882Z" fill="#263238"/>
<path d="M244.014 216.653C243.565 216.763 243.103 216.816 242.64 216.808C242.178 216.835 241.714 216.803 241.26 216.714C241.26 216.68 241.877 216.714 242.64 216.714C243.402 216.714 244.009 216.619 244.014 216.653Z" fill="#263238"/>
<path d="M245.86 216.626C245.86 216.626 245.81 216.759 245.749 216.898C245.688 217.037 245.654 217.165 245.626 217.165C245.599 217.165 245.576 217.021 245.626 216.854C245.677 216.687 245.838 216.603 245.86 216.626Z" fill="#263238"/>
<path d="M246.546 215.752C246.546 215.752 246.513 215.874 246.413 215.974C246.312 216.074 246.223 216.136 246.201 216.113C246.179 216.091 246.235 215.991 246.335 215.891C246.435 215.791 246.524 215.729 246.546 215.752Z" fill="#263238"/>
<path d="M247.537 215.345C247.537 215.373 247.409 215.373 247.27 215.429C247.131 215.484 247.031 215.551 247.009 215.529C246.987 215.507 247.059 215.379 247.231 215.317C247.404 215.256 247.549 215.312 247.537 215.345Z" fill="#263238"/>
<path d="M248.244 215.145C248.244 215.178 248.205 215.223 248.127 215.256C248.049 215.29 247.977 215.29 247.965 215.256C247.954 215.223 248.004 215.178 248.082 215.145C248.16 215.112 248.233 215.117 248.244 215.145Z" fill="#263238"/>
<path d="M267.746 212.174L268.648 215.947C268.648 215.947 274.819 223.965 276.722 223.57C277.968 223.314 276.433 221.222 274.09 215.134L273.595 212.619L267.746 212.174Z" fill="#6DDEA2"/>
<path d="M276.973 222.391C276.893 222.523 276.78 222.63 276.644 222.703C276.451 222.787 276.238 222.817 276.029 222.789C275.82 222.76 275.623 222.675 275.459 222.541C274.377 221.634 273.351 220.662 272.387 219.631C271.274 218.429 270.289 217.277 269.605 216.426L268.82 215.413L268.603 215.135L268.525 215.04C268.525 215.04 268.525 215.079 268.587 215.146L268.781 215.435C268.959 215.686 269.215 216.042 269.544 216.476C270.415 217.601 271.344 218.68 272.326 219.709C273.294 220.747 274.333 221.716 275.437 222.608C275.644 222.75 275.883 222.838 276.132 222.864C276.326 222.879 276.519 222.836 276.689 222.742C276.795 222.686 276.885 222.603 276.95 222.502C276.964 222.467 276.972 222.429 276.973 222.391Z" fill="#263238"/>
<path d="M276.098 219.813C275.938 219.749 275.763 219.728 275.592 219.752C275.177 219.794 274.779 219.934 274.429 220.158C274.063 220.365 273.768 220.677 273.583 221.054C273.5 221.204 273.454 221.372 273.449 221.544C273.449 221.544 273.505 221.36 273.65 221.088C273.85 220.741 274.138 220.453 274.484 220.253C274.823 220.04 275.202 219.899 275.597 219.836C275.764 219.819 275.931 219.812 276.098 219.813Z" fill="#263238"/>
<path d="M270.268 217.932C270.299 217.874 270.323 217.812 270.34 217.749C270.396 217.58 270.437 217.407 270.463 217.231C270.552 216.644 270.45 216.043 270.173 215.517C269.907 214.983 269.467 214.556 268.927 214.304C268.766 214.228 268.596 214.176 268.42 214.148C268.356 214.137 268.29 214.137 268.226 214.148C268.454 214.212 268.678 214.294 268.893 214.393C269.403 214.654 269.817 215.072 270.073 215.584C270.342 216.096 270.451 216.678 270.385 217.253C270.323 217.66 270.234 217.927 270.268 217.932Z" fill="#263238"/>
<path d="M268.142 212.797C268.142 212.797 268.253 213.353 268.37 214.004C268.417 214.413 268.523 214.812 268.687 215.19C268.715 215.19 268.592 214.633 268.476 213.982C268.426 213.572 268.313 213.172 268.142 212.797Z" fill="#263238"/>
<path d="M274.195 215.669C273.937 215.592 273.662 215.592 273.405 215.669C273.14 215.708 272.892 215.824 272.692 216.003C272.692 216.036 273.015 215.869 273.432 215.775C273.85 215.68 274.195 215.702 274.195 215.669Z" fill="#263238"/>
<path d="M274.324 216.314C274.109 216.235 273.872 216.235 273.657 216.314C273.428 216.345 273.22 216.46 273.072 216.637C273.072 216.637 273.339 216.498 273.684 216.42C274.029 216.342 274.319 216.347 274.324 216.314Z" fill="#263238"/>
<path d="M274.819 217.126C274.606 217.015 274.36 216.984 274.126 217.037C273.892 217.09 273.684 217.224 273.539 217.415C273.731 217.299 273.937 217.208 274.151 217.142C274.372 217.112 274.596 217.107 274.819 217.126Z" fill="#263238"/>
<path d="M273.774 215.395C273.774 215.395 273.49 215.318 273.05 215.151C272.793 215.049 272.544 214.928 272.305 214.789C272.162 214.71 272.025 214.623 271.893 214.527C271.771 214.438 271.632 214.299 271.637 214.155C271.643 214.01 271.821 213.926 271.965 213.965C272.111 214.015 272.242 214.101 272.344 214.216C272.572 214.433 272.767 214.639 272.9 214.811C273.217 215.167 273.39 215.401 273.407 215.368C273.379 215.304 273.343 215.244 273.301 215.19C273.195 215.034 273.082 214.883 272.961 214.739C272.788 214.523 272.602 214.317 272.405 214.121C272.291 213.989 272.143 213.891 271.977 213.837C271.927 213.82 271.875 213.815 271.823 213.821C271.771 213.827 271.721 213.844 271.677 213.872C271.632 213.9 271.595 213.937 271.567 213.981C271.539 214.025 271.521 214.075 271.515 214.127C271.524 214.224 271.557 214.317 271.61 214.398C271.663 214.48 271.736 214.547 271.821 214.594C271.955 214.691 272.097 214.779 272.244 214.856C272.489 214.994 272.746 215.109 273.012 215.201C273.193 215.263 273.379 215.313 273.568 215.351C273.634 215.375 273.704 215.39 273.774 215.395Z" fill="#263238"/>
<path d="M273.451 215.317C273.451 215.317 273.49 215.05 273.562 214.627C273.603 214.382 273.674 214.143 273.773 213.915C273.831 213.784 273.908 213.662 274.002 213.553C274.096 213.447 274.241 213.353 274.352 213.419C274.463 213.486 274.486 213.659 274.469 213.798C274.447 213.94 274.406 214.079 274.347 214.21C274.247 214.438 274.112 214.648 273.946 214.833C273.662 215.15 273.434 215.3 273.451 215.317C273.509 215.295 273.564 215.263 273.612 215.222C273.752 215.123 273.882 215.012 274.002 214.889C274.181 214.702 274.33 214.488 274.441 214.254C274.508 214.113 274.553 213.963 274.575 213.809C274.598 213.721 274.594 213.628 274.564 213.542C274.535 213.456 274.48 213.38 274.408 213.325C274.321 213.291 274.226 213.288 274.138 213.316C274.05 213.345 273.974 213.403 273.924 213.481C273.822 213.599 273.739 213.732 273.679 213.876C273.579 214.112 273.514 214.361 273.484 214.616C273.484 214.833 273.451 215.011 273.445 215.128C273.44 215.245 273.439 215.317 273.451 215.317Z" fill="#263238"/>
<g opacity="0.4">
<path d="M268.648 215.946L268.214 214.132C268.214 214.132 269.722 214.416 270.117 215.545C270.347 216.164 270.447 216.823 270.412 217.482L273.695 221.021C273.695 221.021 274.524 219.413 276.016 219.797C276.016 219.797 277.19 222.384 277.128 223.03C277.067 223.675 276.338 223.586 276.071 223.48C274.984 222.849 273.993 222.066 273.127 221.154C271.547 219.495 270.052 217.757 268.648 215.946Z" fill="black"/>
</g>
<path d="M232.757 118.999L237.247 214.01L249.584 214.305L248.611 131.926L267.063 214.461L276.974 214.01L261.098 119.194L232.757 118.999Z" fill="#263238"/>
<path d="M245.588 120.284C245.577 120.808 245.614 121.331 245.699 121.848C245.799 122.805 245.955 124.129 246.15 125.593C246.215 126.288 246.328 126.978 246.489 127.657C246.635 128.23 246.952 128.744 247.396 129.132C247.694 129.393 248.055 129.571 248.443 129.649C248.583 129.687 248.731 129.687 248.871 129.649C248.347 129.564 247.861 129.321 247.477 128.954C247.094 128.586 246.831 128.111 246.723 127.591C246.578 126.918 246.472 126.238 246.406 125.554C246.211 124.09 246.028 122.772 245.849 121.814C245.804 121.298 245.717 120.786 245.588 120.284Z" fill="#455A64"/>
<path d="M248.622 120.846C248.588 120.846 248.705 121.024 248.622 121.275C248.601 121.341 248.568 121.402 248.523 121.455C248.478 121.507 248.422 121.55 248.36 121.581C248.285 121.607 248.204 121.612 248.127 121.593C248.05 121.574 247.98 121.533 247.926 121.475C247.866 121.425 247.822 121.357 247.801 121.282C247.779 121.207 247.78 121.127 247.804 121.052C247.83 120.988 247.869 120.93 247.919 120.882C247.968 120.834 248.028 120.797 248.093 120.774C248.338 120.685 248.499 120.774 248.516 120.774C248.533 120.774 248.388 120.551 248.043 120.618C247.944 120.638 247.85 120.68 247.77 120.742C247.69 120.804 247.625 120.883 247.581 120.974C247.537 121.096 247.529 121.228 247.559 121.353C247.589 121.479 247.655 121.594 247.749 121.683C247.843 121.771 247.961 121.831 248.088 121.853C248.216 121.876 248.347 121.86 248.466 121.809C248.555 121.761 248.632 121.693 248.69 121.609C248.748 121.526 248.786 121.431 248.8 121.33C248.85 120.98 248.633 120.818 248.622 120.846Z" fill="#455A64"/>
<path d="M256.451 122.489C256.64 122.069 256.723 121.609 256.691 121.149C256.659 120.69 256.513 120.246 256.267 119.856C256.195 119.856 256.389 120.446 256.434 121.164C256.478 121.882 256.356 122.466 256.451 122.489Z" fill="#455A64"/>
<path d="M254.686 122.31C254.912 121.887 255.003 121.406 254.948 120.93C254.973 120.449 254.849 119.973 254.592 119.566C254.597 120.024 254.628 120.481 254.686 120.935C254.657 121.393 254.657 121.852 254.686 122.31Z" fill="#455A64"/>
<path d="M239.517 122.132C239.545 121.659 239.534 121.184 239.484 120.713C239.524 120.241 239.524 119.766 239.484 119.294C239.271 119.737 239.186 120.23 239.239 120.718C239.196 121.206 239.293 121.696 239.517 122.132Z" fill="#455A64"/>
<path d="M237.603 121.959C237.675 121.932 237.469 121.303 237.447 120.513C237.425 119.722 237.58 119.077 237.508 119.055C237.242 119.493 237.13 120.009 237.191 120.518C237.166 121.031 237.311 121.537 237.603 121.959Z" fill="#455A64"/>
<path d="M205.162 83.1401C205.162 83.1401 202.886 79.2894 202.352 78.8887C201.818 78.4881 197.032 76.8243 196.626 76.9578C196.22 77.0914 190.505 78.1709 191.156 78.8442C191.807 79.5175 195.83 78.7051 195.83 78.7051L196.387 78.9666C196.387 78.9666 192.926 79.5788 192.202 80.0128C191.479 80.4468 191.779 81.2315 192.414 81.1257C193.048 81.02 196.053 80.419 196.237 80.5359C196.42 80.6527 192.97 81.404 192.603 81.6488C192.108 81.9493 192.046 82.8452 192.703 82.7896C193.076 82.7562 196.32 81.8603 196.32 81.8603C195.37 82.2325 194.442 82.656 193.538 83.129C193.154 83.5074 193.471 84.0639 194.033 83.9303C194.417 83.8413 196.226 82.9398 196.737 82.8174C196.737 82.8174 197.222 82.9398 197.678 83.9303C198.134 84.9208 200.533 86.8072 200.533 86.8072L205.162 83.1401Z" fill="#B78876"/>
<path d="M191.155 78.8449C191.482 79.0097 191.841 79.1027 192.207 79.1176C192.602 79.1666 193.001 79.1778 193.398 79.151C193.837 79.0953 194.316 79.0174 194.822 78.9395L195.891 78.7614H195.824C196.635 79.074 197.471 79.3196 198.323 79.496C197.547 79.1011 196.739 78.7734 195.907 78.5166H195.88H195.846L194.783 78.678L193.376 78.9061C192.993 78.9449 192.608 78.9542 192.224 78.934C191.567 78.895 191.166 78.806 191.155 78.8449Z" fill="#AA6550"/>
<path d="M186.976 76.1064C186.976 76.1064 182.825 88.6993 181.411 91.2423L195.545 95.5605L198.116 93.9189C198.116 93.9189 201.55 83.7801 201.984 80.3745L186.976 76.1064Z" fill="#455A64"/>
<path d="M196.313 93.4521L195.567 95.5612L198.138 93.9196L196.313 93.4521Z" fill="#263238"/>
<path d="M198.167 84.7696C197.627 84.6488 197.098 84.4832 196.586 84.2743L192.808 82.9722L189.024 81.7313C188.49 81.5881 187.969 81.402 187.466 81.1748C188.015 81.2491 188.557 81.3701 189.085 81.5365C190.076 81.8036 191.433 82.2098 192.914 82.7051C194.394 83.2003 195.724 83.7012 196.675 84.0851C197.194 84.2637 197.693 84.493 198.167 84.7696Z" fill="white"/>
<path d="M196.965 87.592C196.437 87.5226 195.918 87.4052 195.412 87.2414C194.466 86.9854 193.186 86.6015 191.739 86.1285C190.293 85.6555 189.04 85.1992 188.128 84.8431C187.622 84.677 187.134 84.4627 186.67 84.2031C187.19 84.3062 187.701 84.4552 188.195 84.6483L191.828 85.8558L195.468 87.0411C195.982 87.1809 196.483 87.3652 196.965 87.592Z" fill="white"/>
<path d="M195.535 90.1686C193.923 89.7728 192.335 89.288 190.777 88.7163C189.192 88.2327 187.637 87.6567 186.119 86.9912C189.316 87.8683 192.46 88.9292 195.535 90.1686Z" fill="white"/>
<path d="M203.699 83.5522C203.504 83.6925 203.27 83.768 203.031 83.768C202.791 83.768 202.557 83.6925 202.363 83.5522C201.946 83.3129 201.628 82.9401 201.25 82.6674C200.07 81.8661 198.384 82.1109 197.238 81.2261C197.082 81.1093 196.921 80.909 197.004 80.7253C197.088 80.5417 197.305 80.5361 197.494 80.5361L202.235 80.5751" fill="#B78876"/>
<path d="M202.211 80.5974C202.044 80.5522 201.871 80.5315 201.699 80.5362L200.302 80.4861L198.226 80.4416H197.625C197.384 80.4011 197.136 80.4571 196.935 80.5974C196.879 80.6553 196.842 80.729 196.829 80.8086C196.816 80.8882 196.828 80.9698 196.863 81.0425C196.916 81.163 197.001 81.2668 197.108 81.343C197.291 81.4879 197.493 81.6077 197.709 81.6992C198.514 81.9783 199.337 82.1996 200.174 82.3614C200.521 82.4554 200.853 82.5997 201.159 82.7898C201.437 82.9735 201.671 83.1961 201.905 83.3797C202.081 83.5484 202.293 83.6763 202.525 83.7542C202.757 83.832 203.003 83.8581 203.246 83.8304C203.596 83.7581 203.707 83.5633 203.696 83.5633C203.553 83.6446 203.397 83.6993 203.234 83.7247C203.01 83.7322 202.787 83.6925 202.579 83.6081C202.371 83.5238 202.183 83.3967 202.027 83.235C201.785 83.0045 201.53 82.7872 201.265 82.584C200.949 82.3673 200.599 82.2055 200.23 82.1054C199.409 81.9278 198.598 81.703 197.803 81.4321C197.606 81.3484 197.419 81.2419 197.247 81.1149C197.091 80.9925 197.013 80.8255 197.097 80.7587C197.18 80.692 197.392 80.6753 197.597 80.6808H198.198H200.274C200.864 80.6808 201.342 80.6808 201.671 80.6475C201.852 80.6552 202.034 80.6383 202.211 80.5974Z" fill="#AA6550"/>
<path d="M102.406 60.9551C102.558 60.1398 102.471 59.2981 102.158 58.5305C101.844 57.7629 101.316 57.1018 100.637 56.6258C99.9447 56.1704 99.1437 55.9077 98.3162 55.8647C97.4888 55.8217 96.6649 55.9999 95.9292 56.381C95.2039 56.7813 94.5878 57.3533 94.1347 58.0469C93.6817 58.7406 93.4056 59.5346 93.3305 60.3597C93.1747 62.2238 94.0149 63.999 94.7328 65.724C95.4506 67.4491 96.0739 69.38 95.4785 71.1496C94.9888 72.6131 93.759 73.6759 92.6961 74.8C91.675 75.7718 90.953 77.0151 90.6149 78.3836C90.359 79.7581 90.8709 81.3551 92.1174 82.0062C92.4167 82.1105 92.686 82.2862 92.902 82.5182C93.247 83.0078 92.902 83.6589 92.6516 84.1876C92.307 85.0162 92.2617 85.939 92.5236 86.7974C93.0801 88.6671 95.1446 89.8635 97.0978 89.7522C98.0741 89.6564 99.0153 89.3377 99.8489 88.8205C100.682 88.3034 101.386 87.6017 101.906 86.7696C102.929 85.0912 103.486 83.1703 103.519 81.2049C103.546 79.2501 103.436 77.2959 103.191 75.3564C102.735 70.4707 105.016 65.4124 105.261 60.5099" fill="#263238"/>
<path d="M106.79 90.0859C107.447 90.1357 108.106 90.0528 108.73 89.842C109.353 89.6312 109.928 89.2969 110.419 88.859C110.911 88.4211 111.309 87.8886 111.59 87.2934C111.871 86.6983 112.029 86.0525 112.055 85.3949C112.155 82.7294 112.244 80.0417 112.244 80.0417C112.244 80.0417 116.278 79.6633 116.573 75.6678C116.868 71.6724 116.729 62.4573 116.729 62.4573C114.519 61.3388 112.05 60.8306 109.578 60.9851C107.106 61.1397 104.72 61.9514 102.667 63.3365L102.917 77.3929V84.9552C102.945 87.5094 104.253 89.8911 106.79 90.0859Z" fill="#FFB8B8"/>
<path d="M112.6 70.7935C112.306 70.3653 111.86 70.0654 111.352 69.9548C110.844 69.8442 110.314 69.9312 109.868 70.198C109.417 70.5115 109.091 70.9749 108.949 71.5058C108.808 72.0367 108.859 72.6006 109.094 73.0972C109.302 73.466 109.582 73.7882 109.919 74.0438C110.256 74.2994 110.642 74.483 111.053 74.583C111.426 74.661 111.756 74.8755 111.978 75.1845C112.201 75.4934 112.299 75.8743 112.255 76.2524C112.087 77.3026 111.597 78.2746 110.853 79.0347C109.624 80.2926 107.986 81.0701 106.234 81.2272C104.531 81.4275 102.584 81.0714 101.593 79.6747C100.87 78.6563 100.82 77.3264 100.798 76.0799L100.608 67.2321C100.541 66.1706 100.608 65.1048 100.809 64.0602C101.017 63.0083 101.613 62.0729 102.478 61.4393C103.452 60.7993 104.704 60.7493 105.789 60.3876C107.169 59.9424 108.343 59.0242 109.64 58.362C110.936 57.6998 112.522 57.3047 113.819 57.9558C114.754 58.4232 115.377 59.3581 116.284 59.87C117.575 60.6046 119.333 60.4265 119.957 62.3352C120.174 62.9948 120.174 63.7066 119.957 64.3663C119.077 66.9539 115.878 67.9944 113.574 66.8759C113.529 67.3156 113.958 68.2894 113.502 69.6583C113.351 70.1034 113.301 70.7712 112.611 70.7712" fill="#263238"/>
<path d="M101.515 79.2409C99.2574 77.0886 97.9273 74.1415 97.8068 71.0248C97.6863 67.908 98.7849 64.867 100.869 62.5469" fill="#263238"/>
<path d="M104.553 80.5262C104.553 80.5262 104.486 80.5595 104.347 80.5874C104.146 80.6137 103.942 80.6137 103.741 80.5874C102.994 80.4761 102.306 80.1175 101.787 79.569C101.051 78.7446 100.455 77.8046 100.023 76.7867C99.4445 75.5789 99.0039 74.3095 98.7101 73.0027C98.4105 71.6934 98.2962 70.3485 98.3707 69.0073C98.432 67.9134 98.6359 66.8321 98.9772 65.7909C99.2075 65.0902 99.5096 64.4151 99.8787 63.7765C100.012 63.5484 100.124 63.3815 100.201 63.2702C100.279 63.1589 100.329 63.1032 100.335 63.1088C99.873 63.9892 99.4859 64.9069 99.1776 65.8522C98.8648 66.8812 98.678 67.9444 98.6211 69.0185C98.5657 70.3269 98.6855 71.637 98.9772 72.9137C99.265 74.201 99.6923 75.453 100.252 76.6476C100.661 77.6405 101.224 78.5625 101.921 79.3798C102.403 79.9148 103.042 80.2831 103.746 80.4316C104.012 80.4852 104.282 80.5168 104.553 80.5262Z" fill="#455A64"/>
<path d="M100.414 62.9482C100.459 62.9482 100.77 63.5047 101.371 64.4284C102.152 65.6069 103.059 66.6966 104.076 67.6782C105.093 68.6525 106.212 69.5144 107.414 70.2491C108.344 70.8055 108.956 71.1005 108.934 71.145C108.775 71.1163 108.622 71.0657 108.477 70.9947C108.079 70.8288 107.689 70.6431 107.309 70.4383C106.051 69.744 104.89 68.8892 103.853 67.8952C102.817 66.906 101.916 65.7832 101.176 64.5564C100.949 64.1861 100.743 63.8034 100.559 63.4101C100.488 63.264 100.44 63.1084 100.414 62.9482Z" fill="#455A64"/>
<path d="M108.149 69.1798C107.689 69.0317 107.254 68.816 106.858 68.5398C104.865 67.3117 103.191 65.63 101.972 63.6318C101.7 63.2343 101.486 62.7994 101.338 62.3408C101.631 62.7167 101.901 63.1107 102.145 63.5205C103.434 65.4252 105.071 67.0696 106.969 68.3673C107.378 68.6157 107.771 68.887 108.149 69.1798Z" fill="#455A64"/>
<path d="M113.33 69.1796C113.144 69.19 112.956 69.1751 112.774 69.135C112.274 69.0689 111.78 68.9685 111.294 68.8346C108.056 67.9417 105.195 66.0222 103.141 63.3645C102.832 62.9676 102.551 62.5492 102.301 62.1124C102.195 61.96 102.11 61.7933 102.051 61.6172C102.095 61.6172 102.502 62.2683 103.303 63.2365C104.354 64.4993 105.58 65.6065 106.942 66.5252C108.307 67.4355 109.795 68.1457 111.36 68.6342C112.562 69.0071 113.341 69.1295 113.33 69.1796Z" fill="#455A64"/>
<path d="M97.1203 85.8178C97.1203 85.8178 97.1982 85.7009 97.2928 85.4672C97.4228 85.1216 97.4403 84.7438 97.3429 84.3876C97.1901 83.8231 96.8533 83.3257 96.3858 82.9742C95.8572 82.5346 95.1504 82.1896 94.4103 81.6999C94.0179 81.4429 93.6686 81.1255 93.3753 80.7595C93.0571 80.3438 92.8727 79.8411 92.8467 79.3182C92.8602 78.1843 93.2719 77.0911 94.0097 76.2299C94.7053 75.295 95.6012 74.4492 96.1243 73.3307C96.6255 72.1556 96.7707 70.8592 96.5416 69.6023C96.3251 68.3309 95.9668 67.0878 95.4732 65.8963C95.0128 64.7726 94.6261 63.6202 94.3158 62.4462C94.0598 61.3333 93.8817 60.1591 94.2768 59.1074C94.4665 58.6182 94.8102 58.2041 95.2562 57.9277C95.4663 57.8037 95.6994 57.7235 95.9413 57.692C96.1833 57.6604 96.4291 57.6781 96.664 57.7441C97.4216 58.0272 98.0847 58.5168 98.5783 59.1575L99.7469 60.4986L100.481 61.3555C100.568 61.4538 100.648 61.5579 100.721 61.6671C100.721 61.6671 100.615 61.5837 100.437 61.3945L99.6634 60.5765L98.4614 59.2632C97.9751 58.6645 97.3371 58.2071 96.6139 57.9388C96.4057 57.8842 96.1886 57.8719 95.9755 57.9024C95.7624 57.933 95.5575 58.0059 95.373 58.1169C94.9741 58.3744 94.668 58.7526 94.4994 59.1964C94.1432 60.1313 94.3157 61.2554 94.5773 62.3572C94.8916 63.5179 95.2801 64.6573 95.7403 65.7683C96.2531 66.9758 96.6265 68.2379 96.8532 69.53C97.0861 70.8446 96.9294 72.1986 96.4025 73.4253C95.846 74.605 94.9279 75.4564 94.2434 76.3634C93.5469 77.1777 93.1537 78.208 93.1305 79.2793C93.1497 79.756 93.3126 80.2157 93.5979 80.5981C93.8733 80.9493 94.2019 81.2554 94.5717 81.5051C95.2481 81.9089 95.902 82.3491 96.5305 82.824C97.0146 83.204 97.3542 83.738 97.4932 84.3376C97.5817 84.7096 97.5465 85.1003 97.393 85.4505C97.3313 85.5921 97.238 85.7177 97.1203 85.8178Z" fill="#455A64"/>
<path d="M87.7166 214.534L90.4266 211.234L84.3055 206.109L80.2822 210.901L80.6439 211.24C82.2632 212.748 88.9909 218.797 90.4043 219.398C91.9624 220.066 87.7166 214.534 87.7166 214.534Z" fill="#6DDEA2"/>
<g opacity="0.5">
<path d="M82.5511 212.709C82.8934 212.115 83.0044 211.415 82.8627 210.745C82.728 210.074 82.3468 209.478 81.7943 209.075L80.3252 210.8L82.5511 212.709Z" fill="white"/>
</g>
<g opacity="0.4">
<path d="M89.7148 217.328C89.7148 217.328 91.106 219.381 90.6274 219.492C90.1489 219.604 83.1096 213.75 80.2549 210.9L80.3829 210.772L88.5073 217.667C88.5073 217.667 89.342 217.044 89.7148 217.328Z" fill="white"/>
</g>
<path d="M80.2861 210.683C80.2861 210.683 80.314 210.722 80.3807 210.783L80.6701 211.055L81.7496 212.035C82.6622 212.858 83.9421 213.971 85.3834 215.179C86.8246 216.386 88.1657 217.438 89.1228 218.195L90.2803 219.08L90.5974 219.313L90.7087 219.391L90.6086 219.302L90.3025 219.052L89.1618 218.139C88.2046 217.371 86.8858 216.303 85.4446 215.101C84.0033 213.899 82.7179 212.792 81.7942 211.985L80.6812 211.028L80.3807 210.772L80.2861 210.683Z" fill="#263238"/>
<path d="M88.4268 217.761C88.631 217.619 88.8492 217.498 89.0778 217.399C89.3195 217.335 89.5679 217.299 89.8179 217.294C89.566 217.221 89.298 217.227 89.0495 217.31C88.8009 217.394 88.5838 217.551 88.4268 217.761Z" fill="#263238"/>
<path d="M87.3804 215.33C87.5143 215.332 87.6472 215.306 87.7699 215.252C87.9758 215.185 88.1371 215.113 88.1316 215.085C87.9976 215.082 87.8647 215.109 87.7421 215.163C87.5584 215.252 87.3692 215.302 87.3804 215.33Z" fill="#263238"/>
<path d="M87.1045 214.65C87.1045 214.678 87.2547 214.695 87.4384 214.684C87.622 214.673 87.7778 214.65 87.7723 214.623C87.6654 214.584 87.5507 214.573 87.4384 214.589C87.2492 214.595 87.1045 214.623 87.1045 214.65Z" fill="#263238"/>
<path d="M87.2695 213.805C87.2695 213.805 87.3808 213.966 87.5589 214.116C87.737 214.267 87.8872 214.372 87.9095 214.35C87.9317 214.328 87.7982 214.194 87.6201 214.044C87.5197 213.942 87.4007 213.861 87.2695 213.805Z" fill="#263238"/>
<path d="M87.5049 213.311C87.5678 213.462 87.661 213.599 87.7787 213.712C87.8964 213.826 88.0362 213.915 88.1893 213.973C88.1893 213.945 88.028 213.823 87.8443 213.645C87.6607 213.466 87.5271 213.294 87.5049 213.311Z" fill="#263238"/>
<path d="M88.0373 214.969C88.149 215.099 88.2828 215.208 88.4324 215.291C88.5906 215.394 88.7583 215.482 88.9332 215.553C89.0366 215.599 89.1449 215.632 89.256 215.653C89.3252 215.664 89.3963 215.651 89.4563 215.614C89.4859 215.588 89.5082 215.555 89.5209 215.518C89.5336 215.481 89.5363 215.441 89.5286 215.403C89.4697 215.275 89.3832 215.162 89.2755 215.071C89.1677 214.981 89.0413 214.915 88.9053 214.879C88.7693 214.843 88.6269 214.837 88.4884 214.862C88.3499 214.887 88.2187 214.943 88.1041 215.024C88.064 215.05 88.0299 215.084 88.0039 215.125C88.1461 215.036 88.3023 214.972 88.4658 214.935C88.6425 214.908 88.8234 214.929 88.9889 214.997C89.1861 215.076 89.3441 215.23 89.4285 215.425C89.4563 215.52 89.3673 215.575 89.2671 215.559C89.1623 215.539 89.0598 215.509 88.961 215.47C88.7905 215.404 88.625 215.326 88.4658 215.236C88.1987 215.08 88.0429 214.952 88.0373 214.969Z" fill="#263238"/>
<path d="M88.1158 215.068C88.1158 215.068 88.2605 215.029 88.3885 214.835C88.4667 214.723 88.5129 214.592 88.522 214.456C88.5389 214.37 88.5329 214.281 88.5045 214.198C88.4762 214.115 88.4266 214.041 88.3606 213.983C88.3376 213.97 88.3123 213.962 88.2861 213.959C88.26 213.956 88.2335 213.958 88.2081 213.966C88.1828 213.973 88.1592 213.985 88.1385 214.001C88.1179 214.018 88.1007 214.038 88.088 214.061C88.0449 214.132 88.0182 214.212 88.0101 214.295C87.994 214.426 87.994 214.559 88.0101 214.69C88.0138 214.811 88.0462 214.929 88.1047 215.035C88.1047 215.035 88.1047 214.901 88.1047 214.684C88.1006 214.559 88.1118 214.434 88.1381 214.312C88.1381 214.178 88.2382 214 88.3551 214.067C88.4719 214.134 88.4775 214.323 88.4719 214.451C88.4648 214.574 88.4306 214.693 88.3718 214.801C88.2962 214.899 88.2104 214.989 88.1158 215.068Z" fill="#263238"/>
<path d="M81.8105 209.131C81.9661 209.254 82.1147 209.386 82.2557 209.526C82.5882 209.866 82.8172 210.293 82.9157 210.758C83.0142 211.223 82.9783 211.707 82.8122 212.152C82.6842 212.492 82.5451 212.676 82.5618 212.709C82.5785 212.742 82.6063 212.67 82.6675 212.587C82.7481 212.463 82.817 212.333 82.8734 212.197C83.0669 211.744 83.1173 211.243 83.0179 210.76C82.9184 210.278 82.6738 209.838 82.3169 209.498C82.2114 209.396 82.0958 209.304 81.9719 209.225C81.8662 209.131 81.8161 209.131 81.8105 209.131Z" fill="#263238"/>
<path d="M84.5835 207.083C84.1908 207.469 83.8193 207.876 83.4706 208.302C83.0992 208.706 82.7535 209.134 82.4355 209.582C83.1973 208.792 83.9109 207.958 84.5724 207.083H84.5835Z" fill="#263238"/>
<path d="M83.7988 212.753C84.2952 213.362 84.8987 213.875 85.5795 214.267C85.5795 214.267 85.1733 213.933 84.6836 213.516C84.1939 213.098 83.8211 212.737 83.7988 212.753Z" fill="#263238"/>
<path d="M82.5971 211.746C82.5692 211.746 82.5581 211.857 82.5247 211.985C82.4914 212.113 82.4413 212.214 82.4635 212.23C82.4858 212.247 82.5748 212.158 82.6138 212.013C82.6527 211.869 82.6249 211.746 82.5971 211.746Z" fill="#263238"/>
<path d="M82.6129 210.8C82.5851 210.8 82.574 210.894 82.5795 211.017C82.5851 211.139 82.624 211.223 82.6463 211.223C82.6686 211.223 82.6908 211.123 82.6797 211.006C82.6686 210.889 82.6407 210.8 82.6129 210.8Z" fill="#263238"/>
<path d="M82.1787 210.005C82.1787 210.005 82.2455 210.094 82.3123 210.205C82.3791 210.316 82.4013 210.411 82.4291 210.411C82.457 210.411 82.4736 210.283 82.3957 210.155C82.3178 210.027 82.1898 209.977 82.1787 210.005Z" fill="#263238"/>
<path d="M81.8174 209.499C81.8174 209.499 81.8174 209.571 81.8174 209.632C81.8174 209.693 81.8953 209.738 81.9231 209.721C81.9509 209.705 81.9231 209.649 81.9231 209.588C81.9231 209.526 81.8396 209.482 81.8174 209.499Z" fill="#263238"/>
<path d="M115.94 215.904L115.846 211.63L107.844 211.758L107.916 218.013H108.411C110.637 218.102 119.658 218.302 121.127 217.829C122.785 217.328 115.94 215.904 115.94 215.904Z" fill="#6DDEA2"/>
<g opacity="0.5">
<path d="M110.829 217.9C110.696 217.235 110.324 216.641 109.783 216.231C109.248 215.816 108.577 215.618 107.902 215.675L107.936 217.9H110.829Z" fill="white"/>
</g>
<g opacity="0.4">
<path d="M119.279 216.716C119.279 216.716 121.672 217.367 121.382 217.762C121.093 218.157 111.95 218.318 107.916 218.012V217.829L118.578 217.756C118.578 217.756 118.828 216.744 119.279 216.716Z" fill="white"/>
</g>
<path d="M107.815 217.828H107.955H108.35L109.808 217.873C111.037 217.873 112.735 217.906 114.61 217.873C116.485 217.839 118.182 217.778 119.412 217.717L120.865 217.633L121.26 217.605C121.306 217.613 121.353 217.613 121.399 217.605H121.26H120.865L119.412 217.656C118.182 217.7 116.485 217.75 114.61 217.778C112.735 217.806 111.037 217.778 109.808 217.778H107.815V217.828Z" fill="#263238"/>
<path d="M118.606 217.884C118.663 217.64 118.751 217.404 118.867 217.182C119.006 216.979 119.169 216.792 119.351 216.626C119.114 216.736 118.915 216.916 118.782 217.141C118.649 217.367 118.587 217.628 118.606 217.889V217.884Z" fill="#263238"/>
<path d="M116.223 216.722C116.223 216.722 116.356 216.594 116.467 216.41C116.579 216.226 116.657 216.065 116.634 216.048C116.612 216.032 116.501 216.171 116.389 216.36C116.278 216.549 116.2 216.705 116.223 216.722Z" fill="#263238"/>
<path d="M115.573 216.366C115.573 216.366 115.713 216.299 115.852 216.171C115.991 216.043 116.08 215.932 116.063 215.91C116.046 215.887 115.918 215.976 115.785 216.104C115.651 216.232 115.551 216.366 115.573 216.366Z" fill="#263238"/>
<path d="M115.149 215.635C115.283 215.685 115.426 215.702 115.567 215.685C115.579 215.736 115.609 215.78 115.652 215.809C115.694 215.839 115.746 215.851 115.797 215.845C115.849 215.839 115.896 215.814 115.93 215.776C115.965 215.737 115.984 215.687 115.984 215.635C115.984 215.584 115.965 215.534 115.93 215.495C115.896 215.456 115.849 215.432 115.797 215.425C115.746 215.419 115.694 215.432 115.652 215.461C115.609 215.491 115.579 215.535 115.567 215.585C115.426 215.575 115.284 215.592 115.149 215.635Z" fill="#263238"/>
<path d="M114.998 215.107C115.137 215.196 115.3 215.241 115.465 215.235C115.629 215.263 115.796 215.237 115.944 215.163C115.787 215.149 115.628 215.149 115.471 215.163C115.316 215.129 115.157 215.11 114.998 215.107Z" fill="#263238"/>
<path d="M116.496 216.02C116.666 216.048 116.839 216.048 117.008 216.02C117.198 215.996 117.384 215.951 117.565 215.886C117.674 215.858 117.779 215.813 117.876 215.753C117.937 215.716 117.982 215.659 118.004 215.592C118.012 215.554 118.008 215.514 117.993 215.479C117.978 215.443 117.953 215.413 117.921 215.391C117.723 215.297 117.499 215.274 117.287 215.327C117.075 215.379 116.888 215.505 116.758 215.681C116.683 215.786 116.628 215.905 116.596 216.031C116.587 216.077 116.587 216.124 116.596 216.17C116.646 216.01 116.723 215.859 116.824 215.725C116.937 215.587 117.088 215.487 117.258 215.436C117.357 215.399 117.462 215.382 117.567 215.387C117.673 215.392 117.776 215.418 117.871 215.464C117.954 215.525 117.926 215.619 117.837 215.675C117.746 215.729 117.649 215.772 117.548 215.803C117.376 215.866 117.199 215.916 117.019 215.953C116.68 215.998 116.496 216.003 116.496 216.02Z" fill="#263238"/>
<path d="M116.619 216.042C116.675 215.932 116.692 215.807 116.669 215.686C116.654 215.55 116.604 215.42 116.525 215.308C116.481 215.232 116.418 215.169 116.343 215.125C116.268 215.08 116.183 215.055 116.096 215.052C116.043 215.064 115.997 215.096 115.968 215.142C115.939 215.188 115.929 215.243 115.94 215.297C115.953 215.378 115.983 215.456 116.029 215.525C116.098 215.638 116.183 215.741 116.28 215.831C116.441 215.987 116.569 216.042 116.575 216.031C116.58 216.02 116.469 215.942 116.324 215.781C116.238 215.689 116.165 215.586 116.107 215.475C116.035 215.369 115.985 215.174 116.107 215.152C116.23 215.13 116.369 215.263 116.447 215.363C116.521 215.462 116.572 215.576 116.597 215.697C116.616 215.811 116.623 215.927 116.619 216.042Z" fill="#263238"/>
<path d="M107.949 215.636C107.949 215.636 108.177 215.608 108.538 215.636C109.014 215.683 109.467 215.865 109.843 216.161C110.218 216.457 110.502 216.854 110.659 217.306C110.787 217.645 110.803 217.862 110.82 217.862C110.831 217.809 110.831 217.754 110.82 217.701C110.802 217.553 110.771 217.408 110.725 217.267C110.57 216.801 110.282 216.391 109.896 216.087C109.505 215.79 109.034 215.616 108.544 215.586C108.398 215.57 108.251 215.57 108.104 215.586C107.999 215.614 107.943 215.631 107.949 215.636Z" fill="#263238"/>
<path d="M108.707 212.292C108.663 212.847 108.65 213.405 108.668 213.961C108.651 214.509 108.668 215.057 108.718 215.603C108.764 215.057 108.779 214.509 108.762 213.961C108.78 213.404 108.762 212.847 108.707 212.292Z" fill="#263238"/>
<path d="M111.827 217.105C112.213 217.185 112.607 217.218 113.001 217.205C113.394 217.218 113.787 217.179 114.17 217.089C114.17 217.061 113.641 217.089 112.996 217.089C112.35 217.089 111.833 217.077 111.827 217.105Z" fill="#263238"/>
<path d="M110.258 217.127C110.258 217.127 110.302 217.238 110.358 217.355C110.414 217.472 110.447 217.578 110.475 217.578C110.503 217.578 110.514 217.45 110.447 217.316C110.38 217.182 110.275 217.105 110.258 217.127Z" fill="#263238"/>
<path d="M109.656 216.398C109.656 216.398 109.69 216.504 109.773 216.582C109.857 216.66 109.94 216.721 109.962 216.699C109.985 216.677 109.929 216.599 109.845 216.515C109.762 216.432 109.673 216.365 109.656 216.398Z" fill="#263238"/>
<path d="M108.805 216.075C108.805 216.075 108.916 216.075 109.039 216.142C109.161 216.209 109.239 216.242 109.261 216.226C109.283 216.209 109.211 216.098 109.066 216.048C108.922 215.998 108.799 216.053 108.805 216.075Z" fill="#263238"/>
<path d="M108.199 215.925C108.199 215.953 108.238 215.992 108.305 216.02C108.372 216.048 108.433 216.02 108.444 216.02C108.455 216.02 108.405 215.959 108.338 215.931C108.272 215.903 108.21 215.903 108.199 215.925Z" fill="#263238"/>
<path d="M104.372 125.105C104.372 125.105 101.706 136.379 102.463 138.61C103.22 140.841 108.094 142.132 108.094 142.132L107.933 173.011L80.9277 206.399L90.8996 214.562C90.8996 214.562 120.131 181.118 122.707 175.053C125.284 168.988 121.038 124.609 121.038 124.609L104.372 125.105Z" fill="#263238"/>
<path d="M118.165 120.525L119.489 214.306L105.75 214.373L96.8468 139.506C95.489 135.054 93.942 130.408 94.2203 125.099L96.0622 119.707L118.165 120.525Z" fill="#263238"/>
<path d="M102.234 134.848C102.349 134.932 102.457 135.025 102.557 135.126C102.752 135.321 103.047 135.61 103.403 136C104.126 136.779 105.139 137.942 106.347 139.444V139.477C106.597 143.679 107.092 149.805 107.688 156.611C108.161 162.176 108.65 167.217 108.951 171.163V171.202L108.923 171.235L105.1 176.354L104.043 177.746L103.759 178.107L103.653 178.224C103.653 178.224 103.653 178.174 103.731 178.085L103.987 177.707L105 176.277L108.745 171.101V171.168C108.383 167.228 107.921 162.159 107.415 156.633C106.82 149.828 106.363 143.695 106.169 139.489V139.544C104.983 138.031 103.993 136.845 103.297 136.05C102.952 135.649 102.674 135.348 102.49 135.143C102.396 135.053 102.31 134.954 102.234 134.848Z" fill="#455A64"/>
<path d="M117.304 171.525C116.119 171.027 114.869 170.701 113.592 170.556C112.311 170.505 111.028 170.628 109.78 170.924C110.107 170.719 110.47 170.578 110.849 170.506C112.668 170.038 114.591 170.191 116.313 170.94C116.678 171.068 117.015 171.267 117.304 171.525Z" fill="#455A64"/>
<path d="M122.151 175.865C122.212 175.915 118.35 181.101 113.52 187.45C108.69 193.799 104.722 198.908 104.661 198.858C104.6 198.808 108.456 193.621 113.292 187.272C118.127 180.923 122.062 175.82 122.151 175.865Z" fill="#455A64"/>
<path d="M121.504 127.492C121.344 127.896 121.077 128.248 120.73 128.51C120.333 128.86 119.867 129.124 119.363 129.285C118.858 129.445 118.326 129.5 117.799 129.444C117.273 129.389 116.763 129.225 116.303 128.963C115.843 128.7 115.443 128.345 115.127 127.92C114.834 127.596 114.641 127.194 114.57 126.763C114.786 127.118 115.02 127.461 115.271 127.792C115.908 128.56 116.82 129.048 117.812 129.152C118.805 129.256 119.798 128.968 120.58 128.349C121.181 127.887 121.432 127.458 121.504 127.492Z" fill="#455A64"/>
<path d="M91.8786 100.386C91.8786 100.386 89.7919 115.644 91.8786 117.575C93.9654 119.506 95.9631 118.871 95.9631 118.871L99.9307 115.533L100.71 100.363L91.8786 100.386Z" fill="#FFB8B8"/>
<path d="M93.8044 87.9893C93.8044 87.9893 90.8218 91.3614 90.2041 104.255C90.2041 104.255 98.7013 105.868 98.8571 105.401C99.0129 104.934 93.8044 87.9893 93.8044 87.9893Z" fill="#6DDEA2"/>
<path d="M94.198 125.104L121.27 125.544L120.853 121.471C120.853 121.471 117.87 105.962 117.892 105.762L118.36 104.771C118.985 103.567 119.331 102.236 119.371 100.88C119.41 99.523 119.142 98.1749 118.588 96.9361H131.732L131.175 86.2742L117.38 84.2431L112.25 83.8369C112.25 83.8369 103.207 84.3099 103.012 84.3322C99.2284 84.7885 94.8268 85.0778 93.2186 89.1289C92.3561 91.2936 93.1741 94.5433 94.5764 97.8988L97.9151 108.188C99.2507 113.847 97.1194 113.58 95.9508 119.273C95.7839 120.13 94.1813 124.309 94.198 125.104Z" fill="#6DDEA2"/>
<path d="M129.617 86.7528C129.617 86.8307 121.899 86.8975 112.367 86.8975C102.834 86.8975 95.1162 86.8307 95.1162 86.7528C95.1162 86.6749 102.829 86.6025 112.367 86.6025C121.904 86.6025 129.617 86.6693 129.617 86.7528Z" fill="#FAFAFA"/>
<path d="M130.408 91.8722C130.408 91.9557 121.827 92.0169 111.238 92.0169C100.648 92.0169 92.0674 91.9557 92.0674 91.8722C92.0674 91.7887 100.648 91.7275 111.238 91.7275C121.827 91.7275 130.408 91.7943 130.408 91.8722Z" fill="#FAFAFA"/>
<path d="M94.198 97.704C93.142 97.8965 92.0599 97.8965 91.0039 97.704C92.0599 97.5114 93.142 97.5114 94.198 97.704Z" fill="#FAFAFA"/>
<path d="M119.278 97.882C119.278 97.9599 113.663 98.0267 106.741 98.0267C99.8186 98.0267 94.1982 97.9599 94.1982 97.882C94.1982 97.8041 99.813 97.7373 106.741 97.7373C113.669 97.7373 119.278 97.8041 119.278 97.882Z" fill="#FAFAFA"/>
<path d="M118.721 103.892C118.721 103.97 113.679 104.036 107.464 104.036C101.248 104.036 96.2119 103.97 96.2119 103.892C96.2119 103.814 101.248 103.747 107.464 103.747C113.679 103.747 118.721 103.808 118.721 103.892Z" fill="#FAFAFA"/>
<path d="M118.561 109.457C118.561 109.535 113.993 109.602 108.361 109.602C102.73 109.602 98.1611 109.535 98.1611 109.457C98.1611 109.379 102.73 109.312 108.361 109.312C113.993 109.312 118.561 109.379 118.561 109.457Z" fill="#FAFAFA"/>
<path d="M119.456 113.975C119.456 114.053 114.571 114.119 108.544 114.119C102.518 114.119 97.6318 114.053 97.6318 113.975C97.6318 113.897 102.518 113.83 108.544 113.83C114.571 113.83 119.456 113.88 119.456 113.975Z" fill="#FAFAFA"/>
<path d="M120.871 119.707C120.871 119.785 115.306 119.852 108.456 119.852C101.606 119.852 96.041 119.785 96.041 119.707C96.041 119.629 101.606 119.562 108.456 119.562C115.306 119.562 120.871 119.624 120.871 119.707Z" fill="#FAFAFA"/>
<path d="M97.7703 107.704C97.673 107.544 97.5964 107.372 97.5422 107.192C97.3864 106.792 97.2083 106.319 96.9857 105.768C96.5294 104.56 95.8728 102.902 95.2106 101.054C94.5484 99.2069 93.9808 97.5097 93.6302 96.2632C93.4522 95.6456 93.3242 95.1503 93.2463 94.783C93.1955 94.6015 93.1656 94.4148 93.1572 94.2266C93.414 94.8749 93.6369 95.5361 93.825 96.2076C94.2256 97.4262 94.8099 99.1068 95.4944 100.954C96.1788 102.802 96.7798 104.471 97.1916 105.695C97.3975 106.307 97.5533 106.808 97.6535 107.153C97.7205 107.33 97.7599 107.516 97.7703 107.704Z" fill="#263238"/>
<g opacity="0.2">
<path d="M99.7406 117.87C102.275 116.91 104.648 115.57 106.78 113.897C108.92 112.207 110.464 109.877 111.187 107.247C111.304 106.752 111.321 106.101 110.87 105.862C110.699 105.793 110.51 105.78 110.331 105.825C110.152 105.87 109.992 105.971 109.874 106.112C109.639 106.4 109.451 106.723 109.317 107.069C108.79 108.214 107.961 109.193 106.919 109.902C105.728 110.709 104.32 111.115 102.985 111.643C101.649 112.172 100.303 112.879 99.5013 114.07C98.7 115.261 98.6276 117.052 99.6849 118.021" fill="black"/>
</g>
<path d="M112.045 102.479C112.045 102.479 112.045 102.556 112.045 102.696C112.045 102.835 112.045 103.052 112.045 103.324C111.993 104.09 111.881 104.851 111.711 105.6C111.152 108.09 110.014 110.412 108.389 112.379C106.763 114.346 104.697 115.901 102.357 116.919C101.654 117.227 100.929 117.48 100.187 117.676C99.9253 117.748 99.7194 117.787 99.5803 117.815C99.5096 117.834 99.4365 117.843 99.3633 117.843C99.6183 117.729 99.8827 117.638 100.153 117.57C100.877 117.334 101.585 117.054 102.274 116.73C104.555 115.681 106.57 114.131 108.17 112.195C109.769 110.26 110.911 107.988 111.511 105.55C111.696 104.817 111.837 104.074 111.934 103.324C111.951 103.04 111.988 102.758 112.045 102.479Z" fill="#263238"/>
<path d="M132.994 60.2318C132.994 60.2318 132.933 59.8868 132.877 59.2079C132.815 58.1984 132.894 57.1852 133.111 56.1974C133.535 54.2914 134.4 52.5115 135.637 51.0009C136.874 49.4903 138.449 48.2911 140.234 47.4998C141.46 46.9589 142.76 46.6009 144.09 46.437C145.556 46.2499 147.041 46.2817 148.497 46.5316C151.818 47.1249 154.87 48.7441 157.223 51.1614C158.545 52.4758 159.67 53.9754 160.561 55.6131C161.498 57.3676 162.132 59.2678 162.437 61.2334C162.772 63.3149 162.709 65.441 162.253 67.4992C162.015 68.569 161.652 69.6073 161.174 70.5932C160.671 71.6014 160.034 72.5372 159.282 73.3755C157.682 75.0868 155.644 76.3263 153.389 76.9591C151.045 77.6069 148.609 77.8571 146.182 77.6992C143.658 77.5881 141.16 77.1427 138.754 76.3748C136.215 75.5867 133.984 74.0315 132.365 71.9231C130.772 69.6871 129.913 67.0116 129.906 64.2662C129.895 62.8704 130.082 61.4802 130.462 60.1372C130.877 58.7833 131.459 57.4862 132.193 56.2753C132.966 55.0627 133.875 53.9425 134.903 52.9365C135.967 51.9421 137.146 51.0773 138.414 50.3601C139.718 49.6627 141.111 49.1461 142.554 48.8242C144.018 48.5247 145.519 48.4459 147.006 48.5905C150.082 48.9338 153.013 50.0794 155.506 51.9126C158 53.7457 159.968 56.2021 161.212 59.0354C162.467 61.9903 162.757 65.2657 162.042 68.3951C161.674 69.9796 160.993 71.4744 160.038 72.7912C159.055 74.1085 157.783 75.1838 156.321 75.9352C154.849 76.6836 153.251 77.1534 151.608 77.3208C149.954 77.4972 148.283 77.4278 146.65 77.115C143.33 76.4825 140.27 74.8857 137.852 72.5241C136.633 71.3335 135.641 69.9305 134.925 68.384C134.208 66.8155 133.876 65.0985 133.957 63.3758C134.146 59.909 135.988 56.6982 138.548 54.3555C141.122 52.0085 144.381 50.5495 147.846 50.1931C149.557 50.0276 151.283 50.1804 152.938 50.6439C154.575 51.1009 156.114 51.8554 157.479 52.8697C158.832 53.8831 159.968 55.1587 160.817 56.6203C161.245 57.3464 161.586 58.1194 161.836 58.9241C161.98 59.3192 162.058 59.731 162.164 60.1372C162.27 60.5434 162.32 60.9607 162.348 61.3781C162.682 64.7106 161.761 68.048 159.766 70.7379C157.769 73.3401 154.951 75.1912 151.769 75.9909C148.665 76.8019 145.386 76.6407 142.376 75.529C136.455 73.3811 131.876 68.1002 130.891 62.1238C130.372 59.1621 130.901 56.1122 132.388 53.4985C133.828 50.9679 135.972 48.9094 138.559 47.5722C141.068 46.2922 143.839 45.6068 146.655 45.5689C149.378 45.513 152.085 45.9835 154.63 46.9545C159.638 48.8465 163.728 52.636 165.525 57.2881C166.377 59.5177 166.714 61.9111 166.511 64.2894C166.308 66.6676 165.569 68.9691 164.351 71.0217C163.19 72.9278 161.555 74.5001 159.604 75.5847C157.757 76.6033 155.722 77.2374 153.622 77.4488C149.773 77.7654 145.913 76.9799 142.493 75.184C139.479 73.7127 136.796 71.6433 134.608 69.1018C132.759 66.9884 131.501 64.4236 130.963 61.6675C130.598 59.4372 130.856 57.1496 131.709 55.0566C132.322 53.5202 133.273 52.1414 134.491 51.0223C135.241 50.3426 136.099 49.7917 137.028 49.3918C137.668 49.1637 138.002 49.0635 138.002 49.0635L137.757 49.1525C137.596 49.2138 137.351 49.2972 137.04 49.4196C136.119 49.8376 135.271 50.4013 134.53 51.089C133.333 52.2108 132.402 53.5852 131.803 55.1123C130.965 57.1895 130.713 59.4569 131.074 61.6675C131.611 64.4219 132.871 66.984 134.725 69.0907C136.908 71.6096 139.579 73.6598 142.576 75.1172C145.978 76.8944 149.815 77.6665 153.639 77.3431C155.711 77.1293 157.719 76.501 159.543 75.4956C161.463 74.424 163.07 72.8705 164.206 70.9883C165.405 68.9627 166.131 66.6926 166.329 64.3473C166.528 62.0019 166.194 59.6421 165.353 57.4439C163.572 52.8642 159.504 49.0969 154.579 47.255C152.063 46.2988 149.386 45.8378 146.694 45.8972C143.916 45.933 141.184 46.609 138.709 47.8727C136.167 49.1843 134.057 51.2014 132.632 53.6822C131.177 56.2439 130.659 59.2329 131.169 62.1349C132.137 68.0056 136.656 73.2141 142.487 75.3231C145.445 76.4174 148.669 76.5747 151.719 75.7739C154.838 74.9901 157.599 73.174 159.554 70.621C161.522 67.9948 162.439 64.7284 162.125 61.4616C162.097 61.0554 162.003 60.6547 161.941 60.2485C161.683 59.046 161.242 57.89 160.634 56.8206C159.792 55.3917 158.674 54.145 157.345 53.1535C154.633 51.1227 151.255 50.1889 147.885 50.5381C144.485 50.8811 141.285 52.3049 138.754 54.6003C136.244 56.8819 134.441 60.0481 134.257 63.4203C134.179 65.0987 134.501 66.7716 135.198 68.3005C135.901 69.8125 136.872 71.1849 138.064 72.3516C140.442 74.6736 143.451 76.2433 146.717 76.8645C148.321 77.1718 149.961 77.2412 151.586 77.0704C153.195 76.9113 154.76 76.4507 156.199 75.7127C157.625 74.9844 158.865 73.9371 159.821 72.6521C160.755 71.3698 161.421 69.9126 161.78 68.3673C162.48 65.2937 162.196 62.0777 160.968 59.1745C159.744 56.383 157.809 53.9617 155.356 52.1531C152.903 50.3444 150.018 49.2119 146.989 48.8687C145.524 48.7297 144.047 48.8065 142.604 49.0969C141.188 49.4157 139.822 49.9249 138.542 50.6105C137.291 51.3108 136.129 52.159 135.081 53.1368C134.066 54.1233 133.169 55.2252 132.41 56.42C131.685 57.6094 131.112 58.8842 130.701 60.2151C130.326 61.5344 130.139 62.9001 130.145 64.2717C130.152 66.9648 130.994 69.5895 132.555 71.784C134.141 73.8474 136.328 75.3678 138.815 76.1356C141.199 76.9036 143.675 77.3545 146.177 77.4767C148.579 77.6381 150.99 77.3935 153.311 76.7533C154.961 76.3203 156.5 75.5384 157.823 74.4604C159.145 73.3824 160.222 72.0334 160.979 70.5041C161.452 69.5326 161.811 68.5092 162.047 67.4547C162.5 65.4206 162.566 63.3197 162.242 61.2612C161.638 57.4627 159.841 53.9549 157.111 51.2449C154.783 48.848 151.763 47.2389 148.475 46.6429C147.032 46.3913 145.56 46.3576 144.107 46.5427C142.786 46.6999 141.496 47.0506 140.278 47.5833C138.223 48.4761 136.452 49.9158 135.159 51.7457C134.207 53.0833 133.53 54.5964 133.167 56.1974C132.946 57.181 132.858 58.1898 132.905 59.1968C132.905 59.5362 132.961 59.7922 132.972 59.9647C132.983 60.1372 132.994 60.2318 132.994 60.2318Z" fill="#6DDEA2"/>
<path d="M154.891 57.3487C154.891 57.421 151.268 58.6341 146.75 60.0531C142.231 61.4721 138.542 62.5627 138.52 62.4848C138.497 62.4069 142.142 61.1994 146.661 59.7804C151.179 58.3614 154.841 57.2707 154.891 57.3487Z" fill="#6DDEA2"/>
<path d="M155.899 59.9986C155.927 60.0709 152.527 61.3118 148.309 62.7809C144.091 64.25 140.658 65.3462 140.63 65.2683C140.602 65.1904 144.002 63.9551 148.22 62.486C152.438 61.0169 155.872 59.9151 155.899 59.9986Z" fill="#6DDEA2"/>
<path d="M149.672 65.4303C149.761 65.5528 148.003 66.2483 145.877 67.0051C144.809 67.3835 143.83 67.7063 143.095 67.9289C142.718 68.0775 142.323 68.1784 141.921 68.2294C142.271 68.0211 142.645 67.8548 143.034 67.7341C143.729 67.467 144.703 67.1109 145.766 66.7325C146.829 66.3541 147.814 66.0202 148.521 65.7865C149.227 65.5528 149.7 65.4192 149.672 65.4303Z" fill="#6DDEA2"/>
<path d="M152.811 68.0497C152.811 68.0497 150.263 66.87 150.14 67.4933C150.018 68.1165 150.19 68.3669 150.697 68.5227C151.203 68.6785 152.583 69.146 152.583 69.146L152.811 68.0497Z" fill="#FFB8B8"/>
<path d="M152.666 69.2128C152.666 69.2128 150.118 68.0331 149.995 68.6563C149.873 69.2796 150.04 69.5244 150.552 69.6858C151.064 69.8472 152.438 70.3091 152.438 70.3091L152.666 69.2128Z" fill="#EB996E"/>
<path d="M146.806 71.8178L137.135 84.483C135.755 86.5252 133.613 87.5436 132.166 87.5825L131.259 87.6604L131.71 96.2912L135.527 95.8572C136.716 95.7216 137.857 95.3098 138.859 94.6547C139.861 93.9997 140.696 93.1194 141.297 92.0843L151.13 75.0898C151.778 73.997 152.355 72.8632 152.855 71.6954C153.412 70.2263 152.811 68.0283 152.811 68.0283L148.915 70.4879V67.8335C148.915 67.8335 148.498 67.6888 147.686 68.4846C146.985 69.1913 146.806 71.8178 146.806 71.8178Z" fill="#FFB8B8"/>
<path d="M148.854 66.7089L148.904 76.0519C148.904 76.1552 148.926 76.2573 148.967 76.3519C149.009 76.4465 149.069 76.5316 149.145 76.6019C149.22 76.6723 149.309 76.7265 149.407 76.7611C149.504 76.7957 149.607 76.81 149.71 76.8032C149.901 76.7891 150.08 76.7032 150.21 76.5628C150.34 76.4223 150.412 76.2378 150.412 76.0464V66.5865L149.521 65.1396L148.854 66.7089Z" fill="#455A64"/>
<path d="M149.51 65.167L149.266 65.729L149.839 65.7012L149.51 65.167Z" fill="#263238"/>
<path d="M150.402 66.6085C150.179 66.7741 149.906 66.8603 149.628 66.8533C149.354 66.8858 149.075 66.8375 148.827 66.7142C148.827 66.6753 149.189 66.7643 149.623 66.742C150.057 66.7198 150.385 66.5751 150.402 66.6085Z" fill="#263238"/>
<path d="M149.605 76.8032C149.585 76.6725 149.575 76.5404 149.577 76.4081C149.577 76.0854 149.577 75.7292 149.577 75.3341C149.577 74.3269 149.577 73.1083 149.549 71.7894C149.522 70.4706 149.549 69.2575 149.549 68.2503C149.549 67.8552 149.549 67.4991 149.549 67.1763C149.536 67.045 149.536 66.9126 149.549 66.7812C149.559 66.9128 149.559 67.0448 149.549 67.1763C149.549 67.4991 149.549 67.8552 149.549 68.2503C149.549 69.2575 149.549 70.4762 149.549 71.7894C149.549 73.1027 149.549 74.3269 149.549 75.3341C149.549 75.7292 149.549 76.0854 149.549 76.4081C149.575 76.5387 149.593 76.6706 149.605 76.8032Z" fill="#263238"/>
<path d="M282.13 3.20317C282.672 3.20317 283.11 2.7644 283.11 2.22316C283.11 1.68192 282.672 1.24316 282.13 1.24316C281.589 1.24316 281.15 1.68192 281.15 2.22316C281.15 2.7644 281.589 3.20317 282.13 3.20317Z" fill="#6DDEA2"/>
<path d="M218.48 86.7832C219.021 86.7832 219.46 86.3445 219.46 85.8032C219.46 85.262 219.021 84.8232 218.48 84.8232C217.939 84.8232 217.5 85.262 217.5 85.8032C217.5 86.3445 217.939 86.7832 218.48 86.7832Z" fill="#6DDEA2"/>
<path d="M232.9 2.63285C233.441 2.63285 233.88 2.19409 233.88 1.65285C233.88 1.11161 233.441 0.672852 232.9 0.672852C232.359 0.672852 231.92 1.11161 231.92 1.65285C231.92 2.19409 232.359 2.63285 232.9 2.63285Z" fill="#6DDEA2"/>
<path d="M310.73 39.3633C311.271 39.3633 311.71 38.9246 311.71 38.3833C311.71 37.8421 311.271 37.4033 310.73 37.4033C310.189 37.4033 309.75 37.8421 309.75 38.3833C309.75 38.9246 310.189 39.3633 310.73 39.3633Z" fill="#6DDEA2"/>
<path d="M256.359 93.7725V98.0825" stroke="#6DDEA2" stroke-linecap="round" stroke-linejoin="round"/>
<path d="M254.199 95.9326H258.509" stroke="#6DDEA2" stroke-linecap="round" stroke-linejoin="round"/>
<path d="M299.961 20.6025V24.9125" stroke="#6DDEA2" stroke-linecap="round" stroke-linejoin="round"/>
<path d="M297.801 22.7627H302.111" stroke="#6DDEA2" stroke-linecap="round" stroke-linejoin="round"/>
<path d="M250.541 14.5332V18.8432" stroke="#6DDEA2" stroke-linecap="round" stroke-linejoin="round"/>
<path d="M248.391 16.6836H252.691" stroke="#6DDEA2" stroke-linecap="round" stroke-linejoin="round"/>
<path d="M65.1304 97.2032C65.6716 97.2032 66.1104 96.7644 66.1104 96.2232C66.1104 95.6819 65.6716 95.2432 65.1304 95.2432C64.5892 95.2432 64.1504 95.6819 64.1504 96.2232C64.1504 96.7644 64.5892 97.2032 65.1304 97.2032Z" fill="#6DDEA2"/>
<path d="M1.48 180.783C2.02124 180.783 2.46 180.344 2.46 179.803C2.46 179.262 2.02124 178.823 1.48 178.823C0.93876 178.823 0.5 179.262 0.5 179.803C0.5 180.344 0.93876 180.783 1.48 180.783Z" fill="#6DDEA2"/>
<path d="M15.8999 96.6329C16.4412 96.6329 16.8799 96.1941 16.8799 95.6529C16.8799 95.1116 16.4412 94.6729 15.8999 94.6729C15.3587 94.6729 14.9199 95.1116 14.9199 95.6529C14.9199 96.1941 15.3587 96.6329 15.8999 96.6329Z" fill="#6DDEA2"/>
<path d="M93.73 133.363C94.2712 133.363 94.71 132.925 94.71 132.383C94.71 131.842 94.2712 131.403 93.73 131.403C93.1888 131.403 92.75 131.842 92.75 132.383C92.75 132.925 93.1888 133.363 93.73 133.363Z" fill="#6DDEA2"/>
<path d="M39.3594 187.772V192.082" stroke="#6DDEA2" stroke-linecap="round" stroke-linejoin="round"/>
<path d="M37.1992 189.933H41.5092" stroke="#6DDEA2" stroke-linecap="round" stroke-linejoin="round"/>
<path d="M82.9609 114.603V118.913" stroke="#6DDEA2" stroke-linecap="round" stroke-linejoin="round"/>
<path d="M80.8008 116.763H85.1108" stroke="#6DDEA2" stroke-linecap="round" stroke-linejoin="round"/>
<path d="M33.541 108.533V112.843" stroke="#6DDEA2" stroke-linecap="round" stroke-linejoin="round"/>
<path d="M31.3906 110.684H35.6906" stroke="#6DDEA2" stroke-linecap="round" stroke-linejoin="round"/>
</svg>
