<svg width="317" height="248" viewBox="0 0 317 248" fill="none" xmlns="http://www.w3.org/2000/svg">
<path d="M99.1562 20.3851C99.1562 20.3851 131.304 55.0592 200.514 15.4411C261.98 -19.7433 288.315 59.8148 281.082 94.0442C271.712 138.385 212.026 163.687 230.801 197.671C249.576 231.656 163.886 265.021 132.556 215.577C93.5827 154.069 70.6893 193.406 41.9845 187.808C21.3831 183.791 -10.3049 127.382 26.1504 97.1198C56.8271 71.6551 45.923 59.0922 41.877 47.4012C36.0416 30.5401 66.801 -6.13951 99.1562 20.3851Z" fill="#D7F3E4"/>
<path d="M284.058 5.02391C284.658 5.02391 285.145 4.53739 285.145 3.93725C285.145 3.3371 284.658 2.85059 284.058 2.85059C283.458 2.85059 282.971 3.3371 282.971 3.93725C282.971 4.53739 283.458 5.02391 284.058 5.02391Z" fill="#6DDEA2"/>
<path d="M213.478 97.7016C214.078 97.7016 214.564 97.2151 214.564 96.615C214.564 96.0148 214.078 95.5283 213.478 95.5283C212.878 95.5283 212.391 96.0148 212.391 96.615C212.391 97.2151 212.878 97.7016 213.478 97.7016Z" fill="#6DDEA2"/>
<path d="M229.468 4.3911C230.069 4.3911 230.555 3.90458 230.555 3.30443C230.555 2.70429 230.069 2.21777 229.468 2.21777C228.868 2.21777 228.382 2.70429 228.382 3.30443C228.382 3.90458 228.868 4.3911 229.468 4.3911Z" fill="#6DDEA2"/>
<path d="M315.77 45.1196C316.37 45.1196 316.856 44.6331 316.856 44.0329C316.856 43.4328 316.37 42.9463 315.77 42.9463C315.17 42.9463 314.683 43.4328 314.683 44.0329C314.683 44.6331 315.17 45.1196 315.77 45.1196Z" fill="#6DDEA2"/>
<path d="M255.481 105.45V110.229" stroke="#6DDEA2" stroke-width="1.10884" stroke-linecap="round" stroke-linejoin="round"/>
<path d="M253.086 107.846H257.865" stroke="#6DDEA2" stroke-width="1.10884" stroke-linecap="round" stroke-linejoin="round"/>
<path d="M303.829 24.3174V29.0965" stroke="#6DDEA2" stroke-width="1.10884" stroke-linecap="round" stroke-linejoin="round"/>
<path d="M301.434 26.7119H306.213" stroke="#6DDEA2" stroke-width="1.10884" stroke-linecap="round" stroke-linejoin="round"/>
<path d="M249.03 17.5859V22.365" stroke="#6DDEA2" stroke-width="1.10884" stroke-linecap="round" stroke-linejoin="round"/>
<path d="M246.646 19.9707H251.414" stroke="#6DDEA2" stroke-width="1.10884" stroke-linecap="round" stroke-linejoin="round"/>
<path d="M72.2703 84.8598C72.8704 84.8598 73.3569 84.3733 73.3569 83.7732C73.3569 83.173 72.8704 82.6865 72.2703 82.6865C71.6701 82.6865 71.1836 83.173 71.1836 83.7732C71.1836 84.3733 71.6701 84.8598 72.2703 84.8598Z" fill="#6DDEA2"/>
<path d="M1.69359 177.537C2.29374 177.537 2.78026 177.05 2.78026 176.45C2.78026 175.85 2.29374 175.363 1.69359 175.363C1.09345 175.363 0.606934 175.85 0.606934 176.45C0.606934 177.05 1.09345 177.537 1.69359 177.537Z" fill="#6DDEA2"/>
<path d="M17.6824 84.227C18.2825 84.227 18.769 83.7405 18.769 83.1404C18.769 82.5402 18.2825 82.0537 17.6824 82.0537C17.0822 82.0537 16.5957 82.5402 16.5957 83.1404C16.5957 83.7405 17.0822 84.227 17.6824 84.227Z" fill="#6DDEA2"/>
<path d="M103.984 124.955C104.584 124.955 105.07 124.468 105.07 123.868C105.07 123.268 104.584 122.781 103.984 122.781C103.383 122.781 102.897 123.268 102.897 123.868C102.897 124.468 103.383 124.955 103.984 124.955Z" fill="#6DDEA2"/>
<path d="M43.6943 185.286V190.065" stroke="#6DDEA2" stroke-width="1.10884" stroke-linecap="round" stroke-linejoin="round"/>
<path d="M41.2993 187.681H46.0784" stroke="#6DDEA2" stroke-width="1.10884" stroke-linecap="round" stroke-linejoin="round"/>
<path d="M92.041 104.152V108.931" stroke="#6DDEA2" stroke-width="1.10884" stroke-linecap="round" stroke-linejoin="round"/>
<path d="M89.6479 106.547H94.427" stroke="#6DDEA2" stroke-width="1.10884" stroke-linecap="round" stroke-linejoin="round"/>
<path d="M37.2437 97.4219V102.201" stroke="#6DDEA2" stroke-width="1.10884" stroke-linecap="round" stroke-linejoin="round"/>
<path d="M34.8599 99.8066H39.6279" stroke="#6DDEA2" stroke-width="1.10884" stroke-linecap="round" stroke-linejoin="round"/>
<g clip-path="url(#clip0_309_12128)">
<path fill-rule="evenodd" clip-rule="evenodd" d="M268.807 144.45C268.807 150.574 263.835 155.538 257.702 155.538H191.149C185.016 155.538 180.044 150.574 180.044 144.45V35.3378C180.044 29.2142 185.016 24.25 191.149 24.25C191.149 24.25 258.579 24.2757 259.007 24.3257C264.525 24.9706 268.807 29.655 268.807 35.3378V144.45Z" fill="white"/>
<path fill-rule="evenodd" clip-rule="evenodd" d="M191.148 156.017H257.701C264.089 156.017 269.286 150.828 269.286 144.45V59.7452C269.286 59.481 269.071 59.2666 268.806 59.2666C268.542 59.2666 268.327 59.481 268.327 59.7452V144.45C268.327 150.3 263.56 155.059 257.701 155.059H191.148C185.289 155.059 180.523 150.3 180.523 144.45V35.3378C180.523 29.4878 185.289 24.7286 191.148 24.7286H257.701C258.12 24.7286 258.54 24.753 258.951 24.8013C264.296 25.426 268.327 29.9558 268.327 35.3378V48.8594C268.327 49.1236 268.542 49.338 268.806 49.338C269.071 49.338 269.286 49.1236 269.286 48.8594V35.3378C269.286 29.4703 264.891 24.5317 259.062 23.8502C258.615 23.7979 258.157 23.7715 257.701 23.7715H191.148C184.761 23.7715 179.564 28.9602 179.564 35.3378V144.45C179.564 150.828 184.761 156.017 191.148 156.017Z" fill="#8D95BE" fill-opacity="0.41"/>
<path fill-rule="evenodd" clip-rule="evenodd" d="M214.208 93.8354H232.46C233.673 93.8354 234.657 92.8533 234.657 91.6418C234.657 90.4304 233.673 89.4482 232.46 89.4482H214.208C212.994 89.4482 212.011 90.4304 212.011 91.6418C212.011 92.8533 212.994 93.8354 214.208 93.8354Z" fill="#D2F0E0"/>
<path fill-rule="evenodd" clip-rule="evenodd" d="M192.306 108.187H254.359C255.572 108.187 256.556 107.205 256.556 105.993C256.556 104.782 255.572 103.8 254.359 103.8H192.306C191.093 103.8 190.109 104.782 190.109 105.993C190.109 107.205 191.093 108.187 192.306 108.187Z" fill="#D2F0E0"/>
<path fill-rule="evenodd" clip-rule="evenodd" d="M192.306 116.631H254.359C255.572 116.631 256.556 115.649 256.556 114.438C256.556 113.226 255.572 112.244 254.359 112.244H192.306C191.093 112.244 190.109 113.226 190.109 114.438C190.109 115.649 191.093 116.631 192.306 116.631Z" fill="#D2F0E0"/>
<path fill-rule="evenodd" clip-rule="evenodd" d="M239.688 72.5104C235.9 76.0802 230.795 78.2725 225.175 78.2725C219.554 78.2725 214.449 76.0802 210.661 72.5104C215.044 71.1548 219.968 70.3926 225.175 70.3926C230.381 70.3926 235.305 71.1548 239.688 72.5104Z" fill="#D2F0E0"/>
<path fill-rule="evenodd" clip-rule="evenodd" d="M217.919 58.237L215.933 51.5907C215.182 49.0762 216.185 46.3685 218.394 44.9477C219.347 44.3344 220.458 44.0088 221.592 44.0088H228.268C229.758 44.0088 231.193 44.5715 232.286 45.5843L232.652 45.9235C234.387 47.5319 234.991 50.019 234.189 52.243L231.994 58.325L217.919 58.237Z" fill="#D2F0E0"/>
<path fill-rule="evenodd" clip-rule="evenodd" d="M224.706 47.1279H232.097V58.0606C232.097 60.321 231.138 62.3321 229.22 63.6352V69.6551C229.22 72.0348 227.29 73.964 224.906 73.964C222.523 73.964 220.592 72.0348 220.592 69.6551V63.7986C218.994 62.504 217.716 60.4166 217.716 58.0606V53.8705C217.716 50.073 220.903 47.1279 224.706 47.1279Z" fill="white"/>
<path fill-rule="evenodd" clip-rule="evenodd" d="M225.051 74.4423C227.695 74.4423 229.846 72.2947 229.846 69.6549V63.6905C229.846 63.4263 229.631 63.2119 229.366 63.2119C229.102 63.2119 228.887 63.4263 228.887 63.6905V69.6549C228.887 71.767 227.166 73.4851 225.051 73.4851C222.935 73.4851 221.214 71.767 221.214 69.6549V63.9367C221.214 63.6725 221 63.4581 220.735 63.4581C220.47 63.4581 220.255 63.6725 220.255 63.9367V69.6549C220.255 72.2947 222.407 74.4423 225.051 74.4423Z" fill="#D2F0E0"/>
<path fill-rule="evenodd" clip-rule="evenodd" d="M224.943 65.6533C225.208 65.6533 225.422 65.4389 225.422 65.1747C225.422 64.9104 225.208 64.696 224.943 64.696C221.278 64.696 218.297 61.7196 218.297 58.0608V53.8707C218.297 50.3431 221.171 47.4729 224.704 47.4729H231.589V58.0608C231.589 60.6561 230.06 63.0281 227.693 64.1034C227.452 64.2128 227.346 64.4967 227.456 64.7372C227.565 64.978 227.849 65.0836 228.091 64.9746C230.798 63.7441 232.547 61.0303 232.547 58.0608V46.9943C232.547 46.73 232.333 46.5156 232.068 46.5156H224.704C220.643 46.5156 217.338 49.8152 217.338 53.8707V58.0608C217.338 62.2472 220.75 65.6533 224.943 65.6533Z" fill="#D2F0E0"/>
<path fill-rule="evenodd" clip-rule="evenodd" d="M220.294 46.7314L231.804 54.1968V46.9951C231.804 46.9951 220.294 46.9071 220.294 46.7314Z" fill="#D2F0E0"/>
<path fill-rule="evenodd" clip-rule="evenodd" d="M225.177 78.7526C237.108 78.7526 246.814 69.0611 246.814 57.1489C246.814 45.2364 237.108 35.5449 225.177 35.5449C213.812 35.5449 204.328 44.4063 203.587 55.7183C203.57 55.982 203.77 56.2097 204.034 56.2272C204.298 56.2415 204.527 56.0445 204.544 55.7807C205.252 44.9703 214.315 36.5022 225.177 36.5022C236.579 36.5022 245.855 45.7642 245.855 57.1489C245.855 68.5333 236.579 77.7953 225.177 77.7953C219.2 77.7953 213.517 75.2131 209.585 70.7108C209.411 70.5113 209.109 70.4905 208.909 70.6643C208.71 70.8382 208.689 71.1405 208.863 71.3395C212.976 76.0506 218.923 78.7526 225.177 78.7526Z" fill="#D2F0E0"/>
<path fill-rule="evenodd" clip-rule="evenodd" d="M34.3389 156.807H100.629C106.744 156.807 111.702 151.857 111.702 145.751V36.8526C111.702 30.7466 106.744 25.7969 100.629 25.7969H34.3389C28.2236 25.7969 23.2661 30.7466 23.2661 36.8526V145.751C23.2661 151.857 28.2236 156.807 34.3389 156.807Z" fill="white"/>
<path fill-rule="evenodd" clip-rule="evenodd" d="M34.3366 26.2766C28.4955 26.2766 23.7434 31.0214 23.7434 36.8536V145.752C23.7434 151.584 28.4955 156.329 34.3366 156.329H100.627C106.468 156.329 111.22 151.584 111.22 145.752V36.8536C111.22 31.0214 106.468 26.2766 100.627 26.2766H34.3366ZM22.7847 145.752V36.8536C22.7847 30.4935 27.9668 25.3193 34.3366 25.3193H100.627C106.997 25.3193 112.179 30.4935 112.179 36.8536V145.752C112.179 152.112 106.997 157.287 100.627 157.287H34.3366C27.9668 157.287 22.7847 152.112 22.7847 145.752Z" fill="#8D95BE" fill-opacity="0.41"/>
<path fill-rule="evenodd" clip-rule="evenodd" d="M88.5459 60.053C88.5459 48.4107 79.1014 38.9727 67.4505 38.9727C55.8 38.9727 46.3555 48.4107 46.3555 60.053C46.3555 71.6958 55.8 81.1334 67.4505 81.1334C79.1014 81.1334 88.5459 71.6958 88.5459 60.053Z" fill="white"/>
<path fill-rule="evenodd" clip-rule="evenodd" d="M67.4496 81.6111C79.3461 81.6111 89.0244 71.9395 89.0244 60.052C89.0244 57.5096 88.5858 55.0212 87.7211 52.6552C87.6306 52.4069 87.3556 52.2791 87.1063 52.3697C86.8576 52.4605 86.7295 52.7352 86.8204 52.9836C87.6468 55.244 88.0657 57.6222 88.0657 60.052C88.0657 71.4118 78.8175 80.6538 67.4496 80.6538C56.0821 80.6538 46.8341 71.4118 46.8341 60.052C46.8341 48.6922 56.0821 39.4504 67.4496 39.4504C73.6369 39.4504 79.4429 42.1919 83.3781 46.9715C83.5464 47.1757 83.8488 47.2056 84.0528 47.0377C84.2576 46.8697 84.287 46.568 84.1191 46.364C80.0005 41.3618 73.925 38.4932 67.4496 38.4932C55.5537 38.4932 45.8755 48.1644 45.8755 60.052C45.8755 71.9395 55.5537 81.6111 67.4496 81.6111Z" fill="#D2F0E0"/>
<path fill-rule="evenodd" clip-rule="evenodd" d="M67.7699 46.1857C67.7699 46.1857 71.631 42.982 76.6988 49.6805C81.1716 55.5927 75.443 60.8904 77.3686 64.5708C79.2938 68.2517 85.8232 70.2591 85.8232 70.2591C85.8232 70.2591 83.7304 74.4419 81.1354 76.282H53.5941C53.5941 76.282 47.9019 70.092 47.9019 68.3353C47.9019 68.3353 54.0127 68.0006 54.4313 62.7305C54.8498 57.4606 52.5235 54.1713 57.7379 48.217C63.137 42.0516 67.7699 46.1857 67.7699 46.1857Z" fill="#D2F0E0"/>
<path fill-rule="evenodd" clip-rule="evenodd" d="M81.9193 75.3838C78.1417 78.9461 73.0523 81.1337 67.4481 81.1337C61.8441 81.1337 56.7546 78.9461 52.9771 75.3838C57.3474 74.0312 62.2569 73.2705 67.4481 73.2705C72.6394 73.2705 77.5494 74.0312 81.9193 75.3838Z" fill="white"/>
<path fill-rule="evenodd" clip-rule="evenodd" d="M67.4482 73.7483C62.7261 73.7483 58.1819 74.3705 53.9279 75.5985C57.6829 78.8648 62.4514 80.6544 67.4482 80.6544C72.4452 80.6544 77.2142 78.8648 80.9684 75.5985C76.7151 74.3705 72.1708 73.7483 67.4482 73.7483ZM52.6478 75.7313C52.5238 75.6144 52.4714 75.4406 52.51 75.2751C52.5485 75.1094 52.6724 74.9766 52.835 74.9262C57.4123 73.5093 62.3292 72.791 67.4482 72.791C72.5682 72.791 77.4846 73.5093 82.0613 74.9262C82.2239 74.9766 82.3478 75.1094 82.3863 75.2751C82.4249 75.4406 82.3725 75.6144 82.2485 75.7313C78.2275 79.5231 72.9713 81.6116 67.4482 81.6116C61.9253 81.6116 56.6691 79.5231 52.6478 75.7313Z" fill="#D2F0E0"/>
<path fill-rule="evenodd" clip-rule="evenodd" d="M67.3259 76.8327C69.1648 76.8327 70.6556 75.3429 70.6556 73.5053V56.5391H63.9966V73.5053C63.9966 75.3429 65.4869 76.8327 67.3259 76.8327Z" fill="white"/>
<path fill-rule="evenodd" clip-rule="evenodd" d="M64.4719 57.0178V73.5053C64.4719 75.0761 65.7505 76.354 67.3218 76.354C68.8935 76.354 70.172 75.0761 70.172 73.5053V57.0178H64.4719ZM63.5132 73.5053V56.5392C63.5132 56.2749 63.7279 56.0605 63.9926 56.0605H70.6514C70.916 56.0605 71.1308 56.2749 71.1308 56.5392V73.5053C71.1308 75.6039 69.4221 77.3111 67.3218 77.3111C65.2219 77.3111 63.5132 75.6039 63.5132 73.5053Z" fill="#D2F0E0"/>
<path fill-rule="evenodd" clip-rule="evenodd" d="M67.2247 68.3336C63.4795 68.3336 60.4438 65.2998 60.4438 61.5577V57.5668C60.4438 53.9498 63.3785 51.0176 66.9976 51.0176H74.0055V61.5577C74.0055 64.2995 72.3758 66.6609 70.0313 67.7277L67.2247 68.3336Z" fill="white"/>
<path fill-rule="evenodd" clip-rule="evenodd" d="M67.2277 68.8129C67.4923 68.8129 67.707 68.5985 67.707 68.3343C67.707 68.07 67.4923 67.8556 67.2277 67.8556C63.7533 67.8556 60.9265 65.0308 60.9265 61.5585V57.5675C60.9265 54.2203 63.6516 51.4972 67.0008 51.4972H73.5293V61.5585C73.5293 64.021 72.0793 66.2718 69.8358 67.2929C69.5947 67.4026 69.4887 67.6865 69.5982 67.927C69.708 68.1675 69.9926 68.2742 70.2333 68.1642C72.8179 66.9879 74.4879 64.3951 74.4879 61.5585V51.0185C74.4879 50.7543 74.2733 50.54 74.0085 50.54H67.0008C63.1228 50.54 59.9678 53.6924 59.9678 57.5675V61.5585C59.9678 65.5585 63.2246 68.8129 67.2277 68.8129Z" fill="#D2F0E0"/>
<path fill-rule="evenodd" clip-rule="evenodd" d="M66.8066 51.2702L73.7547 57.8786V51.0195C73.7547 51.0195 66.8066 51.4378 66.8066 51.2702Z" fill="#D2F0E0"/>
<path fill-rule="evenodd" clip-rule="evenodd" d="M45.8246 108.187H98.4485C99.6615 108.187 100.645 107.205 100.645 105.994C100.645 104.783 99.6615 103.8 98.4485 103.8H45.8246C44.6118 103.8 43.6284 104.781 43.6284 105.992C43.6284 107.203 44.6118 108.187 45.8246 108.187Z" fill="#D2F0E0"/>
<path fill-rule="evenodd" clip-rule="evenodd" d="M36.452 117.476H98.4513C99.6643 117.476 100.647 116.494 100.647 115.283C100.647 114.072 99.6643 113.089 98.4513 113.089H36.452C35.2392 113.089 34.2559 114.071 34.2559 115.282C34.2559 116.492 35.2392 117.476 36.452 117.476Z" fill="#D2F0E0"/>
<path fill-rule="evenodd" clip-rule="evenodd" d="M45.8246 126.768H98.4485C99.6615 126.768 100.645 125.786 100.645 124.575C100.645 123.364 99.6615 122.381 98.4485 122.381H45.8246C44.6118 122.381 43.6284 123.363 43.6284 124.574C43.6284 125.784 44.6118 126.768 45.8246 126.768Z" fill="#D2F0E0"/>
<path fill-rule="evenodd" clip-rule="evenodd" d="M36.452 136.058H79.4775C80.6905 136.058 81.6737 135.076 81.6737 133.865C81.6737 132.654 80.6905 131.671 79.4775 131.671H36.452C35.2392 131.671 34.2559 132.653 34.2559 133.864C34.2559 135.075 35.2392 136.058 36.452 136.058Z" fill="#D2F0E0"/>
<path fill-rule="evenodd" clip-rule="evenodd" d="M58.3314 93.8354H76.5666C77.7794 93.8354 78.7627 92.8537 78.7627 91.6428C78.7627 90.4317 77.7794 89.4482 76.5666 89.4482H58.3314C57.1186 89.4482 56.1353 90.4299 56.1353 91.6409C56.1353 92.8519 57.1186 93.8354 58.3314 93.8354Z" fill="#D2F0E0"/>
<path fill-rule="evenodd" clip-rule="evenodd" d="M98.8032 124.976C98.8032 131.092 103.769 136.05 109.894 136.05H176.359C182.485 136.05 187.45 131.092 187.45 124.976V11.6652C187.45 5.54951 182.485 0.591797 176.359 0.591797H109.894C103.769 0.591797 98.8032 5.54951 98.8032 11.6652V124.976Z" fill="white"/>
<path fill-rule="evenodd" clip-rule="evenodd" d="M109.895 136.528H176.361C182.741 136.528 187.931 131.346 187.931 124.976V11.6653C187.931 5.2955 182.741 0.113281 176.361 0.113281H109.895C103.516 0.113281 98.3257 5.2955 98.3257 11.6653V73.3836C98.3257 73.6478 98.5404 73.8622 98.8051 73.8622C99.0697 73.8622 99.2844 73.6478 99.2844 73.3836V11.6653C99.2844 5.82341 104.045 1.07056 109.895 1.07056H176.361C182.212 1.07056 186.972 5.82341 186.972 11.6653V124.976C186.972 130.818 182.212 135.571 176.361 135.571H109.895C104.045 135.571 99.2844 130.818 99.2844 124.976V87.5228C99.2844 87.2586 99.0697 87.0442 98.8051 87.0442C98.5404 87.0442 98.3257 87.2586 98.3257 87.5228V124.976C98.3257 131.346 103.516 136.528 109.895 136.528Z" fill="#8D95BE" fill-opacity="0.41"/>
<path fill-rule="evenodd" clip-rule="evenodd" d="M134.581 69.7668H152.847C154.062 69.7668 155.046 68.7838 155.046 67.5714C155.046 66.3588 154.062 65.376 152.847 65.376H134.581C133.366 65.376 132.382 66.3588 132.382 67.5714C132.382 68.7838 133.366 69.7668 134.581 69.7668Z" fill="#D2F0E0"/>
<path fill-rule="evenodd" clip-rule="evenodd" d="M112.372 94.3449H174.474C175.688 94.3449 176.673 93.3621 176.673 92.1495C176.673 90.9371 175.688 89.9541 174.474 89.9541H112.372C111.157 89.9541 110.173 90.9369 110.173 92.1495C110.173 93.3621 111.157 94.3449 112.372 94.3449Z" fill="#D2F0E0"/>
<path fill-rule="evenodd" clip-rule="evenodd" d="M112.372 104.237H153.942C155.156 104.237 156.14 103.254 156.14 102.041C156.14 100.829 155.156 99.8457 153.942 99.8457H112.372C111.157 99.8457 110.173 100.829 110.173 102.041C110.173 103.254 111.157 104.237 112.372 104.237Z" fill="#D2F0E0"/>
<path fill-rule="evenodd" clip-rule="evenodd" d="M112.663 113.686H174.765C175.979 113.686 176.964 112.703 176.964 111.49C176.964 110.278 175.979 109.295 174.765 109.295H112.663C111.448 109.295 110.464 110.278 110.464 111.49C110.464 112.703 111.448 113.686 112.663 113.686Z" fill="#D2F0E0"/>
<path fill-rule="evenodd" clip-rule="evenodd" d="M151.049 44.4477C155.26 44.4477 158.392 40.5092 157.376 36.4293C155.706 29.7254 152.04 21.0651 144.159 19.8413C135.944 18.5656 131.507 28.5693 129.341 36.2058C128.167 40.3428 131.303 44.4477 135.609 44.4477H151.049Z" fill="#D2F0E0"/>
<path fill-rule="evenodd" clip-rule="evenodd" d="M144.467 57.6708C138.392 57.5228 134.323 56.2152 129.944 52.0903C135.01 50.5239 137.512 50.4541 143.529 50.4541C149.546 50.4541 153.198 50.7556 158.263 52.3221C158.263 52.3221 152.517 57.8667 144.467 57.6708Z" fill="#D2F0E0"/>
<path fill-rule="evenodd" clip-rule="evenodd" d="M158.375 52.8252C158.587 52.8252 158.781 52.684 158.838 52.4702C158.906 52.2148 158.754 51.9524 158.499 51.8841C153.753 50.6178 148.717 49.9756 143.53 49.9756C138.861 49.9756 134.294 50.4993 129.955 51.5326C129.698 51.594 129.539 51.852 129.6 52.1092C129.661 52.3665 129.922 52.5251 130.177 52.4637C134.443 51.4479 138.936 50.9329 143.53 50.9329C148.633 50.9329 153.586 51.5641 158.251 52.809C158.292 52.8198 158.334 52.8252 158.375 52.8252Z" fill="#D2F0E0"/>
<path fill-rule="evenodd" clip-rule="evenodd" d="M143.383 54.7047C145.514 54.7047 147.242 52.9794 147.242 50.8513V27.7852H139.524V50.8513C139.524 52.9794 141.252 54.7047 143.383 54.7047Z" fill="white"/>
<path fill-rule="evenodd" clip-rule="evenodd" d="M140.004 28.2639V50.8516C140.004 52.7125 141.52 54.2262 143.383 54.2262C145.247 54.2262 146.763 52.7125 146.763 50.8516V28.2639H140.004ZM139.045 50.8516V27.7853C139.045 27.521 139.26 27.3066 139.524 27.3066H147.242C147.507 27.3066 147.722 27.521 147.722 27.7853V50.8516C147.722 53.2403 145.775 55.1835 143.383 55.1835C140.991 55.1835 139.045 53.2403 139.045 50.8516Z" fill="#D2F0E0"/>
<path fill-rule="evenodd" clip-rule="evenodd" d="M146.266 40.7432C148.768 39.5081 150.507 36.7736 150.507 33.5978V29.501C150.507 25.0223 147.159 21.3916 143.028 21.3916C139.165 21.3916 136.033 24.7873 136.033 28.976V33.5978C136.033 37.9314 139.273 41.4448 143.27 41.4448L146.266 40.7432Z" fill="white"/>
<path fill-rule="evenodd" clip-rule="evenodd" d="M143.272 41.9234C143.536 41.9234 143.751 41.709 143.751 41.4448C143.751 41.1805 143.536 40.9661 143.272 40.9661C139.545 40.9661 136.514 37.6608 136.514 33.5978V28.9761C136.514 25.058 139.437 21.8704 143.03 21.8704C146.89 21.8704 150.03 25.2932 150.03 29.5008V33.5978C150.03 36.4859 148.47 39.1224 146.055 40.314C145.818 40.4312 145.721 40.7181 145.838 40.9553C145.955 41.1921 146.244 41.288 146.48 41.1722C149.219 39.8205 150.989 36.8474 150.989 33.5978V29.5008C150.989 24.7654 147.418 20.9131 143.03 20.9131C138.908 20.9131 135.555 24.5301 135.555 28.9761V33.5978C135.555 38.1885 139.017 41.9234 143.272 41.9234Z" fill="#D2F0E0"/>
<path fill-rule="evenodd" clip-rule="evenodd" d="M150.564 27.3002H135.525C135.525 27.3002 135.826 24.3355 138.517 22.3523C140.806 20.6659 143.862 20.5048 146.457 21.6681C148.216 22.4568 150.035 23.8761 150.37 26.4072L150.564 27.3002Z" fill="#D2F0E0"/>
<path fill-rule="evenodd" clip-rule="evenodd" d="M144.316 58.0996C145.2 58.0996 146.089 58.0466 146.981 57.9398C152.807 57.2408 158.013 54.3183 161.638 49.7104C169.122 40.1974 167.459 26.3795 157.932 18.9073C153.317 15.2877 147.566 13.6782 141.739 14.3778C135.913 15.0767 130.707 17.9996 127.082 22.6075C124.591 25.7746 123.021 29.5513 122.544 33.5292C122.512 33.7918 122.7 34.0299 122.963 34.0614C123.224 34.097 123.465 33.9057 123.496 33.6432C123.952 29.8395 125.453 26.2277 127.836 23.199C131.303 18.792 136.281 15.9969 141.854 15.3286C147.425 14.6608 152.926 16.1986 157.34 19.6601C166.451 26.806 168.041 40.0215 160.884 49.1189C157.417 53.5259 152.439 56.321 146.866 56.9893C141.292 57.6568 135.794 56.1193 131.38 52.6575C127.441 49.5682 124.733 45.17 123.755 40.2729C123.703 40.0135 123.448 39.8443 123.191 39.8971C122.932 39.9488 122.763 40.2009 122.815 40.4598C123.838 45.5809 126.669 50.1802 130.788 53.4103C134.697 56.4764 139.421 58.0996 144.316 58.0996Z" fill="#D2F0E0"/>
<path fill-rule="evenodd" clip-rule="evenodd" d="M146.579 247.384H113.52C116.179 220.032 118.731 200.187 118.731 200.187L170.064 191.235L175.187 205.827C176.721 210.247 178.822 216.781 180.78 224.821C181.86 229.259 183.46 236.335 184.67 247.384H147.792H146.579Z" fill="#2F2E41"/>
<path fill-rule="evenodd" clip-rule="evenodd" d="M145.642 239.955C145.7 239.955 145.759 239.944 145.816 239.922C146.063 239.826 146.184 239.548 146.088 239.302C144.889 236.238 142.257 235.466 139.197 234.834C138.938 234.78 138.684 234.947 138.631 235.206C138.577 235.465 138.744 235.718 139.003 235.772C141.884 236.366 144.169 237.029 145.195 239.651C145.269 239.84 145.45 239.955 145.642 239.955Z" fill="#DCF3F5"/>
<path fill-rule="evenodd" clip-rule="evenodd" d="M174.863 235.613C175.093 235.613 175.297 235.448 175.335 235.213C175.379 234.953 175.203 234.706 174.941 234.663C163.152 232.701 160.82 223.738 160.726 223.358C160.663 223.101 160.404 222.942 160.147 223.006C159.89 223.069 159.733 223.327 159.795 223.584C159.819 223.683 162.35 233.538 174.784 235.607C174.81 235.611 174.837 235.613 174.863 235.613Z" fill="#DCF3F5"/>
<path fill-rule="evenodd" clip-rule="evenodd" d="M118.119 227.409C118.183 227.409 118.248 227.396 118.31 227.369C125.567 224.223 125.391 217.358 125.388 217.29C125.378 217.026 125.153 216.825 124.891 216.829C124.627 216.839 124.42 217.061 124.43 217.325C124.439 217.582 124.568 223.612 117.928 226.491C117.685 226.596 117.574 226.878 117.679 227.121C117.758 227.301 117.934 227.409 118.119 227.409Z" fill="#DCF3F5"/>
<path fill-rule="evenodd" clip-rule="evenodd" d="M182.239 208.916C183.47 213.117 185.399 218.929 183.263 221.719C179.381 226.79 176.162 225.976 171.371 224.232C161.789 220.744 146.499 215.235 142.034 218.298L141.836 208.916H182.239Z" fill="#2F2E41"/>
<path fill-rule="evenodd" clip-rule="evenodd" d="M127.293 118.948C119.335 118.912 112.065 123.404 108.583 130.502C104.549 138.725 98.8553 160.245 98.6332 169.644C98.2451 186.071 112.658 186.997 113.085 187.021C113.091 187.021 113.095 187.025 113.094 187.031C113.049 187.506 111.365 205.356 111.232 208.525C110.989 214.32 121.754 223.363 134.119 218.908C146.422 214.475 180.032 205.644 183.446 213.163C183.451 213.174 183.466 213.169 183.462 213.158L169.362 160.93C169.36 160.924 169.366 160.917 169.372 160.918L180.946 161.476C180.948 161.476 180.95 161.475 180.952 161.474L190.378 156.032C190.382 156.03 190.383 156.025 190.383 156.021L187.996 145.465C183.461 127.428 171.33 119.153 155.673 119.08L127.293 118.948Z" fill="#6DDEA2"/>
<path fill-rule="evenodd" clip-rule="evenodd" d="M164.411 159.24C166.574 158.84 165.983 156.337 173.583 155.884C195.517 154.579 184.888 143.46 172.322 145.578C168.158 146.28 166.52 148.97 164.953 149.653C151.806 155.38 160.098 160.036 164.411 159.24Z" fill="#FFB8B8"/>
<path fill-rule="evenodd" clip-rule="evenodd" d="M172.401 146.052C169.706 146.506 168.138 147.817 166.878 148.871C166.252 149.394 165.712 149.846 165.144 150.093C160.296 152.205 157.837 154.466 158.398 156.296C158.946 158.084 162.168 159.166 164.323 158.771C164.906 158.663 165.25 158.364 165.726 157.95C166.809 157.01 168.292 155.722 173.554 155.408C183.092 154.841 185.158 152.513 185.603 151.539C185.935 150.812 185.793 150.04 185.181 149.244C183.726 147.352 179.97 145.789 175.542 145.789C174.524 145.789 173.47 145.872 172.401 146.052ZM157.482 156.577C156.965 154.891 157.808 152.245 164.76 149.216C165.202 149.024 165.693 148.612 166.262 148.137C167.54 147.069 169.29 145.605 172.242 145.108C178.317 144.085 183.979 146.11 185.941 148.661C186.763 149.729 186.952 150.892 186.475 151.936C185.69 153.654 182.821 155.816 173.611 156.364C168.675 156.658 167.334 157.822 166.356 158.673C165.832 159.127 165.338 159.557 164.497 159.712C164.135 159.779 163.752 159.811 163.358 159.811C160.927 159.811 158.095 158.576 157.482 156.577Z" fill="#2F2E41"/>
<path fill-rule="evenodd" clip-rule="evenodd" d="M136.797 122.023C136.066 121.398 136.453 120.204 137.411 120.089L138.898 119.91C140.496 119.718 141.828 118.656 142.348 117.188L144.798 99.1237L149.822 100.917L156.471 97.6348L155.877 116.938C155.925 118.621 157.024 120.108 158.649 120.689L160.592 121.382C161.614 121.747 161.663 123.132 160.672 123.563C156.715 125.285 140.632 125.299 136.797 122.023Z" fill="#FFB8B8"/>
<path fill-rule="evenodd" clip-rule="evenodd" d="M150.033 101.346C149.916 101.404 149.781 101.412 149.659 101.368L145.192 99.7731L142.821 117.252C142.817 117.285 142.809 117.317 142.798 117.348C142.211 119.006 140.738 120.17 138.953 120.385L137.466 120.564C137.156 120.601 136.981 120.824 136.922 121.02C136.849 121.259 136.918 121.498 137.107 121.659C140.807 124.82 156.834 124.711 160.478 123.124C160.756 123.004 160.916 122.757 160.906 122.466C160.896 122.173 160.718 121.936 160.429 121.833L158.486 121.139C156.662 120.488 155.449 118.844 155.395 116.924L155.965 98.4176L150.033 101.346ZM136.483 122.387C136.005 121.977 135.821 121.347 136.005 120.742C136.192 120.123 136.708 119.691 137.351 119.613L138.839 119.434C140.242 119.266 141.403 118.363 141.878 117.073L144.321 99.0595C144.34 98.9165 144.423 98.7896 144.547 98.7148C144.67 98.6398 144.821 98.6245 144.957 98.673L149.79 100.398L156.257 97.2058C156.408 97.1317 156.586 97.1409 156.728 97.2322C156.87 97.323 156.953 97.4816 156.948 97.6495L156.354 116.925C156.396 118.42 157.36 119.72 158.809 120.238L160.752 120.932C161.414 121.169 161.841 121.744 161.864 122.434C161.887 123.121 161.503 123.722 160.861 124.002C159.152 124.745 155.188 125.199 150.89 125.199C145.156 125.199 138.83 124.391 136.483 122.387Z" fill="#2F2E41"/>
<path fill-rule="evenodd" clip-rule="evenodd" d="M142.568 84.76C134.005 87.9075 135.478 93.4396 135.478 93.4396C135.585 94.9617 135.646 97.748 135.362 98.7578C135.128 99.5914 133.759 101.159 133.694 101.622C133.629 102.086 134.369 103.035 135.852 103.373C135.852 103.373 136.414 110.766 138.356 111.977C140.297 113.188 147.772 110.864 147.772 110.864L149.03 110.36C153.08 108.739 155.555 105.366 156.734 101.193C156.734 101.193 162.187 77.5478 142.568 84.76Z" fill="#FFB8B8"/>
<path fill-rule="evenodd" clip-rule="evenodd" d="M148.853 109.917C152.482 108.464 155.049 105.403 156.269 101.086C156.295 100.973 158.811 89.7497 153.981 85.5032C151.624 83.432 147.84 83.3335 142.735 85.2099C134.72 88.1561 135.889 93.1104 135.942 93.3178C135.95 93.3469 135.955 93.3768 135.957 93.407C136.036 94.5216 136.165 97.6787 135.825 98.888C135.678 99.4115 135.221 100.077 134.779 100.721C134.538 101.073 134.207 101.554 134.171 101.682C134.173 101.88 134.716 102.624 135.96 102.907C136.165 102.953 136.316 103.128 136.332 103.337C136.542 106.102 137.347 110.783 138.611 111.572C139.885 112.367 144.8 111.286 147.613 110.414L148.853 109.917ZM138.103 112.384C136.2 111.196 135.549 105.358 135.404 103.749C133.96 103.308 133.116 102.299 133.221 101.556C133.265 101.245 133.514 100.87 133.988 100.179C134.349 99.6543 134.798 99.0005 134.902 98.6294C135.155 97.7294 135.114 95.1064 135.003 93.508C134.876 92.895 133.995 87.403 142.403 84.3119C147.866 82.3037 151.975 82.4629 154.615 84.7859C159.873 89.4097 157.314 100.817 157.197 101.323C155.888 105.959 153.126 109.238 149.209 110.805L147.952 111.309C147.94 111.314 147.928 111.318 147.916 111.322C147.311 111.51 143.06 112.799 140.186 112.799C139.322 112.799 138.581 112.682 138.103 112.384Z" fill="#2F2E41"/>
<path fill-rule="evenodd" clip-rule="evenodd" d="M145.389 80.7566C143.138 81.3054 140.938 82.7082 139.775 82.8323C137.899 83.0328 136.545 80.6288 134.175 81.5014C132.092 82.2684 130.922 84.0388 130.625 86.0335C130.575 86.3661 130.561 86.7183 130.594 87.0945C131.034 92.1401 134.196 93.2113 135.48 93.4399C135.48 93.4399 142.914 92.7529 144.364 93.1041C145.721 93.4327 147.818 95.5404 148.449 98.5358C148.53 98.9223 148.868 99.2049 149.265 99.2347C149.73 99.2695 150.15 98.9506 150.229 98.4942C150.478 97.055 151.156 94.1797 152.619 94.0953C154.325 93.9968 156.498 97.3633 154.268 99.4739C153.581 100.124 153.809 101.307 154.689 101.66C155.419 101.954 156.334 101.972 157.324 101.171C157.324 101.171 161.725 93.467 159.625 86.9646C157.526 80.4624 148.384 80.0265 145.389 80.7566Z" fill="#2F2E41"/>
<path fill-rule="evenodd" clip-rule="evenodd" d="M133.434 101.548C133.562 101.548 133.69 101.496 133.785 101.395C133.965 101.201 133.954 100.898 133.76 100.718C133.256 100.252 132.892 99.1944 132.831 98.0252C132.788 97.1936 132.906 96.3788 133.156 95.7898C133.355 95.319 133.62 95.0307 133.863 95.0183C134.28 95.0011 134.852 95.7465 135.099 97.0366C135.148 97.2968 135.401 97.4635 135.659 97.4173C135.919 97.3677 136.09 97.1172 136.04 96.8577C135.706 95.1072 134.844 94.0099 133.814 94.0623C133.177 94.0947 132.629 94.5758 132.273 95.4169C131.964 96.1451 131.822 97.0889 131.874 98.0745C131.947 99.5013 132.42 100.783 133.107 101.42C133.2 101.505 133.317 101.548 133.434 101.548Z" fill="#2F2E41"/>
<path fill-rule="evenodd" clip-rule="evenodd" d="M139.001 94.9135C138.435 94.9425 138.059 95.4751 137.886 95.7897C137.545 96.4063 137.382 97.2216 137.427 98.085C137.513 99.7561 138.389 101.131 139.321 101.08C139.887 101.051 140.263 100.518 140.437 100.204C140.778 99.5869 140.941 98.7718 140.896 97.9083C140.809 96.2372 139.942 94.8518 139.001 94.9135ZM136.469 98.1342C136.415 97.0953 136.62 96.0985 137.046 95.3276C137.512 94.4831 138.189 93.9964 138.952 93.9575C138.985 93.9559 139.018 93.9551 139.05 93.9551C140.516 93.9551 141.739 95.6432 141.853 97.859C141.907 98.8979 141.702 99.8948 141.277 100.666C140.81 101.51 140.134 101.997 139.37 102.036C139.338 102.037 139.305 102.038 139.272 102.038C137.806 102.038 136.584 100.35 136.469 98.1342Z" fill="#2F2E41"/>
<path fill-rule="evenodd" clip-rule="evenodd" d="M141.111 96.7952C141.125 96.7952 141.14 96.7946 141.155 96.7933L149.324 96.0629C149.588 96.0392 149.783 95.8069 149.759 95.5435C149.735 95.2803 149.503 95.0851 149.239 95.1095L141.069 95.8398C140.805 95.8635 140.611 96.0959 140.634 96.3593C140.657 96.608 140.866 96.7952 141.111 96.7952Z" fill="#2F2E41"/>
<path fill-rule="evenodd" clip-rule="evenodd" d="M154.131 131.987C154.131 131.987 150.95 136.969 148.085 136.09C146.579 135.628 145.11 130.714 144.509 130.539C142.589 129.98 138.931 129.07 136.684 125.063C134.586 121.321 135.044 119.323 135.585 118.404C135.834 117.981 135.83 117.456 135.554 117.049C135.153 116.457 134.764 115.563 135.169 114.642C135.311 114.319 135.298 113.949 135.158 113.625C134.625 112.385 133.638 109.534 135.557 108.972C136.076 108.82 136.638 109.014 136.955 109.45C137.564 110.289 138.835 111.87 140.408 112.868C142.63 114.28 143.962 115.245 145.079 115.881C146.036 116.426 146.54 111.659 148.839 109.867C150.88 108.278 151.575 109.082 151.779 109.829C151.983 110.576 150.72 110.872 149.999 114.425C149.156 118.584 150.037 122.083 150.293 123.956C150.593 126.15 154.131 131.987 154.131 131.987Z" fill="#FFB8B8"/>
<path fill-rule="evenodd" clip-rule="evenodd" d="M149.821 124.02C149.78 123.721 149.723 123.38 149.66 123.002C149.32 120.971 148.807 117.903 149.532 114.33C149.986 112.091 150.657 111.076 151.059 110.469C151.265 110.158 151.34 110.033 151.319 109.954C151.267 109.764 151.161 109.523 150.951 109.453C150.782 109.397 150.269 109.363 149.137 110.244C148.002 111.128 147.298 112.921 146.784 114.23C146.326 115.397 146.024 116.167 145.482 116.358C145.272 116.433 145.045 116.41 144.844 116.296C144.2 115.93 143.495 115.461 142.601 114.869C141.906 114.407 141.118 113.885 140.153 113.271C138.518 112.233 137.206 110.607 136.57 109.73C136.37 109.456 136.018 109.336 135.694 109.431C135.381 109.523 135.176 109.689 135.051 109.954C134.741 110.612 134.946 111.914 135.601 113.435C135.797 113.891 135.801 114.401 135.61 114.834C135.293 115.556 135.622 116.291 135.953 116.78C136.332 117.337 136.35 118.052 136 118.646C135.548 119.413 135.091 121.236 137.105 124.828C139.165 128.502 142.444 129.445 144.403 130.009L144.646 130.078C145.067 130.201 145.32 130.705 145.99 132.144C146.559 133.366 147.511 135.411 148.228 135.632C150.17 136.229 152.597 133.391 153.567 131.974C152.865 130.794 150.097 126.04 149.821 124.02ZM147.946 136.546C146.904 136.227 146.084 134.618 145.12 132.548C144.834 131.933 144.481 131.175 144.31 130.978L144.138 130.928C142.175 130.364 138.52 129.312 136.269 125.296C134.133 121.488 134.495 119.314 135.174 118.161C135.334 117.889 135.329 117.566 135.16 117.317C134.49 116.329 134.342 115.338 134.732 114.449C134.816 114.258 134.812 114.026 134.721 113.813C134.166 112.524 133.622 110.738 134.184 109.546C134.424 109.037 134.853 108.68 135.425 108.512C136.136 108.303 136.909 108.567 137.346 109.169C137.942 109.99 139.166 111.51 140.667 112.464C141.641 113.082 142.433 113.608 143.132 114.071C143.956 114.618 144.617 115.057 145.204 115.398C145.393 115.152 145.677 114.427 145.891 113.881C146.446 112.469 147.205 110.535 148.547 109.489C149.663 108.619 150.548 108.311 151.253 108.545C151.731 108.704 152.083 109.115 152.244 109.703C152.381 110.207 152.139 110.573 151.859 110.997C151.472 111.581 150.888 112.463 150.471 114.52C149.782 117.919 150.277 120.883 150.605 122.844C150.67 123.233 150.729 123.583 150.771 123.89C151.054 125.962 154.509 131.681 154.544 131.739C154.638 131.894 154.636 132.09 154.538 132.244C154.412 132.441 151.675 136.671 148.783 136.671C148.505 136.671 148.225 136.632 147.946 136.546Z" fill="#2F2E41"/>
<path fill-rule="evenodd" clip-rule="evenodd" d="M143.649 134.191L153.283 128.062C153.283 128.062 166.307 149.086 176.17 156.223C180.971 159.697 190.286 155.613 190.286 155.613C190.286 155.613 199.229 189.929 181.967 194.835C153.212 203.007 143.649 134.191 143.649 134.191Z" fill="#6DDEA2"/>
<path fill-rule="evenodd" clip-rule="evenodd" d="M114.668 187.911C125.479 187.911 140.64 179.552 151.67 171.349C151.882 171.191 151.926 170.891 151.768 170.679C151.61 170.467 151.309 170.423 151.097 170.581C140.036 178.807 123.351 188.001 112.745 186.854C112.486 186.825 112.245 187.015 112.217 187.278C112.188 187.541 112.378 187.777 112.642 187.806C113.297 187.877 113.974 187.911 114.668 187.911Z" fill="#2F2E41"/>
<path fill-rule="evenodd" clip-rule="evenodd" d="M129.252 161.471C135.294 161.471 146.4 156.279 146.917 156.036C147.157 155.923 147.259 155.638 147.146 155.399C147.033 155.16 146.748 155.058 146.508 155.17C146.372 155.234 132.791 161.588 127.787 160.364C119.404 158.314 121.399 147.571 121.42 147.463C121.471 147.204 121.301 146.952 121.042 146.902C120.783 146.851 120.53 147.02 120.479 147.28C120.456 147.397 118.299 159.029 127.559 161.294C128.058 161.415 128.628 161.471 129.252 161.471Z" fill="#2F2E41"/>
<path fill-rule="evenodd" clip-rule="evenodd" d="M177.017 157.701C177.163 157.701 177.307 157.634 177.401 157.509C177.56 157.297 177.516 156.997 177.304 156.839C166.938 149.103 154.082 127.86 153.953 127.646C153.817 127.419 153.522 127.346 153.295 127.483C153.069 127.619 152.995 127.913 153.132 128.139C153.261 128.354 166.215 149.758 176.73 157.605C176.817 157.67 176.917 157.701 177.017 157.701Z" fill="#2F2E41"/>
<path fill-rule="evenodd" clip-rule="evenodd" d="M177.849 196.322C178.223 196.322 178.597 196.306 178.973 196.273C179.237 196.25 179.432 196.019 179.409 195.755C179.386 195.492 179.156 195.293 178.891 195.32C157.014 197.191 145.136 139.265 144.184 134.419L148.109 131.924C148.332 131.782 148.398 131.487 148.256 131.263C148.114 131.04 147.817 130.975 147.594 131.117L143.394 133.787C143.229 133.892 143.144 134.086 143.18 134.278C143.21 134.438 146.222 150.405 152.063 165.918C155.502 175.052 159.237 182.251 163.163 187.315C167.802 193.297 172.737 196.322 177.849 196.322Z" fill="#2F2E41"/>
<path fill-rule="evenodd" clip-rule="evenodd" d="M152.04 74.3959C152.14 74.3959 152.241 74.3587 152.319 74.2839C152.48 74.13 152.486 73.875 152.331 73.7146L151.472 72.8188C151.318 72.6577 151.063 72.6524 150.902 72.8064C150.741 72.9604 150.735 73.2153 150.889 73.3758L151.749 74.2716C151.828 74.3542 151.934 74.3959 152.04 74.3959Z" fill="#2F2E41" stroke="#2F2E41" stroke-width="0.231816"/>
<path fill-rule="evenodd" clip-rule="evenodd" d="M155.047 77.5305C155.147 77.5305 155.248 77.4933 155.326 77.4185C155.487 77.2646 155.492 77.0097 155.338 76.8489L154.478 75.9532C154.324 75.7927 154.069 75.7871 153.908 75.941C153.747 76.095 153.742 76.3499 153.896 76.5107L154.755 77.4065C154.834 77.4888 154.941 77.5305 155.047 77.5305Z" fill="#2F2E41" stroke="#2F2E41" stroke-width="0.231816"/>
<path fill-rule="evenodd" clip-rule="evenodd" d="M154.206 74.4423C154.308 74.4423 154.41 74.4038 154.489 74.3267L155.361 73.4691C155.52 73.3131 155.522 73.0579 155.366 72.8992C155.209 72.7412 154.954 72.739 154.795 72.8947L153.923 73.7523C153.764 73.9084 153.762 74.1635 153.918 74.3222C153.997 74.4022 154.101 74.4423 154.206 74.4423Z" fill="#2F2E41" stroke="#2F2E41" stroke-width="0.231816"/>
<path fill-rule="evenodd" clip-rule="evenodd" d="M151.151 77.4433C151.253 77.4433 151.355 77.4048 151.434 77.3277L152.306 76.4702C152.465 76.3142 152.467 76.059 152.311 75.9003C152.155 75.742 151.899 75.74 151.74 75.8959L150.868 76.7533C150.709 76.9095 150.707 77.1646 150.863 77.3232C150.942 77.4032 151.047 77.4433 151.151 77.4433Z" fill="#2F2E41" stroke="#2F2E41" stroke-width="0.231816"/>
<path fill-rule="evenodd" clip-rule="evenodd" d="M164.577 82.6213C164.058 82.8184 163.648 83.2067 163.423 83.7145C162.963 84.7564 163.437 85.976 164.481 86.4336C164.978 86.6511 165.532 86.6651 166.039 86.4728C166.559 86.2755 166.969 85.8874 167.193 85.3796C167.654 84.3376 167.179 83.1181 166.136 82.6605C165.639 82.4427 165.085 82.4287 164.577 82.6213ZM164.143 87.1849C162.69 86.5442 162.028 84.8408 162.666 83.388C162.979 82.6757 163.551 82.1308 164.278 81.8533C164.994 81.5803 165.773 81.6003 166.474 81.9089C167.926 82.5495 168.589 84.253 167.951 85.7058C167.638 86.4179 167.065 86.9629 166.338 87.2405C166.004 87.3681 165.655 87.4318 165.307 87.4318C164.911 87.4318 164.516 87.3493 164.143 87.1849Z" fill="#2F2E41" stroke="#2F2E41" stroke-width="0.231816"/>
<path fill-rule="evenodd" clip-rule="evenodd" d="M160.851 75.1479C160.539 75.2658 160.293 75.4986 160.158 75.803C159.881 76.4292 160.166 77.1618 160.793 77.4361C161.092 77.5662 161.423 77.5744 161.726 77.4597C162.038 77.3417 162.284 77.1089 162.419 76.8044C162.696 76.1784 162.411 75.446 161.784 75.1714C161.486 75.0413 161.155 75.0331 160.851 75.1479ZM160.455 78.1875C159.419 77.7301 158.946 76.5139 159.401 75.4768C159.624 74.9683 160.033 74.5787 160.552 74.3803C161.064 74.1845 161.621 74.1989 162.122 74.4201C163.158 74.8782 163.631 76.0941 163.177 77.1309C162.953 77.6394 162.544 78.0291 162.025 78.2275C161.786 78.319 161.537 78.3643 161.288 78.3643C161.005 78.3643 160.722 78.3054 160.455 78.1875Z" fill="#2F2E41" stroke="#2F2E41" stroke-width="0.231816"/>
</g>
<defs>
<clipPath id="clip0_309_12128">
<rect width="246.498" height="247.271" fill="white" transform="translate(22.7808)"/>
</clipPath>
</defs>
</svg>
