<svg width="128" height="111" viewBox="0 0 128 111" fill="none" xmlns="http://www.w3.org/2000/svg">
<g clip-path="url(#clip0_309_14108)">
<path d="M51.4805 10.3349C52.0996 10.6617 52.5809 11.0931 53.0919 11.5678C53.3813 11.8214 53.6709 12.0747 53.9608 12.3277C54.1027 12.454 54.2445 12.5802 54.3907 12.7103C54.969 13.2164 55.5714 13.6871 56.1802 14.1557C57.1631 14.9205 58.133 15.6997 59.0977 16.4872C60.0669 17.2782 61.0414 18.0611 62.0274 18.831C63.0134 19.6009 63.9879 20.3838 64.9571 21.1747C66.907 22.7692 66.907 22.7692 68.9039 24.3039C69.254 24.5927 69.254 24.5927 69.6151 24.9979C70.8857 26.2898 72.0964 26.3189 73.8153 26.3354C74.4068 26.3333 74.998 26.3242 75.5894 26.3139C76.3704 26.3071 77.1514 26.3046 77.9324 26.3055C78.1174 26.3056 78.3025 26.3057 78.4931 26.3058C80.8202 26.3286 82.8082 26.9057 84.5395 28.5203C85.8389 29.9135 86.7965 31.5197 86.851 33.4728C86.8341 33.822 86.8341 33.822 86.8168 34.1783C86.5839 37.0733 86.5839 37.0733 87.5378 39.6364C88.0907 40.1112 88.7127 40.4463 89.3606 40.7748C90.0858 41.1799 90.6933 41.7326 91.3243 42.2685C91.5885 42.4851 91.8532 42.701 92.1185 42.9162C92.2474 43.021 92.3764 43.1258 92.5092 43.2337C93.0819 43.6953 93.6616 44.1478 94.2418 44.6C95.3186 45.4414 96.3824 46.2981 97.44 47.1635C97.5861 47.2823 97.7323 47.4011 97.8828 47.5236C98.0179 47.6346 98.153 47.7457 98.2922 47.8601C98.4129 47.9589 98.5336 48.0577 98.6579 48.1596C99.0231 48.496 99.1303 48.7096 99.1617 49.2059C99.162 49.3696 99.1622 49.5333 99.1625 49.702C99.1632 49.8908 99.1639 50.0795 99.1647 50.2739C99.1646 50.4827 99.1644 50.6915 99.1642 50.9066C99.1651 51.2376 99.1651 51.2376 99.166 51.5753C99.1677 52.3199 99.168 53.0645 99.1683 53.8091C99.169 54.3409 99.1701 54.8727 99.1712 55.4046C99.1738 56.8533 99.175 58.3021 99.1759 59.7509C99.1764 60.6556 99.1772 61.5604 99.1781 62.4652C99.1805 64.9703 99.1825 67.4755 99.1832 69.9806C99.1832 70.1411 99.1833 70.3015 99.1833 70.4668C99.1834 70.6276 99.1834 70.7884 99.1834 70.9541C99.1835 71.28 99.1836 71.6059 99.1837 71.9318C99.1837 72.0934 99.1838 72.2551 99.1838 72.4216C99.1846 75.0385 99.188 77.6553 99.1926 80.2721C99.1972 82.959 99.1996 85.6459 99.1999 88.3328C99.2 89.8413 99.2011 91.3497 99.2047 92.8582C99.2077 94.1434 99.2087 95.4285 99.2071 96.7137C99.2063 97.369 99.2068 98.0242 99.2093 98.6795C99.2117 99.3913 99.2106 100.103 99.2086 100.815C99.2109 101.123 99.2109 101.123 99.2133 101.437C99.1968 103.904 98.3982 105.852 96.7495 107.695C94.9351 109.454 92.8251 110.358 90.313 110.361C90.1733 110.361 90.0336 110.361 89.8896 110.362C89.4203 110.363 88.9509 110.363 88.4816 110.362C88.1421 110.363 87.8027 110.363 87.4633 110.364C86.5295 110.366 85.5958 110.366 84.662 110.366C83.6553 110.367 82.6486 110.368 81.642 110.369C79.4402 110.372 77.2385 110.373 75.0368 110.374C73.6622 110.375 72.2876 110.375 70.913 110.376C67.1075 110.379 63.302 110.381 59.4965 110.381C59.2529 110.381 59.0093 110.381 58.7583 110.381C58.5142 110.381 58.27 110.382 58.0184 110.382C57.5237 110.382 57.0289 110.382 56.5341 110.382C56.166 110.382 56.166 110.382 55.7904 110.382C51.8133 110.383 47.8363 110.386 43.8592 110.391C39.7766 110.395 35.6939 110.398 31.6113 110.398C29.3188 110.398 27.0263 110.399 24.7339 110.403C22.7818 110.406 20.8298 110.407 18.8778 110.405C17.8819 110.404 16.886 110.405 15.8901 110.407C14.978 110.41 14.0659 110.41 13.1537 110.407C12.8242 110.407 12.4947 110.407 12.1652 110.409C8.89794 110.425 6.50953 109.775 4.07757 107.494C2.28776 105.582 1.78082 103.37 1.79543 100.819C1.79386 100.485 1.79386 100.485 1.79225 100.144C1.78946 99.4018 1.79084 98.6599 1.79224 97.9178C1.79144 97.3842 1.78978 96.8505 1.78817 96.3169C1.78483 95.0207 1.78465 93.7245 1.78568 92.4283C1.78647 91.375 1.78618 90.3217 1.78514 89.2684C1.78499 89.1182 1.78485 88.9681 1.7847 88.8134C1.7844 88.5083 1.7841 88.2033 1.7838 87.8982C1.78112 85.0417 1.78218 82.1851 1.78442 79.3286C1.78636 76.715 1.78382 74.1014 1.77916 71.4877C1.7744 68.8023 1.77252 66.117 1.77382 63.4316C1.7745 61.9246 1.77406 60.4176 1.77064 58.9106C1.76777 57.6286 1.76764 56.3467 1.77105 55.0648C1.77271 54.4108 1.7727 53.7569 1.77014 53.1028C1.76758 52.3942 1.7698 51.6857 1.77326 50.9771C1.77139 50.77 1.76951 50.5629 1.76758 50.3495C1.78162 48.9586 1.78162 48.9586 2.23261 48.2176C2.7601 47.7367 3.30406 47.2883 3.87311 46.8583C4.11744 46.6701 4.36157 46.4817 4.60553 46.293C4.73292 46.1946 4.86032 46.0963 4.99158 45.995C5.66841 45.4666 6.33302 44.9233 6.99811 44.3803C7.26359 44.1639 7.52909 43.9474 7.79461 43.731C7.91861 43.63 8.04261 43.5289 8.17036 43.4248C8.75506 42.9497 9.34453 42.4807 9.9339 42.0114C10.3791 41.6538 10.8222 41.2939 11.2645 40.9326C11.4062 40.8169 11.548 40.7012 11.694 40.582C11.9776 40.3504 12.2609 40.1185 12.5439 39.8862C12.6736 39.7803 12.8032 39.6745 12.9368 39.5654C13.0533 39.47 13.1697 39.3746 13.2897 39.2763C13.5899 39.0458 13.5899 39.0458 13.9805 38.8505C13.9824 38.6724 13.9842 38.4944 13.9861 38.3109C13.9947 37.6399 14.0068 36.9691 14.0211 36.2983C14.0265 36.0098 14.0307 35.7214 14.0335 35.4329C14.0627 32.559 14.5954 30.4466 16.6615 28.3525C18.5015 26.6721 20.5638 26.277 22.9893 26.3658C23.369 26.3713 23.7487 26.3761 24.1284 26.3803C24.7168 26.3878 25.3038 26.3992 25.8918 26.4235C28.2106 26.5133 29.8523 26.4091 31.6555 24.8407C32.0356 24.4881 32.4058 24.1288 32.771 23.7609C33.3106 23.2369 33.9015 22.7875 34.5005 22.3344C35.4836 21.5699 36.4533 20.7904 37.418 20.0029C38.4968 19.1225 39.5844 18.2551 40.6819 17.3982C41.5556 16.7142 42.4178 16.0169 43.2774 15.3154C44.3827 14.4135 45.4929 13.5188 46.6219 12.6467C47.1343 12.2501 47.6271 11.85 48.1099 11.4167C48.3523 11.2015 48.3523 11.2015 48.5997 10.9819C48.7336 10.8562 48.8676 10.7306 49.0056 10.6012C49.8288 10.1811 50.5781 10.1576 51.4805 10.3349ZM49.6403 15.3497C49.5059 15.462 49.3714 15.5743 49.2329 15.69C49.0161 15.8732 49.0161 15.8732 48.795 16.06C48.4913 16.3135 48.1874 16.5668 47.8833 16.8199C47.7316 16.9461 47.5799 17.0724 47.4237 17.2025C46.8267 17.6947 46.2197 18.1729 45.6089 18.6479C44.6265 19.4132 43.6562 20.1919 42.6915 20.9794C41.7021 21.7869 40.7069 22.5856 39.7007 23.372C37.947 24.7315 37.947 24.7315 36.2462 26.1552C36.2462 26.2197 36.2462 26.2841 36.2462 26.3505C45.6563 26.3505 55.0665 26.3505 64.7618 26.3505C64.0671 25.6559 63.375 25.0026 62.6255 24.373C62.4604 24.2338 62.4604 24.2338 62.292 24.0917C61.4011 23.3454 60.4919 22.6245 59.575 21.9105C58.6903 21.2208 57.8181 20.517 56.9493 19.8076C55.8446 18.9061 54.7323 18.0159 53.6082 17.1389C52.751 16.4699 51.9069 15.7859 51.0685 15.0933C50.4235 14.6282 50.1916 14.8849 49.6403 15.3497ZM19.402 31.2074C19.2967 31.3368 19.1915 31.4662 19.0831 31.5995C18.9207 31.7922 18.9207 31.7922 18.755 31.9886C18.2129 32.7886 18.0333 33.4925 18.0233 34.4526C18.0202 34.6653 18.0171 34.8781 18.014 35.0972C18.0126 35.3287 18.0112 35.5602 18.0098 35.7986C18.007 36.0439 18.0041 36.2892 18.0011 36.5419C17.9919 37.3534 17.9869 38.1649 17.9821 38.9764C17.9803 39.2565 17.9785 39.5366 17.9766 39.8166C17.9691 40.982 17.9626 42.1473 17.9589 43.3126C17.9537 44.9794 17.9425 46.6458 17.9227 48.3125C17.9092 49.4864 17.9025 50.6602 17.9008 51.8342C17.8996 52.5345 17.8956 53.2346 17.8843 53.9348C17.8719 54.7166 17.8735 55.4978 17.8763 56.2797C17.8706 56.51 17.8649 56.7403 17.859 56.9775C17.8718 57.8944 17.8822 58.5201 18.464 59.2547C18.9054 59.6516 19.3525 59.997 19.8399 60.3349C20.0611 60.5112 20.2813 60.6886 20.4998 60.8682C20.7067 61.0287 20.914 61.1886 21.1216 61.3481C22.1374 62.137 23.1407 62.9392 24.1368 63.7529C25.106 64.5439 26.0804 65.3267 27.0665 66.0966C28.1876 66.972 29.2924 67.8661 30.3944 68.7654C31.2314 69.4473 32.0749 70.1197 32.9258 70.7841C34.047 71.6595 35.1518 72.5536 36.2538 73.4529C37.0908 74.1348 37.9343 74.8072 38.7852 75.4716C39.9063 76.347 41.0112 77.2411 42.1132 78.1404C42.9502 78.8223 43.7937 79.4947 44.6446 80.1591C45.9281 81.1614 47.1922 82.1868 48.4539 83.2162C48.5718 83.3111 48.6897 83.406 48.8111 83.5038C49.1006 83.7426 49.3787 83.9951 49.6548 84.2492C50.0847 84.5896 50.0847 84.5896 50.5658 84.5826C51.3743 84.2366 51.9783 83.6844 52.6402 83.1132C52.9385 82.8615 53.2371 82.6099 53.5359 82.3587C53.6839 82.2336 53.8318 82.1086 53.9843 81.9798C54.5758 81.4856 55.1807 81.01 55.7896 80.5375C56.7721 79.7723 57.7424 78.9935 58.7071 78.206C59.7859 77.3256 60.8735 76.4583 61.9709 75.6013C62.8447 74.9174 63.7068 74.22 64.5665 73.5185C65.6453 72.6381 66.7328 71.7708 67.8303 70.9138C68.704 70.2299 69.5662 69.5325 70.4258 68.831C71.5046 67.9506 72.5922 67.0833 73.6897 66.2263C74.6976 65.4373 75.6897 64.6295 76.6813 63.8202C77.6495 63.0314 78.6282 62.2571 79.6122 61.4882C81.3261 60.1942 81.3261 60.1942 82.9258 58.7724C82.9463 58.4473 82.9531 58.1213 82.9546 57.7955C82.956 57.5839 82.9574 57.3722 82.9588 57.1541C82.9593 56.9199 82.9599 56.6856 82.9604 56.4442C82.9617 56.1991 82.963 55.9539 82.9643 55.7013C82.9677 55.0265 82.9698 54.3517 82.9714 53.6769C82.9724 53.2552 82.9736 52.8334 82.9748 52.4117C82.9785 51.0916 82.9813 49.7716 82.9829 48.4515C82.9848 46.9288 82.99 45.4061 82.9979 43.8834C83.0038 42.7062 83.0066 41.529 83.0073 40.3518C83.0078 39.6489 83.0095 38.9461 83.0144 38.2432C83.0198 37.4577 83.019 36.6724 83.0176 35.8868C83.0201 35.6553 83.0226 35.4238 83.0252 35.1853C83.0157 33.6675 82.8168 32.6143 81.8104 31.4241C81.7032 31.337 81.5959 31.2498 81.4854 31.1601C81.3792 31.07 81.2729 30.9798 81.1635 30.887C79.9356 30.125 78.6611 30.2012 77.2655 30.2059C76.9091 30.2047 76.9091 30.2047 76.5456 30.2036C75.8876 30.2019 75.2297 30.202 74.5718 30.2028C73.8616 30.2033 73.1514 30.2016 72.4412 30.2001C71.0505 30.1976 69.6597 30.1973 68.269 30.1977C67.1385 30.1981 66.0079 30.1977 64.8774 30.1969C64.7165 30.1968 64.5556 30.1967 64.3898 30.1965C64.0628 30.1963 63.7359 30.1961 63.409 30.1958C60.3432 30.1937 57.2774 30.1941 54.2117 30.1953C51.4077 30.1963 48.6037 30.1941 45.7997 30.1904C42.9199 30.1866 40.0401 30.185 37.1603 30.1858C35.5438 30.1861 33.9273 30.1856 32.3108 30.1829C30.9346 30.1806 29.5584 30.1803 28.1822 30.1826C27.4802 30.1838 26.7783 30.184 26.0764 30.1817C25.3149 30.1792 24.5535 30.1812 23.792 30.1837C23.5709 30.1822 23.3498 30.1808 23.122 30.1793C21.7294 30.1889 20.5148 30.2807 19.402 31.2074ZM12.5767 45.0639C11.4077 46.0215 10.2306 46.9669 9.03806 47.895C8.32968 48.4475 7.63676 49.0146 6.94928 49.5927C7.20648 50.3643 7.70195 50.6597 8.32867 51.1308C8.57735 51.3215 8.82581 51.5125 9.07406 51.7038C9.20502 51.8044 9.33597 51.9051 9.47089 52.0088C10.3029 52.6577 11.1149 53.3316 11.9283 54.0036C12.0516 54.1047 12.175 54.2058 12.3021 54.31C12.4094 54.3986 12.5168 54.4872 12.6275 54.5785C13.1258 54.9592 13.654 55.2995 14.1758 55.6474C14.1758 51.7802 14.1758 47.913 14.1758 43.9286C13.6657 43.9286 12.9808 44.7308 12.5767 45.0639ZM86.8321 43.9286C86.8321 47.7958 86.8321 51.663 86.8321 55.6474C87.873 54.8667 88.8925 54.0801 89.8961 53.2548C91.2631 52.1367 92.6517 51.0506 94.0587 49.9833C93.8004 49.3951 93.5442 49.0448 93.0424 48.6459C92.9166 48.5448 92.7908 48.4437 92.6612 48.3395C92.5262 48.2334 92.3911 48.1273 92.252 48.018C92.1133 47.9074 91.9747 47.7968 91.8318 47.6828C91.5446 47.4541 91.2569 47.2261 90.9687 46.9988C90.5654 46.6806 90.1637 46.3605 89.7625 46.0397C89.5223 45.8486 89.282 45.6576 89.0416 45.4667C88.9316 45.3791 88.8216 45.2915 88.7084 45.2012C88.0985 44.7213 87.503 44.3312 86.8321 43.9286ZM5.7774 54.0849C5.76404 60.2671 5.75367 66.4494 5.74748 72.6316C5.74675 73.3611 5.74599 74.0906 5.74522 74.8202C5.74506 74.9654 5.74491 75.1106 5.74475 75.2603C5.7422 77.6133 5.73758 79.9664 5.7322 82.3195C5.72672 84.7331 5.72346 87.1467 5.72227 89.5604C5.72147 91.0503 5.71893 92.5402 5.71417 94.03C5.71071 95.1716 5.71034 96.3132 5.71113 97.4548C5.71097 97.9237 5.70979 98.3927 5.70756 98.8616C5.70465 99.5003 5.70534 100.139 5.70694 100.777C5.70523 100.964 5.70353 101.151 5.70177 101.344C5.70011 102.333 5.70011 102.333 6.07478 103.23C6.21762 103.363 6.21762 103.363 6.36334 103.499C6.5076 103.364 6.65187 103.23 6.8005 103.091C7.9449 102.029 9.10835 101.011 10.3253 100.031C10.8764 99.5755 11.4036 99.1005 11.9297 98.6161C12.7984 97.8166 13.6968 97.0684 14.6153 96.3273C15.1682 95.8687 15.6981 95.3917 16.2266 94.9052C17.0952 94.1057 17.9936 93.3575 18.9122 92.6164C19.6522 92.0025 20.3541 91.3502 21.0614 90.6991C21.5818 90.232 22.115 89.7895 22.6597 89.351C23.4399 88.7217 24.1847 88.068 24.918 87.3857C25.8184 86.5479 26.7496 85.7638 27.7081 84.9923C28.2592 84.5364 28.7864 84.0615 29.3126 83.5771C30.0114 82.9339 30.7218 82.318 31.461 81.7216C32.9345 80.531 34.328 79.2596 35.6602 77.913C34.5715 76.9078 33.4398 75.9745 32.2711 75.0655C31.373 74.366 30.4872 73.6527 29.6055 72.9326C28.6364 72.1415 27.6619 71.3587 26.6758 70.5888C25.5547 69.7134 24.4499 68.8194 23.3479 67.92C22.5109 67.2382 21.6674 66.5657 20.8165 65.9013C19.6954 65.0259 18.5905 64.1319 17.4885 63.2325C16.6515 62.5507 15.808 61.8782 14.9571 61.2138C13.9711 60.4439 12.9966 59.661 12.0274 58.8701C10.6088 57.7128 9.17375 56.5784 7.73053 55.4521C7.54774 55.3078 7.36496 55.1636 7.17663 55.0149C7.01701 54.8893 6.85739 54.7637 6.69293 54.6342C6.55672 54.5267 6.42052 54.4192 6.28018 54.3084C6.00974 54.0658 6.00974 54.0658 5.7774 54.0849ZM93.6314 55.2202C92.6099 56.0567 91.5843 56.8863 90.543 57.6982C89.5569 58.468 88.5826 59.251 87.6133 60.0419C86.5346 60.9223 85.447 61.7897 84.3495 62.6466C83.4758 63.3306 82.6136 64.0279 81.754 64.7294C80.7848 65.5204 79.8103 66.3033 78.8243 67.0732C77.5523 68.0665 76.3001 69.0831 75.0493 70.1028C74.3369 70.6834 73.6195 71.2574 72.9008 71.8301C72.3548 72.2684 71.8119 72.7103 71.2692 73.1527C70.0011 74.1863 68.727 75.2108 67.4361 76.2157C66.7278 76.768 66.035 77.3351 65.3477 77.913C66.9765 79.5599 68.6821 81.109 70.4884 82.5593C71.0377 83.0125 71.5622 83.4854 72.086 83.9677C72.7848 84.6109 73.4953 85.2268 74.2344 85.8232C75.1633 86.5726 76.0421 87.365 76.92 88.173C77.4449 88.6442 77.9824 89.0913 78.5313 89.5341C79.4605 90.2838 80.3395 91.0764 81.2176 91.8847C81.7381 92.3519 82.2712 92.7944 82.816 93.2328C83.7017 93.9472 84.5382 94.6994 85.3706 95.4739C86.1735 96.2165 87.0123 96.9057 87.8643 97.5915C88.4154 98.0475 88.9426 98.5224 89.4688 99.0068C90.3392 99.8078 91.2386 100.559 92.1589 101.302C93.0126 102.006 93.8292 102.751 94.6446 103.499C95.0813 103.062 95.2158 102.756 95.2548 102.139C95.2547 101.992 95.2546 101.845 95.2546 101.694C95.255 101.524 95.2553 101.354 95.2557 101.179C95.2549 100.899 95.2549 100.899 95.254 100.613C95.2542 100.415 95.2543 100.216 95.2545 100.012C95.2548 99.3446 95.2538 98.677 95.2527 98.0095C95.2526 97.5322 95.2527 97.0549 95.2528 96.5776C95.2528 95.5484 95.2523 94.5192 95.2512 93.49C95.2496 92.002 95.2491 90.514 95.2488 89.0259C95.2484 86.6118 95.2471 84.1976 95.2453 81.7835C95.2435 79.4381 95.2421 77.0928 95.2413 74.7474C95.2412 74.6029 95.2412 74.4584 95.2411 74.3095C95.2408 73.5844 95.2406 72.8594 95.2404 72.1343C95.2383 66.1179 95.2349 60.1014 95.2305 54.0849C94.7206 54.0849 94.0354 54.8872 93.6314 55.2202ZM37.8331 81.3188C37.0951 81.9997 36.345 82.6539 35.5626 83.2841C34.6334 84.0338 33.7544 84.8264 32.8762 85.6347C32.3558 86.1019 31.8227 86.5444 31.2779 86.9828C30.4977 87.6121 29.7529 88.2659 29.0196 88.9482C28.1192 89.786 27.188 90.5701 26.2295 91.3415C25.6784 91.7975 25.1512 92.2724 24.6251 92.7568C23.7565 93.5563 22.858 94.3045 21.9395 95.0456C21.3866 95.5043 20.8567 95.9812 20.3282 96.4677C19.4596 97.2672 18.5612 98.0155 17.6426 98.7565C16.9026 99.3704 16.2007 100.023 15.4934 100.674C14.973 101.141 14.4398 101.583 13.8951 102.022C12.8957 102.828 11.9547 103.682 11.0165 104.558C10.4551 105.07 9.8803 105.556 9.29303 106.038C10.0122 106.517 10.3601 106.478 11.2183 106.478C11.4249 106.479 11.4249 106.479 11.6356 106.48C12.1004 106.481 12.5652 106.48 13.03 106.478C13.3653 106.479 13.7005 106.479 14.0357 106.48C14.9597 106.482 15.8836 106.481 16.8075 106.48C17.8028 106.479 18.7982 106.48 19.7935 106.481C21.7445 106.483 23.6955 106.483 25.6464 106.481C27.2315 106.481 28.8165 106.48 30.4015 106.481C30.7394 106.481 30.7394 106.481 31.0841 106.481C31.5416 106.481 31.9992 106.481 32.4567 106.481C36.751 106.483 41.0453 106.481 45.3396 106.479C49.0275 106.477 52.7153 106.478 56.4032 106.48C60.6817 106.482 64.9602 106.482 69.2387 106.481C69.6946 106.481 70.1505 106.481 70.6064 106.481C70.8307 106.481 71.0551 106.481 71.2862 106.481C72.87 106.48 74.4539 106.481 76.0378 106.482C77.9669 106.483 79.896 106.483 81.8252 106.481C82.8102 106.48 83.7952 106.479 84.7803 106.48C85.6809 106.482 86.5815 106.481 87.4822 106.479C87.8091 106.478 88.1359 106.479 88.4628 106.48C88.9051 106.481 89.3473 106.48 89.7896 106.478C90.0359 106.478 90.2822 106.478 90.5359 106.478C91.1634 106.474 91.1634 106.474 91.7149 106.038C90.4275 104.836 89.1257 103.675 87.753 102.57C87.2019 102.115 86.6747 101.64 86.1485 101.155C85.4497 100.512 84.7392 99.8961 84.0001 99.2997C83.0709 98.5501 82.1919 97.7575 81.3138 96.9491C80.7933 96.482 80.2602 96.0395 79.7154 95.601C78.8297 94.8867 77.9932 94.1345 77.1608 93.36C76.3579 92.6173 75.5191 91.9281 74.667 91.2423C74.1159 90.7864 73.5888 90.3115 73.0626 89.8271C72.3637 89.1839 71.6533 88.568 70.9141 87.9716C69.9852 87.2222 69.1065 86.4299 68.2286 85.6218C67.534 84.9982 66.8099 84.4159 66.0832 83.8304C65.5117 83.3558 64.9657 82.8603 64.42 82.3564C63.6561 81.6528 62.891 81.0278 62.0274 80.4521C61.8001 80.6473 61.8001 80.6473 61.5681 80.8465C60.3389 81.8972 59.0946 82.9216 57.8183 83.9145C57.0603 84.5052 56.3118 85.1061 55.5682 85.7148C55.0458 86.1421 54.5209 86.5663 53.9958 86.9902C53.7588 87.1826 53.5228 87.3762 53.2881 87.5714C52.9814 87.8262 52.6705 88.0761 52.3594 88.3256C52.1882 88.4659 52.017 88.6061 51.8406 88.7506C51.1223 89.1324 50.5099 89.2105 49.7227 89.0458C49.2326 88.7547 48.8728 88.4998 48.4532 88.1303C48.3379 88.0344 48.2226 87.9385 48.1038 87.8396C47.8571 87.6343 47.6117 87.4274 47.3675 87.2191C46.7293 86.6776 46.0765 86.1543 45.4258 85.6279C45.1626 85.4132 44.8994 85.1986 44.6362 84.9839C43.7985 84.3033 42.9499 83.6369 42.0989 82.973C41.1766 82.2519 40.2727 81.5107 39.3734 80.7611C38.643 80.1867 38.4538 80.7411 37.8331 81.3188Z" fill="black"/>
<path d="M40.6301 62.2749C41.0856 60.083 42.2767 58.1127 44.0059 56.6908C45.7351 55.2689 47.8984 54.4809 50.137 54.4574C52.3756 54.4339 54.5549 55.1764 56.3135 56.5618C58.0722 57.9471 59.3044 59.892 59.8057 62.0738" stroke="black" stroke-width="3.18455" stroke-linecap="round" stroke-linejoin="round"/>
<path d="M58.1442 45.3646C59.3754 45.3646 60.3734 44.3666 60.3734 43.1354C60.3734 41.9043 59.3754 40.9062 58.1442 40.9062C56.9131 40.9062 55.915 41.9043 55.915 43.1354C55.915 44.3666 56.9131 45.3646 58.1442 45.3646Z" fill="black"/>
<path d="M42.2214 45.3646C43.4525 45.3646 44.4506 44.3666 44.4506 43.1354C44.4506 41.9043 43.4525 40.9062 42.2214 40.9062C40.9902 40.9062 39.9922 41.9043 39.9922 43.1354C39.9922 44.3666 40.9902 45.3646 42.2214 45.3646Z" fill="black"/>
</g>
<path d="M117.5 10.8311L97.5 30.8311M97.5 10.8311L117.5 30.8311" stroke="#E00000" stroke-width="3.33333" stroke-linecap="round" stroke-linejoin="round"/>
<defs>
<clipPath id="clip0_309_14108">
<rect width="100" height="100" fill="white" transform="translate(0.5 10.335)"/>
</clipPath>
</defs>
</svg>
