<svg width="174" height="112" viewBox="0 0 174 112" fill="none" xmlns="http://www.w3.org/2000/svg">
<g clip-path="url(#clip0_309_13952)">
<path d="M87.4815 11.3339C88.1005 11.6607 88.5819 12.0921 89.0928 12.5668C89.3822 12.8204 89.6719 13.0737 89.9618 13.3267C90.1037 13.453 90.2455 13.5792 90.3916 13.7093C90.97 14.2155 91.5724 14.6862 92.1812 15.1547C93.164 15.9195 94.134 16.6988 95.0987 17.4863C96.0679 18.2772 97.0424 19.0601 98.0284 19.83C99.0144 20.5999 99.9888 21.3828 100.958 22.1738C102.908 23.7682 102.908 23.7682 104.905 25.3029C105.255 25.5917 105.255 25.5917 105.616 25.9969C106.887 27.2888 108.097 27.3179 109.816 27.3344C110.408 27.3323 110.999 27.3233 111.59 27.3129C112.371 27.3061 113.152 27.3036 113.933 27.3045C114.118 27.3046 114.303 27.3047 114.494 27.3048C116.821 27.3276 118.809 27.9047 120.54 29.5193C121.84 30.9125 122.797 32.5187 122.852 34.4718C122.835 34.821 122.835 34.821 122.818 35.1773C122.585 38.0723 122.585 38.0723 123.539 40.6354C124.092 41.1102 124.714 41.4454 125.362 41.7739C126.087 42.179 126.694 42.7317 127.325 43.2675C127.589 43.4841 127.854 43.7 128.119 43.9153C128.248 44.02 128.377 44.1248 128.51 44.2327C129.083 44.6943 129.663 45.1468 130.243 45.5991C131.32 46.4404 132.383 47.2971 133.441 48.1625C133.587 48.2814 133.733 48.4002 133.884 48.5226C134.019 48.6336 134.154 48.7447 134.293 48.8591C134.414 48.9579 134.535 49.0568 134.659 49.1586C135.024 49.4951 135.131 49.7086 135.163 50.2049C135.163 50.3686 135.163 50.5324 135.163 50.7011C135.164 50.8898 135.165 51.0785 135.166 51.2729C135.166 51.4817 135.165 51.6905 135.165 51.9056C135.166 52.2367 135.166 52.2367 135.167 52.5744C135.169 53.3189 135.169 54.0635 135.169 54.8081C135.17 55.3399 135.171 55.8718 135.172 56.4036C135.175 57.8524 135.176 59.3011 135.177 60.7499C135.177 61.6547 135.178 62.5594 135.179 63.4642C135.181 65.9693 135.183 68.4745 135.184 70.9797C135.184 71.1401 135.184 71.3005 135.184 71.4658C135.184 71.6266 135.184 71.7875 135.184 71.9532C135.185 72.279 135.185 72.6049 135.185 72.9308C135.185 73.0924 135.185 73.2541 135.185 73.4206C135.186 76.0375 135.189 78.6543 135.194 81.2712C135.198 83.9581 135.201 86.6449 135.201 89.3318C135.201 90.8403 135.202 92.3488 135.206 93.8572C135.209 95.1424 135.21 96.4275 135.208 97.7127C135.207 98.368 135.208 99.0232 135.21 99.6786C135.213 100.39 135.212 101.102 135.21 101.814C135.212 102.122 135.212 102.122 135.214 102.436C135.198 104.903 134.399 106.851 132.751 108.694C130.936 110.453 128.826 111.357 126.314 111.36C126.174 111.36 126.035 111.36 125.891 111.361C125.421 111.362 124.952 111.362 124.483 111.361C124.143 111.362 123.804 111.362 123.464 111.363C122.531 111.365 121.597 111.365 120.663 111.365C119.656 111.366 118.65 111.367 117.643 111.368C115.441 111.371 113.24 111.372 111.038 111.373C109.663 111.374 108.289 111.374 106.914 111.375C103.108 111.378 99.3029 111.38 95.4974 111.38C95.2539 111.38 95.0103 111.38 94.7593 111.38C94.5151 111.381 94.271 111.381 94.0194 111.381C93.5246 111.381 93.0299 111.381 92.5351 111.381C92.1669 111.381 92.1669 111.381 91.7914 111.381C87.8143 111.382 83.8373 111.385 79.8602 111.39C75.7776 111.394 71.6949 111.397 67.6123 111.397C65.3198 111.397 63.0273 111.398 60.7349 111.402C58.7828 111.405 56.8308 111.406 54.8787 111.404C53.8828 111.403 52.887 111.404 51.8911 111.406C50.979 111.409 50.0668 111.409 49.1547 111.406C48.8252 111.406 48.4957 111.407 48.1661 111.408C44.8989 111.424 42.5105 110.774 40.0786 108.493C38.2887 106.581 37.7818 104.369 37.7964 101.818C37.7948 101.484 37.7948 101.484 37.7932 101.143C37.7904 100.401 37.7918 99.6589 37.7932 98.9168C37.7924 98.3832 37.7908 97.8496 37.7892 97.3159C37.7858 96.0197 37.7856 94.7236 37.7867 93.4274C37.7874 92.374 37.7872 91.3207 37.7861 90.2674C37.786 90.1172 37.7858 89.9671 37.7857 89.8124C37.7854 89.5074 37.7851 89.2023 37.7848 88.8973C37.7821 86.0407 37.7832 83.1842 37.7854 80.3276C37.7873 77.714 37.7848 75.1004 37.7801 72.4868C37.7754 69.8014 37.7735 67.116 37.7748 64.4306C37.7755 62.9236 37.775 61.4166 37.7716 59.9096C37.7687 58.6277 37.7686 57.3458 37.772 56.0638C37.7737 55.4098 37.7737 54.7559 37.7711 54.1019C37.7686 53.3932 37.7708 52.6847 37.7742 51.9761C37.7724 51.769 37.7705 51.5619 37.7686 51.3486C37.7826 49.9576 37.7826 49.9576 38.2336 49.2166C38.7611 48.7357 39.305 48.2873 39.8741 47.8574C40.1184 47.6692 40.3626 47.4807 40.6065 47.292C40.7339 47.1937 40.8613 47.0953 40.9926 46.994C41.6694 46.4656 42.334 45.9224 42.9991 45.3793C43.2646 45.1629 43.5301 44.9465 43.7956 44.7301C43.9196 44.629 44.0436 44.528 44.1713 44.4238C44.756 43.9487 45.3455 43.4797 45.9349 43.0104C46.3801 42.6528 46.8232 42.2929 47.2654 41.9316C47.4072 41.8159 47.5489 41.7002 47.695 41.581C47.9785 41.3494 48.2619 41.1175 48.5449 40.8852C48.6746 40.7794 48.8042 40.6735 48.9378 40.5644C49.0542 40.469 49.1707 40.3736 49.2907 40.2753C49.5909 40.0449 49.5909 40.0449 49.9815 39.8495C49.9833 39.6715 49.9852 39.4934 49.987 39.3099C49.9957 38.6389 50.0078 37.9682 50.022 37.2973C50.0275 37.0088 50.0317 36.7204 50.0344 36.4319C50.0637 33.558 50.5964 31.4456 52.6625 29.3515C54.5025 27.6711 56.5648 27.276 58.9903 27.3648C59.37 27.3704 59.7497 27.3752 60.1294 27.3793C60.7178 27.3868 61.3048 27.3982 61.8928 27.4225C64.2116 27.5123 65.8533 27.4081 67.6565 25.8397C68.0366 25.4871 68.4068 25.1279 68.772 24.7599C69.3115 24.2359 69.9025 23.7866 70.5015 23.3334C71.4846 22.5689 72.4543 21.7894 73.419 21.0019C74.4978 20.1215 75.5854 19.2541 76.6829 18.3972C77.5566 17.7133 78.4187 17.0159 79.2784 16.3144C80.3837 15.4125 81.4938 14.5178 82.6229 13.6458C83.1353 13.2491 83.628 12.849 84.1108 12.4158C84.3533 12.2005 84.3533 12.2005 84.6006 11.9809C84.7346 11.8553 84.8685 11.7296 85.0065 11.6002C85.8298 11.1801 86.5791 11.1566 87.4815 11.3339ZM85.6413 16.3487C85.5068 16.461 85.3724 16.5733 85.2338 16.689C85.0171 16.8722 85.0171 16.8722 84.796 17.059C84.4923 17.3126 84.1884 17.5659 83.8842 17.8189C83.7326 17.9452 83.5809 18.0714 83.4247 18.2015C82.8277 18.6937 82.2206 19.172 81.6099 19.6469C80.6275 20.4123 79.6572 21.1909 78.6924 21.9785C77.7031 22.786 76.7079 23.5846 75.7017 24.371C73.9479 25.7306 73.9479 25.7306 72.2471 27.1542C72.2471 27.2187 72.2471 27.2831 72.2471 27.3495C81.6573 27.3495 91.0674 27.3495 100.763 27.3495C100.068 26.6549 99.376 26.0016 98.6265 25.372C98.4614 25.2328 98.4614 25.2328 98.293 25.0908C97.4021 24.3444 96.4929 23.6235 95.576 22.9095C94.6913 22.2198 93.8191 21.516 92.9503 20.8066C91.8456 19.9052 90.7333 19.015 89.6092 18.138C88.7519 17.4689 87.9078 16.785 87.0695 16.0924C86.4244 15.6272 86.1926 15.884 85.6413 16.3487ZM55.403 32.2064C55.2977 32.3358 55.1925 32.4652 55.084 32.5986C54.9217 32.7912 54.9217 32.7912 54.756 32.9877C54.2139 33.7876 54.0343 34.4915 54.0243 35.4516C54.0212 35.6644 54.0181 35.8771 54.0149 36.0963C54.0136 36.3277 54.0122 36.5592 54.0108 36.7976C54.0079 37.0429 54.0051 37.2882 54.0021 37.5409C53.9929 38.3524 53.9879 39.1639 53.9831 39.9754C53.9813 40.2555 53.9794 40.5356 53.9776 40.8157C53.97 41.981 53.9636 43.1463 53.9599 44.3116C53.9547 45.9784 53.9434 47.6449 53.9236 49.3115C53.9102 50.4854 53.9035 51.6592 53.9018 52.8332C53.9006 53.5335 53.8966 54.2336 53.8853 54.9338C53.8729 55.7156 53.8745 56.4968 53.8773 57.2788C53.8716 57.509 53.8659 57.7393 53.86 57.9765C53.8728 58.8934 53.8832 59.5191 54.465 60.2537C54.9063 60.6506 55.3535 60.996 55.8409 61.3339C56.062 61.5102 56.2823 61.6876 56.5008 61.8672C56.7077 62.0277 56.915 62.1876 57.1226 62.3471C58.1384 63.136 59.1417 63.9383 60.1378 64.7519C61.1069 65.5429 62.0814 66.3257 63.0674 67.0956C64.1886 67.971 65.2934 68.8651 66.3954 69.7644C67.2324 70.4463 68.0759 71.1187 68.9268 71.7831C70.0479 72.6585 71.1528 73.5526 72.2548 74.4519C73.0918 75.1338 73.9353 75.8062 74.7862 76.4706C75.9073 77.346 77.0122 78.2401 78.1141 79.1394C78.9511 79.8213 79.7947 80.4937 80.6456 81.1581C81.9291 82.1604 83.1931 83.1858 84.4549 84.2152C84.5728 84.3101 84.6906 84.405 84.8121 84.5028C85.1016 84.7416 85.3797 84.9941 85.6558 85.2483C86.0857 85.5886 86.0857 85.5886 86.5667 85.5817C87.3752 85.2357 87.9793 84.6834 88.6412 84.1122C88.9395 83.8605 89.2381 83.609 89.5369 83.3577C89.6848 83.2327 89.8328 83.1076 89.9853 82.9788C90.5768 82.4846 91.1817 82.009 91.7906 81.5366C92.7731 80.7713 93.7433 79.9925 94.7081 79.205C95.7868 78.3246 96.8744 77.4573 97.9719 76.6003C98.8456 75.9164 99.7078 75.2191 100.567 74.5175C101.646 73.6371 102.734 72.7698 103.831 71.9128C104.705 71.2289 105.567 70.5316 106.427 69.83C107.506 68.9496 108.593 68.0823 109.691 67.2253C110.699 66.4363 111.691 65.6286 112.682 64.8192C113.65 64.0304 114.629 63.2561 115.613 62.4872C117.327 61.1932 117.327 61.1932 118.927 59.7714C118.947 59.4463 118.954 59.1203 118.956 58.7945C118.957 58.5829 118.958 58.3712 118.96 58.1532C118.96 57.9189 118.961 57.6846 118.961 57.4433C118.963 57.1981 118.964 56.9529 118.965 56.7003C118.969 56.0255 118.971 55.3508 118.972 54.676C118.973 54.2542 118.975 53.8324 118.976 53.4107C118.979 52.0906 118.982 50.7706 118.984 49.4506C118.986 47.9278 118.991 46.4051 118.999 44.8824C119.005 43.7052 119.008 42.528 119.008 41.3508C119.009 40.6479 119.01 39.9451 119.015 39.2423C119.021 38.4568 119.02 37.6714 119.019 36.8859C119.021 36.6544 119.024 36.4229 119.026 36.1844C119.017 34.6666 118.818 33.6133 117.811 32.4231C117.704 32.336 117.597 32.2489 117.486 32.1591C117.38 32.069 117.274 31.9788 117.164 31.886C115.937 31.124 114.662 31.2002 113.266 31.2049C112.91 31.2038 112.91 31.2038 112.547 31.2026C111.889 31.201 111.231 31.201 110.573 31.2019C109.863 31.2024 109.152 31.2006 108.442 31.1991C107.051 31.1966 105.661 31.1963 104.27 31.1967C103.139 31.1971 102.009 31.1968 100.878 31.1959C100.717 31.1958 100.557 31.1957 100.391 31.1956C100.064 31.1953 99.7369 31.1951 99.41 31.1949C96.3442 31.1927 93.2784 31.1932 90.2127 31.1943C87.4087 31.1954 84.6047 31.1932 81.8007 31.1894C78.9209 31.1857 76.0411 31.184 73.1613 31.1848C71.5448 31.1852 69.9283 31.1847 68.3117 31.1819C66.9355 31.1796 65.5593 31.1793 64.1831 31.1817C63.4812 31.1828 62.7793 31.183 62.0774 31.1807C61.3159 31.1782 60.5545 31.1802 59.793 31.1827C59.5719 31.1813 59.3508 31.1798 59.123 31.1783C57.7304 31.1879 56.5158 31.2797 55.403 32.2064ZM48.5777 46.0629C47.4086 47.0205 46.2316 47.9659 45.039 48.8941C44.3307 49.4465 43.6377 50.0137 42.9503 50.5917C43.2075 51.3633 43.7029 51.6587 44.3296 52.1298C44.5783 52.3205 44.8268 52.5115 45.075 52.7028C45.206 52.8035 45.3369 52.9041 45.4719 53.0079C46.3039 53.6567 47.1159 54.3306 47.9292 55.0026C48.0526 55.1037 48.1759 55.2048 48.303 55.309C48.4104 55.3976 48.5178 55.4862 48.6284 55.5775C49.1268 55.9583 49.655 56.2985 50.1768 56.6464C50.1768 52.7792 50.1768 48.912 50.1768 44.9277C49.6667 44.9277 48.9817 45.7299 48.5777 46.0629ZM122.833 44.9277C122.833 48.7949 122.833 52.662 122.833 56.6464C123.874 55.8658 124.893 55.0791 125.897 54.2538C127.264 53.1357 128.653 52.0496 130.06 50.9824C129.801 50.3941 129.545 50.0438 129.043 49.6449C128.918 49.5438 128.792 49.4427 128.662 49.3385C128.527 49.2324 128.392 49.1263 128.253 49.017C128.114 48.9064 127.976 48.7958 127.833 48.6818C127.546 48.4532 127.258 48.2252 126.97 47.9978C126.566 47.6797 126.165 47.3595 125.764 47.0387C125.523 46.8476 125.283 46.6566 125.043 46.4658C124.933 46.3781 124.823 46.2905 124.709 46.2002C124.099 45.7203 123.504 45.3302 122.833 44.9277ZM41.7784 55.0839C41.765 61.2662 41.7546 67.4484 41.7485 73.6306C41.7477 74.3601 41.747 75.0897 41.7462 75.8192C41.746 75.9644 41.7459 76.1097 41.7457 76.2593C41.7432 78.6124 41.7386 80.9654 41.7332 83.3185C41.7277 85.7321 41.7244 88.1458 41.7232 90.5594C41.7224 92.0493 41.7199 93.5392 41.7151 95.0291C41.7117 96.1706 41.7113 97.3122 41.7121 98.4538C41.7119 98.9227 41.7108 99.3917 41.7085 99.8606C41.7056 100.499 41.7063 101.138 41.7079 101.776C41.7062 101.963 41.7045 102.15 41.7027 102.343C41.7011 103.332 41.7011 103.332 42.0758 104.229C42.2186 104.362 42.2186 104.362 42.3643 104.498C42.5086 104.363 42.6528 104.229 42.8015 104.09C43.9459 103.028 45.1093 102.01 46.3263 101.03C46.8774 100.574 47.4045 100.1 47.9307 99.6152C48.7993 98.8157 49.6978 98.0674 50.6163 97.3264C51.1692 96.8677 51.6991 96.3907 52.2276 95.9042C53.0962 95.1047 53.9946 94.3565 54.9131 93.6154C55.6532 93.0015 56.3551 92.3492 57.0623 91.6982C57.5828 91.231 58.1159 90.7885 58.6607 90.35C59.4409 89.7208 60.1857 89.067 60.919 88.3847C61.8194 87.5469 62.7506 86.7628 63.7091 85.9914C64.2602 85.5354 64.7873 85.0605 65.3135 84.5761C66.0124 83.9329 66.7228 83.317 67.462 82.7206C68.9355 81.53 70.329 80.2586 71.6612 78.912C70.5725 77.9069 69.4408 76.9735 68.2721 76.0645C67.3739 75.3651 66.4881 74.6518 65.6065 73.9316C64.6373 73.1406 63.6628 72.3577 62.6768 71.5878C61.5557 70.7124 60.4509 69.8184 59.3489 68.9191C58.5119 68.2372 57.6684 67.5647 56.8174 66.9003C55.6963 66.0249 54.5915 65.1309 53.4895 64.2316C52.6525 63.5497 51.809 62.8772 50.9581 62.2128C49.972 61.4429 48.9976 60.66 48.0284 59.8691C46.6098 58.7118 45.1747 57.5774 43.7315 56.4511C43.5487 56.3068 43.3659 56.1626 43.1776 56.0139C43.018 55.8883 42.8584 55.7627 42.6939 55.6332C42.5577 55.5257 42.4215 55.4182 42.2812 55.3075C42.0107 55.0648 42.0107 55.0648 41.7784 55.0839ZM129.632 56.2192C128.611 57.0557 127.585 57.8853 126.544 58.6972C125.558 59.467 124.584 60.25 123.614 61.041C122.536 61.9213 121.448 62.7887 120.35 63.6456C119.477 64.3296 118.615 65.0269 117.755 65.7285C116.786 66.5194 115.811 67.3023 114.825 68.0722C113.553 69.0656 112.301 70.0822 111.05 71.1018C110.338 71.6824 109.62 72.2564 108.902 72.8291C108.356 73.2674 107.813 73.7093 107.27 74.1517C106.002 75.1853 104.728 76.2098 103.437 77.2147C102.729 77.7671 102.036 78.3341 101.349 78.912C102.978 80.5589 104.683 82.108 106.489 83.5583C107.039 84.0115 107.563 84.4845 108.087 84.9667C108.786 85.61 109.496 86.2258 110.235 86.8222C111.164 87.5717 112.043 88.364 112.921 89.1721C113.446 89.6433 113.983 90.0903 114.532 90.5331C115.461 91.2828 116.34 92.0754 117.219 92.8838C117.739 93.3509 118.272 93.7934 118.817 94.2319C119.703 94.9462 120.539 95.6984 121.372 96.4729C122.174 97.2156 123.013 97.9048 123.865 98.5905C124.416 99.0465 124.944 99.5214 125.47 100.006C126.34 100.807 127.24 101.558 128.16 102.301C129.014 103.005 129.83 103.75 130.646 104.498C131.082 104.061 131.217 103.755 131.256 103.138C131.256 102.991 131.256 102.844 131.256 102.693C131.256 102.523 131.256 102.353 131.257 102.178C131.256 101.898 131.256 101.898 131.255 101.612C131.255 101.414 131.255 101.215 131.255 101.011C131.256 100.344 131.255 99.6761 131.254 99.0085C131.254 98.5312 131.254 98.0539 131.254 97.5766C131.254 96.5474 131.253 95.5182 131.252 94.489C131.251 93.001 131.25 91.513 131.25 90.0249C131.249 87.6108 131.248 85.1966 131.246 82.7825C131.244 80.4371 131.243 78.0918 131.242 75.7465C131.242 75.6019 131.242 75.4574 131.242 75.3085C131.242 74.5835 131.242 73.8584 131.241 73.1334C131.239 67.1169 131.236 61.1004 131.232 55.0839C130.722 55.0839 130.036 55.8862 129.632 56.2192ZM73.834 82.3178C73.096 82.9987 72.346 83.6529 71.5635 84.2831C70.6344 85.0328 69.7554 85.8254 68.8772 86.6338C68.3567 87.1009 67.8236 87.5434 67.2789 87.9819C66.4986 88.6112 65.7539 89.2649 65.0206 89.9472C64.1202 90.785 63.189 91.5691 62.2305 92.3405C61.6794 92.7965 61.1522 93.2714 60.626 93.7558C59.7574 94.5553 58.859 95.3035 57.9405 96.0446C57.3876 96.5033 56.8577 96.9802 56.3292 97.4667C55.4606 98.2663 54.5621 99.0145 53.6436 99.7556C52.9036 100.369 52.2017 101.022 51.4944 101.673C50.9739 102.14 50.4408 102.582 49.8961 103.021C48.8967 103.827 47.9557 104.681 47.0175 105.557C46.4561 106.069 45.8813 106.555 45.294 107.037C46.0132 107.517 46.3611 107.477 47.2193 107.477C47.4258 107.478 47.4258 107.478 47.6365 107.479C48.1014 107.48 48.5662 107.479 49.031 107.477C49.3663 107.478 49.7015 107.478 50.0367 107.479C50.9606 107.481 51.8846 107.48 52.8085 107.479C53.8038 107.478 54.7992 107.479 55.7945 107.48C57.7455 107.482 59.6964 107.482 61.6474 107.481C63.2324 107.48 64.8175 107.48 66.4025 107.48C66.7404 107.48 66.7404 107.48 67.0851 107.48C67.5426 107.48 68.0001 107.48 68.4577 107.481C72.752 107.482 77.0463 107.48 81.3406 107.478C85.0284 107.477 88.7163 107.477 92.4042 107.479C96.6827 107.481 100.961 107.482 105.24 107.48C105.696 107.48 106.151 107.48 106.607 107.48C106.832 107.48 107.056 107.48 107.287 107.48C108.871 107.479 110.455 107.48 112.039 107.481C113.968 107.482 115.897 107.482 117.826 107.48C118.811 107.479 119.796 107.478 120.781 107.479C121.682 107.481 122.583 107.48 123.483 107.478C123.81 107.478 124.137 107.478 124.464 107.479C124.906 107.48 125.348 107.479 125.791 107.477C126.037 107.477 126.283 107.477 126.537 107.477C127.164 107.473 127.164 107.473 127.716 107.037C126.429 105.835 125.127 104.674 123.754 103.569C123.203 103.114 122.676 102.639 122.149 102.154C121.451 101.511 120.74 100.895 120.001 100.299C119.072 99.5491 118.193 98.7565 117.315 97.9482C116.794 97.481 116.261 97.0385 115.716 96.6C114.831 95.8857 113.994 95.1335 113.162 94.359C112.359 93.6163 111.52 92.9271 110.668 92.2414C110.117 91.7854 109.59 91.3105 109.064 90.8261C108.365 90.1829 107.654 89.567 106.915 88.9706C105.986 88.2212 105.107 87.4289 104.23 86.6208C103.535 85.9972 102.811 85.4149 102.084 84.8294C101.513 84.3548 100.967 83.8594 100.421 83.3554C99.6571 82.6518 98.892 82.0269 98.0284 81.4511C97.801 81.6464 97.801 81.6464 97.5691 81.8456C96.3399 82.8962 95.0955 83.9206 93.8192 84.9135C93.0613 85.5042 92.3128 86.1051 91.5692 86.7138C91.0468 87.1411 90.5219 87.5653 89.9967 87.9892C89.7598 88.1816 89.5238 88.3753 89.2891 88.5704C88.9823 88.8252 88.6715 89.0751 88.3604 89.3246C88.1892 89.4649 88.018 89.6051 87.8416 89.7496C87.1233 90.1315 86.5108 90.2095 85.7237 90.0449C85.2335 89.7537 84.8738 89.4988 84.4542 89.1293C84.3389 89.0334 84.2235 88.9375 84.1047 88.8387C83.8581 88.6333 83.6127 88.4264 83.3685 88.2181C82.7303 87.6767 82.0774 87.1533 81.4268 86.6269C81.1636 86.4123 80.9004 86.1976 80.6372 85.983C79.7994 85.3023 78.9509 84.6359 78.0999 83.972C77.1776 83.251 76.2737 82.5097 75.3744 81.7601C74.644 81.1857 74.4548 81.7401 73.834 82.3178Z" fill="black"/>
<path d="M76.6311 56.1822C77.0866 58.374 78.2777 60.3443 80.0069 61.7662C81.7361 63.1881 83.8994 63.9761 86.138 63.9996C88.3766 64.0231 90.5559 63.2806 92.3145 61.8953C94.0731 60.51 95.3053 58.5651 95.8067 56.3832" stroke="black" stroke-width="3.18455" stroke-linecap="round" stroke-linejoin="round"/>
<path d="M94.1452 46.3637C95.3763 46.3637 96.3744 45.3656 96.3744 44.1345C96.3744 42.9033 95.3763 41.9053 94.1452 41.9053C92.914 41.9053 91.916 42.9033 91.916 44.1345C91.916 45.3656 92.914 46.3637 94.1452 46.3637Z" fill="black"/>
<path d="M78.2223 46.3637C79.4535 46.3637 80.4515 45.3656 80.4515 44.1345C80.4515 42.9033 79.4535 41.9053 78.2223 41.9053C76.9912 41.9053 75.9932 42.9033 75.9932 44.1345C75.9932 45.3656 76.9912 46.3637 78.2223 46.3637Z" fill="black"/>
</g>
<g clip-path="url(#clip1_309_13952)">
<path d="M152.969 17.459C152.967 17.1016 152.87 16.7512 152.686 16.4444C152.503 16.1375 152.241 15.8854 151.927 15.7141L146.366 12.6795C146.271 12.6251 146.198 12.5414 146.155 12.4412C146.113 12.341 146.104 12.2297 146.131 12.1242C146.158 12.0187 146.218 11.9247 146.303 11.8566C146.387 11.7885 146.492 11.7499 146.601 11.7467L152.937 11.7125C153.294 11.7107 153.644 11.6131 153.951 11.4301C154.258 11.2471 154.51 10.9852 154.681 10.6717L157.716 5.11004C157.77 5.01534 157.854 4.94098 157.954 4.89831C158.055 4.85563 158.167 4.84698 158.272 4.87367C158.378 4.90036 158.472 4.96093 158.54 5.04614C158.609 5.13135 158.647 5.23652 158.65 5.3456L158.682 11.681C158.684 12.0384 158.782 12.3887 158.965 12.6956C159.148 13.0024 159.41 13.2546 159.724 13.4258L165.286 16.4595C165.381 16.5135 165.456 16.5973 165.499 16.6979C165.542 16.7986 165.551 16.9106 165.524 17.0167C165.497 17.1228 165.436 17.2172 165.351 17.2854C165.265 17.3536 165.159 17.3918 165.05 17.3942L158.715 17.4265C158.357 17.4284 158.007 17.526 157.7 17.7093C157.393 17.8925 157.141 18.1546 156.97 18.4683L153.935 24.0299C153.881 24.1246 153.797 24.199 153.697 24.2417C153.596 24.2843 153.485 24.293 153.379 24.2663C153.273 24.2396 153.179 24.179 153.111 24.0938C153.043 24.0086 153.004 23.9034 153.001 23.7944L152.969 17.459Z" fill="#6DDEA2"/>
<path d="M165.784 7.80036L164.806 11.6788L165.784 7.80036Z" fill="#6DDEA2"/>
<path d="M167.234 10.2288L163.356 9.25036L167.234 10.2288Z" fill="#6DDEA2"/>
<path d="M146.846 17.4611L146.356 19.4004L146.846 17.4611Z" fill="#6DDEA2"/>
<path d="M147.571 18.6754L145.631 18.1861L147.571 18.6754Z" fill="#6DDEA2"/>
<path d="M165.784 7.80036L164.806 11.6788M167.234 10.2288L163.356 9.25036M146.846 17.4611L146.356 19.4004M147.571 18.6754L145.631 18.1861M152.969 17.459C152.967 17.1016 152.87 16.7513 152.686 16.4444C152.503 16.1375 152.241 15.8854 151.927 15.7141L146.366 12.6795C146.271 12.6251 146.198 12.5414 146.155 12.4412C146.113 12.341 146.104 12.2297 146.131 12.1242C146.158 12.0187 146.218 11.9247 146.303 11.8566C146.387 11.7885 146.492 11.7499 146.601 11.7467L152.937 11.7125C153.294 11.7107 153.644 11.6131 153.951 11.4301C154.258 11.2471 154.51 10.9852 154.681 10.6717L157.716 5.11004C157.77 5.01534 157.854 4.94098 157.954 4.89831C158.055 4.85563 158.167 4.84698 158.272 4.87367C158.378 4.90036 158.472 4.96093 158.54 5.04614C158.609 5.13135 158.647 5.23652 158.65 5.3456L158.682 11.681C158.684 12.0384 158.782 12.3887 158.965 12.6956C159.148 13.0024 159.41 13.2546 159.724 13.4258L165.286 16.4595C165.381 16.5135 165.456 16.5973 165.499 16.6979C165.542 16.7986 165.551 16.9106 165.524 17.0167C165.497 17.1228 165.436 17.2172 165.351 17.2854C165.265 17.3536 165.159 17.3918 165.05 17.3942L158.715 17.4265C158.357 17.4284 158.007 17.526 157.7 17.7093C157.393 17.8925 157.141 18.1546 156.97 18.4683L153.935 24.0299C153.881 24.1246 153.797 24.199 153.697 24.2417C153.596 24.2843 153.485 24.293 153.379 24.2663C153.273 24.2396 153.179 24.179 153.111 24.0938C153.043 24.0086 153.004 23.9034 153.001 23.7944L152.969 17.459Z" stroke="#6DDEA2" stroke-linecap="round" stroke-linejoin="round"/>
</g>
<g clip-path="url(#clip2_309_13952)">
<path d="M164.537 79.0781C164.361 78.966 164.158 78.903 163.95 78.8957C163.741 78.8885 163.535 78.9372 163.352 79.0367L160.105 80.8025C160.049 80.8315 159.984 80.8412 159.922 80.8303C159.859 80.8194 159.802 80.7883 159.759 80.7419C159.715 80.6955 159.688 80.6362 159.682 80.5731C159.675 80.51 159.69 80.4464 159.722 80.3921L161.71 77.2761C161.822 77.1004 161.885 76.8979 161.892 76.6896C161.9 76.4813 161.851 76.2749 161.752 76.0918L159.986 72.845C159.957 72.7885 159.947 72.724 159.958 72.6613C159.968 72.5985 160 72.5411 160.046 72.4977C160.093 72.4543 160.152 72.4273 160.215 72.4208C160.279 72.4144 160.342 72.4288 160.397 72.4619L163.512 74.4503C163.688 74.5624 163.89 74.6254 164.099 74.6327C164.307 74.6399 164.514 74.5913 164.697 74.4917L167.943 72.7255C168 72.6959 168.064 72.6857 168.127 72.6965C168.19 72.7073 168.248 72.7384 168.291 72.7851C168.335 72.8318 168.362 72.8914 168.368 72.955C168.375 73.0185 168.36 73.0823 168.327 73.1367L166.338 76.2519C166.226 76.4277 166.163 76.6303 166.156 76.8386C166.149 77.047 166.197 77.2535 166.297 77.4367L168.063 80.6834C168.092 80.7399 168.102 80.8044 168.091 80.8672C168.08 80.9299 168.049 80.9873 168.002 81.0307C167.956 81.0742 167.896 81.1011 167.833 81.1076C167.77 81.114 167.706 81.0996 167.652 81.0665L164.537 79.0781Z" fill="#6DDEA2"/>
<path d="M163.857 69.7419L165.448 71.4484L163.857 69.7419Z" fill="#6DDEA2"/>
<path d="M165.506 69.7995L163.799 71.3909L165.506 69.7995Z" fill="#6DDEA2"/>
<path d="M162.6 82.08L163.396 82.9332L162.6 82.08Z" fill="#6DDEA2"/>
<path d="M163.425 82.1088L162.572 82.9044L163.425 82.1088Z" fill="#6DDEA2"/>
<path d="M163.857 69.7419L165.448 71.4484M165.506 69.7995L163.799 71.3909M162.6 82.08L163.396 82.9332M163.425 82.1088L162.572 82.9044M164.537 79.0781C164.361 78.966 164.158 78.903 163.95 78.8957C163.741 78.8885 163.535 78.9372 163.352 79.0367L160.105 80.8025C160.049 80.8315 159.984 80.8412 159.922 80.8303C159.859 80.8194 159.802 80.7883 159.759 80.7419C159.715 80.6955 159.688 80.6362 159.682 80.5731C159.675 80.51 159.69 80.4464 159.722 80.3921L161.71 77.2761C161.822 77.1004 161.885 76.8979 161.892 76.6896C161.9 76.4813 161.851 76.2749 161.752 76.0918L159.986 72.845C159.957 72.7885 159.947 72.724 159.958 72.6613C159.968 72.5985 160 72.5411 160.046 72.4977C160.093 72.4543 160.152 72.4273 160.215 72.4208C160.279 72.4144 160.342 72.4288 160.397 72.4619L163.512 74.4503C163.688 74.5624 163.89 74.6254 164.099 74.6327C164.307 74.6399 164.514 74.5913 164.697 74.4917L167.943 72.7255C168 72.6959 168.064 72.6857 168.127 72.6965C168.19 72.7073 168.248 72.7384 168.291 72.7851C168.335 72.8318 168.362 72.8914 168.368 72.955C168.375 73.0185 168.36 73.0823 168.327 73.1367L166.338 76.2519C166.226 76.4277 166.163 76.6303 166.156 76.8386C166.149 77.047 166.197 77.2535 166.297 77.4367L168.063 80.6834C168.092 80.7399 168.102 80.8044 168.091 80.8672C168.08 80.9299 168.049 80.9873 168.002 81.0307C167.956 81.0742 167.896 81.1011 167.833 81.1076C167.77 81.114 167.706 81.0996 167.652 81.0665L164.537 79.0781Z" stroke="#6DDEA2" stroke-width="0.583333" stroke-linecap="round" stroke-linejoin="round"/>
</g>
<g clip-path="url(#clip3_309_13952)">
<path d="M16.3272 36.7241C16.6177 36.9324 16.9586 37.0591 17.3146 37.0909C17.6705 37.1228 18.0286 37.0587 18.3514 36.9053L24.0735 34.1854C24.1729 34.141 24.284 34.1303 24.39 34.1549C24.496 34.1794 24.5911 34.2379 24.6608 34.3214C24.7306 34.4049 24.7712 34.5088 24.7766 34.6175C24.7819 34.7262 24.7516 34.8336 24.6904 34.9236L20.9977 40.0722C20.7894 40.3625 20.6627 40.7032 20.6307 41.059C20.5987 41.4149 20.6626 41.7728 20.8158 42.0955L23.5358 47.8177C23.5806 47.9172 23.5916 48.0286 23.5672 48.1349C23.5428 48.2413 23.4842 48.3367 23.4005 48.4067C23.3168 48.4767 23.2124 48.5173 23.1034 48.5225C22.9944 48.5276 22.8868 48.497 22.7968 48.4352L17.6497 44.7412C17.3593 44.5329 17.0184 44.4062 16.6624 44.3744C16.3064 44.3425 15.9484 44.4066 15.6256 44.56L9.90409 47.2807C9.80448 47.326 9.69275 47.3374 9.58604 47.3131C9.47933 47.2888 9.38354 47.2302 9.31337 47.1462C9.24319 47.0622 9.20251 46.9575 9.19756 46.8482C9.1926 46.7389 9.22366 46.631 9.28595 46.541L12.9799 41.3939C13.1882 41.1035 13.3149 40.7625 13.3468 40.4066C13.3786 40.0506 13.3145 39.6926 13.1611 39.3698L10.4412 33.6476C10.3964 33.5481 10.3853 33.4367 10.4098 33.3304C10.4342 33.224 10.4927 33.1286 10.5765 33.0586C10.6602 32.9886 10.7645 32.948 10.8735 32.9428C10.9825 32.9377 11.0902 32.9683 11.1801 33.0301L16.3272 36.7241Z" fill="#6DDEA2"/>
<path d="M16.6207 52.7686L14.0558 49.6992L16.6207 52.7686Z" fill="#6DDEA2"/>
<path d="M13.8035 52.5164L16.8729 49.9515L13.8035 52.5164Z" fill="#6DDEA2"/>
<path d="M19.9212 31.7661L18.6387 30.2314L19.9212 31.7661Z" fill="#6DDEA2"/>
<path d="M18.5126 31.64L20.0473 30.3575L18.5126 31.64Z" fill="#6DDEA2"/>
<path d="M16.6207 52.7686L14.0558 49.6992M13.8035 52.5164L16.8729 49.9515M19.9212 31.7661L18.6387 30.2314M18.5126 31.64L20.0473 30.3575M16.3272 36.7241C16.6177 36.9324 16.9586 37.0591 17.3146 37.0909C17.6705 37.1228 18.0286 37.0587 18.3514 36.9053L24.0735 34.1854C24.1729 34.141 24.284 34.1303 24.39 34.1549C24.496 34.1794 24.5911 34.2379 24.6608 34.3214C24.7306 34.4049 24.7712 34.5088 24.7766 34.6175C24.7819 34.7262 24.7516 34.8336 24.6904 34.9236L20.9977 40.0722C20.7894 40.3625 20.6627 40.7032 20.6307 41.059C20.5987 41.4149 20.6626 41.7728 20.8158 42.0955L23.5358 47.8177C23.5806 47.9172 23.5916 48.0286 23.5672 48.1349C23.5428 48.2413 23.4842 48.3367 23.4005 48.4067C23.3168 48.4767 23.2124 48.5173 23.1034 48.5225C22.9944 48.5276 22.8868 48.4969 22.7968 48.4352L17.6497 44.7412C17.3593 44.5329 17.0184 44.4062 16.6624 44.3744C16.3064 44.3425 15.9484 44.4066 15.6256 44.56L9.90409 47.2807C9.80448 47.326 9.69275 47.3374 9.58604 47.3131C9.47933 47.2888 9.38354 47.2302 9.31337 47.1462C9.24319 47.0622 9.20251 46.9575 9.19756 46.8482C9.1926 46.7389 9.22366 46.631 9.28595 46.541L12.9799 41.3939C13.1882 41.1035 13.3149 40.7625 13.3468 40.4066C13.3786 40.0506 13.3145 39.6926 13.1611 39.3698L10.4412 33.6476C10.3964 33.5481 10.3853 33.4367 10.4098 33.3304C10.4342 33.224 10.4927 33.1286 10.5765 33.0586C10.6602 32.9886 10.7645 32.948 10.8735 32.9428C10.9825 32.9377 11.0902 32.9683 11.1801 33.0301L16.3272 36.7241Z" stroke="#6DDEA2" stroke-linecap="round" stroke-linejoin="round"/>
</g>
<defs>
<clipPath id="clip0_309_13952">
<rect width="100" height="100" fill="white" transform="translate(36.501 11.334)"/>
</clipPath>
<clipPath id="clip1_309_13952">
<rect width="24" height="24" fill="white" transform="translate(147.126 -0.000976562) rotate(14.1593)"/>
</clipPath>
<clipPath id="clip2_309_13952">
<rect width="14" height="14" fill="white" transform="translate(154.126 76.4189) rotate(-43)"/>
</clipPath>
<clipPath id="clip3_309_13952">
<rect width="24" height="24" fill="white" transform="translate(33.8916 42.2461) rotate(140.117)"/>
</clipPath>
</defs>
</svg>
