<svg width="291" height="279" viewBox="0 0 291 279" fill="none" xmlns="http://www.w3.org/2000/svg">
<path d="M55.0369 112.149C55.0369 112.149 98.756 110.398 108.204 38.5333C116.594 -25.2896 190.315 3.7603 211.626 29.2016C239.231 62.1587 224.516 118.852 260.227 126.014C295.938 133.176 272.618 212.804 218.41 205.183C150.978 195.701 167.293 235.105 147.05 251.783C132.522 263.753 72.953 252.23 70.9676 208.779C69.2969 172.215 53.8736 172.331 42.9414 168.185C27.1747 162.206 17.2399 118.901 55.0369 112.149Z" fill="#D7F3E4"/>
<path d="M235.768 221.719H46.5615V32.5117H235.768V221.719Z" fill="white"/>
<path d="M235.768 221.719H46.5615V32.5117H235.768V221.719ZM49.357 218.923H232.973V35.3072H49.357V218.923Z" fill="#E5E5E5"/>
<path d="M202.251 62.1123H120.316V64.6646H202.251V62.1123Z" fill="#E5E5E5"/>
<path d="M202.251 68.749H120.316V71.3013H202.251V68.749Z" fill="#E5E5E5"/>
<path d="M202.251 75.3848H120.316V77.9371H202.251V75.3848Z" fill="#E5E5E5"/>
<path d="M202.251 119.096H120.316V121.648H202.251V119.096Z" fill="#E5E5E5"/>
<path d="M202.251 125.73H120.316V128.283H202.251V125.73Z" fill="#E5E5E5"/>
<path d="M202.251 132.366H120.316V134.919H202.251V132.366Z" fill="#E5E5E5"/>
<path d="M202.251 176.076H120.316V178.628H202.251V176.076Z" fill="#E5E5E5"/>
<path d="M202.251 182.713H120.316V185.265H202.251V182.713Z" fill="#E5E5E5"/>
<path d="M202.251 189.349H120.316V191.901H202.251V189.349Z" fill="#E5E5E5"/>
<path d="M87.516 82.4484C86.1163 81.7108 84.6553 81.0959 83.1493 80.6107L82.9573 78.4865L75.1695 77.6475L74.1798 80.3626L71.3849 81.4114C71.2849 81.4493 71.1897 81.4989 71.1013 81.5591H71.0983C70.9423 81.6645 70.8095 81.8006 70.7079 81.9591C70.6063 82.1176 70.5381 82.2951 70.5074 82.4809C70.4775 82.6656 70.4846 82.8543 70.5282 83.0363L70.6759 83.6419C70.8885 83.769 71.1072 83.8901 71.3258 84.0053L71.4647 84.0762C71.7838 84.2417 72.1088 84.3983 72.4426 84.543C72.5106 84.5726 72.5844 84.6021 72.6524 84.6317C72.6583 84.6346 72.6612 84.6346 72.6671 84.6376C72.8237 84.7026 72.9803 84.7646 73.1398 84.8237C73.6639 85.0239 74.1984 85.1955 74.7411 85.3378C76.1261 85.7069 77.5533 85.8936 78.9866 85.8932C79.5095 85.8932 80.0266 85.8696 80.5377 85.8194C81.7055 85.7115 82.8584 85.4788 83.9766 85.1251C83.9795 85.1251 83.9826 85.1221 83.9854 85.1221C84.6918 84.8971 85.3819 84.6236 86.0506 84.3037C86.0535 84.3008 86.0595 84.3008 86.0625 84.2978C86.2131 84.2269 86.3579 84.1501 86.5056 84.0762L86.5765 84.0408C86.6946 83.9787 86.8129 83.9167 86.9311 83.8517C87.2265 83.6892 87.516 83.5179 87.8025 83.3347C87.8823 83.2874 87.9592 83.2372 88.039 83.184C88.1512 83.1101 88.2634 83.0333 88.3728 82.9535C88.098 82.7763 87.8115 82.6079 87.516 82.4484Z" fill="#3F3D56"/>
<path d="M72.8996 83.7567L72.4122 81.5557H71.1388C71.126 81.5558 71.1132 81.5568 71.1004 81.5586H71.0974C70.6398 81.5973 70.1991 81.7497 69.8153 82.0018C69.5549 82.168 69.3234 82.3755 69.1299 82.6163C69.508 82.9029 69.9009 83.1688 70.3057 83.4228L70.3235 83.4317C70.4386 83.5026 70.5569 83.5735 70.675 83.6415C70.8877 83.7685 71.1064 83.8896 71.3249 84.0049L71.4639 84.0758C71.7829 84.2412 72.108 84.3978 72.4418 84.5425C72.5097 84.5721 72.5836 84.6016 72.6515 84.6312C72.6574 84.6341 72.6603 84.6342 72.6662 84.6371C72.8229 84.7021 72.9794 84.7641 73.139 84.8232L72.8996 83.7567Z" fill="#3F3D56"/>
<path d="M78.7582 76.3046C81.8559 76.3046 84.3671 73.7934 84.3671 70.6957C84.3671 67.5981 81.8559 65.0869 78.7582 65.0869C75.6606 65.0869 73.1494 67.5981 73.1494 70.6957C73.1494 73.7934 75.6606 76.3046 78.7582 76.3046Z" fill="#FFB8B8"/>
<path d="M74.9894 67.9636C75.5701 68.6507 76.5527 68.8446 77.4591 68.9241C79.5782 69.0411 81.7034 68.8676 83.7755 68.4083C83.9039 69.6527 83.5539 70.9945 84.2869 72.0182C84.6305 70.7789 84.8303 69.5041 84.8823 68.2191C84.937 67.6678 84.865 67.1112 84.6718 66.592C84.5685 66.3318 84.3943 66.1057 84.1689 65.9396C83.9436 65.7734 83.6762 65.6738 83.397 65.6521C83.8149 65.3351 84.3043 65.1259 84.8222 65.0428L83.0413 64.1478L83.4986 63.6783L80.2744 63.481L81.2082 62.8877C79.8027 62.6946 78.3807 62.6497 76.9658 62.7538C76.3046 62.7541 75.656 62.9344 75.0895 63.2754C74.5571 63.6561 74.2495 64.4127 74.58 64.9716C74.1662 65.0396 73.7766 65.212 73.4482 65.4726C73.1197 65.7333 72.8632 66.0734 72.703 66.4609C72.5004 67.0768 72.4515 67.7329 72.5605 68.372C72.682 69.3975 72.9203 70.4057 73.2708 71.377L74.9894 67.9636Z" fill="#2F2E41"/>
<path d="M94.5301 64.6154C93.7432 62.3547 92.4725 60.2928 90.8068 58.5736C89.1411 56.8543 87.1205 55.5191 84.8857 54.6611C82.651 53.803 80.256 53.4428 77.8677 53.6054C75.4794 53.7681 73.1554 54.4498 71.0576 55.6029C68.9599 56.7561 67.1389 58.3529 65.7217 60.2821C64.3045 62.2114 63.3252 64.4265 62.852 66.7731C62.3789 69.1197 62.4233 71.5412 62.9822 73.8689C63.5411 76.1965 64.601 78.3743 66.088 80.2502C66.2357 80.4363 66.3894 80.6224 66.546 80.8027C66.5579 80.8145 66.5667 80.8263 66.5785 80.8381C66.9636 81.2818 67.3729 81.704 67.8045 82.1026C67.9169 82.206 68.0351 82.3124 68.1532 82.4128C68.3777 82.6137 68.6082 82.8057 68.8475 82.9889C68.942 83.0628 69.0336 83.1366 69.1311 83.2076C69.5092 83.4941 69.9022 83.76 70.307 84.0141L70.3247 84.023C70.4398 84.0939 70.5581 84.1648 70.6763 84.2327C70.889 84.3598 71.1076 84.4809 71.3262 84.5961L71.4651 84.667C71.7842 84.8325 72.1092 84.9891 72.443 85.1338C72.511 85.1634 72.5848 85.1929 72.6528 85.2225C72.6587 85.2254 72.6616 85.2254 72.6675 85.2284C72.8242 85.2934 72.9807 85.3554 73.1402 85.4145C73.6643 85.6147 74.1988 85.7863 74.7415 85.9286C76.1265 86.2977 77.5537 86.4844 78.987 86.484C79.5099 86.484 80.027 86.4604 80.5381 86.4101C81.7059 86.3023 82.8588 86.0696 83.9771 85.7159C83.9799 85.7159 83.983 85.7129 83.9859 85.7129C84.6922 85.4879 85.3823 85.2144 86.0511 84.8945C86.0539 84.8916 86.0599 84.8916 86.0629 84.8886C86.2135 84.8177 86.3583 84.7409 86.5061 84.667L86.5769 84.6316C86.695 84.5695 86.8133 84.5075 86.9315 84.4425C87.2269 84.28 87.5164 84.1087 87.8029 83.9255C87.8827 83.8782 87.9596 83.828 88.0394 83.7748C88.1516 83.7009 88.2638 83.6241 88.3732 83.5443C88.5179 83.4439 88.6627 83.3405 88.8045 83.2341C88.8488 83.2016 88.8961 83.1692 88.9404 83.1337C91.7083 81.0328 93.7399 78.1095 94.7441 74.7828C95.7483 71.4561 95.6734 67.8969 94.5301 64.6154ZM88.3969 82.4158C88.2993 82.4926 88.1989 82.5664 88.0984 82.6344C88.0009 82.7083 87.9035 82.7792 87.8029 82.8442C87.7173 82.9062 87.6316 82.9653 87.543 83.0214L87.5164 83.0392C87.4514 83.0835 87.3865 83.1248 87.3214 83.1662C87.0762 83.3198 86.828 83.4675 86.5769 83.6094L86.4971 83.6537C86.3849 83.7157 86.2726 83.7748 86.1604 83.8339C86.1456 83.8428 86.1278 83.8487 86.1131 83.8575L86.0954 83.8664C85.9536 83.9403 85.8087 84.0112 85.664 84.0791C85.1054 84.3481 84.5301 84.581 83.9416 84.7764C83.8647 84.8029 83.788 84.8295 83.7112 84.8532C82.6528 85.1898 81.5613 85.4117 80.4554 85.515C79.9709 85.5593 79.4804 85.5829 78.987 85.5829C77.6313 85.5857 76.2813 85.4089 74.972 85.057C74.3001 84.8816 73.6416 84.6585 73.0015 84.3893C72.9689 84.3745 72.9334 84.3627 72.9009 84.348C72.8656 84.3332 72.833 84.3214 72.8005 84.3066C72.765 84.2918 72.7325 84.2771 72.6971 84.2593C72.4194 84.1382 72.1446 84.0052 71.8758 83.8664L71.7458 83.7985C71.4178 83.6271 71.0958 83.4439 70.7826 83.2489C70.691 83.1928 70.5965 83.1337 70.5078 83.0716C70.4843 83.0569 70.4635 83.0421 70.4399 83.0273C70.2301 82.8885 70.0204 82.7437 69.8165 82.593C69.6777 82.4896 69.5388 82.3862 69.4029 82.2799C69.1754 82.1085 68.9567 81.9253 68.7441 81.7363C68.6319 81.6417 68.5225 81.5383 68.4162 81.4408C67.9973 81.054 67.6008 80.6437 67.2285 80.2118C67.1045 80.07 66.9833 79.9282 66.868 79.7804C66.8418 79.7512 66.8172 79.7207 66.7941 79.6889C64.8746 77.2666 63.72 74.3275 63.4776 71.2463C63.2352 68.1652 63.916 65.0817 65.4332 62.389C66.9504 59.6964 69.2352 57.5167 71.9962 56.1278C74.7573 54.739 77.8694 54.204 80.9357 54.591C84.0021 54.9781 86.8836 56.2697 89.2129 58.3011C91.5422 60.3325 93.2137 63.0116 94.0141 65.9968C94.8146 68.982 94.7078 72.138 93.7073 75.0622C92.7069 77.9865 90.8582 80.5465 88.3969 82.4158Z" fill="#3F3D56"/>
<path d="M94.5301 121.597C93.7432 119.336 92.4725 117.274 90.8068 115.555C89.1411 113.836 87.1205 112.501 84.8857 111.643C82.651 110.784 80.256 110.424 77.8677 110.587C75.4794 110.75 73.1554 111.431 71.0576 112.584C68.9599 113.738 67.1389 115.334 65.7217 117.264C64.3045 119.193 63.3252 121.408 62.852 123.755C62.3789 126.101 62.4233 128.523 62.9822 130.85C63.5411 133.178 64.601 135.356 66.088 137.232C66.2357 137.418 66.3894 137.604 66.5459 137.784C66.5577 137.796 66.5665 137.808 66.5783 137.82C66.9635 138.263 67.3729 138.685 67.8045 139.084C67.9168 139.187 68.0349 139.294 68.1531 139.394C68.3777 139.595 68.608 139.787 68.8474 139.97C69.3146 140.339 69.8019 140.681 70.3068 140.996L70.3246 141.004C70.6525 141.208 70.9863 141.397 71.3262 141.578L71.4649 141.648C71.784 141.814 72.1091 141.97 72.4429 142.115C72.5108 142.145 72.5847 142.174 72.6526 142.204C72.6585 142.207 72.6616 142.207 72.6675 142.21C73.342 142.49 74.035 142.724 74.7415 142.91C76.1264 143.279 77.5536 143.466 78.9869 143.465C79.5098 143.465 80.0268 143.442 80.5379 143.392C81.7058 143.284 82.8587 143.051 83.9769 142.697C83.9799 142.697 83.9828 142.694 83.9857 142.694C84.6921 142.469 85.3821 142.196 86.0509 141.876C86.0538 141.873 86.0598 141.873 86.0627 141.87C86.2133 141.799 86.3582 141.722 86.5059 141.648L86.5769 141.613C86.695 141.551 86.8132 141.489 86.9313 141.424C87.2267 141.261 87.5163 141.09 87.8029 140.907C87.8827 140.86 87.9594 140.809 88.0392 140.756C88.2992 140.585 88.5562 140.402 88.8043 140.216C88.8488 140.183 88.896 140.151 88.9404 140.115C91.7082 138.014 93.7398 135.091 94.7439 131.764C95.7481 128.438 95.6732 124.878 94.5301 121.597Z" fill="white"/>
<path d="M84.4168 133.792C85.7791 133.792 86.8835 132.687 86.8835 131.325C86.8835 129.963 85.7791 128.858 84.4168 128.858C83.0545 128.858 81.9502 129.963 81.9502 131.325C81.9502 132.687 83.0545 133.792 84.4168 133.792Z" fill="#2F2E41"/>
<path d="M85.1044 128.926C85.5313 128.926 85.9509 129.036 86.3222 129.247C86.6935 129.458 87.0037 129.761 87.2225 130.128C87.4414 130.495 87.5613 130.912 87.5707 131.338C87.58 131.765 87.4784 132.187 87.2759 132.563C87.4897 132.295 87.6454 131.986 87.7331 131.655C87.8208 131.324 87.8386 130.978 87.7853 130.64C87.7321 130.302 87.6089 129.978 87.4237 129.69C87.2385 129.402 86.9953 129.156 86.7097 128.967C86.424 128.778 86.1021 128.65 85.7645 128.593C85.4269 128.535 85.081 128.548 84.7488 128.632C84.4167 128.715 84.1055 128.867 83.8352 129.077C83.5648 129.287 83.3413 129.552 83.1787 129.853C83.4093 129.564 83.7022 129.33 84.0357 129.169C84.3692 129.009 84.7343 128.925 85.1044 128.926Z" fill="#2F2E41"/>
<path d="M79.8075 131.319C83.8094 131.319 87.0535 128.075 87.0535 124.073C87.0535 120.071 83.8094 116.827 79.8075 116.827C75.8057 116.827 72.5615 120.071 72.5615 124.073C72.5615 128.075 75.8057 131.319 79.8075 131.319Z" fill="#2F2E41"/>
<path d="M74.1196 119.577C75.3681 118.173 77.1134 117.309 78.987 117.167C80.8606 117.026 82.716 117.617 84.1616 118.818C84.1025 118.761 84.0434 118.704 83.9823 118.65C82.5509 117.367 80.6688 116.706 78.7499 116.812C76.831 116.917 75.0326 117.78 73.7503 119.212C72.468 120.643 71.8069 122.525 71.9123 124.444C72.0177 126.363 72.8811 128.162 74.3124 129.444C74.3262 129.456 74.34 129.468 74.3539 129.481C74.4153 129.535 74.4785 129.587 74.5415 129.639C73.1801 128.344 72.3752 126.571 72.2965 124.694C72.2179 122.816 72.8714 120.982 74.1196 119.577Z" fill="#2F2E41"/>
<path d="M79.7449 131.257C82.3223 131.257 84.4117 129.168 84.4117 126.591C84.4117 124.013 82.3223 121.924 79.7449 121.924C77.1675 121.924 75.0781 124.013 75.0781 126.591C75.0781 129.168 77.1675 131.257 79.7449 131.257Z" fill="#A0616A"/>
<path d="M88.0957 138.75V140.316C87.809 140.499 87.5195 140.67 87.2241 140.833C87.1059 140.898 86.9878 140.96 86.8696 141.022L86.7987 141.057C86.6509 141.131 86.5061 141.208 86.3555 141.279C86.3526 141.282 86.3466 141.282 86.3437 141.285C85.6749 141.605 84.9848 141.878 84.2785 142.103C84.2756 142.103 84.2727 142.106 84.2697 142.106C83.1515 142.46 81.9985 142.693 80.8307 142.8C80.3196 142.851 79.8026 142.874 79.2796 142.874C77.8464 142.875 76.4192 142.688 75.0342 142.319C74.3277 142.133 73.6348 141.899 72.9602 141.619C72.9543 141.616 72.9513 141.616 72.9454 141.613C72.8774 141.583 72.8036 141.554 72.7356 141.524C72.4018 141.379 72.0768 141.223 71.7577 141.057L71.6189 140.986C71.2791 140.806 70.9452 140.617 70.6173 140.413L70.5996 140.404C70.0946 140.09 69.6074 139.748 69.1401 139.379C68.9008 139.196 68.6704 139.004 68.4458 138.803C68.3277 138.703 68.2095 138.596 68.0973 138.493C67.6656 138.094 67.2563 137.672 66.8711 137.228C66.9222 136.921 66.9973 136.617 67.0957 136.321L67.0986 136.319C67.1163 136.268 67.137 136.219 67.1606 136.171C67.1769 136.128 67.1957 136.087 67.2167 136.047C67.7456 135.057 68.7029 134.812 69.8906 134.759C70.5612 134.729 71.3027 134.762 72.0858 134.753C72.4993 134.75 72.9276 134.735 73.3561 134.697C76.0594 134.451 75.569 132.856 75.6901 131.996C75.8112 131.163 76.5617 131.884 76.6119 131.931L76.6148 131.934C78.1445 132.65 79.837 132.947 81.5191 132.794C81.8086 132.758 82.0982 132.738 82.3877 132.729C83.1499 132.72 82.9845 132.939 82.7216 133.119C82.594 133.203 82.4608 133.278 82.3228 133.343C82.3228 133.343 82.2016 134.082 82.0775 135.187C81.9594 136.245 83.9861 136.741 84.1544 136.779C84.1579 136.782 84.1621 136.783 84.1662 136.782C84.9064 136.59 85.6856 136.611 86.4147 136.841H86.4176C86.8341 136.995 87.2058 137.249 87.4988 137.583C87.7919 137.916 87.9971 138.317 88.0957 138.75Z" fill="#6DDEA2"/>
<path d="M72.9915 140.651C72.9915 140.869 72.9857 141.079 72.9767 141.277C72.9739 141.395 72.9679 141.51 72.962 141.62C72.9561 141.617 72.9531 141.617 72.9472 141.614C72.8792 141.584 72.8054 141.555 72.7374 141.525C72.4036 141.38 72.0786 141.224 71.7595 141.058L71.6207 140.987C71.2808 140.807 70.947 140.618 70.6191 140.414C70.6279 140.311 70.6428 140.207 70.6575 140.104C70.6899 139.877 70.7166 139.646 70.7344 139.419C70.8505 137.82 70.5609 136.219 69.8923 134.762V134.759C69.8332 134.641 69.7979 134.576 69.7979 134.576C69.7979 134.576 70.6575 133.838 71.8835 134.576C71.9619 134.622 72.031 134.682 72.0875 134.754C72.8261 135.625 73.0269 138.556 72.9915 140.651Z" fill="#2F2E41"/>
<path d="M86.4079 140.248C86.396 140.579 86.3783 140.924 86.3577 141.276V141.279C86.3548 141.282 86.3487 141.282 86.3458 141.285C85.677 141.605 84.987 141.878 84.2806 142.103C84.2777 142.103 84.2748 142.106 84.2718 142.106L84.2394 141.276L84.2363 141.167L84.0798 137.125C84.0756 137.034 84.09 136.942 84.1221 136.856C84.1542 136.771 84.2034 136.692 84.2666 136.626C84.3298 136.56 84.4058 136.507 84.49 136.471C84.5742 136.435 84.6648 136.416 84.7564 136.416H86.2542C86.3281 136.416 86.3813 136.567 86.4168 136.838V136.841C86.4894 137.976 86.4865 139.114 86.4079 140.248Z" fill="#2F2E41"/>
<path d="M75.7549 120.758V125.426H76.8356L78.2109 123.952L78.0268 125.426H82.8041L82.5087 123.952L83.0996 125.426H83.8612V120.758H75.7549Z" fill="#2F2E41"/>
<path d="M75.0198 126.283C75.2233 126.283 75.3882 125.981 75.3882 125.608C75.3882 125.235 75.2233 124.933 75.0198 124.933C74.8163 124.933 74.6514 125.235 74.6514 125.608C74.6514 125.981 74.8163 126.283 75.0198 126.283Z" fill="#A0616A"/>
<path d="M84.4758 126.283C84.6793 126.283 84.8443 125.981 84.8443 125.608C84.8443 125.235 84.6793 124.933 84.4758 124.933C84.2724 124.933 84.1074 125.235 84.1074 125.608C84.1074 125.981 84.2724 126.283 84.4758 126.283Z" fill="#A0616A"/>
<path d="M89.0996 139.625C88.8514 139.811 88.5944 139.994 88.3344 140.166C88.2546 140.219 88.1779 140.269 88.0981 140.316C87.8115 140.499 87.5219 140.671 87.2265 140.833C87.1084 140.898 86.9902 140.96 86.8721 141.022V137.767C86.8721 137.767 87.3447 138.145 88.0981 138.774C88.1926 138.854 88.2901 138.937 88.3935 139.025C88.6121 139.208 88.8485 139.409 89.0996 139.625Z" fill="#6DDEA2"/>
<path d="M94.5301 121.597C93.7432 119.336 92.4725 117.274 90.8068 115.555C89.1411 113.836 87.1205 112.501 84.8857 111.643C82.651 110.784 80.256 110.424 77.8677 110.587C75.4794 110.75 73.1554 111.431 71.0576 112.584C68.9599 113.738 67.1389 115.334 65.7217 117.264C64.3045 119.193 63.3252 121.408 62.852 123.755C62.3789 126.101 62.4233 128.523 62.9822 130.85C63.5411 133.178 64.601 135.356 66.088 137.232C66.2357 137.418 66.3894 137.604 66.5459 137.784C66.5577 137.796 66.5665 137.808 66.5783 137.82C66.9635 138.263 67.3729 138.685 67.8045 139.084C67.9168 139.187 68.0349 139.294 68.1531 139.394C68.3777 139.595 68.608 139.787 68.8474 139.97C69.3146 140.339 69.8019 140.681 70.3068 140.996L70.3246 141.004C70.6525 141.208 70.9863 141.397 71.3262 141.578L71.4649 141.648C71.784 141.814 72.1091 141.97 72.4429 142.115C72.5108 142.145 72.5847 142.174 72.6526 142.204C72.6585 142.207 72.6616 142.207 72.6675 142.21C73.342 142.49 74.035 142.724 74.7415 142.91C76.1264 143.279 77.5536 143.466 78.9869 143.465C79.5098 143.465 80.0268 143.442 80.5379 143.392C81.7058 143.284 82.8587 143.051 83.9769 142.697C83.9799 142.697 83.9828 142.694 83.9857 142.694C84.6921 142.469 85.3821 142.196 86.0509 141.876C86.0538 141.873 86.0598 141.873 86.0627 141.87C86.2133 141.799 86.3582 141.722 86.5059 141.648L86.5769 141.613C86.695 141.551 86.8132 141.489 86.9313 141.424C87.2267 141.261 87.5163 141.09 87.8029 140.907C87.8827 140.86 87.9594 140.809 88.0392 140.756C88.2992 140.585 88.5562 140.402 88.8043 140.216C88.8488 140.183 88.896 140.151 88.9404 140.115C91.7082 138.014 93.7398 135.091 94.7439 131.764C95.7481 128.438 95.6732 124.878 94.5301 121.597ZM88.3967 139.397C88.2992 139.474 88.1988 139.548 88.0984 139.616C88.0008 139.69 87.9033 139.761 87.8029 139.826C87.7172 139.888 87.6316 139.947 87.5428 140.003C87.469 140.053 87.3951 140.1 87.3212 140.148C87.0761 140.301 86.828 140.449 86.5769 140.591L86.4969 140.635C86.3847 140.697 86.2725 140.756 86.1602 140.815C86.1454 140.824 86.1276 140.83 86.1129 140.839L86.0952 140.848C85.9534 140.922 85.8087 140.993 85.6639 141.061C85.1052 141.33 84.5299 141.562 83.9414 141.758C83.8647 141.784 83.7878 141.811 83.711 141.835C82.6526 142.171 81.5611 142.393 80.4553 142.496C79.9707 142.541 79.4802 142.564 78.9869 142.564C77.6312 142.567 76.2811 142.39 74.9719 142.038C74.3 141.863 73.6414 141.64 73.0013 141.371C72.9333 141.344 72.8654 141.315 72.8003 141.288C72.765 141.273 72.7324 141.258 72.6969 141.241C72.4192 141.12 72.1445 140.987 71.8757 140.848L71.7457 140.78C71.4178 140.608 71.0956 140.425 70.7825 140.23C70.6673 140.159 70.5521 140.086 70.4398 140.009C70.0853 139.775 69.7396 139.524 69.4028 139.261C69.1753 139.09 68.9567 138.907 68.7439 138.718C68.6317 138.623 68.5223 138.52 68.416 138.422C67.9972 138.035 67.6006 137.625 67.2284 137.193C67.1043 137.051 66.9831 136.91 66.8679 136.762C66.8417 136.733 66.817 136.702 66.794 136.67C64.8744 134.248 63.7198 131.309 63.4774 128.228C63.2351 125.147 63.9159 122.063 65.4331 119.37C66.9503 116.678 69.2351 114.498 71.9961 113.109C74.7571 111.72 77.8692 111.185 80.9356 111.572C84.0019 111.96 86.8834 113.251 89.2127 115.282C91.542 117.314 93.2135 119.993 94.014 122.978C94.8144 125.963 94.7076 129.119 93.7072 132.044C92.7067 134.968 90.858 137.528 88.3967 139.397Z" fill="#3F3D56"/>
<path d="M79.0803 191.386C82.6417 191.386 85.5287 188.499 85.5287 184.938C85.5287 181.376 82.6417 178.489 79.0803 178.489C75.5189 178.489 72.6318 181.376 72.6318 184.938C72.6318 188.499 75.5189 191.386 79.0803 191.386Z" fill="#2F2E41"/>
<path d="M74.0451 181.461C75.0871 180.419 75.2983 178.941 74.5168 178.159C73.7353 177.378 72.257 177.589 71.2149 178.631C70.1729 179.673 69.9617 181.151 70.7432 181.933C71.5247 182.714 73.003 182.503 74.0451 181.461Z" fill="#2F2E41"/>
<path d="M85.8002 179.413C86.2344 178.397 85.4878 177.104 84.1325 176.525C82.7773 175.946 81.3268 176.3 80.8926 177.317C80.4584 178.333 81.2051 179.627 82.5603 180.205C83.9155 180.784 85.3661 180.43 85.8002 179.413Z" fill="#2F2E41"/>
<path d="M86.7918 197.446L86.032 196.25C85.7097 195.53 85.115 194.967 84.3783 194.684C83.6417 194.402 82.823 194.422 82.1017 194.742C81.3804 195.062 80.8152 195.655 80.5299 196.39C80.2446 197.126 80.2625 197.945 80.5796 198.667L80.7957 199.442L81.0415 200.321C82.0369 200.195 83.019 199.981 83.9762 199.68C83.9791 199.68 83.9817 199.678 83.9837 199.676C84.6912 199.452 85.382 199.179 86.0508 198.857C86.0544 198.853 86.058 198.853 86.0619 198.85C86.2108 198.779 86.3561 198.704 86.505 198.63C86.5294 198.619 86.553 198.606 86.5758 198.593C86.6949 198.533 86.8142 198.47 86.9297 198.406C87.0488 198.343 87.1642 198.276 87.2759 198.205L86.7918 197.446Z" fill="#CACACA"/>
<path d="M79.2833 191.95C82.3058 191.95 84.756 189.5 84.756 186.478C84.756 183.455 82.3058 181.005 79.2833 181.005C76.2608 181.005 73.8105 183.455 73.8105 186.478C73.8105 189.5 76.2608 191.95 79.2833 191.95Z" fill="#FFB6B6"/>
<path d="M87.1867 197.211C86.583 196.207 85.8337 195.298 84.9632 194.514C84.367 193.982 83.5953 193.687 82.7957 193.688H75.0864C74.6422 193.687 74.2026 193.778 73.7949 193.955C73.3872 194.131 73.02 194.389 72.716 194.713C72.412 195.037 72.1776 195.42 72.0274 195.838C71.8772 196.256 71.8142 196.7 71.8425 197.144C71.8594 197.394 71.9044 197.641 71.9767 197.881C72.0317 198.055 72.1002 198.224 72.1815 198.388L72.5614 199.147C72.5912 199.158 72.621 199.173 72.6507 199.185C72.6581 199.188 72.6619 199.188 72.6656 199.192C72.822 199.255 72.9785 199.319 73.1385 199.378C73.6626 199.579 74.1973 199.75 74.7401 199.892C75.6139 200.127 76.5059 200.287 77.4066 200.373C77.9318 200.421 78.4569 200.447 78.9858 200.447C79.5109 200.447 80.0248 200.421 80.5388 200.373C80.7064 200.358 80.8739 200.339 81.0416 200.32C82.0369 200.195 83.0191 199.98 83.9763 199.68C83.9791 199.68 83.9817 199.678 83.9837 199.676C84.6913 199.452 85.382 199.178 86.0508 198.857C86.0545 198.853 86.0581 198.853 86.0619 198.849C86.2108 198.779 86.3561 198.704 86.5051 198.63C86.5294 198.619 86.553 198.606 86.5758 198.592C86.6949 198.533 86.8142 198.469 86.9297 198.406C87.0488 198.343 87.1642 198.276 87.2759 198.205C87.3952 198.142 87.5069 198.071 87.6224 198C87.4809 197.721 87.3356 197.46 87.1867 197.211Z" fill="#CACACA"/>
<path d="M76.4828 194.687C75.7693 194.353 74.9528 194.316 74.2117 194.582C73.4705 194.849 72.8651 195.398 72.5277 196.11L71.8423 197.145L71.5146 197.64L71.0156 198.393C71.1198 198.448 71.2204 198.504 71.3248 198.56L71.4624 198.631C71.7829 198.795 72.1067 198.951 72.4421 199.096C72.4792 199.115 72.5203 199.13 72.5612 199.149C72.591 199.16 72.6208 199.175 72.6505 199.186C72.6579 199.19 72.6617 199.19 72.6654 199.193C72.8217 199.257 72.9783 199.32 73.1383 199.38C73.6624 199.58 74.1971 199.751 74.7399 199.893C75.6137 200.128 76.5056 200.289 77.4064 200.374L77.6671 199.491L77.9205 198.65C78.2543 197.933 78.2905 197.114 78.0209 196.371C77.7514 195.628 77.1982 195.022 76.4828 194.687Z" fill="#CACACA"/>
<path d="M73.5322 183.035C74.7828 183.897 76.2672 184.356 77.786 184.35C77.2443 184.725 76.6275 184.979 75.9782 185.094C77.9976 185.527 80.0847 185.538 82.1089 185.128C82.5588 185.056 82.9929 184.907 83.3922 184.687C83.5912 184.576 83.7646 184.424 83.9011 184.242C84.0376 184.059 84.1341 183.85 84.1844 183.628C84.3189 182.859 83.7202 182.161 83.0979 181.691C82.1453 180.981 81.0468 180.493 79.8821 180.26C78.7173 180.027 77.5154 180.056 76.3633 180.345C75.5956 180.499 74.897 180.894 74.3687 181.472C74.113 181.766 73.9587 182.135 73.9285 182.523C73.8983 182.912 73.9937 183.3 74.2009 183.63L73.5322 183.035Z" fill="#2F2E41"/>
<path d="M94.5312 178.578C93.7444 176.317 92.4739 174.255 90.8082 172.535C89.1425 170.816 87.1218 169.481 84.8869 168.622C82.6521 167.764 80.2569 167.404 77.8685 167.566C75.48 167.729 73.1558 168.411 71.0579 169.564C68.96 170.717 67.1389 172.314 65.7216 174.243C64.3043 176.173 63.325 178.388 62.8519 180.735C62.3788 183.082 62.4234 185.503 62.9825 187.831C63.5415 190.159 64.6017 192.337 66.0889 194.213C66.2341 194.399 66.3906 194.585 66.547 194.764C66.556 194.777 66.566 194.79 66.5769 194.801C66.9626 195.245 67.3728 195.666 67.8058 196.064C67.9175 196.168 68.0329 196.276 68.1522 196.376C68.3755 196.578 68.6065 196.768 68.8485 196.95C68.9416 197.025 69.0347 197.099 69.1317 197.17C69.5077 197.457 69.9025 197.721 70.3048 197.978C70.3117 197.978 70.3183 197.981 70.3233 197.985C70.4388 198.056 70.5581 198.127 70.6772 198.194C70.7889 198.261 70.9044 198.328 71.0162 198.391C71.1204 198.447 71.221 198.503 71.3253 198.559L71.463 198.63C71.7834 198.794 72.1073 198.95 72.4426 199.095C72.4797 199.114 72.5208 199.129 72.5617 199.147C72.5916 199.159 72.6214 199.173 72.651 199.185C72.6585 199.188 72.6623 199.188 72.6659 199.192C72.8223 199.255 72.9789 199.319 73.1389 199.378C73.663 199.579 74.1976 199.75 74.7405 199.892C75.6142 200.127 76.5062 200.288 77.4069 200.373C77.9321 200.421 78.4573 200.447 78.9861 200.447C79.5113 200.447 80.0252 200.421 80.5391 200.373C80.7068 200.358 80.8743 200.339 81.0419 200.321C82.0373 200.195 83.0194 199.98 83.9766 199.68C83.9795 199.68 83.9821 199.678 83.9841 199.676C84.6916 199.452 85.3824 199.178 86.0512 198.857C86.0548 198.853 86.0584 198.853 86.0623 198.849C86.2112 198.779 86.3565 198.704 86.5054 198.63C86.5298 198.619 86.5534 198.606 86.5762 198.592C86.6953 198.533 86.8146 198.47 86.93 198.406C87.0492 198.343 87.1646 198.276 87.2763 198.205C87.3956 198.142 87.5072 198.071 87.6227 198C87.6824 197.963 87.742 197.926 87.8015 197.889C87.8835 197.84 87.9579 197.792 88.0399 197.736C88.1516 197.665 88.2634 197.587 88.3712 197.509C88.5165 197.408 88.6618 197.304 88.8033 197.196C88.851 197.165 88.897 197.131 88.9411 197.095C91.7069 194.993 93.7369 192.07 94.741 188.744C95.745 185.418 95.6716 181.86 94.5312 178.578ZM88.3974 196.376C88.3005 196.455 88.1999 196.529 88.0996 196.596C87.9988 196.671 87.9021 196.741 87.8015 196.809C87.7158 196.868 87.6302 196.928 87.5409 196.984C87.5328 196.991 87.524 196.997 87.5147 197.002C87.4514 197.047 87.3843 197.088 87.3211 197.129C87.2763 197.155 87.2318 197.185 87.187 197.211C87.0567 197.293 86.9263 197.371 86.7922 197.445C86.7215 197.49 86.6469 197.531 86.5762 197.572C86.5502 197.587 86.524 197.602 86.498 197.617C86.3825 197.68 86.2709 197.736 86.159 197.795C86.1443 197.807 86.1256 197.81 86.1145 197.822C86.1075 197.822 86.1009 197.824 86.0957 197.829C85.9543 197.903 85.809 197.974 85.6638 198.041C85.1046 198.31 84.5286 198.543 83.9394 198.738C83.865 198.764 83.7868 198.794 83.7122 198.816C82.7624 199.117 81.7859 199.327 80.7961 199.442C80.6844 199.456 80.569 199.468 80.4535 199.479C79.9694 199.524 79.4815 199.546 78.9861 199.546C78.5466 199.546 78.1034 199.527 77.6677 199.49C76.7568 199.414 75.8544 199.257 74.9714 199.021C74.2993 198.846 73.6408 198.622 73.0013 198.35C72.9676 198.335 72.9342 198.324 72.9007 198.309C72.8634 198.295 72.8336 198.283 72.8002 198.268C72.7629 198.254 72.7331 198.239 72.6958 198.22C72.4537 198.116 72.2117 198 71.9771 197.881C71.9435 197.863 71.91 197.848 71.8766 197.829L71.7462 197.762C71.668 197.721 71.5898 197.68 71.5152 197.639C71.2657 197.505 71.0199 197.36 70.7816 197.211C70.6922 197.155 70.5954 197.095 70.506 197.036L70.4388 196.991C70.2303 196.849 70.0219 196.708 69.8169 196.555C69.6791 196.451 69.5376 196.35 69.4036 196.242C69.1764 196.071 68.9566 195.889 68.7444 195.699C68.6325 195.606 68.5209 195.501 68.4167 195.404C67.9973 195.018 67.6006 194.608 67.2287 194.175C67.1057 194.034 66.9828 193.892 66.8673 193.743C66.8413 193.714 66.8189 193.684 66.7928 193.65C64.8727 191.228 63.7178 188.288 63.4751 185.207C63.2325 182.125 63.9132 179.041 65.4304 176.348C66.9477 173.655 69.2327 171.475 71.994 170.086C74.7553 168.697 77.8678 168.161 80.9346 168.548C84.0013 168.935 86.8833 170.227 89.213 172.259C91.5427 174.29 93.2145 176.97 94.0152 179.955C94.8158 182.941 94.7091 186.097 93.7086 189.022C92.708 191.947 90.859 194.507 88.3974 196.376Z" fill="#3F3D56"/>
<path d="M106.522 98.1673C100.791 93.3315 93.7779 90.2657 86.3364 89.3429C78.8948 88.4201 71.3455 89.6801 64.6069 92.9696C57.8684 96.2592 52.2313 101.436 48.3816 107.871C44.5318 114.306 42.6354 121.721 42.923 129.214C43.2107 136.707 45.67 143.955 50.0018 150.076C54.3336 156.197 60.351 160.927 67.3219 163.69C74.2928 166.453 81.9165 167.131 89.2654 165.64C96.6143 164.149 103.372 160.555 108.715 155.294L156.162 195.33C156.885 195.937 157.818 196.233 158.759 196.153C159.699 196.073 160.569 195.623 161.178 194.903C161.787 194.182 162.086 193.249 162.008 192.309C161.931 191.368 161.484 190.497 160.765 189.886L160.76 189.881L113.312 149.845C118.824 141.935 121.183 132.251 119.927 122.691C118.671 113.132 113.89 104.386 106.522 98.1673ZM103.463 145.99C99.7666 150.371 94.8542 153.557 89.347 155.146C83.8398 156.735 77.9852 156.655 72.5234 154.916C67.0617 153.177 62.2382 149.858 58.6628 145.378C55.0874 140.898 52.9208 135.459 52.437 129.747C51.9531 124.036 53.1737 118.309 55.9445 113.292C58.7152 108.274 62.9116 104.191 68.003 101.558C73.0944 98.9256 78.8522 97.8618 84.5482 98.5015C90.2441 99.1411 95.6225 101.455 100.003 105.152C105.877 110.109 109.542 117.196 110.191 124.854C110.84 132.513 108.42 140.116 103.463 145.99Z" fill="#3F3D56"/>
<path opacity="0.3" d="M62.6228 149.448C57.0632 144.757 53.4713 138.146 52.5602 130.929C51.6492 123.711 53.4857 116.415 57.7051 110.489C57.151 111.047 56.6153 111.632 56.098 112.243C53.6437 115.151 51.7864 118.515 50.632 122.141C49.4776 125.768 49.0488 129.586 49.37 133.378C49.6913 137.17 50.7564 140.862 52.5044 144.243C54.2524 147.623 56.6492 150.626 59.5578 153.081C62.4665 155.535 65.8301 157.392 69.4565 158.547C73.083 159.701 76.9013 160.13 80.6935 159.809C84.4857 159.488 88.1775 158.422 91.558 156.674C94.9386 154.926 97.9418 152.53 100.396 149.621C100.912 149.009 101.398 148.383 101.854 147.742C96.7223 152.898 89.8392 155.936 82.5715 156.252C75.3037 156.568 68.1828 154.14 62.6228 149.448Z" fill="black"/>
<path d="M202.175 196.826C202.545 196.374 202.812 195.845 202.957 195.278C203.101 194.712 203.119 194.12 203.011 193.545C202.902 192.971 202.668 192.427 202.326 191.952C201.984 191.478 201.542 191.084 201.032 190.798L192.383 155.399L186.074 157.413L195.413 192.571C194.991 193.46 194.909 194.474 195.184 195.42C195.458 196.365 196.071 197.177 196.904 197.702C197.737 198.226 198.734 198.427 199.706 198.265C200.677 198.104 201.556 197.592 202.175 196.826Z" fill="#FFB6B6"/>
<path d="M197.706 174.184L193.096 178.161L186.645 183.722L183.796 169.145L183.498 167.629L183.264 166.426L189.8 155.041L195.248 155.353L195.621 155.376L195.628 155.458L195.714 156.222L196.831 166.269L196.857 166.512L197.706 174.184Z" fill="#3F3D56"/>
<path d="M167.568 273.128L163.002 273.128L160.83 255.517L167.569 255.517L167.568 273.128Z" fill="#FFB6B6"/>
<path d="M168.734 277.554L154.012 277.553V277.367C154.012 275.847 154.616 274.39 155.69 273.315C156.765 272.241 158.222 271.637 159.742 271.637H159.742L168.734 271.637L168.734 277.554Z" fill="#2F2E41"/>
<path d="M215.239 273.5L210.673 273.5L208.501 255.889L215.24 255.889L215.239 273.5Z" fill="#FFB6B6"/>
<path d="M216.404 277.926L201.682 277.925V277.739C201.682 276.219 202.286 274.762 203.36 273.687C204.435 272.613 205.892 272.009 207.412 272.009H207.412L216.404 272.009L216.404 277.926Z" fill="#2F2E41"/>
<path d="M218.89 266.49L206.6 268.352L188.719 207.84L169.729 268.725L155.949 266.862L173.826 196.101V190.514L176.247 182.135L175.993 179.867L174.232 164.005L173.468 157.126L173.419 156.682C173.377 156.309 173.476 155.934 173.696 155.63C173.916 155.326 174.241 155.114 174.608 155.037L180.343 153.83H189.717L195.248 155.353L195.628 155.458L195.799 155.506L195.714 156.221L194.417 167.089L194.347 167.684L193.095 178.161L192.82 180.459C203.62 188.28 203.993 196.101 203.993 196.101L218.89 266.49Z" fill="#2F2E41"/>
<path d="M183.895 149.118C188.947 149.118 193.043 145.022 193.043 139.97C193.043 134.919 188.947 130.823 183.895 130.823C178.843 130.823 174.748 134.919 174.748 139.97C174.748 145.022 178.843 149.118 183.895 149.118Z" fill="#FFB6B6"/>
<path d="M193.504 178.356L175.409 180.723L175.747 183.308L193.842 180.941L193.504 178.356Z" fill="#3F3D56"/>
<path d="M151.137 181.502C151.31 181.614 151.474 181.74 151.627 181.877L169.525 177.315L170.746 172.997L177.503 173.988L176.084 181.842C175.97 182.476 175.652 183.056 175.18 183.495C174.707 183.934 174.105 184.208 173.464 184.275L152.567 186.476C152.226 187.193 151.675 187.789 150.987 188.186C150.3 188.582 149.507 188.76 148.716 188.695C147.925 188.63 147.172 188.326 146.558 187.823C145.944 187.32 145.497 186.642 145.278 185.879C145.059 185.116 145.077 184.304 145.33 183.552C145.583 182.799 146.06 182.142 146.696 181.667C147.332 181.192 148.097 180.921 148.891 180.892C149.684 180.863 150.468 181.075 151.137 181.502Z" fill="#FFB6B6"/>
<path d="M178.665 157.369L175.5 154.948C174.644 154.624 173.471 155.546 173.265 156.438L168.796 174.687L178.107 181.391L179.41 179.342L178.665 157.369Z" fill="#3F3D56"/>
<g opacity="0.2">
<path d="M196.831 166.269C196.041 166.583 195.235 166.856 194.417 167.089C194.157 167.167 193.888 167.241 193.624 167.312C191.881 167.796 190.09 168.085 188.283 168.176C187.506 168.209 186.727 168.188 185.952 168.113C185.12 168.03 184.299 167.868 183.498 167.629C183.472 167.621 183.442 167.614 183.416 167.606C181.75 167.133 180.224 166.266 178.965 165.077C178.684 164.804 178.421 164.511 178.179 164.202C177.484 163.35 176.974 162.363 176.681 161.303C176.389 160.243 176.321 159.134 176.481 158.046C176.512 157.849 176.555 157.654 176.608 157.461C176.748 156.937 176.934 156.426 177.163 155.934C177.263 155.703 177.375 155.476 177.494 155.253L181.703 153.83H189.717L195.248 155.353L195.62 155.376L195.628 155.458L195.799 155.506L195.713 156.221L196.831 166.269Z" fill="black"/>
</g>
<path d="M176.887 132.398C175.176 132.188 173.299 132.336 171.966 133.428C170.632 134.52 170.202 136.791 171.465 137.964C172.582 139.003 174.33 138.758 175.827 139.054C177.116 139.343 178.272 140.056 179.108 141.079C179.944 142.103 180.413 143.377 180.439 144.698C180.416 148.488 176.78 151.357 176.127 155.09C175.681 157.637 176.755 160.318 178.613 162.117C180.47 163.917 183.023 164.889 185.596 165.152C188.169 165.416 190.77 165.014 193.27 164.353C195.781 163.689 198.252 162.747 200.359 161.229C202.466 159.71 204.193 157.569 204.869 155.062C205.545 152.555 205.06 149.68 203.317 147.755C201.321 145.551 198.001 144.793 196.274 142.371C194.339 139.657 195.055 135.792 193.489 132.849C192.443 130.885 190.463 129.545 188.352 128.839C186.242 128.133 183.988 127.994 181.763 127.925C180.594 127.889 179.389 127.877 178.299 128.304C177.21 128.73 176.252 129.701 176.196 130.87C176.139 132.038 176.887 132.398 176.887 132.398Z" fill="#2F2E41"/>
<path d="M262.522 278.078H120.626C120.528 278.078 120.433 278.039 120.363 277.969C120.293 277.899 120.254 277.804 120.254 277.705C120.254 277.607 120.293 277.512 120.363 277.442C120.433 277.372 120.528 277.333 120.626 277.333H262.522C262.621 277.333 262.715 277.372 262.785 277.442C262.855 277.512 262.894 277.607 262.894 277.705C262.894 277.804 262.855 277.899 262.785 277.969C262.715 278.039 262.621 278.078 262.522 278.078Z" fill="#CACACA"/>
<path d="M260.525 63.5303C261.066 63.5303 261.505 63.0916 261.505 62.5503C261.505 62.0091 261.066 61.5703 260.525 61.5703C259.984 61.5703 259.545 62.0091 259.545 62.5503C259.545 63.0916 259.984 63.5303 260.525 63.5303Z" fill="#6DDEA2"/>
<path d="M196.875 147.11C197.416 147.11 197.855 146.672 197.855 146.13C197.855 145.589 197.416 145.15 196.875 145.15C196.333 145.15 195.895 145.589 195.895 146.13C195.895 146.672 196.333 147.11 196.875 147.11Z" fill="#6DDEA2"/>
<path d="M211.294 62.96C211.836 62.96 212.274 62.5212 212.274 61.98C212.274 61.4388 211.836 61 211.294 61C210.753 61 210.314 61.4388 210.314 61.98C210.314 62.5212 210.753 62.96 211.294 62.96Z" fill="#6DDEA2"/>
<path d="M289.125 99.6905C289.666 99.6905 290.105 99.2517 290.105 98.7105C290.105 98.1692 289.666 97.7305 289.125 97.7305C288.583 97.7305 288.145 98.1692 288.145 98.7105C288.145 99.2517 288.583 99.6905 289.125 99.6905Z" fill="#6DDEA2"/>
<path d="M234.755 154.1V158.41" stroke="#6DDEA2" stroke-linecap="round" stroke-linejoin="round"/>
<path d="M232.595 156.26H236.905" stroke="#6DDEA2" stroke-linecap="round" stroke-linejoin="round"/>
<path d="M278.354 80.9297V85.2397" stroke="#6DDEA2" stroke-linecap="round" stroke-linejoin="round"/>
<path d="M276.194 83.0898H280.504" stroke="#6DDEA2" stroke-linecap="round" stroke-linejoin="round"/>
<path d="M228.935 74.8604V79.1703" stroke="#6DDEA2" stroke-linecap="round" stroke-linejoin="round"/>
<path d="M226.784 77.0107H231.084" stroke="#6DDEA2" stroke-linecap="round" stroke-linejoin="round"/>
<path d="M65.5249 114.53C66.0662 114.53 66.5049 114.092 66.5049 113.55C66.5049 113.009 66.0662 112.57 65.5249 112.57C64.9837 112.57 64.5449 113.009 64.5449 113.55C64.5449 114.092 64.9837 114.53 65.5249 114.53Z" fill="#6DDEA2"/>
<path d="M1.87453 198.11C2.41577 198.11 2.85453 197.672 2.85453 197.13C2.85453 196.589 2.41577 196.15 1.87453 196.15C1.33329 196.15 0.894531 196.589 0.894531 197.13C0.894531 197.672 1.33329 198.11 1.87453 198.11Z" fill="#6DDEA2"/>
<path d="M16.2945 113.96C16.8357 113.96 17.2745 113.521 17.2745 112.98C17.2745 112.439 16.8357 112 16.2945 112C15.7532 112 15.3145 112.439 15.3145 112.98C15.3145 113.521 15.7532 113.96 16.2945 113.96Z" fill="#6DDEA2"/>
<path d="M94.1245 150.69C94.6658 150.69 95.1045 150.252 95.1045 149.71C95.1045 149.169 94.6658 148.73 94.1245 148.73C93.5833 148.73 93.1445 149.169 93.1445 149.71C93.1445 150.252 93.5833 150.69 94.1245 150.69Z" fill="#6DDEA2"/>
<path d="M39.7549 205.1V209.41" stroke="#6DDEA2" stroke-linecap="round" stroke-linejoin="round"/>
<path d="M37.5947 207.26H41.9047" stroke="#6DDEA2" stroke-linecap="round" stroke-linejoin="round"/>
<path d="M83.3545 131.93V136.24" stroke="#6DDEA2" stroke-linecap="round" stroke-linejoin="round"/>
<path d="M81.1943 134.09H85.5043" stroke="#6DDEA2" stroke-linecap="round" stroke-linejoin="round"/>
<path d="M33.9346 125.86V130.17" stroke="#6DDEA2" stroke-linecap="round" stroke-linejoin="round"/>
<path d="M31.7842 128.011H36.0842" stroke="#6DDEA2" stroke-linecap="round" stroke-linejoin="round"/>
</svg>
