<svg width="318" height="224" viewBox="0 0 318 224" fill="none" xmlns="http://www.w3.org/2000/svg">
<path d="M110.035 20.1643C110.035 20.1643 136.829 50.8803 194.513 15.7846C245.743 -15.3834 267.691 55.093 261.663 85.415C253.854 124.695 204.107 147.108 219.756 177.213C235.404 207.318 163.985 236.875 137.873 193.074C105.39 138.588 86.3091 173.435 62.3848 168.476C45.2144 164.917 18.8036 114.947 49.1877 88.1396C74.7555 65.5817 65.6674 54.4529 62.2952 44.0964C57.4316 29.1601 83.0684 -3.3325 110.035 20.1643Z" fill="#D7F3E4"/>
<path d="M60.3086 222.431H75.8291C78.4836 213.493 75.8433 192.37 79.3421 183.736C86.0548 167.183 94.6304 149.716 110.636 141.633C117.471 138.182 124.922 136.834 132.532 136.907C143.044 137.007 153.852 139.829 163.747 143.569C167.795 145.095 171.806 146.773 175.8 148.489C190.851 154.956 205.738 162 221.924 163.904C242.405 166.312 266.485 157.149 272.079 137.411C276.349 122.299 268.66 106.611 260.596 93.115C252.532 79.6191 243.519 65.179 244.991 49.5535C244.996 49.5011 245.002 49.4433 245.012 49.3909C245.566 43.7785 248.917 39.7451 253.598 37.1592H233.217C232.948 51.7356 241.381 64.602 248.97 77.3059C257.034 90.7966 264.723 106.49 260.453 121.602C254.859 141.334 208.539 118.204 188.058 115.791C182.274 115.114 191.462 117.522 185.947 115.791C177.298 113.079 176.339 137.951 167.921 134.3C162.681 132.024 157.435 129.763 152.121 127.754C149.921 126.92 147.672 126.139 145.398 125.415C145.396 125.415 145.394 125.414 145.392 125.413C145.39 125.413 145.389 125.411 145.387 125.41C130.115 120.574 113.412 118.691 99.3008 125.682C99.2059 125.73 99.1056 125.777 99.0106 125.824C83.0046 133.902 74.429 151.368 67.7162 167.922C62.1698 181.607 63.0422 207.996 60.3086 222.431Z" fill="#F2F2F2"/>
<path d="M152.309 221.974C76.5633 223.578 74.9023 190.399 74.9023 150.934C74.9023 111.469 109.443 80.5967 152.246 80.5967C195.049 80.5967 229.043 111.458 229.043 150.922C229.043 190.386 195.112 221.974 152.309 221.974Z" fill="white"/>
<path d="M151.879 222.405C76.1326 224.009 74.4717 190.83 74.4717 151.365C74.4717 111.9 109.294 79.7939 152.097 79.7939C194.9 79.7939 229.723 111.901 229.723 151.365C229.723 190.829 194.682 222.405 151.879 222.405ZM152.097 81.7633C110.472 81.7633 77.3086 112.992 76.6076 151.365C75.9556 187.056 117.079 231.594 152.097 220.967C170.876 201.898 223.97 181.36 227.587 151.365C232.187 113.221 193.723 81.7633 152.097 81.7633Z" fill="#3F3D56"/>
<path d="M25.2891 222.499C25.2889 222.63 25.2988 222.761 25.3183 222.882C25.3377 223.004 25.3663 223.114 25.4024 223.207C25.4384 223.3 25.4813 223.374 25.5284 223.424C25.5756 223.474 25.6261 223.499 25.6771 223.499H258.901C259.004 223.499 259.103 223.394 259.175 223.206C259.248 223.019 259.289 222.764 259.289 222.499C259.289 222.234 259.248 221.979 259.175 221.792C259.103 221.604 259.004 221.499 258.901 221.499H25.6771C25.6261 221.499 25.5756 221.524 25.5284 221.574C25.4813 221.624 25.4384 221.698 25.4024 221.791C25.3663 221.884 25.3377 221.994 25.3183 222.116C25.2988 222.237 25.2889 222.368 25.2891 222.499Z" fill="#CCCCCC"/>
<path d="M205.232 215.916H199.903L197.368 195.36L205.234 195.361L205.232 215.916Z" fill="#FFB8B8"/>
<path d="M205.419 221.475L189.031 221.474V221.267C189.031 219.575 189.703 217.953 190.9 216.757C192.096 215.56 193.718 214.888 195.41 214.888L198.404 212.617L203.989 214.889L205.42 214.889L205.419 221.475Z" fill="#2F2E41"/>
<path d="M197.134 168.267C191.048 162.358 184.054 157.462 176.419 153.767L172.524 158.163L175.005 153.098C164.785 148.431 153.691 145.987 142.456 145.928C131.221 145.869 120.102 148.195 109.833 152.754L111.857 157.149L108.75 153.243C100.729 156.974 93.3884 162.02 87.0327 168.173C86.3793 168.782 85.9757 169.612 85.9003 170.502C85.8676 170.986 85.9392 171.47 86.1101 171.924C86.2811 172.377 86.5474 172.789 86.8911 173.13C87.8703 173.594 89.2658 174.658 91.3391 177.578C91.9749 178.205 92.8305 178.559 93.7235 178.565C94.6165 178.57 95.4764 178.227 96.1199 177.607C108.433 165.688 124.898 159.025 142.035 159.025C159.172 159.025 175.637 165.688 187.95 177.607C188.593 178.227 189.453 178.57 190.346 178.565C191.239 178.559 192.095 178.205 192.73 177.578C194.817 175.701 195.304 173.049 197.097 173.212C197.728 172.601 198.111 171.779 198.172 170.903C198.198 170.415 198.119 169.927 197.94 169.472C197.761 169.017 197.486 168.606 197.134 168.267Z" fill="#6DDEA2"/>
<path d="M156.503 174.664L151.174 174.664L148.639 154.108L156.504 154.109L156.503 174.664Z" fill="#FFB8B8"/>
<path d="M156.692 180.224L140.304 180.223V180.016C140.304 178.324 140.976 176.702 142.172 175.506C143.368 174.309 144.991 173.637 146.682 173.637L149.676 171.366L155.261 173.638L156.692 173.638L156.692 180.224Z" fill="#2F2E41"/>
<path d="M211.326 98.9824L173.506 102.934L164.213 112.116L149.431 116.943C147.57 117.55 145.939 118.712 144.756 120.271C143.573 121.831 142.894 123.715 142.811 125.671C142.427 134.687 141.666 149.654 140.864 149.498C139.716 149.273 142.01 154.882 143.617 154.557C145.224 154.231 146.895 157.888 145.784 158.539C144.673 159.189 146.524 164.752 146.524 164.752L158.101 162.886C159.55 151.956 164.842 140.436 158.604 132.394C169.168 128.966 178.474 126.099 185.317 124.332L189.018 122.797L196.702 204.439L207.568 204.618C210.567 189.193 212.073 175.311 209.729 165.408C209.729 165.408 210.066 135.657 211.351 135.982C212.636 136.308 211.547 132.432 211.547 132.432C211.547 132.432 210.421 129.131 211.804 127.762C213.187 126.393 212.323 118.339 212.323 118.339C214.608 110.717 213.921 104.423 211.326 98.9824Z" fill="#2F2E41"/>
<path d="M215.797 82.3233C216.171 80.6435 216.546 78.9635 216.921 77.2834C217.973 72.5788 219.023 67.8764 220.072 63.176C221.449 57.0174 222.831 50.6444 221.647 44.447C221.469 43.515 221.221 42.5979 220.903 41.7038C219.13 36.6305 215.213 32.1851 210.019 31.2489L209.17 28.0868L197.58 26.6602L195.387 29.6853C190.665 29.3078 187.863 34.009 184.606 37.8831L183.311 39.1775C182.368 40.3572 182.175 44.7892 181.586 46.0805C178.967 51.8228 182.576 46.2423 182.449 52.5522C182.317 59.0908 181.031 65.4356 180.899 71.9739C180.885 72.6754 179.376 73.2102 179.116 74.4402C178.976 75.1041 180.145 76.3355 179.968 77.0777C179.817 77.7112 180.572 80.2571 180.41 80.9118C179.658 83.9493 177.954 85.1452 177.879 86.6429C177.845 87.2193 177.759 87.7914 177.623 88.3524C177.529 88.7505 176.223 88.2735 176.096 88.6778C175.882 89.3571 176.823 90.9213 176.565 91.6013C176.066 92.9171 176.401 95.2413 176.096 96.4438C174.813 101.492 175.306 99.4888 172.525 103.894C179.642 106.045 182.715 113.25 190.035 114.547C190.365 113.48 190.694 112.411 191.022 111.339C191.993 111.401 192.969 111.46 193.945 111.513C194 112.444 194.055 113.375 194.11 114.3C201.53 114.779 208.972 114.819 216.397 114.422C216.148 113.675 215.95 112.913 215.802 112.141C215.395 109.993 216.271 107.663 216.364 105.536C216.431 103.961 215.681 102.622 215.703 100.926C215.709 100.612 217.472 100.347 217.466 100.028C217.438 97.2073 215.836 93.4339 216.364 90.6632C216.915 87.8154 215.169 85.1551 215.797 82.3242L215.797 82.3233Z" fill="#3F3D56"/>
<path d="M161.584 14.2002C160.602 14.2013 159.66 14.5922 158.965 15.287C158.27 15.9819 157.879 16.9239 157.878 17.9066V40.2396C157.879 41.2223 158.27 42.1643 158.965 42.8592C159.66 43.554 160.602 43.9449 161.584 43.946H168.494C169.476 43.9449 170.418 43.554 171.113 42.8592C171.808 42.1643 172.199 41.2223 172.2 40.2396C173.301 29.0179 172.896 22.9617 172.2 17.9066C172.199 16.9239 171.808 15.9819 171.113 15.287C170.418 14.5922 169.476 14.2013 168.494 14.2002L161.584 14.2002Z" fill="#6DDEA2"/>
<path d="M160.72 14.2002C159.738 14.2013 158.796 14.5922 158.101 15.287C157.406 15.9818 157.015 16.9239 157.014 17.9065C156.617 26.6853 156.341 35.0576 157.014 40.2395C157.015 41.2222 157.406 42.1643 158.101 42.8592C158.796 43.554 159.738 43.9449 160.72 43.946H167.63C168.612 43.9449 169.554 43.554 170.249 42.8592C170.944 42.1643 171.335 41.2223 171.336 40.2396V17.9066C171.335 16.924 170.944 15.9819 170.249 15.2871C169.554 14.5922 168.612 14.2014 167.63 14.2002L160.72 14.2002Z" fill="#3F3D56"/>
<path d="M178.508 46.7026C178.508 46.7026 185.043 46.4376 181.717 49.2592C179.552 51.0953 174.678 63.8778 169.614 65.4242C169.018 65.606 168.391 65.6619 167.772 65.5885C167.153 65.5151 166.556 65.3139 166.019 64.9977C165.482 64.6815 165.016 64.2572 164.651 63.7517C164.287 63.2461 164.031 62.6704 163.901 62.0609L159.311 40.6659L165.307 39.7539L168.961 56.6871L178.508 46.7026Z" fill="#FFB8B8"/>
<path d="M162.639 42.2276C164.981 42.2276 166.88 40.329 166.88 37.9869C166.88 35.6448 164.981 33.7461 162.639 33.7461C160.297 33.7461 158.398 35.6448 158.398 37.9869C158.398 40.329 160.297 42.2276 162.639 42.2276Z" fill="#FFB8B8"/>
<path d="M187.372 35.0118C191.257 37.9292 192.401 47.4961 189.96 51.6965C185.293 59.7259 176.094 65.9079 175.701 65.0493C175.164 63.8736 174.228 65.4523 174.26 65.9692C174.291 66.486 172.519 66.3319 172.726 66.8788C172.932 67.4257 171.533 67.5445 170.926 67.8616C170.926 67.8616 165.367 67.9556 163.613 65.4187C161.859 62.8818 161.624 59.376 161.624 59.376L159.446 56.8141L170.99 50.0658L170.039 54.6207L175.798 47.9151L177.017 45.2249L178.961 44.2319L179.605 42.2048L181.398 41.3942L188.489 33.1377L187.372 35.0118Z" fill="#3F3D56"/>
<path d="M219.269 113.603C219.754 113.283 220.163 112.861 220.466 112.367C220.77 111.872 220.962 111.317 221.028 110.74C221.094 110.163 221.033 109.579 220.849 109.029C220.664 108.478 220.362 107.975 219.962 107.554L220.778 71.2764L213.61 72.3915L214.115 107.579C213.452 108.297 213.076 109.234 213.058 110.211C213.04 111.188 213.381 112.138 214.016 112.88C214.652 113.623 215.537 114.107 216.506 114.24C217.474 114.373 218.457 114.146 219.269 113.603Z" fill="#FFB8B8"/>
<path d="M219.583 40.3525C219.583 40.3525 219.107 40.7119 221.545 44.4273C222.029 45.1642 222.357 48.1352 222.586 52.0122C222.661 53.2752 223.38 54.1626 223.436 55.572C223.483 56.7682 222.87 58.4724 222.906 59.7129C222.925 60.3745 223.419 60.9502 223.436 61.6122C223.443 61.8881 222.974 62.252 222.981 62.5269C222.988 62.8234 222.995 63.119 223.002 63.4138C223.169 70.7824 223.205 77.4375 223.371 77.3251C223.726 77.0854 222.845 78.3243 223.286 78.5311C223.726 78.738 222.909 79.7642 223.12 80.2962C223.376 80.9442 223.058 81.6592 222.856 82.3098C222.274 84.1883 222.149 85.8013 221.643 86.6936C222.244 87.0382 222.712 87.5728 222.976 88.2131C223.239 88.8535 223.282 89.5632 223.097 90.2305L212.994 88.4039C211.762 86.4307 211.94 84.3597 212.78 83.9988L212.53 77.5776L209.652 44.3572L218.085 40.5922L219.583 40.3525Z" fill="#3F3D56"/>
<path d="M156.877 19.9268C156.732 19.9268 156.614 19.9959 156.614 20.0808V21.3134C156.614 21.3984 156.732 21.4675 156.877 21.4675C157.022 21.4675 157.14 21.3984 157.14 21.3134V20.0808C157.14 19.9959 157.022 19.9268 156.877 19.9268Z" fill="#3F3D56"/>
<path d="M156.877 23.1934C156.732 23.1934 156.614 23.2625 156.614 23.3474V25.7356C156.614 25.8205 156.732 25.8896 156.877 25.8896C157.022 25.8896 157.14 25.8205 157.14 25.7356V23.3474C157.14 23.2625 157.022 23.1934 156.877 23.1934Z" fill="#3F3D56"/>
<path d="M171.547 23.625C171.47 23.6338 171.399 23.6726 171.35 23.733C171.3 23.7934 171.277 23.8706 171.284 23.9481V28.9563C171.276 28.9954 171.277 29.0358 171.286 29.0745C171.295 29.1133 171.313 29.1495 171.339 29.1804C171.364 29.2114 171.396 29.2363 171.432 29.2534C171.468 29.2706 171.507 29.2794 171.547 29.2794C171.587 29.2794 171.626 29.2706 171.662 29.2534C171.698 29.2363 171.73 29.2114 171.755 29.1804C171.78 29.1495 171.798 29.1133 171.808 29.0745C171.817 29.0358 171.818 28.9954 171.81 28.9563V23.9481C171.817 23.8706 171.793 23.7934 171.744 23.733C171.695 23.6726 171.624 23.6338 171.547 23.625Z" fill="#3F3D56"/>
<path d="M156.446 27.0146C156.301 27.0146 156.183 27.0837 156.183 27.1687V29.5569C156.183 29.6419 156.301 29.7109 156.446 29.7109C156.591 29.7109 156.709 29.6418 156.709 29.5569V27.1687C156.709 27.0837 156.591 27.0146 156.446 27.0146Z" fill="#3F3D56"/>
<path d="M202.562 25.5399C208.544 25.5399 213.393 20.6907 213.393 14.7089C213.393 8.72712 208.544 3.87793 202.562 3.87793C196.581 3.87793 191.731 8.72712 191.731 14.7089C191.731 20.6907 196.581 25.5399 202.562 25.5399Z" fill="#FFB8B8"/>
<path d="M214.657 19.6856C213.811 21.3777 213.006 22.4361 211.545 23.382C211.47 23.1664 211.41 22.946 211.365 22.7225C211.209 23.0703 211.057 23.4173 210.898 23.7659C209.973 24.2824 210.971 23.4856 209.458 24.063L208.184 21.8775C207.835 20.8401 208.329 19.7102 208.958 18.8124C209.587 17.9182 210.37 17.0985 210.711 16.059C211.052 15.0195 210.75 13.6423 209.727 13.2554C208.72 12.869 207.608 13.602 206.537 13.4747C205.302 13.329 204.461 12.0363 204.394 10.7928C204.327 9.5492 204.835 8.35516 205.331 7.21716C203.835 8.28935 199.2 10.2103 196.677 10.3021C196.609 9.51507 196.245 8.7831 195.659 8.25354C195.762 8.97002 195.588 9.69869 195.171 10.291C192.701 10.1643 192.237 13.7522 190.962 12.453C191.36 12.2526 189.893 7.79379 190.291 7.59346C189.984 6.75401 189.678 5.91699 189.373 5.08242C189.941 5.22546 190.513 5.37139 191.084 5.51365C191.119 5.20849 191.212 4.91277 191.357 4.64199C191.764 4.40984 192.198 4.22691 192.648 4.09705C192.793 4.05829 192.942 4.01875 193.092 3.98653C193.315 3.93697 193.54 3.90026 193.767 3.87658C193.438 3.68615 193.107 3.50015 192.778 3.30608C192.739 3.28381 192.703 3.26075 192.664 3.23848C193.126 2.92063 193.609 2.63393 194.11 2.38028C196.22 1.27618 198.411 0.151144 200.79 0.0135224C202.336 -0.0848888 203.868 0.356153 205.125 1.2614C206.208 2.03982 207.521 2.43463 208.854 2.38334C209.503 2.3784 210.144 2.52121 210.729 2.80094C210.461 3.0709 210.168 3.31477 209.854 3.52927C210.54 3.54712 211.223 3.56576 211.91 3.58728C212.68 4.28771 213.329 5.11007 213.831 6.02137C216.239 10.1346 216.789 15.4243 214.657 19.6856Z" fill="#2F2E41"/>
<path d="M179.875 188.425C179.793 187.884 179.583 187.371 179.262 186.928C178.942 186.485 178.52 186.125 178.032 185.877C173.453 183.534 168.655 181.648 163.705 180.247L159.074 186.353L162.497 179.911C149.828 176.512 136.511 176.323 123.751 179.361L125.532 184.272L122.622 179.642C116.876 181.087 111.313 183.178 106.039 185.877C105.553 186.126 105.133 186.486 104.813 186.928C104.493 187.369 104.282 187.881 104.197 188.42C104.112 188.959 104.155 189.51 104.324 190.029C104.492 190.548 104.781 191.019 105.167 191.406C107.169 191.529 108.491 193.389 109.811 196.05C110.317 196.549 110.964 196.879 111.665 196.996C112.366 197.113 113.086 197.01 113.726 196.702C122.57 192.495 132.241 190.312 142.036 190.312C151.83 190.312 161.501 192.495 170.345 196.702C170.985 197.01 171.705 197.113 172.406 196.996C173.107 196.88 173.754 196.549 174.26 196.05C175.053 193.898 176.688 192.626 178.904 191.406C179.292 191.022 179.582 190.551 179.751 190.033C179.92 189.514 179.962 188.963 179.875 188.425Z" fill="#6DDEA2"/>
<path d="M154.287 209.451C153.273 209.291 152.253 209.152 151.226 209.033L147.203 215.436L150.201 208.924C145.329 208.426 140.422 208.375 135.541 208.77L138.61 215.436L134.479 208.862C132.903 209.012 131.337 209.208 129.784 209.451C129.252 209.529 128.753 209.756 128.344 210.106C127.936 210.456 127.634 210.913 127.474 211.427C127.303 211.944 127.28 212.499 127.407 213.029C127.533 213.559 127.805 214.044 128.191 214.429C129.852 216.056 131.684 218.316 134.694 220.932C134.988 221.23 135.343 221.46 135.734 221.607C136.126 221.755 136.544 221.815 136.961 221.785C138.63 221.661 140.337 221.598 142.035 221.598C143.734 221.598 145.441 221.661 147.11 221.785C147.527 221.814 147.945 221.754 148.337 221.607C148.728 221.459 149.083 221.229 149.377 220.932C152.486 218.279 154.057 215.845 155.88 214.429C156.267 214.044 156.538 213.559 156.665 213.029C156.791 212.499 156.768 211.944 156.597 211.427C156.437 210.913 156.135 210.455 155.727 210.106C155.318 209.756 154.819 209.529 154.287 209.451Z" fill="#6DDEA2"/>
<path d="M288.13 24.5303C288.672 24.5303 289.11 24.0916 289.11 23.5503C289.11 23.0091 288.672 22.5703 288.13 22.5703C287.589 22.5703 287.15 23.0091 287.15 23.5503C287.15 24.0916 287.589 24.5303 288.13 24.5303Z" fill="#6DDEA2"/>
<path d="M224.48 108.11C225.021 108.11 225.46 107.672 225.46 107.13C225.46 106.589 225.021 106.15 224.48 106.15C223.939 106.15 223.5 106.589 223.5 107.13C223.5 107.672 223.939 108.11 224.48 108.11Z" fill="#6DDEA2"/>
<path d="M238.9 23.96C239.441 23.96 239.88 23.5212 239.88 22.98C239.88 22.4388 239.441 22 238.9 22C238.359 22 237.92 22.4388 237.92 22.98C237.92 23.5212 238.359 23.96 238.9 23.96Z" fill="#6DDEA2"/>
<path d="M316.73 60.6905C317.271 60.6905 317.71 60.2517 317.71 59.7105C317.71 59.1692 317.271 58.7305 316.73 58.7305C316.189 58.7305 315.75 59.1692 315.75 59.7105C315.75 60.2517 316.189 60.6905 316.73 60.6905Z" fill="#6DDEA2"/>
<path d="M262.359 115.1V119.41" stroke="#6DDEA2" stroke-linecap="round" stroke-linejoin="round"/>
<path d="M260.199 117.26H264.509" stroke="#6DDEA2" stroke-linecap="round" stroke-linejoin="round"/>
<path d="M305.961 41.9297V46.2397" stroke="#6DDEA2" stroke-linecap="round" stroke-linejoin="round"/>
<path d="M303.801 44.0898H308.111" stroke="#6DDEA2" stroke-linecap="round" stroke-linejoin="round"/>
<path d="M256.541 35.8604V40.1703" stroke="#6DDEA2" stroke-linecap="round" stroke-linejoin="round"/>
<path d="M254.391 38.0107H258.691" stroke="#6DDEA2" stroke-linecap="round" stroke-linejoin="round"/>
<path d="M64.9195 75.5303C65.4607 75.5303 65.8995 75.0916 65.8995 74.5503C65.8995 74.0091 65.4607 73.5703 64.9195 73.5703C64.3782 73.5703 63.9395 74.0091 63.9395 74.5503C63.9395 75.0916 64.3782 75.5303 64.9195 75.5303Z" fill="#6DDEA2"/>
<path d="M1.26906 159.11C1.8103 159.11 2.24906 158.672 2.24906 158.13C2.24906 157.589 1.8103 157.15 1.26906 157.15C0.727823 157.15 0.289062 157.589 0.289062 158.13C0.289062 158.672 0.727823 159.11 1.26906 159.11Z" fill="#6DDEA2"/>
<path d="M15.689 74.96C16.2302 74.96 16.669 74.5212 16.669 73.98C16.669 73.4388 16.2302 73 15.689 73C15.1477 73 14.709 73.4388 14.709 73.98C14.709 74.5212 15.1477 74.96 15.689 74.96Z" fill="#6DDEA2"/>
<path d="M93.5191 111.69C94.0603 111.69 94.4991 111.252 94.4991 110.71C94.4991 110.169 94.0603 109.73 93.5191 109.73C92.9778 109.73 92.5391 110.169 92.5391 110.71C92.5391 111.252 92.9778 111.69 93.5191 111.69Z" fill="#6DDEA2"/>
<path d="M39.1484 166.1V170.41" stroke="#6DDEA2" stroke-linecap="round" stroke-linejoin="round"/>
<path d="M36.9883 168.26H41.2983" stroke="#6DDEA2" stroke-linecap="round" stroke-linejoin="round"/>
<path d="M82.75 92.9297V97.2397" stroke="#6DDEA2" stroke-linecap="round" stroke-linejoin="round"/>
<path d="M80.5898 95.0898H84.8998" stroke="#6DDEA2" stroke-linecap="round" stroke-linejoin="round"/>
<path d="M33.3301 86.8604V91.1703" stroke="#6DDEA2" stroke-linecap="round" stroke-linejoin="round"/>
<path d="M31.1797 89.0107H35.4797" stroke="#6DDEA2" stroke-linecap="round" stroke-linejoin="round"/>
</svg>
