<svg width="19" height="19" viewBox="0 0 19 19" fill="none" xmlns="http://www.w3.org/2000/svg">
<g clip-path="url(#clip0_309_13621)">
<path d="M12.8942 13.5503L12.2882 14.1563L10.1665 12.0338L10.7725 11.4285C11.212 10.989 11.9245 10.989 12.364 11.4285L12.895 11.9595C13.3337 12.399 13.333 13.1108 12.8942 13.5503ZM6.95045 6.01654L7.4807 6.54679C7.9202 6.98629 7.9202 7.69879 7.4807 8.13829L6.87545 8.74354L4.7537 6.62254L5.3597 6.01654C5.7992 5.57704 6.51095 5.57704 6.95045 6.01654ZM18.4937 4.64254C18.4232 3.44254 17.8892 2.34229 16.9907 1.54354C16.0915 0.746294 14.9357 0.345044 13.7357 0.416294C12.5357 0.486794 11.4355 1.02079 10.6367 1.91929C9.8387 2.81779 9.43745 3.97354 9.5087 5.17354C9.5792 6.37354 10.1132 7.47379 11.0117 8.27254C11.9102 9.07054 13.066 9.47179 14.266 9.40054C15.466 9.33004 16.5662 8.79604 17.365 7.89754C18.163 6.99904 18.5642 5.84329 18.493 4.64329L18.4937 4.64254ZM15.5012 3.40804C15.5012 4.23679 14.83 4.90804 14.0012 4.90804C13.1725 4.90804 12.5012 4.23679 12.5012 3.40804C12.5012 2.60929 13.1275 1.96279 13.9142 1.91704C14.0147 1.91404 14.113 1.92229 14.2112 1.92979C14.9395 2.03254 15.5012 2.65129 15.5012 3.40804ZM16.243 6.90004C15.733 7.47454 15.004 7.85479 14.1782 7.90354C13.2167 7.96054 12.3415 7.54654 11.7512 6.87229V6.78304C11.7512 6.16204 12.2552 5.65804 12.8762 5.65804H15.1262C15.7472 5.65804 16.2512 6.16204 16.2512 6.78304V6.88804C16.2512 6.88804 16.246 6.89629 16.243 6.89929V6.90004ZM5.82845 18.408C4.4057 18.408 3.0677 17.8538 2.06195 16.8473C1.0562 15.8423 0.501953 14.5043 0.501953 13.0815C0.501953 11.6588 1.0562 10.32 2.0627 9.31504L3.70595 7.67104L5.8277 9.79204L4.1837 11.4368C3.74345 11.8763 3.50195 12.4598 3.50195 13.0815C3.50195 13.7033 3.74345 14.2868 4.18295 14.7255C5.0627 15.606 6.59495 15.6053 7.47395 14.7255L9.11945 13.0808L11.2405 15.2033L9.5957 16.8473C8.58995 17.853 7.25195 18.4073 5.8292 18.4073L5.82845 18.408Z" fill="#263238" fill-opacity="0.99"/>
</g>
<defs>
<clipPath id="clip0_309_13621">
<rect width="18" height="18" fill="white" transform="translate(0.5 0.408203)"/>
</clipPath>
</defs>
</svg>
