<svg width="18" height="18" viewBox="0 0 18 18" fill="none" xmlns="http://www.w3.org/2000/svg">
<path d="M18.0001 14.249C18.0001 14.6638 17.6641 14.999 17.2501 14.999H15.0001V17.249C15.0001 17.6638 14.6641 17.999 14.2501 17.999C13.8361 17.999 13.5001 17.6638 13.5001 17.249V14.999H11.2501C10.8361 14.999 10.5001 14.6638 10.5001 14.249C10.5001 13.8343 10.8361 13.499 11.2501 13.499H13.5001V11.249C13.5001 10.8343 13.8361 10.499 14.2501 10.499C14.6641 10.499 15.0001 10.8343 15.0001 11.249V13.499H17.2501C17.6641 13.499 18.0001 13.8343 18.0001 14.249ZM4.12506 5.24902C5.57256 5.24902 6.75006 4.07152 6.75006 2.62402C6.75006 1.17652 5.57256 -0.000976562 4.12506 -0.000976562C2.67756 -0.000976562 1.50006 1.17652 1.50006 2.62402C1.50006 4.07152 2.67756 5.24902 4.12506 5.24902ZM11.6251 5.24902C13.0726 5.24902 14.2501 4.07152 14.2501 2.62402C14.2501 1.17652 13.0726 -0.000976562 11.6251 -0.000976562C10.1776 -0.000976562 9.00006 1.17652 9.00006 2.62402C9.00006 4.07152 10.1776 5.24902 11.6251 5.24902ZM5.25006 8.62402C5.25006 10.0715 6.42756 11.249 7.87506 11.249C9.32256 11.249 10.5001 10.0715 10.5001 8.62402C10.5001 7.17652 9.32256 5.99902 7.87506 5.99902C6.42756 5.99902 5.25006 7.17652 5.25006 8.62402ZM3.75006 8.62402C3.75006 7.65427 4.08831 6.76327 4.65081 6.05827C4.47831 6.03952 4.30356 6.02527 4.12506 6.02527C1.82706 6.02527 -0.0119416 7.56952 5.83944e-05 9.77002C0.00230839 10.1758 0.348808 10.499 0.754559 10.499H4.20606C3.91731 9.93577 3.75006 9.29977 3.75006 8.62402ZM9.00006 14.249C9.00006 13.526 9.34881 12.8885 9.88056 12.4768C9.28356 12.1873 8.59881 12.0253 7.87506 12.0253C5.57706 12.0253 3.73806 13.5695 3.75006 15.77C3.75231 16.1758 4.09881 16.499 4.50456 16.499H11.2456C11.2456 16.499 11.2463 16.499 11.2471 16.499C10.0073 16.4975 9.00006 15.4888 9.00006 14.249ZM11.0993 6.05827C11.6618 6.76327 12.0001 7.65427 12.0001 8.62402C12.0001 9.29977 11.8336 9.93577 11.5448 10.499H12.1388C12.4493 9.62827 13.2743 8.99902 14.2508 8.99902C14.8246 8.99902 15.3436 9.22177 15.7411 9.57652C15.6436 7.48102 13.8083 6.02602 11.6258 6.02602C11.4466 6.02602 11.2726 6.04027 11.1001 6.05827H11.0993Z" fill="#263238"/>
</svg>
