<svg width="19" height="18" viewBox="0 0 19 18" fill="none" xmlns="http://www.w3.org/2000/svg">
<g clip-path="url(#clip0_309_13220)">
<path d="M7.48693 10.2441C3.49093 10.2689 1.34143 12.4266 1.26868 16.4849C1.26493 16.6866 1.34293 16.8801 1.48393 17.0241C1.62493 17.1674 1.81693 17.2484 2.01868 17.2484H12.9649C13.1667 17.2484 13.3587 17.1681 13.4997 17.0241C13.6407 16.8809 13.7187 16.6866 13.7149 16.4849C13.6459 12.4859 11.4379 10.2696 7.48693 10.2441Z" fill="#263238" fill-opacity="0.99"/>
<path d="M16.609 8.39963H15.6625V7.45312C15.6625 6.83138 15.1585 6.32812 14.5375 6.32812C13.9165 6.32812 13.4125 6.83138 13.4125 7.45312V8.39963H12.4668C11.8458 8.39963 11.3418 8.90287 11.3418 9.52463C11.3418 10.1464 11.8458 10.6496 12.4668 10.6496H13.4125V11.5961C13.4125 12.2171 13.9165 12.7211 14.5375 12.7211C15.1585 12.7211 15.6625 12.2171 15.6625 11.5961V10.6496H16.609C17.23 10.6496 17.734 10.1456 17.734 9.52463C17.734 8.90363 17.23 8.39963 16.609 8.39963Z" fill="#263238" fill-opacity="0.99"/>
<path d="M7.49405 9.23002C10.2023 9.21427 11.6603 7.75177 11.7106 4.97677C11.6641 2.30677 10.1273 0.766273 7.48505 0.749023C4.8143 0.765523 3.26855 2.34052 3.26855 5.00302C3.26855 7.66552 4.81505 9.21427 7.49405 9.23002Z" fill="#263238" fill-opacity="0.99"/>
</g>
<defs>
<clipPath id="clip0_309_13220">
<rect width="18" height="18" fill="white" transform="translate(0.5 -0.00195312)"/>
</clipPath>
</defs>
</svg>
