<svg width="18" height="12" viewBox="0 0 18 12" fill="none" xmlns="http://www.w3.org/2000/svg">
<path d="M7.03376 0.0565143C7.2515 0.179972 7.40635 0.35115 7.48732 0.584087C7.49945 0.6755 7.49945 0.6755 7.50086 0.769919C7.50189 0.800807 7.50291 0.831694 7.50396 0.863518C7.4504 1.20259 7.19182 1.41426 6.952 1.64333C6.91175 1.68228 6.87154 1.72127 6.83135 1.76028C6.7227 1.86559 6.61361 1.97046 6.50443 2.07526C6.39022 2.18505 6.27641 2.29523 6.16256 2.40537C5.94714 2.61365 5.73135 2.82157 5.51544 3.02936C5.26954 3.26603 5.02405 3.50311 4.7786 3.74022C4.27389 4.22775 3.76867 4.71477 3.26311 5.20147C3.2917 5.20149 3.32029 5.20151 3.34974 5.20153C5.04413 5.20279 6.73851 5.20477 8.43289 5.20769C8.63634 5.20804 8.8398 5.20839 9.04325 5.20873C9.104 5.20883 9.104 5.20883 9.16599 5.20894C9.82179 5.21002 10.4776 5.21061 11.1334 5.21103C11.8063 5.21146 12.4793 5.21242 13.1522 5.21388C13.5674 5.21475 13.9826 5.21522 14.3979 5.21516C14.6826 5.21516 14.9674 5.21567 15.2521 5.21659C15.4164 5.2171 15.5806 5.21739 15.7449 5.21706C15.8954 5.21677 16.046 5.21713 16.1965 5.21799C16.2508 5.21819 16.3051 5.21816 16.3595 5.21786C16.6828 5.21624 17.016 5.21537 17.2691 5.43758C17.465 5.64177 17.5051 5.83672 17.4995 6.11068C17.4771 6.3197 17.3941 6.44592 17.2445 6.59412C16.9373 6.7945 16.6456 6.79075 16.2883 6.78953C16.232 6.78972 16.1758 6.78995 16.1195 6.79023C15.9654 6.79086 15.8113 6.79084 15.6571 6.79072C15.4908 6.79069 15.3244 6.79128 15.158 6.79178C14.8699 6.79258 14.5818 6.793 14.2937 6.79315C13.8772 6.79338 13.4606 6.79418 13.0441 6.79512C12.3683 6.79664 11.6924 6.79769 11.0166 6.79844C10.3601 6.79918 9.70368 6.80013 9.04722 6.80138C8.98651 6.80149 8.9865 6.80149 8.92457 6.80161C8.72152 6.802 8.51848 6.80239 8.31543 6.80278C6.63133 6.80604 4.94722 6.80855 3.26311 6.81056C3.2945 6.84083 3.2945 6.84083 3.32653 6.8717C3.83577 7.36277 4.34471 7.85413 4.85332 8.34581C5.09928 8.58358 5.34535 8.82125 5.59166 9.05869C5.80635 9.26564 6.02085 9.47279 6.23512 9.68015C6.34857 9.78993 6.46212 9.89962 6.57589 10.0091C6.68302 10.1122 6.78988 10.2155 6.89656 10.319C6.93572 10.3569 6.97497 10.3947 7.01432 10.4325C7.06813 10.4841 7.1216 10.536 7.175 10.588C7.21997 10.6315 7.21997 10.6315 7.26586 10.6758C7.42791 10.8599 7.49304 11.0492 7.48732 11.288C7.44676 11.5339 7.32052 11.722 7.12628 11.8827C6.93698 11.994 6.72917 12.0187 6.51251 11.9876C6.13647 11.8778 5.87643 11.5706 5.609 11.3092C5.55515 11.2572 5.50126 11.2053 5.44734 11.1534C5.30162 11.0128 5.15648 10.8718 5.01145 10.7306C4.85934 10.5826 4.70678 10.4351 4.55428 10.2875C4.29836 10.0397 4.04282 9.7916 3.78749 9.54324C3.49253 9.25634 3.19699 8.97001 2.90113 8.68397C2.61615 8.40841 2.33157 8.13246 2.04718 7.85633C1.92631 7.73898 1.80529 7.62176 1.68416 7.50466C1.54152 7.36674 1.39925 7.22847 1.25724 7.08993C1.20515 7.03921 1.15293 6.98861 1.10058 6.93815C1.02901 6.86911 0.957892 6.79965 0.886876 6.73007C0.86619 6.71031 0.845504 6.69056 0.824191 6.67021C0.660311 6.50813 0.539748 6.33312 0.5 6.10658C0.500372 6.0734 0.500745 6.04021 0.501128 6.00601C0.500756 5.97283 0.500384 5.93964 0.5 5.90545C0.545747 5.64473 0.698941 5.46144 0.888732 5.2804C0.911209 5.2584 0.933686 5.23641 0.956845 5.21375C1.03172 5.14065 1.1071 5.06805 1.18249 4.99545C1.2365 4.94294 1.29047 4.89039 1.34442 4.83782C1.49067 4.69549 1.63737 4.5536 1.78418 4.41181C1.93792 4.2632 2.09132 4.11426 2.24477 3.96537C2.50249 3.71541 2.76052 3.46575 3.01872 3.21626C3.31702 2.92801 3.6148 2.63925 3.91231 2.35023C4.16799 2.10189 4.42394 1.85381 4.68013 1.60596C4.83305 1.45803 4.98586 1.31 5.13842 1.16173C5.28188 1.02233 5.42569 0.88328 5.56978 0.744488C5.62253 0.693563 5.67516 0.64252 5.72766 0.591348C5.79947 0.521386 5.87172 0.451871 5.94409 0.382449C5.96465 0.362223 5.9852 0.341997 6.00638 0.321158C6.28729 0.0541913 6.64425 -0.0856108 7.03376 0.0565143Z" fill="white"/>
</svg>
