<svg width="14" height="16" viewBox="0 0 14 16" fill="none" xmlns="http://www.w3.org/2000/svg">
<path d="M1.73988 0.00159096C1.78693 0.00136346 1.83398 0.00113597 1.88245 0.000901579C2.0116 0.000298757 2.14073 0.000590943 2.26987 0.0010454C2.40971 0.00137768 2.54955 0.000864918 2.68939 0.000465004C2.96276 -0.000181121 3.23613 -4.44314e-05 3.5095 0.000379349C3.73181 0.000709614 3.95412 0.00075296 4.17643 0.000594623C4.22402 0.000561103 4.22402 0.000561104 4.27256 0.000526907C4.33702 0.000480278 4.40148 0.000432997 4.46594 0.000385073C5.0694 -3.00879e-05 5.67286 0.000446287 6.27631 0.00123095C6.79334 0.00188242 7.31036 0.00176923 7.82738 0.00109696C8.42878 0.000315338 9.03018 9.95954e-06 9.63158 0.000457095C9.6958 0.000503545 9.76001 0.000549391 9.82422 0.000594623C9.85581 0.000617121 9.8874 0.000639619 9.91995 0.000662799C10.1418 0.000788351 10.3637 0.000576964 10.5855 0.000233027C10.8562 -0.000177317 11.1268 -6.25018e-05 11.3974 0.000711461C11.5353 0.00109292 11.6732 0.0012479 11.8111 0.000762626C11.961 0.000243176 12.1109 0.000866233 12.2608 0.00159096C12.3038 0.00126565 12.3468 0.000940341 12.3911 0.000605175C12.8698 0.00507297 13.2612 0.124432 13.605 0.452048C13.8628 0.719991 13.9855 1.01498 13.9861 1.38121C13.9862 1.429 13.9864 1.4768 13.9866 1.52604C13.9866 1.57921 13.9866 1.63238 13.9866 1.68555C13.9867 1.74193 13.9868 1.79832 13.987 1.8547C13.9874 2.00989 13.9875 2.16508 13.9876 2.32027C13.9877 2.48756 13.9881 2.65484 13.9884 2.82213C13.9892 3.22626 13.9895 3.63039 13.9899 4.03452C13.99 4.22483 13.9902 4.41515 13.9904 4.60546C13.991 5.23812 13.9916 5.87079 13.9919 6.50345C13.9919 6.66764 13.992 6.83182 13.9921 6.99601C13.9921 7.03682 13.9921 7.07763 13.9921 7.11967C13.9924 7.78069 13.9934 8.4417 13.9946 9.10271C13.9958 9.78137 13.9965 10.46 13.9966 11.1387C13.9967 11.5197 13.997 11.9007 13.998 12.2818C13.9988 12.6063 13.9991 12.9308 13.9987 13.2553C13.9985 13.4209 13.9986 13.5864 13.9993 13.7519C14 13.9036 14 14.0553 13.9994 14.207C13.9993 14.2617 13.9995 14.3164 13.9999 14.3711C14.0036 14.859 13.9099 15.2408 13.5669 15.6081C13.2906 15.8694 12.9454 15.9704 12.571 16C11.9904 15.9808 11.5789 15.6223 11.1454 15.2877C10.9725 15.1546 10.7963 15.0265 10.6187 14.8994C10.3659 14.7184 10.1157 14.5344 9.86709 14.348C9.62065 14.1633 9.37285 13.9807 9.12248 13.8011C8.83897 13.5978 8.55912 13.3901 8.28007 13.181C7.97256 12.9509 7.66138 12.7259 7.34899 12.5022C7.27956 12.4522 7.27956 12.4522 7.20787 12.3889C7.13237 12.334 7.13237 12.334 7.03734 12.3483C6.94243 12.38 6.87886 12.4151 6.79905 12.474C6.77176 12.4939 6.74448 12.5138 6.71636 12.5343C6.67263 12.567 6.67263 12.567 6.62802 12.6003C6.59716 12.623 6.56631 12.6456 6.53452 12.6689C6.43506 12.7421 6.33602 12.8158 6.2371 12.8897C6.20455 12.914 6.17201 12.9383 6.13848 12.9633C6.00709 13.0615 5.87573 13.1597 5.74452 13.2581C5.51213 13.432 5.27647 13.6006 5.03858 13.7671C4.82061 13.9203 4.60706 14.0787 4.39418 14.2386C4.12826 14.4384 3.85971 14.6334 3.58692 14.8241C3.36517 14.9797 3.14896 15.1419 2.93287 15.305C2.352 15.7414 1.89355 16.0566 1.13649 15.9886C0.7926 15.9236 0.499786 15.7346 0.285711 15.464C0.0363553 15.0815 0.00311464 14.711 0.00513639 14.265C0.00498083 14.209 0.00477681 14.1529 0.00452881 14.0968C0.00399236 13.9435 0.00414811 13.7902 0.00442329 13.6369C0.00459979 13.4713 0.00413342 13.3056 0.00375251 13.14C0.00311303 12.8158 0.00308123 12.4915 0.00327644 12.1673C0.00342706 11.9037 0.00337293 11.6401 0.00317404 11.3765C0.00314618 11.3389 0.00311839 11.3014 0.00308968 11.2627C0.00303266 11.1864 0.00297536 11.1101 0.00291783 11.0338C0.00240699 10.3186 0.00260918 9.60342 0.00303642 8.88824C0.00340613 8.23448 0.00292463 7.58073 0.00203373 6.92697C0.00112514 6.25514 0.000768047 5.58332 0.00101556 4.91149C0.00114548 4.53453 0.00106316 4.15757 0.000410543 3.78061C-0.00013819 3.45969 -0.00016054 3.13877 0.00048752 2.81784C0.000803941 2.65423 0.000885446 2.49063 0.000314392 2.32701C-0.000202753 2.17699 -2.1772e-05 2.02697 0.000695584 1.87694C0.000835092 1.82292 0.000728273 1.7689 0.000337826 1.71488C-0.00296141 1.2231 0.0657371 0.782631 0.429108 0.421144C0.794289 0.0691435 1.24374 -0.00216049 1.73988 0.00159096ZM1.33029 1.26488C1.26532 1.3629 1.27136 1.43828 1.27125 1.5547C1.27094 1.60146 1.27063 1.64822 1.2703 1.69639C1.27052 1.74858 1.27074 1.80077 1.27098 1.85296C1.27083 1.90817 1.27062 1.96337 1.27037 2.01858C1.26983 2.17068 1.26999 2.32277 1.27027 2.47486C1.27044 2.63874 1.26998 2.80261 1.2696 2.96649C1.26896 3.28768 1.26893 3.60886 1.26912 3.93005C1.26927 4.191 1.26922 4.45195 1.26902 4.7129C1.26899 4.74999 1.26896 4.78708 1.26893 4.82529C1.26888 4.90062 1.26882 4.97596 1.26876 5.05129C1.26825 5.75832 1.26845 6.46534 1.26888 7.17236C1.26925 7.81979 1.26877 8.46721 1.26788 9.11463C1.26697 9.77878 1.26661 10.4429 1.26686 11.1071C1.26699 11.4802 1.2669 11.8533 1.26625 12.2264C1.26571 12.5441 1.26568 12.8617 1.26633 13.1793C1.26665 13.3414 1.26673 13.5036 1.26616 13.6657C1.26565 13.814 1.26582 13.9623 1.26654 14.1106C1.26668 14.1644 1.26657 14.2182 1.26618 14.272C1.2657 14.3448 1.26621 14.4176 1.26678 14.4905C1.26678 14.531 1.26679 14.5716 1.26679 14.6133C1.27633 14.7167 1.27633 14.7167 1.35588 14.7821C1.43233 14.831 1.43233 14.831 1.51694 14.8063C1.6659 14.7239 1.80038 14.6263 1.93695 14.5257C1.96781 14.5033 1.99866 14.4808 2.03046 14.4576C2.29545 14.2639 2.55795 14.0671 2.82045 13.8702C3.05288 13.6963 3.28859 13.5277 3.52647 13.3611C3.77749 13.1847 4.02284 13.0013 4.26809 12.8172C4.51049 12.6355 4.75533 12.4575 5.00171 12.281C5.16002 12.1673 5.31701 12.0522 5.4727 11.9351C5.50704 11.9093 5.54138 11.8835 5.57676 11.8568C5.64228 11.8074 5.70768 11.7579 5.77295 11.7082C6.17649 11.4037 6.59054 11.1025 7.12642 11.1296C7.67847 11.2006 8.03921 11.4825 8.46459 11.8104C8.66638 11.966 8.87092 12.117 9.07827 12.2654C9.33104 12.4464 9.58122 12.6304 9.82986 12.8168C10.0763 13.0015 10.3241 13.1841 10.5745 13.3636C10.8249 13.5432 11.0726 13.7258 11.3191 13.9105C11.5796 14.1057 11.8415 14.2988 12.1056 14.4893C12.1354 14.5108 12.1651 14.5322 12.1958 14.5544C12.4007 14.7239 12.4007 14.7239 12.6454 14.7764C12.6808 14.7674 12.7161 14.7583 12.7525 14.749C12.8033 14.6494 12.7945 14.5707 12.7946 14.4591C12.7947 14.4125 12.7949 14.366 12.795 14.318C12.795 14.2658 12.795 14.2137 12.7949 14.1615C12.795 14.1065 12.7951 14.0515 12.7953 13.9965C12.7956 13.8447 12.7956 13.6929 12.7957 13.5412C12.7957 13.3777 12.796 13.2143 12.7963 13.0508C12.7968 12.6932 12.797 12.3355 12.7972 11.9779C12.7973 11.7547 12.7974 11.5316 12.7976 11.3085C12.798 10.6911 12.7984 10.0738 12.7985 9.45646C12.7986 9.41693 12.7986 9.3774 12.7986 9.33667C12.7986 9.29704 12.7986 9.25741 12.7986 9.21658C12.7986 9.13628 12.7986 9.05597 12.7986 8.97566C12.7987 8.93582 12.7987 8.89599 12.7987 8.85495C12.7988 8.20906 12.7995 7.56317 12.8003 6.91728C12.8012 6.25477 12.8017 5.59227 12.8017 4.92977C12.8018 4.55754 12.802 4.18532 12.8026 3.81309C12.8032 3.49622 12.8034 3.17935 12.8031 2.86248C12.803 2.70069 12.803 2.5389 12.8035 2.37711C12.804 2.22916 12.804 2.08121 12.8035 1.93326C12.8034 1.87958 12.8035 1.8259 12.8039 1.77222C12.8043 1.69956 12.8039 1.6269 12.8036 1.55423C12.8036 1.51378 12.8036 1.47333 12.8036 1.43165C12.7971 1.33325 12.7971 1.33325 12.7448 1.26491C12.6552 1.20896 12.5946 1.20951 12.4884 1.20945C12.449 1.20917 12.4095 1.20888 12.3689 1.20859C12.3036 1.20895 12.3036 1.20895 12.2371 1.20933C12.1679 1.20907 12.1679 1.20907 12.0974 1.20881C11.9693 1.20845 11.8411 1.20858 11.713 1.20892C11.5748 1.20916 11.4367 1.20878 11.2986 1.20848C11.028 1.20799 10.7573 1.2081 10.4866 1.20842C10.2667 1.20866 10.0468 1.2087 9.82692 1.20858C9.79566 1.20856 9.7644 1.20855 9.73219 1.20853C9.66869 1.20849 9.60519 1.20846 9.54169 1.20842C8.94581 1.20811 8.34993 1.20847 7.75404 1.20906C7.2424 1.20955 6.73076 1.20946 6.21912 1.20896C5.62541 1.20837 5.03171 1.20814 4.43801 1.20848C4.37474 1.20851 4.31147 1.20855 4.2482 1.20858C4.21706 1.2086 4.18593 1.20861 4.15385 1.20863C3.93413 1.20873 3.7144 1.20857 3.49468 1.20831C3.22702 1.208 2.95937 1.20808 2.69171 1.20867C2.55507 1.20896 2.41843 1.20907 2.28178 1.20871C2.13387 1.20832 1.98597 1.20878 1.83805 1.20933C1.79456 1.20908 1.75107 1.20884 1.70626 1.20859C1.64709 1.20902 1.64709 1.20902 1.58672 1.20945C1.55255 1.20947 1.51838 1.20949 1.48318 1.20951C1.39634 1.21765 1.39634 1.21765 1.33029 1.26488Z" fill="white"/>
</svg>
