<svg width="19" height="19" viewBox="0 0 19 19" fill="none" xmlns="http://www.w3.org/2000/svg">
<g clip-path="url(#clip0_1_26718)">
<path d="M0.5 8.08398V14.834C0.5 16.9017 2.18225 18.584 4.25 18.584H14.75C16.8177 18.584 18.5 16.9017 18.5 14.834V8.08398H0.5ZM11.75 14.084H10.25V15.584C10.25 15.998 9.914 16.334 9.5 16.334C9.086 16.334 8.75 15.998 8.75 15.584V14.084H7.25C6.836 14.084 6.5 13.748 6.5 13.334C6.5 12.92 6.836 12.584 7.25 12.584H8.75V11.084C8.75 10.67 9.086 10.334 9.5 10.334C9.914 10.334 10.25 10.67 10.25 11.084V12.584H11.75C12.164 12.584 12.5 12.92 12.5 13.334C12.5 13.748 12.164 14.084 11.75 14.084ZM0.5 6.58398V5.83398C0.5 3.76623 2.18225 2.08398 4.25 2.08398H5V1.33398C5 0.919984 5.336 0.583984 5.75 0.583984C6.164 0.583984 6.5 0.919984 6.5 1.33398V2.08398H12.5V1.33398C12.5 0.919984 12.836 0.583984 13.25 0.583984C13.664 0.583984 14 0.919984 14 1.33398V2.08398H14.75C16.8177 2.08398 18.5 3.76623 18.5 5.83398V6.58398H0.5Z" fill="#263238"/>
</g>
<defs>
<clipPath id="clip0_1_26718">
<rect width="18" height="18" fill="white" transform="translate(0.5 0.583984)"/>
</clipPath>
</defs>
</svg>
