<svg width="23" height="23" viewBox="0 0 23 23" fill="none" xmlns="http://www.w3.org/2000/svg">
<g clip-path="url(#clip0_309_12344)">
<path d="M7.34085 11.5979C7.38288 11.5977 7.38288 11.5977 7.42576 11.5975C7.51882 11.5972 7.61189 11.5971 7.70495 11.597C7.77204 11.5968 7.83912 11.5966 7.90621 11.5964C8.08796 11.5958 8.26971 11.5956 8.45146 11.5954C8.56532 11.5952 8.67917 11.5951 8.79302 11.5949C9.1501 11.5943 9.50718 11.5939 9.86426 11.5937C10.2748 11.5935 10.6854 11.5928 11.0959 11.5915C11.4143 11.5906 11.7327 11.5902 12.051 11.5901C12.2407 11.59 12.4303 11.5898 12.62 11.589C12.7987 11.5883 12.9775 11.5882 13.1563 11.5886C13.2213 11.5886 13.2864 11.5885 13.3514 11.588C13.9401 11.5844 14.5095 11.6547 15.063 11.8672C15.0967 11.8798 15.1303 11.8924 15.165 11.9054C15.5229 12.0454 15.9244 12.2317 16.199 12.5063C16.2002 12.6517 16.2002 12.6517 16.156 12.8071C16.0604 12.8792 15.9857 12.9242 15.8794 12.9736C15.193 13.3291 14.7317 13.9163 14.491 14.6494C14.4168 14.918 14.3852 15.1951 14.3514 15.4712C14.3108 15.4754 14.2703 15.4796 14.2285 15.4839C13.3717 15.5837 12.6694 15.8957 12.1111 16.5704C11.6438 17.2141 11.4314 17.9413 11.553 18.7368C11.5689 18.8228 11.585 18.9087 11.6014 18.9946C11.6159 19.0948 11.6303 19.1951 11.6443 19.2954C10.8551 19.2984 10.0658 19.3007 9.2765 19.3021C8.90996 19.3027 8.54342 19.3036 8.17688 19.3051C7.85711 19.3064 7.53734 19.3072 7.21756 19.3075C7.04851 19.3077 6.87947 19.3081 6.71042 19.309C6.55073 19.3099 6.39104 19.3101 6.23134 19.31C6.14598 19.31 6.06063 19.3107 5.97527 19.3114C5.457 19.3097 4.90718 19.2593 4.44706 19.0027C4.41847 18.9875 4.38989 18.9723 4.36044 18.9567C4.1523 18.8438 3.95757 18.7237 3.78104 18.5649C3.74947 18.5368 3.7179 18.5086 3.68537 18.4796C3.16388 17.9878 2.85255 17.3389 2.827 16.6172C2.80678 15.3613 3.1552 14.2588 3.95292 13.2798C3.97923 13.2464 4.00554 13.213 4.03265 13.1785C4.80934 12.2429 6.12205 11.6011 7.34085 11.5979Z" fill="#263238"/>
<path d="M13.4306 1.06256C14.2823 1.73109 14.877 2.61077 15.1682 3.65411C15.1819 3.70031 15.1956 3.7465 15.2098 3.7941C15.4107 4.59575 15.378 5.53201 15.1252 6.31818C15.116 6.34753 15.1068 6.37688 15.0973 6.40711C14.9004 7.01837 14.6015 7.55086 14.1799 8.03693C14.1514 8.07166 14.1228 8.10638 14.0934 8.14217C13.329 9.0423 12.1711 9.60382 11.0002 9.71271C9.65403 9.796 8.44128 9.45483 7.39082 8.59552C7.36186 8.57259 7.33289 8.54966 7.30304 8.52603C6.40279 7.79073 5.83749 6.60206 5.71504 5.4588C5.63207 3.92948 6.03993 2.68165 7.04959 1.53404C8.69384 -0.192252 11.5493 -0.362024 13.4306 1.06256Z" fill="#263238"/>
<path d="M17.7951 14.6286C17.9682 14.7773 18.1036 14.9533 18.1758 15.1699C18.1796 15.2405 18.1809 15.3112 18.1807 15.3818C18.1807 15.4463 18.1807 15.4463 18.1807 15.5121C18.1805 15.5584 18.1802 15.6048 18.18 15.6525C18.18 15.7 18.1799 15.7475 18.1798 15.7965C18.1796 15.9484 18.1791 16.1003 18.1785 16.2522C18.1783 16.3551 18.1781 16.4581 18.1779 16.561C18.1774 16.8134 18.1767 17.0659 18.1758 17.3184C18.2007 17.318 18.2256 17.3176 18.2512 17.3172C18.512 17.3134 18.7727 17.3108 19.0334 17.3089C19.1305 17.3081 19.2276 17.3069 19.3247 17.3054C19.4649 17.3033 19.605 17.3024 19.7452 17.3016C19.7881 17.3007 19.831 17.2998 19.8752 17.2989C20.2083 17.2988 20.5068 17.3627 20.7727 17.5732C20.9878 17.841 21.0789 18.0602 21.071 18.4072C21.0347 18.6622 20.9106 18.9012 20.7217 19.0774C20.3994 19.282 20.0912 19.3135 19.7158 19.3075C19.6715 19.3073 19.6273 19.3072 19.5816 19.307C19.4416 19.3063 19.3015 19.3046 19.1614 19.303C19.0659 19.3024 18.9703 19.3018 18.8748 19.3012C18.6418 19.2998 18.4088 19.2977 18.1758 19.2949C18.1762 19.3335 18.1762 19.3335 18.1767 19.3729C18.1795 19.6412 18.1815 19.9096 18.1829 20.178C18.1835 20.278 18.1844 20.3781 18.1855 20.4782C18.1871 20.6223 18.1878 20.7664 18.1884 20.9105C18.1891 20.955 18.1897 20.9995 18.1904 21.0453C18.1905 21.4118 18.1122 21.6637 17.8598 21.937C17.6259 22.152 17.3704 22.154 17.0653 22.1457C16.757 22.1121 16.5752 21.9729 16.3809 21.739C16.2712 21.571 16.2315 21.4212 16.2325 21.2218C16.2325 21.1788 16.2325 21.1358 16.2325 21.0915C16.2329 21.0456 16.2334 20.9997 16.2338 20.9524C16.234 20.905 16.2341 20.8577 16.2342 20.8088C16.2347 20.6578 16.2358 20.5068 16.2369 20.3557C16.2373 20.2532 16.2377 20.1507 16.238 20.0482C16.239 19.7971 16.2404 19.546 16.2422 19.2949C16.2173 19.2953 16.1925 19.2957 16.1668 19.2961C15.9061 19.2999 15.6454 19.3025 15.3846 19.3044C15.2875 19.3052 15.1904 19.3064 15.0933 19.3079C14.9532 19.31 14.813 19.311 14.6729 19.3117C14.6085 19.3131 14.6085 19.3131 14.5429 19.3144C14.2098 19.3145 13.9112 19.2507 13.6453 19.0402C13.4 18.7347 13.3269 18.4831 13.3633 18.0918C13.4102 17.8125 13.5626 17.66 13.7695 17.4758C14.0472 17.2944 14.3397 17.3067 14.6603 17.31C14.7283 17.3102 14.7283 17.3102 14.7977 17.3104C14.9417 17.3108 15.0857 17.3119 15.2298 17.313C15.3278 17.3134 15.4258 17.3138 15.5238 17.3142C15.7633 17.3151 16.0027 17.3166 16.2422 17.3184C16.2418 17.2922 16.2415 17.2661 16.2411 17.2391C16.2373 16.9659 16.2347 16.6926 16.2328 16.4194C16.2319 16.3175 16.2308 16.2156 16.2293 16.1138C16.2272 15.967 16.2262 15.8203 16.2254 15.6735C16.2246 15.6283 16.2237 15.583 16.2228 15.5365C16.2227 15.2161 16.2727 14.9869 16.4906 14.7392C16.5272 14.7105 16.5272 14.7105 16.5645 14.6812C16.601 14.6514 16.601 14.6514 16.6383 14.6211C16.9994 14.3725 17.4371 14.383 17.7951 14.6286Z" fill="#263238"/>
</g>
<defs>
<clipPath id="clip0_309_12344">
<rect width="22" height="22" fill="white" transform="translate(0.945312 0.130859)"/>
</clipPath>
</defs>
</svg>
