<svg width="15" height="15" viewBox="0 0 15 15" fill="none" xmlns="http://www.w3.org/2000/svg">
<path d="M12.4094 6.31708C12.4094 9.51127 8.86595 12.8379 7.67605 13.8653C7.5652 13.9486 7.43026 13.9937 7.29157 13.9937C7.15288 13.9937 7.01794 13.9486 6.90709 13.8653C5.71719 12.8379 2.17371 9.51127 2.17371 6.31708C2.17371 4.95974 2.71291 3.65799 3.67269 2.69821C4.63248 1.73842 5.93423 1.19922 7.29157 1.19922C8.64891 1.19922 9.95066 1.73842 10.9104 2.69821C11.8702 3.65799 12.4094 4.95974 12.4094 6.31708Z" stroke="#6A7580" stroke-width="1.27947" stroke-linecap="round" stroke-linejoin="round"/>
<path d="M7.29157 8.23628C8.35152 8.23628 9.21077 7.37703 9.21077 6.31708C9.21077 5.25714 8.35152 4.39788 7.29157 4.39788C6.23163 4.39788 5.37237 5.25714 5.37237 6.31708C5.37237 7.37703 6.23163 8.23628 7.29157 8.23628Z" stroke="#6A7580" stroke-width="1.27947" stroke-linecap="round" stroke-linejoin="round"/>
</svg>
