<svg width="27" height="24" viewBox="0 0 27 24" fill="none" xmlns="http://www.w3.org/2000/svg">
<g filter="url(#filter0_d_309_13286)">
<path d="M13.1709 5.73145C13.3592 5.62768 13.5831 5.60313 13.873 5.71484C14.068 5.83733 14.235 6.04252 14.3867 6.27148C14.4624 6.38577 14.5338 6.50446 14.6025 6.62012C14.6711 6.7354 14.7375 6.84826 14.8027 6.94824C14.927 7.13859 15.0519 7.32867 15.1768 7.51855C15.2025 7.55765 15.2274 7.59742 15.2539 7.6377H15.2549C15.5758 8.12513 15.9026 8.60887 16.2295 9.0918C16.2513 9.12408 16.2734 9.15619 16.2959 9.18945C16.3392 9.25348 16.3823 9.31787 16.4258 9.38184C16.5416 9.55268 16.656 9.72448 16.7686 9.89746C16.7928 9.93449 16.8168 9.97162 16.8418 10.0098C16.8882 10.0808 16.9347 10.1522 16.9805 10.2236L16.9814 10.2246C17.1542 10.4883 17.3278 10.7115 17.6689 10.7881V10.7891H17.6748C17.9957 10.8188 18.2315 10.706 18.4561 10.5469L18.6797 10.376C18.7525 10.3193 18.8255 10.2627 18.8984 10.2061C18.9533 10.1633 18.9538 10.1628 19.0098 10.1191C19.1663 9.99831 19.326 9.88165 19.4863 9.76465C19.7494 9.57206 20.0098 9.37577 20.2686 9.17773C20.6203 8.90866 20.9755 8.64441 21.333 8.38281C21.4198 8.31908 21.5065 8.25466 21.5928 8.19043C21.6198 8.1704 21.647 8.15051 21.6748 8.12988C21.7252 8.09249 21.775 8.05424 21.8252 8.0166C21.9226 7.94457 22.0074 7.90022 22.0957 7.87598C22.1823 7.85224 22.2761 7.84714 22.3936 7.8584C22.5891 7.92561 22.7305 8.03761 22.8252 8.2168C22.8727 8.62316 22.7908 9.03969 22.7256 9.45215C22.7148 9.52202 22.704 9.59223 22.6934 9.66211C22.6645 9.85019 22.6359 10.0385 22.6064 10.2266C22.5756 10.424 22.5451 10.6219 22.5146 10.8193C22.4636 11.1501 22.4119 11.4808 22.3604 11.8115C22.2941 12.2365 22.2287 12.6619 22.1631 13.0869C22.1066 13.4527 22.0498 13.8188 21.9932 14.1846C21.981 14.2629 21.9692 14.3416 21.957 14.4199C21.9225 14.643 21.8873 14.8659 21.8525 15.0889C21.842 15.1564 21.8317 15.2244 21.8213 15.292C21.8071 15.384 21.7927 15.4763 21.7783 15.5684L21.7656 15.6504C21.7504 15.7467 21.7316 15.8339 21.7041 15.9238H5.29883C5.17461 15.2613 5.17479 15.2567 5.1377 15.0186C5.13347 14.9916 5.12838 14.9643 5.12402 14.9365C5.11029 14.8487 5.09661 14.7607 5.08301 14.6729C5.07302 14.6088 5.06372 14.5446 5.05371 14.4805C5.02124 14.2723 4.98831 14.0637 4.95605 13.8555C4.94486 13.7833 4.93405 13.7109 4.92285 13.6387C4.87024 13.2993 4.81802 12.9595 4.76562 12.6201C4.70543 12.2302 4.6448 11.84 4.58398 11.4502C4.53678 11.1475 4.48904 10.8448 4.44238 10.542C4.4146 10.3617 4.38666 10.1812 4.3584 10.001C4.33185 9.83162 4.30613 9.66167 4.28027 9.49219C4.27078 9.43045 4.26076 9.36834 4.25098 9.30664C4.17622 8.83436 4.13993 8.60357 4.1377 8.45117C4.13566 8.30861 4.16357 8.23787 4.22559 8.08789C4.38238 7.94087 4.53992 7.85358 4.75098 7.84277C5.04284 7.87637 5.24464 8.06215 5.48828 8.25195C5.56206 8.30883 5.6361 8.36607 5.70996 8.42285L5.82227 8.50879C5.98099 8.62988 6.142 8.74871 6.30273 8.86621C6.56496 9.05824 6.82477 9.25353 7.08301 9.45117C7.43613 9.72126 7.79214 9.98709 8.15137 10.249L8.39551 10.4287C8.44389 10.4641 8.4926 10.4998 8.54102 10.5352C8.5823 10.5655 8.62349 10.5966 8.66602 10.6279L8.66895 10.6299C8.88096 10.7644 9.07371 10.8146 9.3252 10.7891V10.79L9.33398 10.7871C9.76315 10.6618 9.95955 10.3317 10.1787 9.99316C10.2004 9.96001 10.2228 9.92673 10.2451 9.89258C10.2919 9.82111 10.3381 9.7493 10.3848 9.67773C10.5105 9.48477 10.6372 9.29223 10.7637 9.09961C10.8027 9.04009 10.8021 9.03907 10.8418 8.97852L10.8428 8.97949C11.1178 8.56109 11.398 8.14543 11.6787 7.73047C11.7144 7.67775 11.7146 7.67781 11.751 7.62402C11.7862 7.57199 11.7863 7.57166 11.8223 7.51855C11.8682 7.45058 11.914 7.38243 11.96 7.31445C11.9819 7.28196 12.0037 7.24929 12.0264 7.21582C12.1575 7.02185 12.2884 6.8269 12.418 6.63184C12.4328 6.60957 12.4477 6.58738 12.4629 6.56445C12.5287 6.4654 12.5947 6.36587 12.6602 6.2666C12.816 6.03129 12.9777 5.83792 13.1709 5.73145Z" fill="url(#paint0_linear_309_13286)" stroke="url(#paint1_linear_309_13286)" stroke-width="0.1"/>
<path d="M21.6914 17.3525C21.6914 18.4528 21.6905 19.0038 21.6631 19.3125C21.6492 19.4683 21.6289 19.5577 21.6006 19.623C21.5724 19.688 21.5352 19.7329 21.4785 19.7998L21.4775 19.8008C21.4612 19.8209 21.4445 19.8407 21.4277 19.8613C21.255 20.004 21.0747 20.0408 20.8457 20.041C20.8068 20.0413 20.8063 20.0417 20.7666 20.042C20.6804 20.0425 20.5943 20.0414 20.5078 20.041H20.5068C20.444 20.0412 20.3812 20.0417 20.3184 20.042C20.146 20.0426 19.9732 20.0423 19.8008 20.042C19.6149 20.0418 19.4289 20.0426 19.2432 20.043H17.2607C17.1975 20.043 17.1973 20.0439 17.1328 20.0439H14.4668C13.7319 20.0436 12.9966 20.044 12.2617 20.0449C11.5075 20.0459 10.7533 20.0462 9.99902 20.0459H6.40625C6.05153 20.0481 5.79268 20.0412 5.52539 19.8164C5.50937 19.7967 5.49306 19.7771 5.47656 19.7568L5.47559 19.7559L5.4248 19.6963C5.2206 19.3665 5.1884 18.9765 5.20996 18.5615C5.22075 18.354 5.24505 18.1427 5.2666 17.9307C5.28634 17.7365 5.30196 17.5417 5.30469 17.3525H21.6914Z" fill="url(#paint2_linear_309_13286)" stroke="url(#paint3_linear_309_13286)" stroke-width="0.1"/>
</g>
<defs>
<filter id="filter0_d_309_13286" x="-0.5" y="-2.15039" width="28" height="28" filterUnits="userSpaceOnUse" color-interpolation-filters="sRGB">
<feFlood flood-opacity="0" result="BackgroundImageFix"/>
<feColorMatrix in="SourceAlpha" type="matrix" values="0 0 0 0 0 0 0 0 0 0 0 0 0 0 0 0 0 0 127 0" result="hardAlpha"/>
<feOffset dy="-1"/>
<feGaussianBlur stdDeviation="2"/>
<feColorMatrix type="matrix" values="0 0 0 0 0 0 0 0 0 0 0 0 0 0 0 0 0 0 0.05 0"/>
<feBlend mode="normal" in2="BackgroundImageFix" result="effect1_dropShadow_309_13286"/>
<feBlend mode="normal" in="SourceGraphic" in2="effect1_dropShadow_309_13286" result="shape"/>
</filter>
<linearGradient id="paint0_linear_309_13286" x1="10.2192" y1="38.9341" x2="29.7981" y2="34.3598" gradientUnits="userSpaceOnUse">
<stop stop-color="#FEEF6A"/>
<stop offset="0.25" stop-color="#E8C200"/>
<stop offset="0.255" stop-color="#E8C200"/>
<stop offset="0.5" stop-color="#FFF347"/>
<stop offset="0.745" stop-color="#E8C200"/>
<stop offset="1" stop-color="#FFF347"/>
</linearGradient>
<linearGradient id="paint1_linear_309_13286" x1="6.59491" y1="7.40865" x2="12.7434" y2="18.6758" gradientUnits="userSpaceOnUse">
<stop stop-color="#D4A041"/>
<stop offset="0.246807" stop-color="#F7D14E"/>
<stop offset="0.663462" stop-color="#FCFBE7"/>
<stop offset="1" stop-color="#FBE67B"/>
</linearGradient>
<linearGradient id="paint2_linear_309_13286" x1="10.5631" y1="26.2757" x2="22.0438" y2="17.4831" gradientUnits="userSpaceOnUse">
<stop stop-color="#FEEF6A"/>
<stop offset="0.25" stop-color="#E8C200"/>
<stop offset="0.255" stop-color="#E8C200"/>
<stop offset="0.5" stop-color="#FFF347"/>
<stop offset="0.745" stop-color="#E8C200"/>
<stop offset="1" stop-color="#FFF347"/>
</linearGradient>
<linearGradient id="paint3_linear_309_13286" x1="7.36589" y1="17.7917" x2="8.00332" y2="21.6207" gradientUnits="userSpaceOnUse">
<stop stop-color="#D4A041"/>
<stop offset="0.246807" stop-color="#F7D14E"/>
<stop offset="0.663462" stop-color="#FCFBE7"/>
<stop offset="1" stop-color="#FBE67B"/>
</linearGradient>
</defs>
</svg>
