<svg width="19" height="19" viewBox="0 0 19 19" fill="none" xmlns="http://www.w3.org/2000/svg">
<g clip-path="url(#clip0_309_12241)">
<path d="M0.391195 7.58728C0.135445 7.26103 0.193195 6.79003 0.519445 6.53428L6.9207 1.52503C8.28119 0.460781 10.1817 0.460031 11.5422 1.52503L17.9434 6.53428C18.2697 6.78928 18.3274 7.26103 18.0717 7.58728C17.9239 7.77628 17.7034 7.87528 17.4807 7.87528C17.3194 7.87528 17.1559 7.82353 17.0194 7.71628L10.6182 2.70703C9.8022 2.06803 8.66145 2.06803 7.84545 2.70703L1.44345 7.71553C1.11645 7.97053 0.646195 7.91203 0.391195 7.58728ZM3.68745 14.3823C3.8727 14.524 3.9822 14.7445 3.9822 14.9785V17.9785C3.9822 18.3933 3.64695 18.7285 3.2322 18.7285H0.981445C0.566695 18.7285 0.231445 18.3933 0.231445 17.9785C0.231445 16.264 1.4097 14.698 3.0342 14.2548C3.25845 14.1948 3.50145 14.2405 3.68745 14.3823ZM18.2322 17.9785C18.2322 18.3933 17.8969 18.7285 17.4822 18.7285H15.2322C14.8174 18.7285 14.4822 18.3933 14.4822 17.9785V14.9785C14.4822 14.7445 14.5917 14.5248 14.7769 14.3823C14.9637 14.2413 15.2067 14.1948 15.4294 14.2548C17.0539 14.698 18.2322 16.264 18.2322 17.9785ZM3.60645 8.97853C2.5707 8.97853 1.73145 9.81778 1.73145 10.8535C1.73145 11.8893 2.5707 12.7285 3.60645 12.7285C4.6422 12.7285 5.48145 11.8893 5.48145 10.8535C5.48145 9.81778 4.6422 8.97853 3.60645 8.97853ZM16.7314 10.8535C16.7314 9.81778 15.8922 8.97853 14.8564 8.97853C13.8207 8.97853 12.9814 9.81778 12.9814 10.8535C12.9814 11.8893 13.8207 12.7285 14.8564 12.7285C15.8922 12.7285 16.7314 11.8893 16.7314 10.8535ZM9.23145 6.72853C8.1957 6.72853 7.35645 7.56778 7.35645 8.60353C7.35645 9.63928 8.1957 10.4785 9.23145 10.4785C10.2672 10.4785 11.1064 9.63928 11.1064 8.60353C11.1064 7.56778 10.2672 6.72853 9.23145 6.72853ZM12.9814 15.7285V17.9785C12.9814 18.3933 12.6462 18.7285 12.2314 18.7285H6.23145C5.8167 18.7285 5.48145 18.3933 5.48145 17.9785V15.7285C5.48145 13.6608 7.1637 11.9785 9.23145 11.9785C11.2992 11.9785 12.9814 13.6608 12.9814 15.7285Z" fill="#263238"/>
</g>
<defs>
<clipPath id="clip0_309_12241">
<rect width="18" height="18" fill="white" transform="translate(0.231445 0.729492)"/>
</clipPath>
</defs>
</svg>
