<svg width="18" height="22" viewBox="0 0 18 22" fill="none" xmlns="http://www.w3.org/2000/svg">
<path d="M16.6847 1.21674C17.3943 1.78926 17.8742 2.60287 17.9903 3.52551C18.0452 4.51293 17.8516 5.34398 17.2658 6.14365C17.2465 6.17033 17.2272 6.19702 17.2073 6.22451C16.7238 6.84301 15.9042 7.28142 15.1417 7.4003C14.4302 7.46334 13.7709 7.40474 13.1201 7.08454C13.0829 7.06645 13.0457 7.04837 13.0074 7.02973C12.7566 6.89958 12.5457 6.74031 12.3317 6.55481C12.2477 6.48222 12.1621 6.41488 12.0737 6.34819C11.4765 6.72134 10.8797 7.09505 10.2838 7.4704C10.1812 7.53504 10.0784 7.5996 9.97568 7.66413C9.60523 7.89686 9.23542 8.13056 8.86631 8.36549C8.47697 8.61326 8.08623 8.85865 7.69466 9.10277C7.50181 9.22307 7.30921 9.34368 7.118 9.46666C7.08777 9.48607 7.05755 9.50549 7.02641 9.52549C6.97186 9.56065 6.9174 9.59596 6.86306 9.63146C6.68909 9.74359 6.68909 9.74359 6.59979 9.74359C6.61094 9.78161 6.6221 9.81963 6.63359 9.8588C6.64817 9.90937 6.66275 9.95994 6.67777 10.012C6.69225 10.0619 6.70672 10.1117 6.72164 10.1631C6.89881 10.8566 6.82921 11.6087 6.59979 12.2799C6.62911 12.2911 6.65844 12.3023 6.68865 12.3138C6.79611 12.3596 6.88998 12.4116 6.98923 12.4734C7.02537 12.4958 7.06152 12.5183 7.09876 12.5413C7.13748 12.5656 7.1762 12.5899 7.2161 12.6148C7.2568 12.6402 7.29749 12.6655 7.33942 12.6916C7.71345 12.925 8.08553 13.1614 8.45738 13.3983C8.78216 13.6052 9.10822 13.8099 9.43426 14.0147C9.60976 14.125 9.78517 14.2354 9.96058 14.3458C10.031 14.3901 10.1015 14.4344 10.1719 14.4787C10.72 14.8236 11.268 15.1684 11.8161 15.5133C11.8499 15.5345 11.8837 15.5558 11.9185 15.5777C11.9702 15.6102 12.0219 15.6428 12.0737 15.6753C12.0911 15.6597 12.1086 15.6441 12.1265 15.6281C12.9694 14.8833 13.8924 14.538 15.0118 14.6117C15.6762 14.6863 16.2576 14.9765 16.7828 15.3889C16.8438 15.4345 16.8438 15.4345 16.9061 15.481C17.4932 16.0004 17.9231 16.852 17.9903 17.6389C18.0522 18.6693 17.8243 19.5727 17.148 20.3677C16.6078 20.9798 15.8289 21.4324 15.0126 21.4932C13.9394 21.5458 13.0716 21.297 12.2516 20.5747C11.6428 19.9939 11.253 19.1743 11.2129 18.3257C11.1995 17.8024 11.2358 17.3212 11.3894 16.8207C11.3495 16.7958 11.3495 16.7958 11.3087 16.7704C10.8247 16.4685 10.3412 16.1659 9.85996 15.8594C9.52553 15.6464 9.19006 15.4352 8.85373 15.2253C8.47793 14.9908 8.10343 14.7542 7.72975 14.5162C7.3774 14.292 7.02353 14.0704 6.66928 13.8494C6.62809 13.8237 6.58689 13.798 6.54445 13.7715C6.48608 13.7353 6.48608 13.7353 6.42653 13.6984C6.35764 13.6549 6.28941 13.6103 6.22214 13.5642C6.19402 13.5451 6.1659 13.5259 6.13693 13.5062C6.11327 13.4895 6.08961 13.4727 6.06523 13.4555C5.97239 13.415 5.92807 13.4297 5.83506 13.4663C5.75754 13.5276 5.68231 13.5919 5.60866 13.658C5.30601 13.9208 5.00182 14.1078 4.6301 14.2537C4.59195 14.2689 4.59195 14.2689 4.55302 14.2843C3.70247 14.6014 2.7384 14.5073 1.92257 14.1369C1.04472 13.6914 0.458451 12.9415 0.142334 12.0089C-0.113397 11.1953 -0.012998 10.2442 0.351126 9.48535C0.791443 8.6194 1.50002 7.98746 2.41389 7.68203C3.27944 7.42678 4.27473 7.52943 5.06514 7.96663C5.30748 8.11756 5.5237 8.29347 5.73805 8.48278C5.83518 8.55733 5.87708 8.58668 5.99605 8.59815C6.09982 8.55305 6.09982 8.55305 6.20673 8.48054C6.24845 8.45404 6.29016 8.42754 6.33314 8.40024C6.37842 8.37077 6.4237 8.34128 6.46898 8.31179C6.51612 8.28162 6.56328 8.2515 6.61048 8.22143C6.70758 8.15945 6.80449 8.0972 6.90126 8.0347C7.06967 7.92598 7.23888 7.81859 7.40814 7.71125C7.48688 7.66131 7.56557 7.61131 7.64423 7.56124C8.02935 7.31613 8.41644 7.07433 8.80358 6.83254C9.3796 6.47278 9.95373 6.11001 10.5268 5.74549C10.8136 5.56321 11.1009 5.38204 11.3894 5.20276C11.372 5.14596 11.372 5.14596 11.3542 5.08802C11.0867 4.13789 11.1619 3.154 11.6256 2.28564C12.0951 1.44297 12.8188 0.88584 13.7264 0.608232C14.7672 0.339392 15.8291 0.582162 16.6847 1.21674ZM12.9189 2.63959C12.575 3.10358 12.4302 3.64545 12.4761 4.22095C12.5815 4.81024 12.8283 5.32474 13.3055 5.6927C13.8344 6.04907 14.4116 6.22056 15.0469 6.09539C15.4249 5.99468 15.7269 5.83478 16.0181 5.57093C16.0428 5.54957 16.0676 5.52822 16.0931 5.50621C16.4978 5.13137 16.7067 4.60132 16.7424 4.05381C16.7432 3.40262 16.4933 2.85307 16.0635 2.3788C15.6741 2.00356 15.1407 1.8089 14.6093 1.79202C13.9312 1.81356 13.3562 2.11876 12.9189 2.63959ZM1.7699 9.62086C1.39763 10.1092 1.24735 10.645 1.28692 11.2572C1.38063 11.882 1.68217 12.3954 2.17129 12.7841C2.68664 13.1352 3.26776 13.2544 3.87543 13.1364C4.49673 12.9784 4.93782 12.6184 5.27157 12.0754C5.54311 11.5666 5.6179 10.9995 5.47282 10.439C5.37237 10.1263 5.23656 9.8727 5.03008 9.62086C5.00683 9.58627 4.98359 9.55168 4.95964 9.51604C4.5693 9.08624 4.00197 8.85807 3.43521 8.82826C2.77207 8.84527 2.21928 9.13342 1.7699 9.62086ZM13.0384 16.57C12.6692 16.9658 12.4777 17.5079 12.4611 18.048C12.4792 18.6376 12.7021 19.1677 13.1038 19.5923C13.5591 20.025 14.1004 20.2326 14.7216 20.2248C15.3037 20.1859 15.8289 19.9171 16.2193 19.4798C16.6018 18.9694 16.7999 18.3795 16.7199 17.7335C16.637 17.2991 16.4681 16.9457 16.1791 16.6162C16.158 16.591 16.137 16.5659 16.1154 16.54C15.7466 16.1287 15.2251 15.9163 14.6864 15.88C14.0457 15.8791 13.505 16.1331 13.0384 16.57Z" fill="white"/>
</svg>
