<svg width="18" height="19" viewBox="0 0 18 19" fill="none" xmlns="http://www.w3.org/2000/svg">
<g clip-path="url(#clip0_309_13058)">
<path d="M8.9955 1.54102C3.69675 1.57402 0.75 4.57327 0.75 9.77752C0.75 14.9818 3.69975 18.0103 9.0045 18.041C14.376 18.0095 17.1502 15.2383 17.25 9.77826C17.1585 4.50052 14.2305 1.57477 8.9955 1.54102ZM10.9665 11.7575C10.8202 11.9038 10.3702 12.1783 9.906 11.7575L8.46975 10.3213C8.32875 10.1803 8.25 9.98977 8.25 9.79102V6.48802C8.25 6.07402 8.586 5.73802 9 5.73802C9.414 5.73802 9.75 6.07402 9.75 6.48802V9.48052L10.9665 10.697C11.2597 10.9903 11.2597 11.4643 10.9665 11.7575Z" fill="#263238"/>
</g>
<defs>
<clipPath id="clip0_309_13058">
<rect width="18" height="18" fill="white" transform="translate(0 0.791016)"/>
</clipPath>
</defs>
</svg>
